<svg xmlns="http://www.w3.org/2000/svg" width="505" height="198" viewBox="0 0 505 198">
  <g id="Grupo_890016" data-name="Grupo 890016" transform="translate(-915 -383)">
    <rect id="Rectángulo_301531" data-name="Rectángulo 301531" width="505" height="198" transform="translate(915 383)" fill="#1565c0"/>
    <g id="Grupo_890015" data-name="Grupo 890015" transform="translate(757.154 -289.693)">
      <g id="Grupo_889974" data-name="Grupo 889974" transform="translate(290.691 696.256)">
        <g id="Grupo_889968" data-name="Grupo 889968" transform="translate(0 0)">
          <path id="Trazado_605863" data-name="Trazado 605863" d="M587.2,906.867H381.713a11.47,11.47,0,0,0-11.258,11.672V1043.32a.685.685,0,0,0,.672.7H596.243a.686.686,0,0,0,.673-.7V916.943A9.9,9.9,0,0,0,587.2,906.867Z" transform="translate(-356.109 -906.867)" fill="#92bff7"/>
          <rect id="Rectángulo_301746" data-name="Rectángulo 301746" width="209.303" height="122.143" transform="translate(22.925 10.757)" fill="#29478c"/>
          <path id="Trazado_605864" data-name="Trazado 605864" d="M1484.082,966.672a11.575,11.575,0,0,1,4.884,9.388v103.367a11.574,11.574,0,0,1-4.884,9.388h17.584V966.672Z" transform="translate(-1269.437 -955.915)" fill="#231f20" opacity="0.2"/>
          <path id="Trazado_605865" data-name="Trazado 605865" d="M371.8,918.555a10.337,10.337,0,0,1,10.331-10.343H589.074c2.51,0,4.152,1.094,5.942,2.585-1.9-2.28-4.091-3.93-7.285-3.93H380.785a10.337,10.337,0,0,0-10.33,10.343v126.807H371.8Z" transform="translate(-356.109 -906.867)" fill="#5f9bdd"/>
          <path id="Trazado_605866" data-name="Trazado 605866" d="M290.691,1669.5v3.415a10.532,10.532,0,0,0,10.336,10.716H535.41a10.633,10.633,0,0,0,10.436-10.82v-3.39a.022.022,0,0,0-.021-.022H290.787A.1.1,0,0,0,290.691,1669.5Z" transform="translate(-290.691 -1532.248)" fill="#8caed9"/>
          <path id="Trazado_605867" data-name="Trazado 605867" d="M876.9,1676.495H807.745c0,1.446,2.158,2.619,4.819,2.619h59.521c2.661,0,4.818-1.172,4.818-2.619Z" transform="translate(-714.747 -1538.068)" fill="#305c8f"/>
          <path id="Trazado_605868" data-name="Trazado 605868" d="M292.6,1708.959a10.359,10.359,0,0,0,9.027,7.034c.145.013.288.031.435.041.116.009.232.011.349.016.259.012.517.025.78.025H536.476c.262,0,.521-.012.78-.025.116,0,.233-.007.348-.016.146-.01.29-.028.435-.041a10.36,10.36,0,0,0,9.028-7.034Z" transform="translate(-292.256 -1564.694)" fill="#5e8ccf"/>
        </g>
        <g id="Grupo_889971" data-name="Grupo 889971" transform="translate(100.234 56.579)" opacity="0.2">
          <g id="Grupo_889970" data-name="Grupo 889970">
            <g id="Grupo_889969" data-name="Grupo 889969">
              <path id="Trazado_605869" data-name="Trazado 605869" d="M847.978,1264.111l18.427-9.082v3.553l-14.617,6.911v.079l14.617,6.95v3.514l-18.427-9.082Z" transform="translate(-847.978 -1248.987)" fill="#231f20"/>
              <path id="Trazado_605870" data-name="Trazado 605870" d="M965.3,1250.065l9.486-28.629h3.343l-9.486,28.629Z" transform="translate(-944.202 -1221.436)" fill="#231f20"/>
              <path id="Trazado_605871" data-name="Trazado 605871" d="M1068,1267.034l-18.427,9v-3.514l14.851-6.95v-.079l-14.851-6.95v-3.514l18.427,9Z" transform="translate(-1013.313 -1248.987)" fill="#231f20"/>
            </g>
          </g>
        </g>
        <g id="Grupo_889973" data-name="Grupo 889973" transform="translate(104.037 58.57)">
          <g id="Grupo_889972" data-name="Grupo 889972">
            <path id="Trazado_605872" data-name="Trazado 605872" d="M869.12,1269.244l15.864-7.819v3.059l-12.584,5.949v.068l12.584,5.984v3.026l-15.864-7.819Z" transform="translate(-869.12 -1256.224)" fill="#cde4f9"/>
            <path id="Trazado_605873" data-name="Trazado 605873" d="M970.13,1257.153l8.167-24.648h2.878l-8.167,24.648Z" transform="translate(-951.962 -1232.505)" fill="#cde4f9"/>
            <path id="Trazado_605874" data-name="Trazado 605874" d="M1058.542,1271.76l-15.864,7.751v-3.026l12.786-5.984v-.068l-12.786-5.983v-3.025l15.864,7.751Z" transform="translate(-1011.462 -1256.224)" fill="#cde4f9"/>
          </g>
        </g>
      </g>
      <g id="Grupo_889989" data-name="Grupo 889989" transform="translate(512.251 763.61)">
        <path id="Trazado_605922" data-name="Trazado 605922" d="M1527.27,1287.662s-.681-1.031-1.287-1.154c-.546-.111-.354-.08-.589-.114-.081-.012-.24-.045-.24-.045s-1.493-.3-1.685-.72.125-.618.907-.33,1.218-.692.068-1.414-2.272-1.855-1.808-2,1.338.593,1.338.593.036-.035-.2-.212-.945-.421-.8-.524a2.233,2.233,0,0,1,2.615,0,4.382,4.382,0,0,1,2.213,2.374,7.582,7.582,0,0,0,1.839,2.131S1528.156,1288.2,1527.27,1287.662Z" transform="translate(-1522.529 -1281.342)" fill="#f9c5af"/>
        <path id="Trazado_605923" data-name="Trazado 605923" d="M1551.229,1305.761l-5.2-5.075-2.069,2.069,2.184,3.334Z" transform="translate(-1540.105 -1297.207)" fill="#f85a7d"/>
        <path id="Trazado_605924" data-name="Trazado 605924" d="M1546.143,1312.466l-2.184-3.334.67-.67,2.808,3.92Z" transform="translate(-1540.105 -1303.585)" fill="#ea4477"/>
      </g>
      <g id="Grupo_889990" data-name="Grupo 889990" transform="translate(460.575 730.267)">
        <path id="Trazado_605925" data-name="Trazado 605925" d="M1279.1,1133.37h-.016l-40.724-.185a3.164,3.164,0,0,1-3.146-3.175l.14-30.663a3.4,3.4,0,0,1,3.4-3.384h.017l40.246.183a3.4,3.4,0,0,1,3.384,3.414l-.14,30.663a3.16,3.16,0,0,1-3.16,3.146Zm-40.347-36.655a2.65,2.65,0,0,0-2.647,2.635l-.14,30.663a2.412,2.412,0,0,0,2.4,2.419l40.724.185a2.339,2.339,0,0,0,1.706-.7,2.393,2.393,0,0,0,.714-1.7l.14-30.664a2.651,2.651,0,0,0-2.636-2.659l-40.246-.183Z" transform="translate(-1235.219 -1095.963)" fill="#5f9bdd"/>
      </g>
      <g id="Grupo_889991" data-name="Grupo 889991" transform="translate(468.838 734.343)">
        <path id="Trazado_605926" data-name="Trazado 605926" d="M1323.851,1160.068l-39.9-5.262a3.023,3.023,0,0,1-2.6-3.392l3.978-30.163a3.023,3.023,0,0,1,3.392-2.6l39.9,5.262a3.023,3.023,0,0,1,2.6,3.392l-3.978,30.163A3.023,3.023,0,0,1,1323.851,1160.068Z" transform="translate(-1281.292 -1118.622)" fill="#e5f0f9"/>
        <path id="Trazado_605927" data-name="Trazado 605927" d="M1319.393,1209.031l-9.6,6.223-9.612-16.338-18.831,17.308-.168,1.278a2.784,2.784,0,0,0,2.4,3.124l40.375,5.325a2.784,2.784,0,0,0,3.125-2.4l.659-4.994Z" transform="translate(-1281.159 -1184.475)" fill="#3885c6"/>
        <path id="Trazado_605928" data-name="Trazado 605928" d="M1482.466,1190.778a3.6,3.6,0,1,1-3.1-4.038A3.6,3.6,0,0,1,1482.466,1190.778Z" transform="translate(-1440.381 -1174.463)" fill="#3885c6"/>
      </g>
      <g id="Grupo_889996" data-name="Grupo 889996" transform="translate(321.706 730.643)">
        <g id="Grupo_889995" data-name="Grupo 889995" transform="translate(0)">
          <path id="Trazado_605946" data-name="Trazado 605946" d="M466.282,1138.048a3.208,3.208,0,0,1-3.152-3.226l.176-33.575a3.215,3.215,0,0,1,3.226-3.193l46.724.247a3.235,3.235,0,0,1,2.264.952,3.188,3.188,0,0,1,.928,2.274h0l-.176,33.575a3.216,3.216,0,0,1-3.227,3.193l-46.723-.247Zm47-38.995h-.031l-46.724-.247a2.462,2.462,0,0,0-2.471,2.445l-.176,33.575a2.441,2.441,0,0,0,.711,1.742,2.56,2.56,0,0,0,1.733.729l46.723.247a2.463,2.463,0,0,0,2.472-2.445l.176-33.575h0a2.457,2.457,0,0,0-2.413-2.47Z" transform="translate(-463.131 -1098.054)" fill="#5f9bdd"/>
        </g>
      </g>
      <g id="Grupo_889997" data-name="Grupo 889997" transform="translate(314.607 730.416)">
        <path id="Trazado_605947" data-name="Trazado 605947" d="M476.392,1135.877l-46.522,4.331a2.834,2.834,0,0,1-3.084-2.559l-3.113-33.431a2.834,2.834,0,0,1,2.559-3.084l46.522-4.331a2.834,2.834,0,0,1,3.084,2.559l3.113,33.431A2.834,2.834,0,0,1,476.392,1135.877Z" transform="translate(-423.66 -1096.79)" fill="#75bdfb"/>
        <path id="Trazado_605948" data-name="Trazado 605948" d="M547.2,1182.307l1.263,13.562,12.019-7.959Z" transform="translate(-524.981 -1166.925)" fill="#fff"/>
      </g>
      <g id="Grupo_890005" data-name="Grupo 890005" transform="translate(362.631 798.708)">
        <rect id="Rectángulo_301751" data-name="Rectángulo 301751" width="32.512" height="23.871" rx="4" transform="translate(0 0)" fill="#fb8c00"/>
        <g id="Grupo_890004" data-name="Grupo 890004" transform="translate(9.602 4.854)">
          <path id="Trazado_605972" data-name="Trazado 605972" d="M744.051,1509.968c1.243-.018,1.385-.692,1.385-1.26a13.026,13.026,0,0,0-.107-1.42,10.281,10.281,0,0,1-.124-1.437c0-1.668,1.065-2.378,2.645-2.378h.515v1.278h-.32c-.923,0-1.242.515-1.242,1.384a6.349,6.349,0,0,0,.124,1.118c.036.39.106.816.106,1.278a1.718,1.718,0,0,1-1.42,1.988v.036a1.736,1.736,0,0,1,1.42,2.006c0,.479-.071.9-.106,1.3a6.345,6.345,0,0,0-.124,1.118c0,.887.355,1.4,1.242,1.4h.32v1.26h-.515c-1.544,0-2.645-.639-2.645-2.432a10.04,10.04,0,0,1,.124-1.42,12.708,12.708,0,0,0,.107-1.4c0-.514-.142-1.242-1.385-1.26Z" transform="translate(-744.051 -1503.472)" fill="#fff"/>
          <path id="Trazado_605973" data-name="Trazado 605973" d="M798.455,1511.121c-1.224.018-1.384.745-1.384,1.26a12.816,12.816,0,0,0,.124,1.4,13.5,13.5,0,0,1,.124,1.42c0,1.792-1.1,2.432-2.644,2.432h-.515v-1.26h.32c.887-.018,1.225-.515,1.225-1.4a8.452,8.452,0,0,0-.107-1.118,9.356,9.356,0,0,1-.107-1.3,1.738,1.738,0,0,1,1.4-2.006v-.036a1.719,1.719,0,0,1-1.4-1.988,9.315,9.315,0,0,1,.107-1.278,8.457,8.457,0,0,0,.107-1.118c0-.87-.32-1.366-1.225-1.384h-.32v-1.278h.515c1.58,0,2.644.71,2.644,2.378a13.821,13.821,0,0,1-.124,1.438,13.135,13.135,0,0,0-.124,1.42c0,.568.16,1.242,1.384,1.26Z" transform="translate(-785.147 -1503.472)" fill="#fff"/>
        </g>
      </g>
      <g id="Grupo_890007" data-name="Grupo 890007" transform="translate(325.241 798.955)">
        <rect id="Rectángulo_301752" data-name="Rectángulo 301752" width="32.528" height="23.624" rx="5" transform="translate(0)" fill="#65c3ff"/>
        <g id="Grupo_890006" data-name="Grupo 890006" transform="translate(5.266 6.144)">
          <path id="Trazado_605974" data-name="Trazado 605974" d="M512.06,1528.911l7.412-3.6v1.407l-5.879,2.736v.031l5.879,2.752v1.392l-7.412-3.6Z" transform="translate(-512.06 -1522.922)" fill="#fff"/>
          <path id="Trazado_605975" data-name="Trazado 605975" d="M559.254,1523.35l3.816-11.337h1.345L560.6,1523.35Z" transform="translate(-550.766 -1512.013)" fill="#fff"/>
          <path id="Trazado_605976" data-name="Trazado 605976" d="M600.562,1530.069l-7.412,3.565v-1.392l5.974-2.752v-.031l-5.974-2.752v-1.391l7.412,3.565Z" transform="translate(-578.565 -1522.922)" fill="#fff"/>
        </g>
      </g>
      <g id="Grupo_890009" data-name="Grupo 890009" transform="translate(399.665 798.636)">
        <path id="Trazado_605977" data-name="Trazado 605977" d="M926.154,1476.08H898.738a2.061,2.061,0,0,0-2.17,1.931v20.082a2.061,2.061,0,0,0,2.17,1.931h27.416a2.061,2.061,0,0,0,2.17-1.931v-20.082A2.061,2.061,0,0,0,926.154,1476.08Z" transform="translate(-896.568 -1476.08)" fill="#26aab7"/>
        <g id="Grupo_890008" data-name="Grupo 890008" transform="translate(8.669 4.857)">
          <path id="Trazado_605978" data-name="Trazado 605978" d="M957.756,1513.846a6.1,6.1,0,1,0-9.289-1.783l-3.259,2.736a1.244,1.244,0,0,0,1.6,1.9l3.259-2.736A6.1,6.1,0,0,0,957.756,1513.846Zm-6.682-2.348a3.608,3.608,0,1,1,5.083.443A3.612,3.612,0,0,1,951.073,1511.5Z" transform="translate(-944.764 -1503.086)" fill="#fff"/>
        </g>
      </g>
    </g>
    <g id="Grupo_889665" data-name="Grupo 889665" transform="translate(980.833 496.276)">
      <path id="Trazado_604559" data-name="Trazado 604559" d="M568.261,641.325H512.489a4.12,4.12,0,0,0-4.12,4.12V670.8a4.12,4.12,0,0,0,4.12,4.12h16.795v10.141l13.367-10.141h25.61a4.12,4.12,0,0,0,4.12-4.12V645.445A4.12,4.12,0,0,0,568.261,641.325Z" transform="translate(-508.369 -641.325)" fill="#1565c0"/>
      <g id="Grupo_889664" data-name="Grupo 889664" transform="translate(17.447 8.995)">
        <path id="Trazado_604560" data-name="Trazado 604560" d="M584.3,687.948a8,8,0,0,1-3.269.564c-4.021,0-6.464-2.518-6.464-6.37,0-4.171,2.894-6.689,6.764-6.689a7.275,7.275,0,0,1,3.081.564l-.507,1.841a6.156,6.156,0,0,0-2.481-.489c-2.574,0-4.434,1.616-4.434,4.66,0,2.781,1.635,4.566,4.415,4.566a6.475,6.475,0,0,0,2.518-.47Z" transform="translate(-574.569 -675.453)" fill="#fff"/>
        <path id="Trazado_604561" data-name="Trazado 604561" d="M617.338,685.806a6.4,6.4,0,0,0,3.063.808c1.484,0,2.311-.7,2.311-1.729,0-.958-.639-1.522-2.255-2.1-2.085-.751-3.42-1.86-3.42-3.683,0-2.067,1.729-3.645,4.472-3.645a6.684,6.684,0,0,1,3.043.639l-.563,1.86a5.365,5.365,0,0,0-2.518-.6c-1.466,0-2.1.789-2.1,1.522,0,.977.733,1.428,2.424,2.086,2.2.827,3.269,1.935,3.269,3.758,0,2.029-1.54,3.8-4.81,3.8a7.525,7.525,0,0,1-3.419-.789Z" transform="translate(-605.693 -675.453)" fill="#fff"/>
        <path id="Trazado_604562" data-name="Trazado 604562" d="M654.33,685.806a6.4,6.4,0,0,0,3.063.808c1.484,0,2.311-.7,2.311-1.729,0-.958-.639-1.522-2.255-2.1-2.085-.751-3.419-1.86-3.419-3.683,0-2.067,1.728-3.645,4.472-3.645a6.684,6.684,0,0,1,3.043.639l-.563,1.86a5.366,5.366,0,0,0-2.518-.6c-1.465,0-2.1.789-2.1,1.522,0,.977.733,1.428,2.424,2.086,2.2.827,3.269,1.935,3.269,3.758,0,2.029-1.54,3.8-4.81,3.8a7.525,7.525,0,0,1-3.419-.789Z" transform="translate(-632.935 -675.453)" fill="#fff"/>
      </g>
    </g>
    <g id="Grupo_889667" data-name="Grupo 889667" transform="translate(1315 450.968)">
      <path id="Trazado_604563" data-name="Trazado 604563" d="M1544.839,888.181h-70.215a5.186,5.186,0,0,0-5.186,5.187v31.916a5.186,5.186,0,0,0,5.186,5.186h21.144v12.766L1512.6,930.47h32.242a5.187,5.187,0,0,0,5.187-5.186V893.368A5.187,5.187,0,0,0,1544.839,888.181Z" transform="translate(-1469.438 -888.181)" fill="#fb8c00"/>
      <g id="Grupo_889666" data-name="Grupo 889666" transform="translate(21.386 14.719)">
        <path id="Trazado_604564" data-name="Trazado 604564" d="M1550.583,944.336a23.837,23.837,0,0,1,3.95-.307,6.549,6.549,0,0,1,4.471,1.325,4.284,4.284,0,0,1,1.395,3.335,4.691,4.691,0,0,1-1.23,3.406,6.6,6.6,0,0,1-4.873,1.751,7.074,7.074,0,0,1-1.655-.142v6.387h-2.058Zm2.058,7.688a6.913,6.913,0,0,0,1.7.166c2.484,0,4-1.206,4-3.406,0-2.105-1.49-3.122-3.761-3.122a8.612,8.612,0,0,0-1.939.166Z" transform="translate(-1550.583 -944.028)" fill="#fff"/>
        <path id="Trazado_604565" data-name="Trazado 604565" d="M1600.375,944.477v6.671h7.711v-6.671h2.082V960.42h-2.082v-7.475h-7.711v7.475h-2.058V944.477Z" transform="translate(-1585.736 -944.359)" fill="#fff"/>
        <path id="Trazado_604566" data-name="Trazado 604566" d="M1656.818,944.336a23.834,23.834,0,0,1,3.95-.307,6.548,6.548,0,0,1,4.471,1.325,4.284,4.284,0,0,1,1.395,3.335,4.69,4.69,0,0,1-1.23,3.406,6.6,6.6,0,0,1-4.873,1.751,7.077,7.077,0,0,1-1.655-.142v6.387h-2.058Zm2.058,7.688a6.916,6.916,0,0,0,1.7.166c2.485,0,4-1.206,4-3.406,0-2.105-1.49-3.122-3.762-3.122a8.615,8.615,0,0,0-1.939.166Z" transform="translate(-1628.819 -944.028)" fill="#fff"/>
      </g>
    </g>
    <g id="Grupo_889669" data-name="Grupo 889669" transform="translate(957.179 406.563)">
      <path id="Trazado_604567" data-name="Trazado 604567" d="M1081.693,681.318h-37.309a2.756,2.756,0,0,0-2.756,2.756v16.959a2.756,2.756,0,0,0,2.756,2.756h11.235v6.784l8.942-6.784h17.132a2.756,2.756,0,0,0,2.756-2.756V684.074A2.756,2.756,0,0,0,1081.693,681.318Z" transform="translate(-1041.628 -681.318)" fill="#fb8c00"/>
      <g id="Grupo_889668" data-name="Grupo 889668" transform="translate(6.784 6.156)">
        <path id="Trazado_604568" data-name="Trazado 604568" d="M1068.461,704.674v3.545h4.1v-3.545h1.106v8.471h-1.106v-3.972h-4.1v3.972h-1.093v-8.471Z" transform="translate(-1067.368 -704.674)" fill="#fff"/>
        <path id="Trazado_604569" data-name="Trazado 604569" d="M1097.358,705.6h-2.577v-.93h6.272v.93h-2.589v7.541h-1.106Z" transform="translate(-1087.556 -704.674)" fill="#fff"/>
        <path id="Trazado_604570" data-name="Trazado 604570" d="M1128.654,709.425c-.063-1.182-.138-2.6-.125-3.658h-.038c-.289.993-.641,2.049-1.068,3.217l-1.5,4.11h-.829l-1.37-4.034c-.4-1.194-.742-2.288-.98-3.293h-.026c-.025,1.056-.088,2.476-.163,3.746l-.226,3.632h-1.043l.59-8.471h1.4l1.445,4.1c.352,1.043.641,1.973.854,2.853h.038c.214-.855.516-1.785.893-2.853l1.508-4.1h1.4l.528,8.471h-1.068Z" transform="translate(-1107.078 -704.674)" fill="#fff"/>
        <path id="Trazado_604571" data-name="Trazado 604571" d="M1160.479,704.674h1.094v7.554h3.619v.917h-4.713Z" transform="translate(-1135.939 -704.674)" fill="#fff"/>
      </g>
    </g>
  </g>
</svg>
