<svg xmlns="http://www.w3.org/2000/svg" width="1050" height="428" viewBox="0 0 1050 428">
  <g id="Grupo_893193" data-name="Grupo 893193" transform="translate(6650 7853)">
    <g id="Grupo_893192" data-name="Grupo 893192">
      <path id="Trazado_607167" data-name="Trazado 607167" d="M19,0H1031a19,19,0,0,1,19,19V409a19,19,0,0,1-19,19H19A19,19,0,0,1,0,409V19A19,19,0,0,1,19,0Z" transform="translate(-6650 -7853)" fill="#fff"/>
    </g>
    <path id="Trazado_607168" data-name="Trazado 607168" d="M8,0H167a8,8,0,0,1,8,8V68a8,8,0,0,1-8,8H8a8,8,0,0,1-8-8V8A8,8,0,0,1,8,0Z" transform="translate(-6557 -7800)" fill="#1565c0"/>
    <path id="Trazado_607169" data-name="Trazado 607169" d="M-65.2-9.781h-3.547V0H-70.7V-9.781h-3.516v-1.594H-65.2ZM-60.859.156A3.928,3.928,0,0,1-63.785-.98a4.124,4.124,0,0,1-1.121-3.027v-.234A5.072,5.072,0,0,1-64.418-6.5a3.716,3.716,0,0,1,1.371-1.551,3.625,3.625,0,0,1,1.969-.555,3.318,3.318,0,0,1,2.668,1.1,4.658,4.658,0,0,1,.941,3.117v.766h-5.523a2.539,2.539,0,0,0,.7,1.656,2.1,2.1,0,0,0,1.543.609,2.571,2.571,0,0,0,2.125-1.055l1.023.977A3.418,3.418,0,0,1-58.957-.262,4.244,4.244,0,0,1-60.859.156Zm-.227-7.242a1.6,1.6,0,0,0-1.262.547,2.835,2.835,0,0,0-.613,1.523h3.617v-.141A2.307,2.307,0,0,0-59.852-6.6,1.586,1.586,0,0,0-61.086-7.086Zm6.852-1.367.055.977a3.039,3.039,0,0,1,2.461-1.133q2.641,0,2.688,3.023V0h-1.9V-5.477a1.741,1.741,0,0,0-.348-1.191,1.462,1.462,0,0,0-1.137-.387,1.829,1.829,0,0,0-1.711,1.039V0h-1.9V-8.453ZM-43.375.156A3.928,3.928,0,0,1-46.3-.98a4.124,4.124,0,0,1-1.121-3.027v-.234A5.072,5.072,0,0,1-46.934-6.5a3.716,3.716,0,0,1,1.371-1.551,3.625,3.625,0,0,1,1.969-.555,3.318,3.318,0,0,1,2.668,1.1,4.658,4.658,0,0,1,.941,3.117v.766h-5.523a2.539,2.539,0,0,0,.7,1.656,2.1,2.1,0,0,0,1.543.609,2.571,2.571,0,0,0,2.125-1.055l1.023.977A3.418,3.418,0,0,1-41.473-.262,4.244,4.244,0,0,1-43.375.156ZM-43.6-7.086a1.6,1.6,0,0,0-1.262.547,2.835,2.835,0,0,0-.613,1.523h3.617v-.141A2.307,2.307,0,0,0-42.367-6.6,1.586,1.586,0,0,0-43.6-7.086Zm9.516.367a4.7,4.7,0,0,0-.773-.062,1.741,1.741,0,0,0-1.758,1V0h-1.9V-8.453H-36.7l.047.945a2.139,2.139,0,0,1,1.906-1.1,1.777,1.777,0,0,1,.672.109Zm10.3,5.891a2.944,2.944,0,0,1-2.375.984,2.624,2.624,0,0,1-2.082-.8,3.423,3.423,0,0,1-.707-2.328V-8.453h1.9V-3q0,1.609,1.336,1.609a1.876,1.876,0,0,0,1.867-.992v-6.07h1.9V0h-1.789Zm5.531-7.625.055.977a3.039,3.039,0,0,1,2.461-1.133q2.641,0,2.688,3.023V0h-1.9V-5.477a1.741,1.741,0,0,0-.348-1.191,1.462,1.462,0,0,0-1.137-.387,1.829,1.829,0,0,0-1.711,1.039V0h-1.9V-8.453ZM-2.391-2.3a.861.861,0,0,0-.418-.773A4.445,4.445,0,0,0-4.2-3.539a7.129,7.129,0,0,1-1.617-.516A2.158,2.158,0,0,1-7.234-6.047a2.25,2.25,0,0,1,.922-1.828,3.644,3.644,0,0,1,2.344-.734,3.792,3.792,0,0,1,2.449.75A2.38,2.38,0,0,1-.586-5.914h-1.9a1.17,1.17,0,0,0-.406-.91,1.557,1.557,0,0,0-1.078-.363,1.682,1.682,0,0,0-1.02.289.911.911,0,0,0-.395.773.769.769,0,0,0,.367.68,5.049,5.049,0,0,0,1.484.488,7.027,7.027,0,0,1,1.754.586,2.484,2.484,0,0,1,.945.816A2.082,2.082,0,0,1-.523-2.4,2.2,2.2,0,0,1-1.469-.551,4.031,4.031,0,0,1-3.945.156,4.371,4.371,0,0,1-5.8-.219,3.047,3.047,0,0,1-7.062-1.25a2.441,2.441,0,0,1-.453-1.414h1.844a1.338,1.338,0,0,0,.508,1.035,1.973,1.973,0,0,0,1.242.363,1.92,1.92,0,0,0,1.141-.285A.883.883,0,0,0-2.391-2.3ZM3.148,0H1.25V-8.453h1.9ZM1.133-10.656a1.02,1.02,0,0,1,.277-.732A1.043,1.043,0,0,1,2.2-11.68a1.056,1.056,0,0,1,.8.291,1.012,1.012,0,0,1,.281.732A.988.988,0,0,1,3-9.936a1.064,1.064,0,0,1-.8.287,1.051,1.051,0,0,1-.793-.287A1,1,0,0,1,1.133-10.656ZM9.953-2.3a.861.861,0,0,0-.418-.773,4.445,4.445,0,0,0-1.387-.469,7.129,7.129,0,0,1-1.617-.516A2.158,2.158,0,0,1,5.109-6.047a2.25,2.25,0,0,1,.922-1.828,3.644,3.644,0,0,1,2.344-.734,3.792,3.792,0,0,1,2.449.75,2.38,2.38,0,0,1,.934,1.945h-1.9a1.17,1.17,0,0,0-.406-.91,1.557,1.557,0,0,0-1.078-.363,1.682,1.682,0,0,0-1.02.289.911.911,0,0,0-.395.773.769.769,0,0,0,.367.68,5.049,5.049,0,0,0,1.484.488,7.027,7.027,0,0,1,1.754.586,2.484,2.484,0,0,1,.945.816A2.082,2.082,0,0,1,11.82-2.4a2.2,2.2,0,0,1-.945,1.848A4.031,4.031,0,0,1,8.4.156,4.371,4.371,0,0,1,6.547-.219,3.047,3.047,0,0,1,5.281-1.25a2.441,2.441,0,0,1-.453-1.414H6.672A1.338,1.338,0,0,0,7.18-1.629a1.973,1.973,0,0,0,1.242.363,1.92,1.92,0,0,0,1.141-.285A.883.883,0,0,0,9.953-2.3Zm5.9-8.211v2.055h1.492v1.406H15.852v4.719a1.039,1.039,0,0,0,.191.7.888.888,0,0,0,.684.215,2.924,2.924,0,0,0,.664-.078V-.023a4.676,4.676,0,0,1-1.25.18q-2.187,0-2.187-2.414V-7.047H12.563V-8.453h1.391v-2.055ZM22.516.156A3.928,3.928,0,0,1,19.59-.98a4.124,4.124,0,0,1-1.121-3.027v-.234A5.072,5.072,0,0,1,18.957-6.5a3.716,3.716,0,0,1,1.371-1.551A3.625,3.625,0,0,1,22.3-8.609a3.318,3.318,0,0,1,2.668,1.1,4.658,4.658,0,0,1,.941,3.117v.766H20.383a2.539,2.539,0,0,0,.7,1.656,2.1,2.1,0,0,0,1.543.609A2.571,2.571,0,0,0,24.75-2.414l1.023.977A3.418,3.418,0,0,1,24.418-.262,4.244,4.244,0,0,1,22.516.156Zm-.227-7.242a1.6,1.6,0,0,0-1.262.547,2.835,2.835,0,0,0-.613,1.523h3.617v-.141A2.307,2.307,0,0,0,23.523-6.6,1.586,1.586,0,0,0,22.289-7.086Zm6.875-1.367.055.883a3.042,3.042,0,0,1,2.438-1.039,2.337,2.337,0,0,1,2.32,1.3,3,3,0,0,1,2.594-1.3,2.636,2.636,0,0,1,2.082.773,3.405,3.405,0,0,1,.7,2.281V0h-1.9V-5.5A1.681,1.681,0,0,0,37.1-6.68a1.539,1.539,0,0,0-1.164-.375,1.581,1.581,0,0,0-1.059.348,1.833,1.833,0,0,0-.574.91L34.313,0h-1.9V-5.562a1.354,1.354,0,0,0-1.523-1.492,1.671,1.671,0,0,0-1.617.93V0h-1.9V-8.453ZM46.352,0a2.93,2.93,0,0,1-.219-.789,2.955,2.955,0,0,1-2.219.945A2.982,2.982,0,0,1,41.836-.57a2.325,2.325,0,0,1-.8-1.8,2.4,2.4,0,0,1,1-2.074,4.865,4.865,0,0,1,2.871-.723H46.07v-.555A1.481,1.481,0,0,0,45.7-6.77a1.456,1.456,0,0,0-1.117-.395,1.672,1.672,0,0,0-1.062.324,1,1,0,0,0-.414.824h-1.9a2.107,2.107,0,0,1,.461-1.3,3.071,3.071,0,0,1,1.254-.949,4.4,4.4,0,0,1,1.77-.344,3.547,3.547,0,0,1,2.367.746,2.661,2.661,0,0,1,.906,2.1v3.813a4.321,4.321,0,0,0,.32,1.82V0ZM44.266-1.367a2.16,2.16,0,0,0,1.059-.273,1.827,1.827,0,0,0,.746-.734V-3.969H45.047a2.8,2.8,0,0,0-1.586.367,1.189,1.189,0,0,0-.531,1.039,1.109,1.109,0,0,0,.363.871A1.407,1.407,0,0,0,44.266-1.367Zm9.32-2.922a5.026,5.026,0,0,1,.906-3.137,2.9,2.9,0,0,1,2.43-1.184,2.759,2.759,0,0,1,2.172.938V-12h1.9V0H59.273L59.18-.875A2.8,2.8,0,0,1,56.906.156a2.887,2.887,0,0,1-2.4-1.2A5.21,5.21,0,0,1,53.586-4.289Zm1.9.164a3.519,3.519,0,0,0,.5,2.012,1.61,1.61,0,0,0,1.41.723,1.793,1.793,0,0,0,1.7-1.039V-6.039a1.766,1.766,0,0,0-1.687-1.016,1.622,1.622,0,0,0-1.422.73A3.919,3.919,0,0,0,55.484-4.125ZM66.7.156A3.928,3.928,0,0,1,63.77-.98a4.124,4.124,0,0,1-1.121-3.027v-.234A5.072,5.072,0,0,1,63.137-6.5a3.716,3.716,0,0,1,1.371-1.551,3.625,3.625,0,0,1,1.969-.555,3.318,3.318,0,0,1,2.668,1.1,4.658,4.658,0,0,1,.941,3.117v.766H64.563a2.539,2.539,0,0,0,.7,1.656,2.1,2.1,0,0,0,1.543.609A2.571,2.571,0,0,0,68.93-2.414l1.023.977A3.418,3.418,0,0,1,68.6-.262,4.244,4.244,0,0,1,66.7.156Zm-.227-7.242a1.6,1.6,0,0,0-1.262.547,2.835,2.835,0,0,0-.613,1.523h3.617v-.141A2.307,2.307,0,0,0,67.7-6.6,1.586,1.586,0,0,0,66.469-7.086ZM-47.852,15.7a4.984,4.984,0,0,1,.492-2.238,3.6,3.6,0,0,1,1.383-1.531,3.9,3.9,0,0,1,2.047-.535,3.692,3.692,0,0,1,2.777,1.1A4.333,4.333,0,0,1-40,15.414l.008.445a5.029,5.029,0,0,1-.48,2.234,3.551,3.551,0,0,1-1.375,1.523,3.925,3.925,0,0,1-2.066.539,3.667,3.667,0,0,1-2.863-1.191,4.563,4.563,0,0,1-1.074-3.176Zm1.9.164a3.406,3.406,0,0,0,.539,2.043,1.752,1.752,0,0,0,1.5.738,1.733,1.733,0,0,0,1.5-.75,3.762,3.762,0,0,0,.535-2.2,3.362,3.362,0,0,0-.551-2.031,1.759,1.759,0,0,0-1.5-.75,1.743,1.743,0,0,0-1.477.738A3.691,3.691,0,0,0-45.953,15.859Zm11.992-2.578a4.7,4.7,0,0,0-.773-.062,1.741,1.741,0,0,0-1.758,1V20h-1.9V11.547h1.813l.047.945a2.139,2.139,0,0,1,1.906-1.1,1.777,1.777,0,0,1,.672.109Zm.719,2.43a4.944,4.944,0,0,1,.926-3.145,2.971,2.971,0,0,1,2.457-1.176A2.784,2.784,0,0,1-27.586,12.4l.086-.852h1.711v8.2a3.406,3.406,0,0,1-1.035,2.625,3.943,3.943,0,0,1-2.793.961,4.5,4.5,0,0,1-1.816-.387,3.228,3.228,0,0,1-1.348-1.012l.9-1.141a2.713,2.713,0,0,0,2.156,1.039,2.1,2.1,0,0,0,1.492-.512,1.961,1.961,0,0,0,.547-1.5v-.57a2.8,2.8,0,0,1-2.187.914,2.964,2.964,0,0,1-2.426-1.18A5.1,5.1,0,0,1-33.242,15.711Zm1.891.164a3.4,3.4,0,0,0,.52,2,1.671,1.671,0,0,0,1.441.73,1.827,1.827,0,0,0,1.7-.984V13.906a1.8,1.8,0,0,0-1.687-.961,1.677,1.677,0,0,0-1.457.742A3.811,3.811,0,0,0-31.352,15.875ZM-18.789,20a2.93,2.93,0,0,1-.219-.789,2.955,2.955,0,0,1-2.219.945A2.982,2.982,0,0,1-23.3,19.43a2.325,2.325,0,0,1-.8-1.8,2.4,2.4,0,0,1,1-2.074,4.865,4.865,0,0,1,2.871-.723h1.164v-.555a1.481,1.481,0,0,0-.367-1.051,1.456,1.456,0,0,0-1.117-.395,1.672,1.672,0,0,0-1.062.324,1,1,0,0,0-.414.824h-1.9a2.107,2.107,0,0,1,.461-1.3,3.071,3.071,0,0,1,1.254-.949,4.4,4.4,0,0,1,1.77-.344,3.547,3.547,0,0,1,2.367.746,2.661,2.661,0,0,1,.906,2.1v3.813a4.321,4.321,0,0,0,.32,1.82V20Zm-2.086-1.367a2.16,2.16,0,0,0,1.059-.273,1.827,1.827,0,0,0,.746-.734V16.031h-1.023a2.8,2.8,0,0,0-1.586.367,1.189,1.189,0,0,0-.531,1.039,1.109,1.109,0,0,0,.363.871A1.407,1.407,0,0,0-20.875,18.633Zm7.453-7.086.055.977a3.039,3.039,0,0,1,2.461-1.133q2.641,0,2.688,3.023V20h-1.9V14.523a1.741,1.741,0,0,0-.348-1.191,1.462,1.462,0,0,0-1.137-.387,1.829,1.829,0,0,0-1.711,1.039V20h-1.9V11.547ZM-4.266,20h-1.9V11.547h1.9ZM-6.281,9.344A1.02,1.02,0,0,1-6,8.612a1.043,1.043,0,0,1,.793-.291,1.056,1.056,0,0,1,.8.291,1.012,1.012,0,0,1,.281.732.988.988,0,0,1-.281.72,1.064,1.064,0,0,1-.8.287A1.051,1.051,0,0,1-6,10.064,1,1,0,0,1-6.281,9.344Zm6.109,9.141h4.5V20H-2.531V18.758l4.289-5.68H-2.453V11.547H4.164v1.2ZM10.9,20a2.93,2.93,0,0,1-.219-.789,2.955,2.955,0,0,1-2.219.945,2.982,2.982,0,0,1-2.078-.727,2.325,2.325,0,0,1-.8-1.8,2.4,2.4,0,0,1,1-2.074,4.865,4.865,0,0,1,2.871-.723h1.164v-.555a1.481,1.481,0,0,0-.367-1.051,1.456,1.456,0,0,0-1.117-.395,1.672,1.672,0,0,0-1.062.324,1,1,0,0,0-.414.824h-1.9a2.107,2.107,0,0,1,.461-1.3,3.071,3.071,0,0,1,1.254-.949,4.4,4.4,0,0,1,1.77-.344,3.547,3.547,0,0,1,2.367.746,2.661,2.661,0,0,1,.906,2.1v3.813a4.321,4.321,0,0,0,.32,1.82V20ZM8.813,18.633a2.16,2.16,0,0,0,1.059-.273,1.827,1.827,0,0,0,.746-.734V16.031H9.594a2.8,2.8,0,0,0-1.586.367,1.189,1.189,0,0,0-.531,1.039,1.109,1.109,0,0,0,.363.871A1.407,1.407,0,0,0,8.813,18.633Zm9.164.008a1.716,1.716,0,0,0,1.18-.414,1.415,1.415,0,0,0,.5-1.023h1.789a2.789,2.789,0,0,1-.492,1.473,3.228,3.228,0,0,1-1.25,1.082,3.725,3.725,0,0,1-1.7.4,3.6,3.6,0,0,1-2.812-1.148,4.555,4.555,0,0,1-1.039-3.172v-.2a4.479,4.479,0,0,1,1.031-3.09,3.571,3.571,0,0,1,2.813-1.16,3.473,3.473,0,0,1,2.457.879,3.148,3.148,0,0,1,1,2.309H19.656a1.738,1.738,0,0,0-.5-1.2,1.6,1.6,0,0,0-1.184-.469,1.671,1.671,0,0,0-1.422.668,3.408,3.408,0,0,0-.508,2.027v.3a3.465,3.465,0,0,0,.5,2.051A1.669,1.669,0,0,0,17.977,18.641ZM24.9,20H23V11.547h1.9ZM22.883,9.344a1.02,1.02,0,0,1,.277-.732,1.043,1.043,0,0,1,.793-.291,1.056,1.056,0,0,1,.8.291,1.012,1.012,0,0,1,.281.732.988.988,0,0,1-.281.72,1.064,1.064,0,0,1-.8.287,1.051,1.051,0,0,1-.793-.287A1,1,0,0,1,22.883,9.344ZM26.609,15.7a4.984,4.984,0,0,1,.492-2.238,3.6,3.6,0,0,1,1.383-1.531,3.9,3.9,0,0,1,2.047-.535,3.692,3.692,0,0,1,2.777,1.1,4.333,4.333,0,0,1,1.152,2.922l.008.445a5.029,5.029,0,0,1-.48,2.234,3.551,3.551,0,0,1-1.375,1.523,3.925,3.925,0,0,1-2.066.539,3.667,3.667,0,0,1-2.863-1.191,4.563,4.563,0,0,1-1.074-3.176Zm1.9.164a3.406,3.406,0,0,0,.539,2.043,1.752,1.752,0,0,0,1.5.738,1.733,1.733,0,0,0,1.5-.75,3.762,3.762,0,0,0,.535-2.2,3.362,3.362,0,0,0-.551-2.031,1.856,1.856,0,0,0-2.973-.012A3.691,3.691,0,0,0,28.508,15.859ZM31.055,8h2.164l-2.164,2.367-1.523,0Zm6.781,3.547.055.977a3.039,3.039,0,0,1,2.461-1.133q2.641,0,2.688,3.023V20h-1.9V14.523a1.741,1.741,0,0,0-.348-1.191,1.462,1.462,0,0,0-1.137-.387,1.829,1.829,0,0,0-1.711,1.039V20h-1.9V11.547ZM46.156,18a1.084,1.084,0,0,1,.82.3,1.045,1.045,0,0,1,.289.754,1.008,1.008,0,0,1-.289.738,1.28,1.28,0,0,1-1.625,0,.991.991,0,0,1-.3-.742,1.045,1.045,0,0,1,.289-.754A1.074,1.074,0,0,1,46.156,18Z" transform="translate(-6470 -7766)" fill="#fff"/>
    <path id="Trazado_607170" data-name="Trazado 607170" d="M8,0H167a8,8,0,0,1,8,8V68a8,8,0,0,1-8,8H8a8,8,0,0,1-8-8V8A8,8,0,0,1,8,0Z" transform="translate(-6217 -7800)" fill="#1565c0"/>
    <path id="Trazado_607171" data-name="Trazado 607171" d="M-60.348-3.7a4.107,4.107,0,0,1-1.344,2.84A4.581,4.581,0,0,1-64.809.156,4.436,4.436,0,0,1-67.2-.488,4.231,4.231,0,0,1-68.8-2.32a6.611,6.611,0,0,1-.586-2.758V-6.141a6.659,6.659,0,0,1,.57-2.836,4.3,4.3,0,0,1,1.637-1.891,4.566,4.566,0,0,1,2.465-.664,4.4,4.4,0,0,1,3.031,1.02,4.26,4.26,0,0,1,1.336,2.887h-1.969a2.81,2.81,0,0,0-.715-1.77,2.363,2.363,0,0,0-1.684-.543A2.308,2.308,0,0,0-66.7-9,4.709,4.709,0,0,0-67.4-6.231v1.009a5,5,0,0,0,.66,2.815,2.191,2.191,0,0,0,1.934.97,2.555,2.555,0,0,0,1.75-.523A2.729,2.729,0,0,0-62.316-3.7Zm1.227-.6a4.984,4.984,0,0,1,.492-2.238,3.6,3.6,0,0,1,1.383-1.531A3.9,3.9,0,0,1-55.2-8.609a3.692,3.692,0,0,1,2.777,1.1A4.333,4.333,0,0,1-51.27-4.586l.008.445a5.029,5.029,0,0,1-.48,2.234A3.551,3.551,0,0,1-53.117-.383a3.925,3.925,0,0,1-2.066.539,3.667,3.667,0,0,1-2.863-1.191,4.563,4.563,0,0,1-1.074-3.176Zm1.9.164A3.406,3.406,0,0,0-56.684-2.1a1.752,1.752,0,0,0,1.5.738,1.733,1.733,0,0,0,1.5-.75,3.762,3.762,0,0,0,.535-2.2A3.362,3.362,0,0,0-53.7-6.336a1.759,1.759,0,0,0-1.5-.75,1.743,1.743,0,0,0-1.477.738A3.691,3.691,0,0,0-57.223-4.141Zm9.352-4.312.055.883a3.042,3.042,0,0,1,2.438-1.039,2.337,2.337,0,0,1,2.32,1.3,3,3,0,0,1,2.594-1.3,2.636,2.636,0,0,1,2.082.773,3.405,3.405,0,0,1,.7,2.281V0h-1.9V-5.5a1.681,1.681,0,0,0-.352-1.18A1.539,1.539,0,0,0-41.1-7.055a1.581,1.581,0,0,0-1.059.348,1.833,1.833,0,0,0-.574.91l.008,5.8h-1.9V-5.562a1.354,1.354,0,0,0-1.523-1.492,1.671,1.671,0,0,0-1.617.93V0h-1.9V-8.453ZM-32.012.156A3.928,3.928,0,0,1-34.937-.98a4.124,4.124,0,0,1-1.121-3.027v-.234A5.072,5.072,0,0,1-35.57-6.5,3.716,3.716,0,0,1-34.2-8.055a3.625,3.625,0,0,1,1.969-.555,3.318,3.318,0,0,1,2.668,1.1,4.658,4.658,0,0,1,.941,3.117v.766h-5.523a2.539,2.539,0,0,0,.7,1.656,2.1,2.1,0,0,0,1.543.609,2.571,2.571,0,0,0,2.125-1.055l1.023.977A3.418,3.418,0,0,1-30.109-.262,4.244,4.244,0,0,1-32.012.156Zm-.227-7.242a1.6,1.6,0,0,0-1.262.547,2.835,2.835,0,0,0-.613,1.523H-30.5v-.141A2.307,2.307,0,0,0-31-6.6,1.586,1.586,0,0,0-32.238-7.086Zm6.852-1.367.055.977a3.039,3.039,0,0,1,2.461-1.133q2.641,0,2.688,3.023V0h-1.9V-5.477a1.741,1.741,0,0,0-.348-1.191,1.462,1.462,0,0,0-1.137-.387,1.829,1.829,0,0,0-1.711,1.039V0h-1.9V-8.453Zm9.516-2.055v2.055h1.492v1.406h-1.492v4.719a1.039,1.039,0,0,0,.191.7A.888.888,0,0,0-15-1.414a2.924,2.924,0,0,0,.664-.078V-.023a4.676,4.676,0,0,1-1.25.18q-2.188,0-2.187-2.414V-7.047H-19.16V-8.453h1.391v-2.055ZM-7.879,0A2.93,2.93,0,0,1-8.1-.789a2.955,2.955,0,0,1-2.219.945A2.982,2.982,0,0,1-12.395-.57a2.325,2.325,0,0,1-.8-1.8,2.4,2.4,0,0,1,1-2.074,4.865,4.865,0,0,1,2.871-.723H-8.16v-.555A1.481,1.481,0,0,0-8.527-6.77a1.456,1.456,0,0,0-1.117-.395,1.672,1.672,0,0,0-1.062.324,1,1,0,0,0-.414.824h-1.9a2.107,2.107,0,0,1,.461-1.3A3.071,3.071,0,0,1-11.3-8.266a4.4,4.4,0,0,1,1.77-.344,3.547,3.547,0,0,1,2.367.746,2.661,2.661,0,0,1,.906,2.1v3.813a4.321,4.321,0,0,0,.32,1.82V0ZM-9.965-1.367a2.159,2.159,0,0,0,1.059-.273,1.827,1.827,0,0,0,.746-.734V-3.969H-9.184A2.8,2.8,0,0,0-10.77-3.6,1.189,1.189,0,0,0-11.3-2.562a1.109,1.109,0,0,0,.363.871A1.407,1.407,0,0,0-9.965-1.367ZM2.09-10.508v2.055H3.582v1.406H2.09v4.719a1.039,1.039,0,0,0,.191.7.888.888,0,0,0,.684.215,2.924,2.924,0,0,0,.664-.078V-.023a4.676,4.676,0,0,1-1.25.18Q.191.156.191-2.258V-7.047H-1.2V-8.453H.191v-2.055Zm8.063,9.68A2.944,2.944,0,0,1,7.777.156,2.624,2.624,0,0,1,5.7-.648a3.423,3.423,0,0,1-.707-2.328V-8.453h1.9V-3q0,1.609,1.336,1.609a1.876,1.876,0,0,0,1.867-.992v-6.07h1.9V0H10.2Zm11.227-.531a1.716,1.716,0,0,0,1.18-.414,1.415,1.415,0,0,0,.5-1.023h1.789a2.789,2.789,0,0,1-.492,1.473,3.228,3.228,0,0,1-1.25,1.082,3.725,3.725,0,0,1-1.7.4A3.6,3.6,0,0,1,18.59-.992a4.555,4.555,0,0,1-1.039-3.172v-.2a4.479,4.479,0,0,1,1.031-3.09,3.571,3.571,0,0,1,2.813-1.16,3.473,3.473,0,0,1,2.457.879,3.148,3.148,0,0,1,1,2.309H23.059a1.738,1.738,0,0,0-.5-1.2,1.6,1.6,0,0,0-1.184-.469,1.671,1.671,0,0,0-1.422.668,3.408,3.408,0,0,0-.508,2.027v.3a3.465,3.465,0,0,0,.5,2.051A1.669,1.669,0,0,0,21.379-1.359ZM25.926-4.3a4.984,4.984,0,0,1,.492-2.238A3.6,3.6,0,0,1,27.8-8.074a3.9,3.9,0,0,1,2.047-.535,3.692,3.692,0,0,1,2.777,1.1,4.333,4.333,0,0,1,1.152,2.922l.008.445a5.029,5.029,0,0,1-.48,2.234A3.551,3.551,0,0,1,31.93-.383a3.925,3.925,0,0,1-2.066.539A3.667,3.667,0,0,1,27-1.035a4.563,4.563,0,0,1-1.074-3.176Zm1.9.164A3.406,3.406,0,0,0,28.363-2.1a1.752,1.752,0,0,0,1.5.738,1.733,1.733,0,0,0,1.5-.75,3.762,3.762,0,0,0,.535-2.2,3.362,3.362,0,0,0-.551-2.031,1.759,1.759,0,0,0-1.5-.75,1.743,1.743,0,0,0-1.477.738A3.691,3.691,0,0,0,27.824-4.141ZM30.371-12h2.164L30.371-9.633l-1.523,0Zm4.664,7.711a5.026,5.026,0,0,1,.906-3.137,2.9,2.9,0,0,1,2.43-1.184,2.759,2.759,0,0,1,2.172.938V-12h1.9V0H40.723l-.094-.875A2.8,2.8,0,0,1,38.355.156a2.887,2.887,0,0,1-2.4-1.2A5.21,5.21,0,0,1,35.035-4.289Zm1.9.164a3.519,3.519,0,0,0,.5,2.012,1.61,1.61,0,0,0,1.41.723,1.793,1.793,0,0,0,1.7-1.039V-6.039a1.766,1.766,0,0,0-1.687-1.016,1.622,1.622,0,0,0-1.422.73A3.919,3.919,0,0,0,36.934-4.125ZM46.441,0h-1.9V-8.453h1.9ZM44.426-10.656a1.02,1.02,0,0,1,.277-.732,1.043,1.043,0,0,1,.793-.291,1.056,1.056,0,0,1,.8.291,1.012,1.012,0,0,1,.281.732.988.988,0,0,1-.281.72,1.064,1.064,0,0,1-.8.287,1.051,1.051,0,0,1-.793-.287A1,1,0,0,1,44.426-10.656Zm3.75,6.367A4.944,4.944,0,0,1,49.1-7.434a2.971,2.971,0,0,1,2.457-1.176A2.784,2.784,0,0,1,53.832-7.6l.086-.852h1.711v8.2a3.406,3.406,0,0,1-1.035,2.625,3.943,3.943,0,0,1-2.793.961,4.5,4.5,0,0,1-1.816-.387A3.228,3.228,0,0,1,48.637,1.93l.9-1.141a2.713,2.713,0,0,0,2.156,1.039,2.1,2.1,0,0,0,1.492-.512,1.961,1.961,0,0,0,.547-1.5v-.57a2.8,2.8,0,0,1-2.187.914,2.964,2.964,0,0,1-2.426-1.18A5.1,5.1,0,0,1,48.176-4.289Zm1.891.164a3.4,3.4,0,0,0,.52,2,1.671,1.671,0,0,0,1.441.73,1.827,1.827,0,0,0,1.7-.984V-6.094a1.8,1.8,0,0,0-1.687-.961,1.677,1.677,0,0,0-1.457.742A3.811,3.811,0,0,0,50.066-4.125Zm7.156-.18a4.984,4.984,0,0,1,.492-2.238A3.6,3.6,0,0,1,59.1-8.074a3.9,3.9,0,0,1,2.047-.535,3.692,3.692,0,0,1,2.777,1.1,4.333,4.333,0,0,1,1.152,2.922l.008.445a5.029,5.029,0,0,1-.48,2.234A3.551,3.551,0,0,1,63.227-.383,3.925,3.925,0,0,1,61.16.156,3.667,3.667,0,0,1,58.3-1.035a4.563,4.563,0,0,1-1.074-3.176Zm1.9.164A3.406,3.406,0,0,0,59.66-2.1a1.752,1.752,0,0,0,1.5.738,1.733,1.733,0,0,0,1.5-.75,3.762,3.762,0,0,0,.535-2.2,3.362,3.362,0,0,0-.551-2.031,1.759,1.759,0,0,0-1.5-.75,1.743,1.743,0,0,0-1.477.738A3.691,3.691,0,0,0,59.121-4.141ZM67.871-2a1.084,1.084,0,0,1,.82.3,1.045,1.045,0,0,1,.289.754,1.008,1.008,0,0,1-.289.738,1.1,1.1,0,0,1-.82.293,1.1,1.1,0,0,1-.8-.289.991.991,0,0,1-.3-.742,1.045,1.045,0,0,1,.289-.754A1.074,1.074,0,0,1,67.871-2Z" transform="translate(-6130 -7759)" fill="#fff"/>
    <path id="Trazado_607184" data-name="Trazado 607184" d="M8,0H167a8,8,0,0,1,8,8V68a8,8,0,0,1-8,8H8a8,8,0,0,1-8-8V8A8,8,0,0,1,8,0Z" transform="translate(-5895 -7800)" fill="#1565c0"/>
    <path id="Trazado_607185" data-name="Trazado 607185" d="M-55.086-2.93a1.374,1.374,0,0,0-.527-1.156,6.345,6.345,0,0,0-1.9-.82A9.186,9.186,0,0,1-59.7-5.828a2.919,2.919,0,0,1-1.555-2.547,2.772,2.772,0,0,1,1.121-2.266,4.538,4.538,0,0,1,2.91-.891,4.916,4.916,0,0,1,2.117.438,3.475,3.475,0,0,1,1.461,1.246,3.2,3.2,0,0,1,.531,1.793h-1.969a1.761,1.761,0,0,0-.559-1.383,2.318,2.318,0,0,0-1.6-.5,2.415,2.415,0,0,0-1.5.412,1.371,1.371,0,0,0-.535,1.151A1.241,1.241,0,0,0-58.7-7.335a6.675,6.675,0,0,0,1.906.809,8.73,8.73,0,0,1,2.133.9,3.392,3.392,0,0,1,1.18,1.156,3.011,3.011,0,0,1,.375,1.527A2.707,2.707,0,0,1-54.2-.684a4.727,4.727,0,0,1-2.957.84A5.557,5.557,0,0,1-59.426-.3a3.812,3.812,0,0,1-1.609-1.262,3.144,3.144,0,0,1-.574-1.875h1.977a1.84,1.84,0,0,0,.641,1.5,2.805,2.805,0,0,0,1.836.531,2.437,2.437,0,0,0,1.551-.418A1.349,1.349,0,0,0-55.086-2.93Zm7.25,3.086A3.928,3.928,0,0,1-50.762-.98a4.124,4.124,0,0,1-1.121-3.027v-.234A5.072,5.072,0,0,1-51.395-6.5a3.716,3.716,0,0,1,1.371-1.551,3.625,3.625,0,0,1,1.969-.555,3.318,3.318,0,0,1,2.668,1.1,4.658,4.658,0,0,1,.941,3.117v.766h-5.523a2.539,2.539,0,0,0,.7,1.656,2.1,2.1,0,0,0,1.543.609A2.571,2.571,0,0,0-45.6-2.414l1.023.977A3.418,3.418,0,0,1-45.934-.262,4.244,4.244,0,0,1-47.836.156Zm-.227-7.242a1.6,1.6,0,0,0-1.262.547,2.835,2.835,0,0,0-.613,1.523h3.617v-.141A2.307,2.307,0,0,0-46.828-6.6,1.586,1.586,0,0,0-48.062-7.086Zm9.516.367a4.7,4.7,0,0,0-.773-.062,1.741,1.741,0,0,0-1.758,1V0h-1.9V-8.453h1.813l.047.945a2.139,2.139,0,0,1,1.906-1.1,1.777,1.777,0,0,1,.672.109Zm8.656,5.359a1.716,1.716,0,0,0,1.18-.414,1.415,1.415,0,0,0,.5-1.023h1.789a2.789,2.789,0,0,1-.492,1.473,3.228,3.228,0,0,1-1.25,1.082,3.725,3.725,0,0,1-1.7.4A3.6,3.6,0,0,1-32.68-.992a4.555,4.555,0,0,1-1.039-3.172v-.2a4.479,4.479,0,0,1,1.031-3.09,3.571,3.571,0,0,1,2.813-1.16,3.473,3.473,0,0,1,2.457.879,3.148,3.148,0,0,1,1,2.309h-1.789a1.738,1.738,0,0,0-.5-1.2,1.6,1.6,0,0,0-1.184-.469,1.671,1.671,0,0,0-1.422.668,3.408,3.408,0,0,0-.508,2.027v.3a3.465,3.465,0,0,0,.5,2.051A1.669,1.669,0,0,0-29.891-1.359ZM-22.969,0h-1.9V-12h1.9Zm7.117,0a2.93,2.93,0,0,1-.219-.789,2.955,2.955,0,0,1-2.219.945A2.982,2.982,0,0,1-20.367-.57a2.325,2.325,0,0,1-.8-1.8,2.4,2.4,0,0,1,1-2.074A4.865,4.865,0,0,1-17.3-5.164h1.164v-.555A1.481,1.481,0,0,0-16.5-6.77a1.456,1.456,0,0,0-1.117-.395,1.672,1.672,0,0,0-1.062.324,1,1,0,0,0-.414.824h-1.9a2.107,2.107,0,0,1,.461-1.3,3.071,3.071,0,0,1,1.254-.949,4.4,4.4,0,0,1,1.77-.344,3.547,3.547,0,0,1,2.367.746,2.661,2.661,0,0,1,.906,2.1v3.813a4.321,4.321,0,0,0,.32,1.82V0Zm-2.086-1.367a2.159,2.159,0,0,0,1.059-.273,1.827,1.827,0,0,0,.746-.734V-3.969h-1.023a2.8,2.8,0,0,0-1.586.367,1.189,1.189,0,0,0-.531,1.039,1.109,1.109,0,0,0,.363.871A1.407,1.407,0,0,0-17.937-1.367ZM-7.82-6.719a4.7,4.7,0,0,0-.773-.062,1.741,1.741,0,0,0-1.758,1V0h-1.9V-8.453h1.813l.047.945a2.139,2.139,0,0,1,1.906-1.1,1.777,1.777,0,0,1,.672.109ZM-7.258-4.3a4.984,4.984,0,0,1,.492-2.238A3.6,3.6,0,0,1-5.383-8.074a3.9,3.9,0,0,1,2.047-.535,3.692,3.692,0,0,1,2.777,1.1A4.333,4.333,0,0,1,.594-4.586L.6-4.141a5.029,5.029,0,0,1-.48,2.234A3.551,3.551,0,0,1-1.254-.383,3.925,3.925,0,0,1-3.32.156,3.667,3.667,0,0,1-6.184-1.035,4.563,4.563,0,0,1-7.258-4.211Zm1.9.164A3.406,3.406,0,0,0-4.82-2.1a1.752,1.752,0,0,0,1.5.738,1.733,1.733,0,0,0,1.5-.75,3.762,3.762,0,0,0,.535-2.2A3.362,3.362,0,0,0-1.84-6.336a1.759,1.759,0,0,0-1.5-.75,1.743,1.743,0,0,0-1.477.738A3.691,3.691,0,0,0-5.359-4.141Zm7.836,6.7L1.453,1.953A5.52,5.52,0,0,0,2.074.715,3.7,3.7,0,0,0,2.25-.359V-1.836H3.961L3.953-.469a3.81,3.81,0,0,1-.418,1.66A4.124,4.124,0,0,1,2.477,2.563Zm10.7-3.922a1.716,1.716,0,0,0,1.18-.414,1.415,1.415,0,0,0,.5-1.023h1.789a2.789,2.789,0,0,1-.492,1.473,3.228,3.228,0,0,1-1.25,1.082,3.725,3.725,0,0,1-1.7.4A3.6,3.6,0,0,1,10.391-.992,4.555,4.555,0,0,1,9.352-4.164v-.2a4.479,4.479,0,0,1,1.031-3.09A3.571,3.571,0,0,1,13.2-8.609a3.473,3.473,0,0,1,2.457.879,3.148,3.148,0,0,1,1,2.309H14.859a1.738,1.738,0,0,0-.5-1.2,1.6,1.6,0,0,0-1.184-.469,1.671,1.671,0,0,0-1.422.668,3.408,3.408,0,0,0-.508,2.027v.3a3.465,3.465,0,0,0,.5,2.051A1.669,1.669,0,0,0,13.18-1.359ZM17.727-4.3a4.984,4.984,0,0,1,.492-2.238A3.6,3.6,0,0,1,19.6-8.074a3.9,3.9,0,0,1,2.047-.535,3.692,3.692,0,0,1,2.777,1.1,4.333,4.333,0,0,1,1.152,2.922l.008.445a5.029,5.029,0,0,1-.48,2.234A3.551,3.551,0,0,1,23.73-.383a3.925,3.925,0,0,1-2.066.539A3.667,3.667,0,0,1,18.8-1.035a4.563,4.563,0,0,1-1.074-3.176Zm1.9.164A3.406,3.406,0,0,0,20.164-2.1a1.752,1.752,0,0,0,1.5.738,1.733,1.733,0,0,0,1.5-.75A3.762,3.762,0,0,0,23.7-4.3a3.362,3.362,0,0,0-.551-2.031,1.759,1.759,0,0,0-1.5-.75,1.743,1.743,0,0,0-1.477.738A3.691,3.691,0,0,0,19.625-4.141ZM31.617-6.719a4.7,4.7,0,0,0-.773-.062,1.741,1.741,0,0,0-1.758,1V0h-1.9V-8.453H29l.047.945a2.139,2.139,0,0,1,1.906-1.1,1.777,1.777,0,0,1,.672.109Zm3.969-3.789v2.055h1.492v1.406H35.586v4.719a1.039,1.039,0,0,0,.191.7.888.888,0,0,0,.684.215,2.924,2.924,0,0,0,.664-.078V-.023a4.676,4.676,0,0,1-1.25.18q-2.187,0-2.187-2.414V-7.047H32.3V-8.453h1.391v-2.055Zm2.352,6.2a4.984,4.984,0,0,1,.492-2.238,3.6,3.6,0,0,1,1.383-1.531,3.9,3.9,0,0,1,2.047-.535,3.692,3.692,0,0,1,2.777,1.1,4.333,4.333,0,0,1,1.152,2.922l.008.445a5.029,5.029,0,0,1-.48,2.234A3.551,3.551,0,0,1,43.941-.383a3.925,3.925,0,0,1-2.066.539,3.667,3.667,0,0,1-2.863-1.191,4.563,4.563,0,0,1-1.074-3.176Zm1.9.164A3.406,3.406,0,0,0,40.375-2.1a1.752,1.752,0,0,0,1.5.738,1.733,1.733,0,0,0,1.5-.75,3.762,3.762,0,0,0,.535-2.2,3.362,3.362,0,0,0-.551-2.031,1.759,1.759,0,0,0-1.5-.75,1.743,1.743,0,0,0-1.477.738A3.691,3.691,0,0,0,39.836-4.141ZM54.344-2.719l1.719-5.734h2.023L54.727,1.281A2.73,2.73,0,0,1,52.1,3.414a3.384,3.384,0,0,1-.914-.141V1.8l.359.023a1.848,1.848,0,0,0,1.082-.262A1.734,1.734,0,0,0,53.2.681l.273-.726L50.508-8.453h2.047ZM-64.391,18.641a1.716,1.716,0,0,0,1.18-.414,1.415,1.415,0,0,0,.5-1.023h1.789a2.789,2.789,0,0,1-.492,1.473,3.228,3.228,0,0,1-1.25,1.082,3.725,3.725,0,0,1-1.7.4,3.6,3.6,0,0,1-2.812-1.148,4.555,4.555,0,0,1-1.039-3.172v-.2a4.479,4.479,0,0,1,1.031-3.09,3.571,3.571,0,0,1,2.813-1.16,3.473,3.473,0,0,1,2.457.879,3.148,3.148,0,0,1,1,2.309h-1.789a1.738,1.738,0,0,0-.5-1.2,1.6,1.6,0,0,0-1.184-.469,1.671,1.671,0,0,0-1.422.668,3.408,3.408,0,0,0-.508,2.027v.3a3.465,3.465,0,0,0,.5,2.051A1.669,1.669,0,0,0-64.391,18.641Zm4.547-2.945a4.984,4.984,0,0,1,.492-2.238,3.6,3.6,0,0,1,1.383-1.531,3.9,3.9,0,0,1,2.047-.535,3.692,3.692,0,0,1,2.777,1.1,4.333,4.333,0,0,1,1.152,2.922l.008.445a5.029,5.029,0,0,1-.48,2.234,3.551,3.551,0,0,1-1.375,1.523,3.925,3.925,0,0,1-2.066.539,3.667,3.667,0,0,1-2.863-1.191,4.563,4.563,0,0,1-1.074-3.176Zm1.9.164a3.406,3.406,0,0,0,.539,2.043,1.752,1.752,0,0,0,1.5.738,1.733,1.733,0,0,0,1.5-.75,3.762,3.762,0,0,0,.535-2.2,3.362,3.362,0,0,0-.551-2.031,1.759,1.759,0,0,0-1.5-.75,1.743,1.743,0,0,0-1.477.738A3.691,3.691,0,0,0-57.945,15.859Zm9.328-4.312.055.977A3.039,3.039,0,0,1-46.1,11.391q2.641,0,2.688,3.023V20h-1.9V14.523a1.741,1.741,0,0,0-.348-1.191,1.462,1.462,0,0,0-1.137-.387,1.829,1.829,0,0,0-1.711,1.039V20h-1.9V11.547Zm10.609,7.094a1.716,1.716,0,0,0,1.18-.414,1.415,1.415,0,0,0,.5-1.023h1.789a2.789,2.789,0,0,1-.492,1.473,3.228,3.228,0,0,1-1.25,1.082,3.725,3.725,0,0,1-1.7.4A3.6,3.6,0,0,1-40.8,19.008a4.555,4.555,0,0,1-1.039-3.172v-.2a4.479,4.479,0,0,1,1.031-3.09,3.571,3.571,0,0,1,2.813-1.16,3.473,3.473,0,0,1,2.457.879,3.148,3.148,0,0,1,1,2.309h-1.789a1.738,1.738,0,0,0-.5-1.2,1.6,1.6,0,0,0-1.184-.469,1.671,1.671,0,0,0-1.422.668,3.408,3.408,0,0,0-.508,2.027v.3a3.465,3.465,0,0,0,.5,2.051A1.669,1.669,0,0,0-38.008,18.641ZM-31.086,20h-1.9V11.547h1.9ZM-33.1,9.344a1.02,1.02,0,0,1,.277-.732,1.043,1.043,0,0,1,.793-.291,1.056,1.056,0,0,1,.8.291,1.012,1.012,0,0,1,.281.732.988.988,0,0,1-.281.72,1.064,1.064,0,0,1-.8.287,1.051,1.051,0,0,1-.793-.287A1,1,0,0,1-33.1,9.344Zm8.82,8.359a.861.861,0,0,0-.418-.773,4.445,4.445,0,0,0-1.387-.469,7.129,7.129,0,0,1-1.617-.516,2.158,2.158,0,0,1-1.422-1.992,2.25,2.25,0,0,1,.922-1.828,3.644,3.644,0,0,1,2.344-.734,3.792,3.792,0,0,1,2.449.75,2.38,2.38,0,0,1,.934,1.945h-1.9a1.17,1.17,0,0,0-.406-.91,1.557,1.557,0,0,0-1.078-.363,1.682,1.682,0,0,0-1.02.289.911.911,0,0,0-.395.773.769.769,0,0,0,.367.68,5.049,5.049,0,0,0,1.484.488,7.027,7.027,0,0,1,1.754.586,2.484,2.484,0,0,1,.945.816,2.082,2.082,0,0,1,.309,1.156,2.2,2.2,0,0,1-.945,1.848,4.031,4.031,0,0,1-2.477.707,4.371,4.371,0,0,1-1.852-.375,3.047,3.047,0,0,1-1.266-1.031,2.441,2.441,0,0,1-.453-1.414h1.844a1.338,1.338,0,0,0,.508,1.035,1.973,1.973,0,0,0,1.242.363,1.92,1.92,0,0,0,1.141-.285A.883.883,0,0,0-24.281,17.7Zm3.164-2.008a4.984,4.984,0,0,1,.492-2.238,3.6,3.6,0,0,1,1.383-1.531,3.9,3.9,0,0,1,2.047-.535,3.692,3.692,0,0,1,2.777,1.1,4.333,4.333,0,0,1,1.152,2.922l.008.445a5.029,5.029,0,0,1-.48,2.234,3.551,3.551,0,0,1-1.375,1.523,3.925,3.925,0,0,1-2.066.539,3.667,3.667,0,0,1-2.863-1.191,4.563,4.563,0,0,1-1.074-3.176Zm1.9.164A3.406,3.406,0,0,0-18.68,17.9a1.752,1.752,0,0,0,1.5.738,1.733,1.733,0,0,0,1.5-.75,3.762,3.762,0,0,0,.535-2.2,3.362,3.362,0,0,0-.551-2.031,1.759,1.759,0,0,0-1.5-.75,1.743,1.743,0,0,0-1.477.738A3.691,3.691,0,0,0-19.219,15.859ZM-2.617,20a2.93,2.93,0,0,1-.219-.789,2.955,2.955,0,0,1-2.219.945,2.982,2.982,0,0,1-2.078-.727,2.325,2.325,0,0,1-.8-1.8,2.4,2.4,0,0,1,1-2.074,4.865,4.865,0,0,1,2.871-.723H-2.9v-.555a1.481,1.481,0,0,0-.367-1.051,1.456,1.456,0,0,0-1.117-.395,1.672,1.672,0,0,0-1.062.324,1,1,0,0,0-.414.824h-1.9a2.107,2.107,0,0,1,.461-1.3,3.071,3.071,0,0,1,1.254-.949,4.4,4.4,0,0,1,1.77-.344,3.547,3.547,0,0,1,2.367.746A2.661,2.661,0,0,1-1,14.234v3.813a4.321,4.321,0,0,0,.32,1.82V20ZM-4.7,18.633a2.16,2.16,0,0,0,1.059-.273,1.827,1.827,0,0,0,.746-.734V16.031H-3.922a2.8,2.8,0,0,0-1.586.367,1.189,1.189,0,0,0-.531,1.039,1.109,1.109,0,0,0,.363.871A1.407,1.407,0,0,0-4.7,18.633ZM3.008,20h-1.9V8h1.9Zm9.773.156A3.928,3.928,0,0,1,9.855,19.02a4.124,4.124,0,0,1-1.121-3.027v-.234A5.072,5.072,0,0,1,9.223,13.5a3.716,3.716,0,0,1,1.371-1.551,3.625,3.625,0,0,1,1.969-.555,3.318,3.318,0,0,1,2.668,1.1,4.658,4.658,0,0,1,.941,3.117v.766H10.648a2.539,2.539,0,0,0,.7,1.656,2.1,2.1,0,0,0,1.543.609,2.571,2.571,0,0,0,2.125-1.055l1.023.977a3.418,3.418,0,0,1-1.355,1.176A4.244,4.244,0,0,1,12.781,20.156Zm-.227-7.242a1.6,1.6,0,0,0-1.262.547,2.835,2.835,0,0,0-.613,1.523H14.3v-.141a2.307,2.307,0,0,0-.508-1.441A1.586,1.586,0,0,0,12.555,12.914ZM22.383,17.7a.861.861,0,0,0-.418-.773,4.445,4.445,0,0,0-1.387-.469,7.129,7.129,0,0,1-1.617-.516,2.158,2.158,0,0,1-1.422-1.992,2.25,2.25,0,0,1,.922-1.828,3.644,3.644,0,0,1,2.344-.734,3.792,3.792,0,0,1,2.449.75,2.38,2.38,0,0,1,.934,1.945h-1.9a1.17,1.17,0,0,0-.406-.91,1.557,1.557,0,0,0-1.078-.363,1.682,1.682,0,0,0-1.02.289.911.911,0,0,0-.395.773.769.769,0,0,0,.367.68,5.049,5.049,0,0,0,1.484.488A7.027,7.027,0,0,1,23,15.629a2.484,2.484,0,0,1,.945.816A2.082,2.082,0,0,1,24.25,17.6a2.2,2.2,0,0,1-.945,1.848,4.031,4.031,0,0,1-2.477.707,4.371,4.371,0,0,1-1.852-.375,3.047,3.047,0,0,1-1.266-1.031,2.441,2.441,0,0,1-.453-1.414H19.1a1.338,1.338,0,0,0,.508,1.035,1.973,1.973,0,0,0,1.242.363,1.92,1.92,0,0,0,1.141-.285A.883.883,0,0,0,22.383,17.7Zm6.992.938a1.716,1.716,0,0,0,1.18-.414,1.415,1.415,0,0,0,.5-1.023h1.789a2.789,2.789,0,0,1-.492,1.473,3.228,3.228,0,0,1-1.25,1.082,3.725,3.725,0,0,1-1.7.4,3.6,3.6,0,0,1-2.812-1.148,4.555,4.555,0,0,1-1.039-3.172v-.2a4.479,4.479,0,0,1,1.031-3.09,3.571,3.571,0,0,1,2.813-1.16,3.473,3.473,0,0,1,2.457.879,3.148,3.148,0,0,1,1,2.309H31.055a1.738,1.738,0,0,0-.5-1.2,1.6,1.6,0,0,0-1.184-.469,1.671,1.671,0,0,0-1.422.668,3.408,3.408,0,0,0-.508,2.027v.3a3.465,3.465,0,0,0,.5,2.051A1.669,1.669,0,0,0,29.375,18.641ZM38.7,13.281a4.7,4.7,0,0,0-.773-.062,1.741,1.741,0,0,0-1.758,1V20h-1.9V11.547h1.813l.047.945a2.139,2.139,0,0,1,1.906-1.1,1.777,1.777,0,0,1,.672.109ZM41.922,20h-1.9V11.547h1.9ZM39.906,9.344a1.02,1.02,0,0,1,.277-.732,1.043,1.043,0,0,1,.793-.291,1.056,1.056,0,0,1,.8.291,1.012,1.012,0,0,1,.281.732.988.988,0,0,1-.281.72,1.064,1.064,0,0,1-.8.287,1.051,1.051,0,0,1-.793-.287A1,1,0,0,1,39.906,9.344Zm11.5,6.516a5.078,5.078,0,0,1-.879,3.133,2.863,2.863,0,0,1-2.418,1.164,2.758,2.758,0,0,1-2.312-1.07L45.7,20H43.984V8h1.9v4.359a2.748,2.748,0,0,1,2.211-.969,2.9,2.9,0,0,1,2.43,1.148,5.162,5.162,0,0,1,.883,3.211Zm-1.9-.164a3.589,3.589,0,0,0-.484-2.062,1.613,1.613,0,0,0-1.406-.687,1.763,1.763,0,0,0-1.734,1.078v3.484a1.781,1.781,0,0,0,1.75,1.1,1.6,1.6,0,0,0,1.375-.664,3.477,3.477,0,0,0,.5-2.008ZM55.016,20h-1.9V11.547h1.9ZM53,9.344a1.02,1.02,0,0,1,.277-.732,1.043,1.043,0,0,1,.793-.291,1.056,1.056,0,0,1,.8.291,1.012,1.012,0,0,1,.281.732.988.988,0,0,1-.281.72,1.064,1.064,0,0,1-.8.287,1.051,1.051,0,0,1-.793-.287A1,1,0,0,1,53,9.344Zm8.508,3.938a4.7,4.7,0,0,0-.773-.062,1.741,1.741,0,0,0-1.758,1V20h-1.9V11.547h1.813l.047.945a2.139,2.139,0,0,1,1.906-1.1,1.777,1.777,0,0,1,.672.109ZM62.539,18a1.084,1.084,0,0,1,.82.3,1.045,1.045,0,0,1,.289.754,1.008,1.008,0,0,1-.289.738,1.28,1.28,0,0,1-1.625,0,.991.991,0,0,1-.3-.742,1.045,1.045,0,0,1,.289-.754A1.074,1.074,0,0,1,62.539,18Z" transform="translate(-5808 -7766)" fill="#fff"/>
    <path id="Trazado_607172" data-name="Trazado 607172" d="M8,0H167a8,8,0,0,1,8,8V68a8,8,0,0,1-8,8H8a8,8,0,0,1-8-8V8A8,8,0,0,1,8,0Z" transform="translate(-6557 -7669)" fill="#1565c0"/>
    <path id="Trazado_607173" data-name="Trazado 607173" d="M-66.5-1.594h5.164V0h-7.141V-11.375H-66.5ZM-57.984,0h-1.9V-12h1.9ZM-52.2.156A3.928,3.928,0,0,1-55.121-.98a4.124,4.124,0,0,1-1.121-3.027v-.234A5.072,5.072,0,0,1-55.754-6.5a3.716,3.716,0,0,1,1.371-1.551,3.625,3.625,0,0,1,1.969-.555,3.318,3.318,0,0,1,2.668,1.1A4.658,4.658,0,0,1-48.8-4.391v.766h-5.523a2.539,2.539,0,0,0,.7,1.656,2.1,2.1,0,0,0,1.543.609,2.571,2.571,0,0,0,2.125-1.055l1.023.977A3.418,3.418,0,0,1-50.293-.262,4.244,4.244,0,0,1-52.2.156Zm-.227-7.242a1.6,1.6,0,0,0-1.262.547A2.835,2.835,0,0,0-54.3-5.016h3.617v-.141A2.307,2.307,0,0,0-51.187-6.6,1.586,1.586,0,0,0-52.422-7.086Zm7.969,4.68,1.789-6.047H-40.7L-43.633,0h-1.648l-2.953-8.453h1.969ZM-34.586,0A2.93,2.93,0,0,1-34.8-.789a2.955,2.955,0,0,1-2.219.945A2.982,2.982,0,0,1-39.1-.57a2.325,2.325,0,0,1-.8-1.8,2.4,2.4,0,0,1,1-2.074,4.865,4.865,0,0,1,2.871-.723h1.164v-.555a1.481,1.481,0,0,0-.367-1.051,1.456,1.456,0,0,0-1.117-.395,1.672,1.672,0,0,0-1.062.324,1,1,0,0,0-.414.824h-1.9a2.107,2.107,0,0,1,.461-1.3,3.071,3.071,0,0,1,1.254-.949,4.4,4.4,0,0,1,1.77-.344,3.547,3.547,0,0,1,2.367.746,2.661,2.661,0,0,1,.906,2.1v3.813a4.321,4.321,0,0,0,.32,1.82V0Zm-2.086-1.367a2.16,2.16,0,0,0,1.059-.273,1.827,1.827,0,0,0,.746-.734V-3.969h-1.023a2.8,2.8,0,0,0-1.586.367,1.189,1.189,0,0,0-.531,1.039,1.109,1.109,0,0,0,.363.871A1.407,1.407,0,0,0-36.672-1.367Zm14.8.539A2.944,2.944,0,0,1-24.25.156a2.624,2.624,0,0,1-2.082-.8,3.423,3.423,0,0,1-.707-2.328V-8.453h1.9V-3q0,1.609,1.336,1.609a1.876,1.876,0,0,0,1.867-.992v-6.07h1.9V0h-1.789Zm5.531-7.625.055.977a3.039,3.039,0,0,1,2.461-1.133q2.641,0,2.688,3.023V0h-1.9V-5.477a1.741,1.741,0,0,0-.348-1.191,1.462,1.462,0,0,0-1.137-.387,1.829,1.829,0,0,0-1.711,1.039V0h-1.9V-8.453ZM-1.75-1.359A1.716,1.716,0,0,0-.57-1.773,1.415,1.415,0,0,0-.07-2.8H1.719a2.789,2.789,0,0,1-.492,1.473A3.228,3.228,0,0,1-.023-.242a3.725,3.725,0,0,1-1.7.4A3.6,3.6,0,0,1-4.539-.992,4.555,4.555,0,0,1-5.578-4.164v-.2a4.479,4.479,0,0,1,1.031-3.09,3.571,3.571,0,0,1,2.813-1.16A3.473,3.473,0,0,1,.723-7.73a3.148,3.148,0,0,1,1,2.309H-.07a1.738,1.738,0,0,0-.5-1.2A1.6,1.6,0,0,0-1.75-7.086a1.671,1.671,0,0,0-1.422.668A3.408,3.408,0,0,0-3.68-4.391v.3a3.465,3.465,0,0,0,.5,2.051A1.669,1.669,0,0,0-1.75-1.359ZM2.8-4.3a4.984,4.984,0,0,1,.492-2.238A3.6,3.6,0,0,1,4.672-8.074a3.9,3.9,0,0,1,2.047-.535A3.692,3.692,0,0,1,9.5-7.508a4.333,4.333,0,0,1,1.152,2.922l.008.445a5.029,5.029,0,0,1-.48,2.234A3.551,3.551,0,0,1,8.8-.383,3.925,3.925,0,0,1,6.734.156,3.667,3.667,0,0,1,3.871-1.035,4.563,4.563,0,0,1,2.8-4.211Zm1.9.164A3.406,3.406,0,0,0,5.234-2.1a1.752,1.752,0,0,0,1.5.738,1.733,1.733,0,0,0,1.5-.75,3.762,3.762,0,0,0,.535-2.2,3.362,3.362,0,0,0-.551-2.031,1.759,1.759,0,0,0-1.5-.75,1.743,1.743,0,0,0-1.477.738A3.691,3.691,0,0,0,4.7-4.141Zm9.328-4.312.055.977a3.039,3.039,0,0,1,2.461-1.133q2.641,0,2.688,3.023V0h-1.9V-5.477a1.741,1.741,0,0,0-.348-1.191,1.462,1.462,0,0,0-1.137-.387,1.829,1.829,0,0,0-1.711,1.039V0h-1.9V-8.453Zm9.516-2.055v2.055h1.492v1.406H23.539v4.719a1.039,1.039,0,0,0,.191.7.888.888,0,0,0,.684.215,2.924,2.924,0,0,0,.664-.078V-.023a4.676,4.676,0,0,1-1.25.18q-2.188,0-2.187-2.414V-7.047H20.25V-8.453h1.391v-2.055Zm7.367,3.789a4.7,4.7,0,0,0-.773-.062,1.741,1.741,0,0,0-1.758,1V0h-1.9V-8.453h1.813l.047.945a2.139,2.139,0,0,1,1.906-1.1,1.777,1.777,0,0,1,.672.109ZM31.469-4.3a4.984,4.984,0,0,1,.492-2.238,3.6,3.6,0,0,1,1.383-1.531,3.9,3.9,0,0,1,2.047-.535,3.692,3.692,0,0,1,2.777,1.1A4.333,4.333,0,0,1,39.32-4.586l.008.445a5.029,5.029,0,0,1-.48,2.234A3.551,3.551,0,0,1,37.473-.383a3.925,3.925,0,0,1-2.066.539,3.667,3.667,0,0,1-2.863-1.191,4.563,4.563,0,0,1-1.074-3.176Zm1.9.164A3.406,3.406,0,0,0,33.906-2.1a1.752,1.752,0,0,0,1.5.738,1.733,1.733,0,0,0,1.5-.75,3.762,3.762,0,0,0,.535-2.2,3.362,3.362,0,0,0-.551-2.031,1.759,1.759,0,0,0-1.5-.75,1.743,1.743,0,0,0-1.477.738A3.691,3.691,0,0,0,33.367-4.141ZM42.953,0h-1.9V-12h1.9Zm5.7-4.289a5.026,5.026,0,0,1,.906-3.137,2.9,2.9,0,0,1,2.43-1.184,2.759,2.759,0,0,1,2.172.938V-12h1.9V0H54.336l-.094-.875A2.8,2.8,0,0,1,51.969.156a2.887,2.887,0,0,1-2.4-1.2A5.21,5.21,0,0,1,48.648-4.289Zm1.9.164a3.519,3.519,0,0,0,.5,2.012,1.61,1.61,0,0,0,1.41.723,1.793,1.793,0,0,0,1.7-1.039V-6.039a1.766,1.766,0,0,0-1.687-1.016,1.622,1.622,0,0,0-1.422.73A3.919,3.919,0,0,0,50.547-4.125ZM61.758.156A3.928,3.928,0,0,1,58.832-.98a4.124,4.124,0,0,1-1.121-3.027v-.234A5.072,5.072,0,0,1,58.2-6.5,3.716,3.716,0,0,1,59.57-8.055a3.625,3.625,0,0,1,1.969-.555,3.318,3.318,0,0,1,2.668,1.1,4.658,4.658,0,0,1,.941,3.117v.766H59.625a2.539,2.539,0,0,0,.7,1.656,2.1,2.1,0,0,0,1.543.609,2.571,2.571,0,0,0,2.125-1.055l1.023.977A3.418,3.418,0,0,1,63.66-.262,4.244,4.244,0,0,1,61.758.156Zm-.227-7.242a1.6,1.6,0,0,0-1.262.547,2.835,2.835,0,0,0-.613,1.523h3.617v-.141A2.307,2.307,0,0,0,62.766-6.6,1.586,1.586,0,0,0,61.531-7.086ZM-46.344,20h-1.9V8h1.9Zm7.117,0a2.93,2.93,0,0,1-.219-.789,2.955,2.955,0,0,1-2.219.945,2.982,2.982,0,0,1-2.078-.727,2.325,2.325,0,0,1-.8-1.8,2.4,2.4,0,0,1,1-2.074,4.865,4.865,0,0,1,2.871-.723h1.164v-.555a1.481,1.481,0,0,0-.367-1.051,1.456,1.456,0,0,0-1.117-.395,1.672,1.672,0,0,0-1.062.324,1,1,0,0,0-.414.824h-1.9a2.107,2.107,0,0,1,.461-1.3,3.071,3.071,0,0,1,1.254-.949,4.4,4.4,0,0,1,1.77-.344,3.547,3.547,0,0,1,2.367.746,2.661,2.661,0,0,1,.906,2.1v3.813a4.321,4.321,0,0,0,.32,1.82V20Zm-2.086-1.367a2.16,2.16,0,0,0,1.059-.273,1.827,1.827,0,0,0,.746-.734V16.031h-1.023a2.8,2.8,0,0,0-1.586.367,1.189,1.189,0,0,0-.531,1.039,1.109,1.109,0,0,0,.363.871A1.407,1.407,0,0,0-41.312,18.633Zm10.43-.93a.861.861,0,0,0-.418-.773,4.445,4.445,0,0,0-1.387-.469,7.129,7.129,0,0,1-1.617-.516,2.158,2.158,0,0,1-1.422-1.992,2.25,2.25,0,0,1,.922-1.828,3.644,3.644,0,0,1,2.344-.734,3.792,3.792,0,0,1,2.449.75,2.38,2.38,0,0,1,.934,1.945h-1.9a1.17,1.17,0,0,0-.406-.91,1.557,1.557,0,0,0-1.078-.363,1.682,1.682,0,0,0-1.02.289.911.911,0,0,0-.395.773.769.769,0,0,0,.367.68,5.049,5.049,0,0,0,1.484.488,7.027,7.027,0,0,1,1.754.586,2.484,2.484,0,0,1,.945.816,2.082,2.082,0,0,1,.309,1.156,2.2,2.2,0,0,1-.945,1.848,4.031,4.031,0,0,1-2.477.707,4.371,4.371,0,0,1-1.852-.375,3.047,3.047,0,0,1-1.266-1.031,2.441,2.441,0,0,1-.453-1.414h1.844a1.338,1.338,0,0,0,.508,1.035,1.973,1.973,0,0,0,1.242.363,1.92,1.92,0,0,0,1.141-.285A.883.883,0,0,0-30.883,17.7Zm10.484-.109,1.789-6.047h1.961L-19.578,20h-1.648l-2.953-8.453h1.969Zm8.555,2.563A3.928,3.928,0,0,1-14.77,19.02a4.124,4.124,0,0,1-1.121-3.027v-.234A5.072,5.072,0,0,1-15.4,13.5a3.716,3.716,0,0,1,1.371-1.551,3.625,3.625,0,0,1,1.969-.555,3.318,3.318,0,0,1,2.668,1.1,4.658,4.658,0,0,1,.941,3.117v.766h-5.523a2.539,2.539,0,0,0,.7,1.656,2.1,2.1,0,0,0,1.543.609,2.571,2.571,0,0,0,2.125-1.055l1.023.977a3.418,3.418,0,0,1-1.355,1.176A4.244,4.244,0,0,1-11.844,20.156Zm-.227-7.242a1.6,1.6,0,0,0-1.262.547,2.835,2.835,0,0,0-.613,1.523h3.617v-.141a2.307,2.307,0,0,0-.508-1.441A1.586,1.586,0,0,0-12.07,12.914Zm9.516.367a4.7,4.7,0,0,0-.773-.062,1.741,1.741,0,0,0-1.758,1V20h-1.9V11.547h1.813l.047.945a2.139,2.139,0,0,1,1.906-1.1,1.777,1.777,0,0,1,.672.109ZM3.383,17.7a.861.861,0,0,0-.418-.773,4.445,4.445,0,0,0-1.387-.469,7.129,7.129,0,0,1-1.617-.516,2.158,2.158,0,0,1-1.422-1.992,2.25,2.25,0,0,1,.922-1.828A3.644,3.644,0,0,1,1.8,11.391a3.792,3.792,0,0,1,2.449.75,2.38,2.38,0,0,1,.934,1.945h-1.9a1.17,1.17,0,0,0-.406-.91A1.557,1.557,0,0,0,1.8,12.813a1.682,1.682,0,0,0-1.02.289.911.911,0,0,0-.395.773.769.769,0,0,0,.367.68,5.049,5.049,0,0,0,1.484.488A7.027,7.027,0,0,1,4,15.629a2.484,2.484,0,0,1,.945.816A2.082,2.082,0,0,1,5.25,17.6,2.2,2.2,0,0,1,4.3,19.449a4.031,4.031,0,0,1-2.477.707,4.371,4.371,0,0,1-1.852-.375A3.047,3.047,0,0,1-1.289,18.75a2.441,2.441,0,0,1-.453-1.414H.1a1.338,1.338,0,0,0,.508,1.035,1.973,1.973,0,0,0,1.242.363,1.92,1.92,0,0,0,1.141-.285A.883.883,0,0,0,3.383,17.7ZM8.922,20h-1.9V11.547h1.9ZM6.906,9.344a1.02,1.02,0,0,1,.277-.732,1.043,1.043,0,0,1,.793-.291,1.056,1.056,0,0,1,.8.291,1.012,1.012,0,0,1,.281.732.988.988,0,0,1-.281.72,1.064,1.064,0,0,1-.8.287,1.051,1.051,0,0,1-.793-.287A1,1,0,0,1,6.906,9.344ZM10.633,15.7a4.984,4.984,0,0,1,.492-2.238,3.6,3.6,0,0,1,1.383-1.531,3.9,3.9,0,0,1,2.047-.535,3.692,3.692,0,0,1,2.777,1.1,4.333,4.333,0,0,1,1.152,2.922l.008.445a5.029,5.029,0,0,1-.48,2.234,3.551,3.551,0,0,1-1.375,1.523,3.925,3.925,0,0,1-2.066.539,3.667,3.667,0,0,1-2.863-1.191,4.563,4.563,0,0,1-1.074-3.176Zm1.9.164A3.406,3.406,0,0,0,13.07,17.9a1.752,1.752,0,0,0,1.5.738,1.733,1.733,0,0,0,1.5-.75,3.762,3.762,0,0,0,.535-2.2,3.362,3.362,0,0,0-.551-2.031,1.856,1.856,0,0,0-2.973-.012A3.691,3.691,0,0,0,12.531,15.859Zm9.328-4.312.055.977a3.039,3.039,0,0,1,2.461-1.133q2.641,0,2.688,3.023V20h-1.9V14.523a1.741,1.741,0,0,0-.348-1.191,1.462,1.462,0,0,0-1.137-.387,1.829,1.829,0,0,0-1.711,1.039V20h-1.9V11.547Zm10.859,8.609a3.928,3.928,0,0,1-2.926-1.137,4.124,4.124,0,0,1-1.121-3.027v-.234A5.072,5.072,0,0,1,29.16,13.5a3.716,3.716,0,0,1,1.371-1.551,3.625,3.625,0,0,1,1.969-.555,3.318,3.318,0,0,1,2.668,1.1,4.658,4.658,0,0,1,.941,3.117v.766H30.586a2.539,2.539,0,0,0,.7,1.656,2.1,2.1,0,0,0,1.543.609,2.571,2.571,0,0,0,2.125-1.055l1.023.977a3.418,3.418,0,0,1-1.355,1.176A4.244,4.244,0,0,1,32.719,20.156Zm-.227-7.242a1.6,1.6,0,0,0-1.262.547,2.835,2.835,0,0,0-.613,1.523h3.617v-.141a2.307,2.307,0,0,0-.508-1.441A1.586,1.586,0,0,0,32.492,12.914ZM42.32,17.7a.861.861,0,0,0-.418-.773,4.445,4.445,0,0,0-1.387-.469,7.129,7.129,0,0,1-1.617-.516,2.158,2.158,0,0,1-1.422-1.992,2.25,2.25,0,0,1,.922-1.828,3.644,3.644,0,0,1,2.344-.734,3.792,3.792,0,0,1,2.449.75,2.38,2.38,0,0,1,.934,1.945h-1.9a1.17,1.17,0,0,0-.406-.91,1.557,1.557,0,0,0-1.078-.363,1.682,1.682,0,0,0-1.02.289.911.911,0,0,0-.395.773.769.769,0,0,0,.367.68,5.049,5.049,0,0,0,1.484.488,7.027,7.027,0,0,1,1.754.586,2.484,2.484,0,0,1,.945.816,2.082,2.082,0,0,1,.309,1.156,2.2,2.2,0,0,1-.945,1.848,4.031,4.031,0,0,1-2.477.707,4.371,4.371,0,0,1-1.852-.375,3.047,3.047,0,0,1-1.266-1.031,2.441,2.441,0,0,1-.453-1.414h1.844a1.338,1.338,0,0,0,.508,1.035,1.973,1.973,0,0,0,1.242.363,1.92,1.92,0,0,0,1.141-.285A.883.883,0,0,0,42.32,17.7Zm4.7.3a1.084,1.084,0,0,1,.82.3,1.045,1.045,0,0,1,.289.754,1.008,1.008,0,0,1-.289.738,1.28,1.28,0,0,1-1.625,0,.991.991,0,0,1-.3-.742,1.045,1.045,0,0,1,.289-.754A1.074,1.074,0,0,1,47.023,18Z" transform="translate(-6470 -7635)" fill="#fff"/>
    <path id="Trazado_607174" data-name="Trazado 607174" d="M8,0H167a8,8,0,0,1,8,8V68a8,8,0,0,1-8,8H8a8,8,0,0,1-8-8V8A8,8,0,0,1,8,0Z" transform="translate(-6217 -7669)" fill="#1565c0"/>
    <path id="Trazado_607175" data-name="Trazado 607175" d="M-55.309-4.219V0h-1.977V-11.375h4.352a4.4,4.4,0,0,1,3.027.993,3.34,3.34,0,0,1,1.121,2.628,3.229,3.229,0,0,1-1.1,2.6,4.613,4.613,0,0,1-3.074.931Zm0-1.594h2.375a2.339,2.339,0,0,0,1.609-.5,1.823,1.823,0,0,0,.555-1.434,1.967,1.967,0,0,0-.562-1.473,2.168,2.168,0,0,0-1.547-.566h-2.43Zm12.492-.906a4.7,4.7,0,0,0-.773-.062,1.741,1.741,0,0,0-1.758,1V0h-1.9V-8.453h1.813l.047.945a2.139,2.139,0,0,1,1.906-1.1,1.777,1.777,0,0,1,.672.109ZM-36.5-.828a2.944,2.944,0,0,1-2.375.984,2.624,2.624,0,0,1-2.082-.8,3.423,3.423,0,0,1-.707-2.328V-8.453h1.9V-3q0,1.609,1.336,1.609a1.876,1.876,0,0,0,1.867-.992v-6.07h1.9V0h-1.789ZM-29,.156A3.928,3.928,0,0,1-31.93-.98a4.124,4.124,0,0,1-1.121-3.027v-.234A5.072,5.072,0,0,1-32.562-6.5a3.716,3.716,0,0,1,1.371-1.551,3.625,3.625,0,0,1,1.969-.555,3.318,3.318,0,0,1,2.668,1.1,4.658,4.658,0,0,1,.941,3.117v.766h-5.523a2.539,2.539,0,0,0,.7,1.656,2.1,2.1,0,0,0,1.543.609A2.571,2.571,0,0,0-26.77-2.414l1.023.977A3.418,3.418,0,0,1-27.1-.262,4.244,4.244,0,0,1-29,.156Zm-.227-7.242a1.6,1.6,0,0,0-1.262.547,2.835,2.835,0,0,0-.613,1.523h3.617v-.141A2.307,2.307,0,0,0-28-6.6,1.586,1.586,0,0,0-29.23-7.086Zm12.508,2.945A5.078,5.078,0,0,1-17.6-1.008,2.863,2.863,0,0,1-20.02.156a2.758,2.758,0,0,1-2.312-1.07L-22.426,0h-1.719V-12h1.9v4.359a2.748,2.748,0,0,1,2.211-.969,2.9,2.9,0,0,1,2.43,1.148,5.162,5.162,0,0,1,.883,3.211Zm-1.9-.164a3.589,3.589,0,0,0-.484-2.062,1.613,1.613,0,0,0-1.406-.687,1.763,1.763,0,0,0-1.734,1.078v3.484a1.781,1.781,0,0,0,1.75,1.1,1.6,1.6,0,0,0,1.375-.664,3.477,3.477,0,0,0,.5-2.008ZM-10.082,0A2.93,2.93,0,0,1-10.3-.789,2.955,2.955,0,0,1-12.52.156,2.982,2.982,0,0,1-14.6-.57a2.325,2.325,0,0,1-.8-1.8,2.4,2.4,0,0,1,1-2.074,4.865,4.865,0,0,1,2.871-.723h1.164v-.555A1.481,1.481,0,0,0-10.73-6.77a1.456,1.456,0,0,0-1.117-.395,1.672,1.672,0,0,0-1.062.324,1,1,0,0,0-.414.824h-1.9a2.107,2.107,0,0,1,.461-1.3,3.071,3.071,0,0,1,1.254-.949,4.4,4.4,0,0,1,1.77-.344,3.547,3.547,0,0,1,2.367.746,2.661,2.661,0,0,1,.906,2.1v3.813a4.321,4.321,0,0,0,.32,1.82V0Zm-2.086-1.367a2.159,2.159,0,0,0,1.059-.273,1.827,1.827,0,0,0,.746-.734V-3.969h-1.023a2.8,2.8,0,0,0-1.586.367A1.189,1.189,0,0,0-13.5-2.562a1.109,1.109,0,0,0,.363.871A1.407,1.407,0,0,0-12.168-1.367ZM2.246-2.3a.861.861,0,0,0-.418-.773A4.445,4.445,0,0,0,.441-3.539a7.129,7.129,0,0,1-1.617-.516A2.158,2.158,0,0,1-2.6-6.047a2.25,2.25,0,0,1,.922-1.828A3.644,3.644,0,0,1,.668-8.609a3.792,3.792,0,0,1,2.449.75,2.38,2.38,0,0,1,.934,1.945h-1.9a1.17,1.17,0,0,0-.406-.91A1.557,1.557,0,0,0,.668-7.187,1.682,1.682,0,0,0-.352-6.9a.911.911,0,0,0-.395.773.769.769,0,0,0,.367.68,5.049,5.049,0,0,0,1.484.488,7.027,7.027,0,0,1,1.754.586,2.484,2.484,0,0,1,.945.816A2.082,2.082,0,0,1,4.113-2.4,2.2,2.2,0,0,1,3.168-.551,4.031,4.031,0,0,1,.691.156,4.371,4.371,0,0,1-1.16-.219,3.047,3.047,0,0,1-2.426-1.25a2.441,2.441,0,0,1-.453-1.414h1.844A1.338,1.338,0,0,0-.527-1.629a1.973,1.973,0,0,0,1.242.363,1.92,1.92,0,0,0,1.141-.285A.883.883,0,0,0,2.246-2.3ZM7.785,0h-1.9V-8.453h1.9ZM5.77-10.656a1.02,1.02,0,0,1,.277-.732,1.043,1.043,0,0,1,.793-.291,1.056,1.056,0,0,1,.8.291,1.012,1.012,0,0,1,.281.732.988.988,0,0,1-.281.72,1.064,1.064,0,0,1-.8.287,1.051,1.051,0,0,1-.793-.287A1,1,0,0,1,5.77-10.656ZM13.574.156A3.928,3.928,0,0,1,10.648-.98,4.124,4.124,0,0,1,9.527-4.008v-.234A5.072,5.072,0,0,1,10.016-6.5a3.716,3.716,0,0,1,1.371-1.551,3.625,3.625,0,0,1,1.969-.555,3.318,3.318,0,0,1,2.668,1.1,4.658,4.658,0,0,1,.941,3.117v.766H11.441a2.539,2.539,0,0,0,.7,1.656,2.1,2.1,0,0,0,1.543.609,2.571,2.571,0,0,0,2.125-1.055l1.023.977A3.418,3.418,0,0,1,15.477-.262,4.244,4.244,0,0,1,13.574.156Zm-.227-7.242a1.6,1.6,0,0,0-1.262.547,2.835,2.835,0,0,0-.613,1.523H15.09v-.141A2.307,2.307,0,0,0,14.582-6.6,1.586,1.586,0,0,0,13.348-7.086Zm6.875-1.367.055.883a3.042,3.042,0,0,1,2.438-1.039,2.337,2.337,0,0,1,2.32,1.3,3,3,0,0,1,2.594-1.3,2.636,2.636,0,0,1,2.082.773,3.405,3.405,0,0,1,.7,2.281V0h-1.9V-5.5a1.681,1.681,0,0,0-.352-1.18A1.539,1.539,0,0,0,27-7.055a1.581,1.581,0,0,0-1.059.348,1.833,1.833,0,0,0-.574.91L25.371,0h-1.9V-5.562a1.354,1.354,0,0,0-1.523-1.492,1.671,1.671,0,0,0-1.617.93V0h-1.9V-8.453ZM39.762-4.141a5.033,5.033,0,0,1-.891,3.129A2.852,2.852,0,0,1,36.48.156a2.871,2.871,0,0,1-2.227-.914V3.25h-1.9v-11.7h1.75l.078.859a2.788,2.788,0,0,1,2.273-1.016,2.881,2.881,0,0,1,2.426,1.152,5.167,5.167,0,0,1,.879,3.2ZM37.871-4.3a3.526,3.526,0,0,0-.5-2.008,1.638,1.638,0,0,0-1.441-.742,1.747,1.747,0,0,0-1.672.961v3.75a1.763,1.763,0,0,0,1.688.984,1.636,1.636,0,0,0,1.418-.73A3.881,3.881,0,0,0,37.871-4.3Zm7.922-2.414a4.7,4.7,0,0,0-.773-.062,1.741,1.741,0,0,0-1.758,1V0h-1.9V-8.453h1.813l.047.945a2.139,2.139,0,0,1,1.906-1.1A1.777,1.777,0,0,1,45.8-8.5ZM50.566.156A3.928,3.928,0,0,1,47.641-.98,4.124,4.124,0,0,1,46.52-4.008v-.234A5.072,5.072,0,0,1,47.008-6.5a3.716,3.716,0,0,1,1.371-1.551,3.625,3.625,0,0,1,1.969-.555,3.318,3.318,0,0,1,2.668,1.1,4.658,4.658,0,0,1,.941,3.117v.766H48.434a2.539,2.539,0,0,0,.7,1.656,2.1,2.1,0,0,0,1.543.609A2.571,2.571,0,0,0,52.8-2.414l1.023.977A3.418,3.418,0,0,1,52.469-.262,4.244,4.244,0,0,1,50.566.156ZM50.34-7.086a1.6,1.6,0,0,0-1.262.547,2.835,2.835,0,0,0-.613,1.523h3.617v-.141A2.307,2.307,0,0,0,51.574-6.6,1.586,1.586,0,0,0,50.34-7.086Zm-80.6,27.242a3.928,3.928,0,0,1-2.926-1.137A4.124,4.124,0,0,1-34.3,15.992v-.234a5.072,5.072,0,0,1,.488-2.262,3.716,3.716,0,0,1,1.371-1.551,3.625,3.625,0,0,1,1.969-.555,3.318,3.318,0,0,1,2.668,1.1,4.658,4.658,0,0,1,.941,3.117v.766h-5.523a2.539,2.539,0,0,0,.7,1.656,2.1,2.1,0,0,0,1.543.609,2.571,2.571,0,0,0,2.125-1.055l1.023.977a3.418,3.418,0,0,1-1.355,1.176A4.244,4.244,0,0,1-30.258,20.156Zm-.227-7.242a1.6,1.6,0,0,0-1.262.547,2.835,2.835,0,0,0-.613,1.523h3.617v-.141A2.307,2.307,0,0,0-29.25,13.4,1.586,1.586,0,0,0-30.484,12.914ZM-23.375,20h-1.9V8h1.9Zm9.523-1.359a1.716,1.716,0,0,0,1.18-.414,1.415,1.415,0,0,0,.5-1.023h1.789a2.789,2.789,0,0,1-.492,1.473,3.228,3.228,0,0,1-1.25,1.082,3.725,3.725,0,0,1-1.7.4,3.6,3.6,0,0,1-2.812-1.148,4.555,4.555,0,0,1-1.039-3.172v-.2a4.479,4.479,0,0,1,1.031-3.09,3.571,3.571,0,0,1,2.813-1.16,3.473,3.473,0,0,1,2.457.879,3.148,3.148,0,0,1,1,2.309h-1.789a1.738,1.738,0,0,0-.5-1.2,1.6,1.6,0,0,0-1.184-.469,1.671,1.671,0,0,0-1.422.668,3.408,3.408,0,0,0-.508,2.027v.3a3.465,3.465,0,0,0,.5,2.051A1.669,1.669,0,0,0-13.852,18.641ZM-9.3,15.7a4.984,4.984,0,0,1,.492-2.238A3.6,3.6,0,0,1-7.43,11.926a3.9,3.9,0,0,1,2.047-.535,3.692,3.692,0,0,1,2.777,1.1,4.333,4.333,0,0,1,1.152,2.922l.008.445a5.029,5.029,0,0,1-.48,2.234A3.551,3.551,0,0,1-3.3,19.617a3.925,3.925,0,0,1-2.066.539A3.667,3.667,0,0,1-8.23,18.965,4.563,4.563,0,0,1-9.3,15.789Zm1.9.164A3.406,3.406,0,0,0-6.867,17.9a1.752,1.752,0,0,0,1.5.738,1.733,1.733,0,0,0,1.5-.75,3.762,3.762,0,0,0,.535-2.2,3.362,3.362,0,0,0-.551-2.031,1.759,1.759,0,0,0-1.5-.75,1.743,1.743,0,0,0-1.477.738A3.691,3.691,0,0,0-7.406,15.859ZM-4.859,8H-2.7l-2.164,2.367-1.523,0ZM-.2,15.711a5.026,5.026,0,0,1,.906-3.137,2.9,2.9,0,0,1,2.43-1.184,2.759,2.759,0,0,1,2.172.938V8h1.9V20H5.492L5.4,19.125a2.8,2.8,0,0,1-2.273,1.031,2.887,2.887,0,0,1-2.4-1.2A5.21,5.21,0,0,1-.2,15.711Zm1.9.164a3.519,3.519,0,0,0,.5,2.012,1.61,1.61,0,0,0,1.41.723,1.793,1.793,0,0,0,1.7-1.039V13.961a1.766,1.766,0,0,0-1.687-1.016,1.622,1.622,0,0,0-1.422.73A3.918,3.918,0,0,0,1.7,15.875ZM11.211,20h-1.9V11.547h1.9ZM9.2,9.344a1.02,1.02,0,0,1,.277-.732,1.043,1.043,0,0,1,.793-.291,1.056,1.056,0,0,1,.8.291,1.012,1.012,0,0,1,.281.732.988.988,0,0,1-.281.72,1.064,1.064,0,0,1-.8.287,1.051,1.051,0,0,1-.793-.287A1,1,0,0,1,9.2,9.344Zm3.75,6.367a4.944,4.944,0,0,1,.926-3.145,2.971,2.971,0,0,1,2.457-1.176A2.784,2.784,0,0,1,18.6,12.4l.086-.852H20.4v8.2a3.406,3.406,0,0,1-1.035,2.625,3.943,3.943,0,0,1-2.793.961,4.5,4.5,0,0,1-1.816-.387,3.227,3.227,0,0,1-1.348-1.012l.9-1.141a2.713,2.713,0,0,0,2.156,1.039,2.1,2.1,0,0,0,1.492-.512,1.961,1.961,0,0,0,.547-1.5v-.57a2.8,2.8,0,0,1-2.187.914,2.964,2.964,0,0,1-2.426-1.18A5.1,5.1,0,0,1,12.945,15.711Zm1.891.164a3.4,3.4,0,0,0,.52,2,1.671,1.671,0,0,0,1.441.73,1.827,1.827,0,0,0,1.7-.984V13.906a1.8,1.8,0,0,0-1.687-.961,1.677,1.677,0,0,0-1.457.742A3.811,3.811,0,0,0,14.836,15.875Zm7.156-.18a4.984,4.984,0,0,1,.492-2.238,3.6,3.6,0,0,1,1.383-1.531,3.9,3.9,0,0,1,2.047-.535,3.692,3.692,0,0,1,2.777,1.1,4.333,4.333,0,0,1,1.152,2.922l.008.445a5.029,5.029,0,0,1-.48,2.234A3.551,3.551,0,0,1,28,19.617a3.925,3.925,0,0,1-2.066.539,3.667,3.667,0,0,1-2.863-1.191,4.563,4.563,0,0,1-1.074-3.176Zm1.9.164A3.406,3.406,0,0,0,24.43,17.9a1.752,1.752,0,0,0,1.5.738,1.733,1.733,0,0,0,1.5-.75,3.762,3.762,0,0,0,.535-2.2,3.362,3.362,0,0,0-.551-2.031,1.856,1.856,0,0,0-2.973-.012A3.691,3.691,0,0,0,23.891,15.859ZM32.641,18a1.084,1.084,0,0,1,.82.3,1.045,1.045,0,0,1,.289.754,1.008,1.008,0,0,1-.289.738,1.28,1.28,0,0,1-1.625,0,.991.991,0,0,1-.3-.742,1.045,1.045,0,0,1,.289-.754A1.074,1.074,0,0,1,32.641,18Z" transform="translate(-6130 -7635)" fill="#fff"/>
    <path id="Trazado_607186" data-name="Trazado 607186" d="M8,0H167a8,8,0,0,1,8,8V68a8,8,0,0,1-8,8H8a8,8,0,0,1-8-8V8A8,8,0,0,1,8,0Z" transform="translate(-5895 -7669)" fill="#1565c0"/>
    <path id="Trazado_607187" data-name="Trazado 607187" d="M-64.738-1.594h5.164V0h-7.141V-11.375h1.977ZM-54.52.156A3.928,3.928,0,0,1-57.445-.98a4.124,4.124,0,0,1-1.121-3.027v-.234A5.072,5.072,0,0,1-58.078-6.5a3.716,3.716,0,0,1,1.371-1.551,3.625,3.625,0,0,1,1.969-.555,3.318,3.318,0,0,1,2.668,1.1,4.658,4.658,0,0,1,.941,3.117v.766h-5.523a2.539,2.539,0,0,0,.7,1.656,2.1,2.1,0,0,0,1.543.609,2.571,2.571,0,0,0,2.125-1.055l1.023.977A3.418,3.418,0,0,1-52.617-.262,4.244,4.244,0,0,1-54.52.156Zm-.227-7.242a1.6,1.6,0,0,0-1.262.547,2.835,2.835,0,0,0-.613,1.523H-53v-.141A2.307,2.307,0,0,0-53.512-6.6,1.586,1.586,0,0,0-54.746-7.086ZM-45.934.156A3.928,3.928,0,0,1-48.859-.98,4.124,4.124,0,0,1-49.98-4.008v-.234A5.072,5.072,0,0,1-49.492-6.5a3.716,3.716,0,0,1,1.371-1.551,3.625,3.625,0,0,1,1.969-.555,3.318,3.318,0,0,1,2.668,1.1,4.658,4.658,0,0,1,.941,3.117v.766h-5.523a2.539,2.539,0,0,0,.7,1.656,2.1,2.1,0,0,0,1.543.609A2.571,2.571,0,0,0-43.7-2.414l1.023.977A3.418,3.418,0,0,1-44.031-.262,4.244,4.244,0,0,1-45.934.156Zm-.227-7.242a1.6,1.6,0,0,0-1.262.547,2.835,2.835,0,0,0-.613,1.523h3.617v-.141A2.307,2.307,0,0,0-44.926-6.6,1.586,1.586,0,0,0-46.16-7.086ZM-35.3-8.453l.055.883a3.042,3.042,0,0,1,2.438-1.039,2.337,2.337,0,0,1,2.32,1.3,3,3,0,0,1,2.594-1.3,2.636,2.636,0,0,1,2.082.773,3.405,3.405,0,0,1,.7,2.281V0h-1.9V-5.5a1.681,1.681,0,0,0-.352-1.18,1.539,1.539,0,0,0-1.164-.375,1.581,1.581,0,0,0-1.059.348,1.833,1.833,0,0,0-.574.91l.008,5.8h-1.9V-5.562a1.354,1.354,0,0,0-1.523-1.492,1.671,1.671,0,0,0-1.617.93V0h-1.9V-8.453ZM-18.043-.828a2.944,2.944,0,0,1-2.375.984,2.624,2.624,0,0,1-2.082-.8,3.423,3.423,0,0,1-.707-2.328V-8.453h1.9V-3q0,1.609,1.336,1.609a1.876,1.876,0,0,0,1.867-.992v-6.07h1.9V0H-18Zm7.242-.531a1.716,1.716,0,0,0,1.18-.414,1.415,1.415,0,0,0,.5-1.023h1.789a2.789,2.789,0,0,1-.492,1.473A3.228,3.228,0,0,1-9.074-.242a3.725,3.725,0,0,1-1.7.4A3.6,3.6,0,0,1-13.59-.992a4.555,4.555,0,0,1-1.039-3.172v-.2A4.479,4.479,0,0,1-13.6-7.449a3.571,3.571,0,0,1,2.813-1.16,3.473,3.473,0,0,1,2.457.879,3.148,3.148,0,0,1,1,2.309H-9.121a1.738,1.738,0,0,0-.5-1.2A1.6,1.6,0,0,0-10.8-7.086a1.671,1.671,0,0,0-1.422.668,3.408,3.408,0,0,0-.508,2.027v.3a3.465,3.465,0,0,0,.5,2.051A1.669,1.669,0,0,0-10.8-1.359Zm6.773-6.172A2.971,2.971,0,0,1-1.676-8.609q2.7,0,2.742,3.086V0h-1.9V-5.453a1.669,1.669,0,0,0-.379-1.238,1.549,1.549,0,0,0-1.113-.363,1.829,1.829,0,0,0-1.7,1.016V0h-1.9V-12h1.9ZM2.629-4.3a4.984,4.984,0,0,1,.492-2.238A3.6,3.6,0,0,1,4.5-8.074a3.9,3.9,0,0,1,2.047-.535,3.692,3.692,0,0,1,2.777,1.1A4.333,4.333,0,0,1,10.48-4.586l.008.445a5.029,5.029,0,0,1-.48,2.234A3.551,3.551,0,0,1,8.633-.383,3.925,3.925,0,0,1,6.566.156,3.667,3.667,0,0,1,3.7-1.035,4.563,4.563,0,0,1,2.629-4.211Zm1.9.164A3.406,3.406,0,0,0,5.066-2.1a1.752,1.752,0,0,0,1.5.738,1.733,1.733,0,0,0,1.5-.75A3.762,3.762,0,0,0,8.6-4.3a3.362,3.362,0,0,0-.551-2.031,1.759,1.759,0,0,0-1.5-.75,1.743,1.743,0,0,0-1.477.738A3.691,3.691,0,0,0,4.527-4.141ZM19.551-1.359a1.716,1.716,0,0,0,1.18-.414,1.415,1.415,0,0,0,.5-1.023H23.02a2.789,2.789,0,0,1-.492,1.473,3.228,3.228,0,0,1-1.25,1.082,3.725,3.725,0,0,1-1.7.4A3.6,3.6,0,0,1,16.762-.992a4.555,4.555,0,0,1-1.039-3.172v-.2a4.479,4.479,0,0,1,1.031-3.09,3.571,3.571,0,0,1,2.813-1.16,3.473,3.473,0,0,1,2.457.879,3.148,3.148,0,0,1,1,2.309H21.23a1.738,1.738,0,0,0-.5-1.2,1.6,1.6,0,0,0-1.184-.469,1.671,1.671,0,0,0-1.422.668,3.408,3.408,0,0,0-.508,2.027v.3a3.465,3.465,0,0,0,.5,2.051A1.669,1.669,0,0,0,19.551-1.359ZM24.1-4.3a4.984,4.984,0,0,1,.492-2.238,3.6,3.6,0,0,1,1.383-1.531,3.9,3.9,0,0,1,2.047-.535,3.692,3.692,0,0,1,2.777,1.1,4.333,4.333,0,0,1,1.152,2.922l.008.445a5.029,5.029,0,0,1-.48,2.234A3.551,3.551,0,0,1,30.1-.383a3.925,3.925,0,0,1-2.066.539,3.667,3.667,0,0,1-2.863-1.191A4.563,4.563,0,0,1,24.1-4.211Zm1.9.164A3.406,3.406,0,0,0,26.535-2.1a1.752,1.752,0,0,0,1.5.738,1.733,1.733,0,0,0,1.5-.75,3.762,3.762,0,0,0,.535-2.2,3.362,3.362,0,0,0-.551-2.031,1.759,1.759,0,0,0-1.5-.75,1.743,1.743,0,0,0-1.477.738A3.691,3.691,0,0,0,26-4.141ZM28.543-12h2.164L28.543-9.633l-1.523,0Zm4.664,7.711a5.026,5.026,0,0,1,.906-3.137,2.9,2.9,0,0,1,2.43-1.184,2.759,2.759,0,0,1,2.172.938V-12h1.9V0H38.895L38.8-.875A2.8,2.8,0,0,1,36.527.156a2.887,2.887,0,0,1-2.4-1.2A5.21,5.21,0,0,1,33.207-4.289Zm1.9.164a3.519,3.519,0,0,0,.5,2.012,1.61,1.61,0,0,0,1.41.723,1.793,1.793,0,0,0,1.7-1.039V-6.039a1.766,1.766,0,0,0-1.687-1.016,1.622,1.622,0,0,0-1.422.73A3.919,3.919,0,0,0,35.105-4.125ZM44.613,0h-1.9V-8.453h1.9ZM42.6-10.656a1.02,1.02,0,0,1,.277-.732,1.043,1.043,0,0,1,.793-.291,1.056,1.056,0,0,1,.8.291,1.012,1.012,0,0,1,.281.732.988.988,0,0,1-.281.72,1.064,1.064,0,0,1-.8.287,1.051,1.051,0,0,1-.793-.287A1,1,0,0,1,42.6-10.656Zm3.75,6.367a4.944,4.944,0,0,1,.926-3.145A2.971,2.971,0,0,1,49.73-8.609,2.784,2.784,0,0,1,52-7.6l.086-.852H53.8v8.2a3.406,3.406,0,0,1-1.035,2.625,3.943,3.943,0,0,1-2.793.961,4.5,4.5,0,0,1-1.816-.387A3.228,3.228,0,0,1,46.809,1.93l.9-1.141a2.713,2.713,0,0,0,2.156,1.039,2.1,2.1,0,0,0,1.492-.512,1.961,1.961,0,0,0,.547-1.5v-.57a2.8,2.8,0,0,1-2.187.914,2.964,2.964,0,0,1-2.426-1.18A5.1,5.1,0,0,1,46.348-4.289Zm1.891.164a3.4,3.4,0,0,0,.52,2,1.671,1.671,0,0,0,1.441.73,1.827,1.827,0,0,0,1.7-.984V-6.094a1.8,1.8,0,0,0-1.687-.961,1.677,1.677,0,0,0-1.457.742A3.811,3.811,0,0,0,48.238-4.125Zm7.156-.18a4.984,4.984,0,0,1,.492-2.238A3.6,3.6,0,0,1,57.27-8.074a3.9,3.9,0,0,1,2.047-.535,3.692,3.692,0,0,1,2.777,1.1,4.333,4.333,0,0,1,1.152,2.922l.008.445a5.029,5.029,0,0,1-.48,2.234A3.551,3.551,0,0,1,61.4-.383a3.925,3.925,0,0,1-2.066.539,3.667,3.667,0,0,1-2.863-1.191,4.563,4.563,0,0,1-1.074-3.176Zm1.9.164A3.406,3.406,0,0,0,57.832-2.1a1.752,1.752,0,0,0,1.5.738,1.733,1.733,0,0,0,1.5-.75,3.762,3.762,0,0,0,.535-2.2,3.362,3.362,0,0,0-.551-2.031,1.759,1.759,0,0,0-1.5-.75,1.743,1.743,0,0,0-1.477.738A3.691,3.691,0,0,0,57.293-4.141ZM-35.395,15.711a5.026,5.026,0,0,1,.906-3.137,2.9,2.9,0,0,1,2.43-1.184,2.759,2.759,0,0,1,2.172.938V8h1.9V20h-1.719l-.094-.875a2.8,2.8,0,0,1-2.273,1.031,2.887,2.887,0,0,1-2.4-1.2A5.21,5.21,0,0,1-35.395,15.711Zm1.9.164a3.519,3.519,0,0,0,.5,2.012,1.61,1.61,0,0,0,1.41.723,1.793,1.793,0,0,0,1.7-1.039V13.961a1.766,1.766,0,0,0-1.687-1.016,1.622,1.622,0,0,0-1.422.73A3.919,3.919,0,0,0-33.5,15.875Zm11.211,4.281a3.928,3.928,0,0,1-2.926-1.137,4.124,4.124,0,0,1-1.121-3.027v-.234a5.072,5.072,0,0,1,.488-2.262,3.716,3.716,0,0,1,1.371-1.551,3.625,3.625,0,0,1,1.969-.555,3.318,3.318,0,0,1,2.668,1.1,4.658,4.658,0,0,1,.941,3.117v.766h-5.523a2.539,2.539,0,0,0,.7,1.656,2.1,2.1,0,0,0,1.543.609,2.571,2.571,0,0,0,2.125-1.055l1.023.977a3.418,3.418,0,0,1-1.355,1.176A4.244,4.244,0,0,1-22.285,20.156Zm-.227-7.242a1.6,1.6,0,0,0-1.262.547,2.835,2.835,0,0,0-.613,1.523h3.617v-.141a2.307,2.307,0,0,0-.508-1.441A1.586,1.586,0,0,0-22.512,12.914ZM-12.77,20V12.953h-1.289V11.547h1.289v-.773A2.9,2.9,0,0,1-11.988,8.6,2.993,2.993,0,0,1-9.8,7.836a4.388,4.388,0,0,1,1.063.141l-.047,1.484A3.739,3.739,0,0,0-9.512,9.4a1.219,1.219,0,0,0-1.359,1.4v.75h1.719v1.406h-1.719V20Zm10.125-.828a2.944,2.944,0,0,1-2.375.984,2.624,2.624,0,0,1-2.082-.8,3.423,3.423,0,0,1-.707-2.328V11.547h1.9V17q0,1.609,1.336,1.609a1.876,1.876,0,0,0,1.867-.992v-6.07h1.9V20H-2.6Zm7.492.984A3.928,3.928,0,0,1,1.922,19.02,4.124,4.124,0,0,1,.8,15.992v-.234A5.072,5.072,0,0,1,1.289,13.5,3.716,3.716,0,0,1,2.66,11.945a3.625,3.625,0,0,1,1.969-.555,3.318,3.318,0,0,1,2.668,1.1,4.658,4.658,0,0,1,.941,3.117v.766H2.715a2.539,2.539,0,0,0,.7,1.656,2.1,2.1,0,0,0,1.543.609,2.571,2.571,0,0,0,2.125-1.055l1.023.977A3.418,3.418,0,0,1,6.75,19.738,4.244,4.244,0,0,1,4.848,20.156Zm-.227-7.242a1.6,1.6,0,0,0-1.262.547,2.835,2.835,0,0,0-.613,1.523H6.363v-.141A2.307,2.307,0,0,0,5.855,13.4,1.586,1.586,0,0,0,4.621,12.914Zm6.852-1.367.055.977a3.039,3.039,0,0,1,2.461-1.133q2.641,0,2.688,3.023V20h-1.9V14.523a1.741,1.741,0,0,0-.348-1.191,1.462,1.462,0,0,0-1.137-.387,1.829,1.829,0,0,0-1.711,1.039V20h-1.9V11.547Zm9.516-2.055v2.055H22.48v1.406H20.988v4.719a1.039,1.039,0,0,0,.191.7.888.888,0,0,0,.684.215,2.924,2.924,0,0,0,.664-.078v1.469a4.676,4.676,0,0,1-1.25.18q-2.188,0-2.187-2.414V12.953H17.7V11.547H19.09V9.492Zm6.664,10.664a3.928,3.928,0,0,1-2.926-1.137,4.124,4.124,0,0,1-1.121-3.027v-.234a5.072,5.072,0,0,1,.488-2.262,3.716,3.716,0,0,1,1.371-1.551,3.625,3.625,0,0,1,1.969-.555,3.318,3.318,0,0,1,2.668,1.1,4.658,4.658,0,0,1,.941,3.117v.766H25.52a2.539,2.539,0,0,0,.7,1.656,2.1,2.1,0,0,0,1.543.609,2.571,2.571,0,0,0,2.125-1.055l1.023.977a3.418,3.418,0,0,1-1.355,1.176A4.244,4.244,0,0,1,27.652,20.156Zm-.227-7.242a1.6,1.6,0,0,0-1.262.547,2.835,2.835,0,0,0-.613,1.523h3.617v-.141A2.307,2.307,0,0,0,28.66,13.4,1.586,1.586,0,0,0,27.426,12.914ZM33.7,18a1.084,1.084,0,0,1,.82.3,1.045,1.045,0,0,1,.289.754,1.008,1.008,0,0,1-.289.738,1.28,1.28,0,0,1-1.625,0,.991.991,0,0,1-.3-.742,1.045,1.045,0,0,1,.289-.754A1.074,1.074,0,0,1,33.7,18Z" transform="translate(-5808 -7635)" fill="#fff"/>
    <path id="Trazado_607176" data-name="Trazado 607176" d="M8,0H190a8,8,0,0,1,8,8V68a8,8,0,0,1-8,8H8a8,8,0,0,1-8-8V8A8,8,0,0,1,8,0Z" transform="translate(-6557 -7543)" fill="#1565c0"/>
    <path id="Trazado_607177" data-name="Trazado 607177" d="M-77.23-5.078H-81.9v3.484h5.461V0h-7.437V-11.375H-76.5v1.594H-81.9v3.141h4.672Zm4.992,2.672,1.789-6.047h1.961L-71.418,0h-1.648L-76.02-8.453h1.969ZM-65.285,0h-1.9V-8.453h1.9ZM-67.3-10.656a1.02,1.02,0,0,1,.277-.732,1.043,1.043,0,0,1,.793-.291,1.056,1.056,0,0,1,.8.291,1.012,1.012,0,0,1,.281.732.988.988,0,0,1-.281.72,1.064,1.064,0,0,1-.8.287,1.051,1.051,0,0,1-.793-.287A1,1,0,0,1-67.3-10.656Zm6.461.148v2.055h1.492v1.406H-60.84v4.719a1.039,1.039,0,0,0,.191.7.888.888,0,0,0,.684.215,2.924,2.924,0,0,0,.664-.078V-.023a4.676,4.676,0,0,1-1.25.18q-2.187,0-2.187-2.414V-7.047h-1.391V-8.453h1.391v-2.055ZM-52.848,0a2.93,2.93,0,0,1-.219-.789,2.955,2.955,0,0,1-2.219.945A2.982,2.982,0,0,1-57.363-.57a2.325,2.325,0,0,1-.8-1.8,2.4,2.4,0,0,1,1-2.074,4.865,4.865,0,0,1,2.871-.723h1.164v-.555A1.481,1.481,0,0,0-53.5-6.77a1.456,1.456,0,0,0-1.117-.395,1.672,1.672,0,0,0-1.062.324,1,1,0,0,0-.414.824h-1.9a2.107,2.107,0,0,1,.461-1.3,3.071,3.071,0,0,1,1.254-.949,4.4,4.4,0,0,1,1.77-.344,3.547,3.547,0,0,1,2.367.746,2.661,2.661,0,0,1,.906,2.1v3.813a4.321,4.321,0,0,0,.32,1.82V0Zm-2.086-1.367a2.16,2.16,0,0,0,1.059-.273,1.827,1.827,0,0,0,.746-.734V-3.969h-1.023a2.8,2.8,0,0,0-1.586.367,1.189,1.189,0,0,0-.531,1.039,1.109,1.109,0,0,0,.363.871A1.407,1.407,0,0,0-54.934-1.367Zm13.148.008a1.716,1.716,0,0,0,1.18-.414,1.415,1.415,0,0,0,.5-1.023h1.789a2.789,2.789,0,0,1-.492,1.473,3.228,3.228,0,0,1-1.25,1.082,3.725,3.725,0,0,1-1.7.4A3.6,3.6,0,0,1-44.574-.992a4.555,4.555,0,0,1-1.039-3.172v-.2a4.479,4.479,0,0,1,1.031-3.09,3.571,3.571,0,0,1,2.813-1.16,3.473,3.473,0,0,1,2.457.879,3.148,3.148,0,0,1,1,2.309h-1.789a1.738,1.738,0,0,0-.5-1.2,1.6,1.6,0,0,0-1.184-.469,1.671,1.671,0,0,0-1.422.668,3.408,3.408,0,0,0-.508,2.027v.3a3.465,3.465,0,0,0,.5,2.051A1.669,1.669,0,0,0-41.785-1.359ZM-31.832,0a2.93,2.93,0,0,1-.219-.789A2.955,2.955,0,0,1-34.27.156,2.982,2.982,0,0,1-36.348-.57a2.325,2.325,0,0,1-.8-1.8,2.4,2.4,0,0,1,1-2.074,4.865,4.865,0,0,1,2.871-.723h1.164v-.555A1.481,1.481,0,0,0-32.48-6.77,1.456,1.456,0,0,0-33.6-7.164a1.672,1.672,0,0,0-1.062.324,1,1,0,0,0-.414.824h-1.9a2.107,2.107,0,0,1,.461-1.3,3.071,3.071,0,0,1,1.254-.949,4.4,4.4,0,0,1,1.77-.344,3.547,3.547,0,0,1,2.367.746,2.661,2.661,0,0,1,.906,2.1v3.813a4.321,4.321,0,0,0,.32,1.82V0Zm-2.086-1.367a2.16,2.16,0,0,0,1.059-.273,1.827,1.827,0,0,0,.746-.734V-3.969h-1.023a2.8,2.8,0,0,0-1.586.367,1.189,1.189,0,0,0-.531,1.039,1.109,1.109,0,0,0,.363.871A1.407,1.407,0,0,0-33.918-1.367ZM-23.8-6.719a4.7,4.7,0,0,0-.773-.062,1.741,1.741,0,0,0-1.758,1V0h-1.9V-8.453h1.813l.047.945a2.139,2.139,0,0,1,1.906-1.1,1.777,1.777,0,0,1,.672.109ZM-17.785,0A2.93,2.93,0,0,1-18-.789a2.955,2.955,0,0,1-2.219.945A2.982,2.982,0,0,1-22.3-.57a2.325,2.325,0,0,1-.8-1.8,2.4,2.4,0,0,1,1-2.074,4.865,4.865,0,0,1,2.871-.723h1.164v-.555a1.481,1.481,0,0,0-.367-1.051,1.456,1.456,0,0,0-1.117-.395,1.672,1.672,0,0,0-1.062.324,1,1,0,0,0-.414.824h-1.9a2.107,2.107,0,0,1,.461-1.3,3.071,3.071,0,0,1,1.254-.949,4.4,4.4,0,0,1,1.77-.344,3.547,3.547,0,0,1,2.367.746,2.661,2.661,0,0,1,.906,2.1v3.813a4.321,4.321,0,0,0,.32,1.82V0Zm-2.086-1.367a2.159,2.159,0,0,0,1.059-.273,1.827,1.827,0,0,0,.746-.734V-3.969H-19.09a2.8,2.8,0,0,0-1.586.367,1.189,1.189,0,0,0-.531,1.039,1.109,1.109,0,0,0,.363.871A1.407,1.407,0,0,0-19.871-1.367Zm9.164.008a1.716,1.716,0,0,0,1.18-.414,1.415,1.415,0,0,0,.5-1.023h1.789A2.789,2.789,0,0,1-7.73-1.324,3.228,3.228,0,0,1-8.98-.242a3.725,3.725,0,0,1-1.7.4A3.6,3.6,0,0,1-13.5-.992a4.555,4.555,0,0,1-1.039-3.172v-.2A4.479,4.479,0,0,1-13.5-7.449a3.571,3.571,0,0,1,2.813-1.16,3.473,3.473,0,0,1,2.457.879,3.148,3.148,0,0,1,1,2.309H-9.027a1.738,1.738,0,0,0-.5-1.2,1.6,1.6,0,0,0-1.184-.469,1.671,1.671,0,0,0-1.422.668,3.408,3.408,0,0,0-.508,2.027v.3a3.465,3.465,0,0,0,.5,2.051A1.669,1.669,0,0,0-10.707-1.359Zm7.281-9.148v2.055h1.492v1.406H-3.426v4.719a1.039,1.039,0,0,0,.191.7.888.888,0,0,0,.684.215,2.924,2.924,0,0,0,.664-.078V-.023a4.676,4.676,0,0,1-1.25.18q-2.188,0-2.187-2.414V-7.047H-6.715V-8.453h1.391v-2.055ZM3.238.156A3.928,3.928,0,0,1,.313-.98,4.124,4.124,0,0,1-.809-4.008v-.234A5.072,5.072,0,0,1-.32-6.5,3.716,3.716,0,0,1,1.051-8.055,3.625,3.625,0,0,1,3.02-8.609a3.318,3.318,0,0,1,2.668,1.1,4.658,4.658,0,0,1,.941,3.117v.766H1.105a2.539,2.539,0,0,0,.7,1.656,2.1,2.1,0,0,0,1.543.609A2.571,2.571,0,0,0,5.473-2.414L6.5-1.437A3.418,3.418,0,0,1,5.141-.262,4.244,4.244,0,0,1,3.238.156ZM3.012-7.086a1.6,1.6,0,0,0-1.262.547,2.835,2.835,0,0,0-.613,1.523H4.754v-.141A2.307,2.307,0,0,0,4.246-6.6,1.586,1.586,0,0,0,3.012-7.086Zm9.516.367a4.7,4.7,0,0,0-.773-.062,1.741,1.741,0,0,0-1.758,1V0H8.1V-8.453H9.91l.047.945a2.139,2.139,0,0,1,1.906-1.1,1.777,1.777,0,0,1,.672.109ZM17.3.156A3.928,3.928,0,0,1,14.375-.98a4.124,4.124,0,0,1-1.121-3.027v-.234A5.072,5.072,0,0,1,13.742-6.5a3.716,3.716,0,0,1,1.371-1.551,3.625,3.625,0,0,1,1.969-.555,3.318,3.318,0,0,1,2.668,1.1,4.658,4.658,0,0,1,.941,3.117v.766H15.168a2.539,2.539,0,0,0,.7,1.656,2.1,2.1,0,0,0,1.543.609,2.571,2.571,0,0,0,2.125-1.055l1.023.977A3.418,3.418,0,0,1,19.2-.262,4.244,4.244,0,0,1,17.3.156Zm-.227-7.242a1.6,1.6,0,0,0-1.262.547A2.835,2.835,0,0,0,15.2-5.016h3.617v-.141A2.307,2.307,0,0,0,18.309-6.6,1.586,1.586,0,0,0,17.074-7.086ZM26.9-2.3a.861.861,0,0,0-.418-.773A4.445,4.445,0,0,0,25.1-3.539a7.129,7.129,0,0,1-1.617-.516,2.158,2.158,0,0,1-1.422-1.992,2.25,2.25,0,0,1,.922-1.828,3.644,3.644,0,0,1,2.344-.734,3.792,3.792,0,0,1,2.449.75,2.38,2.38,0,0,1,.934,1.945h-1.9a1.17,1.17,0,0,0-.406-.91,1.557,1.557,0,0,0-1.078-.363A1.682,1.682,0,0,0,24.3-6.9a.911.911,0,0,0-.395.773.769.769,0,0,0,.367.68,5.049,5.049,0,0,0,1.484.488,7.027,7.027,0,0,1,1.754.586,2.484,2.484,0,0,1,.945.816A2.082,2.082,0,0,1,28.77-2.4a2.2,2.2,0,0,1-.945,1.848,4.031,4.031,0,0,1-2.477.707A4.371,4.371,0,0,1,23.5-.219,3.047,3.047,0,0,1,22.23-1.25a2.441,2.441,0,0,1-.453-1.414h1.844a1.338,1.338,0,0,0,.508,1.035,1.973,1.973,0,0,0,1.242.363,1.92,1.92,0,0,0,1.141-.285A.883.883,0,0,0,26.9-2.3ZM39.527-.828a2.944,2.944,0,0,1-2.375.984,2.624,2.624,0,0,1-2.082-.8,3.423,3.423,0,0,1-.707-2.328V-8.453h1.9V-3q0,1.609,1.336,1.609a1.876,1.876,0,0,0,1.867-.992v-6.07h1.9V0H39.574ZM38.441-12h2.164L38.441-9.633l-1.523,0Zm6.617,3.547.055.977a3.039,3.039,0,0,1,2.461-1.133q2.641,0,2.688,3.023V0h-1.9V-5.477a1.741,1.741,0,0,0-.348-1.191,1.462,1.462,0,0,0-1.137-.387,1.829,1.829,0,0,0-1.711,1.039V0h-1.9V-8.453ZM54.215,0h-1.9V-8.453h1.9ZM52.2-10.656a1.02,1.02,0,0,1,.277-.732,1.043,1.043,0,0,1,.793-.291,1.056,1.056,0,0,1,.8.291,1.012,1.012,0,0,1,.281.732.988.988,0,0,1-.281.72,1.064,1.064,0,0,1-.8.287,1.051,1.051,0,0,1-.793-.287A1,1,0,0,1,52.2-10.656Zm7.555,9.3a1.716,1.716,0,0,0,1.18-.414,1.415,1.415,0,0,0,.5-1.023h1.789a2.789,2.789,0,0,1-.492,1.473A3.228,3.228,0,0,1,61.48-.242a3.725,3.725,0,0,1-1.7.4A3.6,3.6,0,0,1,56.965-.992a4.555,4.555,0,0,1-1.039-3.172v-.2a4.479,4.479,0,0,1,1.031-3.09,3.571,3.571,0,0,1,2.813-1.16,3.473,3.473,0,0,1,2.457.879,3.148,3.148,0,0,1,1,2.309H61.434a1.738,1.738,0,0,0-.5-1.2,1.6,1.6,0,0,0-1.184-.469,1.671,1.671,0,0,0-1.422.668,3.408,3.408,0,0,0-.508,2.027v.3a3.465,3.465,0,0,0,.5,2.051A1.669,1.669,0,0,0,59.754-1.359ZM64.3-4.3a4.984,4.984,0,0,1,.492-2.238,3.6,3.6,0,0,1,1.383-1.531,3.9,3.9,0,0,1,2.047-.535A3.692,3.692,0,0,1,71-7.508a4.333,4.333,0,0,1,1.152,2.922l.008.445a5.029,5.029,0,0,1-.48,2.234A3.551,3.551,0,0,1,70.3-.383a3.925,3.925,0,0,1-2.066.539,3.667,3.667,0,0,1-2.863-1.191A4.563,4.563,0,0,1,64.3-4.211Zm1.9.164A3.406,3.406,0,0,0,66.738-2.1a1.752,1.752,0,0,0,1.5.738,1.733,1.733,0,0,0,1.5-.75,3.762,3.762,0,0,0,.535-2.2,3.362,3.362,0,0,0-.551-2.031,1.759,1.759,0,0,0-1.5-.75,1.743,1.743,0,0,0-1.477.738A3.691,3.691,0,0,0,66.2-4.141ZM78.5-2.3a.861.861,0,0,0-.418-.773A4.445,4.445,0,0,0,76.7-3.539a7.129,7.129,0,0,1-1.617-.516A2.158,2.158,0,0,1,73.66-6.047a2.25,2.25,0,0,1,.922-1.828,3.644,3.644,0,0,1,2.344-.734,3.792,3.792,0,0,1,2.449.75,2.38,2.38,0,0,1,.934,1.945h-1.9A1.17,1.17,0,0,0,78-6.824a1.557,1.557,0,0,0-1.078-.363,1.682,1.682,0,0,0-1.02.289.911.911,0,0,0-.395.773.769.769,0,0,0,.367.68,5.049,5.049,0,0,0,1.484.488,7.027,7.027,0,0,1,1.754.586,2.484,2.484,0,0,1,.945.816A2.082,2.082,0,0,1,80.371-2.4a2.2,2.2,0,0,1-.945,1.848,4.031,4.031,0,0,1-2.477.707A4.371,4.371,0,0,1,75.1-.219,3.047,3.047,0,0,1,73.832-1.25a2.441,2.441,0,0,1-.453-1.414h1.844a1.338,1.338,0,0,0,.508,1.035,1.973,1.973,0,0,0,1.242.363,1.92,1.92,0,0,0,1.141-.285A.883.883,0,0,0,78.5-2.3ZM-48.7,18.641a1.716,1.716,0,0,0,1.18-.414,1.415,1.415,0,0,0,.5-1.023h1.789a2.789,2.789,0,0,1-.492,1.473,3.228,3.228,0,0,1-1.25,1.082,3.725,3.725,0,0,1-1.7.4,3.6,3.6,0,0,1-2.812-1.148,4.555,4.555,0,0,1-1.039-3.172v-.2a4.479,4.479,0,0,1,1.031-3.09,3.571,3.571,0,0,1,2.813-1.16,3.473,3.473,0,0,1,2.457.879,3.148,3.148,0,0,1,1,2.309h-1.789a1.738,1.738,0,0,0-.5-1.2,1.6,1.6,0,0,0-1.184-.469,1.671,1.671,0,0,0-1.422.668,3.408,3.408,0,0,0-.508,2.027v.3a3.465,3.465,0,0,0,.5,2.051A1.669,1.669,0,0,0-48.7,18.641Zm4.547-2.945a4.984,4.984,0,0,1,.492-2.238,3.6,3.6,0,0,1,1.383-1.531,3.9,3.9,0,0,1,2.047-.535,3.692,3.692,0,0,1,2.777,1.1A4.333,4.333,0,0,1-36.3,15.414l.008.445a5.029,5.029,0,0,1-.48,2.234,3.551,3.551,0,0,1-1.375,1.523,3.925,3.925,0,0,1-2.066.539,3.667,3.667,0,0,1-2.863-1.191,4.563,4.563,0,0,1-1.074-3.176Zm1.9.164a3.406,3.406,0,0,0,.539,2.043,1.752,1.752,0,0,0,1.5.738,1.733,1.733,0,0,0,1.5-.75,3.762,3.762,0,0,0,.535-2.2,3.362,3.362,0,0,0-.551-2.031,1.759,1.759,0,0,0-1.5-.75,1.743,1.743,0,0,0-1.477.738A3.691,3.691,0,0,0-42.258,15.859Zm9.352-4.312.055.883a3.042,3.042,0,0,1,2.438-1.039,2.337,2.337,0,0,1,2.32,1.3,3,3,0,0,1,2.594-1.3,2.636,2.636,0,0,1,2.082.773,3.405,3.405,0,0,1,.7,2.281V20h-1.9V14.5a1.681,1.681,0,0,0-.352-1.18,1.539,1.539,0,0,0-1.164-.375,1.581,1.581,0,0,0-1.059.348,1.833,1.833,0,0,0-.574.91l.008,5.8h-1.9V14.438a1.354,1.354,0,0,0-1.523-1.492,1.671,1.671,0,0,0-1.617.93V20h-1.9V11.547ZM-21.125,15.7a4.984,4.984,0,0,1,.492-2.238,3.6,3.6,0,0,1,1.383-1.531,3.9,3.9,0,0,1,2.047-.535,3.692,3.692,0,0,1,2.777,1.1,4.333,4.333,0,0,1,1.152,2.922l.008.445a5.029,5.029,0,0,1-.48,2.234,3.551,3.551,0,0,1-1.375,1.523,3.925,3.925,0,0,1-2.066.539,3.667,3.667,0,0,1-2.863-1.191,4.563,4.563,0,0,1-1.074-3.176Zm1.9.164a3.406,3.406,0,0,0,.539,2.043,1.752,1.752,0,0,0,1.5.738,1.733,1.733,0,0,0,1.5-.75,3.762,3.762,0,0,0,.535-2.2,3.362,3.362,0,0,0-.551-2.031,1.759,1.759,0,0,0-1.5-.75,1.743,1.743,0,0,0-1.477.738A3.691,3.691,0,0,0-19.227,15.859ZM-5.656,20h-1.9V8h1.9Zm7.117,0a2.93,2.93,0,0,1-.219-.789,2.955,2.955,0,0,1-2.219.945,2.982,2.982,0,0,1-2.078-.727,2.325,2.325,0,0,1-.8-1.8,2.4,2.4,0,0,1,1-2.074,4.865,4.865,0,0,1,2.871-.723H1.18v-.555A1.481,1.481,0,0,0,.813,13.23,1.456,1.456,0,0,0-.3,12.836a1.672,1.672,0,0,0-1.062.324,1,1,0,0,0-.414.824h-1.9a2.107,2.107,0,0,1,.461-1.3,3.071,3.071,0,0,1,1.254-.949A4.4,4.4,0,0,1-.2,11.391a3.547,3.547,0,0,1,2.367.746,2.661,2.661,0,0,1,.906,2.1v3.813a4.321,4.321,0,0,0,.32,1.82V20ZM-.625,18.633a2.16,2.16,0,0,0,1.059-.273,1.827,1.827,0,0,0,.746-.734V16.031H.156A2.8,2.8,0,0,0-1.43,16.4a1.189,1.189,0,0,0-.531,1.039,1.109,1.109,0,0,0,.363.871A1.407,1.407,0,0,0-.625,18.633ZM9.8,17.7a.861.861,0,0,0-.418-.773A4.445,4.445,0,0,0,8,16.461a7.129,7.129,0,0,1-1.617-.516,2.158,2.158,0,0,1-1.422-1.992,2.25,2.25,0,0,1,.922-1.828,3.644,3.644,0,0,1,2.344-.734,3.792,3.792,0,0,1,2.449.75,2.38,2.38,0,0,1,.934,1.945h-1.9a1.17,1.17,0,0,0-.406-.91,1.557,1.557,0,0,0-1.078-.363,1.682,1.682,0,0,0-1.02.289.911.911,0,0,0-.395.773.769.769,0,0,0,.367.68,5.049,5.049,0,0,0,1.484.488,7.027,7.027,0,0,1,1.754.586,2.484,2.484,0,0,1,.945.816,2.082,2.082,0,0,1,.309,1.156,2.2,2.2,0,0,1-.945,1.848,4.031,4.031,0,0,1-2.477.707A4.371,4.371,0,0,1,6.4,19.781,3.047,3.047,0,0,1,5.133,18.75a2.441,2.441,0,0,1-.453-1.414H6.523a1.338,1.338,0,0,0,.508,1.035,1.973,1.973,0,0,0,1.242.363,1.92,1.92,0,0,0,1.141-.285A.883.883,0,0,0,9.8,17.7ZM26.516,20H24.539l-5.07-8.07V20H17.492V8.625h1.977l5.086,8.1v-8.1h1.961ZM24.875,5.75a2.1,2.1,0,0,1-.5,1.43,1.582,1.582,0,0,1-1.246.57,1.856,1.856,0,0,1-.527-.066,3.354,3.354,0,0,1-.633-.3,3.128,3.128,0,0,0-.578-.281,1.378,1.378,0,0,0-.371-.047.662.662,0,0,0-.5.223.821.821,0,0,0-.207.582L19.148,7.8a2.16,2.16,0,0,1,.5-1.445,1.557,1.557,0,0,1,1.238-.586,2.305,2.305,0,0,1,1.074.352,2.271,2.271,0,0,0,1.035.352.675.675,0,0,0,.508-.223.822.822,0,0,0,.211-.59Zm11.5,14.406a3.928,3.928,0,0,1-2.926-1.137,4.124,4.124,0,0,1-1.121-3.027v-.234a5.072,5.072,0,0,1,.488-2.262,3.716,3.716,0,0,1,1.371-1.551,3.625,3.625,0,0,1,1.969-.555,3.318,3.318,0,0,1,2.668,1.1,4.658,4.658,0,0,1,.941,3.117v.766H34.242a2.539,2.539,0,0,0,.7,1.656,2.1,2.1,0,0,0,1.543.609,2.571,2.571,0,0,0,2.125-1.055l1.023.977a3.418,3.418,0,0,1-1.355,1.176A4.244,4.244,0,0,1,36.375,20.156Zm-.227-7.242a1.6,1.6,0,0,0-1.262.547,2.835,2.835,0,0,0-.613,1.523h3.617v-.141a2.307,2.307,0,0,0-.508-1.441A1.586,1.586,0,0,0,36.148,12.914ZM43,11.547l.055.977a3.039,3.039,0,0,1,2.461-1.133q2.641,0,2.688,3.023V20H46.3V14.523a1.741,1.741,0,0,0-.348-1.191,1.462,1.462,0,0,0-1.137-.387,1.829,1.829,0,0,0-1.711,1.039V20h-1.9V11.547ZM-25.84,40.156a3.928,3.928,0,0,1-2.926-1.137,4.124,4.124,0,0,1-1.121-3.027v-.234A5.072,5.072,0,0,1-29.4,33.5a3.716,3.716,0,0,1,1.371-1.551,3.625,3.625,0,0,1,1.969-.555,3.318,3.318,0,0,1,2.668,1.1,4.658,4.658,0,0,1,.941,3.117v.766h-5.523a2.539,2.539,0,0,0,.7,1.656,2.1,2.1,0,0,0,1.543.609,2.571,2.571,0,0,0,2.125-1.055l1.023.977a3.418,3.418,0,0,1-1.355,1.176A4.244,4.244,0,0,1-25.84,40.156Zm-.227-7.242a1.6,1.6,0,0,0-1.262.547,2.835,2.835,0,0,0-.613,1.523h3.617v-.141a2.307,2.307,0,0,0-.508-1.441A1.586,1.586,0,0,0-26.066,32.914Zm9.828,4.789a.861.861,0,0,0-.418-.773,4.445,4.445,0,0,0-1.387-.469,7.129,7.129,0,0,1-1.617-.516,2.158,2.158,0,0,1-1.422-1.992,2.25,2.25,0,0,1,.922-1.828,3.644,3.644,0,0,1,2.344-.734,3.792,3.792,0,0,1,2.449.75,2.38,2.38,0,0,1,.934,1.945h-1.9a1.17,1.17,0,0,0-.406-.91,1.557,1.557,0,0,0-1.078-.363,1.682,1.682,0,0,0-1.02.289.911.911,0,0,0-.395.773.769.769,0,0,0,.367.68,5.049,5.049,0,0,0,1.484.488,7.027,7.027,0,0,1,1.754.586,2.484,2.484,0,0,1,.945.816,2.082,2.082,0,0,1,.309,1.156,2.2,2.2,0,0,1-.945,1.848,4.031,4.031,0,0,1-2.477.707,4.371,4.371,0,0,1-1.852-.375A3.047,3.047,0,0,1-20.91,38.75a2.441,2.441,0,0,1-.453-1.414h1.844a1.338,1.338,0,0,0,.508,1.035,1.973,1.973,0,0,0,1.242.363,1.92,1.92,0,0,0,1.141-.285A.883.883,0,0,0-16.238,37.7Zm10.922-1.844a5.033,5.033,0,0,1-.891,3.129A2.852,2.852,0,0,1-8.6,40.156a2.871,2.871,0,0,1-2.227-.914V43.25h-1.9v-11.7h1.75l.078.859a2.788,2.788,0,0,1,2.273-1.016A2.881,2.881,0,0,1-6.2,32.543a5.167,5.167,0,0,1,.879,3.2ZM-7.207,35.7a3.526,3.526,0,0,0-.5-2.008,1.638,1.638,0,0,0-1.441-.742,1.747,1.747,0,0,0-1.672.961v3.75a1.763,1.763,0,0,0,1.688.984,1.636,1.636,0,0,0,1.418-.73A3.881,3.881,0,0,0-7.207,35.7ZM1.34,40a2.93,2.93,0,0,1-.219-.789,2.955,2.955,0,0,1-2.219.945,2.982,2.982,0,0,1-2.078-.727,2.325,2.325,0,0,1-.8-1.8,2.4,2.4,0,0,1,1-2.074,4.865,4.865,0,0,1,2.871-.723H1.059v-.555A1.481,1.481,0,0,0,.691,33.23a1.456,1.456,0,0,0-1.117-.395,1.672,1.672,0,0,0-1.062.324,1,1,0,0,0-.414.824H-3.8a2.107,2.107,0,0,1,.461-1.3,3.071,3.071,0,0,1,1.254-.949,4.4,4.4,0,0,1,1.77-.344,3.547,3.547,0,0,1,2.367.746,2.661,2.661,0,0,1,.906,2.1v3.813a4.321,4.321,0,0,0,.32,1.82V40ZM-.746,38.633a2.159,2.159,0,0,0,1.059-.273,1.827,1.827,0,0,0,.746-.734V36.031H.035a2.8,2.8,0,0,0-1.586.367,1.189,1.189,0,0,0-.531,1.039,1.109,1.109,0,0,0,.363.871A1.407,1.407,0,0,0-.746,38.633Zm7.453-7.086.055.977a3.039,3.039,0,0,1,2.461-1.133q2.641,0,2.688,3.023V40h-1.9V34.523a1.741,1.741,0,0,0-.348-1.191,1.462,1.462,0,0,0-1.137-.387,1.829,1.829,0,0,0-1.711,1.039V40h-1.9V31.547Zm4.609-3.375a2.1,2.1,0,0,1-.5,1.43,1.582,1.582,0,0,1-1.246.57,1.856,1.856,0,0,1-.527-.066,3.354,3.354,0,0,1-.633-.3,3.128,3.128,0,0,0-.578-.281,1.378,1.378,0,0,0-.371-.047.662.662,0,0,0-.5.223.821.821,0,0,0-.207.582L5.59,30.219a2.16,2.16,0,0,1,.5-1.445,1.557,1.557,0,0,1,1.238-.586,2.305,2.305,0,0,1,1.074.352,2.271,2.271,0,0,0,1.035.352.674.674,0,0,0,.508-.223.822.822,0,0,0,.211-.59ZM13.488,35.7a4.984,4.984,0,0,1,.492-2.238,3.6,3.6,0,0,1,1.383-1.531,3.9,3.9,0,0,1,2.047-.535,3.692,3.692,0,0,1,2.777,1.1,4.333,4.333,0,0,1,1.152,2.922l.008.445a5.029,5.029,0,0,1-.48,2.234,3.551,3.551,0,0,1-1.375,1.523,3.925,3.925,0,0,1-2.066.539,3.667,3.667,0,0,1-2.863-1.191,4.563,4.563,0,0,1-1.074-3.176Zm1.9.164a3.406,3.406,0,0,0,.539,2.043,1.752,1.752,0,0,0,1.5.738,1.733,1.733,0,0,0,1.5-.75,3.762,3.762,0,0,0,.535-2.2,3.362,3.362,0,0,0-.551-2.031,1.856,1.856,0,0,0-2.973-.012A3.691,3.691,0,0,0,15.387,35.859ZM24.973,40h-1.9V28h1.9Zm3.25-2a1.084,1.084,0,0,1,.82.3,1.045,1.045,0,0,1,.289.754,1.008,1.008,0,0,1-.289.738,1.28,1.28,0,0,1-1.625,0,.991.991,0,0,1-.3-.742,1.045,1.045,0,0,1,.289-.754A1.074,1.074,0,0,1,28.223,38Z" transform="translate(-6460 -7517)" fill="#fff"/>
    <path id="Trazado_607178" data-name="Trazado 607178" d="M8,0H247a8,8,0,0,1,8,8V68a8,8,0,0,1-8,8H8a8,8,0,0,1-8-8V8A8,8,0,0,1,8,0Z" transform="translate(-6217 -7543)" fill="#1565c0"/>
    <path id="Trazado_607179" data-name="Trazado 607179" d="M-111.566-2.648h-4.406L-116.895,0h-2.055l4.3-11.375h1.773L-108.574,0h-2.062Zm-3.852-1.594h3.3l-1.648-4.719Zm7.594-.047a5.026,5.026,0,0,1,.906-3.137,2.9,2.9,0,0,1,2.43-1.184,2.759,2.759,0,0,1,2.172.938V-12h1.9V0h-1.719l-.094-.875A2.8,2.8,0,0,1-104.5.156a2.887,2.887,0,0,1-2.4-1.2A5.21,5.21,0,0,1-107.824-4.289Zm1.9.164a3.519,3.519,0,0,0,.5,2.012,1.61,1.61,0,0,0,1.41.723,1.793,1.793,0,0,0,1.7-1.039V-6.039A1.766,1.766,0,0,0-104-7.055a1.622,1.622,0,0,0-1.422.73A3.918,3.918,0,0,0-105.926-4.125Zm9.359-3.406a2.971,2.971,0,0,1,2.352-1.078q2.7,0,2.742,3.086V0h-1.9V-5.453a1.669,1.669,0,0,0-.379-1.238,1.549,1.549,0,0,0-1.113-.363,1.829,1.829,0,0,0-1.7,1.016V0h-1.9V-12h1.9ZM-87.535,0h-1.9V-8.453h1.9Zm-2.016-10.656a1.02,1.02,0,0,1,.277-.732,1.043,1.043,0,0,1,.793-.291,1.056,1.056,0,0,1,.8.291,1.012,1.012,0,0,1,.281.732.988.988,0,0,1-.281.72,1.064,1.064,0,0,1-.8.287,1.051,1.051,0,0,1-.793-.287A1,1,0,0,1-89.551-10.656Zm7.8,10.813A3.928,3.928,0,0,1-84.672-.98a4.124,4.124,0,0,1-1.121-3.027v-.234A5.072,5.072,0,0,1-85.3-6.5a3.716,3.716,0,0,1,1.371-1.551,3.625,3.625,0,0,1,1.969-.555,3.318,3.318,0,0,1,2.668,1.1,4.658,4.658,0,0,1,.941,3.117v.766h-5.523a2.539,2.539,0,0,0,.7,1.656,2.1,2.1,0,0,0,1.543.609,2.571,2.571,0,0,0,2.125-1.055l1.023.977A3.418,3.418,0,0,1-79.844-.262,4.244,4.244,0,0,1-81.746.156Zm-.227-7.242a1.6,1.6,0,0,0-1.262.547,2.835,2.835,0,0,0-.613,1.523h3.617v-.141A2.307,2.307,0,0,0-80.738-6.6,1.586,1.586,0,0,0-81.973-7.086Zm.43-4.914h2.164l-2.164,2.367-1.523,0Zm9.086,5.281a4.7,4.7,0,0,0-.773-.062,1.741,1.741,0,0,0-1.758,1V0h-1.9V-8.453h1.813l.047.945a2.139,2.139,0,0,1,1.906-1.1,1.777,1.777,0,0,1,.672.109ZM-67.684.156A3.928,3.928,0,0,1-70.609-.98,4.124,4.124,0,0,1-71.73-4.008v-.234A5.072,5.072,0,0,1-71.242-6.5a3.716,3.716,0,0,1,1.371-1.551A3.625,3.625,0,0,1-67.9-8.609a3.318,3.318,0,0,1,2.668,1.1,4.658,4.658,0,0,1,.941,3.117v.766h-5.523a2.539,2.539,0,0,0,.7,1.656,2.1,2.1,0,0,0,1.543.609,2.571,2.571,0,0,0,2.125-1.055l1.023.977A3.418,3.418,0,0,1-65.781-.262,4.244,4.244,0,0,1-67.684.156Zm-.227-7.242a1.6,1.6,0,0,0-1.262.547,2.835,2.835,0,0,0-.613,1.523h3.617v-.141A2.307,2.307,0,0,0-66.676-6.6,1.586,1.586,0,0,0-67.91-7.086Zm7.469-3.422v2.055h1.492v1.406h-1.492v4.719a1.039,1.039,0,0,0,.191.7.888.888,0,0,0,.684.215,2.924,2.924,0,0,0,.664-.078V-.023a4.676,4.676,0,0,1-1.25.18q-2.187,0-2.187-2.414V-7.047H-63.73V-8.453h1.391v-2.055ZM-53.777.156A3.928,3.928,0,0,1-56.7-.98a4.124,4.124,0,0,1-1.121-3.027v-.234A5.072,5.072,0,0,1-57.336-6.5a3.716,3.716,0,0,1,1.371-1.551A3.625,3.625,0,0,1-54-8.609a3.318,3.318,0,0,1,2.668,1.1,4.658,4.658,0,0,1,.941,3.117v.766H-55.91a2.539,2.539,0,0,0,.7,1.656,2.1,2.1,0,0,0,1.543.609,2.571,2.571,0,0,0,2.125-1.055l1.023.977A3.418,3.418,0,0,1-51.875-.262,4.244,4.244,0,0,1-53.777.156ZM-54-7.086a1.6,1.6,0,0,0-1.262.547,2.835,2.835,0,0,0-.613,1.523h3.617v-.141A2.307,2.307,0,0,0-52.77-6.6,1.586,1.586,0,0,0-54-7.086Zm12.8,7.242A3.928,3.928,0,0,1-44.133-.98a4.124,4.124,0,0,1-1.121-3.027v-.234A5.072,5.072,0,0,1-44.766-6.5a3.716,3.716,0,0,1,1.371-1.551,3.625,3.625,0,0,1,1.969-.555,3.318,3.318,0,0,1,2.668,1.1,4.658,4.658,0,0,1,.941,3.117v.766H-43.34a2.539,2.539,0,0,0,.7,1.656,2.1,2.1,0,0,0,1.543.609,2.571,2.571,0,0,0,2.125-1.055l1.023.977A3.418,3.418,0,0,1-39.3-.262,4.244,4.244,0,0,1-41.207.156Zm-.227-7.242a1.6,1.6,0,0,0-1.262.547,2.835,2.835,0,0,0-.613,1.523h3.617v-.141A2.307,2.307,0,0,0-40.2-6.6,1.586,1.586,0,0,0-41.434-7.086ZM-30.34,0h-1.9V-8.453h1.9Zm-2.016-10.656a1.02,1.02,0,0,1,.277-.732,1.043,1.043,0,0,1,.793-.291,1.056,1.056,0,0,1,.8.291,1.012,1.012,0,0,1,.281.732.988.988,0,0,1-.281.72,1.064,1.064,0,0,1-.8.287,1.051,1.051,0,0,1-.793-.287A1,1,0,0,1-32.355-10.656Zm5.844,2.2.055.977A3.039,3.039,0,0,1-24-8.609q2.641,0,2.688,3.023V0h-1.9V-5.477a1.741,1.741,0,0,0-.348-1.191,1.462,1.462,0,0,0-1.137-.387A1.829,1.829,0,0,0-26.4-6.016V0h-1.9V-8.453ZM-18.707,0V-7.047H-20V-8.453h1.289v-.773a2.9,2.9,0,0,1,.781-2.172,2.993,2.993,0,0,1,2.188-.766,4.388,4.388,0,0,1,1.063.141l-.047,1.484a3.739,3.739,0,0,0-.727-.062,1.219,1.219,0,0,0-1.359,1.4v.75h1.719v1.406h-1.719V0Zm4.648-4.3a4.984,4.984,0,0,1,.492-2.238,3.6,3.6,0,0,1,1.383-1.531,3.9,3.9,0,0,1,2.047-.535,3.692,3.692,0,0,1,2.777,1.1A4.333,4.333,0,0,1-6.207-4.586l.008.445a5.029,5.029,0,0,1-.48,2.234A3.551,3.551,0,0,1-8.055-.383a3.925,3.925,0,0,1-2.066.539,3.667,3.667,0,0,1-2.863-1.191,4.563,4.563,0,0,1-1.074-3.176Zm1.9.164A3.406,3.406,0,0,0-11.621-2.1a1.752,1.752,0,0,0,1.5.738,1.733,1.733,0,0,0,1.5-.75A3.762,3.762,0,0,0-8.09-4.3a3.362,3.362,0,0,0-.551-2.031,1.759,1.759,0,0,0-1.5-.75,1.743,1.743,0,0,0-1.477.738A3.691,3.691,0,0,0-12.16-4.141ZM-9.613-12h2.164L-9.613-9.633l-1.523,0ZM-.168-6.719a4.7,4.7,0,0,0-.773-.062,1.741,1.741,0,0,0-1.758,1V0H-4.6V-8.453h1.813l.047.945a2.139,2.139,0,0,1,1.906-1.1A1.777,1.777,0,0,1-.16-8.5ZM2.816-8.453l.055.883A3.042,3.042,0,0,1,5.309-8.609a2.337,2.337,0,0,1,2.32,1.3,3,3,0,0,1,2.594-1.3,2.636,2.636,0,0,1,2.082.773A3.405,3.405,0,0,1,13-5.555V0h-1.9V-5.5a1.681,1.681,0,0,0-.352-1.18A1.539,1.539,0,0,0,9.59-7.055a1.581,1.581,0,0,0-1.059.348,1.833,1.833,0,0,0-.574.91L7.965,0h-1.9V-5.562A1.354,1.354,0,0,0,4.543-7.055a1.671,1.671,0,0,0-1.617.93V0h-1.9V-8.453ZM20,0a2.93,2.93,0,0,1-.219-.789,2.955,2.955,0,0,1-2.219.945A2.982,2.982,0,0,1,15.488-.57a2.325,2.325,0,0,1-.8-1.8,2.4,2.4,0,0,1,1-2.074,4.865,4.865,0,0,1,2.871-.723h1.164v-.555a1.481,1.481,0,0,0-.367-1.051,1.456,1.456,0,0,0-1.117-.395,1.672,1.672,0,0,0-1.062.324,1,1,0,0,0-.414.824h-1.9a2.107,2.107,0,0,1,.461-1.3,3.071,3.071,0,0,1,1.254-.949,4.4,4.4,0,0,1,1.77-.344,3.547,3.547,0,0,1,2.367.746,2.661,2.661,0,0,1,.906,2.1v3.813a4.321,4.321,0,0,0,.32,1.82V0ZM17.918-1.367a2.159,2.159,0,0,0,1.059-.273,1.827,1.827,0,0,0,.746-.734V-3.969H18.7a2.8,2.8,0,0,0-1.586.367,1.189,1.189,0,0,0-.531,1.039,1.109,1.109,0,0,0,.363.871A1.407,1.407,0,0,0,17.918-1.367Zm8.07-9.141v2.055H27.48v1.406H25.988v4.719a1.039,1.039,0,0,0,.191.7.888.888,0,0,0,.684.215,2.924,2.924,0,0,0,.664-.078V-.023a4.676,4.676,0,0,1-1.25.18q-2.188,0-2.187-2.414V-7.047H22.7V-8.453H24.09v-2.055ZM32.652.156A3.928,3.928,0,0,1,29.727-.98a4.124,4.124,0,0,1-1.121-3.027v-.234A5.072,5.072,0,0,1,29.094-6.5a3.716,3.716,0,0,1,1.371-1.551,3.625,3.625,0,0,1,1.969-.555,3.318,3.318,0,0,1,2.668,1.1,4.658,4.658,0,0,1,.941,3.117v.766H30.52a2.539,2.539,0,0,0,.7,1.656,2.1,2.1,0,0,0,1.543.609,2.571,2.571,0,0,0,2.125-1.055l1.023.977A3.418,3.418,0,0,1,34.555-.262,4.244,4.244,0,0,1,32.652.156Zm-.227-7.242a1.6,1.6,0,0,0-1.262.547,2.835,2.835,0,0,0-.613,1.523h3.617v-.141A2.307,2.307,0,0,0,33.66-6.6,1.586,1.586,0,0,0,32.426-7.086Zm8.719,2.8a5.026,5.026,0,0,1,.906-3.137,2.9,2.9,0,0,1,2.43-1.184,2.759,2.759,0,0,1,2.172.938V-12h1.9V0H46.832l-.094-.875A2.8,2.8,0,0,1,44.465.156a2.887,2.887,0,0,1-2.4-1.2A5.21,5.21,0,0,1,41.145-4.289Zm1.9.164a3.519,3.519,0,0,0,.5,2.012,1.61,1.61,0,0,0,1.41.723,1.793,1.793,0,0,0,1.7-1.039V-6.039a1.766,1.766,0,0,0-1.687-1.016,1.622,1.622,0,0,0-1.422.73A3.919,3.919,0,0,0,43.043-4.125ZM54.254.156A3.928,3.928,0,0,1,51.328-.98a4.124,4.124,0,0,1-1.121-3.027v-.234A5.072,5.072,0,0,1,50.7-6.5a3.716,3.716,0,0,1,1.371-1.551,3.625,3.625,0,0,1,1.969-.555,3.318,3.318,0,0,1,2.668,1.1,4.658,4.658,0,0,1,.941,3.117v.766H52.121a2.539,2.539,0,0,0,.7,1.656,2.1,2.1,0,0,0,1.543.609,2.571,2.571,0,0,0,2.125-1.055l1.023.977A3.418,3.418,0,0,1,56.156-.262,4.244,4.244,0,0,1,54.254.156Zm-.227-7.242a1.6,1.6,0,0,0-1.262.547,2.835,2.835,0,0,0-.613,1.523H55.77v-.141A2.307,2.307,0,0,0,55.262-6.6,1.586,1.586,0,0,0,54.027-7.086ZM61.137,0h-1.9V-12h1.9Zm8.07,0h-1.9V-8.453h1.9ZM67.191-10.656a1.02,1.02,0,0,1,.277-.732,1.043,1.043,0,0,1,.793-.291,1.056,1.056,0,0,1,.8.291,1.012,1.012,0,0,1,.281.732.988.988,0,0,1-.281.72,1.064,1.064,0,0,1-.8.287,1.051,1.051,0,0,1-.793-.287A1,1,0,0,1,67.191-10.656Zm3.727,6.367a5.026,5.026,0,0,1,.906-3.137,2.9,2.9,0,0,1,2.43-1.184,2.759,2.759,0,0,1,2.172.938V-12h1.9V0H76.605l-.094-.875A2.8,2.8,0,0,1,74.238.156a2.887,2.887,0,0,1-2.4-1.2A5.21,5.21,0,0,1,70.918-4.289Zm1.9.164a3.519,3.519,0,0,0,.5,2.012,1.61,1.61,0,0,0,1.41.723,1.793,1.793,0,0,0,1.7-1.039V-6.039a1.766,1.766,0,0,0-1.687-1.016,1.622,1.622,0,0,0-1.422.73A3.918,3.918,0,0,0,72.816-4.125ZM82.324,0h-1.9V-8.453h1.9ZM80.309-10.656a1.02,1.02,0,0,1,.277-.732,1.043,1.043,0,0,1,.793-.291,1.056,1.056,0,0,1,.8.291,1.012,1.012,0,0,1,.281.732.988.988,0,0,1-.281.72,1.064,1.064,0,0,1-.8.287,1.051,1.051,0,0,1-.793-.287A1,1,0,0,1,80.309-10.656ZM84.035-4.3a4.984,4.984,0,0,1,.492-2.238A3.6,3.6,0,0,1,85.91-8.074a3.9,3.9,0,0,1,2.047-.535,3.692,3.692,0,0,1,2.777,1.1,4.333,4.333,0,0,1,1.152,2.922l.008.445a5.029,5.029,0,0,1-.48,2.234A3.551,3.551,0,0,1,90.039-.383a3.925,3.925,0,0,1-2.066.539,3.667,3.667,0,0,1-2.863-1.191,4.563,4.563,0,0,1-1.074-3.176Zm1.9.164A3.406,3.406,0,0,0,86.473-2.1a1.752,1.752,0,0,0,1.5.738,1.733,1.733,0,0,0,1.5-.75A3.762,3.762,0,0,0,90-4.3a3.362,3.362,0,0,0-.551-2.031,1.759,1.759,0,0,0-1.5-.75,1.743,1.743,0,0,0-1.477.738A3.691,3.691,0,0,0,85.934-4.141Zm9.352-4.312.055.883a3.042,3.042,0,0,1,2.438-1.039,2.337,2.337,0,0,1,2.32,1.3,3,3,0,0,1,2.594-1.3,2.636,2.636,0,0,1,2.082.773,3.405,3.405,0,0,1,.7,2.281V0h-1.9V-5.5a1.681,1.681,0,0,0-.352-1.18,1.539,1.539,0,0,0-1.164-.375A1.581,1.581,0,0,0,101-6.707a1.833,1.833,0,0,0-.574.91l.008,5.8h-1.9V-5.562a1.354,1.354,0,0,0-1.523-1.492,1.671,1.671,0,0,0-1.617.93V0H93.5V-8.453ZM112.473,0a2.93,2.93,0,0,1-.219-.789,2.955,2.955,0,0,1-2.219.945,2.982,2.982,0,0,1-2.078-.727,2.325,2.325,0,0,1-.8-1.8,2.4,2.4,0,0,1,1-2.074,4.865,4.865,0,0,1,2.871-.723h1.164v-.555a1.481,1.481,0,0,0-.367-1.051,1.456,1.456,0,0,0-1.117-.395,1.672,1.672,0,0,0-1.062.324,1,1,0,0,0-.414.824h-1.9a2.107,2.107,0,0,1,.461-1.3,3.071,3.071,0,0,1,1.254-.949,4.4,4.4,0,0,1,1.77-.344,3.547,3.547,0,0,1,2.367.746,2.661,2.661,0,0,1,.906,2.1v3.813a4.321,4.321,0,0,0,.32,1.82V0Zm-2.086-1.367a2.159,2.159,0,0,0,1.059-.273,1.827,1.827,0,0,0,.746-.734V-3.969h-1.023a2.8,2.8,0,0,0-1.586.367,1.189,1.189,0,0,0-.531,1.039,1.109,1.109,0,0,0,.363.871A1.407,1.407,0,0,0,110.387-1.367Zm-219.9,21.523a3.928,3.928,0,0,1-2.926-1.137,4.124,4.124,0,0,1-1.121-3.027v-.234a5.072,5.072,0,0,1,.488-2.262,3.716,3.716,0,0,1,1.371-1.551,3.625,3.625,0,0,1,1.969-.555,3.318,3.318,0,0,1,2.668,1.1,4.658,4.658,0,0,1,.941,3.117v.766h-5.523a2.539,2.539,0,0,0,.7,1.656,2.1,2.1,0,0,0,1.543.609,2.571,2.571,0,0,0,2.125-1.055l1.023.977a3.418,3.418,0,0,1-1.355,1.176A4.244,4.244,0,0,1-109.512,20.156Zm-.227-7.242a1.6,1.6,0,0,0-1.262.547,2.835,2.835,0,0,0-.613,1.523H-108v-.141A2.307,2.307,0,0,0-108.5,13.4,1.586,1.586,0,0,0-109.738,12.914Zm6.852-1.367.055.977a3.039,3.039,0,0,1,2.461-1.133q2.641,0,2.688,3.023V20h-1.9V14.523a1.741,1.741,0,0,0-.348-1.191,1.462,1.462,0,0,0-1.137-.387,1.829,1.829,0,0,0-1.711,1.039V20h-1.9V11.547Zm14.844,8.609a3.928,3.928,0,0,1-2.926-1.137,4.124,4.124,0,0,1-1.121-3.027v-.234A5.072,5.072,0,0,1-91.6,13.5a3.716,3.716,0,0,1,1.371-1.551,3.625,3.625,0,0,1,1.969-.555,3.318,3.318,0,0,1,2.668,1.1,4.658,4.658,0,0,1,.941,3.117v.766h-5.523a2.539,2.539,0,0,0,.7,1.656,2.1,2.1,0,0,0,1.543.609,2.571,2.571,0,0,0,2.125-1.055l1.023.977a3.418,3.418,0,0,1-1.355,1.176A4.244,4.244,0,0,1-88.043,20.156Zm-.227-7.242a1.6,1.6,0,0,0-1.262.547,2.835,2.835,0,0,0-.613,1.523h3.617v-.141a2.307,2.307,0,0,0-.508-1.441A1.586,1.586,0,0,0-88.27,12.914ZM-81.16,20h-1.9V8h1.9Zm9.523-1.359a1.716,1.716,0,0,0,1.18-.414,1.415,1.415,0,0,0,.5-1.023h1.789a2.789,2.789,0,0,1-.492,1.473,3.228,3.228,0,0,1-1.25,1.082,3.725,3.725,0,0,1-1.7.4,3.6,3.6,0,0,1-2.812-1.148,4.555,4.555,0,0,1-1.039-3.172v-.2a4.479,4.479,0,0,1,1.031-3.09,3.571,3.571,0,0,1,2.813-1.16,3.473,3.473,0,0,1,2.457.879,3.148,3.148,0,0,1,1,2.309h-1.789a1.738,1.738,0,0,0-.5-1.2,1.6,1.6,0,0,0-1.184-.469,1.671,1.671,0,0,0-1.422.668,3.408,3.408,0,0,0-.508,2.027v.3a3.465,3.465,0,0,0,.5,2.051A1.669,1.669,0,0,0-71.637,18.641Zm10.023.531a2.944,2.944,0,0,1-2.375.984,2.624,2.624,0,0,1-2.082-.8,3.423,3.423,0,0,1-.707-2.328V11.547h1.9V17q0,1.609,1.336,1.609a1.876,1.876,0,0,0,1.867-.992v-6.07h1.9V20h-1.789Zm8.82.828a2.93,2.93,0,0,1-.219-.789,2.955,2.955,0,0,1-2.219.945,2.982,2.982,0,0,1-2.078-.727,2.325,2.325,0,0,1-.8-1.8,2.4,2.4,0,0,1,1-2.074,4.865,4.865,0,0,1,2.871-.723h1.164v-.555a1.481,1.481,0,0,0-.367-1.051,1.456,1.456,0,0,0-1.117-.395,1.672,1.672,0,0,0-1.062.324,1,1,0,0,0-.414.824h-1.9a2.107,2.107,0,0,1,.461-1.3,3.071,3.071,0,0,1,1.254-.949,4.4,4.4,0,0,1,1.77-.344,3.547,3.547,0,0,1,2.367.746,2.661,2.661,0,0,1,.906,2.1v3.813a4.321,4.321,0,0,0,.32,1.82V20Zm-2.086-1.367a2.16,2.16,0,0,0,1.059-.273,1.827,1.827,0,0,0,.746-.734V16.031H-54.1a2.8,2.8,0,0,0-1.586.367,1.189,1.189,0,0,0-.531,1.039,1.109,1.109,0,0,0,.363.871A1.407,1.407,0,0,0-54.879,18.633ZM-47.168,20h-1.9V8h1.9Zm10.789-2.3a.861.861,0,0,0-.418-.773,4.445,4.445,0,0,0-1.387-.469,7.129,7.129,0,0,1-1.617-.516,2.158,2.158,0,0,1-1.422-1.992,2.25,2.25,0,0,1,.922-1.828,3.644,3.644,0,0,1,2.344-.734,3.792,3.792,0,0,1,2.449.75,2.38,2.38,0,0,1,.934,1.945h-1.9a1.17,1.17,0,0,0-.406-.91,1.557,1.557,0,0,0-1.078-.363,1.682,1.682,0,0,0-1.02.289.911.911,0,0,0-.395.773.769.769,0,0,0,.367.68,5.049,5.049,0,0,0,1.484.488,7.027,7.027,0,0,1,1.754.586,2.484,2.484,0,0,1,.945.816,2.082,2.082,0,0,1,.309,1.156,2.2,2.2,0,0,1-.945,1.848,4.031,4.031,0,0,1-2.477.707,4.371,4.371,0,0,1-1.852-.375,3.047,3.047,0,0,1-1.266-1.031,2.441,2.441,0,0,1-.453-1.414h1.844a1.338,1.338,0,0,0,.508,1.035,1.973,1.973,0,0,0,1.242.363,1.92,1.92,0,0,0,1.141-.285A.883.883,0,0,0-36.379,17.7Zm7.242,2.453a3.928,3.928,0,0,1-2.926-1.137,4.124,4.124,0,0,1-1.121-3.027v-.234A5.072,5.072,0,0,1-32.7,13.5a3.716,3.716,0,0,1,1.371-1.551,3.625,3.625,0,0,1,1.969-.555,3.318,3.318,0,0,1,2.668,1.1,4.658,4.658,0,0,1,.941,3.117v.766H-31.27a2.539,2.539,0,0,0,.7,1.656,2.1,2.1,0,0,0,1.543.609A2.571,2.571,0,0,0-26.9,17.586l1.023.977a3.418,3.418,0,0,1-1.355,1.176A4.244,4.244,0,0,1-29.137,20.156Zm-.227-7.242a1.6,1.6,0,0,0-1.262.547,2.835,2.835,0,0,0-.613,1.523h3.617v-.141a2.307,2.307,0,0,0-.508-1.441A1.586,1.586,0,0,0-29.363,12.914Zm12.8,7.242a3.928,3.928,0,0,1-2.926-1.137,4.124,4.124,0,0,1-1.121-3.027v-.234a5.072,5.072,0,0,1,.488-2.262,3.716,3.716,0,0,1,1.371-1.551,3.625,3.625,0,0,1,1.969-.555,3.318,3.318,0,0,1,2.668,1.1,4.658,4.658,0,0,1,.941,3.117v.766H-18.7a2.539,2.539,0,0,0,.7,1.656,2.1,2.1,0,0,0,1.543.609,2.571,2.571,0,0,0,2.125-1.055l1.023.977a3.418,3.418,0,0,1-1.355,1.176A4.244,4.244,0,0,1-16.566,20.156Zm-.227-7.242a1.6,1.6,0,0,0-1.262.547,2.835,2.835,0,0,0-.613,1.523h3.617v-.141a2.307,2.307,0,0,0-.508-1.441A1.586,1.586,0,0,0-16.793,12.914ZM-6.965,17.7a.861.861,0,0,0-.418-.773,4.445,4.445,0,0,0-1.387-.469,7.129,7.129,0,0,1-1.617-.516,2.158,2.158,0,0,1-1.422-1.992,2.25,2.25,0,0,1,.922-1.828,3.644,3.644,0,0,1,2.344-.734,3.792,3.792,0,0,1,2.449.75,2.38,2.38,0,0,1,.934,1.945h-1.9a1.17,1.17,0,0,0-.406-.91,1.557,1.557,0,0,0-1.078-.363,1.682,1.682,0,0,0-1.02.289.911.911,0,0,0-.395.773.769.769,0,0,0,.367.68,5.049,5.049,0,0,0,1.484.488,7.027,7.027,0,0,1,1.754.586,2.484,2.484,0,0,1,.945.816A2.082,2.082,0,0,1-5.1,17.6a2.2,2.2,0,0,1-.945,1.848,4.031,4.031,0,0,1-2.477.707,4.371,4.371,0,0,1-1.852-.375,3.047,3.047,0,0,1-1.266-1.031,2.441,2.441,0,0,1-.453-1.414h1.844a1.338,1.338,0,0,0,.508,1.035,1.973,1.973,0,0,0,1.242.363,1.92,1.92,0,0,0,1.141-.285A.883.883,0,0,0-6.965,17.7Zm5.9-8.211v2.055H.426v1.406H-1.066v4.719a1.039,1.039,0,0,0,.191.7.888.888,0,0,0,.684.215,2.924,2.924,0,0,0,.664-.078v1.469a4.676,4.676,0,0,1-1.25.18q-2.188,0-2.187-2.414V12.953H-4.355V11.547h1.391V9.492ZM6.926,20a2.93,2.93,0,0,1-.219-.789,2.955,2.955,0,0,1-2.219.945A2.982,2.982,0,0,1,2.41,19.43a2.325,2.325,0,0,1-.8-1.8,2.4,2.4,0,0,1,1-2.074,4.865,4.865,0,0,1,2.871-.723H6.645v-.555a1.481,1.481,0,0,0-.367-1.051,1.456,1.456,0,0,0-1.117-.395A1.672,1.672,0,0,0,4.1,13.16a1,1,0,0,0-.414.824h-1.9a2.107,2.107,0,0,1,.461-1.3A3.071,3.071,0,0,1,3.5,11.734a4.4,4.4,0,0,1,1.77-.344,3.547,3.547,0,0,1,2.367.746,2.661,2.661,0,0,1,.906,2.1v3.813a4.321,4.321,0,0,0,.32,1.82V20ZM4.84,18.633A2.16,2.16,0,0,0,5.9,18.359a1.827,1.827,0,0,0,.746-.734V16.031H5.621a2.8,2.8,0,0,0-1.586.367A1.189,1.189,0,0,0,3.5,17.438a1.109,1.109,0,0,0,.363.871A1.407,1.407,0,0,0,4.84,18.633ZM5.895,8H8.059L5.895,10.367l-1.523,0Zm16.023,7.859a5.033,5.033,0,0,1-.891,3.129,2.852,2.852,0,0,1-2.391,1.168,2.871,2.871,0,0,1-2.227-.914V23.25h-1.9v-11.7h1.75l.078.859a2.788,2.788,0,0,1,2.273-1.016,2.881,2.881,0,0,1,2.426,1.152,5.167,5.167,0,0,1,.879,3.2ZM20.027,15.7a3.526,3.526,0,0,0-.5-2.008,1.638,1.638,0,0,0-1.441-.742,1.747,1.747,0,0,0-1.672.961v3.75a1.763,1.763,0,0,0,1.688.984,1.636,1.636,0,0,0,1.418-.73A3.881,3.881,0,0,0,20.027,15.7Zm7.922-2.414a4.7,4.7,0,0,0-.773-.062,1.741,1.741,0,0,0-1.758,1V20h-1.9V11.547h1.813l.047.945a2.139,2.139,0,0,1,1.906-1.1,1.777,1.777,0,0,1,.672.109Zm.563,2.414A4.984,4.984,0,0,1,29,13.457a3.6,3.6,0,0,1,1.383-1.531,3.9,3.9,0,0,1,2.047-.535,3.692,3.692,0,0,1,2.777,1.1,4.333,4.333,0,0,1,1.152,2.922l.008.445a5.029,5.029,0,0,1-.48,2.234,3.551,3.551,0,0,1-1.375,1.523,3.925,3.925,0,0,1-2.066.539,3.667,3.667,0,0,1-2.863-1.191,4.563,4.563,0,0,1-1.074-3.176Zm1.9.164a3.406,3.406,0,0,0,.539,2.043,1.752,1.752,0,0,0,1.5.738,1.733,1.733,0,0,0,1.5-.75,3.762,3.762,0,0,0,.535-2.2,3.362,3.362,0,0,0-.551-2.031,1.856,1.856,0,0,0-2.973-.012A3.691,3.691,0,0,0,30.41,15.859Zm7.234-.148a4.944,4.944,0,0,1,.926-3.145,2.971,2.971,0,0,1,2.457-1.176A2.784,2.784,0,0,1,43.3,12.4l.086-.852H45.1v8.2a3.406,3.406,0,0,1-1.035,2.625,3.943,3.943,0,0,1-2.793.961,4.5,4.5,0,0,1-1.816-.387,3.228,3.228,0,0,1-1.348-1.012l.9-1.141a2.713,2.713,0,0,0,2.156,1.039,2.1,2.1,0,0,0,1.492-.512,1.961,1.961,0,0,0,.547-1.5v-.57a2.8,2.8,0,0,1-2.187.914,2.964,2.964,0,0,1-2.426-1.18A5.1,5.1,0,0,1,37.645,15.711Zm1.891.164a3.4,3.4,0,0,0,.52,2,1.671,1.671,0,0,0,1.441.73,1.827,1.827,0,0,0,1.7-.984V13.906a1.8,1.8,0,0,0-1.687-.961,1.677,1.677,0,0,0-1.457.742A3.811,3.811,0,0,0,39.535,15.875Zm11.938-2.594a4.7,4.7,0,0,0-.773-.062,1.741,1.741,0,0,0-1.758,1V20h-1.9V11.547h1.813l.047.945a2.139,2.139,0,0,1,1.906-1.1,1.777,1.777,0,0,1,.672.109ZM57.488,20a2.93,2.93,0,0,1-.219-.789,3.193,3.193,0,0,1-4.3.219,2.325,2.325,0,0,1-.8-1.8,2.4,2.4,0,0,1,1-2.074,4.865,4.865,0,0,1,2.871-.723h1.164v-.555a1.481,1.481,0,0,0-.367-1.051,1.456,1.456,0,0,0-1.117-.395,1.672,1.672,0,0,0-1.062.324,1,1,0,0,0-.414.824h-1.9a2.107,2.107,0,0,1,.461-1.3,3.071,3.071,0,0,1,1.254-.949,4.4,4.4,0,0,1,1.77-.344,3.547,3.547,0,0,1,2.367.746,2.661,2.661,0,0,1,.906,2.1v3.813a4.321,4.321,0,0,0,.32,1.82V20ZM55.4,18.633a2.16,2.16,0,0,0,1.059-.273,1.827,1.827,0,0,0,.746-.734V16.031H56.184A2.8,2.8,0,0,0,54.6,16.4a1.189,1.189,0,0,0-.531,1.039,1.109,1.109,0,0,0,.363.871A1.407,1.407,0,0,0,55.4,18.633Zm7.477-7.086.055.883a3.042,3.042,0,0,1,2.438-1.039,2.337,2.337,0,0,1,2.32,1.3,3,3,0,0,1,2.594-1.3,2.636,2.636,0,0,1,2.082.773,3.405,3.405,0,0,1,.7,2.281V20h-1.9V14.5a1.681,1.681,0,0,0-.352-1.18,1.539,1.539,0,0,0-1.164-.375,1.581,1.581,0,0,0-1.059.348,1.833,1.833,0,0,0-.574.91l.008,5.8h-1.9V14.438a1.354,1.354,0,0,0-1.523-1.492,1.671,1.671,0,0,0-1.617.93V20h-1.9V11.547ZM80.066,20a2.93,2.93,0,0,1-.219-.789,3.193,3.193,0,0,1-4.3.219,2.325,2.325,0,0,1-.8-1.8,2.4,2.4,0,0,1,1-2.074,4.865,4.865,0,0,1,2.871-.723h1.164v-.555a1.481,1.481,0,0,0-.367-1.051,1.456,1.456,0,0,0-1.117-.395,1.672,1.672,0,0,0-1.062.324,1,1,0,0,0-.414.824h-1.9a2.107,2.107,0,0,1,.461-1.3,3.071,3.071,0,0,1,1.254-.949,4.4,4.4,0,0,1,1.77-.344,3.547,3.547,0,0,1,2.367.746,2.661,2.661,0,0,1,.906,2.1v3.813a4.321,4.321,0,0,0,.32,1.82V20ZM77.98,18.633a2.159,2.159,0,0,0,1.059-.273,1.827,1.827,0,0,0,.746-.734V16.031H78.762a2.8,2.8,0,0,0-1.586.367,1.189,1.189,0,0,0-.531,1.039,1.109,1.109,0,0,0,.363.871A1.407,1.407,0,0,0,77.98,18.633Zm7.453-7.086.055.977a3.039,3.039,0,0,1,2.461-1.133q2.641,0,2.688,3.023V20h-1.9V14.523a1.741,1.741,0,0,0-.348-1.191,1.462,1.462,0,0,0-1.137-.387,1.829,1.829,0,0,0-1.711,1.039V20h-1.9V11.547Zm6.781,4.164a5.026,5.026,0,0,1,.906-3.137,2.9,2.9,0,0,1,2.43-1.184,2.759,2.759,0,0,1,2.172.938V8h1.9V20H97.9l-.094-.875a2.8,2.8,0,0,1-2.273,1.031,2.887,2.887,0,0,1-2.4-1.2A5.21,5.21,0,0,1,92.215,15.711Zm1.9.164a3.519,3.519,0,0,0,.5,2.012,1.61,1.61,0,0,0,1.41.723,1.793,1.793,0,0,0,1.7-1.039V13.961a1.766,1.766,0,0,0-1.687-1.016,1.622,1.622,0,0,0-1.422.73A3.918,3.918,0,0,0,94.113,15.875Zm7.133-.18a4.984,4.984,0,0,1,.492-2.238,3.6,3.6,0,0,1,1.383-1.531,3.9,3.9,0,0,1,2.047-.535,3.692,3.692,0,0,1,2.777,1.1,4.333,4.333,0,0,1,1.152,2.922l.008.445a5.029,5.029,0,0,1-.48,2.234,3.551,3.551,0,0,1-1.375,1.523,3.925,3.925,0,0,1-2.066.539,3.667,3.667,0,0,1-2.863-1.191,4.563,4.563,0,0,1-1.074-3.176Zm1.9.164a3.406,3.406,0,0,0,.539,2.043,1.752,1.752,0,0,0,1.5.738,1.733,1.733,0,0,0,1.5-.75,3.762,3.762,0,0,0,.535-2.2,3.362,3.362,0,0,0-.551-2.031,1.856,1.856,0,0,0-2.973-.012A3.691,3.691,0,0,0,103.145,15.859ZM111.895,18a1.084,1.084,0,0,1,.82.3,1.045,1.045,0,0,1,.289.754,1.008,1.008,0,0,1-.289.738,1.28,1.28,0,0,1-1.625,0,.991.991,0,0,1-.3-.742,1.045,1.045,0,0,1,.289-.754A1.074,1.074,0,0,1,111.895,18Z" transform="translate(-6089 -7512)" fill="#fff"/>
    <path id="Trazado_607180" data-name="Trazado 607180" d="M21,26H0V8H21V0L44,16.5,21,33Z" transform="translate(-6321 -7777)" fill="#26aab7"/>
    <path id="Trazado_607190" data-name="Trazado 607190" d="M0,20.253H7V0H25V20.253h8l-16.5,23Z" transform="translate(-5820.5 -7724.253)" fill="#26aab7"/>
    <path id="Trazado_607188" data-name="Trazado 607188" d="M21,26H0V8H21V0L44,16.5,21,33Z" transform="translate(-5986 -7777)" fill="#26aab7"/>
    <path id="Trazado_607189" data-name="Trazado 607189" d="M21,7H0V25H21v8L44,16.5,21,0Z" transform="translate(-5942 -7621) rotate(180)" fill="#26aab7"/>
    <path id="Trazado_607181" data-name="Trazado 607181" d="M21,7H0V25H21v8L44,16.5,21,0Z" transform="translate(-6277 -7621) rotate(180)" fill="#26aab7"/>
    <path id="Trazado_607182" data-name="Trazado 607182" d="M0,20.253H7V0H25V20.253h8l-16.5,23Z" transform="translate(-6485 -7593)" fill="#26aab7"/>
    <path id="Trazado_607183" data-name="Trazado 607183" d="M21,26H0V8H21V0L44,16.5,21,33Z" transform="translate(-6321 -7524)" fill="#26aab7"/>
  </g>
</svg>
