<?xml version="1.0" encoding="utf-8"?>
<!-- Generator: Adobe Illustrator 26.5.0, SVG Export Plug-In . SVG Version: 6.00 Build 0)  -->
<svg version="1.1" id="Layer_1" xmlns="http://www.w3.org/2000/svg" xmlns:xlink="http://www.w3.org/1999/xlink" x="0px" y="0px"
	 viewBox="0 0 918.3 477.4" style="enable-background:new 0 0 918.3 477.4;" xml:space="preserve">
<style type="text/css">
	.st0{fill:#26AAB7;}
	.st1{fill:#FB8C00;}
	.st2{fill:#12263F;}
	.st3{fill:#1565C0;}
	.st4{fill:#A0A0A0;}
	.st5{fill:#FFFFFF;}
</style>
<g id="Grupo_893189" transform="translate(2357 10027.381)">
	<path id="Trazado_607114" class="st0" d="M-2256.6-9887.5h21.7v21.7h-21.7V-9887.5z"/>
	<path id="Trazado_607115" class="st0" d="M-2256.6-9861.4h21.7v21.7h-21.7V-9861.4z"/>
	<path id="Trazado_607116" class="st0" d="M-2256.6-9835.4h21.7v21.7h-21.7V-9835.4z"/>
	<path id="Trazado_607117" class="st0" d="M-2256.6-9809.3h21.7v21.7h-21.7V-9809.3z"/>
	<path id="Trazado_607118" class="st0" d="M-2256.6-9783.3h21.7v21.7h-21.7V-9783.3z"/>
	<path id="Trazado_607119" class="st0" d="M-2256.6-9757.2h21.7v21.7h-21.7V-9757.2z"/>
	<path id="Trazado_607120" class="st0" d="M-2230.6-9887.5h21.7v21.7h-21.7V-9887.5z"/>
	<path id="Trazado_607121" class="st0" d="M-2230.6-9861.4h21.7v21.7h-21.7V-9861.4z"/>
	<path id="Trazado_607122" class="st0" d="M-2230.6-9835.4h21.7v21.7h-21.7V-9835.4z"/>
	<path id="Trazado_607123" class="st0" d="M-2230.6-9809.3h21.7v21.7h-21.7V-9809.3z"/>
	<path id="Trazado_607124" class="st0" d="M-2230.6-9783.3h21.7v21.7h-21.7V-9783.3z"/>
	<path id="Trazado_607125" class="st0" d="M-2230.6-9757.2h21.7v21.7h-21.7V-9757.2z"/>
	<path id="Trazado_607126" class="st0" d="M-2204.5-9887.5h21.7v21.7h-21.7V-9887.5z"/>
	<path id="Trazado_607127" class="st0" d="M-2204.5-9861.4h21.7v21.7h-21.7V-9861.4z"/>
	<path id="Trazado_607128" class="st0" d="M-2204.5-9835.4h21.7v21.7h-21.7V-9835.4z"/>
	<path id="Trazado_607129" class="st0" d="M-2204.5-9809.3h21.7v21.7h-21.7V-9809.3z"/>
	<path id="Trazado_607130" class="st0" d="M-2204.5-9783.3h21.7v21.7h-21.7V-9783.3z"/>
	<path id="Trazado_607131" class="st0" d="M-2204.5-9757.2h21.7v21.7h-21.7V-9757.2z"/>
	<path id="Trazado_607132" class="st0" d="M-2178.5-9861.4h21.7v21.7h-21.7V-9861.4z"/>
	<path id="Trazado_607133" class="st0" d="M-2178.5-9835.4h21.7v21.7h-21.7V-9835.4z"/>
	<path id="Trazado_607134" class="st0" d="M-2178.5-9809.3h21.7v21.7h-21.7V-9809.3z"/>
	<path id="Trazado_607135" class="st0" d="M-2178.5-9783.3h21.7v21.7h-21.7V-9783.3z"/>
	<path id="Trazado_607136" class="st0" d="M-2178.5-9757.2h21.7v21.7h-21.7V-9757.2z"/>
	<path id="Trazado_607137" class="st0" d="M-2054.7-9783.3h21.7v21.7h-21.7V-9783.3z"/>
	<path id="Trazado_607138" class="st0" d="M-2054.7-9757.2h21.7v21.7h-21.7V-9757.2z"/>
	<path id="Trazado_607139" class="st0" d="M-2028.6-9783.3h21.7v21.7h-21.7V-9783.3z"/>
	<path id="Trazado_607140" class="st0" d="M-2028.6-9757.2h21.7v21.7h-21.7V-9757.2z"/>
	<path id="Trazado_607141" class="st0" d="M-2002.6-9757.2h21.7v21.7h-21.7V-9757.2z"/>
	<path id="Trazado_607142" class="st0" d="M-1976.5-9757.2h21.7v21.7h-21.7V-9757.2z"/>
	<path id="Trazado_607148" class="st0" d="M-1665-9794.1h21.7v58.6h-21.7V-9794.1z"/>
	<path id="Trazado_607149" class="st0" d="M-1638.9-9818h21.7v82.5h-21.7V-9818z"/>
	<path id="Trazado_607150" class="st0" d="M-1612.9-9839.7h21.7v104.2h-21.7V-9839.7z"/>
	<path id="Trazado_607151" class="st0" d="M-1586.8-9861.4h21.7v125.9h-21.7V-9861.4z"/>
	<path id="Trazado_607143" class="st1" d="M-2101.4-9746.4h-19.5v-15.2h19.5v-6.5l17.4,14.1l-17.4,14.1L-2101.4-9746.4z"/>
	<g id="Grupo_893187" transform="translate(-1880.052 -9903.593)">
		<path id="Trazado_605979" class="st2" d="M141.9,72l-8.3,3.7l-0.1,0.1l-11.3,5.1l2.2-21.4l4,2.9c2.5-11-4.4-21.9-15.3-24.4
			c-11-2.5-21.9,4.4-24.4,15.3c-0.1,0.4-0.2,0.7-0.2,1.1c-1.1-0.5-2.2-1-3.3-1.5c-2.2-0.9-4.4-1.7-6.6-2.3
			c4-16.5,20.6-26.7,37.2-22.7c16.5,4,26.7,20.6,22.7,37.2c-0.3,1.3-0.7,2.5-1.1,3.7L141.9,72z"/>
		<path id="Trazado_605980" class="st2" d="M133.7,75.7L133.7,75.7l-0.1,0.1L133.7,75.7z"/>
	</g>
	<g id="Grupo_893188" transform="translate(-1993.327 -9882.211)">
		<path id="Trazado_605981" class="st2" d="M279.4,150v-7.9H176.2c14.7,0,28.8-5.6,39.5-15.7h63.8v-7.9l27.3,15.7L279.4,150z"/>
		<path id="Trazado_605983" class="st3" d="M233.6,80.6l-8.5-14.7l-7.4,12.9c-3.2-22.9-24.3-38.9-47.2-35.7
			c-18.6,2.6-33.3,17.3-35.8,35.9h7.8L135,92l0,0l-8.2,14.2l-7.4-12.9l0,0L111,79h7.9c3-31.6,31.1-54.8,62.8-51.8
			c5.8,0.6,11.5,2,16.9,4.3c1.1,0.5,2.2,1,3.3,1.5C220.1,42.1,232.2,60.3,233.6,80.6L233.6,80.6z"/>
		<path id="Trazado_605984" class="st3" d="M240.8,93.2H233c-1.8,12.1-7.5,23.3-16.2,32c-0.4,0.4-0.8,0.8-1.2,1.2
			c-10.7,10.1-24.8,15.7-39.5,15.7H78.7v-15.7h97.5c19.8,0,36.9-13.8,41-33.2h-7.8l8.3-14.4l7.4-12.9l8.5,14.7L240.8,93.2z"/>
	</g>
	<path id="Trazado_607144" class="st2" d="M-1905.6-9762.6h-8.1v-1.1l4.3-4.7c0.5-0.5,0.9-1.1,1.3-1.8c0.2-0.4,0.4-0.9,0.4-1.4
		c0-0.6-0.2-1.2-0.6-1.6c-0.4-0.4-1-0.6-1.6-0.6c-0.7,0-1.3,0.2-1.8,0.7c-0.5,0.5-0.7,1.2-0.6,1.9h-1.6c0-1,0.4-2,1.1-2.8
		c0.8-0.7,1.9-1.1,2.9-1.1c1-0.1,2,0.3,2.7,0.9c0.7,0.6,1,1.5,1,2.4c0,1.2-0.8,2.7-2.3,4.3l-3.3,3.6h6.2V-9762.6z M-1894.2-9765.1
		c0-0.4-0.2-0.8-0.5-1c-0.5-0.3-1.1-0.5-1.7-0.6c-0.7-0.1-1.3-0.3-1.9-0.6c-0.4-0.2-0.8-0.5-1-0.8c-0.2-0.3-0.3-0.8-0.3-1.2
		c0-0.8,0.4-1.5,1-1.9c0.7-0.5,1.6-0.8,2.4-0.8c0.9,0,1.8,0.2,2.5,0.8c0.6,0.5,1,1.3,1,2.1h-1.6c0-0.4-0.2-0.8-0.5-1.1
		c-0.4-0.3-0.9-0.5-1.4-0.5c-0.5,0-0.9,0.1-1.3,0.4c-0.3,0.2-0.5,0.6-0.5,1c0,0.3,0.2,0.7,0.4,0.9c0.5,0.3,1.1,0.5,1.6,0.6
		c0.7,0.1,1.3,0.3,1.9,0.6c0.4,0.2,0.8,0.5,1.1,0.9c0.2,0.4,0.4,0.8,0.4,1.2c0,0.8-0.3,1.5-1,2c-0.7,0.5-1.6,0.8-2.6,0.7
		c-0.7,0-1.3-0.1-2-0.4c-0.5-0.2-1-0.6-1.3-1.1c-0.3-0.4-0.5-1-0.5-1.5h1.6c0,0.5,0.2,1,0.6,1.3c0.5,0.3,1,0.5,1.6,0.5
		c0.5,0,1-0.1,1.4-0.4C-1894.4-9764.3-1894.2-9764.7-1894.2-9765.1z M-1886.8-9762.5c-1.1,0-2.2-0.4-3-1.2c-0.8-0.9-1.2-2.1-1.2-3.3
		v-0.3c0-0.8,0.2-1.7,0.5-2.4c0.3-0.7,0.8-1.3,1.5-1.7c0.6-0.4,1.3-0.6,2-0.6c1.1-0.1,2.1,0.4,2.8,1.2c0.7,1,1.1,2.2,1,3.4v0.7h-6.2
		c0,0.8,0.3,1.6,0.8,2.2c0.5,0.5,1.2,0.9,1.9,0.8c0.5,0,1-0.1,1.4-0.3c0.4-0.2,0.7-0.5,1-0.9l1,0.7
		C-1884-9763.1-1885.4-9762.4-1886.8-9762.5L-1886.8-9762.5z M-1887-9770.7c-0.6,0-1.2,0.2-1.6,0.7c-0.5,0.5-0.7,1.2-0.8,1.9h4.6
		v-0.1c0-0.7-0.2-1.3-0.6-1.9C-1885.8-9770.5-1886.4-9770.7-1887-9770.7L-1887-9770.7z M-1879.9-9771.8l0,1c0.7-0.8,1.7-1.2,2.7-1.2
		c1.1-0.1,2.1,0.5,2.6,1.5c0.3-0.4,0.7-0.8,1.2-1.1c0.5-0.3,1.1-0.4,1.7-0.4c2,0,3,1.1,3.1,3.2v6.1h-1.6v-6.1c0-0.5-0.1-1.1-0.4-1.5
		c-0.4-0.4-1-0.5-1.5-0.5c-0.5,0-1.1,0.2-1.5,0.5c-0.4,0.4-0.6,0.9-0.7,1.4v6.1h-1.6v-6c0.1-1-0.5-1.8-1.5-2c-0.2,0-0.3,0-0.5,0
		c-0.9-0.1-1.8,0.5-2.1,1.3v6.7h-1.6v-9.2L-1879.9-9771.8z M-1860.5-9762.6c-0.1-0.3-0.2-0.6-0.2-1c-0.7,0.7-1.6,1.1-2.6,1.1
		c-0.8,0-1.6-0.2-2.2-0.8c-0.6-0.5-0.9-1.2-0.9-1.9c0-0.9,0.4-1.7,1.1-2.2c0.9-0.6,2-0.9,3.1-0.8h1.5v-0.7c0-0.5-0.2-1-0.5-1.3
		c-0.4-0.4-0.9-0.5-1.5-0.5c-0.5,0-1,0.1-1.4,0.4c-0.3,0.2-0.6,0.6-0.6,1h-1.6c0-0.5,0.2-1,0.5-1.3c0.3-0.4,0.8-0.8,1.3-1
		c0.6-0.3,1.2-0.4,1.8-0.4c0.9-0.1,1.8,0.2,2.5,0.8c0.6,0.6,1,1.4,0.9,2.2v4.2c0,0.7,0.1,1.4,0.3,2v0.1H-1860.5z M-1863.1-9763.8
		c0.5,0,1-0.1,1.4-0.4c0.4-0.2,0.7-0.6,1-1v-1.9h-1.2c-1.9,0-2.9,0.6-2.9,1.7c0,0.4,0.2,0.9,0.5,1.2
		C-1864-9764-1863.5-9763.8-1863.1-9763.8L-1863.1-9763.8z M-1855.2-9771.8l0.1,1.2c0.7-0.9,1.7-1.3,2.7-1.3c1.9,0,2.9,1.1,2.9,3.3
		v6.1h-1.6v-6.1c0-0.5-0.1-1.1-0.5-1.5c-0.4-0.3-0.9-0.5-1.4-0.5c-0.5,0-0.9,0.1-1.3,0.4c-0.4,0.3-0.7,0.6-0.9,1.1v6.5h-1.6v-9.2
		H-1855.2z M-1841.4-9762.6c-0.1-0.3-0.2-0.6-0.2-1c-0.7,0.7-1.6,1.1-2.6,1.1c-0.8,0-1.6-0.2-2.2-0.8c-0.6-0.5-0.9-1.2-0.9-1.9
		c0-0.9,0.4-1.7,1.1-2.2c0.9-0.6,2-0.9,3.1-0.8h1.5v-0.7c0-0.5-0.2-1-0.5-1.3c-0.4-0.4-0.9-0.5-1.5-0.5c-0.5,0-1,0.1-1.4,0.4
		c-0.4,0.2-0.6,0.6-0.6,1h-1.6c0-0.5,0.2-1,0.5-1.3c0.3-0.4,0.8-0.8,1.3-1c0.6-0.3,1.2-0.4,1.8-0.4c0.9-0.1,1.8,0.2,2.5,0.8
		c0.6,0.6,1,1.4,0.9,2.2v4.2c0,0.7,0.1,1.4,0.3,2v0.1H-1841.4z M-1844-9763.8c0.5,0,1-0.1,1.4-0.4c0.4-0.2,0.7-0.6,1-1v-1.9h-1.2
		c-1.9,0-2.9,0.6-2.9,1.7c0,0.4,0.2,0.9,0.5,1.2C-1844.9-9764-1844.5-9763.8-1844-9763.8L-1844-9763.8z M-1832.3-9765.1
		c0-0.4-0.2-0.8-0.5-1c-0.5-0.3-1.1-0.5-1.7-0.6c-0.7-0.1-1.3-0.3-1.9-0.6c-0.4-0.2-0.8-0.5-1-0.8c-0.2-0.3-0.3-0.8-0.3-1.2
		c0-0.8,0.4-1.5,1-1.9c0.7-0.5,1.6-0.8,2.4-0.8c0.9,0,1.8,0.2,2.5,0.8c0.6,0.5,1,1.3,1,2.1h-1.6c0-0.4-0.2-0.8-0.5-1.1
		c-0.4-0.3-0.9-0.5-1.4-0.5c-0.5,0-0.9,0.1-1.3,0.4c-0.3,0.2-0.5,0.6-0.5,1c0,0.3,0.2,0.7,0.5,0.9c0.5,0.3,1.1,0.5,1.6,0.6
		c0.7,0.1,1.3,0.3,1.9,0.6c0.4,0.2,0.8,0.5,1.1,0.9c0.2,0.4,0.4,0.8,0.4,1.3c0,0.8-0.3,1.5-1,2c-0.7,0.5-1.6,0.8-2.6,0.7
		c-0.7,0-1.3-0.1-2-0.4c-0.5-0.2-1-0.6-1.3-1.1c-0.3-0.4-0.5-1-0.5-1.5h1.6c0,0.5,0.2,1,0.6,1.3c0.5,0.3,1,0.5,1.6,0.5
		c0.5,0,1-0.1,1.4-0.4C-1832.5-9764.3-1832.3-9764.7-1832.3-9765.1z"/>
	<path id="Trazado_607152" class="st2" d="M-1774.6-9886.4h-8.1v-1.1l4.3-4.8c0.5-0.5,0.9-1.1,1.3-1.8c0.2-0.4,0.4-0.9,0.4-1.4
		c0-0.6-0.2-1.2-0.6-1.6c-0.4-0.4-1-0.6-1.6-0.6c-0.7,0-1.3,0.2-1.8,0.7c-0.5,0.5-0.7,1.2-0.7,1.9h-1.6c0-1,0.4-2,1.1-2.8
		c0.8-0.7,1.9-1.1,2.9-1.1c1-0.1,2,0.3,2.7,0.9c0.7,0.6,1,1.5,1,2.4c0,1.2-0.8,2.7-2.3,4.3l-3.3,3.6h6.2L-1774.6-9886.4z
		 M-1766.3-9890.5h1.7v1.3h-1.7v2.9h-1.6v-2.9h-5.6v-0.9l5.5-8.6h1.7V-9890.5z M-1771.7-9890.5h3.8v-6.1l-0.2,0.3L-1771.7-9890.5z
		 M-1761.5-9894.5c0.7-0.8,1.7-1.3,2.7-1.3c1.9,0,2.9,1.1,2.9,3.3v6.1h-1.6v-6.1c0-0.5-0.1-1.1-0.5-1.5c-0.4-0.3-0.9-0.5-1.4-0.5
		c-0.5,0-0.9,0.1-1.3,0.4c-0.4,0.3-0.7,0.6-0.9,1.1v6.5h-1.6v-13h1.6V-9894.5z"/>
	<path id="Trazado_607145" class="st4" d="M-2035.7-9942.8h116.2c8.7,0,15.7,7,15.7,15.7c0,8.7-7,15.7-15.7,15.7l0,0h-116.2
		c-8.7,0-15.7-7-15.7-15.7C-2051.4-9935.8-2044.4-9942.8-2035.7-9942.8z"/>
	<path id="Trazado_607146" class="st4" d="M-2262.6-9942.8h116.2c8.7,0,15.7,7,15.7,15.7c0,8.7-7,15.7-15.7,15.7l0,0h-116.2
		c-8.7,0-15.7-7-15.7-15.7C-2278.3-9935.8-2271.3-9942.8-2262.6-9942.8z"/>
	<path id="Trazado_607153" class="st4" d="M-1649.2-9942.8h116.2c8.7,0,15.7,7,15.7,15.7c0,8.7-7,15.7-15.7,15.7l0,0h-116.2
		c-8.7,0-15.7-7-15.7-15.7C-1665-9935.8-1657.9-9942.8-1649.2-9942.8z"/>
	<path id="Trazado_607154" class="st4" d="M-1847.9-9608.5h116.2c8.7,0,15.7,7,15.7,15.7c0,8.7-7,15.7-15.7,15.7l0,0h-116.2
		c-8.7,0-15.7-7-15.7-15.7C-1863.6-9601.4-1856.6-9608.5-1847.9-9608.5z"/>
	<path id="Trazado_607113" class="st1" d="M-2204.5-10000.4c-5.9,0-10.7,4.8-10.7,10.7s4.8,10.7,10.7,10.7s10.7-4.8,10.7-10.7l0,0
		C-2193.8-9995.6-2198.6-10000.4-2204.5-10000.4z M-2204.5-9997.7c4.4,0,8,3.6,8,8s-3.6,8-8,8s-8-3.6-8-8
		C-2212.5-9994.1-2209-9997.7-2204.5-9997.7C-2204.5-9997.7-2204.5-9997.7-2204.5-9997.7z M-2204.5-9977.7c-11.1,0-20,8.7-20,19.4
		v1.9h2.7v-1.9c0-9.3,7.7-16.8,17.4-16.8s17.4,7.5,17.4,16.8v1.9h2.7v-1.9C-2184.5-9969-2193.5-9977.7-2204.5-9977.7L-2204.5-9977.7
		z"/>
	<path id="Trazado_607147" class="st3" d="M-1974.9-10000.4c-5.9,0-10.7,4.8-10.7,10.7s4.8,10.7,10.7,10.7c5.9,0,10.7-4.8,10.7-10.7
		l0,0C-1964.2-9995.6-1969-10000.4-1974.9-10000.4z M-1974.9-9997.7c4.4,0,8,3.6,8,8s-3.6,8-8,8s-8-3.6-8-8
		C-1982.9-9994.1-1979.3-9997.7-1974.9-9997.7C-1974.9-9997.7-1974.9-9997.7-1974.9-9997.7z M-1974.9-9977.7c-11.1,0-20,8.7-20,19.4
		v1.9h2.7v-1.9c0-9.3,7.7-16.8,17.4-16.8s17.4,7.5,17.4,16.8v1.9h2.7v-1.9C-1954.8-9969-1963.8-9977.7-1974.9-9977.7L-1974.9-9977.7
		z"/>
	<path id="Trazado_607155" class="st2" d="M-1586.8-10000.4c-5.9,0-10.7,4.8-10.7,10.7s4.8,10.7,10.7,10.7c5.9,0,10.7-4.8,10.7-10.7
		l0,0C-1576.1-9995.6-1580.9-10000.4-1586.8-10000.4z M-1586.8-9997.7c4.4,0,8,3.6,8,8s-3.6,8-8,8s-8-3.6-8-8
		C-1594.8-9994.1-1591.3-9997.7-1586.8-9997.7C-1586.8-9997.7-1586.8-9997.7-1586.8-9997.7z M-1586.8-9977.7c-11.1,0-20,8.7-20,19.4
		v1.9h2.7v-1.9c0-9.3,7.7-16.8,17.4-16.8s17.4,7.5,17.4,16.8v1.9h2.7v-1.9C-1566.8-9969-1575.8-9977.7-1586.8-9977.7L-1586.8-9977.7
		z"/>
	<path id="Trazado_607156" class="st3" d="M-1817.4-9666c-5.9,0-10.7,4.8-10.7,10.7s4.8,10.7,10.7,10.7c5.9,0,10.7-4.8,10.7-10.7
		l0,0C-1806.8-9661.2-1811.6-9666-1817.4-9666z M-1817.4-9663.4c4.4,0,8,3.6,8,8s-3.6,8-8,8s-8-3.6-8-8
		C-1825.5-9659.8-1821.9-9663.3-1817.4-9663.4C-1817.5-9663.4-1817.5-9663.4-1817.4-9663.4z M-1817.4-9643.3c-11.1,0-20,8.7-20,19.4
		v1.9h2.7v-1.9c0-9.3,7.7-16.8,17.4-16.8s17.4,7.5,17.4,16.8v1.9h2.7v-1.9C-1797.4-9634.7-1806.4-9643.3-1817.4-9643.3
		L-1817.4-9643.3z"/>
	<path id="Trazado_607157" class="st2" d="M-1766.5-9666c-5.9,0-10.7,4.8-10.7,10.7s4.8,10.7,10.7,10.7c5.9,0,10.7-4.8,10.7-10.7
		l0,0C-1755.9-9661.2-1760.6-9666-1766.5-9666z M-1766.5-9663.4c4.4,0,8,3.6,8,8s-3.6,8-8,8s-8-3.6-8-8
		C-1774.6-9659.8-1771-9663.3-1766.5-9663.4C-1766.6-9663.4-1766.5-9663.4-1766.5-9663.4z M-1766.5-9643.3c-11.1,0-20,8.7-20,19.4
		v1.9h2.7v-1.9c0-9.3,7.7-16.8,17.4-16.8s17.4,7.5,17.4,16.8v1.9h2.7v-1.9C-1746.5-9634.7-1755.5-9643.3-1766.5-9643.3
		L-1766.5-9643.3z"/>
	<path id="Trazado_607161" class="st2" d="M-2059.7-9693.6h-2.7v4.6h-1.5v-11.4h3.8c1.1-0.1,2.1,0.2,3,0.9c0.7,0.6,1.1,1.6,1,2.5
		c0,0.7-0.2,1.3-0.6,1.9c-0.4,0.5-1,1-1.6,1.2l2.7,4.8v0.1h-1.6L-2059.7-9693.6z M-2062.3-9694.8h2.3c0.6,0,1.3-0.2,1.8-0.6
		c0.4-0.4,0.7-1,0.7-1.5c0-0.6-0.2-1.2-0.6-1.6c-0.5-0.4-1.2-0.6-1.8-0.6h-2.3V-9694.8z M-2050.7-9688.8c-1.1,0-2.1-0.4-2.8-1.1
		c-0.7-0.8-1.1-1.9-1.1-3v-0.3c0-0.8,0.2-1.5,0.5-2.2c0.3-0.6,0.8-1.2,1.3-1.5c0.6-0.4,1.2-0.6,1.9-0.6c1-0.1,1.9,0.3,2.6,1.1
		c0.7,0.9,1,2,0.9,3.1v0.6h-5.7c0,0.7,0.2,1.5,0.7,2c0.4,0.5,1.1,0.8,1.8,0.8c0.5,0,0.9-0.1,1.3-0.3c0.4-0.2,0.7-0.5,0.9-0.8
		l0.9,0.7C-2048.2-9689.4-2049.4-9688.8-2050.7-9688.8z M-2050.9-9696.4c-0.6,0-1.1,0.2-1.5,0.6c-0.4,0.5-0.7,1.1-0.7,1.8h4.2v-0.1
		c0-0.6-0.2-1.2-0.6-1.7C-2049.8-9696.2-2050.3-9696.4-2050.9-9696.4z M-2046.1-9693.3c-0.1-1.1,0.3-2.2,0.9-3.2
		c0.6-0.8,1.5-1.2,2.5-1.2c0.9,0,1.8,0.3,2.4,1l0.1-0.9h1.3v11.7h-1.4v-4c-0.6,0.6-1.5,1-2.3,0.9c-1,0-1.9-0.4-2.4-1.2
		c-0.6-0.9-1-2-0.9-3.2L-2046.1-9693.3z M-2044.6-9693.1c0,0.8,0.2,1.6,0.6,2.3c0.4,0.5,1,0.8,1.7,0.8c0.8,0,1.6-0.4,2-1.1v-4.1
		c-0.4-0.7-1.1-1.1-2-1.1c-0.7,0-1.3,0.3-1.7,0.8C-2044.5-9694.9-2044.7-9694-2044.6-9693.1L-2044.6-9693.1z M-2031.4-9689.8
		c-0.6,0.7-1.5,1.1-2.5,1c-0.8,0.1-1.5-0.2-2.1-0.8c-0.5-0.7-0.8-1.5-0.7-2.3v-5.5h1.4v5.5c0,1.3,0.5,1.9,1.6,1.9
		c0.9,0.1,1.8-0.4,2.2-1.2v-6.2h1.4v8.5h-1.4L-2031.4-9689.8z M-2024.3-9688.8c-1.1,0-2.1-0.4-2.8-1.1c-0.7-0.8-1.1-1.9-1.1-3v-0.3
		c0-0.8,0.2-1.5,0.5-2.2c0.3-0.6,0.8-1.2,1.3-1.5c0.6-0.4,1.2-0.6,1.9-0.6c1-0.1,1.9,0.3,2.6,1.1c0.7,0.9,1,2,0.9,3.1v0.6h-5.7
		c0,0.7,0.2,1.5,0.7,2c0.5,0.5,1.1,0.8,1.8,0.8c0.5,0,0.9-0.1,1.3-0.3c0.4-0.2,0.7-0.5,0.9-0.8l0.9,0.7
		C-2021.8-9689.4-2023-9688.8-2024.3-9688.8L-2024.3-9688.8z M-2024.5-9696.4c-0.6,0-1.1,0.2-1.5,0.6c-0.4,0.5-0.7,1.1-0.7,1.8h4.2
		v-0.1c0-0.6-0.2-1.2-0.6-1.7C-2023.4-9696.2-2023.9-9696.4-2024.5-9696.4L-2024.5-9696.4z M-2015.2-9696.2c-0.2,0-0.5-0.1-0.7-0.1
		c-0.8-0.1-1.6,0.4-1.9,1.2v6h-1.4v-8.5h1.4l0,1c0.4-0.7,1.2-1.2,2-1.1c0.2,0,0.4,0,0.6,0.1L-2015.2-9696.2z M-2012.4-9689h-1.4
		v-8.5h1.4V-9689z M-2013.9-9699.7c0-0.2,0.1-0.4,0.2-0.6c0.2-0.2,0.4-0.3,0.6-0.2c0.2,0,0.5,0.1,0.6,0.2c0.1,0.2,0.2,0.4,0.2,0.6
		c0,0.2-0.1,0.4-0.2,0.6c-0.2,0.2-0.4,0.3-0.6,0.2c-0.2,0-0.5-0.1-0.6-0.2C-2013.8-9699.3-2013.9-9699.5-2013.9-9699.7z
		 M-2008.7-9697.5l0,0.9c0.6-0.7,1.5-1.1,2.5-1.1c1-0.1,2,0.4,2.4,1.4c0.3-0.4,0.7-0.7,1.1-1c0.5-0.3,1-0.4,1.6-0.4
		c1.9,0,2.8,1,2.8,2.9v5.7h-1.4v-5.6c0-0.5-0.1-1-0.4-1.4c-0.4-0.3-0.9-0.5-1.4-0.4c-0.5,0-1,0.2-1.3,0.5c-0.4,0.3-0.6,0.8-0.6,1.3
		v5.6h-1.5v-5.5c0.1-0.9-0.5-1.7-1.4-1.8c-0.1,0-0.3,0-0.4,0c-0.8-0.1-1.6,0.4-2,1.2v6.2h-1.4v-8.5L-2008.7-9697.5z M-1994.4-9689
		h-1.4v-8.5h1.4L-1994.4-9689z M-1996-9699.7c0-0.2,0.1-0.4,0.2-0.6c0.2-0.2,0.4-0.3,0.6-0.2c0.2,0,0.5,0.1,0.6,0.2
		c0.1,0.2,0.2,0.4,0.2,0.6c0,0.2-0.1,0.4-0.2,0.6c-0.2,0.2-0.4,0.3-0.6,0.2c-0.2,0-0.5-0.1-0.6-0.2
		C-1995.9-9699.3-1996-9699.5-1996-9699.7z M-1988.6-9688.8c-1.1,0-2.1-0.4-2.8-1.1c-0.7-0.8-1.1-1.9-1.1-3v-0.3
		c0-0.8,0.2-1.5,0.5-2.2c0.3-0.6,0.8-1.2,1.3-1.5c0.6-0.4,1.2-0.6,1.9-0.6c1-0.1,1.9,0.3,2.6,1.1c0.7,0.9,1,2,0.9,3.1v0.6h-5.7
		c0,0.7,0.2,1.5,0.7,2c0.5,0.5,1.1,0.8,1.8,0.8c0.5,0,0.9-0.1,1.3-0.3c0.4-0.2,0.7-0.5,0.9-0.8l0.9,0.7
		C-1986.1-9689.4-1987.3-9688.8-1988.6-9688.8z M-1988.8-9696.4c-0.6,0-1.1,0.2-1.5,0.6c-0.4,0.5-0.7,1.1-0.7,1.8h4.2v-0.1
		c0-0.6-0.2-1.2-0.6-1.7C-1987.7-9696.2-1988.3-9696.4-1988.8-9696.4z M-1982.3-9697.5l0,1.1c0.6-0.8,1.5-1.2,2.5-1.2
		c1.8,0,2.7,1,2.7,3v5.6h-1.4v-5.6c0-0.5-0.1-1-0.4-1.4c-0.3-0.3-0.8-0.5-1.3-0.4c-0.4,0-0.9,0.1-1.2,0.4c-0.4,0.3-0.6,0.6-0.8,1v6
		h-1.4v-8.5H-1982.3z M-1972.9-9699.5v2h1.6v1.1h-1.6v5.2c0,0.3,0.1,0.5,0.2,0.8c0.2,0.2,0.5,0.3,0.7,0.3c0.2,0,0.5,0,0.7-0.1v1.2
		c-0.4,0.1-0.7,0.2-1.1,0.2c-0.6,0-1.1-0.2-1.5-0.6c-0.4-0.5-0.5-1.1-0.5-1.7v-5.2h-1.5v-1.1h1.5v-2H-1972.9z M-1970.1-9693.3
		c0-0.8,0.2-1.5,0.5-2.2c0.3-0.6,0.8-1.2,1.4-1.5c0.6-0.4,1.3-0.6,2-0.5c1.1,0,2.1,0.4,2.8,1.2c0.7,0.9,1.1,2,1.1,3.2v0.1
		c0,0.8-0.1,1.5-0.5,2.2c-0.3,0.6-0.8,1.2-1.4,1.5c-0.6,0.4-1.3,0.6-2,0.5c-1.1,0-2.1-0.4-2.8-1.2
		C-1969.8-9690.9-1970.2-9692.1-1970.1-9693.3L-1970.1-9693.3z M-1968.7-9693.1c0,0.8,0.2,1.6,0.7,2.3c0.4,0.6,1.1,0.9,1.7,0.9
		c0.7,0,1.3-0.3,1.8-0.9c0.5-0.7,0.7-1.6,0.6-2.4c0-0.8-0.2-1.6-0.7-2.3c-0.4-0.6-1.1-0.9-1.8-0.9c-0.7,0-1.3,0.3-1.7,0.8
		C-1968.5-9694.9-1968.7-9694-1968.7-9693.1L-1968.7-9693.1z M-1955.7-9691.2c0-0.4-0.2-0.7-0.4-0.9c-0.5-0.3-1-0.5-1.5-0.6
		c-0.6-0.1-1.2-0.3-1.7-0.6c-0.4-0.2-0.7-0.4-1-0.8c-0.2-0.3-0.3-0.7-0.3-1.1c0-0.7,0.3-1.3,0.9-1.8c0.6-0.5,1.4-0.8,2.2-0.7
		c0.8,0,1.7,0.2,2.3,0.7c0.6,0.5,0.9,1.2,0.9,1.9h-1.5c0-0.4-0.2-0.8-0.5-1c-0.4-0.3-0.8-0.4-1.3-0.4c-0.4,0-0.9,0.1-1.2,0.3
		c-0.3,0.2-0.5,0.5-0.4,0.9c0,0.3,0.1,0.6,0.4,0.8c0.5,0.2,1,0.4,1.5,0.5c0.6,0.1,1.2,0.3,1.8,0.6c0.4,0.2,0.7,0.5,1,0.8
		c0.2,0.3,0.3,0.7,0.3,1.2c0,0.7-0.3,1.4-0.9,1.8c-0.7,0.5-1.5,0.7-2.4,0.7c-0.6,0-1.2-0.1-1.8-0.4c-0.5-0.2-0.9-0.6-1.2-1
		c-0.3-0.4-0.4-0.9-0.4-1.4h1.4c0,0.5,0.2,0.9,0.6,1.2c0.4,0.3,0.9,0.5,1.4,0.4c0.5,0,0.9-0.1,1.3-0.3
		C-1955.9-9690.5-1955.7-9690.9-1955.7-9691.2z M-2064.9-9673.3c-0.1-1.1,0.3-2.2,0.9-3.1c0.6-0.8,1.5-1.2,2.4-1.2
		c0.9,0,1.8,0.3,2.3,1v-4.4h1.4v12h-1.3l-0.1-0.9c-0.6,0.7-1.5,1.1-2.4,1.1c-0.9,0-1.8-0.4-2.4-1.2c-0.7-0.9-1-2-0.9-3.1
		L-2064.9-9673.3z M-2063.5-9673.1c0,0.8,0.2,1.6,0.6,2.2c0.4,0.5,1,0.8,1.6,0.8c0.9,0,1.6-0.4,2-1.2v-3.9c-0.4-0.8-1.1-1.2-2-1.2
		c-0.7,0-1.3,0.3-1.7,0.8C-2063.3-9674.8-2063.5-9674-2063.5-9673.1L-2063.5-9673.1z M-2052-9668.8c-1.1,0-2.1-0.4-2.8-1.1
		c-0.7-0.8-1.1-1.9-1.1-3v-0.3c0-0.8,0.1-1.5,0.5-2.2c0.3-0.6,0.8-1.2,1.3-1.5c0.6-0.4,1.2-0.6,1.9-0.6c1-0.1,1.9,0.3,2.6,1.1
		c0.7,0.9,1,2,0.9,3.1v0.6h-5.7c0,0.7,0.2,1.5,0.7,2c0.5,0.5,1.1,0.8,1.8,0.8c0.5,0,0.9-0.1,1.3-0.3c0.4-0.2,0.7-0.5,0.9-0.8
		l0.9,0.7C-2049.5-9669.4-2050.8-9668.8-2052-9668.8z M-2052.2-9676.4c-0.6,0-1.1,0.2-1.5,0.6c-0.4,0.5-0.7,1.1-0.7,1.8h4.2v-0.1
		c0-0.6-0.2-1.2-0.6-1.7C-2051.1-9676.2-2051.7-9676.4-2052.2-9676.4L-2052.2-9676.4z M-2041.5-9669h-1.4v-12h1.4V-9669z
		 M-2034-9669c-0.1-0.3-0.2-0.6-0.2-0.9c-0.6,0.7-1.5,1.1-2.4,1c-0.7,0-1.5-0.2-2.1-0.7c-0.5-0.4-0.8-1.1-0.8-1.8
		c0-0.8,0.3-1.6,1-2.1c0.8-0.5,1.8-0.8,2.8-0.7h1.4v-0.7c0-0.4-0.1-0.9-0.5-1.2c-0.4-0.3-0.8-0.5-1.3-0.4c-0.5,0-0.9,0.1-1.3,0.4
		c-0.3,0.2-0.5,0.6-0.5,0.9h-1.5c0-0.4,0.2-0.9,0.4-1.2c0.3-0.4,0.7-0.7,1.2-0.9c0.5-0.2,1.1-0.4,1.7-0.3c0.8,0,1.6,0.2,2.3,0.7
		c0.6,0.5,0.9,1.2,0.9,2v3.9c0,0.6,0.1,1.3,0.3,1.9v0.1H-2034z M-2036.4-9670.1c0.5,0,0.9-0.1,1.3-0.4c0.4-0.2,0.7-0.5,0.9-0.9v-1.7
		h-1.1c-1.8,0-2.7,0.5-2.7,1.6c0,0.4,0.1,0.8,0.5,1.1C-2037.2-9670.2-2036.8-9670.1-2036.4-9670.1L-2036.4-9670.1z M-2025-9669h-1.4
		v-8.5h1.4L-2025-9669z M-2026.6-9679.7c0-0.2,0.1-0.4,0.2-0.6c0.2-0.2,0.4-0.3,0.6-0.2c0.2,0,0.5,0.1,0.6,0.2
		c0.1,0.2,0.2,0.4,0.2,0.6c0,0.2-0.1,0.4-0.2,0.6c-0.2,0.2-0.4,0.3-0.6,0.2c-0.2,0-0.5-0.1-0.6-0.2
		C-2026.5-9679.3-2026.6-9679.5-2026.6-9679.7z M-2020.7-9679.5v2h1.6v1.1h-1.6v5.2c0,0.3,0.1,0.5,0.2,0.8c0.2,0.2,0.5,0.3,0.7,0.3
		c0.2,0,0.5,0,0.7-0.1v1.2c-0.4,0.1-0.7,0.2-1.1,0.2c-0.6,0-1.1-0.2-1.5-0.6c-0.4-0.5-0.5-1.1-0.5-1.7v-5.2h-1.5v-1.1h1.5v-2
		H-2020.7z M-2013.9-9668.8c-1.1,0-2.1-0.4-2.8-1.1c-0.7-0.8-1.1-1.9-1.1-3v-0.3c0-0.8,0.2-1.5,0.5-2.2c0.3-0.6,0.8-1.2,1.3-1.6
		c0.6-0.4,1.2-0.6,1.9-0.6c1-0.1,1.9,0.3,2.6,1.1c0.7,0.9,1,2,0.9,3.1v0.6h-5.7c0,0.7,0.2,1.5,0.7,2c0.5,0.5,1.1,0.8,1.8,0.8
		c0.5,0,0.9-0.1,1.3-0.3c0.4-0.2,0.7-0.5,0.9-0.8l0.9,0.7C-2011.4-9669.4-2012.7-9668.8-2013.9-9668.8L-2013.9-9668.8z
		 M-2014.1-9676.4c-0.6,0-1.1,0.2-1.5,0.6c-0.4,0.5-0.7,1.1-0.7,1.8h4.2v-0.1c0-0.6-0.2-1.2-0.6-1.7
		C-2013-9676.2-2013.6-9676.4-2014.1-9676.4L-2014.1-9676.4z M-2004.9-9676.2c-0.2,0-0.5-0.1-0.7-0.1c-0.8-0.1-1.6,0.4-1.9,1.2v6
		h-1.4v-8.5h1.4l0,1c0.4-0.7,1.2-1.2,2-1.1c0.2,0,0.4,0,0.6,0.1L-2004.9-9676.2z M-1998.7-9669c-0.1-0.3-0.2-0.6-0.2-0.9
		c-0.6,0.7-1.5,1.1-2.4,1c-0.7,0-1.5-0.2-2.1-0.7c-0.5-0.4-0.8-1.1-0.8-1.8c0-0.8,0.3-1.6,1-2.1c0.8-0.5,1.8-0.8,2.8-0.7h1.4v-0.7
		c0-0.4-0.1-0.9-0.5-1.2c-0.4-0.3-0.8-0.5-1.3-0.4c-0.5,0-0.9,0.1-1.3,0.4c-0.3,0.2-0.5,0.6-0.5,0.9h-1.5c0-0.4,0.2-0.9,0.4-1.2
		c0.3-0.4,0.7-0.7,1.2-0.9c0.5-0.2,1.1-0.4,1.7-0.3c0.8,0,1.6,0.2,2.3,0.7c0.6,0.5,0.9,1.3,0.9,2v3.9c0,0.6,0.1,1.3,0.3,1.9v0.1
		H-1998.7z M-2001.1-9670.1c0.5,0,0.9-0.1,1.3-0.4c0.4-0.2,0.7-0.5,0.9-0.9v-1.7h-1.1c-1.8,0-2.7,0.5-2.7,1.6c0,0.4,0.1,0.8,0.5,1.1
		C-2001.9-9670.2-2001.5-9670.1-2001.1-9670.1L-2001.1-9670.1z M-1991.8-9670c0.5,0,1-0.2,1.4-0.5c0.4-0.3,0.6-0.7,0.6-1.2h1.4
		c0,0.5-0.2,1-0.5,1.4c-0.3,0.4-0.7,0.8-1.2,1c-0.5,0.3-1.1,0.4-1.6,0.4c-1,0-2-0.4-2.7-1.2c-0.7-0.9-1.1-2-1-3.2v-0.2
		c0-0.8,0.1-1.5,0.5-2.2c0.3-0.6,0.7-1.1,1.3-1.5c0.6-0.4,1.3-0.5,2-0.5c0.9,0,1.7,0.3,2.4,0.9c0.6,0.6,1,1.4,1,2.2h-1.4
		c0-0.5-0.2-1-0.6-1.3c-0.4-0.4-0.9-0.5-1.4-0.5c-0.7,0-1.3,0.3-1.7,0.8c-0.4,0.7-0.7,1.5-0.6,2.3v0.3c-0.1,0.8,0.2,1.6,0.6,2.2
		C-1993.1-9670.3-1992.4-9670-1991.8-9670L-1991.8-9670z M-1985.2-9669h-1.4v-8.5h1.4V-9669z M-1986.8-9679.7c0-0.2,0.1-0.4,0.2-0.6
		c0.2-0.2,0.4-0.3,0.6-0.2c0.2,0,0.5,0.1,0.6,0.2c0.1,0.2,0.2,0.4,0.2,0.6c0,0.2-0.1,0.4-0.2,0.6c-0.2,0.2-0.4,0.3-0.6,0.2
		c-0.2,0-0.5-0.1-0.6-0.2C-1986.7-9679.3-1986.8-9679.5-1986.8-9679.7z M-1983.3-9673.3c0-0.8,0.2-1.5,0.5-2.2
		c0.3-0.6,0.8-1.2,1.4-1.5c0.6-0.4,1.3-0.6,2-0.5c1.1,0,2.1,0.4,2.8,1.2c0.7,0.9,1.1,2,1.1,3.2v0.1c0,0.8-0.1,1.5-0.5,2.2
		c-0.3,0.6-0.8,1.2-1.4,1.5c-0.6,0.4-1.3,0.6-2,0.5c-1.1,0-2.1-0.4-2.8-1.2C-1983-9670.9-1983.4-9672.1-1983.3-9673.3
		L-1983.3-9673.3z M-1981.8-9673.1c0,0.8,0.2,1.6,0.7,2.3c0.7,1,2.1,1.1,3.1,0.4c0.1-0.1,0.3-0.2,0.4-0.4c0.5-0.7,0.7-1.6,0.6-2.4
		c0-0.8-0.2-1.6-0.7-2.3c-0.4-0.6-1.1-0.9-1.8-0.9c-0.7,0-1.3,0.3-1.7,0.9C-1981.7-9674.9-1981.9-9674-1981.8-9673.1L-1981.8-9673.1
		z M-1978.8-9681h1.8l-2.1,2.3h-1.2L-1978.8-9681z M-1972.4-9677.5l0,1.1c0.6-0.8,1.5-1.2,2.5-1.2c1.8,0,2.7,1,2.7,3v5.6h-1.4v-5.6
		c0-0.5-0.1-1-0.4-1.4c-0.3-0.3-0.8-0.5-1.3-0.4c-0.4,0-0.9,0.1-1.2,0.4c-0.4,0.3-0.6,0.6-0.8,1v6h-1.4v-8.5L-1972.4-9677.5z
		 M-1961.4-9673.3c0-0.8,0.2-1.5,0.5-2.2c0.3-0.6,0.8-1.2,1.4-1.5c0.6-0.4,1.3-0.6,2-0.5c1.1,0,2.1,0.4,2.8,1.2
		c0.7,0.9,1.1,2,1.1,3.2v0.1c0,0.8-0.1,1.5-0.5,2.2c-0.3,0.6-0.8,1.2-1.4,1.5c-0.6,0.4-1.3,0.6-2,0.5c-1.1,0-2.1-0.4-2.8-1.2
		C-1961.1-9670.9-1961.4-9672.1-1961.4-9673.3L-1961.4-9673.3z M-1959.9-9673.1c0,0.8,0.2,1.6,0.7,2.3c0.7,1,2.1,1.1,3.1,0.4
		c0.1-0.1,0.3-0.2,0.4-0.4c0.5-0.7,0.7-1.6,0.6-2.4c0-0.8-0.2-1.6-0.7-2.3c-0.4-0.6-1.1-0.9-1.8-0.9c-0.7,0-1.3,0.3-1.7,0.9
		C-1959.8-9674.9-1960-9674-1959.9-9673.1L-1959.9-9673.1z M-2052-9651.6c0.1-0.5,0-1-0.3-1.4c-0.5-0.5-1.1-0.8-1.8-1
		c-0.9-0.2-1.7-0.7-2.3-1.4c-0.5-0.7-0.6-1.5-0.4-2.3c0.1-0.8,0.6-1.6,1.3-2.1c0.8-0.5,1.6-0.7,2.5-0.7c1-0.1,1.9,0.3,2.6,0.9
		c0.6,0.7,0.9,1.7,0.6,2.6l0,0h-1.5c0.2-0.6,0-1.2-0.3-1.7c-0.4-0.4-1-0.7-1.6-0.6c-0.5,0-1,0.2-1.4,0.4c-0.4,0.3-0.6,0.7-0.7,1.1
		c-0.2,0.5-0.1,1,0.2,1.4c0.5,0.5,1.1,0.8,1.8,1c0.9,0.3,1.7,0.7,2.4,1.4c0.5,0.7,0.6,1.5,0.4,2.3c-0.1,0.9-0.6,1.6-1.3,2.1
		c-0.8,0.5-1.7,0.7-2.6,0.7c-1,0-2-0.3-2.8-0.8c-0.8-0.6-1.1-1.7-0.7-2.6l0,0h1.4c-0.2,0.6-0.1,1.3,0.4,1.8c0.6,0.4,1.2,0.5,1.9,0.5
		c0.5,0,1-0.2,1.4-0.4C-2052.3-9650.8-2052.1-9651.2-2052-9651.6z M-2041.9-9652.8c-0.2,1.1-0.6,2.1-1.3,2.9c-0.6,0.7-1.5,1-2.4,1
		c-0.4,0-0.8-0.1-1.2-0.3c-0.4-0.2-0.7-0.4-0.9-0.8l-0.8,4.1h-1.5l2.3-11.7h1.3l-0.1,0.8c0.3-0.3,0.7-0.6,1.1-0.7
		c0.4-0.2,0.8-0.3,1.3-0.3c0.9,0,1.7,0.5,2,1.4c0.5,1.1,0.6,2.2,0.3,3.3L-2041.9-9652.8z M-2043.3-9652.9c0.2-0.8,0.2-1.7-0.1-2.5
		c-0.2-0.6-0.8-1-1.4-1c-0.3,0-0.7,0.1-1,0.3c-0.3,0.2-0.6,0.5-0.8,0.8l-0.8,4.1c0.1,0.3,0.3,0.6,0.6,0.8c0.3,0.2,0.7,0.3,1,0.3
		c0.6,0,1.2-0.3,1.5-0.7c0.5-0.6,0.8-1.3,0.9-2L-2043.3-9652.9z M-2035.6-9656.1l-0.8,0c-0.3,0-0.7,0.1-0.9,0.3
		c-0.3,0.2-0.6,0.5-0.8,0.8l-1.2,6h-1.5l1.7-8.5h1.4l-0.1,1.1c0.3-0.4,0.6-0.7,1-1c0.4-0.2,0.8-0.3,1.2-0.3c0.1,0,0.2,0,0.3,0
		c0.1,0,0.2,0,0.3,0.1L-2035.6-9656.1z M-2033.9-9649h-1.5l1.7-8.5h1.5L-2033.9-9649z M-2031.7-9659.6h-1.5l0.3-1.6h1.5
		L-2031.7-9659.6z M-2028.7-9656.3c0.3-0.4,0.7-0.7,1.2-1c0.4-0.2,0.9-0.3,1.4-0.3c0.7,0,1.4,0.3,1.8,0.8c0.4,0.8,0.5,1.6,0.2,2.5
		l-1.1,5.3h-1.5l1.1-5.3c0.2-0.5,0.2-1.1-0.1-1.6c-0.3-0.3-0.7-0.5-1.2-0.4c-0.4,0-0.8,0.1-1.1,0.3c-0.4,0.2-0.7,0.5-0.9,0.9
		l-1.2,6.1h-1.5l1.7-8.5h1.4L-2028.7-9656.3z M-2019-9659.5l-0.4,2h1.5l-0.2,1.1h-1.5l-1,5.1c-0.1,0.3-0.1,0.6,0,0.9
		c0.1,0.2,0.3,0.2,0.6,0.2c0.1,0,0.3,0,0.4,0c0.1,0,0.3,0,0.4-0.1l0,1.1c-0.2,0.1-0.4,0.2-0.6,0.2c-0.3,0.1-0.5,0.1-0.8,0.1
		c-0.5,0-1-0.2-1.3-0.6c-0.3-0.5-0.4-1.2-0.2-1.8l1-5.1h-1.2l0.2-1.1h1.2l0.4-2H-2019z M-2013.6-9649l2.3-11.4h3.5
		c0.9-0.1,1.7,0.2,2.4,0.8c0.6,0.6,0.8,1.5,0.5,2.3c-0.1,0.5-0.4,1-0.7,1.4c-0.4,0.4-0.8,0.7-1.4,0.9c0.6,0.1,1,0.5,1.3,1
		c0.3,0.6,0.3,1.2,0.2,1.8c-0.1,1-0.6,1.8-1.4,2.4c-0.8,0.5-1.8,0.8-2.7,0.8H-2013.6z M-2011.1-9654.3l-0.8,4.1h2.4
		c0.6,0,1.1-0.2,1.5-0.5c0.5-0.4,0.8-0.9,0.9-1.5c0.2-0.5,0.1-1.1-0.1-1.6c-0.3-0.4-0.8-0.6-1.2-0.5L-2011.1-9654.3z
		 M-2010.8-9655.5h2.3c0.5,0,0.9-0.2,1.3-0.5c0.4-0.3,0.7-0.8,0.8-1.3c0.2-0.5,0.1-1-0.2-1.4c-0.4-0.3-0.9-0.5-1.4-0.4h-2
		L-2010.8-9655.5z M-2002.7-9649h-1.5l2.4-12.2h1.5L-2002.7-9649z M-1995.6-9649c0-0.3,0-0.5,0-0.6c0-0.2,0-0.3,0.1-0.5
		c-0.3,0.4-0.8,0.7-1.2,0.9c-0.4,0.2-0.9,0.4-1.4,0.4c-0.6,0.1-1.3-0.2-1.7-0.7c-0.4-0.5-0.5-1.2-0.3-1.8c0.1-0.8,0.6-1.5,1.3-1.9
		c0.8-0.5,1.7-0.7,2.6-0.6h1.4l0.2-0.8c0.1-0.4,0.1-0.8-0.2-1.2c-0.3-0.3-0.7-0.5-1.1-0.4c-0.4,0-0.8,0.1-1.2,0.4
		c-0.3,0.2-0.5,0.5-0.6,0.9h-1.4l0,0c0.1-0.7,0.6-1.3,1.2-1.7c0.7-0.5,1.6-0.8,2.4-0.7c0.7,0,1.5,0.2,2,0.7c0.5,0.6,0.7,1.4,0.5,2.1
		l-0.8,4.1c-0.1,0.3-0.1,0.6-0.1,0.9c0,0.3,0,0.5,0,0.8L-1995.6-9649z M-1997.6-9650.1c0.5,0,0.9-0.1,1.3-0.4c0.4-0.2,0.7-0.5,1-0.9
		l0.3-1.6h-1.5c-0.5,0-1,0.2-1.4,0.5c-0.4,0.3-0.6,0.7-0.7,1.1c-0.1,0.3-0.1,0.6,0.1,0.9
		C-1998.3-9650.2-1997.9-9650.1-1997.6-9650.1L-1997.6-9650.1z M-1988.6-9650c0.5,0,0.9-0.2,1.3-0.5c0.4-0.3,0.6-0.7,0.7-1.2h1.4
		l0,0c-0.1,0.8-0.6,1.5-1.2,2c-0.7,0.5-1.5,0.8-2.3,0.8c-1,0.1-1.9-0.4-2.4-1.2c-0.5-0.9-0.7-2-0.5-3l0.1-0.3c0.1-1.1,0.6-2.2,1.4-3
		c0.7-0.8,1.8-1.2,2.8-1.2c0.8,0,1.6,0.3,2.1,0.9c0.5,0.6,0.7,1.4,0.5,2.2l0,0h-1.4c0.1-0.5,0-0.9-0.3-1.3c-0.3-0.4-0.7-0.6-1.2-0.5
		c-0.7,0-1.3,0.3-1.7,0.9c-0.4,0.6-0.7,1.4-0.8,2.1l-0.1,0.3c-0.2,0.7-0.1,1.5,0.1,2.2C-1989.8-9650.3-1989.2-9650-1988.6-9650z
		 M-1980.9-9652.9h-0.9l-0.8,3.9h-1.5l2.4-12.2h1.5l-1.4,7.1h0.9l2.7-3.3h1.8l0,0l-3.4,3.8l2.1,4.6h-1.8L-1980.9-9652.9z
		 M-1974.8-9649h-1.5l2.4-12.2h1.5L-1974.8-9649z M-1972-9653.3c0.1-1.2,0.6-2.3,1.4-3.1c0.7-0.8,1.7-1.2,2.8-1.2
		c1-0.1,1.9,0.4,2.4,1.2c0.5,0.9,0.7,2,0.5,3.1l0,0.2c-0.1,1.2-0.7,2.3-1.4,3.1c-0.7,0.8-1.7,1.2-2.8,1.2c-1,0.1-1.9-0.4-2.4-1.2
		c-0.5-0.9-0.7-2-0.5-3.1L-1972-9653.3z M-1970.5-9653.1c-0.2,0.7-0.1,1.5,0.1,2.2c0.2,0.6,0.8,0.9,1.4,0.8c0.7,0,1.3-0.3,1.6-0.9
		c0.5-0.6,0.8-1.4,0.9-2.2l0-0.2c0.2-0.7,0.1-1.5-0.1-2.2c-0.2-0.6-0.8-0.9-1.4-0.9c-0.7,0-1.3,0.3-1.6,0.9
		c-0.5,0.7-0.8,1.4-0.9,2.2L-1970.5-9653.1z M-1963.4-9653.2c0.2-1.2,0.7-2.3,1.4-3.3c0.6-0.7,1.5-1.1,2.5-1.1
		c0.4,0,0.9,0.1,1.2,0.3c0.4,0.2,0.7,0.5,0.9,0.9l0.3-1h1.3l-1.7,8.3c-0.2,1-0.6,1.9-1.4,2.6c-0.8,0.6-1.8,0.9-2.7,0.9
		c-0.4,0-0.8-0.1-1.2-0.2c-0.4-0.1-0.7-0.2-1.1-0.5l0.6-1.2c0.3,0.2,0.5,0.3,0.8,0.4c0.3,0.1,0.7,0.1,1,0.1c0.6,0,1.1-0.2,1.6-0.6
		c0.4-0.4,0.7-1,0.8-1.6l0.1-0.6c-0.6,0.6-1.3,0.9-2.1,0.9c-0.9,0-1.7-0.5-2.1-1.2c-0.5-0.9-0.6-2-0.3-3L-1963.4-9653.2z
		 M-1961.9-9653.1c-0.2,0.7-0.2,1.5,0.1,2.2c0.3,0.5,0.8,0.9,1.4,0.8c0.4,0,0.7-0.1,1-0.3c0.3-0.2,0.6-0.5,0.8-0.9l0.8-3.9
		c-0.1-0.3-0.3-0.6-0.6-0.8c-0.3-0.2-0.7-0.3-1-0.3c-0.6,0-1.2,0.3-1.6,0.9c-0.5,0.7-0.8,1.5-0.9,2.3L-1961.9-9653.1z"/>
	<path id="Trazado_607158" class="st2" d="M-2021.5-9891.6h-2.7v4.6h-1.5v-11.4h3.8c1.1-0.1,2.1,0.2,3,0.9c0.7,0.6,1.1,1.6,1,2.5
		c0,0.7-0.2,1.3-0.6,1.9c-0.4,0.5-1,1-1.6,1.2l2.7,4.8v0.1h-1.6L-2021.5-9891.6z M-2024.2-9892.8h2.3c0.6,0,1.3-0.2,1.8-0.6
		c0.4-0.4,0.7-1,0.7-1.5c0-0.6-0.2-1.2-0.6-1.6c-0.5-0.4-1.2-0.6-1.8-0.6h-2.3L-2024.2-9892.8z M-2012.6-9886.8
		c-1.1,0-2.1-0.4-2.8-1.1c-0.7-0.8-1.1-1.9-1.1-3v-0.3c0-0.8,0.2-1.5,0.5-2.2c0.3-0.6,0.8-1.2,1.3-1.5c0.6-0.4,1.2-0.6,1.9-0.6
		c1-0.1,1.9,0.3,2.6,1.1c0.7,0.9,1,2,0.9,3.1v0.6h-5.7c0,0.7,0.2,1.5,0.7,2c0.5,0.5,1.1,0.8,1.8,0.8c0.5,0,0.9-0.1,1.3-0.3
		c0.4-0.2,0.7-0.5,0.9-0.8l0.9,0.7C-2010.1-9887.4-2011.3-9886.8-2012.6-9886.8z M-2012.8-9894.4c-0.6,0-1.1,0.2-1.5,0.6
		c-0.4,0.5-0.7,1.1-0.7,1.8h4.2v-0.1c0-0.6-0.2-1.2-0.6-1.7C-2011.7-9894.2-2012.2-9894.4-2012.8-9894.4z M-2002.4-9887.8
		c-0.6,0.7-1.5,1.1-2.5,1c-0.8,0.1-1.5-0.2-2.1-0.8c-0.5-0.7-0.8-1.5-0.7-2.3v-5.5h1.4v5.5c0,1.3,0.5,1.9,1.6,1.9
		c0.9,0.1,1.8-0.4,2.2-1.2v-6.2h1.4v8.5h-1.4L-2002.4-9887.8z M-1997.4-9895.5l0,1.1c0.6-0.8,1.5-1.2,2.5-1.2c1.8,0,2.7,1,2.7,3v5.6
		h-1.4v-5.6c0-0.5-0.1-1-0.4-1.4c-0.3-0.3-0.8-0.5-1.3-0.4c-0.4,0-0.9,0.1-1.2,0.4c-0.4,0.3-0.6,0.6-0.8,1v6h-1.4v-8.5H-1997.4z
		 M-1988.4-9887h-1.4v-8.5h1.4L-1988.4-9887z M-1989.9-9897.7c0-0.2,0.1-0.4,0.2-0.6c0.2-0.2,0.4-0.3,0.6-0.2c0.2,0,0.5,0.1,0.6,0.2
		c0.1,0.2,0.2,0.4,0.2,0.6c0,0.2-0.1,0.4-0.2,0.6c-0.2,0.2-0.4,0.3-0.6,0.2c-0.2,0-0.5-0.1-0.6-0.2
		C-1989.9-9897.3-1990-9897.5-1989.9-9897.7z M-1986.5-9891.3c0-0.8,0.2-1.5,0.5-2.2c0.3-0.6,0.8-1.2,1.4-1.5c0.6-0.4,1.3-0.6,2-0.5
		c1.1,0,2.1,0.4,2.8,1.2c0.7,0.9,1.1,2,1.1,3.2v0.1c0,0.8-0.2,1.5-0.5,2.2c-0.3,0.6-0.8,1.2-1.4,1.5c-0.6,0.4-1.3,0.6-2,0.5
		c-1.1,0-2.1-0.4-2.8-1.2C-1986.1-9888.9-1986.5-9890.1-1986.5-9891.3L-1986.5-9891.3z M-1985-9891.1c0,0.8,0.2,1.6,0.7,2.3
		c0.4,0.6,1.1,0.9,1.7,0.9c0.7,0,1.3-0.3,1.8-0.9c0.5-0.7,0.7-1.6,0.6-2.4c0-0.8-0.2-1.6-0.7-2.3c-0.4-0.6-1.1-0.9-1.8-0.9
		c-0.7,0-1.3,0.3-1.7,0.9C-1984.8-9892.9-1985.1-9892-1985-9891.1L-1985-9891.1z M-1982-9899h1.8l-2.1,2.3h-1.2L-1982-9899z
		 M-1975.6-9895.5l0,1.1c0.6-0.8,1.5-1.2,2.5-1.2c1.8,0,2.7,1,2.7,3v5.6h-1.4v-5.6c0-0.5-0.1-1-0.4-1.4c-0.3-0.3-0.8-0.5-1.3-0.4
		c-0.4,0-0.9,0.1-1.2,0.4c-0.4,0.3-0.6,0.6-0.8,1v6h-1.4v-8.5H-1975.6z M-1964.5-9891.3c-0.1-1.1,0.3-2.2,0.9-3.1
		c0.6-0.8,1.5-1.2,2.4-1.2c0.9,0,1.8,0.3,2.4,1v-4.4h1.4v12h-1.3l-0.1-0.9c-0.6,0.7-1.5,1.1-2.4,1.1c-0.9,0-1.8-0.4-2.4-1.2
		c-0.7-0.9-1-2-0.9-3.1V-9891.3z M-1963.1-9891.1c0,0.8,0.2,1.6,0.6,2.2c0.4,0.5,1,0.8,1.6,0.8c0.9,0,1.7-0.4,2-1.2v-3.9
		c-0.4-0.8-1.1-1.2-2-1.2c-0.7,0-1.3,0.3-1.7,0.8C-1962.9-9892.8-1963.1-9892-1963.1-9891.1L-1963.1-9891.1z M-1953.6-9887h-1.4
		v-8.5h1.4V-9887z M-1955.1-9897.7c0-0.2,0.1-0.4,0.2-0.6c0.2-0.2,0.4-0.3,0.6-0.2c0.2,0,0.5,0.1,0.6,0.2c0.1,0.2,0.2,0.4,0.2,0.6
		c0,0.2-0.1,0.4-0.2,0.6c-0.2,0.2-0.4,0.3-0.6,0.2c-0.2,0-0.5-0.1-0.6-0.2C-1955.1-9897.3-1955.1-9897.5-1955.1-9897.7z M-1946-9887
		c-0.1-0.3-0.2-0.6-0.2-0.9c-0.6,0.7-1.5,1.1-2.4,1c-0.7,0-1.5-0.2-2.1-0.7c-0.5-0.4-0.8-1.1-0.8-1.8c0-0.8,0.3-1.6,1-2.1
		c0.8-0.5,1.8-0.8,2.8-0.7h1.4v-0.7c0-0.4-0.1-0.9-0.4-1.2c-0.4-0.3-0.8-0.5-1.3-0.4c-0.5,0-0.9,0.1-1.3,0.4
		c-0.3,0.2-0.5,0.6-0.5,0.9h-1.4c0-0.4,0.2-0.9,0.4-1.2c0.3-0.4,0.7-0.7,1.2-0.9c0.5-0.2,1.1-0.4,1.7-0.3c0.8,0,1.6,0.2,2.3,0.7
		c0.6,0.5,0.9,1.2,0.9,2v3.9c0,0.6,0.1,1.3,0.3,1.9v0.1H-1946z M-1948.4-9888.1c0.5,0,0.9-0.1,1.3-0.4c0.4-0.2,0.7-0.5,0.9-0.9v-1.7
		h-1.1c-1.8,0-2.7,0.5-2.7,1.6c0,0.4,0.1,0.8,0.5,1.1C-1949.3-9888.2-1948.9-9888.1-1948.4-9888.1z M-1938.5-9894.2
		c-0.2,0-0.5-0.1-0.7-0.1c-0.8-0.1-1.6,0.4-1.9,1.2v6h-1.4v-8.5h1.4l0,1c0.4-0.7,1.2-1.2,2-1.1c0.2,0,0.4,0,0.6,0.1L-1938.5-9894.2z
		 M-1935.6-9887h-1.4v-8.5h1.4V-9887z M-1937.1-9897.7c0-0.2,0.1-0.4,0.2-0.6c0.2-0.2,0.4-0.3,0.6-0.2c0.2,0,0.5,0.1,0.6,0.2
		c0.1,0.2,0.2,0.4,0.2,0.6c0,0.2-0.1,0.4-0.2,0.6c-0.2,0.2-0.4,0.3-0.6,0.2c-0.2,0-0.5-0.1-0.6-0.2
		C-1937.1-9897.3-1937.1-9897.5-1937.1-9897.7z M-1928-9887c-0.1-0.3-0.2-0.6-0.2-0.9c-0.6,0.7-1.5,1.1-2.4,1
		c-0.7,0-1.5-0.2-2.1-0.7c-0.5-0.4-0.8-1.1-0.8-1.8c0-0.8,0.3-1.6,1-2.1c0.8-0.5,1.8-0.8,2.8-0.7h1.4v-0.7c0-0.4-0.1-0.9-0.4-1.2
		c-0.4-0.3-0.8-0.5-1.3-0.4c-0.5,0-0.9,0.1-1.3,0.4c-0.3,0.2-0.5,0.6-0.5,0.9h-1.4c0-0.4,0.2-0.9,0.4-1.2c0.3-0.4,0.7-0.7,1.2-0.9
		c0.5-0.2,1.1-0.4,1.7-0.3c0.8,0,1.6,0.2,2.3,0.7c0.6,0.5,0.9,1.2,0.9,2v3.9c0,0.6,0.1,1.3,0.3,1.9v0.1H-1928z M-1930.4-9888.1
		c0.5,0,0.9-0.1,1.3-0.4c0.4-0.2,0.7-0.5,0.9-0.9v-1.7h-1.1c-1.8,0-2.7,0.5-2.7,1.6c0,0.4,0.1,0.8,0.5,1.1
		C-1931.3-9888.2-1930.9-9888.1-1930.4-9888.1z"/>
	<path id="Trazado_607162" class="st2" d="M-2259.7-9691.6h-2.7v4.6h-1.5v-11.4h3.8c1.1-0.1,2.1,0.2,3,0.9c0.7,0.6,1.1,1.6,1,2.5
		c0,0.7-0.2,1.3-0.6,1.9c-0.4,0.5-1,1-1.6,1.2l2.7,4.8v0.1h-1.6L-2259.7-9691.6z M-2262.3-9692.8h2.3c0.6,0,1.3-0.2,1.8-0.6
		c0.4-0.4,0.7-1,0.7-1.5c0-0.6-0.2-1.2-0.6-1.6c-0.5-0.4-1.2-0.6-1.8-0.6h-2.3V-9692.8z M-2250.7-9686.8c-1.1,0-2.1-0.4-2.8-1.1
		c-0.7-0.8-1.1-1.9-1.1-3v-0.3c0-0.8,0.2-1.5,0.5-2.2c0.3-0.6,0.8-1.2,1.3-1.5c0.6-0.4,1.2-0.6,1.9-0.6c1-0.1,1.9,0.3,2.6,1.1
		c0.7,0.9,1,2,0.9,3.1v0.6h-5.7c0,0.7,0.2,1.5,0.7,2c0.4,0.5,1.1,0.8,1.8,0.8c0.5,0,0.9-0.1,1.3-0.3c0.4-0.2,0.7-0.5,0.9-0.8
		l0.9,0.7C-2248.2-9687.4-2249.4-9686.8-2250.7-9686.8z M-2250.9-9694.4c-0.6,0-1.1,0.2-1.5,0.6c-0.4,0.5-0.7,1.1-0.7,1.8h4.2v-0.1
		c0-0.6-0.2-1.2-0.6-1.7C-2249.8-9694.2-2250.3-9694.4-2250.9-9694.4z M-2246.1-9691.3c-0.1-1.1,0.3-2.2,0.9-3.2
		c0.6-0.8,1.5-1.2,2.5-1.2c0.9,0,1.8,0.3,2.4,1l0.1-0.9h1.3v11.7h-1.4v-4c-0.6,0.6-1.5,1-2.3,0.9c-1,0-1.9-0.4-2.4-1.2
		c-0.6-0.9-1-2-0.9-3.2L-2246.1-9691.3z M-2244.6-9691.1c0,0.8,0.2,1.6,0.6,2.3c0.4,0.5,1,0.8,1.7,0.8c0.8,0,1.6-0.4,2-1.1v-4.1
		c-0.4-0.7-1.1-1.1-2-1.1c-0.7,0-1.3,0.3-1.7,0.8C-2244.5-9692.9-2244.7-9692-2244.6-9691.1L-2244.6-9691.1z M-2231.4-9687.8
		c-0.6,0.7-1.5,1.1-2.5,1c-0.8,0.1-1.5-0.2-2.1-0.8c-0.5-0.7-0.8-1.5-0.7-2.3v-5.5h1.4v5.5c0,1.3,0.5,1.9,1.6,1.9
		c0.9,0.1,1.8-0.4,2.2-1.2v-6.2h1.4v8.5h-1.4L-2231.4-9687.8z M-2224.3-9686.8c-1.1,0-2.1-0.4-2.8-1.1c-0.7-0.8-1.1-1.9-1.1-3v-0.3
		c0-0.8,0.2-1.5,0.5-2.2c0.3-0.6,0.8-1.2,1.3-1.5c0.6-0.4,1.2-0.6,1.9-0.6c1-0.1,1.9,0.3,2.6,1.1c0.7,0.9,1,2,0.9,3.1v0.6h-5.7
		c0,0.7,0.2,1.5,0.7,2c0.5,0.5,1.1,0.8,1.8,0.8c0.5,0,0.9-0.1,1.3-0.3c0.4-0.2,0.7-0.5,0.9-0.8l0.9,0.7
		C-2221.8-9687.4-2223-9686.8-2224.3-9686.8L-2224.3-9686.8z M-2224.5-9694.4c-0.6,0-1.1,0.2-1.5,0.6c-0.4,0.5-0.7,1.1-0.7,1.8h4.2
		v-0.1c0-0.6-0.2-1.2-0.6-1.7C-2223.4-9694.2-2223.9-9694.4-2224.5-9694.4L-2224.5-9694.4z M-2215.2-9694.2c-0.2,0-0.5-0.1-0.7-0.1
		c-0.8-0.1-1.6,0.4-1.9,1.2v6h-1.4v-8.5h1.4l0,1c0.4-0.7,1.2-1.2,2-1.1c0.2,0,0.4,0,0.6,0.1L-2215.2-9694.2z M-2212.4-9687h-1.4
		v-8.5h1.4V-9687z M-2213.9-9697.7c0-0.2,0.1-0.4,0.2-0.6c0.2-0.2,0.4-0.3,0.6-0.2c0.2,0,0.5,0.1,0.6,0.2c0.1,0.2,0.2,0.4,0.2,0.6
		c0,0.2-0.1,0.4-0.2,0.6c-0.2,0.2-0.4,0.3-0.6,0.2c-0.2,0-0.5-0.1-0.6-0.2C-2213.8-9697.3-2213.9-9697.5-2213.9-9697.7z
		 M-2208.7-9695.5l0,0.9c0.6-0.7,1.5-1.1,2.5-1.1c1-0.1,2,0.4,2.4,1.4c0.3-0.4,0.7-0.7,1.1-1c0.5-0.3,1-0.4,1.6-0.4
		c1.9,0,2.8,1,2.8,2.9v5.7h-1.4v-5.6c0-0.5-0.1-1-0.4-1.4c-0.4-0.3-0.9-0.5-1.4-0.4c-0.5,0-1,0.2-1.3,0.5c-0.4,0.3-0.6,0.8-0.6,1.3
		v5.6h-1.5v-5.5c0.1-0.9-0.5-1.7-1.4-1.8c-0.1,0-0.3,0-0.4,0c-0.8-0.1-1.6,0.4-1.9,1.2v6.2h-1.4v-8.5L-2208.7-9695.5z M-2194.4-9687
		h-1.4v-8.5h1.4L-2194.4-9687z M-2196-9697.7c0-0.2,0.1-0.4,0.2-0.6c0.2-0.2,0.4-0.3,0.6-0.2c0.2,0,0.5,0.1,0.6,0.2
		c0.1,0.2,0.2,0.4,0.2,0.6c0,0.2-0.1,0.4-0.2,0.6c-0.2,0.2-0.4,0.3-0.6,0.2c-0.2,0-0.5-0.1-0.6-0.2
		C-2195.9-9697.3-2196-9697.5-2196-9697.7z M-2188.6-9686.8c-1.1,0-2.1-0.4-2.8-1.1c-0.7-0.8-1.1-1.9-1.1-3v-0.3
		c0-0.8,0.2-1.5,0.5-2.2c0.3-0.6,0.8-1.2,1.3-1.5c0.6-0.4,1.2-0.6,1.9-0.6c1-0.1,1.9,0.3,2.6,1.1c0.7,0.9,1,2,0.9,3.1v0.6h-5.7
		c0,0.7,0.2,1.5,0.7,2c0.5,0.5,1.1,0.8,1.8,0.8c0.5,0,0.9-0.1,1.3-0.3c0.4-0.2,0.7-0.5,0.9-0.8l0.9,0.7
		C-2186.1-9687.4-2187.3-9686.8-2188.6-9686.8z M-2188.8-9694.4c-0.6,0-1.1,0.2-1.5,0.6c-0.4,0.5-0.7,1.1-0.7,1.8h4.2v-0.1
		c0-0.6-0.2-1.2-0.6-1.7C-2187.7-9694.2-2188.3-9694.4-2188.8-9694.4z M-2182.3-9695.5l0,1.1c0.6-0.8,1.5-1.2,2.5-1.2
		c1.8,0,2.7,1,2.7,3v5.6h-1.4v-5.6c0-0.5-0.1-1-0.4-1.4c-0.3-0.3-0.8-0.5-1.3-0.4c-0.4,0-0.9,0.1-1.2,0.4c-0.4,0.3-0.6,0.6-0.8,1v6
		h-1.4v-8.5H-2182.3z M-2172.9-9697.5v2h1.6v1.1h-1.6v5.2c0,0.3,0.1,0.5,0.2,0.8c0.2,0.2,0.5,0.3,0.7,0.3c0.2,0,0.5,0,0.7-0.1v1.2
		c-0.4,0.1-0.7,0.2-1.1,0.2c-0.6,0-1.1-0.2-1.5-0.6c-0.4-0.5-0.5-1.1-0.5-1.7v-5.2h-1.5v-1.1h1.5v-2H-2172.9z M-2170.1-9691.3
		c0-0.8,0.2-1.5,0.5-2.2c0.3-0.6,0.8-1.2,1.4-1.5c0.6-0.4,1.3-0.6,2-0.5c1.1,0,2.1,0.4,2.8,1.2c0.7,0.9,1.1,2,1.1,3.2v0.1
		c0,0.8-0.1,1.5-0.5,2.2c-0.3,0.6-0.8,1.2-1.3,1.5c-0.6,0.4-1.3,0.6-2,0.5c-1.1,0-2.1-0.4-2.8-1.2
		C-2169.8-9688.9-2170.2-9690.1-2170.1-9691.3L-2170.1-9691.3z M-2168.7-9691.1c0,0.8,0.2,1.6,0.7,2.3c0.4,0.6,1.1,0.9,1.7,0.9
		c0.7,0,1.3-0.3,1.8-0.9c0.5-0.7,0.7-1.6,0.6-2.4c0-0.8-0.2-1.6-0.7-2.3c-0.4-0.6-1.1-0.9-1.8-0.9c-0.7,0-1.3,0.3-1.7,0.8
		C-2168.5-9692.9-2168.7-9692-2168.7-9691.1L-2168.7-9691.1z M-2155.7-9689.2c0-0.4-0.1-0.7-0.4-0.9c-0.5-0.3-1-0.5-1.5-0.6
		c-0.6-0.1-1.2-0.3-1.7-0.6c-0.4-0.2-0.7-0.4-1-0.8c-0.2-0.3-0.3-0.7-0.3-1.1c0-0.7,0.3-1.3,0.9-1.8c0.6-0.5,1.4-0.8,2.2-0.7
		c0.8,0,1.7,0.2,2.3,0.7c0.6,0.5,0.9,1.2,0.9,1.9h-1.5c0-0.4-0.2-0.8-0.5-1c-0.4-0.3-0.8-0.4-1.3-0.4c-0.4,0-0.9,0.1-1.2,0.3
		c-0.3,0.2-0.5,0.5-0.4,0.9c0,0.3,0.1,0.6,0.4,0.8c0.5,0.2,1,0.4,1.5,0.5c0.6,0.1,1.2,0.3,1.8,0.6c0.4,0.2,0.7,0.5,1,0.8
		c0.2,0.3,0.3,0.7,0.3,1.2c0,0.7-0.3,1.4-0.9,1.8c-0.7,0.5-1.5,0.7-2.4,0.7c-0.6,0-1.2-0.1-1.8-0.4c-0.5-0.2-0.9-0.6-1.2-1
		c-0.3-0.4-0.4-0.9-0.4-1.4h1.4c0,0.5,0.2,0.9,0.6,1.2c0.4,0.3,0.9,0.5,1.4,0.4c0.5,0,0.9-0.1,1.3-0.3
		C-2155.9-9688.5-2155.7-9688.9-2155.7-9689.2z M-2253.1-9671.3c-0.1-1.1,0.3-2.2,0.9-3.1c0.6-0.8,1.5-1.2,2.4-1.2
		c0.9,0,1.8,0.3,2.4,1v-4.4h1.4v12h-1.3l-0.1-0.9c-0.6,0.7-1.5,1.1-2.4,1.1c-0.9,0-1.8-0.4-2.4-1.2c-0.7-0.9-1-2-0.9-3.1V-9671.3z
		 M-2251.7-9671.1c0,0.8,0.2,1.6,0.6,2.2c0.4,0.5,1,0.8,1.6,0.8c0.9,0,1.7-0.4,2-1.2v-3.9c-0.4-0.8-1.1-1.2-2-1.2
		c-0.7,0-1.3,0.3-1.7,0.8C-2251.5-9672.8-2251.7-9672-2251.7-9671.1L-2251.7-9671.1z M-2240.3-9666.9c-1.1,0-2.1-0.4-2.8-1.1
		c-0.7-0.8-1.1-1.9-1.1-3v-0.3c0-0.8,0.2-1.5,0.5-2.2c0.3-0.6,0.8-1.2,1.3-1.5c0.6-0.4,1.2-0.6,1.9-0.6c1-0.1,1.9,0.3,2.6,1.1
		c0.7,0.9,1,2,0.9,3.1v0.6h-5.7c0,0.7,0.2,1.5,0.7,2c0.5,0.5,1.1,0.8,1.8,0.8c0.5,0,0.9-0.1,1.3-0.3c0.4-0.2,0.7-0.5,0.9-0.8
		l0.9,0.7C-2237.8-9667.4-2239-9666.8-2240.3-9666.9L-2240.3-9666.9z M-2240.4-9674.4c-0.6,0-1.1,0.2-1.5,0.6
		c-0.4,0.5-0.7,1.1-0.7,1.8h4.2v-0.1c0-0.6-0.2-1.2-0.6-1.7C-2239.4-9674.2-2239.9-9674.4-2240.4-9674.4L-2240.4-9674.4z
		 M-2233.7-9667h-1.4v-12h1.4V-9667z M-2220.3-9671.1c0.1,1.1-0.3,2.2-0.9,3.1c-0.6,0.8-1.4,1.2-2.4,1.2c-0.9,0-1.8-0.3-2.4-1v4.1
		h-1.4v-11.7h1.3l0.1,0.9c0.6-0.7,1.5-1.1,2.5-1.1c0.9,0,1.8,0.4,2.4,1.1c0.6,0.9,1,2.1,0.9,3.2L-2220.3-9671.1z M-2221.7-9671.3
		c0-0.8-0.2-1.6-0.6-2.3c-0.4-0.5-1-0.9-1.7-0.8c-0.8,0-1.6,0.4-2,1.2v4c0.4,0.7,1.2,1.2,2,1.2c0.7,0,1.3-0.3,1.7-0.8
		C-2221.9-9669.6-2221.7-9670.4-2221.7-9671.3L-2221.7-9671.3z M-2214.4-9674.2c-0.2,0-0.5-0.1-0.7-0.1c-0.8-0.1-1.6,0.4-1.9,1.2v6
		h-1.4v-8.5h1.4l0,1c0.4-0.7,1.2-1.2,2-1.1c0.2,0,0.4,0,0.6,0.1V-9674.2z M-2213.6-9671.3c0-0.8,0.2-1.5,0.5-2.2
		c0.3-0.6,0.8-1.2,1.4-1.5c0.6-0.4,1.3-0.6,2-0.5c1.1,0,2.1,0.4,2.8,1.2c0.7,0.9,1.1,2,1.1,3.2v0.1c0,0.8-0.1,1.5-0.5,2.2
		c-0.3,0.6-0.8,1.2-1.4,1.5c-0.6,0.4-1.3,0.6-2,0.5c-1.1,0-2.1-0.4-2.8-1.2C-2213.3-9668.9-2213.6-9670.1-2213.6-9671.3
		L-2213.6-9671.3z M-2212.1-9671.1c0,0.8,0.2,1.6,0.7,2.3c0.4,0.6,1.1,0.9,1.7,0.9c0.7,0,1.3-0.3,1.8-0.9c0.5-0.7,0.7-1.6,0.6-2.4
		c0-0.8-0.2-1.6-0.7-2.3c-0.4-0.6-1.1-0.9-1.8-0.9c-0.7,0-1.3,0.3-1.7,0.9C-2212-9672.9-2212.2-9672-2212.1-9671.1L-2212.1-9671.1z
		 M-2204.4-9671.3c-0.1-1.1,0.3-2.2,0.9-3.1c0.6-0.8,1.5-1.2,2.4-1.2c0.9,0,1.8,0.3,2.4,1v-4.4h1.4v12h-1.3l-0.1-0.9
		c-0.6,0.7-1.5,1.1-2.4,1.1c-0.9,0-1.8-0.4-2.4-1.2c-0.7-0.9-1-2-0.9-3.1L-2204.4-9671.3z M-2203-9671.1c0,0.8,0.2,1.6,0.6,2.2
		c0.4,0.5,1,0.8,1.6,0.8c0.9,0,1.7-0.5,2-1.2v-3.9c-0.4-0.8-1.1-1.2-2-1.2c-0.7,0-1.3,0.3-1.7,0.8
		C-2202.8-9672.8-2203-9672-2203-9671.1L-2203-9671.1z M-2189.8-9667.8c-0.6,0.7-1.5,1.1-2.5,1c-0.8,0.1-1.5-0.2-2.1-0.8
		c-0.5-0.7-0.8-1.5-0.7-2.3v-5.5h1.5v5.5c0,1.3,0.5,1.9,1.6,1.9c0.9,0.1,1.8-0.4,2.2-1.2v-6.2h1.4v8.5h-1.4L-2189.8-9667.8z
		 M-2182.8-9668c0.5,0,1-0.2,1.4-0.5c0.4-0.3,0.6-0.7,0.6-1.2h1.4c0,0.5-0.2,1-0.5,1.4c-0.3,0.4-0.7,0.8-1.2,1
		c-0.5,0.3-1.1,0.4-1.6,0.4c-1,0-2-0.4-2.7-1.2c-0.7-0.9-1.1-2-1-3.2v-0.2c0-0.8,0.1-1.5,0.5-2.2c0.3-0.6,0.7-1.1,1.3-1.5
		c0.6-0.4,1.3-0.5,2-0.5c0.9,0,1.7,0.3,2.4,0.9c0.6,0.6,1,1.4,1,2.2h-1.4c0-0.5-0.2-1-0.6-1.3c-0.4-0.4-0.9-0.5-1.4-0.5
		c-0.7,0-1.3,0.3-1.7,0.8c-0.4,0.7-0.7,1.5-0.6,2.3v0.3c-0.1,0.8,0.2,1.6,0.6,2.2C-2184.2-9668.3-2183.5-9668-2182.8-9668
		L-2182.8-9668z M-2175.9-9677.5v2h1.6v1.1h-1.6v5.2c0,0.3,0.1,0.5,0.2,0.8c0.2,0.2,0.5,0.3,0.7,0.3c0.2,0,0.5,0,0.7-0.1v1.2
		c-0.4,0.1-0.7,0.2-1.1,0.2c-0.6,0-1.1-0.2-1.5-0.6c-0.4-0.5-0.5-1.1-0.5-1.7v-5.2h-1.5v-1.1h1.5v-2H-2175.9z M-2173.2-9671.3
		c0-0.8,0.2-1.5,0.5-2.2c0.3-0.6,0.8-1.2,1.4-1.5c0.6-0.4,1.3-0.6,2-0.5c1.1,0,2.1,0.4,2.8,1.2c0.7,0.9,1.1,2,1.1,3.2v0.1
		c0,0.8-0.1,1.5-0.5,2.2c-0.3,0.6-0.8,1.2-1.4,1.5c-0.6,0.4-1.3,0.6-2,0.5c-1.1,0-2.1-0.4-2.8-1.2
		C-2172.8-9668.9-2173.2-9670.1-2173.2-9671.3L-2173.2-9671.3z M-2171.7-9671.1c0,0.8,0.2,1.6,0.7,2.3c0.7,1,2.1,1.1,3.1,0.4
		c0.1-0.1,0.3-0.2,0.4-0.4c0.5-0.7,0.7-1.6,0.6-2.4c0-0.8-0.2-1.6-0.7-2.3c-0.4-0.6-1.1-0.9-1.8-0.9c-0.7,0-1.3,0.3-1.7,0.9
		C-2171.5-9672.9-2171.8-9672-2171.7-9671.1L-2171.7-9671.1z M-2243.7-9651.3c0-0.8,0.2-1.5,0.5-2.2c0.3-0.6,0.8-1.2,1.4-1.5
		c0.6-0.4,1.3-0.6,2-0.5c1.1,0,2.1,0.4,2.8,1.2c0.7,0.9,1.1,2,1.1,3.2v0.1c0,0.8-0.1,1.5-0.5,2.2c-0.3,0.6-0.8,1.2-1.4,1.5
		c-0.6,0.4-1.3,0.6-2,0.5c-1.1,0-2.1-0.4-2.8-1.2C-2243.4-9648.9-2243.7-9650.1-2243.7-9651.3L-2243.7-9651.3z M-2242.2-9651.1
		c0,0.8,0.2,1.6,0.7,2.3c0.4,0.6,1.1,0.9,1.7,0.9c0.7,0,1.3-0.3,1.8-0.9c0.5-0.7,0.7-1.6,0.6-2.4c0-0.8-0.2-1.6-0.7-2.3
		c-0.4-0.6-1.1-0.9-1.8-0.9c-0.7,0-1.3,0.3-1.7,0.9C-2242-9652.9-2242.3-9652-2242.2-9651.1L-2242.2-9651.1z M-2230-9647v-11.4h3.7
		c1-0.1,2,0.2,2.8,0.8c0.6,0.6,1,1.4,0.9,2.3c0,0.5-0.2,1-0.5,1.4c-0.3,0.4-0.7,0.8-1.2,0.9c0.6,0.2,1.1,0.5,1.5,1
		c0.4,0.5,0.6,1.1,0.5,1.7c0,0.9-0.3,1.8-1,2.4c-0.8,0.6-1.8,0.9-2.8,0.9H-2230z M-2228.5-9652.3v4.1h2.5c0.6,0,1.2-0.2,1.7-0.5
		c0.4-0.4,0.6-0.9,0.6-1.5c0-1.4-0.7-2.1-2.2-2.1L-2228.5-9652.3z M-2228.5-9653.5h2.3c0.6,0,1.1-0.1,1.6-0.5
		c0.4-0.3,0.6-0.8,0.6-1.3c0-0.5-0.2-1-0.5-1.4c-0.5-0.3-1.1-0.5-1.7-0.4h-2.2V-9653.5z M-2218.7-9647h-1.4v-12h1.4V-9647z
		 M-2211.1-9647c-0.1-0.3-0.2-0.6-0.2-0.9c-0.6,0.7-1.5,1.1-2.4,1c-0.7,0-1.5-0.2-2.1-0.7c-0.5-0.4-0.8-1.1-0.8-1.8
		c0-0.8,0.3-1.6,1-2.1c0.8-0.5,1.8-0.8,2.8-0.7h1.4v-0.7c0-0.4-0.1-0.9-0.5-1.2c-0.4-0.3-0.8-0.5-1.3-0.4c-0.5,0-0.9,0.1-1.3,0.4
		c-0.3,0.2-0.5,0.6-0.5,0.9h-1.5c0-0.4,0.2-0.9,0.4-1.2c0.3-0.4,0.7-0.7,1.2-0.9c0.5-0.2,1.1-0.4,1.7-0.3c0.8,0,1.6,0.2,2.3,0.7
		c0.6,0.5,0.9,1.2,0.9,2v3.9c0,0.6,0.1,1.3,0.3,1.9v0.1H-2211.1z M-2213.5-9648.1c0.5,0,0.9-0.1,1.3-0.4c0.4-0.2,0.7-0.5,0.9-0.9
		v-1.7h-1.1c-1.8,0-2.7,0.5-2.7,1.6c0,0.4,0.1,0.8,0.5,1.1C-2214.4-9648.2-2214-9648.1-2213.5-9648.1L-2213.5-9648.1z M-2204.3-9648
		c0.5,0,1-0.2,1.4-0.5c0.4-0.3,0.6-0.7,0.6-1.2h1.4c0,0.5-0.2,1-0.5,1.4c-0.3,0.4-0.7,0.8-1.2,1c-0.5,0.3-1.1,0.4-1.6,0.4
		c-1,0-2.1-0.4-2.8-1.2c-0.7-0.9-1.1-2-1-3.1v-0.2c0-0.8,0.1-1.5,0.5-2.2c0.3-0.6,0.7-1.1,1.3-1.5c0.6-0.4,1.3-0.5,2-0.5
		c0.9,0,1.7,0.3,2.4,0.9c0.6,0.6,1,1.4,1,2.2h-1.4c0-0.5-0.2-1-0.6-1.3c-0.4-0.4-0.9-0.5-1.4-0.5c-0.7,0-1.3,0.3-1.7,0.8
		c-0.4,0.7-0.7,1.5-0.6,2.3v0.3c-0.1,0.8,0.2,1.6,0.6,2.2C-2205.6-9648.3-2204.9-9648-2204.3-9648L-2204.3-9648z M-2196.9-9650.9
		l-0.9,0.9v3h-1.4v-12h1.4v7.3l0.8-0.9l2.6-2.8h1.8l-3.3,3.5l3.7,4.9h-1.7L-2196.9-9650.9z M-2189.6-9647h-1.4v-12h1.4V-9647z
		 M-2187.7-9651.3c0-0.8,0.2-1.5,0.5-2.2c0.3-0.6,0.8-1.2,1.4-1.5c0.6-0.4,1.3-0.6,2-0.5c1.1,0,2.1,0.4,2.8,1.2
		c0.7,0.9,1.1,2,1.1,3.2v0.1c0,0.8-0.1,1.5-0.5,2.2c-0.3,0.6-0.8,1.2-1.4,1.5c-0.6,0.4-1.3,0.6-2,0.5c-1.1,0-2.1-0.4-2.8-1.2
		C-2187.4-9648.9-2187.7-9650.1-2187.7-9651.3L-2187.7-9651.3z M-2186.2-9651.1c0,0.8,0.2,1.6,0.7,2.3c0.7,1,2.1,1.1,3.1,0.4
		c0.1-0.1,0.3-0.2,0.4-0.4c0.5-0.7,0.7-1.6,0.6-2.4c0-0.8-0.2-1.6-0.7-2.3c-0.4-0.6-1.1-0.9-1.8-0.9c-0.7,0-1.3,0.3-1.7,0.9
		C-2186-9652.9-2186.3-9652-2186.2-9651.1L-2186.2-9651.1z M-2178.5-9651.3c-0.1-1.1,0.3-2.2,0.9-3.1c1.1-1.4,3.1-1.6,4.4-0.5
		c0.1,0.1,0.3,0.2,0.4,0.4l0.1-0.9h1.3v8.2c0.1,1-0.3,1.9-1,2.6c-0.7,0.7-1.7,1-2.6,0.9c-0.6,0-1.2-0.1-1.8-0.4
		c-0.5-0.2-1-0.6-1.3-1.1l0.7-0.9c0.5,0.7,1.4,1.1,2.3,1.1c0.6,0,1.2-0.2,1.6-0.6c0.4-0.5,0.6-1.1,0.6-1.7v-0.7
		c-0.6,0.7-1.5,1-2.4,1c-0.9,0-1.8-0.4-2.4-1.2C-2178.3-9649-2178.6-9650.1-2178.5-9651.3L-2178.5-9651.3z M-2177.1-9651.1
		c0,0.8,0.2,1.6,0.6,2.2c0.4,0.5,1,0.8,1.6,0.8c0.9,0,1.7-0.5,2-1.2v-3.9c-0.4-0.8-1.1-1.2-2-1.2c-0.7,0-1.3,0.3-1.6,0.8
		C-2176.9-9652.8-2177.1-9652-2177.1-9651.1L-2177.1-9651.1z"/>
	<path id="Trazado_607159" class="st5" d="M-2256.8-9927.3l-0.9,4.3h-1.9l2.3-11.4h4.2c0.9-0.1,1.9,0.3,2.5,1
		c0.6,0.7,0.8,1.7,0.6,2.5c-0.2,1-0.7,2-1.5,2.6c-0.9,0.6-1.9,1-3,0.9H-2256.8z M-2256.5-9928.8h2.3c0.6,0,1.1-0.2,1.5-0.6
		c0.4-0.4,0.7-0.9,0.8-1.4c0.1-0.5,0.1-1-0.2-1.5c-0.3-0.4-0.8-0.6-1.3-0.6h-2.3L-2256.5-9928.8z M-2244.6-9929.7l-0.9,0
		c-0.3,0-0.6,0.1-0.8,0.2c-0.3,0.2-0.5,0.4-0.6,0.7l-1.2,5.9h-1.9l1.7-8.5h1.7l-0.1,1.1c0.2-0.4,0.6-0.7,0.9-0.9
		c0.3-0.2,0.7-0.3,1.1-0.3c0.1,0,0.2,0,0.3,0c0.1,0,0.2,0,0.3,0.1L-2244.6-9929.7z M-2244.2-9927.3c0.1-1.2,0.7-2.3,1.5-3.1
		c0.7-0.8,1.8-1.2,2.8-1.2c1-0.1,1.9,0.4,2.4,1.2c0.6,0.9,0.7,2,0.5,3.1l0,0.2c-0.1,1.2-0.7,2.3-1.5,3.1c-0.7,0.8-1.8,1.2-2.8,1.2
		c-1,0.1-1.9-0.4-2.4-1.2c-0.6-0.9-0.7-2-0.5-3.1L-2244.2-9927.3z M-2242.4-9927.1c-0.2,0.7-0.1,1.4,0.1,2c0.2,0.5,0.7,0.8,1.2,0.7
		c0.6,0,1.1-0.3,1.4-0.8c0.4-0.6,0.7-1.3,0.8-2l0-0.2c0.1-0.7,0.1-1.4-0.1-2c-0.2-0.5-0.7-0.8-1.2-0.8c-0.6,0-1.1,0.3-1.4,0.8
		c-0.4,0.6-0.7,1.3-0.8,2L-2242.4-9927.1z M-2235.7-9927.3c0.2-1.2,0.6-2.3,1.4-3.2c0.6-0.7,1.5-1.1,2.4-1.1c0.4,0,0.8,0.1,1.1,0.3
		c0.3,0.2,0.6,0.4,0.8,0.7l0.9-4.6h1.9l-2.4,12.2h-1.6l0-0.8c-0.3,0.3-0.6,0.6-1,0.7c-0.4,0.2-0.8,0.3-1.2,0.3c-0.9,0-1.7-0.5-2-1.2
		c-0.5-0.9-0.6-2-0.3-3L-2235.7-9927.3z M-2233.8-9927.1c-0.2,0.7-0.2,1.3,0,2c0.2,0.5,0.7,0.8,1.2,0.7c0.3,0,0.6-0.1,0.9-0.3
		c0.3-0.2,0.5-0.5,0.7-0.8l0.7-3.7c-0.1-0.3-0.3-0.5-0.5-0.6c-0.3-0.2-0.6-0.2-0.9-0.2c-0.6,0-1.1,0.3-1.4,0.8
		c-0.4,0.6-0.7,1.3-0.8,2L-2233.8-9927.1z M-2222.7-9923l0.1-1.1c-0.3,0.4-0.7,0.7-1.1,0.9c-0.4,0.2-0.9,0.3-1.4,0.3
		c-0.7,0-1.4-0.3-1.8-0.9c-0.4-0.8-0.5-1.8-0.2-2.7l1-5.1h1.9l-1,5.1c-0.2,0.5-0.2,1.1,0,1.6c0.2,0.3,0.5,0.5,0.9,0.4
		c0.4,0,0.7-0.1,1.1-0.3c0.3-0.2,0.6-0.4,0.8-0.7l1.2-6.1h1.9l-1.7,8.5H-2222.7z M-2215.5-9924.4c0.4,0,0.8-0.1,1.1-0.4
		c0.3-0.3,0.5-0.6,0.6-1h1.7l0,0c-0.1,0.8-0.6,1.6-1.2,2.1c-0.7,0.5-1.5,0.8-2.4,0.8c-1,0.1-1.9-0.4-2.5-1.2c-0.5-0.9-0.7-2-0.5-3
		l0-0.3c0.1-1.1,0.6-2.2,1.4-3.1c0.7-0.8,1.8-1.2,2.9-1.2c0.8,0,1.6,0.3,2.2,0.9c0.5,0.6,0.7,1.5,0.5,2.3l0,0h-1.7
		c0.1-0.4,0-0.8-0.2-1.2c-0.2-0.3-0.6-0.5-1-0.5c-0.6,0-1.1,0.3-1.5,0.8c-0.4,0.6-0.6,1.2-0.7,1.9l0,0.3c-0.1,0.7-0.1,1.3,0.1,2
		C-2216.6-9924.6-2216.1-9924.3-2215.5-9924.4L-2215.5-9924.4z M-2206.8-9933.5l-0.4,2.1h1.4l-0.3,1.4h-1.4l-0.9,4.7
		c-0.1,0.2-0.1,0.5,0,0.8c0.1,0.1,0.3,0.2,0.5,0.2c0.1,0,0.3,0,0.4,0c0.1,0,0.3,0,0.4-0.1l-0.1,1.4c-0.2,0.1-0.5,0.2-0.7,0.2
		c-0.3,0-0.5,0.1-0.8,0.1c-0.5,0-1.1-0.2-1.4-0.6c-0.3-0.6-0.4-1.3-0.2-1.9l0.9-4.7h-1.2l0.3-1.4h1.2l0.4-2.1L-2206.8-9933.5z
		 M-2205.6-9927.3c0.1-1.2,0.7-2.3,1.5-3.1c0.7-0.8,1.8-1.2,2.8-1.2c1-0.1,1.9,0.4,2.4,1.2c0.6,0.9,0.7,2,0.5,3.1l0,0.2
		c-0.1,1.2-0.7,2.3-1.5,3.1c-0.7,0.8-1.8,1.2-2.8,1.2c-1,0.1-1.9-0.4-2.4-1.2c-0.6-0.9-0.7-2-0.5-3.1L-2205.6-9927.3z
		 M-2203.7-9927.1c-0.2,0.7-0.1,1.4,0.1,2c0.2,0.5,0.7,0.8,1.2,0.7c0.6,0,1.1-0.3,1.4-0.8c0.4-0.6,0.7-1.3,0.8-2l0-0.2
		c0.1-0.7,0.1-1.4-0.1-2c-0.2-0.5-0.7-0.8-1.2-0.8c-0.6,0-1.1,0.3-1.4,0.8c-0.4,0.6-0.7,1.3-0.8,2L-2203.7-9927.1z M-2184.3-9927.6
		c-0.2,1.3-0.9,2.6-1.8,3.5c-0.9,0.8-2.1,1.3-3.3,1.3c-1.1,0-2.2-0.5-2.9-1.4c-0.7-1-1-2.3-0.7-3.4l0.4-2c0.2-1.3,0.8-2.6,1.8-3.5
		c0.9-0.8,2-1.3,3.2-1.3c1.2,0,2.3,0.5,3,1.4c0.8,1,1,2.3,0.7,3.4L-2184.3-9927.6z M-2185.7-9929.7c0.2-0.8,0.1-1.7-0.3-2.4
		c-0.4-0.6-1.1-1-1.8-0.9c-0.7,0-1.4,0.3-1.8,0.9c-0.5,0.7-0.9,1.5-1,2.3l-0.4,2.1c-0.2,0.8-0.1,1.7,0.3,2.4c0.4,0.6,1,1,1.7,0.9
		c0.7,0,1.4-0.3,1.9-0.9c0.6-0.7,0.9-1.5,1.1-2.3L-2185.7-9929.7z M-2176-9925.6L-2176-9925.6l2.4-5.8h1.8l-3.8,8.5h-1.5l-0.5-5.6
		l0,0l-2.7,5.6h-1.5l-0.5-8.5h1.8l0.1,5.7l0,0l2.7-5.8h1.4L-2176-9925.6z M-2169-9930.3c0.3-0.4,0.7-0.7,1.2-0.9
		c0.4-0.2,0.9-0.3,1.4-0.3c0.7,0,1.3,0.3,1.7,0.8c0.4,0.8,0.5,1.7,0.2,2.5l-1.1,5.3h-1.9l1.1-5.3c0.1-0.5,0.1-0.9-0.1-1.4
		c-0.3-0.3-0.6-0.4-1-0.4c-0.3,0-0.6,0.1-0.9,0.2c-0.3,0.2-0.6,0.4-0.8,0.7l-1.2,6.1h-1.9l1.7-8.5h1.7L-2169-9930.3z
		 M-2160.2-9922.8c-1,0.1-1.9-0.4-2.5-1.2c-0.6-0.9-0.8-2-0.5-3l0-0.3c0.1-1.2,0.7-2.2,1.5-3.1c0.7-0.7,1.7-1.2,2.7-1.2
		c0.9-0.1,1.7,0.3,2.3,1c0.5,0.8,0.7,1.8,0.4,2.8l-0.2,1.1h-4.9c-0.1,0.6,0,1.2,0.3,1.7c0.3,0.4,0.8,0.7,1.3,0.6
		c0.4,0,0.8-0.1,1.2-0.2c0.4-0.1,0.7-0.3,1.1-0.5l0.4,1.2c-0.4,0.3-0.8,0.5-1.3,0.7C-2159.1-9922.9-2159.6-9922.8-2160.2-9922.8z
		 M-2159.3-9930.1c-0.4,0-0.8,0.2-1.1,0.6c-0.3,0.4-0.6,0.9-0.7,1.4l0,0h2.9l0-0.2c0.1-0.4,0-0.9-0.1-1.3
		C-2158.5-9929.9-2158.9-9930.1-2159.3-9930.1L-2159.3-9930.1z M-2150.4-9929.7l-0.9,0c-0.3,0-0.6,0.1-0.8,0.2
		c-0.3,0.2-0.5,0.4-0.6,0.7l-1.2,5.9h-1.9l1.7-8.5h1.7l-0.1,1.1c0.2-0.4,0.6-0.7,0.9-0.9c0.3-0.2,0.7-0.3,1.1-0.3c0.1,0,0.2,0,0.3,0
		c0.1,0,0.2,0,0.3,0.1L-2150.4-9929.7z"/>
	<path id="Trazado_607160" class="st5" d="M-2016.5-9925.7c0.1-0.4,0-0.9-0.2-1.3c-0.5-0.4-1-0.7-1.6-0.9c-0.9-0.3-1.8-0.8-2.5-1.4
		c-0.5-0.7-0.7-1.5-0.5-2.3c0.1-0.9,0.6-1.6,1.4-2.1c0.8-0.5,1.7-0.8,2.7-0.7c1-0.1,1.9,0.3,2.7,0.9c0.6,0.7,0.9,1.7,0.6,2.6l0,0
		h-1.8c0.1-0.5,0-1-0.3-1.5c-0.4-0.4-0.9-0.6-1.4-0.6c-0.4,0-0.9,0.1-1.2,0.4c-0.3,0.2-0.6,0.6-0.7,0.9c-0.1,0.4-0.1,0.9,0.2,1.2
		c0.5,0.4,1.1,0.7,1.8,0.9c0.9,0.3,1.7,0.8,2.4,1.4c0.5,0.7,0.7,1.5,0.4,2.3c-0.1,0.9-0.6,1.7-1.4,2.2c-0.8,0.5-1.8,0.7-2.7,0.7
		c-1,0-2-0.3-2.8-0.9c-0.8-0.6-1.1-1.7-0.8-2.6l0,0h1.8c-0.2,0.6,0,1.2,0.4,1.6c0.5,0.3,1.1,0.5,1.7,0.4c0.4,0,0.9-0.1,1.3-0.4
		C-2016.8-9925-2016.6-9925.3-2016.5-9925.7z M-2010.1-9924.4c0.4,0,0.8-0.1,1.1-0.4c0.3-0.3,0.5-0.6,0.6-1h1.7l0,0
		c-0.1,0.8-0.6,1.6-1.2,2.1c-0.7,0.5-1.5,0.8-2.4,0.8c-1,0.1-1.9-0.4-2.5-1.2c-0.5-0.9-0.7-2-0.5-3l0-0.3c0.1-1.1,0.6-2.2,1.4-3.1
		c0.7-0.8,1.8-1.2,2.9-1.2c0.8,0,1.6,0.3,2.2,0.9c0.5,0.6,0.7,1.5,0.5,2.3l0,0h-1.7c0.1-0.4,0-0.8-0.2-1.2c-0.2-0.3-0.6-0.5-1-0.5
		c-0.6,0-1.1,0.3-1.5,0.8c-0.4,0.6-0.6,1.2-0.7,1.9l0,0.3c-0.1,0.7-0.1,1.3,0.1,2C-2011.2-9924.6-2010.7-9924.3-2010.1-9924.4z
		 M-2000.5-9929.7l-0.9,0c-0.3,0-0.6,0.1-0.8,0.2c-0.3,0.2-0.5,0.4-0.6,0.7l-1.2,5.9h-1.9l1.7-8.5h1.7l-0.1,1.1
		c0.2-0.4,0.6-0.7,0.9-0.9c0.3-0.2,0.7-0.3,1.1-0.3c0.1,0,0.2,0,0.3,0c0.1,0,0.2,0,0.3,0.1L-2000.5-9929.7z M-1995.5-9923l0.1-1.1
		c-0.3,0.4-0.7,0.7-1.1,0.9c-0.4,0.2-0.9,0.3-1.4,0.3c-0.7,0-1.4-0.3-1.8-0.9c-0.4-0.8-0.5-1.8-0.2-2.7l1-5.1h1.9l-1,5.1
		c-0.2,0.5-0.2,1.1,0,1.6c0.2,0.3,0.5,0.5,0.9,0.4c0.4,0,0.7-0.1,1.1-0.3c0.3-0.2,0.6-0.4,0.8-0.7l1.2-6.1h1.9l-1.7,8.5H-1995.5z
		 M-1988.6-9930.5c0.3-0.4,0.7-0.7,1.1-0.9c0.4-0.2,0.9-0.3,1.4-0.3c0.4,0,0.8,0.1,1.2,0.4c0.3,0.3,0.6,0.7,0.6,1.1
		c0.3-0.4,0.7-0.8,1.2-1.1c0.4-0.3,1-0.4,1.5-0.4c0.7,0,1.3,0.3,1.7,0.9c0.4,0.8,0.5,1.8,0.2,2.6l-1,5.1h-1.9l1-5.1
		c0.2-0.5,0.2-1,0-1.6c-0.2-0.3-0.6-0.4-0.9-0.4c-0.3,0-0.7,0.1-0.9,0.3c-0.3,0.2-0.6,0.5-0.7,0.9c0,0.1,0,0.2,0,0.2
		c0,0,0,0.1,0,0.1l-1.1,5.5h-1.9l1-5.1c0.2-0.5,0.1-1,0-1.5c-0.2-0.3-0.6-0.5-0.9-0.4c-0.3,0-0.6,0.1-0.9,0.2
		c-0.3,0.2-0.5,0.4-0.7,0.6l-1.2,6.2h-1.9l1.7-8.5h1.7L-1988.6-9930.5z M-1970.2-9934.4l1.2,8.7l0,0l4.7-8.7h2.4l-2.3,11.4h-1.9
		l0.8-3.9l1.1-4.7l0,0l-4.8,8.6h-1.2l-1.3-8.6h-0.1l-0.8,4.7l-0.8,3.9h-1.9l2.3-11.4H-1970.2z M-1957.3-9923c0-0.2,0-0.3,0-0.5
		c0-0.2,0-0.3,0-0.5c-0.3,0.3-0.7,0.6-1.1,0.9c-0.4,0.2-0.8,0.3-1.3,0.3c-0.6,0-1.3-0.2-1.7-0.7c-0.4-0.5-0.5-1.2-0.3-1.8
		c0.1-0.8,0.6-1.5,1.3-1.9c0.8-0.5,1.7-0.7,2.7-0.6h1.2l0.1-0.7c0.1-0.4,0.1-0.7-0.1-1.1c-0.2-0.3-0.6-0.4-0.9-0.4
		c-0.4,0-0.7,0.1-1,0.3c-0.3,0.2-0.5,0.5-0.5,0.8h-1.8l0,0c0.1-0.7,0.6-1.4,1.2-1.8c0.7-0.5,1.6-0.8,2.5-0.7c0.8,0,1.5,0.2,2,0.8
		c0.5,0.6,0.7,1.4,0.5,2.1l-0.8,3.8c-0.1,0.3-0.1,0.7-0.1,1c0,0.3,0,0.6,0,0.9H-1957.3z M-1959-9924.4c0.4,0,0.7-0.1,1.1-0.3
		c0.3-0.2,0.6-0.4,0.9-0.7l0.3-1.5h-1.3c-0.4,0-0.8,0.1-1.2,0.4c-0.3,0.2-0.5,0.6-0.6,1c-0.1,0.3,0,0.6,0.1,0.8
		C-1959.6-9924.4-1959.3-9924.3-1959-9924.4z M-1948.9-9925.3c0.1-0.3,0-0.5-0.2-0.7c-0.3-0.3-0.8-0.4-1.2-0.5
		c-0.7-0.1-1.4-0.4-2-0.9c-0.4-0.4-0.6-1-0.5-1.6c0.1-0.7,0.5-1.4,1.1-1.8c0.7-0.5,1.5-0.8,2.3-0.7c0.8,0,1.6,0.2,2.2,0.8
		c0.5,0.5,0.7,1.2,0.5,1.9l0,0h-1.8c0.1-0.3,0-0.6-0.2-0.9c-0.2-0.3-0.6-0.4-0.9-0.4c-0.3,0-0.7,0.1-1,0.3c-0.2,0.2-0.4,0.5-0.5,0.8
		c-0.1,0.3,0,0.5,0.2,0.7c0.3,0.2,0.7,0.4,1.2,0.5c0.8,0.1,1.5,0.4,2.1,0.9c0.4,0.4,0.6,1,0.5,1.6c-0.1,0.8-0.5,1.4-1.2,1.9
		c-0.7,0.5-1.6,0.7-2.5,0.7c-0.8,0.1-1.7-0.3-2.3-0.9c-0.5-0.5-0.7-1.2-0.6-1.9l0,0h1.7c-0.1,0.4,0,0.8,0.3,1.1
		c0.3,0.2,0.7,0.4,1,0.3c0.4,0,0.7-0.1,1-0.3C-1949.2-9924.7-1949-9925-1948.9-9925.3z M-1941.5-9933.5l-0.4,2.1h1.4l-0.3,1.4h-1.4
		l-0.9,4.7c-0.1,0.2-0.1,0.5,0,0.8c0.1,0.1,0.3,0.2,0.5,0.2c0.1,0,0.3,0,0.4,0c0.1,0,0.3,0,0.4-0.1l-0.1,1.4
		c-0.2,0.1-0.5,0.2-0.7,0.2c-0.3,0-0.5,0.1-0.8,0.1c-0.5,0-1.1-0.2-1.4-0.6c-0.3-0.6-0.4-1.3-0.2-1.9l0.9-4.7h-1.2l0.3-1.4h1.2
		l0.4-2.1L-1941.5-9933.5z M-1937-9922.8c-1,0.1-1.9-0.4-2.5-1.2c-0.6-0.9-0.8-2-0.5-3l0-0.3c0.1-1.2,0.7-2.2,1.5-3.1
		c0.7-0.7,1.7-1.2,2.7-1.2c0.9-0.1,1.7,0.3,2.3,1c0.5,0.8,0.7,1.8,0.4,2.8l-0.2,1.1h-4.9c-0.1,0.6,0,1.2,0.3,1.7
		c0.3,0.4,0.8,0.7,1.3,0.6c0.4,0,0.8-0.1,1.2-0.2c0.4-0.1,0.7-0.3,1.1-0.5l0.4,1.2c-0.4,0.3-0.8,0.5-1.3,0.7
		C-1935.9-9922.9-1936.4-9922.8-1937-9922.8z M-1936.1-9930.1c-0.4,0-0.8,0.2-1.1,0.6c-0.4,0.4-0.6,0.9-0.7,1.4l0,0h2.9l0-0.2
		c0.1-0.4,0-0.9-0.1-1.3C-1935.3-9929.9-1935.7-9930.1-1936.1-9930.1z M-1927.2-9929.7l-0.9,0c-0.3,0-0.6,0.1-0.8,0.2
		c-0.3,0.2-0.5,0.4-0.6,0.7l-1.2,5.9h-1.9l1.7-8.5h1.7l-0.1,1.1c0.2-0.4,0.6-0.7,0.9-0.9c0.3-0.2,0.7-0.3,1.1-0.3c0.1,0,0.2,0,0.3,0
		c0.1,0,0.2,0,0.3,0.1L-1927.2-9929.7z"/>
	<path id="Trazado_607165" class="st5" d="M-1827.1-9590.7c0.1-0.4,0-0.9-0.2-1.3c-0.5-0.4-1-0.7-1.6-0.9c-0.9-0.3-1.8-0.8-2.5-1.4
		c-0.5-0.7-0.7-1.5-0.5-2.3c0.1-0.9,0.6-1.6,1.4-2.1c0.8-0.5,1.7-0.8,2.7-0.7c1-0.1,1.9,0.3,2.7,0.9c0.6,0.7,0.9,1.7,0.6,2.6l0,0
		h-1.8c0.1-0.5,0-1-0.3-1.5c-0.4-0.4-0.9-0.6-1.4-0.6c-0.4,0-0.9,0.1-1.2,0.4c-0.3,0.2-0.6,0.6-0.7,0.9c-0.1,0.4-0.1,0.9,0.2,1.2
		c0.5,0.4,1.1,0.7,1.8,0.9c0.9,0.3,1.7,0.8,2.4,1.4c0.5,0.7,0.7,1.5,0.4,2.3c-0.1,0.9-0.6,1.7-1.4,2.2c-0.8,0.5-1.8,0.7-2.7,0.7
		c-1,0-2-0.3-2.8-0.9c-0.8-0.6-1.1-1.7-0.8-2.6l0,0h1.8c-0.2,0.6,0,1.2,0.4,1.6c0.5,0.3,1.1,0.5,1.7,0.4c0.4,0,0.9-0.1,1.3-0.4
		C-1827.4-9590-1827.2-9590.3-1827.1-9590.7z M-1820.7-9589.4c0.4,0,0.8-0.1,1.1-0.4c0.3-0.3,0.5-0.6,0.6-1h1.7l0,0
		c-0.1,0.8-0.6,1.6-1.2,2.1c-0.7,0.5-1.5,0.8-2.4,0.8c-1,0.1-1.9-0.4-2.5-1.2c-0.5-0.9-0.7-2-0.5-3l0-0.3c0.1-1.1,0.6-2.2,1.4-3.1
		c0.7-0.8,1.8-1.2,2.9-1.2c0.8,0,1.6,0.3,2.2,0.9c0.5,0.6,0.7,1.5,0.5,2.3l0,0h-1.7c0.1-0.4,0-0.8-0.2-1.2c-0.2-0.3-0.6-0.5-1-0.5
		c-0.6,0-1.1,0.3-1.5,0.8c-0.4,0.6-0.6,1.2-0.7,1.9l0,0.3c-0.1,0.7-0.1,1.3,0.1,2C-1821.8-9589.6-1821.2-9589.3-1820.7-9589.4z
		 M-1811-9594.7l-0.9,0c-0.3,0-0.6,0.1-0.8,0.2c-0.3,0.2-0.5,0.4-0.6,0.7l-1.2,5.9h-1.9l1.7-8.5h1.7l-0.1,1.1
		c0.2-0.4,0.6-0.7,0.9-0.9c0.3-0.2,0.7-0.3,1.1-0.3c0.1,0,0.2,0,0.3,0c0.1,0,0.2,0,0.3,0.1L-1811-9594.7z M-1806-9588l0.1-1.1
		c-0.3,0.4-0.7,0.7-1.1,0.9c-0.4,0.2-0.9,0.3-1.4,0.3c-0.7,0-1.4-0.3-1.8-0.9c-0.4-0.8-0.5-1.8-0.2-2.7l1-5.1h1.9l-1,5.1
		c-0.2,0.5-0.2,1.1,0,1.6c0.2,0.3,0.5,0.5,0.9,0.4c0.4,0,0.7-0.1,1.1-0.3c0.3-0.2,0.6-0.4,0.8-0.7l1.2-6.1h1.9l-1.7,8.5H-1806z
		 M-1799.2-9595.5c0.3-0.4,0.7-0.7,1.1-0.9c0.4-0.2,0.9-0.3,1.4-0.3c0.4,0,0.8,0.1,1.2,0.4c0.3,0.3,0.6,0.7,0.6,1.1
		c0.3-0.4,0.7-0.8,1.2-1.1c0.4-0.3,1-0.4,1.5-0.4c0.7,0,1.3,0.3,1.6,0.9c0.4,0.8,0.5,1.8,0.2,2.6l-1,5.1h-1.9l1-5.1
		c0.2-0.5,0.2-1.1,0-1.6c-0.2-0.3-0.6-0.4-0.9-0.4c-0.3,0-0.7,0.1-0.9,0.3c-0.3,0.2-0.6,0.5-0.7,0.9c0,0.1,0,0.2,0,0.2
		c0,0,0,0.1,0,0.1l-1.1,5.5h-1.9l1-5.1c0.2-0.5,0.1-1,0-1.5c-0.2-0.3-0.6-0.5-0.9-0.4c-0.3,0-0.6,0.1-0.9,0.2
		c-0.3,0.2-0.5,0.4-0.7,0.6l-1.2,6.2h-1.9l1.7-8.5h1.7L-1799.2-9595.5z M-1776.3-9597.9h-3.1l-2,9.9h-1.9l2-9.9h-3.1l0.3-1.5h8.2
		L-1776.3-9597.9z M-1774.2-9587.8c-1,0.1-1.9-0.4-2.5-1.2c-0.6-0.9-0.8-2-0.5-3l0-0.3c0.1-1.2,0.7-2.2,1.5-3.1
		c0.7-0.7,1.7-1.2,2.7-1.2c0.9-0.1,1.7,0.3,2.3,1c0.5,0.8,0.6,1.8,0.4,2.8l-0.2,1.1h-4.9c-0.1,0.6,0,1.2,0.3,1.7
		c0.3,0.4,0.8,0.7,1.3,0.6c0.4,0,0.8-0.1,1.2-0.2c0.4-0.1,0.7-0.3,1.1-0.5l0.4,1.2c-0.4,0.3-0.8,0.5-1.3,0.7
		C-1773-9587.9-1773.6-9587.8-1774.2-9587.8z M-1773.3-9595.1c-0.4,0-0.8,0.2-1.1,0.6c-0.3,0.4-0.6,0.9-0.7,1.4l0,0h2.9l0-0.2
		c0.1-0.4,0-0.9-0.1-1.3C-1772.5-9594.9-1772.9-9595.1-1773.3-9595.1z M-1765.1-9588c0-0.2,0-0.3,0-0.5c0-0.2,0-0.3,0-0.5
		c-0.3,0.3-0.7,0.6-1.1,0.9c-0.4,0.2-0.8,0.3-1.3,0.3c-0.6,0-1.3-0.2-1.7-0.7c-0.4-0.5-0.5-1.2-0.3-1.8c0.1-0.8,0.6-1.5,1.3-1.9
		c0.8-0.5,1.7-0.7,2.7-0.6h1.2l0.1-0.7c0.1-0.4,0.1-0.7-0.1-1.1c-0.2-0.3-0.6-0.4-0.9-0.4c-0.4,0-0.7,0.1-1,0.3
		c-0.3,0.2-0.5,0.5-0.5,0.8h-1.8l0,0c0.1-0.7,0.6-1.4,1.2-1.8c0.7-0.5,1.6-0.8,2.5-0.7c0.8,0,1.5,0.2,2,0.8c0.5,0.6,0.7,1.4,0.5,2.1
		l-0.8,3.8c-0.1,0.3-0.1,0.7-0.1,1c0,0.3,0,0.6,0,0.9H-1765.1z M-1766.8-9589.4c0.4,0,0.7-0.1,1.1-0.3c0.3-0.2,0.6-0.4,0.9-0.7
		l0.3-1.5h-1.3c-0.4,0-0.8,0.1-1.2,0.4c-0.3,0.2-0.5,0.6-0.6,1c-0.1,0.3,0,0.6,0.1,0.8C-1767.3-9589.4-1767-9589.3-1766.8-9589.4z
		 M-1758.3-9595.5c0.3-0.4,0.7-0.7,1.1-0.9c0.4-0.2,0.9-0.3,1.4-0.3c0.4,0,0.8,0.1,1.2,0.4c0.3,0.3,0.6,0.7,0.6,1.1
		c0.3-0.4,0.7-0.8,1.2-1.1c0.4-0.3,1-0.4,1.5-0.4c0.7,0,1.3,0.3,1.7,0.9c0.4,0.8,0.5,1.8,0.2,2.6l-1,5.1h-1.9l1-5.1
		c0.2-0.5,0.2-1,0-1.6c-0.2-0.3-0.6-0.4-0.9-0.4c-0.3,0-0.7,0.1-0.9,0.3c-0.3,0.2-0.6,0.5-0.7,0.9c0,0.1,0,0.2,0,0.2
		c0,0,0,0.1,0,0.1l-1.1,5.5h-1.9l1-5.1c0.2-0.5,0.1-1,0-1.5c-0.2-0.3-0.6-0.5-0.9-0.4c-0.3,0-0.6,0.1-0.9,0.2
		c-0.3,0.2-0.5,0.4-0.7,0.6l-1.2,6.2h-1.9l1.7-8.5h1.7L-1758.3-9595.5z"/>
	<path id="Trazado_607164" class="st5" d="M-1628.2-9925.7c0.1-0.4,0-0.9-0.2-1.3c-0.5-0.4-1-0.7-1.6-0.9c-0.9-0.3-1.8-0.8-2.5-1.4
		c-0.5-0.7-0.7-1.5-0.5-2.3c0.1-0.9,0.6-1.6,1.4-2.1c0.8-0.5,1.7-0.8,2.7-0.7c1-0.1,1.9,0.3,2.7,0.9c0.6,0.7,0.9,1.7,0.6,2.6l0,0
		h-1.8c0.1-0.5,0-1-0.3-1.5c-0.4-0.4-0.9-0.6-1.4-0.6c-0.4,0-0.9,0.1-1.2,0.4c-0.3,0.2-0.6,0.6-0.7,0.9c-0.1,0.4-0.1,0.9,0.2,1.2
		c0.5,0.4,1.1,0.7,1.8,0.9c0.9,0.3,1.7,0.8,2.4,1.4c0.5,0.7,0.7,1.5,0.4,2.3c-0.1,0.9-0.6,1.7-1.4,2.2c-0.8,0.5-1.8,0.7-2.7,0.7
		c-1,0-2-0.3-2.8-0.9c-0.8-0.6-1.1-1.7-0.8-2.6l0,0h1.8c-0.2,0.6,0,1.2,0.4,1.6c0.5,0.3,1.1,0.5,1.7,0.4c0.4,0,0.9-0.1,1.3-0.4
		C-1628.5-9925-1628.3-9925.3-1628.2-9925.7z M-1621.8-9924.4c0.4,0,0.8-0.1,1.1-0.4c0.3-0.3,0.5-0.6,0.6-1h1.7l0,0
		c-0.1,0.8-0.6,1.6-1.2,2.1c-0.7,0.5-1.5,0.8-2.4,0.8c-1,0.1-1.9-0.4-2.5-1.2c-0.5-0.9-0.7-2-0.5-3l0-0.3c0.1-1.1,0.6-2.2,1.4-3.1
		c0.7-0.8,1.8-1.2,2.9-1.2c0.8,0,1.6,0.3,2.2,0.9c0.5,0.6,0.7,1.5,0.5,2.3l0,0h-1.7c0.1-0.4,0-0.8-0.2-1.2c-0.2-0.3-0.6-0.5-1-0.5
		c-0.6,0-1.1,0.3-1.5,0.8c-0.4,0.6-0.6,1.2-0.7,1.9l0,0.3c-0.1,0.7-0.1,1.3,0.1,2C-1622.9-9924.6-1622.4-9924.3-1621.8-9924.4z
		 M-1612.2-9929.7l-0.9,0c-0.3,0-0.6,0.1-0.8,0.2c-0.3,0.2-0.5,0.4-0.6,0.7l-1.2,5.9h-1.9l1.7-8.5h1.7l-0.1,1.1
		c0.2-0.4,0.6-0.7,0.9-0.9c0.3-0.2,0.7-0.3,1.1-0.3c0.1,0,0.2,0,0.3,0c0.1,0,0.2,0,0.3,0.1L-1612.2-9929.7z M-1607.2-9923l0.1-1.1
		c-0.3,0.4-0.7,0.7-1.1,0.9c-0.4,0.2-0.9,0.3-1.4,0.3c-0.7,0-1.4-0.3-1.8-0.9c-0.4-0.8-0.5-1.8-0.2-2.7l1-5.1h1.9l-1,5.1
		c-0.2,0.5-0.2,1.1,0,1.6c0.2,0.3,0.5,0.5,0.9,0.4c0.4,0,0.7-0.1,1.1-0.3c0.3-0.2,0.6-0.4,0.8-0.7l1.2-6.1h1.9l-1.7,8.5H-1607.2z
		 M-1600.3-9930.5c0.3-0.4,0.7-0.7,1.1-0.9c0.4-0.2,0.9-0.3,1.4-0.3c0.4,0,0.8,0.1,1.2,0.4c0.3,0.3,0.6,0.7,0.6,1.1
		c0.3-0.4,0.7-0.8,1.2-1.1c0.4-0.3,1-0.4,1.5-0.4c0.7,0,1.3,0.3,1.7,0.9c0.4,0.8,0.5,1.8,0.2,2.6l-1,5.1h-1.9l1-5.1
		c0.2-0.5,0.2-1,0-1.6c-0.2-0.3-0.6-0.4-0.9-0.4c-0.3,0-0.7,0.1-0.9,0.3c-0.3,0.2-0.6,0.5-0.7,0.9c0,0.1,0,0.2,0,0.2
		c0,0,0,0.1,0,0.1l-1.1,5.5h-1.9l1-5.1c0.2-0.5,0.1-1,0-1.5c-0.2-0.3-0.6-0.5-0.9-0.4c-0.3,0-0.6,0.1-0.9,0.2
		c-0.3,0.2-0.5,0.4-0.7,0.6l-1.2,6.2h-1.9l1.7-8.5h1.7L-1600.3-9930.5z M-1577.4-9927.6c-0.2,1.3-0.9,2.6-1.8,3.5
		c-0.9,0.8-2.1,1.3-3.3,1.3c-1.1,0-2.2-0.5-2.9-1.4c-0.7-1-1-2.3-0.7-3.4l0.4-2c0.2-1.3,0.8-2.6,1.8-3.5c0.9-0.8,2-1.3,3.2-1.3
		c1.2,0,2.3,0.5,3,1.4c0.8,1,1,2.3,0.7,3.4L-1577.4-9927.6z M-1578.8-9929.7c0.2-0.8,0.1-1.7-0.3-2.4c-0.4-0.6-1.1-1-1.8-0.9
		c-0.7,0-1.4,0.3-1.8,0.9c-0.5,0.7-0.9,1.5-1,2.3l-0.4,2.1c-0.2,0.8-0.1,1.7,0.3,2.4c0.4,0.6,1,1,1.7,0.9c0.7,0,1.4-0.3,1.9-0.9
		c0.6-0.7,0.9-1.5,1.1-2.3L-1578.8-9929.7z M-1569.1-9925.6L-1569.1-9925.6l2.4-5.8h1.8l-3.8,8.5h-1.5l-0.5-5.6l0,0l-2.7,5.6h-1.5
		l-0.5-8.5h1.8l0.1,5.7l0,0l2.7-5.8h1.3L-1569.1-9925.6z M-1562.1-9930.3c0.3-0.4,0.7-0.7,1.2-0.9c0.4-0.2,0.9-0.3,1.4-0.3
		c0.7,0,1.3,0.3,1.7,0.8c0.4,0.8,0.5,1.7,0.2,2.5l-1.1,5.3h-1.9l1.1-5.3c0.1-0.5,0.1-0.9-0.1-1.4c-0.3-0.3-0.6-0.4-1-0.4
		c-0.3,0-0.6,0.1-0.9,0.2c-0.3,0.2-0.6,0.4-0.8,0.7l-1.2,6.1h-1.9l1.7-8.5h1.7L-1562.1-9930.3z M-1553.3-9922.8
		c-1,0.1-1.9-0.4-2.5-1.2c-0.6-0.9-0.8-2-0.5-3l0-0.3c0.1-1.2,0.7-2.2,1.5-3.1c0.7-0.7,1.7-1.2,2.7-1.2c0.9-0.1,1.7,0.3,2.3,1
		c0.5,0.8,0.7,1.8,0.4,2.8l-0.2,1.1h-4.9c-0.1,0.6,0,1.2,0.3,1.7c0.3,0.4,0.8,0.7,1.3,0.6c0.4,0,0.8-0.1,1.2-0.2
		c0.4-0.1,0.7-0.3,1.1-0.5l0.4,1.2c-0.4,0.3-0.8,0.5-1.3,0.7C-1552.1-9922.9-1552.7-9922.8-1553.3-9922.8z M-1552.4-9930.1
		c-0.4,0-0.8,0.2-1.1,0.6c-0.4,0.4-0.6,0.9-0.7,1.4l0,0h2.9l0-0.2c0.1-0.4,0-0.9-0.1-1.3C-1551.6-9929.9-1552-9930.1-1552.4-9930.1z
		 M-1543.5-9929.7l-0.9,0c-0.3,0-0.6,0.1-0.8,0.2c-0.3,0.2-0.5,0.4-0.6,0.7l-1.2,5.9h-1.9l1.7-8.5h1.7l-0.1,1.1
		c0.2-0.4,0.6-0.7,0.9-0.9c0.3-0.2,0.7-0.3,1.1-0.3c0.1,0,0.2,0,0.3,0c0.1,0,0.2,0,0.3,0.1L-1543.5-9929.7z"/>
	<path id="Trazado_607163" class="st2" d="M-1654.8-9698h-1.5v-11.4h1.5V-9698z M-1650.9-9706.5l0,1.1c0.6-0.8,1.5-1.2,2.5-1.2
		c1.8,0,2.7,1,2.7,3v5.6h-1.4v-5.6c0-0.5-0.1-1-0.4-1.4c-0.3-0.3-0.8-0.5-1.3-0.4c-0.4,0-0.9,0.1-1.2,0.4c-0.4,0.3-0.6,0.6-0.8,1v6
		h-1.4v-8.5H-1650.9z M-1640.1-9699c0.5,0,1-0.2,1.4-0.5c0.4-0.3,0.6-0.7,0.6-1.2h1.4c0,0.5-0.2,1-0.5,1.4c-0.3,0.4-0.7,0.8-1.2,1
		c-0.5,0.3-1.1,0.4-1.6,0.4c-1,0-2-0.4-2.7-1.2c-0.7-0.9-1.1-2-1-3.2v-0.2c0-0.8,0.1-1.5,0.5-2.2c0.3-0.6,0.7-1.1,1.3-1.5
		c0.6-0.4,1.3-0.5,2-0.5c0.9,0,1.7,0.3,2.4,0.9c0.6,0.6,1,1.4,1,2.2h-1.4c0-0.5-0.2-1-0.6-1.3c-0.4-0.4-0.9-0.5-1.4-0.5
		c-0.7,0-1.3,0.3-1.7,0.8c-0.4,0.7-0.7,1.5-0.6,2.3v0.3c-0.1,0.8,0.2,1.6,0.6,2.2C-1641.4-9699.3-1640.8-9699-1640.1-9699
		L-1640.1-9699z M-1631-9705.2c-0.2,0-0.5-0.1-0.7-0.1c-0.8-0.1-1.6,0.4-1.9,1.2v6h-1.4v-8.5h1.4l0,1c0.4-0.7,1.2-1.2,2-1.1
		c0.2,0,0.4,0,0.6,0.1L-1631-9705.2z M-1626.3-9697.8c-1.1,0-2.1-0.4-2.8-1.1c-0.7-0.8-1.1-1.9-1.1-3v-0.3c0-0.8,0.2-1.5,0.5-2.2
		c0.3-0.6,0.8-1.2,1.3-1.5c0.6-0.4,1.2-0.6,1.9-0.6c1-0.1,1.9,0.3,2.6,1.1c0.7,0.9,1,2,0.9,3.1v0.6h-5.7c0,0.7,0.2,1.5,0.7,2
		c0.5,0.5,1.1,0.8,1.8,0.8c0.5,0,0.9-0.1,1.3-0.3c0.4-0.2,0.7-0.5,0.9-0.8l0.9,0.7C-1623.8-9698.4-1625-9697.8-1626.3-9697.8z
		 M-1626.5-9705.4c-0.6,0-1.1,0.2-1.5,0.6c-0.4,0.5-0.7,1.1-0.7,1.8h4.2v-0.1c0-0.6-0.2-1.2-0.6-1.7
		C-1625.4-9705.2-1626-9705.5-1626.5-9705.4z M-1620-9706.5l0,0.9c0.6-0.7,1.5-1.1,2.5-1.1c1-0.1,2,0.4,2.4,1.4
		c0.3-0.4,0.7-0.7,1.1-1c0.5-0.3,1-0.4,1.6-0.4c1.9,0,2.8,1,2.8,2.9v5.7h-1.4v-5.6c0-0.5-0.1-1-0.4-1.4c-0.4-0.3-0.9-0.5-1.4-0.4
		c-0.5,0-1,0.2-1.3,0.5c-0.4,0.3-0.6,0.8-0.6,1.3v5.6h-1.5v-5.5c0.1-0.9-0.5-1.7-1.4-1.8c-0.1,0-0.3,0-0.4,0
		c-0.8-0.1-1.6,0.4-1.9,1.2v6.2h-1.4v-8.5H-1620z M-1603.8-9697.8c-1.1,0-2.1-0.4-2.8-1.1c-0.7-0.8-1.1-1.9-1.1-3v-0.3
		c0-0.8,0.2-1.5,0.5-2.2c0.3-0.6,0.8-1.2,1.3-1.5c0.6-0.4,1.2-0.6,1.9-0.6c1-0.1,1.9,0.3,2.6,1.1c0.7,0.9,1,2,0.9,3.1v0.6h-5.7
		c0,0.7,0.2,1.5,0.7,2c0.5,0.5,1.1,0.8,1.8,0.8c0.5,0,0.9-0.1,1.3-0.3c0.4-0.2,0.7-0.5,0.9-0.8l0.9,0.7
		C-1601.3-9698.4-1602.5-9697.8-1603.8-9697.8z M-1604-9705.4c-0.6,0-1.1,0.2-1.5,0.6c-0.4,0.5-0.7,1.1-0.7,1.8h4.2v-0.1
		c0-0.6-0.2-1.2-0.6-1.7C-1602.9-9705.2-1603.5-9705.4-1604-9705.4z M-1597.5-9706.5l0,1.1c0.6-0.8,1.5-1.2,2.5-1.2
		c1.8,0,2.7,1,2.7,3v5.6h-1.4v-5.6c0-0.5-0.1-1-0.4-1.4c-0.3-0.3-0.8-0.5-1.3-0.4c-0.4,0-0.9,0.1-1.2,0.4c-0.4,0.3-0.6,0.6-0.8,1v6
		h-1.4v-8.5H-1597.5z M-1588.1-9708.5v2h1.6v1.1h-1.6v5.2c0,0.3,0.1,0.5,0.2,0.8c0.2,0.2,0.5,0.3,0.7,0.3c0.2,0,0.5,0,0.7-0.1v1.2
		c-0.4,0.1-0.7,0.2-1.1,0.2c-0.6,0-1.1-0.2-1.5-0.6c-0.4-0.5-0.5-1.1-0.5-1.7v-5.2h-1.5v-1.1h1.5v-2H-1588.1z M-1585.3-9702.3
		c0-0.8,0.2-1.5,0.5-2.2c0.3-0.6,0.8-1.2,1.4-1.5c0.6-0.4,1.3-0.6,2-0.5c1.1,0,2.1,0.4,2.8,1.2c0.7,0.9,1.1,2,1.1,3.2v0.1
		c0,0.8-0.1,1.5-0.5,2.2c-0.3,0.6-0.8,1.2-1.4,1.5c-0.6,0.4-1.3,0.6-2,0.5c-1.1,0-2.1-0.4-2.8-1.2
		C-1585-9699.9-1585.4-9701.1-1585.3-9702.3L-1585.3-9702.3z M-1583.9-9702.1c0,0.8,0.2,1.6,0.6,2.3c0.4,0.6,1.1,0.9,1.7,0.9
		c0.7,0,1.3-0.3,1.8-0.9c0.5-0.7,0.7-1.6,0.7-2.4c0-0.8-0.2-1.6-0.7-2.3c-0.4-0.6-1.1-0.9-1.8-0.9c-0.7,0-1.3,0.3-1.7,0.9
		C-1583.7-9703.9-1583.9-9703-1583.9-9702.1L-1583.9-9702.1z M-1661.1-9682.3c-0.1-1.1,0.3-2.2,0.9-3.1c0.6-0.8,1.5-1.2,2.4-1.2
		c0.9,0,1.8,0.3,2.4,1v-4.4h1.4v12h-1.3l-0.1-0.9c-0.6,0.7-1.5,1.1-2.4,1.1c-0.9,0-1.8-0.4-2.4-1.2c-0.7-0.9-1-2-0.9-3.1
		L-1661.1-9682.3z M-1659.7-9682.1c0,0.8,0.2,1.6,0.6,2.2c0.4,0.5,1,0.8,1.6,0.8c0.9,0,1.6-0.4,2-1.2v-3.9c-0.4-0.8-1.1-1.2-2-1.2
		c-0.7,0-1.3,0.3-1.7,0.8C-1659.6-9683.8-1659.8-9683-1659.7-9682.1L-1659.7-9682.1z M-1648.3-9677.9c-1.1,0-2.1-0.4-2.8-1.1
		c-0.7-0.8-1.1-1.9-1.1-3v-0.3c0-0.8,0.2-1.5,0.5-2.2c0.3-0.6,0.8-1.2,1.3-1.5c0.6-0.4,1.2-0.6,1.9-0.6c1-0.1,1.9,0.3,2.6,1.1
		c0.7,0.9,1,2,0.9,3.1v0.6h-5.7c0,0.7,0.2,1.5,0.7,2c0.5,0.5,1.1,0.8,1.8,0.8c0.5,0,0.9-0.1,1.3-0.3c0.4-0.2,0.7-0.5,0.9-0.8
		l0.9,0.7C-1645.8-9678.4-1647-9677.8-1648.3-9677.9L-1648.3-9677.9z M-1648.4-9685.4c-0.6,0-1.1,0.2-1.5,0.6
		c-0.4,0.5-0.7,1.1-0.7,1.8h4.2v-0.1c0-0.6-0.2-1.2-0.6-1.7C-1647.4-9685.2-1647.9-9685.4-1648.4-9685.4L-1648.4-9685.4z
		 M-1641.7-9678h-1.4v-12h1.4V-9678z M-1628.3-9682.1c0.1,1.1-0.3,2.2-0.9,3.1c-0.6,0.8-1.4,1.2-2.4,1.2c-0.9,0-1.8-0.3-2.4-1v4.1
		h-1.4v-11.7h1.3l0.1,0.9c0.6-0.7,1.5-1.1,2.5-1.1c0.9,0,1.8,0.4,2.4,1.1c0.6,0.9,1,2.1,0.9,3.2L-1628.3-9682.1z M-1629.8-9682.3
		c0-0.8-0.2-1.6-0.6-2.3c-0.4-0.5-1-0.9-1.7-0.8c-0.8,0-1.6,0.4-2,1.2v4c0.4,0.7,1.2,1.2,2,1.2c0.7,0,1.3-0.3,1.7-0.8
		C-1629.9-9680.6-1629.7-9681.4-1629.8-9682.3L-1629.8-9682.3z M-1622.4-9685.2c-0.2,0-0.5-0.1-0.7-0.1c-0.8-0.1-1.6,0.4-1.9,1.2v6
		h-1.4v-8.5h1.4l0,1c0.4-0.7,1.2-1.2,2-1.1c0.2,0,0.4,0,0.6,0.1V-9685.2z M-1621.6-9682.3c0-0.8,0.2-1.5,0.5-2.2
		c0.3-0.6,0.8-1.2,1.4-1.5c0.6-0.4,1.3-0.6,2-0.5c1.1,0,2.1,0.4,2.8,1.2c0.7,0.9,1.1,2,1.1,3.2v0.1c0,0.8-0.1,1.5-0.5,2.2
		c-0.3,0.6-0.8,1.2-1.4,1.5c-0.6,0.4-1.3,0.6-2,0.5c-1.1,0-2.1-0.4-2.8-1.2C-1621.3-9679.9-1621.7-9681.1-1621.6-9682.3
		L-1621.6-9682.3z M-1620.2-9682.1c0,0.8,0.2,1.6,0.7,2.3c0.4,0.6,1.1,0.9,1.7,0.9c0.7,0,1.3-0.3,1.8-0.9c0.5-0.7,0.7-1.6,0.6-2.4
		c0-0.8-0.2-1.6-0.7-2.3c-0.4-0.6-1.1-0.9-1.8-0.9c-0.7,0-1.3,0.3-1.7,0.9C-1620-9683.9-1620.2-9683-1620.2-9682.1L-1620.2-9682.1z
		 M-1612.5-9682.3c-0.1-1.1,0.3-2.2,0.9-3.1c0.6-0.8,1.5-1.2,2.4-1.2c0.9,0,1.8,0.3,2.4,1v-4.4h1.4v12h-1.3l-0.1-0.9
		c-0.6,0.7-1.5,1.1-2.4,1.1c-0.9,0-1.8-0.4-2.4-1.2c-0.7-0.9-1-2-0.9-3.1L-1612.5-9682.3z M-1611-9682.1c0,0.8,0.2,1.6,0.6,2.2
		c0.4,0.5,1,0.8,1.6,0.8c0.9,0,1.7-0.5,2-1.2v-3.9c-0.4-0.8-1.1-1.2-2-1.2c-0.7,0-1.3,0.3-1.7,0.8
		C-1610.9-9683.8-1611.1-9683-1611-9682.1L-1611-9682.1z M-1597.9-9678.8c-0.6,0.7-1.5,1-2.5,1c-0.8,0.1-1.5-0.2-2.1-0.8
		c-0.5-0.7-0.8-1.5-0.7-2.3v-5.5h1.4v5.5c0,1.3,0.5,1.9,1.6,1.9c0.9,0.1,1.8-0.4,2.2-1.2v-6.1h1.4v8.5h-1.4L-1597.9-9678.8z
		 M-1590.9-9679c0.5,0,1-0.2,1.4-0.5c0.4-0.3,0.6-0.7,0.6-1.2h1.4c0,0.5-0.2,1-0.5,1.4c-0.3,0.4-0.7,0.8-1.2,1
		c-0.5,0.3-1.1,0.4-1.6,0.4c-1,0-2-0.4-2.7-1.2c-0.7-0.9-1.1-2-1-3.2v-0.2c0-0.8,0.1-1.5,0.5-2.2c0.3-0.6,0.7-1.1,1.3-1.5
		c0.6-0.4,1.3-0.5,2-0.5c0.9,0,1.7,0.3,2.4,0.9c0.6,0.6,1,1.4,1,2.2h-1.4c0-0.5-0.2-1-0.6-1.3c-0.4-0.4-0.9-0.5-1.4-0.5
		c-0.7,0-1.3,0.3-1.7,0.8c-0.4,0.7-0.7,1.5-0.6,2.3v0.3c-0.1,0.8,0.2,1.6,0.6,2.2C-1592.2-9679.3-1591.5-9679-1590.9-9679
		L-1590.9-9679z M-1583.9-9688.5v2h1.6v1.1h-1.6v5.2c0,0.3,0.1,0.5,0.2,0.8c0.2,0.2,0.5,0.3,0.7,0.3c0.2,0,0.5,0,0.7-0.1v1.2
		c-0.4,0.1-0.7,0.2-1.1,0.2c-0.6,0-1.1-0.2-1.5-0.6c-0.4-0.5-0.5-1.1-0.5-1.7v-5.2h-1.5v-1.1h1.5v-2H-1583.9z M-1581.2-9682.3
		c0-0.8,0.2-1.5,0.5-2.2c0.3-0.6,0.8-1.2,1.4-1.5c0.6-0.4,1.3-0.6,2-0.5c1.1,0,2.1,0.4,2.8,1.2c0.7,0.9,1.1,2,1.1,3.2v0.1
		c0,0.8-0.1,1.5-0.5,2.2c-0.3,0.6-0.8,1.2-1.4,1.5c-0.6,0.4-1.3,0.6-2,0.5c-1.1,0-2.1-0.4-2.8-1.2
		C-1580.9-9679.9-1581.2-9681.1-1581.2-9682.3L-1581.2-9682.3z M-1579.7-9682.1c0,0.8,0.2,1.6,0.7,2.3c0.7,1,2.1,1.1,3.1,0.4
		c0.1-0.1,0.3-0.2,0.4-0.4c0.5-0.7,0.7-1.6,0.6-2.4c0-0.8-0.2-1.6-0.7-2.3c-0.4-0.6-1.1-0.9-1.8-0.9c-0.7,0-1.3,0.3-1.7,0.9
		C-1579.6-9683.9-1579.8-9683-1579.7-9682.1L-1579.7-9682.1z"/>
</g>
</svg>
