<svg xmlns="http://www.w3.org/2000/svg" width="610" height="294" viewBox="0 0 610 294">
  <g id="Grupo_893191" data-name="Grupo 893191" transform="translate(-810 -2193)">
    <rect id="Rectángulo_302131" data-name="Rectángulo 302131" width="610" height="294" transform="translate(810 2193)" fill="#ddfbff" opacity="0.71"/>
    <g id="Grupo_890220" data-name="Grupo 890220" transform="translate(791.079 2117.377)">
      <g id="Grupo_890029" data-name="Grupo 890029" transform="translate(89.828 255.002)">
        <rect id="Rectángulo_301835" data-name="Rectángulo 301835" width="2.166" height="22.731" transform="translate(0 0)" fill="#34495e"/>
      </g>
      <g id="Grupo_890030" data-name="Grupo 890030" transform="translate(271.162 253.497)">
        <path id="Trazado_605990" data-name="Trazado 605990" d="M279.712,269.167H256.974a1.082,1.082,0,0,1-1.083-1.083V240.6h2.166V267h21.656Z" transform="translate(-255.891 -240.6)" fill="#34495e"/>
      </g>
      <g id="Grupo_890031" data-name="Grupo 890031" transform="translate(263.282 321.585)">
        <path id="Trazado_605991" data-name="Trazado 605991" d="M369.884,334.521h-2.166v-2.166h2.166Zm-5.414,0H362.3v-2.166h2.166Zm-5.414,0H356.89v-2.166h2.166Zm-5.414,0h-2.166v-2.166h2.166Zm-5.414,0h-2.166v-2.166h2.166Zm-5.414,0H340.65v-2.166h2.165Zm-5.413,0h-2.166v-2.166H337.4Zm-5.414,0h-2.166v-2.166h2.166Zm-5.414,0h-2.166v-2.166h2.166Zm-5.414,0h-2.166v-2.166h2.166Zm-5.414,0H313.58v-2.166h2.166Zm-5.414,0h-2.166v-2.166h2.166Zm-5.414,0h-2.166v-2.166h2.166Zm-5.414,0h-2.166v-2.166H299.5Zm-5.414,0h-2.166v-2.166h2.166Zm-5.414,0H286.51v-2.166h2.166Zm-5.414,0H281.1v-2.166h2.166Zm-5.414,0h-2.166v-2.166h2.166Zm-5.414,0h-2.165v-2.166h2.165Zm-5.414,0h-2.166v-2.166h2.166Zm-5.414,0h-2.166v-2.166h2.166Zm-5.414,0h-2.166v-2.166h2.166Zm-5.414,0h-2.166v-2.166h2.166ZM373.5,333.9l-.886-1.975a4.951,4.951,0,0,0,1.458-1l1.523,1.542A7.132,7.132,0,0,1,373.5,333.9Zm3.986-4.713-2.1-.541a5.044,5.044,0,0,0,.159-1.253,4.644,4.644,0,0,0-.027-.508l2.154-.233a6.985,6.985,0,0,1,.039.742A7.243,7.243,0,0,1,377.486,329.186Zm-2.921-4.759a5,5,0,0,0-1.294-1.208l1.174-1.819a7.166,7.166,0,0,1,1.855,1.731Zm-3.8-1.991-2.133,0v-2.166l2.2,0Zm-5.381,0h-2.166v-2.166h2.166Zm-5.414,0h-.162a9.512,9.512,0,0,1-2.239-.266l.512-2.1a7.313,7.313,0,0,0,1.727.2h.162Zm-5.711-1.793a9.586,9.586,0,0,1-1.775-1.666l1.671-1.378a7.4,7.4,0,0,0,1.373,1.29Zm-3.5-4.877a9.56,9.56,0,0,1-.415-2.4l2.164-.092a7.361,7.361,0,0,0,.318,1.853Zm2.17-5.273-2.039-.732a9.5,9.5,0,0,1,1.113-2.17l1.784,1.229A7.324,7.324,0,0,0,352.923,310.489Zm2.868-3.64-1.189-1.81a9.541,9.541,0,0,1,2.191-1.066l.69,2.053A7.345,7.345,0,0,0,355.791,306.848Zm22.955-1.2h-2.166v-2.165h2.166Zm-5.414,0h-2.166v-2.165h2.166Zm-5.414,0h-2.166v-2.165h2.166Zm-5.414,0h-2.166v-2.165H362.5Z" transform="translate(-248.613 -303.483)" fill="#f8cf26"/>
      </g>
      <g id="Grupo_890047" data-name="Grupo 890047" transform="translate(84.175 162.984)">
        <path id="Trazado_605992" data-name="Trazado 605992" d="M83.2,238.769l6.908-15.322a51.721,51.721,0,0,0,29.013,9.169c12.058,0,16.956-4.019,16.956-9.421,0-16.453-51.119-5.149-51.119-37.805,0-14.946,12.058-27.38,37.052-27.38,11.053,0,22.357,2.638,30.52,7.787l-6.279,15.449a49.658,49.658,0,0,0-24.367-6.908c-12.058,0-16.705,4.522-16.705,10.048,0,16.2,51.119,5.023,51.119,37.3,0,14.694-12.182,27.255-37.3,27.255C105.055,248.943,90.987,244.8,83.2,238.769Z" transform="translate(-83.2 -156.925)" fill="#66cedb"/>
        <path id="Trazado_605993" data-name="Trazado 605993" d="M158.482,203.476c0-26.5,20.348-45.467,47.728-45.467,15.2,0,27.884,5.527,36.174,15.575l-13.063,12.057c-5.9-6.781-13.314-10.3-22.106-10.3-16.453,0-28.134,11.555-28.134,28.134s11.681,28.135,28.134,28.135c8.792,0,16.2-3.517,22.106-10.426l13.063,12.059c-8.29,10.173-20.976,15.7-36.3,15.7C178.83,248.943,158.482,229.977,158.482,203.476Z" transform="translate(-76.968 -156.925)" fill="#66cedb"/>
        <path id="Trazado_605994" data-name="Trazado 605994" d="M304.631,247.321l-16.956-24.493H268.96v24.493H248.613V159.4H286.67c23.487,0,38.182,12.183,38.182,31.9,0,13.188-6.657,22.86-18.087,27.757l19.72,28.261Zm-19.092-71.341H268.96v30.647h16.58c12.435,0,18.714-5.778,18.714-15.324C304.253,181.633,297.974,175.979,285.539,175.979Z" transform="translate(-69.507 -156.81)" fill="#66cedb"/>
        <path id="Trazado_605995" data-name="Trazado 605995" d="M333.175,208.636V159.4h20.348v48.482c0,16.7,7.284,23.613,19.593,23.613,12.435,0,19.593-6.909,19.593-23.613V159.4h20.1v49.235c0,25.873-14.821,40.192-39.815,40.192S333.175,234.509,333.175,208.636Z" transform="translate(-62.506 -156.81)" fill="#66cedb"/>
        <path id="Trazado_605996" data-name="Trazado 605996" d="M505.285,247.321l-.125-52.752-25.874,43.458h-9.169L444.37,195.7v51.622H425.278V159.4h16.831l32.907,54.636L507.421,159.4h16.7l.251,87.92Z" transform="translate(-54.882 -156.81)" fill="#66cedb"/>
        <g id="Grupo_890036" data-name="Grupo 890036" transform="translate(2.262 0)">
          <g id="Grupo_890035" data-name="Grupo 890035">
            <g id="Grupo_890032" data-name="Grupo 890032">
              <path id="Trazado_605997" data-name="Trazado 605997" d="M87.263,239.3l-1.974-.89,6.888-15.279a1.138,1.138,0,0,1,.708-.62,1.1,1.1,0,0,1,.916.131l-.482.953,0,0,.6-.871.672.467c.358.249.717.5,1.091.728a43.681,43.681,0,0,0,5.491,2.983,50.578,50.578,0,0,0,24.316,4.59,26.814,26.814,0,0,0,6.029-1.047,10.566,10.566,0,0,0,4.935-2.873,6.383,6.383,0,0,0,1.558-5.085,5.4,5.4,0,0,0-.945-2.439,7.775,7.775,0,0,0-2.027-1.926,22.162,22.162,0,0,0-5.509-2.518c-1.884-.623-3.789-1.12-6.067-1.676q-1.863-.45-3.735-.88c-2.86-.667-5.817-1.355-8.7-2.167A54.062,54.062,0,0,1,98.94,206.1a23.3,23.3,0,0,1-9.393-9.279,24.187,24.187,0,0,1-2.515-12.946,24.726,24.726,0,0,1,4.053-12.538,27.875,27.875,0,0,1,9.706-8.853,41.606,41.606,0,0,1,12.293-4.365,67.936,67.936,0,0,1,25.8.26l-.422,2.124a65.764,65.764,0,0,0-24.97-.259,39.466,39.466,0,0,0-11.643,4.128,25.7,25.7,0,0,0-8.964,8.166A22.585,22.585,0,0,0,89.194,184a22.05,22.05,0,0,0,2.271,11.809,21.148,21.148,0,0,0,8.546,8.4,51.969,51.969,0,0,0,11.607,4.58c2.837.8,5.769,1.481,8.6,2.142,1.253.291,2.506.583,3.755.886,2.331.568,4.282,1.078,6.237,1.725a24.144,24.144,0,0,1,6.054,2.788,9.866,9.866,0,0,1,2.577,2.471,7.577,7.577,0,0,1,1.321,3.43,8.56,8.56,0,0,1-2.106,6.789,12.95,12.95,0,0,1-5.885,3.481,28.9,28.9,0,0,1-6.527,1.142,52.745,52.745,0,0,1-25.365-4.777,45.41,45.41,0,0,1-5.741-3.116c-.3-.182-.6-.385-.906-.6Z" transform="translate(-85.289 -157.008)" fill="#3c4253"/>
            </g>
            <g id="Grupo_890033" data-name="Grupo 890033" transform="translate(21.896 16.334)">
              <path id="Trazado_605998" data-name="Trazado 605998" d="M158.747,221.232l-2.163-.087a20.384,20.384,0,0,0-3.729-13.08c-2.457-3.3-6.145-5.938-11.276-8.064A89.035,89.035,0,0,0,127.76,195.9c-1.041-.248-2.079-.485-3.117-.721a84.818,84.818,0,0,1-11.127-3.071,14.671,14.671,0,0,1-6.509-4.305,7.389,7.389,0,0,1-1.48-3.981,9.924,9.924,0,0,1,.578-4.023,10.312,10.312,0,0,1,5.61-5.63,22.313,22.313,0,0,1,7.382-1.873,44.482,44.482,0,0,1,14.869,1.117,55.369,55.369,0,0,1,13.8,5.5l-1.056,1.891a53.193,53.193,0,0,0-13.26-5.285,42.344,42.344,0,0,0-14.138-1.066,20.226,20.226,0,0,0-6.689,1.684,8.3,8.3,0,0,0-4.49,4.421,7.783,7.783,0,0,0-.445,3.153,5.276,5.276,0,0,0,1.048,2.793,12.715,12.715,0,0,0,5.556,3.586,83.214,83.214,0,0,0,10.829,2.981c1.047.238,2.093.475,3.135.724A90.86,90.86,0,0,1,142.407,198c5.5,2.28,9.488,5.148,12.181,8.767A22.536,22.536,0,0,1,158.747,221.232Z" transform="translate(-105.511 -172.093)" fill="#3c4253"/>
            </g>
            <g id="Grupo_890034" data-name="Grupo 890034" transform="translate(0.33 80.984)">
              <path id="Trazado_605999" data-name="Trazado 605999" d="M121.7,243.894a67.936,67.936,0,0,1-8.344-.5A73.291,73.291,0,0,1,98.9,240.226a45.52,45.52,0,0,1-13.31-6.7l1.312-1.724a43.4,43.4,0,0,0,12.684,6.372,71.063,71.063,0,0,0,14.025,3.072,70.206,70.206,0,0,0,14.366.221,45.971,45.971,0,0,0,13.853-3.183l.831,2a48.118,48.118,0,0,1-14.5,3.34Q124.876,243.894,121.7,243.894Z" transform="translate(-85.594 -231.8)" fill="#3c4253"/>
            </g>
          </g>
        </g>
        <g id="Grupo_890041" data-name="Grupo 890041" transform="translate(83.68 0.026)">
          <g id="Grupo_890040" data-name="Grupo 890040">
            <g id="Grupo_890037" data-name="Grupo 890037">
              <path id="Trazado_606000" data-name="Trazado 606000" d="M162.648,203.563l-2.166-.011a48.731,48.731,0,0,1,5.669-22.766l2.325-3.751c.225-.32.426-.576.625-.833l2.093-2.7c.475-.533.917-.992,1.358-1.451l1.7-1.786c.263-.262.525-.484.788-.7.123-.1.247-.207.367-.313l2.215-1.895c.552-.427,1.083-.792,1.614-1.156q.414-.284.826-.574l.281-.2a18.656,18.656,0,0,1,2.3-1.447,51.135,51.135,0,0,1,22.392-6.788,55.566,55.566,0,0,1,23.241,3.075,44.718,44.718,0,0,1,10.441,5.587c.528.374,1.044.786,1.558,1.2.251.2.5.4.757.6.315.284.565.506.815.727.487.43.973.86,1.429,1.322l.5.5c.522.524,1.061,1.065,1.557,1.662l.937,1.068a1.084,1.084,0,0,1-.025,1.455c-.218.232-.47.462-.723.693-.122.112-.245.222-.362.334l-11.985,11.063a1.152,1.152,0,0,1-.7.313,1.21,1.21,0,0,1-.933-.413l-.028-.029-.608-.668a31.51,31.51,0,0,0-4.128-3.764,26.133,26.133,0,0,0-10-4.693,30.2,30.2,0,0,0-11.12-.361,27.454,27.454,0,0,0-10.414,3.709,23.9,23.9,0,0,0-7.812,7.726l-1.84-1.142a26.077,26.077,0,0,1,8.517-8.428,29.629,29.629,0,0,1,11.243-4.007,32.332,32.332,0,0,1,11.913.394,28.3,28.3,0,0,1,10.82,5.078,33.763,33.763,0,0,1,4.382,3.99l11.209-10.347c.086-.081.18-.168.277-.257l-.27-.306c-.453-.545-.934-1.029-1.444-1.54l-.511-.516c-.417-.422-.867-.82-1.317-1.216-.261-.231-.523-.462-.78-.7-.194-.147-.455-.356-.715-.565-.481-.386-.959-.771-1.462-1.126a42.524,42.524,0,0,0-9.942-5.321,53.413,53.413,0,0,0-22.338-2.943,49.052,49.052,0,0,0-21.505,6.532,17.005,17.005,0,0,0-2.082,1.315l-.277.195c-.275.2-.562.392-.848.589-.5.342-1,.684-1.476,1.052l-2.159,1.847c-.12.107-.258.222-.394.337-.217.182-.434.364-.635.563l-1.689,1.77c-.424.442-.849.883-1.258,1.338l-2.048,2.646c-.18.229-.361.46-.529.7l-2.252,3.635A46.531,46.531,0,0,0,162.648,203.563ZM231.8,186.575h0Zm0,0h0Z" transform="translate(-160.482 -157.031)" fill="#3c4253"/>
            </g>
            <g id="Grupo_890038" data-name="Grupo 890038" transform="translate(24.507 60.785)">
              <path id="Trazado_606001" data-name="Trazado 606001" d="M214.453,245.029l-.239-2.154a44.232,44.232,0,0,0,23.549-9.786,42.409,42.409,0,0,0,4.33-4.322L230.6,218.161l-.2.222a29.969,29.969,0,0,1-11.208,7.795,30.67,30.67,0,0,1-13.5,1.83,29.684,29.684,0,0,1-13.015-4.014,16.5,16.5,0,0,1-2.137-1.411c-.225-.167-.452-.332-.681-.495a7.09,7.09,0,0,1-.938-.774c-.13-.12-.258-.24-.393-.353-.178-.165-.315-.285-.453-.406a11.021,11.021,0,0,1-.864-.82c-.247-.286-.481-.539-.715-.792a14.417,14.417,0,0,1-1.539-1.865l-.949-1.294-.9-1.516,1.867-1.1.84,1.427.919,1.25a12.871,12.871,0,0,0,1.349,1.626c.252.273.5.546.746.826a8.964,8.964,0,0,0,.675.63c.155.136.309.272.458.413.118.1.275.241.431.387a5.552,5.552,0,0,0,.68.57c.275.194.512.368.749.542a14.854,14.854,0,0,0,1.9,1.26,27.613,27.613,0,0,0,12.125,3.747,28.431,28.431,0,0,0,12.561-1.691,27.789,27.789,0,0,0,10.383-7.228l.819-.916.078-.087a1.145,1.145,0,0,1,.776-.369,1.055,1.055,0,0,1,.8.276L244.241,227.8a1.768,1.768,0,0,1,.3.364,1.108,1.108,0,0,1-.19,1.283h0l-.409.475a43.246,43.246,0,0,1-4.763,4.8A46.436,46.436,0,0,1,214.453,245.029Z" transform="translate(-183.115 -213.169)" fill="#3c4253"/>
            </g>
            <g id="Grupo_890039" data-name="Grupo 890039" transform="translate(0.001 46.474)">
              <path id="Trazado_606002" data-name="Trazado 606002" d="M188.688,242.6a45.282,45.282,0,0,1-20.733-16.9l-1.761-2.837c-.02-.031-.038-.064-.054-.1l-1.449-2.982a17.368,17.368,0,0,1-1.023-2.449l-.26-.714c-.116-.342-.232-.65-.348-.958a15.085,15.085,0,0,1-.738-2.351l-.8-3.163c-.163-.779-.267-1.516-.368-2.229-.053-.379-.107-.759-.168-1.136l-.245-1.653c-.038-.437-.054-.8-.07-1.169l-.188-3.9,2.163-.1.188,3.911c.015.34.03.68.057,1.021l.235,1.566c.061.379.116.772.171,1.165.1.684.193,1.369.335,2.045l.8,3.169a13.52,13.52,0,0,0,.654,2.069c.123.329.247.658.361.991.081.215.17.463.259.71a15.5,15.5,0,0,0,.91,2.19l1.447,2.975,1.718,2.768a43.088,43.088,0,0,0,19.724,16.061Z" transform="translate(-160.483 -199.952)" fill="#3c4253"/>
            </g>
          </g>
        </g>
        <g id="Grupo_890046" data-name="Grupo 890046" transform="translate(372.562 1.509)">
          <g id="Grupo_890045" data-name="Grupo 890045">
            <g id="Grupo_890042" data-name="Grupo 890042" transform="translate(0 35.169)">
              <path id="Trazado_606003" data-name="Trazado 606003" d="M447.453,245.8H428.361a1.083,1.083,0,0,1-1.083-1.083V207.539h2.166v36.095H446.37v-50.54a1.083,1.083,0,0,1,2.009-.562l25.431,41.807h7.944l25.558-42.929a1.083,1.083,0,0,1,2.014.551l.124,52.753-2.166,0-.116-48.835L483.3,235.975a1.085,1.085,0,0,1-.931.53H473.2a1.084,1.084,0,0,1-.925-.521l-23.74-39.026v47.758A1.082,1.082,0,0,1,447.453,245.8Z" transform="translate(-427.278 -190.881)" fill="#3c4253"/>
            </g>
            <g id="Grupo_890043" data-name="Grupo 890043">
              <path id="Trazado_606004" data-name="Trazado 606004" d="M478.1,215.2a1.082,1.082,0,0,1-.928-.524L444.58,160.567H429.444v2.942h-2.166v-4.025a1.083,1.083,0,0,1,1.083-1.083h16.831a1.082,1.082,0,0,1,.928.524l31.971,53.083,31.481-53.077a1.084,1.084,0,0,1,.932-.531h6.271v2.166H511.12l-32.09,54.1a1.081,1.081,0,0,1-.928.531Z" transform="translate(-427.278 -158.401)" fill="#3c4253"/>
            </g>
            <g id="Grupo_890044" data-name="Grupo 890044" transform="translate(81.09 30.876)">
              <path id="Trazado_606005" data-name="Trazado 606005" d="M521.26,246.127H502.168v-2.166h18.006l-.164-57.039,2.166-.007.167,58.125a1.083,1.083,0,0,1-1.083,1.086Z" transform="translate(-502.168 -186.916)" fill="#3c4253"/>
            </g>
          </g>
        </g>
      </g>
      <g id="Grupo_890048" data-name="Grupo 890048" transform="translate(82.249 253.919)">
        <rect id="Rectángulo_301836" data-name="Rectángulo 301836" width="65.226" height="2.166" transform="translate(0 0)" fill="#3c4253"/>
      </g>
      <g id="Grupo_890049" data-name="Grupo 890049" transform="translate(248.918 252.413)">
        <rect id="Rectángulo_301837" data-name="Rectángulo 301837" width="44.601" height="2.166" transform="translate(0 0)" fill="#3c4253"/>
      </g>
      <g id="Grupo_890050" data-name="Grupo 890050" transform="translate(304.418 252.413)">
        <rect id="Rectángulo_301838" data-name="Rectángulo 301838" width="44.099" height="2.166" transform="translate(0 0)" fill="#3c4253"/>
      </g>
      <g id="Grupo_890051" data-name="Grupo 890051" transform="translate(426.988 252.413)">
        <rect id="Rectángulo_301839" data-name="Rectángulo 301839" width="59.189" height="2.166" transform="translate(0 0)" fill="#3c4253"/>
      </g>
      <g id="Grupo_890052" data-name="Grupo 890052" transform="translate(496.405 252.413)">
        <rect id="Rectángulo_301840" data-name="Rectángulo 301840" width="67.405" height="2.166" transform="translate(0 0)" fill="#3c4253"/>
      </g>
      <g id="Grupo_890053" data-name="Grupo 890053" transform="translate(567.5 252.413)">
        <rect id="Rectángulo_301841" data-name="Rectángulo 301841" width="5.533" height="2.166" transform="translate(0 0)" fill="#3c4253"/>
      </g>
      <g id="Grupo_890054" data-name="Grupo 890054" transform="translate(575.716 252.413)">
        <rect id="Rectángulo_301842" data-name="Rectángulo 301842" width="2.347" height="2.166" transform="translate(0 0)" fill="#3c4253"/>
      </g>
      <g id="Grupo_890060" data-name="Grupo 890060" transform="translate(320.969 238.87)">
        <g id="Grupo_890055" data-name="Grupo 890055" transform="translate(3.095 2.174)">
          <rect id="Rectángulo_301843" data-name="Rectángulo 301843" width="53.591" height="2.166" fill="#3c4253"/>
        </g>
        <g id="Grupo_890057" data-name="Grupo 890057" transform="translate(0 0)">
          <g id="Grupo_890056" data-name="Grupo 890056">
            <path id="Trazado_606006" data-name="Trazado 606006" d="M305.147,233.606a3.257,3.257,0,1,1,3.257-3.257A3.257,3.257,0,0,1,305.147,233.606Z" transform="translate(-301.89 -227.092)" fill="#3c4253"/>
          </g>
        </g>
        <g id="Grupo_890059" data-name="Grupo 890059" transform="translate(53.267)">
          <g id="Grupo_890058" data-name="Grupo 890058">
            <circle id="Elipse_8039" data-name="Elipse 8039" cx="3.257" cy="3.257" r="3.257" fill="#3c4253"/>
          </g>
        </g>
      </g>
      <g id="Grupo_890066" data-name="Grupo 890066" transform="translate(424.941 194.221)">
        <g id="Grupo_890061" data-name="Grupo 890061" transform="translate(3.094 2.175)">
          <rect id="Rectángulo_301844" data-name="Rectángulo 301844" width="33.095" height="2.166" fill="#3c4253"/>
        </g>
        <g id="Grupo_890063" data-name="Grupo 890063">
          <g id="Grupo_890062" data-name="Grupo 890062">
            <path id="Trazado_606007" data-name="Trazado 606007" d="M401.17,192.37a3.257,3.257,0,1,1,3.257-3.257A3.257,3.257,0,0,1,401.17,192.37Z" transform="translate(-397.913 -185.856)" fill="#3c4253"/>
          </g>
        </g>
        <g id="Grupo_890065" data-name="Grupo 890065" transform="translate(32.769)">
          <g id="Grupo_890064" data-name="Grupo 890064">
            <path id="Trazado_606008" data-name="Trazado 606008" d="M431.434,192.37a3.257,3.257,0,1,0-3.257-3.257A3.257,3.257,0,0,0,431.434,192.37Z" transform="translate(-428.177 -185.856)" fill="#3c4253"/>
          </g>
        </g>
      </g>
      <g id="Grupo_890067" data-name="Grupo 890067" transform="translate(112.567 89.141)">
        <circle id="Elipse_8040" data-name="Elipse 8040" cx="3.121" cy="3.121" r="3.121" transform="translate(28.527 0)" fill="#f8cf26"/>
        <path id="Trazado_606009" data-name="Trazado 606009" d="M132.421,102a6.5,6.5,0,0,1,12.993,0Z" transform="translate(-107.517 -88.256)" fill="#f8cf26"/>
        <circle id="Elipse_8041" data-name="Elipse 8041" cx="3.121" cy="3.121" r="3.121" transform="translate(45.17 8.322)" fill="#f8cf26"/>
        <path id="Trazado_606010" data-name="Trazado 606010" d="M148.421,109a6.5,6.5,0,0,1,12.993,0Z" transform="translate(-106.192 -87.677)" fill="#f8cf26"/>
        <circle id="Elipse_8042" data-name="Elipse 8042" cx="3.121" cy="3.121" r="3.121" transform="translate(45.17 43.689)" fill="#f8cf26"/>
        <path id="Trazado_606011" data-name="Trazado 606011" d="M148.421,141a6.5,6.5,0,0,1,12.993,0Z" transform="translate(-106.192 -85.028)" fill="#f8cf26"/>
        <circle id="Elipse_8043" data-name="Elipse 8043" cx="3.121" cy="3.121" r="3.121" transform="translate(28.527 49.93)" fill="#f8cf26"/>
        <path id="Trazado_606012" data-name="Trazado 606012" d="M132.421,148a6.5,6.5,0,1,1,12.993,0Z" transform="translate(-107.517 -84.448)" fill="#f8cf26"/>
        <circle id="Elipse_8044" data-name="Elipse 8044" cx="3.121" cy="3.121" r="3.121" transform="translate(53.492 24.965)" fill="#f8cf26"/>
        <path id="Trazado_606013" data-name="Trazado 606013" d="M155.421,125a6.5,6.5,0,0,1,12.993,0Z" transform="translate(-105.613 -86.352)" fill="#f8cf26"/>
        <path id="Trazado_606014" data-name="Trazado 606014" d="M129.414,109a6.5,6.5,0,0,0-12.993,0Z" transform="translate(-108.842 -87.677)" fill="#f8cf26"/>
        <ellipse id="Elipse_8045" data-name="Elipse 8045" cx="4.161" cy="3.121" rx="4.161" ry="3.121" transform="translate(9.803 43.689)" fill="#f8cf26"/>
        <path id="Trazado_606015" data-name="Trazado 606015" d="M129.414,141a6.5,6.5,0,1,0-12.993,0Z" transform="translate(-108.842 -85.028)" fill="#f8cf26"/>
        <circle id="Elipse_8046" data-name="Elipse 8046" cx="3.121" cy="3.121" r="3.121" transform="translate(3.562 24.965)" fill="#f8cf26"/>
        <ellipse id="Elipse_8047" data-name="Elipse 8047" cx="4.161" cy="3.121" rx="4.161" ry="3.121" transform="translate(9.803 8.322)" fill="#f8cf26"/>
        <path id="Trazado_606016" data-name="Trazado 606016" d="M122.414,125a6.5,6.5,0,0,0-12.993,0Z" transform="translate(-109.421 -86.352)" fill="#f8cf26"/>
        <circle id="Elipse_8048" data-name="Elipse 8048" cx="11.442" cy="11.442" r="11.442" transform="translate(20.205 20.804)" fill="#66cedb"/>
      </g>
      <g id="Grupo_890086" data-name="Grupo 890086" transform="translate(516.344 279.898)">
        <g id="Grupo_890068" data-name="Grupo 890068" transform="translate(0 8.662)">
          <path id="Trazado_606017" data-name="Trazado 606017" d="M515.894,324.957H487.742a5.42,5.42,0,0,1-5.414-5.414V278.4a5.421,5.421,0,0,1,5.414-5.414h28.152a5.421,5.421,0,0,1,5.414,5.414v41.146A5.42,5.42,0,0,1,515.894,324.957Zm-28.152-49.808a3.252,3.252,0,0,0-3.248,3.248v41.146a3.252,3.252,0,0,0,3.248,3.248h28.152a3.252,3.252,0,0,0,3.248-3.248V278.4a3.252,3.252,0,0,0-3.248-3.248Z" transform="translate(-482.328 -272.983)" fill="#66cedb"/>
        </g>
        <g id="Grupo_890069" data-name="Grupo 890069" transform="translate(4.331 4.331)">
          <path id="Trazado_606018" data-name="Trazado 606018" d="M519.894,320.957v-2.166a3.252,3.252,0,0,0,3.248-3.248V274.4a3.252,3.252,0,0,0-3.248-3.248H491.742a3.252,3.252,0,0,0-3.248,3.248h-2.165a5.421,5.421,0,0,1,5.414-5.414h28.152a5.421,5.421,0,0,1,5.414,5.414v41.146A5.42,5.42,0,0,1,519.894,320.957Z" transform="translate(-486.328 -268.983)" fill="#66cedb"/>
        </g>
        <g id="Grupo_890070" data-name="Grupo 890070" transform="translate(8.662)">
          <path id="Trazado_606019" data-name="Trazado 606019" d="M523.894,316.957v-2.166a3.252,3.252,0,0,0,3.248-3.248V270.4a3.252,3.252,0,0,0-3.248-3.248H495.742a3.252,3.252,0,0,0-3.248,3.248h-2.166a5.421,5.421,0,0,1,5.414-5.414h28.152a5.421,5.421,0,0,1,5.414,5.414v41.146A5.42,5.42,0,0,1,523.894,316.957Z" transform="translate(-490.328 -264.983)" fill="#66cedb"/>
        </g>
        <g id="Grupo_890071" data-name="Grupo 890071" transform="translate(4.331 24.904)">
          <path id="Trazado_606020" data-name="Trazado 606020" d="M489.576,294.48a3.248,3.248,0,1,1,3.248-3.248A3.252,3.252,0,0,1,489.576,294.48Zm0-4.331a1.083,1.083,0,1,0,1.083,1.083A1.084,1.084,0,0,0,489.576,290.149Z" transform="translate(-486.328 -287.983)" fill="#f8cf26"/>
        </g>
        <g id="Grupo_890072" data-name="Grupo 890072" transform="translate(10.828 16.242)">
          <path id="Trazado_606021" data-name="Trazado 606021" d="M495.576,286.48a3.248,3.248,0,1,1,3.248-3.248A3.252,3.252,0,0,1,495.576,286.48Zm0-4.331a1.083,1.083,0,1,0,1.083,1.083A1.084,1.084,0,0,0,495.576,282.149Z" transform="translate(-492.328 -279.983)" fill="#f8cf26"/>
        </g>
        <g id="Grupo_890073" data-name="Grupo 890073" transform="translate(19.49 21.656)">
          <path id="Trazado_606022" data-name="Trazado 606022" d="M503.576,291.48a3.248,3.248,0,1,1,3.248-3.248A3.252,3.252,0,0,1,503.576,291.48Zm0-4.331a1.083,1.083,0,1,0,1.083,1.083A1.084,1.084,0,0,0,503.576,287.149Z" transform="translate(-500.328 -284.983)" fill="#f8cf26"/>
        </g>
        <g id="Grupo_890074" data-name="Grupo 890074" transform="translate(28.152 14.076)">
          <path id="Trazado_606023" data-name="Trazado 606023" d="M511.576,284.48a3.248,3.248,0,1,1,3.248-3.248A3.252,3.252,0,0,1,511.576,284.48Zm0-4.331a1.083,1.083,0,1,0,1.083,1.083A1.084,1.084,0,0,0,511.576,280.149Z" transform="translate(-508.328 -277.983)" fill="#f8cf26"/>
        </g>
        <g id="Grupo_890075" data-name="Grupo 890075" transform="translate(7.817 19.897)">
          <rect id="Rectángulo_301845" data-name="Rectángulo 301845" width="6.933" height="2.167" transform="matrix(0.625, -0.781, 0.781, 0.625, 0, 5.414)" fill="#f8cf26"/>
        </g>
        <g id="Grupo_890076" data-name="Grupo 890076" transform="translate(14.602 19.645)">
          <rect id="Rectángulo_301846" data-name="Rectángulo 301846" width="2.166" height="6.314" transform="translate(0 1.857) rotate(-59.036)" fill="#f8cf26"/>
        </g>
        <g id="Grupo_890077" data-name="Grupo 890077" transform="translate(24.139 17.642)">
          <rect id="Rectángulo_301847" data-name="Rectángulo 301847" width="7.656" height="2.165" transform="translate(0 5.414) rotate(-45.002)" fill="#f8cf26"/>
        </g>
        <g id="Grupo_890078" data-name="Grupo 890078" transform="translate(6.497 33.567)">
          <rect id="Rectángulo_301848" data-name="Rectángulo 301848" width="25.987" height="2.166" fill="#34495e"/>
        </g>
        <g id="Grupo_890079" data-name="Grupo 890079" transform="translate(6.497 37.898)">
          <rect id="Rectángulo_301849" data-name="Rectángulo 301849" width="25.987" height="2.166" fill="#34495e"/>
        </g>
        <g id="Grupo_890080" data-name="Grupo 890080" transform="translate(5.414 42.229)">
          <path id="Trazado_606024" data-name="Trazado 606024" d="M493.825,316.976a6.5,6.5,0,1,1,6.5-6.5A6.5,6.5,0,0,1,493.825,316.976Zm0-10.828a4.331,4.331,0,1,0,4.331,4.331A4.336,4.336,0,0,0,493.825,306.149Z" transform="translate(-487.328 -303.983)" fill="#e74c3c"/>
        </g>
        <g id="Grupo_890081" data-name="Grupo 890081" transform="translate(6.497 43.311)">
          <path id="Trazado_606025" data-name="Trazado 606025" d="M493.742,311.48h-5.414v-2.166h4.331v-4.331h2.166V310.4A1.082,1.082,0,0,1,493.742,311.48Z" transform="translate(-488.328 -304.983)" fill="#e74c3c"/>
        </g>
        <g id="Grupo_890082" data-name="Grupo 890082" transform="translate(11.261 47.86)">
          <rect id="Rectángulo_301850" data-name="Rectángulo 301850" width="2.165" height="5.414" transform="matrix(0.6, -0.8, 0.8, 0.6, 0, 1.732)" fill="#e74c3c"/>
        </g>
        <g id="Grupo_890083" data-name="Grupo 890083" transform="translate(20.573 43.312)">
          <rect id="Rectángulo_301851" data-name="Rectángulo 301851" width="11.911" height="2.166" fill="#34495e"/>
        </g>
        <g id="Grupo_890084" data-name="Grupo 890084" transform="translate(20.573 47.643)">
          <rect id="Rectángulo_301852" data-name="Rectángulo 301852" width="11.911" height="2.166" fill="#34495e"/>
        </g>
        <g id="Grupo_890085" data-name="Grupo 890085" transform="translate(20.573 51.974)">
          <rect id="Rectángulo_301853" data-name="Rectángulo 301853" width="11.911" height="2.166" fill="#34495e"/>
        </g>
      </g>
      <g id="Grupo_890096" data-name="Grupo 890096" transform="translate(178.405 280.981)">
        <rect id="Rectángulo_301854" data-name="Rectángulo 301854" width="17.325" height="17.325" transform="translate(1.083)" fill="#66cedb"/>
        <path id="Trazado_606026" data-name="Trazado 606026" d="M227.55,283.308H212.391l-2.166-10.828,9.745-6.5,9.745,6.5Z" transform="translate(-166.914 -265.983)" fill="#f8cf26"/>
        <g id="Grupo_890087" data-name="Grupo 890087" transform="translate(0 44.435)">
          <path id="Trazado_606027" data-name="Trazado 606027" d="M190.8,326.47h-19.49a1.082,1.082,0,0,1-.944-1.613l9.745-17.325a1.127,1.127,0,0,1,1.887,0l9.745,17.325a1.082,1.082,0,0,1-.943,1.613Zm-17.64-2.166h15.788l-7.894-14.033Z" transform="translate(-170.226 -307.021)" fill="#34495e"/>
        </g>
        <circle id="Elipse_8049" data-name="Elipse 8049" cx="9.745" cy="9.745" r="9.745" transform="translate(44.394 43.311)" fill="#e74c3c"/>
        <g id="Grupo_890088" data-name="Grupo 890088" transform="translate(21.656 3.565)">
          <path id="Trazado_606028" data-name="Trazado 606028" d="M194.874,279.469l-4.331-4.331a1.081,1.081,0,0,1,0-1.531l4.331-4.331,1.531,1.531-3.566,3.566,3.566,3.566Z" transform="translate(-190.226 -269.276)" fill="#34495e"/>
        </g>
        <g id="Grupo_890089" data-name="Grupo 890089" transform="translate(22.738 7.58)">
          <rect id="Rectángulo_301855" data-name="Rectángulo 301855" width="17.325" height="2.166" fill="#34495e"/>
        </g>
        <g id="Grupo_890090" data-name="Grupo 890090" transform="translate(21.656 49.042)">
          <path id="Trazado_606029" data-name="Trazado 606029" d="M194.874,321.469l-4.331-4.331a1.081,1.081,0,0,1,0-1.531l4.331-4.331,1.531,1.531-3.566,3.566,3.566,3.566Z" transform="translate(-190.226 -311.276)" fill="#34495e"/>
        </g>
        <g id="Grupo_890091" data-name="Grupo 890091" transform="translate(22.738 53.056)">
          <rect id="Rectángulo_301856" data-name="Rectángulo 301856" width="17.325" height="2.166" fill="#34495e"/>
        </g>
        <g id="Grupo_890092" data-name="Grupo 890092" transform="translate(49.043 21.656)">
          <path id="Trazado_606030" data-name="Trazado 606030" d="M224.181,292.162l-3.566-3.566-3.566,3.566-1.531-1.531,4.331-4.331a1.084,1.084,0,0,1,1.531,0l4.331,4.331Z" transform="translate(-215.519 -285.984)" fill="#34495e"/>
        </g>
        <g id="Grupo_890093" data-name="Grupo 890093" transform="translate(53.056 22.739)">
          <rect id="Rectángulo_301857" data-name="Rectángulo 301857" width="2.166" height="17.325" fill="#34495e"/>
        </g>
        <g id="Grupo_890094" data-name="Grupo 890094" transform="translate(3.566 21.656)">
          <path id="Trazado_606031" data-name="Trazado 606031" d="M182.181,292.162l-3.566-3.566-3.566,3.566-1.531-1.531,4.331-4.331a1.084,1.084,0,0,1,1.531,0l4.331,4.331Z" transform="translate(-173.519 -285.984)" fill="#34495e"/>
        </g>
        <g id="Grupo_890095" data-name="Grupo 890095" transform="translate(7.58 22.739)">
          <rect id="Rectángulo_301858" data-name="Rectángulo 301858" width="2.166" height="17.325" fill="#34495e"/>
        </g>
      </g>
      <g id="Grupo_890122" data-name="Grupo 890122" transform="translate(71.421 264.739)">
        <g id="Grupo_890097" data-name="Grupo 890097">
          <path id="Trazado_606032" data-name="Trazado 606032" d="M90.911,301.874H72.5a1.082,1.082,0,0,1-.766-1.848l4.646-4.647a19.483,19.483,0,0,1,23.189-30.445,14.076,14.076,0,1,1,23.072,10.948,1.081,1.081,0,0,1-1.073.183A19.263,19.263,0,0,0,108.079,276c-.437.16-.867.335-1.289.523a19.463,19.463,0,0,0-10.7,23.469,1.085,1.085,0,0,1-.793,1.372A19.646,19.646,0,0,1,90.911,301.874Zm-15.793-2.166H90.911a17.083,17.083,0,0,0,2.794-.237,21.626,21.626,0,0,1,12.116-24.892c.553-.246,1.03-.44,1.514-.616a21.406,21.406,0,0,1,14.385-.147,11.94,11.94,0,1,0-19.855-7.1,1.083,1.083,0,0,1-1.656,1.062,17.318,17.318,0,0,0-21.548,26.854,1.082,1.082,0,0,1,0,1.531Z" transform="translate(-71.421 -250.983)" fill="#34495e"/>
        </g>
        <g id="Grupo_890098" data-name="Grupo 890098" transform="translate(21.656 21.656)">
          <path id="Trazado_606033" data-name="Trazado 606033" d="M133.65,314.294H113.077a21.655,21.655,0,1,1,16.06-7.128l5.279,5.28a1.083,1.083,0,0,1-.766,1.848Zm-20.573-41.146a19.49,19.49,0,1,0,0,38.98h17.959l-4.177-4.177a1.082,1.082,0,0,1,0-1.531,19.49,19.49,0,0,0-13.782-33.272Z" transform="translate(-91.421 -270.983)" fill="#34495e"/>
        </g>
        <g id="Grupo_890099" data-name="Grupo 890099" transform="translate(0 11.911)">
          <path id="Trazado_606034" data-name="Trazado 606034" d="M90.911,300.963H72.5a1.083,1.083,0,0,1-.766-1.848l4.646-4.647a19.488,19.488,0,1,1,32.355-20.852,1.082,1.082,0,0,1-.623,1.455,19.468,19.468,0,0,0-12.024,24.007,1.085,1.085,0,0,1-.793,1.372A19.646,19.646,0,0,1,90.911,300.963ZM75.118,298.8H90.911a17.073,17.073,0,0,0,2.794-.237,21.628,21.628,0,0,1,12.564-25.089,17.321,17.321,0,1,0-27.608,20.252,1.082,1.082,0,0,1,0,1.531Z" transform="translate(-71.421 -261.983)" fill="#34495e"/>
        </g>
        <g id="Grupo_890100" data-name="Grupo 890100" transform="translate(32.484 31.401)">
          <rect id="Rectángulo_301859" data-name="Rectángulo 301859" width="11.911" height="2.166" fill="#66cedb"/>
        </g>
        <g id="Grupo_890101" data-name="Grupo 890101" transform="translate(46.56 31.401)">
          <rect id="Rectángulo_301860" data-name="Rectángulo 301860" width="7.579" height="2.166" fill="#66cedb"/>
        </g>
        <g id="Grupo_890102" data-name="Grupo 890102" transform="translate(30.318 36.815)">
          <rect id="Rectángulo_301861" data-name="Rectángulo 301861" width="7.579" height="2.166" fill="#66cedb"/>
        </g>
        <g id="Grupo_890103" data-name="Grupo 890103" transform="translate(40.063 36.815)">
          <rect id="Rectángulo_301862" data-name="Rectángulo 301862" width="17.325" height="2.166" fill="#66cedb"/>
        </g>
        <g id="Grupo_890104" data-name="Grupo 890104" transform="translate(28.152 42.229)">
          <rect id="Rectángulo_301863" data-name="Rectángulo 301863" width="5.414" height="2.166" fill="#66cedb"/>
        </g>
        <g id="Grupo_890105" data-name="Grupo 890105" transform="translate(35.732 42.229)">
          <rect id="Rectángulo_301864" data-name="Rectángulo 301864" width="9.745" height="2.166" fill="#66cedb"/>
        </g>
        <g id="Grupo_890106" data-name="Grupo 890106" transform="translate(47.643 42.229)">
          <rect id="Rectángulo_301865" data-name="Rectángulo 301865" width="11.911" height="2.166" fill="#66cedb"/>
        </g>
        <g id="Grupo_890107" data-name="Grupo 890107" transform="translate(29.235 47.643)">
          <rect id="Rectángulo_301866" data-name="Rectángulo 301866" width="23.821" height="2.166" fill="#66cedb"/>
        </g>
        <g id="Grupo_890108" data-name="Grupo 890108" transform="translate(55.222 47.643)">
          <rect id="Rectángulo_301867" data-name="Rectángulo 301867" width="3.248" height="2.166" fill="#66cedb"/>
        </g>
        <g id="Grupo_890109" data-name="Grupo 890109" transform="translate(31.401 53.057)">
          <rect id="Rectángulo_301868" data-name="Rectángulo 301868" width="9.745" height="2.166" fill="#66cedb"/>
        </g>
        <g id="Grupo_890110" data-name="Grupo 890110" transform="translate(43.311 53.057)">
          <rect id="Rectángulo_301869" data-name="Rectángulo 301869" width="11.911" height="2.166" fill="#66cedb"/>
        </g>
        <g id="Grupo_890111" data-name="Grupo 890111" transform="translate(11.911 19.491)">
          <rect id="Rectángulo_301870" data-name="Rectángulo 301870" width="11.911" height="2.166" fill="#f8cf26"/>
        </g>
        <g id="Grupo_890112" data-name="Grupo 890112" transform="translate(25.987 19.491)">
          <rect id="Rectángulo_301871" data-name="Rectángulo 301871" width="4.331" height="2.166" fill="#f8cf26"/>
        </g>
        <g id="Grupo_890113" data-name="Grupo 890113" transform="translate(7.58 24.904)">
          <rect id="Rectángulo_301872" data-name="Rectángulo 301872" width="18.407" height="2.166" fill="#f8cf26"/>
        </g>
        <g id="Grupo_890114" data-name="Grupo 890114" transform="translate(7.58 30.318)">
          <rect id="Rectángulo_301873" data-name="Rectángulo 301873" width="5.414" height="2.166" fill="#f8cf26"/>
        </g>
        <g id="Grupo_890115" data-name="Grupo 890115" transform="translate(15.159 30.318)">
          <rect id="Rectángulo_301874" data-name="Rectángulo 301874" width="7.579" height="2.166" fill="#f8cf26"/>
        </g>
        <g id="Grupo_890116" data-name="Grupo 890116" transform="translate(8.662 35.709)">
          <rect id="Rectángulo_301875" data-name="Rectángulo 301875" width="10.828" height="2.166" fill="#f8cf26"/>
        </g>
        <g id="Grupo_890117" data-name="Grupo 890117" transform="translate(10.828 41.146)">
          <rect id="Rectángulo_301876" data-name="Rectángulo 301876" width="7.579" height="2.166" fill="#f8cf26"/>
        </g>
        <g id="Grupo_890118" data-name="Grupo 890118" transform="translate(35.732 6.497)">
          <rect id="Rectángulo_301877" data-name="Rectángulo 301877" width="8.662" height="2.166" fill="#e74c3c"/>
        </g>
        <g id="Grupo_890119" data-name="Grupo 890119" transform="translate(46.56 6.497)">
          <rect id="Rectángulo_301878" data-name="Rectángulo 301878" width="3.248" height="2.166" fill="#e74c3c"/>
        </g>
        <g id="Grupo_890120" data-name="Grupo 890120" transform="translate(33.566 11.911)">
          <rect id="Rectángulo_301879" data-name="Rectángulo 301879" width="16.242" height="2.166" fill="#e74c3c"/>
        </g>
        <g id="Grupo_890121" data-name="Grupo 890121" transform="translate(37.898 17.325)">
          <rect id="Rectángulo_301880" data-name="Rectángulo 301880" width="11.911" height="2.166" fill="#e74c3c"/>
        </g>
      </g>
      <g id="Grupo_890138" data-name="Grupo 890138" transform="translate(288.487 271.777)">
        <g id="Grupo_890123" data-name="Grupo 890123" transform="translate(4.331 25.987)">
          <path id="Trazado_606035" data-name="Trazado 606035" d="M282.388,294.476a6.5,6.5,0,1,1,6.5-6.5A6.5,6.5,0,0,1,282.388,294.476Zm0-10.828a4.331,4.331,0,1,0,4.331,4.331A4.335,4.335,0,0,0,282.388,283.649Z" transform="translate(-275.891 -281.483)" fill="#e74c3c"/>
        </g>
        <g id="Grupo_890124" data-name="Grupo 890124" transform="translate(4.331 42.229)">
          <path id="Trazado_606036" data-name="Trazado 606036" d="M282.388,319.221h-5.414a1.082,1.082,0,0,1-1.083-1.083V296.483h2.166v20.573H281.3V305.145h2.166v12.993A1.083,1.083,0,0,1,282.388,319.221Z" transform="translate(-275.891 -296.483)" fill="#e74c3c"/>
        </g>
        <g id="Grupo_890125" data-name="Grupo 890125" transform="translate(0 36.815)">
          <path id="Trazado_606037" data-name="Trazado 606037" d="M288.133,319.635h-5.414a1.082,1.082,0,0,1-1.083-1.083V305.559H283.8V317.47h3.248V296.9a1.083,1.083,0,0,1,1.083-1.083h9.745v-2.166H277.3a3.252,3.252,0,0,0-3.248,3.248v6.5H277.3v2.166h-4.331a1.082,1.082,0,0,1-1.083-1.083V296.9a5.421,5.421,0,0,1,5.414-5.414h21.656a1.083,1.083,0,0,1,1.083,1.083V296.9a1.083,1.083,0,0,1-1.083,1.083h-9.745v20.573A1.082,1.082,0,0,1,288.133,319.635Z" transform="translate(-271.891 -291.483)" fill="#e74c3c"/>
        </g>
        <g id="Grupo_890126" data-name="Grupo 890126" transform="translate(47.642 25.987)">
          <path id="Trazado_606038" data-name="Trazado 606038" d="M322.388,294.476a6.5,6.5,0,1,1,6.5-6.5A6.5,6.5,0,0,1,322.388,294.476Zm0-10.828a4.331,4.331,0,1,0,4.331,4.331A4.335,4.335,0,0,0,322.388,283.649Z" transform="translate(-315.891 -281.483)" fill="#66cedb"/>
        </g>
        <g id="Grupo_890127" data-name="Grupo 890127" transform="translate(43.311 36.815)">
          <path id="Trazado_606039" data-name="Trazado 606039" d="M332.464,305.559h-4.331v-2.166h3.248v-6.5a3.252,3.252,0,0,0-3.248-3.248H317.3a3.252,3.252,0,0,0-3.248,3.248v6.5H317.3v2.166h-4.331a1.082,1.082,0,0,1-1.083-1.083V296.9a5.421,5.421,0,0,1,5.414-5.414h10.828a5.421,5.421,0,0,1,5.414,5.414v7.579A1.082,1.082,0,0,1,332.464,305.559Z" transform="translate(-311.891 -291.483)" fill="#66cedb"/>
        </g>
        <g id="Grupo_890128" data-name="Grupo 890128" transform="translate(47.642 42.229)">
          <path id="Trazado_606040" data-name="Trazado 606040" d="M322.388,319.221h-5.414a1.082,1.082,0,0,1-1.083-1.083V296.483h2.166v20.573H321.3V305.145h2.166v12.993A1.083,1.083,0,0,1,322.388,319.221Z" transform="translate(-315.891 -296.483)" fill="#66cedb"/>
        </g>
        <g id="Grupo_890129" data-name="Grupo 890129" transform="translate(53.056 42.229)">
          <path id="Trazado_606041" data-name="Trazado 606041" d="M327.388,319.221h-5.414a1.082,1.082,0,0,1-1.083-1.083V305.145h2.165v11.911H326.3V296.483h2.166v21.656A1.083,1.083,0,0,1,327.388,319.221Z" transform="translate(-320.891 -296.483)" fill="#66cedb"/>
        </g>
        <g id="Grupo_890130" data-name="Grupo 890130" transform="translate(31.401)">
          <path id="Trazado_606042" data-name="Trazado 606042" d="M314.967,285.635a1.079,1.079,0,0,1-.766-.317l-6.179-6.179h-6.048a1.082,1.082,0,0,1-1.083-1.083v-6.908a1.083,1.083,0,0,1,1.9-.712,3.2,3.2,0,0,0,2.433,1.124,3.248,3.248,0,1,0,0-6.5,3.2,3.2,0,0,0-2.433,1.124,1.083,1.083,0,0,1-1.9-.714v-6.907a1.083,1.083,0,0,1,1.083-1.083h25.987a1.083,1.083,0,0,1,1.083,1.083v19.49a1.082,1.082,0,0,1-1.083,1.083H316.05v5.414a1.081,1.081,0,0,1-.669,1A1.067,1.067,0,0,1,314.967,285.635Zm-11.911-8.662h5.414a1.086,1.086,0,0,1,.766.317l4.648,4.648v-3.883a1.082,1.082,0,0,1,1.083-1.083h11.911V259.649H303.057v3.711a5.331,5.331,0,0,1,2.166-.462,5.414,5.414,0,0,1,0,10.828,5.33,5.33,0,0,1-2.166-.461Z" transform="translate(-300.891 -257.483)" fill="#66cedb"/>
        </g>
        <g id="Grupo_890131" data-name="Grupo 890131" transform="translate(5.414)">
          <path id="Trazado_606043" data-name="Trazado 606043" d="M290.967,285.635a1.068,1.068,0,0,1-.415-.082,1.081,1.081,0,0,1-.668-1v-5.414H277.974a1.082,1.082,0,0,1-1.083-1.083v-19.49a1.082,1.082,0,0,1,1.083-1.083h25.987a1.083,1.083,0,0,1,1.083,1.083v4.793a5.331,5.331,0,0,1,2.166-.462,5.414,5.414,0,0,1,0,10.828,5.33,5.33,0,0,1-2.166-.461v4.792a1.082,1.082,0,0,1-1.083,1.083h-6.048l-6.179,6.179A1.08,1.08,0,0,1,290.967,285.635Zm-11.911-8.662h11.911a1.083,1.083,0,0,1,1.083,1.083v3.883l4.648-4.648a1.083,1.083,0,0,1,.766-.317h5.414v-5.825a1.083,1.083,0,0,1,1.9-.712,3.2,3.2,0,0,0,2.433,1.124,3.248,3.248,0,1,0,0-6.5,3.2,3.2,0,0,0-2.433,1.124,1.083,1.083,0,0,1-1.9-.714v-5.824H279.057Z" transform="translate(-276.891 -257.483)" fill="#e74c3c"/>
        </g>
        <g id="Grupo_890132" data-name="Grupo 890132" transform="translate(10.827 5.414)">
          <rect id="Rectángulo_301881" data-name="Rectángulo 301881" width="17.325" height="2.166" fill="#e74c3c"/>
        </g>
        <g id="Grupo_890133" data-name="Grupo 890133" transform="translate(10.827 9.745)">
          <rect id="Rectángulo_301882" data-name="Rectángulo 301882" width="17.325" height="2.166" fill="#e74c3c"/>
        </g>
        <g id="Grupo_890134" data-name="Grupo 890134" transform="translate(10.827 14.077)">
          <rect id="Rectángulo_301883" data-name="Rectángulo 301883" width="17.325" height="2.166" fill="#e74c3c"/>
        </g>
        <g id="Grupo_890135" data-name="Grupo 890135" transform="translate(44.394 5.414)">
          <rect id="Rectángulo_301884" data-name="Rectángulo 301884" width="9.745" height="2.166" fill="#66cedb"/>
        </g>
        <g id="Grupo_890136" data-name="Grupo 890136" transform="translate(44.394 9.745)">
          <rect id="Rectángulo_301885" data-name="Rectángulo 301885" width="9.745" height="2.166" fill="#66cedb"/>
        </g>
        <g id="Grupo_890137" data-name="Grupo 890137" transform="translate(44.394 14.077)">
          <rect id="Rectángulo_301886" data-name="Rectángulo 301886" width="9.745" height="2.166" fill="#66cedb"/>
        </g>
      </g>
      <g id="Grupo_890144" data-name="Grupo 890144" transform="translate(529.338 102.34)">
        <path id="Trazado_606044" data-name="Trazado 606044" d="M505.328,118l3.248,8.662L511.825,118Z" transform="translate(-493.417 -99.593)" fill="#e74c3c"/>
        <g id="Grupo_890139" data-name="Grupo 890139" transform="translate(6.497 2.166)">
          <path id="Trazado_606045" data-name="Trazado 606045" d="M508.99,120.325a8.662,8.662,0,1,1,8.662-8.662A8.672,8.672,0,0,1,508.99,120.325Zm0-15.159a6.5,6.5,0,1,0,6.5,6.5A6.5,6.5,0,0,0,508.99,105.166Z" transform="translate(-500.328 -103)" fill="#66cedb"/>
        </g>
        <g id="Grupo_890140" data-name="Grupo 890140" transform="translate(6.497 24.904)">
          <path id="Trazado_606046" data-name="Trazado 606046" d="M508.99,162.98h-7.579a1.082,1.082,0,0,1-1.083-1.083V124h2.166v36.815h5.414V138.076h2.165V161.9A1.082,1.082,0,0,1,508.99,162.98Z" transform="translate(-500.328 -124)" fill="#66cedb"/>
        </g>
        <g id="Grupo_890141" data-name="Grupo 890141" transform="translate(14.076 24.904)">
          <path id="Trazado_606047" data-name="Trazado 606047" d="M515.99,162.98h-7.579a1.082,1.082,0,0,1-1.083-1.083V138.076h2.165v22.738h5.414V124h2.166v37.9A1.082,1.082,0,0,1,515.99,162.98Z" transform="translate(-507.328 -124)" fill="#66cedb"/>
        </g>
        <g id="Grupo_890142" data-name="Grupo 890142" transform="translate(0 17.325)">
          <path id="Trazado_606048" data-name="Trazado 606048" d="M501.907,140.821h-6.5a1.082,1.082,0,0,1-1.083-1.083V124.579A7.588,7.588,0,0,1,501.907,117h15.159a7.589,7.589,0,0,1,7.58,7.579v5.414h5.414a1.083,1.083,0,0,1,1.083,1.083v6.5a1.083,1.083,0,0,1-1.083,1.083H521.4a5.42,5.42,0,0,1-5.414-5.414v-3.248h2.166v3.248a3.252,3.252,0,0,0,3.248,3.248h7.579v-4.331h-5.414a1.083,1.083,0,0,1-1.083-1.083v-6.5a5.42,5.42,0,0,0-5.414-5.414H501.907a5.42,5.42,0,0,0-5.414,5.414v14.076h5.414Z" transform="translate(-494.328 -117)" fill="#66cedb"/>
        </g>
        <rect id="Rectángulo_301887" data-name="Rectángulo 301887" width="4.331" height="62.801" transform="translate(35.732)" fill="#34495e"/>
        <path id="Trazado_606049" data-name="Trazado 606049" d="M531.328,101l23.821,9.745-23.821,9.745Z" transform="translate(-491.265 -101)" fill="#e74c3c"/>
        <g id="Grupo_890143" data-name="Grupo 890143" transform="translate(14.076 30.318)">
          <rect id="Rectángulo_301888" data-name="Rectángulo 301888" width="2.166" height="2.166" fill="#e74c3c"/>
        </g>
      </g>
      <g id="Grupo_890159" data-name="Grupo 890159" transform="translate(391.3 103.964)">
        <path id="Trazado_606050" data-name="Trazado 606050" d="M425.268,122.707a7.569,7.569,0,0,0-8.834-11.156,7.559,7.559,0,0,0-11.327-4.673,7.567,7.567,0,0,0-13.724,0,7.559,7.559,0,0,0-11.327,4.673,7.569,7.569,0,0,0-8.834,11.156,7.575,7.575,0,0,0,3.2,14.442h37.9a9.745,9.745,0,0,0,9.745,9.745v-9.745a7.575,7.575,0,0,0,3.2-14.442Z" transform="translate(-366.844 -102.5)" fill="#f8cf26"/>
        <g id="Grupo_890151" data-name="Grupo 890151" transform="translate(17.325 10.828)">
          <g id="Grupo_890145" data-name="Grupo 890145">
            <path id="Trazado_606051" data-name="Trazado 606051" d="M394.755,136.321h-2.165v-7l-9.263-6.174a1.083,1.083,0,0,1-.482-.9V119a6.492,6.492,0,0,1,11.044-4.633,1.081,1.081,0,0,1,0,1.545,4.319,4.319,0,0,0,0,6.176l-1.516,1.544a6.483,6.483,0,0,1-.789-8.334,4.281,4.281,0,0,0-2.242-.629A4.335,4.335,0,0,0,385.01,119v2.67l9.262,6.174a1.083,1.083,0,0,1,.483.9Z" transform="translate(-382.844 -112.5)" fill="#fff"/>
          </g>
          <g id="Grupo_890146" data-name="Grupo 890146" transform="translate(9.204)">
            <path id="Trazado_606052" data-name="Trazado 606052" d="M399.248,123.629a6.483,6.483,0,0,1-.789-8.334,4.4,4.4,0,0,0-4.486,0,6.481,6.481,0,0,1-.788,8.334l-1.516-1.544a4.319,4.319,0,0,0,0-6.176,1.081,1.081,0,0,1,0-1.545,6.481,6.481,0,0,1,9.1,0,1.081,1.081,0,0,1,0,1.545,4.319,4.319,0,0,0,0,6.176Z" transform="translate(-391.344 -112.5)" fill="#fff"/>
          </g>
          <g id="Grupo_890147" data-name="Grupo 890147" transform="translate(7.579 1.554)">
            <path id="Trazado_606053" data-name="Trazado 606053" d="M392.551,123.821a1.078,1.078,0,0,1-.758-.311,6.479,6.479,0,0,1,0-9.264,1.081,1.081,0,0,1,1.516,0,6.479,6.479,0,0,1,0,9.264A1.078,1.078,0,0,1,392.551,123.821Zm0-7.038a4.325,4.325,0,0,0,0,4.19,4.325,4.325,0,0,0,0-4.19Z" transform="translate(-389.844 -113.935)" fill="#fff"/>
          </g>
          <g id="Grupo_890148" data-name="Grupo 890148" transform="translate(16.783)">
            <path id="Trazado_606054" data-name="Trazado 606054" d="M400.185,123.629l-1.516-1.544a4.319,4.319,0,0,0,0-6.176,1.081,1.081,0,0,1,0-1.545,6.481,6.481,0,0,1,9.1,0l-1.516,1.546a4.413,4.413,0,0,0-5.275-.615,6.481,6.481,0,0,1-.788,8.334Z" transform="translate(-398.344 -112.5)" fill="#fff"/>
          </g>
          <g id="Grupo_890149" data-name="Grupo 890149" transform="translate(15.159 1.554)">
            <path id="Trazado_606055" data-name="Trazado 606055" d="M399.551,123.821a1.078,1.078,0,0,1-.758-.311,6.479,6.479,0,0,1,0-9.264,1.081,1.081,0,0,1,1.516,0,6.479,6.479,0,0,1,0,9.264A1.078,1.078,0,0,1,399.551,123.821Zm0-7.038a4.325,4.325,0,0,0,0,4.19,4.325,4.325,0,0,0,0-4.19Z" transform="translate(-396.844 -113.935)" fill="#fff"/>
          </g>
          <g id="Grupo_890150" data-name="Grupo 890150" transform="translate(16.242 1.865)">
            <path id="Trazado_606056" data-name="Trazado 606056" d="M400.01,136.179h-2.166V128.6a1.084,1.084,0,0,1,.482-.9l9.263-6.175v-2.669a4.3,4.3,0,0,0-1.3-3.088l1.516-1.544a6.442,6.442,0,0,1,1.949,4.632V122.1a1.082,1.082,0,0,1-.483.9l-9.262,6.175Z" transform="translate(-397.844 -114.222)" fill="#fff"/>
          </g>
        </g>
        <g id="Grupo_890152" data-name="Grupo 890152" transform="translate(23.821 33.566)">
          <path id="Trazado_606057" data-name="Trazado 606057" d="M400.213,141.079h-7.58a3.79,3.79,0,0,1,0-7.579h7.58a3.79,3.79,0,1,1,0,7.579Zm-7.58-5.414a1.624,1.624,0,0,0,0,3.248h7.58a1.624,1.624,0,0,0,0-3.248Z" transform="translate(-388.844 -133.5)" fill="#34495e"/>
        </g>
        <g id="Grupo_890153" data-name="Grupo 890153" transform="translate(23.821 38.98)">
          <path id="Trazado_606058" data-name="Trazado 606058" d="M400.213,146.08h-7.58a3.79,3.79,0,0,1,0-7.58h7.58a3.79,3.79,0,1,1,0,7.58Zm-7.58-5.414a1.624,1.624,0,1,0,0,3.248h7.58a1.624,1.624,0,0,0,0-3.248Z" transform="translate(-388.844 -138.5)" fill="#34495e"/>
        </g>
        <g id="Grupo_890154" data-name="Grupo 890154" transform="translate(23.821 44.394)">
          <path id="Trazado_606059" data-name="Trazado 606059" d="M400.213,151.079h-7.58a3.79,3.79,0,0,1,0-7.579h7.58a3.79,3.79,0,1,1,0,7.579Zm-7.58-5.414a1.624,1.624,0,1,0,0,3.248h7.58a1.624,1.624,0,0,0,0-3.248Z" transform="translate(-388.844 -143.5)" fill="#34495e"/>
        </g>
        <g id="Grupo_890155" data-name="Grupo 890155" transform="translate(27.07 50.891)">
          <path id="Trazado_606060" data-name="Trazado 606060" d="M396.175,153.831a4.336,4.336,0,0,1-4.331-4.331h2.166a2.166,2.166,0,1,0,4.331,0h2.166A4.335,4.335,0,0,1,396.175,153.831Z" transform="translate(-391.844 -149.5)" fill="#34495e"/>
        </g>
        <g id="Grupo_890156" data-name="Grupo 890156" transform="translate(18.407 37.897)">
          <rect id="Rectángulo_301889" data-name="Rectángulo 301889" width="2.166" height="2.166" fill="#66cedb"/>
        </g>
        <g id="Grupo_890157" data-name="Grupo 890157" transform="translate(14.076 37.897)">
          <rect id="Rectángulo_301890" data-name="Rectángulo 301890" width="2.166" height="2.166" fill="#66cedb"/>
        </g>
        <g id="Grupo_890158" data-name="Grupo 890158" transform="translate(9.745 37.897)">
          <rect id="Rectángulo_301891" data-name="Rectángulo 301891" width="2.166" height="2.166" fill="#66cedb"/>
        </g>
      </g>
      <g id="Grupo_890164" data-name="Grupo 890164" transform="translate(403.073 272.319)">
        <g id="Grupo_890160" data-name="Grupo 890160" transform="translate(24.438 5.52)">
          <path id="Trazado_606061" data-name="Trazado 606061" d="M421.794,275.278l-1.954-.932.93-1.953,1.956.931Zm-3.91-1.861-1.957-.931.931-1.957,1.955.931Zm-3.911-1.863-1.956-.931.93-1.954,1.956.932Zm-3.911-1.862-1.954-.931.93-1.953,1.955.931Zm-3.91-1.861L404.2,266.9l.931-1.953,1.955.931Zm-3.91-1.862-1.955-.931.93-1.954,1.955.931Z" transform="translate(-400.287 -263.081)" fill="#3c4253"/>
        </g>
        <g id="Grupo_890161" data-name="Grupo 890161" transform="translate(15.776 25.01)">
          <path id="Trazado_606062" data-name="Trazado 606062" d="M413.794,293.277l-1.954-.932.93-1.953,1.955.931Zm-3.91-1.861-1.957-.931.931-1.957,1.955.931Zm-3.911-1.863-1.956-.931.93-1.954,1.955.932Zm-3.911-1.862-1.954-.931.93-1.953,1.956.931Zm-3.91-1.861L396.2,284.9l.931-1.953,1.954.931Zm-3.91-1.862-1.956-.931.93-1.954,1.956.931Z" transform="translate(-392.287 -281.081)" fill="#3c4253"/>
        </g>
        <g id="Grupo_890162" data-name="Grupo 890162" transform="translate(24.381 43.877)">
          <path id="Trazado_606063" data-name="Trazado 606063" d="M401.279,311.882l-1.045-1.9,1.9-1.043,1.045,1.9Zm3.8-2.087-1.045-1.9,1.9-1.044,1.045,1.9Zm3.8-2.088-1.045-1.9,1.9-1.044,1.045,1.9Zm3.8-2.088-1.045-1.9,1.9-1.044,1.045,1.9Zm3.8-2.088-1.045-1.9,1.9-1.044,1.045,1.9Zm3.8-2.087-1.045-1.9,1.9-1.044,1.045,1.9Z" transform="translate(-400.234 -298.505)" fill="#3c4253"/>
        </g>
        <g id="Grupo_890163" data-name="Grupo 890163" transform="translate(16.503 25.038)">
          <path id="Trazado_606064" data-name="Trazado 606064" d="M394,294.485l-1.045-1.9,1.9-1.044,1.045,1.9Zm3.8-2.088-1.045-1.9,1.9-1.044,1.045,1.9Zm3.8-2.088-1.045-1.9,1.9-1.043,1.045,1.9Zm3.794-2.087-1.044-1.9,1.9-1.044,1.044,1.9Zm3.8-2.088-1.045-1.9,1.9-1.044,1.045,1.9Zm3.8-2.088-1.045-1.9,1.9-1.044,1.045,1.9Z" transform="translate(-392.958 -281.107)" fill="#3c4253"/>
        </g>
        <path id="Trazado_606065" data-name="Trazado 606065" d="M398.038,271.936a8.607,8.607,0,0,1-1.018,2.457l1.965,2.855a11.969,11.969,0,0,1-2,2l-2.855-1.965a8.559,8.559,0,0,1-2.456,1.018l-.629,3.41a11.039,11.039,0,0,1-2.827,0l-.628-3.41a8.564,8.564,0,0,1-2.457-1.018l-2.855,1.965a11.922,11.922,0,0,1-2-2l1.965-2.855a8.546,8.546,0,0,1-1.018-2.457l-3.41-.628a11.037,11.037,0,0,1,0-2.828l3.41-.628a8.574,8.574,0,0,1,1.018-2.457l-1.965-2.854a12.008,12.008,0,0,1,2-2l2.855,1.965a8.62,8.62,0,0,1,2.457-1.018l.628-3.409a10.908,10.908,0,0,1,2.827,0l.629,3.409a8.616,8.616,0,0,1,2.456,1.018l2.855-1.965a12.017,12.017,0,0,1,2,2L397.02,265.4a8.615,8.615,0,0,1,1.018,2.456l3.408.629a10.9,10.9,0,0,1,0,2.827Zm-8.41-6.373a4.331,4.331,0,1,0,4.331,4.331A4.331,4.331,0,0,0,389.628,265.562Z" transform="translate(-377.717 -257.983)" fill="#e74c3c"/>
        <path id="Trazado_606066" data-name="Trazado 606066" d="M434.038,289.936a8.614,8.614,0,0,1-1.018,2.457l1.965,2.855a11.974,11.974,0,0,1-2,2l-2.855-1.965a8.556,8.556,0,0,1-2.456,1.018l-.629,3.41a11.028,11.028,0,0,1-2.827,0l-.628-3.41a8.563,8.563,0,0,1-2.457-1.018l-2.855,1.965a11.924,11.924,0,0,1-2-2l1.965-2.855a8.549,8.549,0,0,1-1.018-2.457l-3.41-.628a11.044,11.044,0,0,1,0-2.828l3.41-.628a8.574,8.574,0,0,1,1.018-2.457l-1.965-2.854a12.007,12.007,0,0,1,2-2l2.855,1.965a8.625,8.625,0,0,1,2.457-1.018l.628-3.409a10.9,10.9,0,0,1,2.827,0l.629,3.409a8.618,8.618,0,0,1,2.456,1.018l2.855-1.965a12.019,12.019,0,0,1,2,2L433.02,283.4a8.62,8.62,0,0,1,1.018,2.456l3.409.629a10.9,10.9,0,0,1,0,2.827Zm-8.41-6.373a4.331,4.331,0,1,0,4.331,4.331A4.331,4.331,0,0,0,425.628,283.563Z" transform="translate(-374.737 -256.493)" fill="#f1c410"/>
        <path id="Trazado_606067" data-name="Trazado 606067" d="M398.038,307.936a8.607,8.607,0,0,1-1.018,2.457l1.965,2.855a11.973,11.973,0,0,1-2,2l-2.855-1.965a8.56,8.56,0,0,1-2.456,1.018l-.629,3.41a11.032,11.032,0,0,1-2.827,0l-.628-3.41a8.565,8.565,0,0,1-2.457-1.018l-2.855,1.965a11.925,11.925,0,0,1-2-2l1.965-2.855a8.547,8.547,0,0,1-1.018-2.457l-3.41-.628a11.036,11.036,0,0,1,0-2.828l3.41-.628a8.575,8.575,0,0,1,1.018-2.457l-1.965-2.854a12.012,12.012,0,0,1,2-2l2.855,1.965a8.624,8.624,0,0,1,2.457-1.018l.628-3.409a10.912,10.912,0,0,1,2.827,0l.629,3.409a8.619,8.619,0,0,1,2.456,1.018l2.855-1.965a12.02,12.02,0,0,1,2,2L397.02,301.4a8.616,8.616,0,0,1,1.018,2.456l3.408.629a10.9,10.9,0,0,1,0,2.827Zm-8.41-6.373a4.331,4.331,0,1,0,4.331,4.331A4.331,4.331,0,0,0,389.628,301.562Z" transform="translate(-377.717 -255.003)" fill="#66cedb"/>
      </g>
      <g id="Grupo_890188" data-name="Grupo 890188" transform="translate(264.983 91.829)">
        <g id="Grupo_890165" data-name="Grupo 890165" transform="translate(33.249 33.249)">
          <path id="Trazado_606068" data-name="Trazado 606068" d="M294.2,148.752l-12.993-12.993a1.081,1.081,0,0,1,0-1.531l11.911-11.911a1.081,1.081,0,0,1,1.531,0l12.993,12.993-1.531,1.531-12.228-12.228-10.38,10.38,12.228,12.228Z" transform="translate(-280.891 -122)" fill="#e74c3c"/>
        </g>
        <g id="Grupo_890166" data-name="Grupo 890166" transform="translate(0 34.332)">
          <path id="Trazado_606069" data-name="Trazado 606069" d="M263.626,148.67l-1.531-1.531,11.145-11.145-10.38-10.38-11.145,11.145-1.531-1.531,11.911-11.911a1.082,1.082,0,0,1,1.531,0l11.911,11.911a1.084,1.084,0,0,1,0,1.531Z" transform="translate(-250.184 -123)" fill="#e74c3c"/>
        </g>
        <g id="Grupo_890167" data-name="Grupo 890167" transform="translate(33.249 0)">
          <path id="Trazado_606070" data-name="Trazado 606070" d="M293.884,118.045a1.08,1.08,0,0,1-.766-.317l-11.911-11.911a1.081,1.081,0,0,1,0-1.531L294.2,91.293l1.531,1.531L283.5,105.052l10.38,10.38L306.112,103.2l1.531,1.531L294.65,117.728A1.083,1.083,0,0,1,293.884,118.045Z" transform="translate(-280.891 -91.293)" fill="#e74c3c"/>
        </g>
        <g id="Grupo_890168" data-name="Grupo 890168" transform="translate(0 0)">
          <path id="Trazado_606071" data-name="Trazado 606071" d="M259.612,113.714a1.08,1.08,0,0,1-.766-.317l-8.662-8.662,1.531-1.531,7.9,7.9,10.38-10.38-7.9-7.9,1.531-1.531,8.662,8.662a1.083,1.083,0,0,1,0,1.531L260.377,113.4A1.083,1.083,0,0,1,259.612,113.714Z" transform="translate(-250.184 -91.293)" fill="#e74c3c"/>
        </g>
        <g id="Grupo_890169" data-name="Grupo 890169" transform="translate(22.421 35.415)">
          <path id="Trazado_606072" data-name="Trazado 606072" d="M282.8,135.911h-4.331a1.078,1.078,0,0,1-.765-.317l-6.5-6.5a1.08,1.08,0,0,1-.317-.766V124h2.166v3.883l5.862,5.862H282.8Z" transform="translate(-270.891 -124)" fill="#e74c3c"/>
        </g>
        <g id="Grupo_890170" data-name="Grupo 890170" transform="translate(12.676 21.338)">
          <path id="Trazado_606073" data-name="Trazado 606073" d="M275.2,129.09l-12.321-12.321a3.379,3.379,0,1,1,4.778-4.779l7.991,7.99-1.531,1.531-7.99-7.99a1.214,1.214,0,0,0-2.072.859,1.206,1.206,0,0,0,.354.859l12.322,12.321Z" transform="translate(-261.891 -111)" fill="#e74c3c"/>
        </g>
        <g id="Grupo_890171" data-name="Grupo 890171" transform="translate(15.924 18.09)">
          <path id="Trazado_606074" data-name="Trazado 606074" d="M273.87,121.759l-7.99-7.99a3.379,3.379,0,1,1,4.778-4.779l7.991,7.99-1.531,1.531-7.99-7.99a1.214,1.214,0,0,0-2.072.859,1.206,1.206,0,0,0,.354.859l7.991,7.99Z" transform="translate(-264.891 -108)" fill="#e74c3c"/>
        </g>
        <g id="Grupo_890172" data-name="Grupo 890172" transform="translate(19.173 14.842)">
          <path id="Trazado_606075" data-name="Trazado 606075" d="M276.871,118.759l-7.99-7.99a3.379,3.379,0,1,1,4.778-4.779l7.991,7.99-1.531,1.531-7.99-7.99a1.214,1.214,0,0,0-2.072.859,1.206,1.206,0,0,0,.354.859l7.991,7.99Z" transform="translate(-267.891 -105)" fill="#e74c3c"/>
        </g>
        <g id="Grupo_890173" data-name="Grupo 890173" transform="translate(22.421 11.593)">
          <path id="Trazado_606076" data-name="Trazado 606076" d="M295.8,125.821h-2.166v-2.8l-18.5-18.5a1.214,1.214,0,0,0-2.072.859,1.206,1.206,0,0,0,.354.859l7.991,7.99-1.531,1.531-7.99-7.99a3.379,3.379,0,1,1,4.778-4.779l18.819,18.818a1.084,1.084,0,0,1,.317.766Z" transform="translate(-270.891 -102)" fill="#e74c3c"/>
        </g>
        <g id="Grupo_890174" data-name="Grupo 890174" transform="translate(11.593 27.07)">
          <path id="Trazado_606077" data-name="Trazado 606077" d="M263.057,124.638h-2.166v-4.331a1.08,1.08,0,0,1,.317-.766l3.248-3.248,1.531,1.531-2.931,2.931Z" transform="translate(-260.891 -116.293)" fill="#e74c3c"/>
        </g>
        <g id="Grupo_890175" data-name="Grupo 890175" transform="translate(24.587 45.477)">
          <path id="Trazado_606078" data-name="Trazado 606078" d="M277.222,136.224h-4.331v-2.166h3.883l.766-.766,1.531,1.531-1.083,1.083A1.082,1.082,0,0,1,277.222,136.224Z" transform="translate(-272.891 -133.293)" fill="#e74c3c"/>
        </g>
        <g id="Grupo_890176" data-name="Grupo 890176" transform="translate(8.345 21.338)">
          <path id="Trazado_606079" data-name="Trazado 606079" d="M261.457,121.511l-3.248-3.248a1.08,1.08,0,0,1-.317-.766V111h2.166v6.048l2.931,2.931Z" transform="translate(-257.891 -111)" fill="#e74c3c"/>
        </g>
        <g id="Grupo_890177" data-name="Grupo 890177" transform="translate(21.338 8.345)">
          <path id="Trazado_606080" data-name="Trazado 606080" d="M275.622,105.179l-4.014-4.014h-1.717V99h2.166a1.082,1.082,0,0,1,.766.317l4.331,4.331Z" transform="translate(-269.891 -99)" fill="#e74c3c"/>
        </g>
        <g id="Grupo_890178" data-name="Grupo 890178" transform="translate(44.394 25.67)">
          <path id="Trazado_606081" data-name="Trazado 606081" d="M292.715,121.179l-1.531-1.531.766-.766V115h2.166v4.331a1.084,1.084,0,0,1-.317.766Z" transform="translate(-291.184 -115)" fill="#e74c3c"/>
        </g>
        <g id="Grupo_890179" data-name="Grupo 890179" transform="translate(28.152 12.676)">
          <path id="Trazado_606082" data-name="Trazado 606082" d="M277.715,105.931l-1.531-1.531,1.083-1.083a1.078,1.078,0,0,1,.765-.317h4.331v2.166h-3.883Z" transform="translate(-276.184 -103)" fill="#e74c3c"/>
        </g>
        <g id="Grupo_890180" data-name="Grupo 890180" transform="translate(38.98 38.98)">
          <rect id="Rectángulo_301892" data-name="Rectángulo 301892" width="16.844" height="2.165" transform="translate(0 11.911) rotate(-45.002)" fill="#e74c3c"/>
        </g>
        <g id="Grupo_890181" data-name="Grupo 890181" transform="translate(43.311 38.98)">
          <rect id="Rectángulo_301893" data-name="Rectángulo 301893" width="3.063" height="2.165" transform="translate(0 2.166) rotate(-45.002)" fill="#e74c3c"/>
        </g>
        <g id="Grupo_890182" data-name="Grupo 890182" transform="translate(6.496 40.063)">
          <rect id="Rectángulo_301894" data-name="Rectángulo 301894" width="2.165" height="16.844" transform="translate(0 1.531) rotate(-45)" fill="#e74c3c"/>
        </g>
        <g id="Grupo_890183" data-name="Grupo 890183" transform="translate(16.241 44.394)">
          <rect id="Rectángulo_301895" data-name="Rectángulo 301895" width="2.165" height="3.063" transform="translate(0 1.531) rotate(-45)" fill="#e74c3c"/>
        </g>
        <g id="Grupo_890184" data-name="Grupo 890184" transform="translate(3.248 3.248)">
          <rect id="Rectángulo_301896" data-name="Rectángulo 301896" width="16.844" height="2.165" transform="translate(0 11.911) rotate(-45.002)" fill="#e74c3c"/>
        </g>
        <g id="Grupo_890185" data-name="Grupo 890185" transform="translate(12.993 8.662)">
          <rect id="Rectángulo_301897" data-name="Rectángulo 301897" width="3.063" height="2.165" transform="translate(0 2.166) rotate(-45.002)" fill="#e74c3c"/>
        </g>
        <g id="Grupo_890186" data-name="Grupo 890186" transform="translate(38.98 7.579)">
          <rect id="Rectángulo_301898" data-name="Rectángulo 301898" width="2.165" height="16.844" transform="translate(0 1.531) rotate(-45)" fill="#e74c3c"/>
        </g>
        <g id="Grupo_890187" data-name="Grupo 890187" transform="translate(38.98 12.993)">
          <rect id="Rectángulo_301899" data-name="Rectángulo 301899" width="2.165" height="3.063" transform="translate(0 1.531) rotate(-45)" fill="#e74c3c"/>
        </g>
      </g>
      <g id="Grupo_890192" data-name="Grupo 890192" transform="translate(311.001 136.727)">
        <g id="Grupo_890189" data-name="Grupo 890189" transform="translate(0 2.891)">
          <path id="Trazado_606083" data-name="Trazado 606083" d="M294.215,171.428l-1.531-1.531,26.24-26.241a1.084,1.084,0,0,1,1.531,0l6.019,6.019,14.247-14.247,1.531,1.531L327.24,151.972a1.082,1.082,0,0,1-1.531,0l-6.019-6.019Z" transform="translate(-292.684 -135.428)" fill="#34495e"/>
        </g>
        <g id="Grupo_890191" data-name="Grupo 890191" transform="translate(44.814)">
          <g id="Grupo_890190" data-name="Grupo 890190">
            <path id="Trazado_606084" data-name="Trazado 606084" d="M338.609,140.4l-1.3-3.232-3.232-1.3,7.645-3.109Z" transform="translate(-334.072 -132.758)" fill="#34495e"/>
          </g>
        </g>
      </g>
      <g id="Grupo_890198" data-name="Grupo 890198" transform="translate(206.549 246.752)">
        <g id="Grupo_890193" data-name="Grupo 890193" transform="translate(2.174 3.094)">
          <path id="Trazado_606085" data-name="Trazado 606085" d="M236,258.164H203.64a5.421,5.421,0,0,1-5.414-5.414V237.228h2.166V252.75A3.252,3.252,0,0,0,203.64,256H236Z" transform="translate(-198.226 -237.228)" fill="#34495e"/>
        </g>
        <g id="Grupo_890195" data-name="Grupo 890195" transform="translate(0 0)">
          <g id="Grupo_890194" data-name="Grupo 890194">
            <circle id="Elipse_8050" data-name="Elipse 8050" cx="3.257" cy="3.257" r="3.257" fill="#34495e"/>
          </g>
        </g>
        <g id="Grupo_890197" data-name="Grupo 890197" transform="translate(36.528 19.69)">
          <g id="Grupo_890196" data-name="Grupo 890196">
            <path id="Trazado_606086" data-name="Trazado 606086" d="M233.21,259.069a3.257,3.257,0,1,0-3.257-3.257A3.257,3.257,0,0,0,233.21,259.069Z" transform="translate(-229.953 -252.555)" fill="#34495e"/>
          </g>
        </g>
      </g>
      <g id="Grupo_890199" data-name="Grupo 890199" transform="translate(135.305 290.726)">
        <path id="Trazado_606087" data-name="Trazado 606087" d="M170.181,277.149h-1.862v-2.166h1.862Zm-5.111,0H162.9v-2.166h2.166Zm-5.414,0h-2.166v-2.166h2.166Zm-5.414,0h-2.166v-2.166h2.166Zm-5.414,0h-2.166v-2.166h2.166Zm-5.414,0h-2.166v-2.166h2.166Zm-5.414,0h-2.166v-2.166H138Zm-5.414,0h-2.166v-2.166h2.166Z" transform="translate(-130.421 -274.983)" fill="#e74c3c"/>
      </g>
      <g id="Grupo_890200" data-name="Grupo 890200" transform="translate(462.44 148.9)">
        <path id="Trazado_606088" data-name="Trazado 606088" d="M491.979,152.662c-2.709,0-4.065-2.074-5.154-3.739-1.117-1.71-1.879-2.758-3.341-2.758s-2.222,1.048-3.339,2.758c-1.088,1.665-2.443,3.739-5.152,3.739s-4.064-2.074-5.153-3.739c-1.117-1.71-1.876-2.758-3.34-2.758s-2.221,1.048-3.339,2.758c-1.088,1.665-2.443,3.739-5.151,3.739s-4.063-2.074-5.15-3.739c-1.118-1.71-1.876-2.758-3.338-2.758s-2.22,1.048-3.337,2.757c-1.088,1.666-2.443,3.74-5.151,3.74s-4.062-2.074-5.15-3.739c-1.117-1.71-1.876-2.758-3.338-2.758V144c2.708,0,4.063,2.074,5.151,3.74,1.118,1.709,1.875,2.757,3.337,2.757s2.221-1.048,3.338-2.758c1.088-1.665,2.442-3.739,5.15-3.739s4.063,2.074,5.15,3.739c1.118,1.71,1.876,2.758,3.338,2.758s2.221-1.048,3.338-2.758c1.088-1.665,2.443-3.739,5.152-3.739s4.064,2.074,5.153,3.739c1.117,1.71,1.876,2.758,3.34,2.758s2.222-1.048,3.339-2.758c1.088-1.665,2.443-3.739,5.152-3.739s4.065,2.072,5.154,3.739c1.119,1.71,1.878,2.758,3.341,2.758s2.224-1.048,3.341-2.758c1.089-1.665,2.445-3.739,5.155-3.739v2.166c-1.464,0-2.224,1.048-3.342,2.758C496.044,150.59,494.688,152.662,491.979,152.662Z" transform="translate(-432.545 -144)" fill="#e74c3c"/>
      </g>
      <circle id="Elipse_8051" data-name="Elipse 8051" cx="11.911" cy="11.911" r="11.911" transform="translate(206.731 198.383)" fill="#f8cf26"/>
      <g id="Grupo_890201" data-name="Grupo 890201" transform="translate(213.227 207.045)">
        <rect id="Rectángulo_301900" data-name="Rectángulo 301900" width="2.166" height="2.166" transform="translate(0 0)" fill="#34495e"/>
      </g>
      <g id="Grupo_890202" data-name="Grupo 890202" transform="translate(221.889 207.045)">
        <rect id="Rectángulo_301901" data-name="Rectángulo 301901" width="2.166" height="2.166" transform="translate(0 0)" fill="#34495e"/>
      </g>
      <g id="Grupo_890203" data-name="Grupo 890203" transform="translate(213.227 211.376)">
        <path id="Trazado_606089" data-name="Trazado 606089" d="M207.8,208.2a5.419,5.419,0,0,1-5.414-5.413h2.166a3.248,3.248,0,0,0,6.5,0,1.083,1.083,0,1,1,2.166,0A5.419,5.419,0,0,1,207.8,208.2Z" transform="translate(-202.385 -201.7)" fill="#34495e"/>
      </g>
      <g id="Grupo_890209" data-name="Grupo 890209" transform="translate(140.508 118.28)">
        <g id="Grupo_890204" data-name="Grupo 890204" transform="translate(3.094 2.174)">
          <path id="Trazado_606090" data-name="Trazado 606090" d="M197.743,146.468c-.082,0-.168,0-.254,0l.068-2.165,2.131,0v2.166h-1.945Zm64.928,0h-.182V144.3h.182Zm-3.43,0h-2.166V144.3h2.166Zm-5.414,0h-2.166V144.3h2.166Zm-5.414,0h-2.166V144.3h2.166Zm-5.414,0h-2.166V144.3H243Zm-5.414,0H235.42V144.3h2.166Zm-5.414,0h-2.166V144.3h2.166Zm-5.414,0h-2.166V144.3h2.166Zm-5.414,0h-2.166V144.3h2.166Zm-5.414,0h-2.166V144.3h2.166Zm-5.414,0H208.35V144.3h2.166Zm-5.414,0h-2.166V144.3H205.1Zm-11.192-.928a8.523,8.523,0,0,1-2.014-1.431l1.5-1.566a6.367,6.367,0,0,0,1.5,1.069Zm-4.068-4.5a8.517,8.517,0,0,1-.551-2.41l2.16-.17a6.289,6.289,0,0,0,.409,1.8Zm1.989-5.308-2.029-.757A8.456,8.456,0,0,1,191,132.811l1.724,1.309A6.308,6.308,0,0,0,191.831,135.734Zm2.987-3.4-1.011-1.915a8.451,8.451,0,0,1,2.333-.823l.414,2.125A6.317,6.317,0,0,0,194.819,132.338Zm23.175-.731h-2.166v-2.166h2.166Zm-5.414,0h-2.166v-2.166h2.166Zm-5.414,0H205v-2.166h2.166Zm-5.414,0h-2.166v-2.166h2.166Zm19.663-.1-.355-2.136a4.735,4.735,0,0,0,1.645-.6l1.108,1.861A6.872,6.872,0,0,1,221.415,131.512Zm5.008-3.635-1.921-1a4.7,4.7,0,0,0,.51-1.677l2.153.237A6.873,6.873,0,0,1,226.423,127.877Zm-1.841-5.256a4.782,4.782,0,0,0-1.034-1.421l1.489-1.574a6.971,6.971,0,0,1,1.5,2.062Zm-3.35-2.629a4.794,4.794,0,0,0-.964-.1h-.977v-2.166h.977a6.95,6.95,0,0,1,1.4.142Zm-5.189-.1h-2.166v-2.166h2.166Zm-5.414,0h-2.166v-2.166h2.166Zm-5.414,0H203.05v-2.166h2.166Zm-5.414,0h-2.166v-2.166H199.8Zm-5.414,0h-2.166v-2.166h2.166Zm-5.414,0h-2.166v-2.166h2.166Zm-5.414,0h-2.166v-2.166h2.166Zm-5.414,0H175.98v-2.166h2.166Zm-5.414,0h-2.166v-2.166h2.166Zm-5.414,0h-2.166v-2.166h2.166Zm-5.414,0h-2.166v-2.166H161.9Zm-5.414,0h-2.166v-2.166h2.166Zm-5.414,0h-2.166v-2.166h2.166Zm-5.414,0H143.5v-2.166h2.166Zm-5.414,0h-2.166v-2.166h2.166Z" transform="translate(-138.083 -117.729)" fill="#e74c3c"/>
        </g>
        <g id="Grupo_890206" data-name="Grupo 890206" transform="translate(0)">
          <g id="Grupo_890205" data-name="Grupo 890205">
            <circle id="Elipse_8052" data-name="Elipse 8052" cx="3.257" cy="3.257" r="3.257" fill="#e74c3c"/>
          </g>
        </g>
        <g id="Grupo_890208" data-name="Grupo 890208" transform="translate(124.263 26.573)">
          <g id="Grupo_890207" data-name="Grupo 890207">
            <path id="Trazado_606091" data-name="Trazado 606091" d="M253.244,146.777a3.257,3.257,0,1,0-3.256-3.257A3.257,3.257,0,0,0,253.244,146.777Z" transform="translate(-249.988 -140.263)" fill="#e74c3c"/>
          </g>
        </g>
      </g>
      <g id="Grupo_890210" data-name="Grupo 890210" transform="translate(361.832 173.818)">
        <path id="Trazado_606092" data-name="Trazado 606092" d="M358.567,204.817c-.276,0-.566-.005-.849-.018l.093-2.163c.249.011.489.012.754.015q.633,0,1.252-.047l.161,2.16C359.511,204.8,359.042,204.817,358.567,204.817Zm-4.211-.467a18.736,18.736,0,0,1-2.173-.63l.727-2.04a16.554,16.554,0,0,0,1.925.558Zm8.971-.143-.548-2.1a16.634,16.634,0,0,0,1.9-.62l.793,2.015A18.856,18.856,0,0,1,363.327,204.208ZM349.1,202.3a18.947,18.947,0,0,1-1.888-1.246l1.3-1.734a16.761,16.761,0,0,0,1.673,1.1Zm19.4-.31-1.142-1.84A17.043,17.043,0,0,0,369,198.99l1.351,1.691A18.936,18.936,0,0,1,368.507,201.986Zm-23.816-3.2a19.239,19.239,0,0,1-1.439-1.744L345,195.763a16.717,16.717,0,0,0,1.277,1.545Zm28.113-.447-1.631-1.424a17,17,0,0,0,1.226-1.586l1.789,1.221A19.373,19.373,0,0,1,372.8,198.337Zm-31.3-4.2a18.989,18.989,0,0,1-.863-2.092l2.048-.7a16.769,16.769,0,0,0,.763,1.853Zm34.335-.547-1.977-.882a16.413,16.413,0,0,0,.7-1.875l2.071.637A19.135,19.135,0,0,1,375.841,193.587Zm-36.006-4.839a18.957,18.957,0,0,1-.206-2.253l2.166-.067a16.6,16.6,0,0,0,.181,1.995Zm37.5-.6-2.15-.258a16.972,16.972,0,0,0,.118-2l1.688-.056.476.012A18.969,18.969,0,0,1,377.338,188.148Zm-35.372-4.721-2.142-.315a18.9,18.9,0,0,1,.463-2.216l2.09.572A16.685,16.685,0,0,0,341.966,183.427Zm33.062-.6a16.948,16.948,0,0,0-.481-1.946l2.066-.644a19.029,19.029,0,0,1,.545,2.195Zm-31.6-4.178-1.952-.937a19.271,19.271,0,0,1,1.1-1.977l1.829,1.16A16.9,16.9,0,0,0,343.425,178.653Zm29.97-.538a16.744,16.744,0,0,0-1.036-1.716l1.786-1.228a19.328,19.328,0,0,1,1.167,1.936Zm-27.164-3.593-1.591-1.47a19.365,19.365,0,0,1,1.631-1.567l1.405,1.648A16.831,16.831,0,0,0,346.232,174.522Zm24.211-.436a16.93,16.93,0,0,0-1.493-1.336l1.345-1.7a18.679,18.679,0,0,1,1.686,1.508ZM350.128,171.4l-1.089-1.871a18.948,18.948,0,0,1,2.019-1.018l.859,1.987A17.061,17.061,0,0,0,350.128,171.4Zm16.31-.293a16.353,16.353,0,0,0-1.82-.837l.785-2.019a18.882,18.882,0,0,1,2.056.947Zm-11.671-1.543-.486-2.11a18.878,18.878,0,0,1,2.233-.375l.231,2.153A16.811,16.811,0,0,0,354.766,169.559Zm6.969-.126a16.782,16.782,0,0,0-1.988-.26l.153-2.16a19.015,19.015,0,0,1,2.244.293Z" transform="translate(-339.629 -167.013)" fill="#e74c3c"/>
      </g>
      <g id="Grupo_890211" data-name="Grupo 890211" transform="translate(474.866 267.505)">
        <path id="Trazado_606093" data-name="Trazado 606093" d="M455.333,276.16l-.012-2.166h.012a9.177,9.177,0,0,0,1.892-.2l.446,2.119A11.377,11.377,0,0,1,455.333,276.16Zm-3.508-.553a11.423,11.423,0,0,1-2.156-.965l1.085-1.873a9.264,9.264,0,0,0,1.747.781Zm9.153-.954-1.083-1.875a9.192,9.192,0,0,0,1.546-1.123l1.449,1.609A11.4,11.4,0,0,1,460.977,274.652Zm-14.052-2.238a11.287,11.287,0,0,1-1.391-1.913l1.875-1.083a9.153,9.153,0,0,0,1.123,1.545Zm18.194-1.891-1.872-1.089a9.128,9.128,0,0,0,.782-1.743l2.057.675A11.291,11.291,0,0,1,465.119,270.524ZM444.266,267.2a11.461,11.461,0,0,1-.245-2.35l2.165-.043v.043a9.26,9.26,0,0,0,.2,1.9Zm20.212-2.328v-.022a9.3,9.3,0,0,0-.194-1.883l2.119-.442a11.306,11.306,0,0,1,.24,2.325Zm-17.835-2.882-2.057-.677a11.246,11.246,0,0,1,.971-2.156l1.87,1.09A9.126,9.126,0,0,0,446.644,261.987Zm16.623-1.692a9.3,9.3,0,0,0-1.122-1.547l1.611-1.447a11.32,11.32,0,0,1,1.386,1.913Zm-14.026-2.266-1.447-1.612a11.251,11.251,0,0,1,1.918-1.385l1.076,1.878A9.1,9.1,0,0,0,449.24,258.028Zm10.687-1.089a9.19,9.19,0,0,0-1.743-.784l.677-2.057a11.324,11.324,0,0,1,2.156.969ZM453.46,255.9l-.442-2.121a11.418,11.418,0,0,1,2.315-.237l.032,2.166h-.032A9.178,9.178,0,0,0,453.46,255.9Z" transform="translate(-444.021 -253.537)" fill="#66cedb"/>
      </g>
      <g id="Grupo_890212" data-name="Grupo 890212" transform="translate(461.78 323.782)">
        <path id="Trazado_606094" data-name="Trazado 606094" d="M459.852,312.674a1.08,1.08,0,0,1-.766-.317L455,308.266l-3.79,3.791a1.115,1.115,0,0,1-1.531,0l-3.93-3.931-3.848,3.848a1.082,1.082,0,0,1-1.531,0l-3.489-3.488-3.409,3.408-1.532-1.531,4.175-4.173a1.081,1.081,0,0,1,1.531,0l3.489,3.488,3.848-3.848a1.082,1.082,0,0,1,1.531,0l3.931,3.931,3.79-3.791a1.114,1.114,0,0,1,1.531,0l4.092,4.091,3.845-3.845,1.532,1.531-4.611,4.611A1.082,1.082,0,0,1,459.852,312.674Z" transform="translate(-431.935 -305.512)" fill="#e74c3c"/>
      </g>
      <g id="Grupo_890215" data-name="Grupo 890215" transform="translate(351.605 261.248)">
        <g id="Grupo_890213" data-name="Grupo 890213" transform="translate(0 0)">
          <rect id="Rectángulo_301902" data-name="Rectángulo 301902" width="2.165" height="10.719" transform="translate(0 1.531) rotate(-45)" fill="#34495e"/>
        </g>
        <g id="Grupo_890214" data-name="Grupo 890214" transform="translate(0 0)">
          <rect id="Rectángulo_301903" data-name="Rectángulo 301903" width="10.719" height="2.165" transform="translate(0 7.579) rotate(-45)" fill="#34495e"/>
        </g>
      </g>
      <g id="Grupo_890216" data-name="Grupo 890216" transform="translate(369.655 277.134)">
        <path id="Trazado_606095" data-name="Trazado 606095" d="M351.767,272.252a1.08,1.08,0,0,1-.766-.317l-3.83-3.828a1.082,1.082,0,0,1,0-1.531l3.83-3.829a1.078,1.078,0,0,1,.766-.317h0a1.082,1.082,0,0,1,.766.317l3.828,3.829a1.083,1.083,0,0,1,0,1.531l-3.828,3.828A1.084,1.084,0,0,1,351.767,272.252Zm-2.3-4.91,2.3,2.3,2.3-2.3-2.3-2.3Z" transform="translate(-346.854 -262.43)" fill="#34495e"/>
      </g>
      <g id="Grupo_890217" data-name="Grupo 890217" transform="translate(375.109 258.765)">
        <path id="Trazado_606096" data-name="Trazado 606096" d="M356.763,255.211a4.873,4.873,0,1,1,4.873-4.872A4.878,4.878,0,0,1,356.763,255.211Zm0-7.579a2.707,2.707,0,1,0,2.707,2.707A2.709,2.709,0,0,0,356.763,247.632Z" transform="translate(-351.891 -245.466)" fill="#34495e"/>
      </g>
      <path id="Trazado_606097" data-name="Trazado 606097" d="M287.961,185.613a3.179,3.179,0,0,0-4.459,0l-1.115,1.1-1.114-1.1a3.179,3.179,0,0,0-4.459,0,3.089,3.089,0,0,0,0,4.406l1.115,1.1,4.458,4.407,4.459-4.407,1.115-1.1A3.089,3.089,0,0,0,287.961,185.613Z" transform="translate(16.927 8.269)" fill="#f8cf26"/>
      <circle id="Elipse_8053" data-name="Elipse 8053" cx="3.248" cy="3.248" r="3.248" transform="translate(72.503 212.801)" fill="#66cedb"/>
      <g id="Grupo_890218" data-name="Grupo 890218" transform="translate(393.575 214.968)">
        <path id="Trazado_606098" data-name="Trazado 606098" d="M373.221,213.568a4.275,4.275,0,1,1,4.277-4.276A4.281,4.281,0,0,1,373.221,213.568Zm0-6.385a2.11,2.11,0,1,0,2.111,2.109A2.112,2.112,0,0,0,373.221,207.183Z" transform="translate(-368.945 -205.017)" fill="#66cedb"/>
      </g>
      <circle id="Elipse_8054" data-name="Elipse 8054" cx="1.895" cy="1.895" r="1.895" transform="translate(160.523 259.848)" fill="#66cedb"/>
      <circle id="Elipse_8055" data-name="Elipse 8055" cx="1.624" cy="1.624" r="1.624" transform="translate(157.274 318.879)" fill="#66cedb"/>
      <circle id="Elipse_8056" data-name="Elipse 8056" cx="1.5" cy="1.5" r="1.5" transform="translate(368.731 145.11)" fill="#66cedb"/>
      <path id="Trazado_606099" data-name="Trazado 606099" d="M543.772,203.119a1.342,1.342,0,1,1-1.342-1.342A1.342,1.342,0,0,1,543.772,203.119Z" transform="translate(38.881 9.683)" fill="#66cedb"/>
      <path id="Trazado_606100" data-name="Trazado 606100" d="M542.666,275.64a2.211,2.211,0,1,1-2.211-2.211A2.211,2.211,0,0,1,542.666,275.64Z" transform="translate(38.645 15.614)" fill="#66cedb"/>
      <g id="Grupo_890219" data-name="Grupo 890219" transform="translate(563.52 172.453)">
        <path id="Trazado_606101" data-name="Trazado 606101" d="M532.292,187.693a8.077,8.077,0,0,0,5.542,5.543.319.319,0,0,1,0,.616,8.076,8.076,0,0,0-5.542,5.542.319.319,0,0,1-.617,0,8.078,8.078,0,0,0-5.542-5.542.319.319,0,0,1,0-.616,8.079,8.079,0,0,0,5.542-5.543A.32.32,0,0,1,532.292,187.693Z" transform="translate(-525.897 -163.956)" fill="#f8cf26"/>
        <path id="Trazado_606102" data-name="Trazado 606102" d="M551.434,176.543a8.078,8.078,0,0,0,5.543,5.542.32.32,0,0,1,0,.617,8.078,8.078,0,0,0-5.543,5.542.319.319,0,0,1-.616,0,8.076,8.076,0,0,0-5.542-5.542.319.319,0,0,1,0-.617,8.076,8.076,0,0,0,5.542-5.542A.319.319,0,0,1,551.434,176.543Z" transform="translate(-524.312 -164.879)" fill="#f8cf26"/>
        <path id="Trazado_606103" data-name="Trazado 606103" d="M535.806,165.989a8.081,8.081,0,0,0,5.543,5.543.319.319,0,0,1,0,.616,8.079,8.079,0,0,0-5.543,5.543.319.319,0,0,1-.616,0,8.077,8.077,0,0,0-5.542-5.543.319.319,0,0,1,0-.616,8.079,8.079,0,0,0,5.542-5.543A.319.319,0,0,1,535.806,165.989Z" transform="translate(-525.606 -165.753)" fill="#f8cf26"/>
      </g>
      <circle id="Elipse_8057" data-name="Elipse 8057" cx="0.812" cy="0.812" r="0.812" transform="translate(175.065 156.479)" fill="#e74c3c"/>
      <circle id="Elipse_8058" data-name="Elipse 8058" cx="1.624" cy="1.624" r="1.624" transform="translate(258.828 297.223)" fill="#e74c3c"/>
      <path id="Trazado_606104" data-name="Trazado 606104" d="M367.121,154.31a1.81,1.81,0,1,1-1.81-1.81A1.811,1.811,0,0,1,367.121,154.31Z" transform="translate(24.179 5.603)" fill="#e74c3c"/>
      <circle id="Elipse_8059" data-name="Elipse 8059" cx="1.083" cy="1.083" r="1.083" transform="translate(245.835 214.624)" fill="#e74c3c"/>
      <circle id="Elipse_8060" data-name="Elipse 8060" cx="1.083" cy="1.083" r="1.083" transform="translate(517.427 263.637)" fill="#e74c3c"/>
      <path id="Trazado_606105" data-name="Trazado 606105" d="M530.466,210.585a1.569,1.569,0,1,1-1.569-1.569A1.569,1.569,0,0,1,530.466,210.585Z" transform="translate(37.742 10.282)" fill="#e74c3c"/>
    </g>
  </g>
</svg>
