<svg xmlns="http://www.w3.org/2000/svg" xmlns:xlink="http://www.w3.org/1999/xlink" width="627" height="164" viewBox="0 0 627 164">
  <defs>
    <linearGradient id="linear-gradient" x1="-1.504" y1="3.495" x2="-1.483" y2="3.495" gradientUnits="objectBoundingBox">
      <stop offset="0" stop-color="#9d6262"/>
      <stop offset="1" stop-color="#1a1a1a"/>
    </linearGradient>
    <clipPath id="clip-path">
      <rect id="Rectángulo_302172" data-name="Rectángulo 302172" width="627" height="164" transform="translate(-5899 -6214)" fill="#e4eef8"/>
    </clipPath>
    <clipPath id="clip-path-2">
      <path id="Trazado_601327" data-name="Trazado 601327" d="M87.426,25.478c-13.786.984-13.358,15.534-13.352,15.68a1.1,1.1,0,0,0,1.1,1.059h.043a1.1,1.1,0,0,0,1.059-1.145c-.019-.513-.335-12.56,11.305-13.392a1.105,1.105,0,0,0-.051-2.207,1.046,1.046,0,0,0-.107.006" transform="translate(-74.072 -25.472)" fill="#1565c0"/>
    </clipPath>
    <clipPath id="clip-path-3">
      <path id="Trazado_601328" data-name="Trazado 601328" d="M33.671,0A19.34,19.34,0,0,0,14.351,19.319v2.062A15.478,15.478,0,0,0,0,36.8v1.841A15.474,15.474,0,0,0,15.457,54.1H30.544A11.055,11.055,0,0,0,41.585,43.057V39.828l3.968,4.341a1.1,1.1,0,1,0,1.63-1.49L41.3,36.238a1.121,1.121,0,0,0-.826-.357,1.093,1.093,0,0,0-.817.373l-5.7,6.44a1.1,1.1,0,0,0,.093,1.558,1.116,1.116,0,0,0,.733.277,1.1,1.1,0,0,0,.826-.373l3.776-4.26v3.161a8.845,8.845,0,0,1-8.834,8.834H15.457A13.263,13.263,0,0,1,2.208,38.642V36.8A13.263,13.263,0,0,1,15.457,23.551a1.1,1.1,0,0,0,1.1-1.105V19.319A17.13,17.13,0,0,1,33.671,2.208h8.281A10.869,10.869,0,0,1,52.81,13.063a1.1,1.1,0,0,0,1.105,1.105h2.94a9.577,9.577,0,0,1,9.57,9.567,1.1,1.1,0,0,0,1.105,1.105h.919A13.633,13.633,0,0,1,82.068,38.455,13.45,13.45,0,0,1,68.633,51.891H51.155A11.78,11.78,0,0,0,39.418,62.873l-3.9-3.524a1.1,1.1,0,1,0-1.478,1.639l5.7,5.151a1.1,1.1,0,0,0,1.466.012L47.1,61a1.1,1.1,0,0,0-1.453-1.661l-4.018,3.512A9.579,9.579,0,0,1,51.155,54.1H68.633A15.661,15.661,0,0,0,84.276,38.455,15.842,15.842,0,0,0,68.583,22.632,11.794,11.794,0,0,0,56.856,11.96H54.971A13.08,13.08,0,0,0,41.952,0Z" fill="url(#linear-gradient)"/>
    </clipPath>
    <clipPath id="clip-path-4">
      <rect id="Rectángulo_298110" data-name="Rectángulo 298110" width="3.68" height="3.68" fill="#fb8c00"/>
    </clipPath>
    <clipPath id="clip-path-7">
      <rect id="Rectángulo_298116" data-name="Rectángulo 298116" width="3.679" height="3.679" fill="#fb8c00"/>
    </clipPath>
    <clipPath id="clip-path-9">
      <rect id="Rectángulo_298120" data-name="Rectángulo 298120" width="3.683" height="3.679" fill="#fb8c00"/>
    </clipPath>
    <clipPath id="clip-path-10">
      <path id="Trazado_601336" data-name="Trazado 601336" d="M2.045,51.622H62.356V67.467H2.045Zm4.386-6.9H57.542v4.856H6.431ZM2.045,26.833H62.356V42.678H2.045Zm4.386-6.9H57.542v4.856H6.431ZM2.045,2.044H62.356V17.889H2.045ZM1.022,0A1.022,1.022,0,0,0,0,1.022V18.911a1.022,1.022,0,0,0,1.022,1.022H4.386v4.856H1.022A1.022,1.022,0,0,0,0,25.811V43.7a1.021,1.021,0,0,0,1.022,1.022H4.386v4.856H1.022A1.021,1.021,0,0,0,0,50.6V68.489a1.022,1.022,0,0,0,1.022,1.022H4.386v5.878a1.022,1.022,0,0,0,2.045,0V69.511H57.542v5.878a1.022,1.022,0,1,0,2.044,0V69.511h3.792A1.022,1.022,0,0,0,64.4,68.489V50.6a1.021,1.021,0,0,0-1.022-1.022H59.586V44.722h3.792A1.021,1.021,0,0,0,64.4,43.7V25.811a1.022,1.022,0,0,0-1.022-1.022H59.586V19.933h3.792A1.021,1.021,0,0,0,64.4,18.911V1.022A1.022,1.022,0,0,0,63.378,0Z" fill="#26aab7"/>
    </clipPath>
    <clipPath id="clip-path-11">
      <path id="Trazado_601337" data-name="Trazado 601337" d="M166.642,22.317a2.939,2.939,0,1,1,2.939,2.939,2.943,2.943,0,0,1-2.939-2.939m-2.044,0a4.983,4.983,0,1,0,4.983-4.983,4.988,4.988,0,0,0-4.983,4.983" transform="translate(-164.598 -17.334)" fill="#1565c0"/>
    </clipPath>
    <clipPath id="clip-path-12">
      <path id="Trazado_601338" data-name="Trazado 601338" d="M24.592,22.8v6.644a1.022,1.022,0,1,0,2.044,0V22.8a1.022,1.022,0,1,0-2.044,0" transform="translate(-24.592 -21.778)" fill="#1565c0"/>
    </clipPath>
    <clipPath id="clip-path-13">
      <path id="Trazado_601339" data-name="Trazado 601339" d="M41.78,22.8v6.644a1.022,1.022,0,1,0,2.045,0V22.8a1.022,1.022,0,1,0-2.045,0" transform="translate(-41.78 -21.778)" fill="#1565c0"/>
    </clipPath>
    <clipPath id="clip-path-14">
      <path id="Trazado_601340" data-name="Trazado 601340" d="M58.964,22.8v6.644a1.022,1.022,0,1,0,2.045,0V22.8a1.022,1.022,0,1,0-2.045,0" transform="translate(-58.964 -21.778)" fill="#1565c0"/>
    </clipPath>
    <clipPath id="clip-path-15">
      <path id="Trazado_601341" data-name="Trazado 601341" d="M76.149,22.8v6.644a1.022,1.022,0,1,0,2.045,0V22.8a1.022,1.022,0,0,0-2.045,0" transform="translate(-76.149 -21.778)" fill="#1565c0"/>
    </clipPath>
    <clipPath id="clip-path-16">
      <path id="Trazado_601342" data-name="Trazado 601342" d="M93.338,22.8v6.644a1.022,1.022,0,1,0,2.044,0V22.8a1.022,1.022,0,1,0-2.044,0" transform="translate(-93.338 -21.778)" fill="#1565c0"/>
    </clipPath>
    <clipPath id="clip-path-17">
      <rect id="Rectángulo_298136" data-name="Rectángulo 298136" width="3.322" height="3.322" fill="#1565c0"/>
    </clipPath>
    <clipPath id="clip-path-20">
      <path id="Trazado_601343" data-name="Trazado 601343" d="M166.642,108.543a2.939,2.939,0,1,1,2.939,2.939,2.943,2.943,0,0,1-2.939-2.939m-2.044,0a4.983,4.983,0,1,0,4.983-4.983,4.988,4.988,0,0,0-4.983,4.983" transform="translate(-164.598 -103.56)" fill="#1565c0"/>
    </clipPath>
    <clipPath id="clip-path-21">
      <path id="Trazado_601344" data-name="Trazado 601344" d="M24.592,109.027v6.644a1.022,1.022,0,1,0,2.044,0v-6.644a1.022,1.022,0,1,0-2.044,0" transform="translate(-24.592 -108.005)" fill="#1565c0"/>
    </clipPath>
    <clipPath id="clip-path-22">
      <path id="Trazado_601345" data-name="Trazado 601345" d="M41.78,109.027v6.644a1.022,1.022,0,0,0,2.045,0v-6.644a1.022,1.022,0,0,0-2.045,0" transform="translate(-41.78 -108.005)" fill="#1565c0"/>
    </clipPath>
    <clipPath id="clip-path-23">
      <path id="Trazado_601346" data-name="Trazado 601346" d="M58.964,109.027v6.644a1.022,1.022,0,0,0,2.045,0v-6.644a1.022,1.022,0,0,0-2.045,0" transform="translate(-58.964 -108.005)" fill="#1565c0"/>
    </clipPath>
    <clipPath id="clip-path-24">
      <path id="Trazado_601347" data-name="Trazado 601347" d="M76.149,109.027v6.644a1.022,1.022,0,0,0,2.045,0v-6.644a1.022,1.022,0,0,0-2.045,0" transform="translate(-76.149 -108.005)" fill="#1565c0"/>
    </clipPath>
    <clipPath id="clip-path-25">
      <path id="Trazado_601348" data-name="Trazado 601348" d="M93.338,109.027v6.644a1.022,1.022,0,0,0,2.044,0v-6.644a1.022,1.022,0,1,0-2.044,0" transform="translate(-93.338 -108.005)" fill="#1565c0"/>
    </clipPath>
    <clipPath id="clip-path-29">
      <path id="Trazado_601349" data-name="Trazado 601349" d="M166.642,194.77a2.939,2.939,0,1,1,2.939,2.939,2.943,2.943,0,0,1-2.939-2.939m-2.044,0a4.983,4.983,0,1,0,4.983-4.983,4.988,4.988,0,0,0-4.983,4.983" transform="translate(-164.598 -189.787)" fill="#1565c0"/>
    </clipPath>
    <clipPath id="clip-path-30">
      <path id="Trazado_601350" data-name="Trazado 601350" d="M24.592,195.253V201.9a1.022,1.022,0,1,0,2.044,0v-6.644a1.022,1.022,0,1,0-2.044,0" transform="translate(-24.592 -194.231)" fill="#1565c0"/>
    </clipPath>
    <clipPath id="clip-path-31">
      <path id="Trazado_601351" data-name="Trazado 601351" d="M41.78,195.253V201.9a1.022,1.022,0,0,0,2.045,0v-6.644a1.022,1.022,0,0,0-2.045,0" transform="translate(-41.78 -194.231)" fill="#1565c0"/>
    </clipPath>
    <clipPath id="clip-path-32">
      <path id="Trazado_601352" data-name="Trazado 601352" d="M58.964,195.253V201.9a1.022,1.022,0,0,0,2.045,0v-6.644a1.022,1.022,0,0,0-2.045,0" transform="translate(-58.964 -194.231)" fill="#1565c0"/>
    </clipPath>
    <clipPath id="clip-path-33">
      <path id="Trazado_601353" data-name="Trazado 601353" d="M76.149,195.253V201.9a1.022,1.022,0,0,0,2.045,0v-6.644a1.022,1.022,0,0,0-2.045,0" transform="translate(-76.149 -194.231)" fill="#1565c0"/>
    </clipPath>
    <clipPath id="clip-path-34">
      <path id="Trazado_601354" data-name="Trazado 601354" d="M93.338,195.253V201.9a1.022,1.022,0,1,0,2.044,0v-6.644a1.022,1.022,0,1,0-2.044,0" transform="translate(-93.338 -194.231)" fill="#1565c0"/>
    </clipPath>
    <clipPath id="clip-path-38">
      <path id="Trazado_601355" data-name="Trazado 601355" d="M32.281,253.789a1.022,1.022,0,0,0,0,2.045H75.725a1.022,1.022,0,1,0,0-2.045Z" transform="translate(-31.259 -253.789)" fill="#fb8c00"/>
    </clipPath>
  </defs>
  <g id="Enmascarar_grupo_887527" data-name="Enmascarar grupo 887527" transform="translate(5899 6214)" clip-path="url(#clip-path)">
    <g id="Grupo_893200" data-name="Grupo 893200" transform="translate(2.4)">
      <g id="Grupo_893198" data-name="Grupo 893198" transform="translate(-5642.401 -6182.204)" style="isolation: isolate">
        <g id="Grupo_887360" data-name="Grupo 887360" transform="translate(22.999 7.909)">
          <g id="Grupo_887359" data-name="Grupo 887359" clip-path="url(#clip-path-2)">
            <rect id="Rectángulo_298107" data-name="Rectángulo 298107" width="15.01" height="16.745" transform="translate(-0.432 0)" fill="#1565c0"/>
          </g>
        </g>
        <g id="Grupo_887362" data-name="Grupo 887362">
          <g id="Grupo_887361" data-name="Grupo 887361" clip-path="url(#clip-path-3)">
            <rect id="Rectángulo_298108" data-name="Rectángulo 298108" width="84.276" height="66.425" fill="#1565c0"/>
          </g>
        </g>
        <g id="Grupo_887364" data-name="Grupo 887364" transform="translate(51.521 43.425)">
          <g id="Grupo_887363" data-name="Grupo 887363" clip-path="url(#clip-path-4)">
            <rect id="Rectángulo_298109" data-name="Rectángulo 298109" width="3.68" height="3.68" transform="translate(0 0)" fill="#fb8c00"/>
          </g>
        </g>
        <g id="Grupo_887366" data-name="Grupo 887366" transform="translate(57.778 43.425)">
          <g id="Grupo_887365" data-name="Grupo 887365" clip-path="url(#clip-path-4)">
            <rect id="Rectángulo_298111" data-name="Rectángulo 298111" width="3.68" height="3.68" transform="translate(0 0)" fill="#fb8c00"/>
          </g>
        </g>
        <g id="Grupo_887368" data-name="Grupo 887368" transform="translate(64.034 43.425)">
          <g id="Grupo_887367" data-name="Grupo 887367" clip-path="url(#clip-path-4)">
            <rect id="Rectángulo_298113" data-name="Rectángulo 298113" width="3.68" height="3.68" transform="translate(0 0)" fill="#fb8c00"/>
          </g>
        </g>
        <g id="Grupo_887370" data-name="Grupo 887370" transform="translate(14.075 43.423)">
          <g id="Grupo_887369" data-name="Grupo 887369" clip-path="url(#clip-path-7)">
            <rect id="Rectángulo_298115" data-name="Rectángulo 298115" width="3.679" height="3.679" fill="#fb8c00"/>
          </g>
        </g>
        <g id="Grupo_887372" data-name="Grupo 887372" transform="translate(20.332 43.423)">
          <g id="Grupo_887371" data-name="Grupo 887371" clip-path="url(#clip-path-7)">
            <rect id="Rectángulo_298117" data-name="Rectángulo 298117" width="3.679" height="3.679" transform="translate(0)" fill="#fb8c00"/>
          </g>
        </g>
        <g id="Grupo_887374" data-name="Grupo 887374" transform="translate(26.585 43.423)">
          <g id="Grupo_887373" data-name="Grupo 887373" clip-path="url(#clip-path-9)">
            <rect id="Rectángulo_298119" data-name="Rectángulo 298119" width="3.683" height="3.679" fill="#fb8c00"/>
          </g>
        </g>
      </g>
      <g id="Grupo_893199" data-name="Grupo 893199" transform="translate(-5421.8 -6166.706)">
        <g id="Grupo_887394" data-name="Grupo 887394">
          <g id="Grupo_887393" data-name="Grupo 887393" clip-path="url(#clip-path-10)">
            <rect id="Rectángulo_298128" data-name="Rectángulo 298128" width="64.4" height="76.411" transform="translate(0)" fill="#26aab7"/>
          </g>
        </g>
        <g id="Grupo_887396" data-name="Grupo 887396" transform="translate(47.32 4.983)">
          <g id="Grupo_887395" data-name="Grupo 887395" clip-path="url(#clip-path-11)">
            <rect id="Rectángulo_298129" data-name="Rectángulo 298129" width="9.967" height="9.967" transform="translate(0 0)" fill="#1565c0"/>
          </g>
        </g>
        <g id="Grupo_887398" data-name="Grupo 887398" transform="translate(7.07 6.261)">
          <g id="Grupo_887397" data-name="Grupo 887397" clip-path="url(#clip-path-12)">
            <rect id="Rectángulo_298130" data-name="Rectángulo 298130" width="2.044" height="8.689" transform="translate(0 0)" fill="#1565c0"/>
          </g>
        </g>
        <g id="Grupo_887400" data-name="Grupo 887400" transform="translate(12.011 6.261)">
          <g id="Grupo_887399" data-name="Grupo 887399" clip-path="url(#clip-path-13)">
            <rect id="Rectángulo_298131" data-name="Rectángulo 298131" width="2.045" height="8.689" transform="translate(0 0)" fill="#1565c0"/>
          </g>
        </g>
        <g id="Grupo_887402" data-name="Grupo 887402" transform="translate(16.951 6.261)">
          <g id="Grupo_887401" data-name="Grupo 887401" clip-path="url(#clip-path-14)">
            <rect id="Rectángulo_298132" data-name="Rectángulo 298132" width="2.045" height="8.689" transform="translate(0 0)" fill="#1565c0"/>
          </g>
        </g>
        <g id="Grupo_887404" data-name="Grupo 887404" transform="translate(21.892 6.261)">
          <g id="Grupo_887403" data-name="Grupo 887403" clip-path="url(#clip-path-15)">
            <rect id="Rectángulo_298133" data-name="Rectángulo 298133" width="2.045" height="8.689" transform="translate(0 0)" fill="#1565c0"/>
          </g>
        </g>
        <g id="Grupo_887406" data-name="Grupo 887406" transform="translate(26.833 6.261)">
          <g id="Grupo_887405" data-name="Grupo 887405" clip-path="url(#clip-path-16)">
            <rect id="Rectángulo_298134" data-name="Rectángulo 298134" width="2.044" height="8.689" transform="translate(0 0)" fill="#1565c0"/>
          </g>
        </g>
        <g id="Grupo_887408" data-name="Grupo 887408" transform="translate(32.05 9.519)">
          <g id="Grupo_887407" data-name="Grupo 887407" clip-path="url(#clip-path-17)">
            <rect id="Rectángulo_298135" data-name="Rectángulo 298135" width="3.322" height="3.322" fill="#1565c0"/>
          </g>
        </g>
        <g id="Grupo_887410" data-name="Grupo 887410" transform="translate(36.714 9.519)">
          <g id="Grupo_887409" data-name="Grupo 887409" clip-path="url(#clip-path-17)">
            <rect id="Rectángulo_298137" data-name="Rectángulo 298137" width="3.322" height="3.322" fill="#1565c0"/>
          </g>
        </g>
        <g id="Grupo_887412" data-name="Grupo 887412" transform="translate(41.379 9.519)">
          <g id="Grupo_887411" data-name="Grupo 887411" clip-path="url(#clip-path-17)">
            <rect id="Rectángulo_298139" data-name="Rectángulo 298139" width="3.322" height="3.322" fill="#1565c0"/>
          </g>
        </g>
        <g id="Grupo_887414" data-name="Grupo 887414" transform="translate(47.32 29.772)">
          <g id="Grupo_887413" data-name="Grupo 887413" clip-path="url(#clip-path-20)">
            <rect id="Rectángulo_298141" data-name="Rectángulo 298141" width="9.967" height="9.967" transform="translate(0 0)" fill="#1565c0"/>
          </g>
        </g>
        <g id="Grupo_887416" data-name="Grupo 887416" transform="translate(7.07 31.05)">
          <g id="Grupo_887415" data-name="Grupo 887415" clip-path="url(#clip-path-21)">
            <rect id="Rectángulo_298142" data-name="Rectángulo 298142" width="2.044" height="8.689" transform="translate(0 0)" fill="#1565c0"/>
          </g>
        </g>
        <g id="Grupo_887418" data-name="Grupo 887418" transform="translate(12.011 31.05)">
          <g id="Grupo_887417" data-name="Grupo 887417" clip-path="url(#clip-path-22)">
            <rect id="Rectángulo_298143" data-name="Rectángulo 298143" width="2.045" height="8.689" transform="translate(0 0)" fill="#1565c0"/>
          </g>
        </g>
        <g id="Grupo_887420" data-name="Grupo 887420" transform="translate(16.951 31.05)">
          <g id="Grupo_887419" data-name="Grupo 887419" clip-path="url(#clip-path-23)">
            <rect id="Rectángulo_298144" data-name="Rectángulo 298144" width="2.045" height="8.689" transform="translate(0 0)" fill="#1565c0"/>
          </g>
        </g>
        <g id="Grupo_887422" data-name="Grupo 887422" transform="translate(21.892 31.05)">
          <g id="Grupo_887421" data-name="Grupo 887421" clip-path="url(#clip-path-24)">
            <rect id="Rectángulo_298145" data-name="Rectángulo 298145" width="2.045" height="8.689" transform="translate(0 0)" fill="#1565c0"/>
          </g>
        </g>
        <g id="Grupo_887424" data-name="Grupo 887424" transform="translate(26.833 31.05)">
          <g id="Grupo_887423" data-name="Grupo 887423" clip-path="url(#clip-path-25)">
            <rect id="Rectángulo_298146" data-name="Rectángulo 298146" width="2.044" height="8.689" transform="translate(0 0)" fill="#1565c0"/>
          </g>
        </g>
        <g id="Grupo_887426" data-name="Grupo 887426" transform="translate(32.05 34.308)">
          <g id="Grupo_887425" data-name="Grupo 887425" clip-path="url(#clip-path-17)">
            <rect id="Rectángulo_298147" data-name="Rectángulo 298147" width="3.322" height="3.322" transform="translate(0 0)" fill="#1565c0"/>
          </g>
        </g>
        <g id="Grupo_887428" data-name="Grupo 887428" transform="translate(36.714 34.308)">
          <g id="Grupo_887427" data-name="Grupo 887427" clip-path="url(#clip-path-17)">
            <rect id="Rectángulo_298149" data-name="Rectángulo 298149" width="3.322" height="3.322" transform="translate(0 0)" fill="#1565c0"/>
          </g>
        </g>
        <g id="Grupo_887430" data-name="Grupo 887430" transform="translate(41.379 34.308)">
          <g id="Grupo_887429" data-name="Grupo 887429" clip-path="url(#clip-path-17)">
            <rect id="Rectángulo_298151" data-name="Rectángulo 298151" width="3.322" height="3.322" transform="translate(0 0)" fill="#1565c0"/>
          </g>
        </g>
        <g id="Grupo_887432" data-name="Grupo 887432" transform="translate(47.32 54.561)">
          <g id="Grupo_887431" data-name="Grupo 887431" clip-path="url(#clip-path-29)">
            <rect id="Rectángulo_298153" data-name="Rectángulo 298153" width="9.967" height="9.967" transform="translate(0 0)" fill="#1565c0"/>
          </g>
        </g>
        <g id="Grupo_887434" data-name="Grupo 887434" transform="translate(7.07 55.839)">
          <g id="Grupo_887433" data-name="Grupo 887433" clip-path="url(#clip-path-30)">
            <rect id="Rectángulo_298154" data-name="Rectángulo 298154" width="2.044" height="8.689" transform="translate(0 0)" fill="#1565c0"/>
          </g>
        </g>
        <g id="Grupo_887436" data-name="Grupo 887436" transform="translate(12.011 55.839)">
          <g id="Grupo_887435" data-name="Grupo 887435" clip-path="url(#clip-path-31)">
            <rect id="Rectángulo_298155" data-name="Rectángulo 298155" width="2.045" height="8.689" transform="translate(0 0)" fill="#1565c0"/>
          </g>
        </g>
        <g id="Grupo_887438" data-name="Grupo 887438" transform="translate(16.951 55.839)">
          <g id="Grupo_887437" data-name="Grupo 887437" clip-path="url(#clip-path-32)">
            <rect id="Rectángulo_298156" data-name="Rectángulo 298156" width="2.045" height="8.689" transform="translate(0 0)" fill="#1565c0"/>
          </g>
        </g>
        <g id="Grupo_887440" data-name="Grupo 887440" transform="translate(21.892 55.839)">
          <g id="Grupo_887439" data-name="Grupo 887439" clip-path="url(#clip-path-33)">
            <rect id="Rectángulo_298157" data-name="Rectángulo 298157" width="2.045" height="8.689" transform="translate(0 0)" fill="#1565c0"/>
          </g>
        </g>
        <g id="Grupo_887442" data-name="Grupo 887442" transform="translate(26.833 55.839)">
          <g id="Grupo_887441" data-name="Grupo 887441" clip-path="url(#clip-path-34)">
            <rect id="Rectángulo_298158" data-name="Rectángulo 298158" width="2.044" height="8.689" transform="translate(0 0)" fill="#1565c0"/>
          </g>
        </g>
        <g id="Grupo_887444" data-name="Grupo 887444" transform="translate(32.05 59.097)">
          <g id="Grupo_887443" data-name="Grupo 887443" clip-path="url(#clip-path-17)">
            <rect id="Rectángulo_298159" data-name="Rectángulo 298159" width="3.322" height="3.322" fill="#1565c0"/>
          </g>
        </g>
        <g id="Grupo_887446" data-name="Grupo 887446" transform="translate(36.714 59.097)">
          <g id="Grupo_887445" data-name="Grupo 887445" clip-path="url(#clip-path-17)">
            <rect id="Rectángulo_298161" data-name="Rectángulo 298161" width="3.322" height="3.322" fill="#1565c0"/>
          </g>
        </g>
        <g id="Grupo_887448" data-name="Grupo 887448" transform="translate(41.379 59.097)">
          <g id="Grupo_887447" data-name="Grupo 887447" clip-path="url(#clip-path-17)">
            <rect id="Rectángulo_298163" data-name="Rectángulo 298163" width="3.322" height="3.322" fill="#1565c0"/>
          </g>
        </g>
        <g id="Grupo_887450" data-name="Grupo 887450" transform="translate(8.987 72.961)">
          <g id="Grupo_887449" data-name="Grupo 887449" clip-path="url(#clip-path-38)">
            <rect id="Rectángulo_298165" data-name="Rectángulo 298165" width="45.489" height="2.045" transform="translate(0)" fill="#fb8c00"/>
          </g>
        </g>
      </g>
      <g id="Grupo_893197" data-name="Grupo 893197" transform="translate(-6547.4 -11938)">
        <g id="Rectángulo_301990" data-name="Rectángulo 301990" transform="translate(729 5760)" fill="#fff" stroke="#1565c0" stroke-width="2">
          <rect width="61" height="100" rx="9" stroke="none"/>
          <rect x="1" y="1" width="59" height="98" rx="8" fill="none"/>
        </g>
        <path id="Trazado_606263" data-name="Trazado 606263" d="M38.206,71.112a2.866,2.866,0,0,1-2.865,2.865H21.016a2.865,2.865,0,1,1,0-5.73H35.341a2.866,2.866,0,0,1,2.865,2.865" transform="translate(731.321 5773.729)" fill="#1565c0"/>
        <path id="Icon_awesome-wifi" data-name="Icon awesome-wifi" d="M27.485,7.569a20.127,20.127,0,0,0-27.264,0,.688.688,0,0,0-.015.995l1.482,1.471a.7.7,0,0,0,.97.016,16.608,16.608,0,0,1,22.391,0,.7.7,0,0,0,.97-.016L27.5,8.564a.688.688,0,0,0-.016-.995ZM13.852,16.1a2.77,2.77,0,1,0,2.77,2.77A2.77,2.77,0,0,0,13.852,16.1Zm8.773-3.619a13.29,13.29,0,0,0-17.547,0,.684.684,0,0,0-.025,1l1.491,1.471a.707.707,0,0,0,.955.035,9.75,9.75,0,0,1,12.7,0,.706.706,0,0,0,.955-.035l1.491-1.471A.684.684,0,0,0,22.626,12.484Z" transform="translate(745.647 5773.342)" fill="#1565c0"/>
      </g>
      <path id="Trazado_607179" data-name="Trazado 607179" d="M5156,11720h-30v-12h30v-8l24,14-24,14Z" transform="translate(-10863.4 -17875)" fill="#fb8c00"/>
      <path id="Trazado_607182" data-name="Trazado 607182" d="M30,8H0V20H30v8L54,14,30,0Z" transform="translate(-5683.399 -6076.294) rotate(180)" fill="#fb8c00"/>
      <path id="Trazado_607178" data-name="Trazado 607178" d="M2.82-4.453V0H1.32V-11.375h4.2a4.215,4.215,0,0,1,2.926.953A3.231,3.231,0,0,1,9.5-7.9,3.189,3.189,0,0,1,8.465-5.348,4.4,4.4,0,0,1,5.5-4.453Zm0-1.227h2.7a2.7,2.7,0,0,0,1.844-.566A2.069,2.069,0,0,0,8-7.883a2.138,2.138,0,0,0-.641-1.625A2.528,2.528,0,0,0,5.6-10.141H2.82ZM14.594.156A3.693,3.693,0,0,1,11.8-.973a4.19,4.19,0,0,1-1.078-3.02v-.266A5.073,5.073,0,0,1,11.2-6.5a3.748,3.748,0,0,1,1.344-1.547,3.378,3.378,0,0,1,1.871-.559,3.166,3.166,0,0,1,2.563,1.086,4.7,4.7,0,0,1,.914,3.109v.6H12.164a3,3,0,0,0,.73,2.02,2.3,2.3,0,0,0,1.777.77,2.517,2.517,0,0,0,1.3-.312,3.259,3.259,0,0,0,.93-.828l.883.688A3.55,3.55,0,0,1,14.594.156Zm-.18-7.578a1.928,1.928,0,0,0-1.469.637A3.1,3.1,0,0,0,12.211-5h4.234v-.109a2.753,2.753,0,0,0-.594-1.707A1.815,1.815,0,0,0,14.414-7.422ZM21.523-10.5v2.047H23.1v1.117H21.523v5.242a1.171,1.171,0,0,0,.211.762.888.888,0,0,0,.719.254,3.5,3.5,0,0,0,.688-.094V0a4.19,4.19,0,0,1-1.109.156A1.8,1.8,0,0,1,20.57-.43a2.517,2.517,0,0,1-.492-1.664V-7.336H18.539V-8.453h1.539V-10.5ZM26.359,0H24.914V-8.453h1.445ZM24.8-10.7a.863.863,0,0,1,.215-.594.807.807,0,0,1,.637-.242.819.819,0,0,1,.641.242.854.854,0,0,1,.219.594.826.826,0,0,1-.219.586.834.834,0,0,1-.641.234.821.821,0,0,1-.637-.234A.834.834,0,0,1,24.8-10.7Zm7.266,9.672a2.082,2.082,0,0,0,1.352-.469,1.649,1.649,0,0,0,.641-1.172h1.367a2.621,2.621,0,0,1-.5,1.383,3.293,3.293,0,0,1-1.23,1.047,3.55,3.55,0,0,1-1.629.391A3.482,3.482,0,0,1,29.316-1,4.59,4.59,0,0,1,28.3-4.148v-.242a5.089,5.089,0,0,1,.453-2.2,3.451,3.451,0,0,1,1.3-1.492,3.7,3.7,0,0,1,2-.531,3.39,3.39,0,0,1,2.363.852,3.043,3.043,0,0,1,1,2.211H34.055a1.992,1.992,0,0,0-.621-1.348,1.932,1.932,0,0,0-1.379-.527,2.023,2.023,0,0,0-1.707.793,3.724,3.724,0,0,0-.605,2.293v.273a3.65,3.65,0,0,0,.6,2.25A2.033,2.033,0,0,0,32.063-1.023ZM38.617,0H37.172V-8.453h1.445ZM37.055-10.7a.863.863,0,0,1,.215-.594.807.807,0,0,1,.637-.242.819.819,0,0,1,.641.242.854.854,0,0,1,.219.594.826.826,0,0,1-.219.586.834.834,0,0,1-.641.234.821.821,0,0,1-.637-.234A.834.834,0,0,1,37.055-10.7ZM40.547-4.3a4.993,4.993,0,0,1,.488-2.234A3.643,3.643,0,0,1,42.395-8.07a3.7,3.7,0,0,1,1.988-.539,3.565,3.565,0,0,1,2.793,1.2,4.6,4.6,0,0,1,1.066,3.18v.1a5.036,5.036,0,0,1-.473,2.215A3.589,3.589,0,0,1,46.418-.391,3.743,3.743,0,0,1,44.4.156a3.556,3.556,0,0,1-2.785-1.2A4.575,4.575,0,0,1,40.547-4.2ZM42-4.133a3.616,3.616,0,0,0,.652,2.258,2.088,2.088,0,0,0,1.746.852,2.075,2.075,0,0,0,1.75-.863A3.955,3.955,0,0,0,46.8-4.3a3.61,3.61,0,0,0-.66-2.254,2.1,2.1,0,0,0-1.754-.863,2.075,2.075,0,0,0-1.727.852A3.925,3.925,0,0,0,42-4.133ZM45.039-12h1.75L44.7-9.7H43.531Zm6.383,3.547.047,1.063A3.08,3.08,0,0,1,54-8.609q2.68,0,2.7,3.023V0H55.258V-5.594a1.946,1.946,0,0,0-.418-1.352,1.675,1.675,0,0,0-1.277-.437,2.086,2.086,0,0,0-1.234.375,2.546,2.546,0,0,0-.828.984V0H50.055V-8.453Z" transform="translate(-5737.4 -6182)" fill="#12263f"/>
      <path id="Trazado_607180" data-name="Trazado 607180" d="M5.492-4.6H2.82V0H1.313V-11.375H5.078a4.457,4.457,0,0,1,2.957.875A3.148,3.148,0,0,1,9.07-7.953,3.062,3.062,0,0,1,8.5-6.1a3.428,3.428,0,0,1-1.6,1.18L9.57-.094V0H7.961ZM2.82-5.828h2.3A2.6,2.6,0,0,0,6.9-6.406a1.953,1.953,0,0,0,.66-1.547A2.057,2.057,0,0,0,6.934-9.57a2.666,2.666,0,0,0-1.816-.57H2.82ZM14.453.156a3.693,3.693,0,0,1-2.8-1.129,4.19,4.19,0,0,1-1.078-3.02v-.266a5.073,5.073,0,0,1,.48-2.246A3.748,3.748,0,0,1,12.4-8.051a3.378,3.378,0,0,1,1.871-.559,3.166,3.166,0,0,1,2.563,1.086,4.7,4.7,0,0,1,.914,3.109v.6H12.023a3,3,0,0,0,.73,2.02,2.3,2.3,0,0,0,1.777.77,2.517,2.517,0,0,0,1.3-.312,3.259,3.259,0,0,0,.93-.828l.883.688A3.55,3.55,0,0,1,14.453.156Zm-.18-7.578a1.928,1.928,0,0,0-1.469.637A3.1,3.1,0,0,0,12.07-5H16.3v-.109a2.753,2.753,0,0,0-.594-1.707A1.815,1.815,0,0,0,14.273-7.422Zm10.07,5.18a1.064,1.064,0,0,0-.441-.91,4.249,4.249,0,0,0-1.539-.559,7.277,7.277,0,0,1-1.742-.562,2.479,2.479,0,0,1-.953-.781,1.869,1.869,0,0,1-.309-1.078,2.193,2.193,0,0,1,.879-1.758,3.432,3.432,0,0,1,2.246-.719,3.532,3.532,0,0,1,2.332.742,2.357,2.357,0,0,1,.895,1.9H24.258a1.3,1.3,0,0,0-.5-1.023,1.888,1.888,0,0,0-1.27-.43,1.976,1.976,0,0,0-1.234.344,1.082,1.082,0,0,0-.445.9.877.877,0,0,0,.414.789,5.1,5.1,0,0,0,1.5.508,7.8,7.8,0,0,1,1.754.578,2.558,2.558,0,0,1,1,.809,1.988,1.988,0,0,1,.324,1.152,2.163,2.163,0,0,1-.906,1.816,3.8,3.8,0,0,1-2.352.684,4.257,4.257,0,0,1-1.8-.359,2.922,2.922,0,0,1-1.223-1A2.42,2.42,0,0,1,19.07-2.6h1.445A1.5,1.5,0,0,0,21.1-1.449a2.258,2.258,0,0,0,1.434.426,2.331,2.331,0,0,0,1.316-.332A1.02,1.02,0,0,0,24.344-2.242ZM34.813-4.133a5.062,5.062,0,0,1-.883,3.109A2.829,2.829,0,0,1,31.539.156,3.1,3.1,0,0,1,29.117-.82V3.25H27.672v-11.7h1.32l.07.938a2.977,2.977,0,0,1,2.453-1.094,2.882,2.882,0,0,1,2.41,1.148,5.117,5.117,0,0,1,.887,3.2ZM33.367-4.3a3.735,3.735,0,0,0-.609-2.258,1.963,1.963,0,0,0-1.672-.828,2.125,2.125,0,0,0-1.969,1.164V-2.18A2.129,2.129,0,0,0,31.1-1.023a1.954,1.954,0,0,0,1.652-.824A4.077,4.077,0,0,0,33.367-4.3Zm8.5,3.461a3.07,3.07,0,0,1-2.477.992,2.628,2.628,0,0,1-2.059-.785,3.4,3.4,0,0,1-.715-2.324v-5.5h1.445v5.461q0,1.922,1.563,1.922a2.163,2.163,0,0,0,2.2-1.234V-8.453h1.445V0H41.9Zm7.109.992a3.693,3.693,0,0,1-2.8-1.129A4.19,4.19,0,0,1,45.1-3.992v-.266a5.073,5.073,0,0,1,.48-2.246,3.748,3.748,0,0,1,1.344-1.547A3.378,3.378,0,0,1,48.8-8.609a3.166,3.166,0,0,1,2.563,1.086,4.7,4.7,0,0,1,.914,3.109v.6H46.547a3,3,0,0,0,.73,2.02,2.3,2.3,0,0,0,1.777.77,2.517,2.517,0,0,0,1.3-.312,3.259,3.259,0,0,0,.93-.828l.883.688A3.55,3.55,0,0,1,48.977.156ZM48.8-7.422a1.928,1.928,0,0,0-1.469.637A3.1,3.1,0,0,0,46.594-5h4.234v-.109a2.753,2.753,0,0,0-.594-1.707A1.815,1.815,0,0,0,48.8-7.422Zm10.07,5.18a1.064,1.064,0,0,0-.441-.91,4.249,4.249,0,0,0-1.539-.559,7.277,7.277,0,0,1-1.742-.562,2.479,2.479,0,0,1-.953-.781,1.869,1.869,0,0,1-.309-1.078,2.193,2.193,0,0,1,.879-1.758,3.432,3.432,0,0,1,2.246-.719,3.532,3.532,0,0,1,2.332.742,2.357,2.357,0,0,1,.895,1.9H58.781a1.3,1.3,0,0,0-.5-1.023,1.888,1.888,0,0,0-1.27-.43,1.976,1.976,0,0,0-1.234.344,1.082,1.082,0,0,0-.445.9.877.877,0,0,0,.414.789,5.1,5.1,0,0,0,1.5.508,7.8,7.8,0,0,1,1.754.578,2.558,2.558,0,0,1,1,.809,1.988,1.988,0,0,1,.324,1.152,2.163,2.163,0,0,1-.906,1.816,3.8,3.8,0,0,1-2.352.684,4.257,4.257,0,0,1-1.8-.359,2.922,2.922,0,0,1-1.223-1A2.42,2.42,0,0,1,53.594-2.6h1.445a1.5,1.5,0,0,0,.582,1.152,2.258,2.258,0,0,0,1.434.426,2.331,2.331,0,0,0,1.316-.332A1.02,1.02,0,0,0,58.867-2.242ZM64.156-10.5v2.047h1.578v1.117H64.156v5.242a1.171,1.171,0,0,0,.211.762.888.888,0,0,0,.719.254,3.5,3.5,0,0,0,.688-.094V0a4.19,4.19,0,0,1-1.109.156A1.8,1.8,0,0,1,63.2-.43a2.517,2.517,0,0,1-.492-1.664V-7.336H61.172V-8.453h1.539V-10.5ZM72.641,0a3.036,3.036,0,0,1-.2-.891A3.225,3.225,0,0,1,70.031.156,2.984,2.984,0,0,1,67.98-.551a2.288,2.288,0,0,1-.8-1.793,2.39,2.39,0,0,1,1-2.051,4.733,4.733,0,0,1,2.824-.73h1.406v-.664A1.623,1.623,0,0,0,71.961-7a1.821,1.821,0,0,0-1.336-.449,2.108,2.108,0,0,0-1.3.391,1.151,1.151,0,0,0-.523.945H67.352A2,2,0,0,1,67.8-7.332a3.066,3.066,0,0,1,1.219-.934,4.1,4.1,0,0,1,1.691-.344A3.342,3.342,0,0,1,73-7.879a2.635,2.635,0,0,1,.859,2.012v3.891a4.757,4.757,0,0,0,.3,1.852V0Zm-2.4-1.1a2.54,2.54,0,0,0,1.289-.352,2.127,2.127,0,0,0,.883-.914V-4.1H71.281q-2.656,0-2.656,1.555a1.316,1.316,0,0,0,.453,1.063A1.742,1.742,0,0,0,70.242-1.1Z" transform="translate(-5737.4 -6113)" fill="#12263f"/>
      <path id="Trazado_607184" data-name="Trazado 607184" d="M5156,11720h-30v-12h30v-8l24,14-24,14Z" transform="translate(-10653.398 -17875)" fill="#fb8c00"/>
      <path id="Trazado_607185" data-name="Trazado 607185" d="M30,8H0V20H30v8L54,14,30,0Z" transform="translate(-5473.398 -6076.294) rotate(180)" fill="#fb8c00"/>
      <path id="Trazado_607186" data-name="Trazado 607186" d="M2.82-4.453V0H1.32V-11.375h4.2a4.215,4.215,0,0,1,2.926.953A3.231,3.231,0,0,1,9.5-7.9,3.189,3.189,0,0,1,8.465-5.348,4.4,4.4,0,0,1,5.5-4.453Zm0-1.227h2.7a2.7,2.7,0,0,0,1.844-.566A2.069,2.069,0,0,0,8-7.883a2.138,2.138,0,0,0-.641-1.625A2.528,2.528,0,0,0,5.6-10.141H2.82ZM14.594.156A3.693,3.693,0,0,1,11.8-.973a4.19,4.19,0,0,1-1.078-3.02v-.266A5.073,5.073,0,0,1,11.2-6.5a3.748,3.748,0,0,1,1.344-1.547,3.378,3.378,0,0,1,1.871-.559,3.166,3.166,0,0,1,2.563,1.086,4.7,4.7,0,0,1,.914,3.109v.6H12.164a3,3,0,0,0,.73,2.02,2.3,2.3,0,0,0,1.777.77,2.517,2.517,0,0,0,1.3-.312,3.259,3.259,0,0,0,.93-.828l.883.688A3.55,3.55,0,0,1,14.594.156Zm-.18-7.578a1.928,1.928,0,0,0-1.469.637A3.1,3.1,0,0,0,12.211-5h4.234v-.109a2.753,2.753,0,0,0-.594-1.707A1.815,1.815,0,0,0,14.414-7.422ZM21.523-10.5v2.047H23.1v1.117H21.523v5.242a1.171,1.171,0,0,0,.211.762.888.888,0,0,0,.719.254,3.5,3.5,0,0,0,.688-.094V0a4.19,4.19,0,0,1-1.109.156A1.8,1.8,0,0,1,20.57-.43a2.517,2.517,0,0,1-.492-1.664V-7.336H18.539V-8.453h1.539V-10.5ZM26.359,0H24.914V-8.453h1.445ZM24.8-10.7a.863.863,0,0,1,.215-.594.807.807,0,0,1,.637-.242.819.819,0,0,1,.641.242.854.854,0,0,1,.219.594.826.826,0,0,1-.219.586.834.834,0,0,1-.641.234.821.821,0,0,1-.637-.234A.834.834,0,0,1,24.8-10.7Zm7.266,9.672a2.082,2.082,0,0,0,1.352-.469,1.649,1.649,0,0,0,.641-1.172h1.367a2.621,2.621,0,0,1-.5,1.383,3.293,3.293,0,0,1-1.23,1.047,3.55,3.55,0,0,1-1.629.391A3.482,3.482,0,0,1,29.316-1,4.59,4.59,0,0,1,28.3-4.148v-.242a5.089,5.089,0,0,1,.453-2.2,3.451,3.451,0,0,1,1.3-1.492,3.7,3.7,0,0,1,2-.531,3.39,3.39,0,0,1,2.363.852,3.043,3.043,0,0,1,1,2.211H34.055a1.992,1.992,0,0,0-.621-1.348,1.932,1.932,0,0,0-1.379-.527,2.023,2.023,0,0,0-1.707.793,3.724,3.724,0,0,0-.605,2.293v.273a3.65,3.65,0,0,0,.6,2.25A2.033,2.033,0,0,0,32.063-1.023ZM38.617,0H37.172V-8.453h1.445ZM37.055-10.7a.863.863,0,0,1,.215-.594.807.807,0,0,1,.637-.242.819.819,0,0,1,.641.242.854.854,0,0,1,.219.594.826.826,0,0,1-.219.586.834.834,0,0,1-.641.234.821.821,0,0,1-.637-.234A.834.834,0,0,1,37.055-10.7ZM40.547-4.3a4.993,4.993,0,0,1,.488-2.234A3.643,3.643,0,0,1,42.395-8.07a3.7,3.7,0,0,1,1.988-.539,3.565,3.565,0,0,1,2.793,1.2,4.6,4.6,0,0,1,1.066,3.18v.1a5.036,5.036,0,0,1-.473,2.215A3.589,3.589,0,0,1,46.418-.391,3.743,3.743,0,0,1,44.4.156a3.556,3.556,0,0,1-2.785-1.2A4.575,4.575,0,0,1,40.547-4.2ZM42-4.133a3.616,3.616,0,0,0,.652,2.258,2.088,2.088,0,0,0,1.746.852,2.075,2.075,0,0,0,1.75-.863A3.955,3.955,0,0,0,46.8-4.3a3.61,3.61,0,0,0-.66-2.254,2.1,2.1,0,0,0-1.754-.863,2.075,2.075,0,0,0-1.727.852A3.925,3.925,0,0,0,42-4.133ZM45.039-12h1.75L44.7-9.7H43.531Zm6.383,3.547.047,1.063A3.08,3.08,0,0,1,54-8.609q2.68,0,2.7,3.023V0H55.258V-5.594a1.946,1.946,0,0,0-.418-1.352,1.675,1.675,0,0,0-1.277-.437,2.086,2.086,0,0,0-1.234.375,2.546,2.546,0,0,0-.828.984V0H50.055V-8.453Z" transform="translate(-5527.399 -6181)" fill="#12263f"/>
      <path id="Trazado_607187" data-name="Trazado 607187" d="M5.492-4.6H2.82V0H1.313V-11.375H5.078a4.457,4.457,0,0,1,2.957.875A3.148,3.148,0,0,1,9.07-7.953,3.062,3.062,0,0,1,8.5-6.1a3.428,3.428,0,0,1-1.6,1.18L9.57-.094V0H7.961ZM2.82-5.828h2.3A2.6,2.6,0,0,0,6.9-6.406a1.953,1.953,0,0,0,.66-1.547A2.057,2.057,0,0,0,6.934-9.57a2.666,2.666,0,0,0-1.816-.57H2.82ZM14.453.156a3.693,3.693,0,0,1-2.8-1.129,4.19,4.19,0,0,1-1.078-3.02v-.266a5.073,5.073,0,0,1,.48-2.246A3.748,3.748,0,0,1,12.4-8.051a3.378,3.378,0,0,1,1.871-.559,3.166,3.166,0,0,1,2.563,1.086,4.7,4.7,0,0,1,.914,3.109v.6H12.023a3,3,0,0,0,.73,2.02,2.3,2.3,0,0,0,1.777.77,2.517,2.517,0,0,0,1.3-.312,3.259,3.259,0,0,0,.93-.828l.883.688A3.55,3.55,0,0,1,14.453.156Zm-.18-7.578a1.928,1.928,0,0,0-1.469.637A3.1,3.1,0,0,0,12.07-5H16.3v-.109a2.753,2.753,0,0,0-.594-1.707A1.815,1.815,0,0,0,14.273-7.422Zm10.07,5.18a1.064,1.064,0,0,0-.441-.91,4.249,4.249,0,0,0-1.539-.559,7.277,7.277,0,0,1-1.742-.562,2.479,2.479,0,0,1-.953-.781,1.869,1.869,0,0,1-.309-1.078,2.193,2.193,0,0,1,.879-1.758,3.432,3.432,0,0,1,2.246-.719,3.532,3.532,0,0,1,2.332.742,2.357,2.357,0,0,1,.895,1.9H24.258a1.3,1.3,0,0,0-.5-1.023,1.888,1.888,0,0,0-1.27-.43,1.976,1.976,0,0,0-1.234.344,1.082,1.082,0,0,0-.445.9.877.877,0,0,0,.414.789,5.1,5.1,0,0,0,1.5.508,7.8,7.8,0,0,1,1.754.578,2.558,2.558,0,0,1,1,.809,1.988,1.988,0,0,1,.324,1.152,2.163,2.163,0,0,1-.906,1.816,3.8,3.8,0,0,1-2.352.684,4.257,4.257,0,0,1-1.8-.359,2.922,2.922,0,0,1-1.223-1A2.42,2.42,0,0,1,19.07-2.6h1.445A1.5,1.5,0,0,0,21.1-1.449a2.258,2.258,0,0,0,1.434.426,2.331,2.331,0,0,0,1.316-.332A1.02,1.02,0,0,0,24.344-2.242ZM34.813-4.133a5.062,5.062,0,0,1-.883,3.109A2.829,2.829,0,0,1,31.539.156,3.1,3.1,0,0,1,29.117-.82V3.25H27.672v-11.7h1.32l.07.938a2.977,2.977,0,0,1,2.453-1.094,2.882,2.882,0,0,1,2.41,1.148,5.117,5.117,0,0,1,.887,3.2ZM33.367-4.3a3.735,3.735,0,0,0-.609-2.258,1.963,1.963,0,0,0-1.672-.828,2.125,2.125,0,0,0-1.969,1.164V-2.18A2.129,2.129,0,0,0,31.1-1.023a1.954,1.954,0,0,0,1.652-.824A4.077,4.077,0,0,0,33.367-4.3Zm8.5,3.461a3.07,3.07,0,0,1-2.477.992,2.628,2.628,0,0,1-2.059-.785,3.4,3.4,0,0,1-.715-2.324v-5.5h1.445v5.461q0,1.922,1.563,1.922a2.163,2.163,0,0,0,2.2-1.234V-8.453h1.445V0H41.9Zm7.109.992a3.693,3.693,0,0,1-2.8-1.129A4.19,4.19,0,0,1,45.1-3.992v-.266a5.073,5.073,0,0,1,.48-2.246,3.748,3.748,0,0,1,1.344-1.547A3.378,3.378,0,0,1,48.8-8.609a3.166,3.166,0,0,1,2.563,1.086,4.7,4.7,0,0,1,.914,3.109v.6H46.547a3,3,0,0,0,.73,2.02,2.3,2.3,0,0,0,1.777.77,2.517,2.517,0,0,0,1.3-.312,3.259,3.259,0,0,0,.93-.828l.883.688A3.55,3.55,0,0,1,48.977.156ZM48.8-7.422a1.928,1.928,0,0,0-1.469.637A3.1,3.1,0,0,0,46.594-5h4.234v-.109a2.753,2.753,0,0,0-.594-1.707A1.815,1.815,0,0,0,48.8-7.422Zm10.07,5.18a1.064,1.064,0,0,0-.441-.91,4.249,4.249,0,0,0-1.539-.559,7.277,7.277,0,0,1-1.742-.562,2.479,2.479,0,0,1-.953-.781,1.869,1.869,0,0,1-.309-1.078,2.193,2.193,0,0,1,.879-1.758,3.432,3.432,0,0,1,2.246-.719,3.532,3.532,0,0,1,2.332.742,2.357,2.357,0,0,1,.895,1.9H58.781a1.3,1.3,0,0,0-.5-1.023,1.888,1.888,0,0,0-1.27-.43,1.976,1.976,0,0,0-1.234.344,1.082,1.082,0,0,0-.445.9.877.877,0,0,0,.414.789,5.1,5.1,0,0,0,1.5.508,7.8,7.8,0,0,1,1.754.578,2.558,2.558,0,0,1,1,.809,1.988,1.988,0,0,1,.324,1.152,2.163,2.163,0,0,1-.906,1.816,3.8,3.8,0,0,1-2.352.684,4.257,4.257,0,0,1-1.8-.359,2.922,2.922,0,0,1-1.223-1A2.42,2.42,0,0,1,53.594-2.6h1.445a1.5,1.5,0,0,0,.582,1.152,2.258,2.258,0,0,0,1.434.426,2.331,2.331,0,0,0,1.316-.332A1.02,1.02,0,0,0,58.867-2.242ZM64.156-10.5v2.047h1.578v1.117H64.156v5.242a1.171,1.171,0,0,0,.211.762.888.888,0,0,0,.719.254,3.5,3.5,0,0,0,.688-.094V0a4.19,4.19,0,0,1-1.109.156A1.8,1.8,0,0,1,63.2-.43a2.517,2.517,0,0,1-.492-1.664V-7.336H61.172V-8.453h1.539V-10.5ZM72.641,0a3.036,3.036,0,0,1-.2-.891A3.225,3.225,0,0,1,70.031.156,2.984,2.984,0,0,1,67.98-.551a2.288,2.288,0,0,1-.8-1.793,2.39,2.39,0,0,1,1-2.051,4.733,4.733,0,0,1,2.824-.73h1.406v-.664A1.623,1.623,0,0,0,71.961-7a1.821,1.821,0,0,0-1.336-.449,2.108,2.108,0,0,0-1.3.391,1.151,1.151,0,0,0-.523.945H67.352A2,2,0,0,1,67.8-7.332a3.066,3.066,0,0,1,1.219-.934,4.1,4.1,0,0,1,1.691-.344A3.342,3.342,0,0,1,73-7.879a2.635,2.635,0,0,1,.859,2.012v3.891a4.757,4.757,0,0,0,.3,1.852V0Zm-2.4-1.1a2.54,2.54,0,0,0,1.289-.352,2.127,2.127,0,0,0,.883-.914V-4.1H71.281q-2.656,0-2.656,1.555a1.316,1.316,0,0,0,.453,1.063A1.742,1.742,0,0,0,70.242-1.1Z" transform="translate(-5527.399 -6112)" fill="#12263f"/>
      <path id="Trazado_607181" data-name="Trazado 607181" d="M7.6-2.969H2.836L1.766,0H.219L4.563-11.375H5.875L10.227,0H8.688ZM3.289-4.2H7.156L5.219-9.523Zm9.969-.25V0h-1.5V-11.375h4.2a4.215,4.215,0,0,1,2.926.953A3.231,3.231,0,0,1,19.938-7.9,3.189,3.189,0,0,1,18.9-5.348a4.4,4.4,0,0,1-2.965.895Zm0-1.227h2.7A2.7,2.7,0,0,0,17.8-6.246a2.069,2.069,0,0,0,.641-1.637A2.138,2.138,0,0,0,17.8-9.508a2.528,2.528,0,0,0-1.758-.633H13.258ZM23.352-4.453V0h-1.5V-11.375h4.2a4.215,4.215,0,0,1,2.926.953A3.231,3.231,0,0,1,30.031-7.9,3.189,3.189,0,0,1,29-5.348a4.4,4.4,0,0,1-2.965.895Zm0-1.227h2.7a2.7,2.7,0,0,0,1.844-.566,2.069,2.069,0,0,0,.641-1.637,2.138,2.138,0,0,0-.641-1.625,2.528,2.528,0,0,0-1.758-.633H23.352Z" transform="translate(-5803.4 -6118)" fill="#12263f"/>
      <path id="Trazado_607188" data-name="Trazado 607188" d="M4.672-5.07A7.053,7.053,0,0,1,1.863-6.434a2.6,2.6,0,0,1-.879-2,2.751,2.751,0,0,1,1.074-2.223,4.269,4.269,0,0,1,2.793-.879,4.66,4.66,0,0,1,2.09.453,3.436,3.436,0,0,1,1.422,1.25,3.2,3.2,0,0,1,.5,1.742H7.359A2.069,2.069,0,0,0,6.7-9.707a2.675,2.675,0,0,0-1.852-.59,2.736,2.736,0,0,0-1.73.488A1.628,1.628,0,0,0,2.5-8.453a1.465,1.465,0,0,0,.59,1.176A5.79,5.79,0,0,0,5.1-6.4a9.3,9.3,0,0,1,2.219.879A3.367,3.367,0,0,1,8.5-4.4a2.861,2.861,0,0,1,.387,1.508A2.658,2.658,0,0,1,7.813-.676,4.6,4.6,0,0,1,4.93.156,5.347,5.347,0,0,1,2.742-.293a3.681,3.681,0,0,1-1.566-1.23A3,3,0,0,1,.625-3.3H2.133a1.959,1.959,0,0,0,.762,1.629,3.207,3.207,0,0,0,2.035.6,2.948,2.948,0,0,0,1.82-.484,1.573,1.573,0,0,0,.633-1.32A1.545,1.545,0,0,0,6.8-4.168,6.755,6.755,0,0,0,4.672-5.07ZM14.094.156A3.693,3.693,0,0,1,11.3-.973a4.19,4.19,0,0,1-1.078-3.02v-.266A5.073,5.073,0,0,1,10.7-6.5a3.748,3.748,0,0,1,1.344-1.547,3.378,3.378,0,0,1,1.871-.559,3.166,3.166,0,0,1,2.563,1.086,4.7,4.7,0,0,1,.914,3.109v.6H11.664a3,3,0,0,0,.73,2.02,2.3,2.3,0,0,0,1.777.77,2.517,2.517,0,0,0,1.3-.312,3.259,3.259,0,0,0,.93-.828l.883.688A3.55,3.55,0,0,1,14.094.156Zm-.18-7.578a1.928,1.928,0,0,0-1.469.637A3.1,3.1,0,0,0,11.711-5h4.234v-.109a2.753,2.753,0,0,0-.594-1.707A1.815,1.815,0,0,0,13.914-7.422Zm9.234.266a4.331,4.331,0,0,0-.711-.055A1.9,1.9,0,0,0,20.508-6V0H19.063V-8.453h1.406l.023.977a2.251,2.251,0,0,1,2.016-1.133,1.477,1.477,0,0,1,.641.109Zm4.258,5.2L29.5-8.453h1.477L27.945,0h-1.1L23.781-8.453h1.477ZM33.938,0H32.492V-8.453h1.445ZM32.375-10.7a.863.863,0,0,1,.215-.594.807.807,0,0,1,.637-.242.819.819,0,0,1,.641.242.854.854,0,0,1,.219.594.826.826,0,0,1-.219.586.834.834,0,0,1-.641.234.821.821,0,0,1-.637-.234A.834.834,0,0,1,32.375-10.7ZM35.9-4.3a4.952,4.952,0,0,1,.922-3.129,2.915,2.915,0,0,1,2.414-1.184,2.932,2.932,0,0,1,2.352,1.016V-12h1.445V0H41.7l-.07-.906A2.943,2.943,0,0,1,39.219.156a2.887,2.887,0,0,1-2.395-1.2A5.008,5.008,0,0,1,35.9-4.187Zm1.445.164a3.749,3.749,0,0,0,.594,2.25,1.92,1.92,0,0,0,1.641.813A2.108,2.108,0,0,0,41.586-2.3V-6.187a2.125,2.125,0,0,0-1.992-1.2,1.929,1.929,0,0,0-1.656.82A4.128,4.128,0,0,0,37.344-4.133ZM44.891-4.3a4.993,4.993,0,0,1,.488-2.234A3.643,3.643,0,0,1,46.738-8.07a3.7,3.7,0,0,1,1.988-.539,3.565,3.565,0,0,1,2.793,1.2,4.6,4.6,0,0,1,1.066,3.18v.1a5.036,5.036,0,0,1-.473,2.215A3.589,3.589,0,0,1,50.762-.391a3.743,3.743,0,0,1-2.02.547,3.556,3.556,0,0,1-2.785-1.2A4.575,4.575,0,0,1,44.891-4.2Zm1.453.172A3.616,3.616,0,0,0,47-1.875a2.088,2.088,0,0,0,1.746.852,2.075,2.075,0,0,0,1.75-.863A3.955,3.955,0,0,0,51.141-4.3a3.61,3.61,0,0,0-.66-2.254,2.1,2.1,0,0,0-1.754-.863A2.075,2.075,0,0,0,47-6.57,3.925,3.925,0,0,0,46.344-4.133ZM58.484-7.156a4.331,4.331,0,0,0-.711-.055A1.9,1.9,0,0,0,55.844-6V0H54.4V-8.453H55.8l.023.977a2.251,2.251,0,0,1,2.016-1.133,1.477,1.477,0,0,1,.641.109Z" transform="translate(-5419.399 -6071)" fill="#12263f"/>
      <path id="Trazado_607183" data-name="Trazado 607183" d="M3.484-3.508,3.453-2.133l.531-1.344,3.4-7.9H8.625l.9,8,.078,1.3.492-1.57L13-11.375h1.508L10.055,0H8.719L7.734-8.352,7.7-9.133l-.328.906L3.75,0H2.414L1.523-11.375h1.43ZM17.5.156a3.048,3.048,0,0,1-2.469-1.164,4.006,4.006,0,0,1-.75-2.9l.039-.336a5.624,5.624,0,0,1,.746-2.3,4.339,4.339,0,0,1,1.5-1.566,3.491,3.491,0,0,1,1.906-.5,2.688,2.688,0,0,1,2.047.867,3.566,3.566,0,0,1,.813,2.266A6.621,6.621,0,0,1,21.3-4.461l-.086.648H15.688a2.856,2.856,0,0,0,.379,1.953,1.8,1.8,0,0,0,1.551.836A3.007,3.007,0,0,0,19.93-2.148l.813.688a3.718,3.718,0,0,1-1.371,1.2A3.886,3.886,0,0,1,17.5.156Zm.9-7.586a2.066,2.066,0,0,0-1.527.594A4.22,4.22,0,0,0,15.836-5l4.109.008.031-.125a2.313,2.313,0,0,0-.316-1.637A1.488,1.488,0,0,0,18.4-7.43ZM29.813-4.187A6.586,6.586,0,0,1,29.1-1.852,3.982,3.982,0,0,1,27.758-.312a3.058,3.058,0,0,1-1.75.477A2.61,2.61,0,0,1,23.734-.984L23.445,0h-1.3l2.086-12h1.414l-.852,4.484a3.107,3.107,0,0,1,2.469-1.094,2.358,2.358,0,0,1,1.9.9,3.954,3.954,0,0,1,.719,2.391,7.362,7.362,0,0,1-.047.969Zm-1.344-.82a3.015,3.015,0,0,0-.383-1.746,1.464,1.464,0,0,0-1.242-.637,2.573,2.573,0,0,0-2.234,1.328l-.633,3.68a1.8,1.8,0,0,0,1.758,1.32,2.053,2.053,0,0,0,1.449-.492,3.216,3.216,0,0,0,.941-1.465A6.594,6.594,0,0,0,28.469-5.008Zm9.07,2.078q.172-1.25-1.3-1.828L34.891-5.25l-.453-.2Q32.156-6.484,32.3-8.367a3.056,3.056,0,0,1,.648-1.672,3.69,3.69,0,0,1,1.512-1.121,4.849,4.849,0,0,1,2-.371,4,4,0,0,1,1.84.461,2.962,2.962,0,0,1,1.23,1.223,3.333,3.333,0,0,1,.375,1.77l-1.477-.008a2.025,2.025,0,0,0-.469-1.621,2.1,2.1,0,0,0-1.562-.59,2.914,2.914,0,0,0-1.789.5,1.951,1.951,0,0,0-.828,1.406q-.156,1.164,1.43,1.766l1.164.414.586.25a2.941,2.941,0,0,1,2.039,3.016,3.012,3.012,0,0,1-.648,1.66A3.626,3.626,0,0,1,36.832-.2a5.266,5.266,0,0,1-2.074.359A4.339,4.339,0,0,1,32.8-.3a3.193,3.193,0,0,1-1.348-1.23A3.078,3.078,0,0,1,31.047-3.3l1.469.008a1.935,1.935,0,0,0,.551,1.613,2.479,2.479,0,0,0,1.754.613,3.131,3.131,0,0,0,1.867-.492A1.916,1.916,0,0,0,37.539-2.93ZM43.875.156a3.048,3.048,0,0,1-2.469-1.164,4.006,4.006,0,0,1-.75-2.9l.039-.336a5.624,5.624,0,0,1,.746-2.3,4.339,4.339,0,0,1,1.5-1.566,3.491,3.491,0,0,1,1.906-.5,2.688,2.688,0,0,1,2.047.867A3.566,3.566,0,0,1,47.7-5.477a6.621,6.621,0,0,1-.031,1.016l-.086.648H42.063a2.856,2.856,0,0,0,.379,1.953,1.8,1.8,0,0,0,1.551.836A3.007,3.007,0,0,0,46.3-2.148l.813.688a3.718,3.718,0,0,1-1.371,1.2A3.886,3.886,0,0,1,43.875.156Zm.9-7.586a2.066,2.066,0,0,0-1.527.594A4.22,4.22,0,0,0,42.211-5l4.109.008.031-.125a2.313,2.313,0,0,0-.316-1.637A1.488,1.488,0,0,0,44.773-7.43Zm9,.266-.664-.07a2.42,2.42,0,0,0-2.141,1.227L49.93,0H48.516l1.469-8.453,1.367-.008-.211.984a2.527,2.527,0,0,1,2.117-1.148,2.594,2.594,0,0,1,.672.117Zm3.281,5.188L60.1-8.453h1.492L57.336,0H56.258L54.6-8.453h1.391ZM63.109,0H61.7l1.469-8.453h1.406Zm1.164-11.539a.774.774,0,0,1,.6.215.8.8,0,0,1,.238.605.849.849,0,0,1-.238.6.855.855,0,0,1-.6.25.779.779,0,0,1-.6-.211.764.764,0,0,1-.227-.594.886.886,0,0,1,.234-.609A.826.826,0,0,1,64.273-11.539ZM68.992-1.016a2.145,2.145,0,0,0,1.367-.441,2.1,2.1,0,0,0,.8-1.2l1.336-.008a3.014,3.014,0,0,1-.637,1.453A3.553,3.553,0,0,1,70.547-.187,3.551,3.551,0,0,1,68.93.156a3.017,3.017,0,0,1-1.785-.551A3.084,3.084,0,0,1,66.07-1.887a4.972,4.972,0,0,1-.234-2.152l.039-.391a5.605,5.605,0,0,1,.711-2.18,4.11,4.11,0,0,1,1.469-1.5,3.648,3.648,0,0,1,2-.5,2.857,2.857,0,0,1,2.125.891,3.08,3.08,0,0,1,.8,2.18l-1.32-.008a2.029,2.029,0,0,0-.461-1.34,1.607,1.607,0,0,0-1.2-.543,2.254,2.254,0,0,0-1.832.82,4.3,4.3,0,0,0-.91,2.359l-.023.2a6.776,6.776,0,0,0-.016,1.031,2.355,2.355,0,0,0,.516,1.445A1.656,1.656,0,0,0,68.992-1.016ZM77.281.156a3.048,3.048,0,0,1-2.469-1.164,4.006,4.006,0,0,1-.75-2.9l.039-.336a5.624,5.624,0,0,1,.746-2.3,4.339,4.339,0,0,1,1.5-1.566,3.491,3.491,0,0,1,1.906-.5,2.688,2.688,0,0,1,2.047.867,3.566,3.566,0,0,1,.813,2.266,6.62,6.62,0,0,1-.031,1.016l-.086.648H75.469a2.856,2.856,0,0,0,.379,1.953,1.8,1.8,0,0,0,1.551.836,3.007,3.007,0,0,0,2.313-1.125l.813.688a3.718,3.718,0,0,1-1.371,1.2A3.886,3.886,0,0,1,77.281.156Zm.9-7.586a2.066,2.066,0,0,0-1.527.594A4.22,4.22,0,0,0,75.617-5l4.109.008.031-.125a2.313,2.313,0,0,0-.316-1.637A1.488,1.488,0,0,0,78.18-7.43Z" transform="translate(-5642.399 -6094.796)" fill="#12263f"/>
    </g>
  </g>
</svg>
