<?xml version="1.0" encoding="utf-8"?>
<!-- Generator: Adobe Illustrator 27.0.0, SVG Export Plug-In . SVG Version: 6.00 Build 0)  -->
<svg version="1.1" id="Layer_1" xmlns="http://www.w3.org/2000/svg" xmlns:xlink="http://www.w3.org/1999/xlink" x="0px" y="0px"
	 viewBox="0 0 820 209" style="enable-background:new 0 0 820 209;" xml:space="preserve">
<style type="text/css">
	.st0{fill:#FFEED8;}
	.st1{fill:#1565C0;}
	.st2{fill:#0B7B86;}
	.st3{fill:#0D7C87;}
	.st4{fill:none;stroke:#26AAB7;stroke-linecap:round;}
	.st5{fill:#26AAB7;}
</style>
<g id="Grupo_893202" transform="translate(6381 5229)">
	<path id="Trazado_607168" class="st0" d="M-6381-5229h820v209h-820V-5229z"/>
	<path id="Trazado_606452" class="st1" d="M-6147.1-5133.1l4.7,1.7v2.3l-7.2-3v-2l7.2-3v2.3L-6147.1-5133.1z M-6131-5128
		c-0.1-0.3-0.2-0.5-0.2-0.8c-0.6,0.6-1.4,1-2.3,1c-0.8,0-1.6-0.2-2.2-0.8c-0.6-0.5-0.9-1.2-0.9-1.9c0-0.9,0.4-1.7,1.1-2.2
		c0.9-0.6,2-0.8,3.1-0.8h1.1v-0.5c0-0.4-0.1-0.7-0.3-1c-0.3-0.3-0.6-0.4-1-0.4c-0.3,0-0.7,0.1-0.9,0.3c-0.2,0.2-0.4,0.5-0.3,0.8
		h-2.4c0-0.5,0.2-1,0.5-1.4c0.4-0.5,0.8-0.8,1.4-1c0.6-0.3,1.3-0.4,2-0.4c1-0.1,1.9,0.2,2.6,0.8c0.7,0.6,1,1.5,1,2.3v3.9
		c0,0.7,0.1,1.3,0.4,1.9v0.1H-6131z M-6133-5129.7c0.3,0,0.7-0.1,1-0.2c0.3-0.1,0.5-0.4,0.7-0.6v-1.5h-0.9c-1.2,0-1.8,0.4-1.9,1.2
		l0,0.1c0,0.3,0.1,0.6,0.3,0.7C-6133.6-5129.8-6133.3-5129.6-6133-5129.7z M-6121.7-5128.9c-0.6,0.7-1.5,1.1-2.5,1.1
		c-0.8,0.1-1.6-0.2-2.2-0.8c-0.6-0.7-0.8-1.6-0.8-2.4v-5.9h2.4v5.8c0,0.9,0.4,1.4,1.3,1.4c0.7,0.1,1.3-0.3,1.7-0.8v-6.4h2.4v9h-2.3
		L-6121.7-5128.9z M-6114.7-5139.2v2.2h1.5v1.8h-1.5v4.5c0,0.3,0,0.5,0.2,0.7c0.2,0.2,0.5,0.2,0.7,0.2c0.2,0,0.5,0,0.7-0.1v1.8
		c-0.5,0.1-1,0.2-1.5,0.2c-1.3,0.2-2.4-0.7-2.6-2c0-0.2,0-0.4,0-0.6v-4.8h-1.3v-1.8h1.3v-2.2L-6114.7-5139.2z M-6112.5-5132.6
		c0-0.8,0.2-1.6,0.5-2.4c0.3-0.7,0.8-1.2,1.5-1.6c0.7-0.4,1.5-0.6,2.2-0.6c1.1,0,2.2,0.4,3,1.1c0.8,0.8,1.3,1.9,1.3,3l0,0.6
		c0.1,1.2-0.4,2.4-1.2,3.3c-0.8,0.8-1.9,1.3-3.1,1.2c-1.2,0.1-2.3-0.4-3.1-1.2c-0.8-0.9-1.2-2.2-1.2-3.4L-6112.5-5132.6z
		 M-6110-5132.4c0,0.7,0.1,1.4,0.5,2c0.3,0.4,0.8,0.7,1.4,0.7c0.5,0,1-0.2,1.4-0.7c0.4-0.6,0.5-1.4,0.5-2.1c0-0.7-0.1-1.4-0.5-1.9
		c-0.3-0.5-0.8-0.7-1.4-0.7c-0.5,0-1.1,0.2-1.4,0.7C-6109.9-5133.9-6110.1-5133.1-6110-5132.4L-6110-5132.4z M-6097.4-5134.7
		c-0.3,0-0.6-0.1-0.9-0.1c-0.7-0.1-1.4,0.3-1.8,0.9v5.9h-2.4v-9h2.3l0.1,1.1c0.4-0.8,1.2-1.2,2-1.2c0.3,0,0.5,0,0.7,0.1
		L-6097.4-5134.7z M-6083.9-5132.4c0.1,1.2-0.3,2.3-0.9,3.3c-0.6,0.8-1.5,1.3-2.5,1.2c-0.8,0-1.6-0.3-2.2-0.9v4.2h-2.4v-12.4h2.2
		l0.1,0.9c0.6-0.7,1.4-1.1,2.3-1c1,0,2,0.4,2.6,1.2c0.7,1,1,2.2,0.9,3.4L-6083.9-5132.4z M-6086.3-5132.6c0-0.7-0.1-1.3-0.4-1.9
		c-0.3-0.4-0.8-0.7-1.3-0.7c-0.6-0.1-1.3,0.3-1.6,0.9v3.7c0.3,0.6,0.9,0.9,1.6,0.9C-6086.9-5129.8-6086.3-5130.7-6086.3-5132.6
		L-6086.3-5132.6z M-6077.3-5128c-0.1-0.3-0.2-0.5-0.2-0.8c-0.6,0.6-1.4,1-2.3,1c-0.8,0-1.6-0.2-2.2-0.8c-0.6-0.5-0.9-1.2-0.9-1.9
		c0-0.9,0.4-1.7,1.1-2.2c0.9-0.6,2-0.8,3.1-0.8h1.1v-0.5c0-0.4-0.1-0.7-0.3-1c-0.3-0.3-0.6-0.4-1-0.4c-0.3,0-0.7,0.1-0.9,0.3
		c-0.2,0.2-0.4,0.5-0.3,0.8h-2.4c0-0.5,0.2-1,0.5-1.4c0.4-0.5,0.8-0.8,1.4-1c0.6-0.3,1.3-0.4,2-0.4c1-0.1,1.9,0.2,2.6,0.8
		c0.7,0.6,1,1.5,1,2.3v3.9c0,0.7,0.1,1.3,0.4,1.9v0.1H-6077.3z M-6079.2-5129.7c0.3,0,0.7-0.1,1-0.2c0.3-0.1,0.5-0.4,0.7-0.6v-1.5
		h-0.9c-1.2,0-1.8,0.4-1.9,1.2l0,0.1c0,0.3,0.1,0.6,0.3,0.7C-6079.9-5129.8-6079.6-5129.6-6079.2-5129.7z M-6070.8-5128h-2.4v-9h2.4
		V-5128z M-6073.4-5139.3c0-0.3,0.1-0.7,0.4-0.9c0.3-0.2,0.6-0.4,1-0.3c0.4,0,0.7,0.1,1,0.3c0.2,0.2,0.4,0.6,0.4,0.9
		c0,0.3-0.1,0.7-0.4,0.9c-0.3,0.2-0.6,0.4-1,0.3c-0.4,0-0.7-0.1-1-0.3C-6073.2-5138.6-6073.4-5139-6073.4-5139.3z M-6064-5130.5
		c0-0.3-0.2-0.6-0.4-0.7c-0.4-0.2-0.9-0.4-1.4-0.5c-2.1-0.4-3.2-1.4-3.2-2.7c0-0.8,0.4-1.5,1-2c0.7-0.6,1.7-0.8,2.6-0.8
		c1,0,1.9,0.2,2.7,0.8c0.7,0.5,1,1.3,1,2.1h-2.4c0-0.3-0.1-0.6-0.3-0.9c-0.3-0.2-0.7-0.4-1-0.3c-0.3,0-0.7,0.1-0.9,0.3
		c-0.2,0.2-0.3,0.4-0.3,0.7c0,0.3,0.1,0.5,0.4,0.6c0.4,0.2,0.8,0.4,1.3,0.4c0.5,0.1,1,0.2,1.5,0.4c1.1,0.3,1.9,1.3,1.9,2.4
		c0,0.8-0.4,1.5-1.1,2c-0.8,0.5-1.8,0.8-2.7,0.8c-0.7,0-1.4-0.1-2-0.4c-0.5-0.2-1-0.6-1.4-1.1c-0.3-0.4-0.5-1-0.5-1.5h2.3
		c0,0.4,0.2,0.7,0.5,1c0.3,0.2,0.8,0.4,1.2,0.3c0.4,0,0.7-0.1,1-0.3C-6064.1-5130-6064-5130.2-6064-5130.5z M-6048.2-5134.2h-7.4v-2
		h7.4L-6048.2-5134.2z M-6048.2-5130.6h-7.4v-2h7.4L-6048.2-5130.6z M-5965.7-5132.1l-6.1-2.1v-2.9l9.2,3.8v2.5l-9.2,3.9v-2.9
		L-5965.7-5132.1z M-6041.3-5141l1.1,0.7c-0.5,0.7-0.7,1.5-0.7,2.3v1.4h-1.9v-1.2c0-0.6,0.2-1.2,0.4-1.7
		C-6042.1-5140.2-6041.8-5140.6-6041.3-5141L-6041.3-5141z M-6038.5-5141l1.1,0.7c-0.5,0.7-0.7,1.5-0.7,2.3v1.4h-1.9v-1.2
		c0-0.6,0.2-1.2,0.4-1.7C-6039.3-5140.2-6038.9-5140.6-6038.5-5141L-6038.5-5141z M-6028.5-5133.2h-4.8v3.2h5.6v2h-8.1v-12.1h8.1v2
		h-5.6v2.9h4.8L-6028.5-5133.2z M-6021.5-5130.5c0-0.3-0.2-0.6-0.4-0.7c-0.4-0.2-0.9-0.4-1.4-0.5c-2.1-0.4-3.2-1.4-3.2-2.7
		c0-0.8,0.4-1.5,1-2c0.7-0.6,1.7-0.8,2.6-0.8c1,0,1.9,0.2,2.7,0.8c0.7,0.5,1,1.3,1,2.1h-2.4c0-0.3-0.1-0.6-0.3-0.9
		c-0.3-0.2-0.7-0.4-1-0.3c-0.3,0-0.7,0.1-0.9,0.3c-0.2,0.2-0.3,0.4-0.3,0.7c0,0.3,0.1,0.5,0.4,0.6c0.4,0.2,0.8,0.4,1.3,0.4
		c0.5,0.1,1,0.2,1.5,0.4c1.1,0.3,1.9,1.3,1.9,2.4c0,0.8-0.4,1.6-1.1,2c-0.8,0.5-1.8,0.8-2.7,0.8c-0.7,0-1.4-0.1-2-0.4
		c-0.5-0.2-1-0.6-1.4-1.1c-0.3-0.4-0.5-1-0.5-1.5h2.3c0,0.4,0.2,0.7,0.5,1c0.3,0.2,0.8,0.4,1.2,0.3c0.4,0,0.7-0.1,1-0.3
		C-6021.6-5129.9-6021.5-5130.2-6021.5-5130.5L-6021.5-5130.5z M-6009.6-5132.4c0.1,1.2-0.3,2.3-0.9,3.3c-0.6,0.8-1.5,1.3-2.5,1.2
		c-0.8,0-1.6-0.3-2.2-0.9v4.2h-2.4v-12.4h2.2l0.1,0.9c0.6-0.7,1.4-1.1,2.3-1c1,0,2,0.4,2.6,1.2c0.7,1,1,2.2,0.9,3.4L-6009.6-5132.4z
		 M-6012-5132.6c0-0.7-0.1-1.3-0.4-1.9c-0.3-0.4-0.8-0.7-1.3-0.7c-0.6-0.1-1.3,0.3-1.6,0.9v3.7c0.3,0.6,0.9,0.9,1.6,0.9
		C-6012.5-5129.8-6012-5130.7-6012-5132.6z M-6002.9-5128c-0.1-0.3-0.2-0.5-0.2-0.8c-0.6,0.6-1.4,1-2.3,1c-0.8,0-1.6-0.2-2.2-0.8
		c-0.6-0.5-0.9-1.2-0.9-1.9c0-0.9,0.4-1.7,1.1-2.2c0.9-0.6,2-0.8,3.1-0.8h1.1v-0.5c0-0.4-0.1-0.7-0.3-1c-0.3-0.3-0.6-0.4-1-0.4
		c-0.3,0-0.7,0.1-0.9,0.3c-0.2,0.2-0.4,0.5-0.3,0.8h-2.4c0-0.5,0.2-1,0.5-1.4c0.3-0.5,0.8-0.8,1.4-1c0.6-0.3,1.3-0.4,2-0.4
		c1-0.1,1.9,0.2,2.6,0.8c0.7,0.6,1,1.5,1,2.3v3.9c0,0.7,0.1,1.3,0.4,1.9v0.1H-6002.9z M-6004.9-5129.7c0.3,0,0.7-0.1,1-0.2
		c0.3-0.1,0.5-0.4,0.7-0.6v-1.5h-0.9c-1.2,0-1.8,0.4-1.9,1.2l0,0.1c0,0.3,0.1,0.6,0.3,0.7
		C-6005.5-5129.8-6005.2-5129.6-6004.9-5129.7L-6004.9-5129.7z M-5996.8-5137l0.1,1c0.6-0.8,1.6-1.2,2.6-1.2
		c0.8-0.1,1.6,0.2,2.1,0.8c0.5,0.7,0.8,1.6,0.7,2.5v5.8h-2.4v-5.7c0-0.4-0.1-0.8-0.3-1.1c-0.3-0.3-0.7-0.4-1.1-0.3
		c-0.6,0-1.2,0.3-1.5,0.9v6.3h-2.4v-9H-5996.8z M-5992-5140.6c0,0.6-0.2,1.1-0.5,1.6c-0.3,0.4-0.8,0.6-1.3,0.6c-0.2,0-0.4,0-0.6-0.1
		c-0.2-0.1-0.5-0.2-0.7-0.3c-0.2-0.1-0.4-0.2-0.6-0.3c-0.1,0-0.3-0.1-0.4-0.1c-0.2,0-0.4,0.1-0.5,0.2c-0.1,0.2-0.2,0.4-0.2,0.6
		l-1.4-0.1c0-0.6,0.2-1.1,0.5-1.6c0.3-0.4,0.8-0.6,1.3-0.6c0.2,0,0.3,0,0.5,0.1c0.2,0.1,0.5,0.2,0.7,0.3c0.2,0.1,0.5,0.2,0.7,0.3
		c0.1,0,0.3,0.1,0.4,0.1c0.2,0,0.4-0.1,0.5-0.2c0.1-0.2,0.2-0.4,0.2-0.6L-5992-5140.6z M-5984.2-5128c-0.1-0.3-0.2-0.5-0.2-0.8
		c-0.6,0.6-1.4,1-2.3,1c-0.8,0-1.6-0.2-2.2-0.8c-0.6-0.5-0.9-1.2-0.9-1.9c0-0.9,0.4-1.7,1.1-2.2c0.9-0.6,2-0.8,3.1-0.8h1.1v-0.5
		c0-0.4-0.1-0.7-0.3-1c-0.3-0.3-0.6-0.4-1-0.4c-0.3,0-0.7,0.1-1,0.3c-0.2,0.2-0.4,0.5-0.3,0.8h-2.4c0-0.5,0.2-1,0.5-1.4
		c0.3-0.5,0.8-0.8,1.4-1c0.6-0.3,1.3-0.4,2-0.4c1-0.1,1.9,0.2,2.6,0.8c0.7,0.6,1,1.5,1,2.3v3.9c0,0.7,0.1,1.3,0.4,1.9v0.1H-5984.2z
		 M-5986.2-5129.7c0.3,0,0.7-0.1,1-0.2c0.3-0.1,0.5-0.4,0.7-0.6v-1.5h-0.9c-1.2,0-1.8,0.4-1.9,1.2l0,0.1c0,0.3,0.1,0.6,0.3,0.7
		C-5986.8-5129.8-5986.5-5129.6-5986.2-5129.7L-5986.2-5129.7z M-5979.7-5136.4l-1.1-0.7c0.5-0.7,0.7-1.5,0.7-2.3v-1.4h1.9v1.3
		c0,0.6-0.2,1.1-0.4,1.6C-5978.8-5137.3-5979.2-5136.8-5979.7-5136.4z M-5976.8-5136.4l-1.1-0.7c0.5-0.7,0.7-1.5,0.7-2.3v-1.4h1.9
		v1.3c0,0.6-0.2,1.1-0.4,1.6C-5975.9-5137.3-5976.3-5136.8-5976.8-5136.4L-5976.8-5136.4z M-5949.8-5140.1h1.6v8.6
		c0.1,1-0.3,2-1,2.7c-0.8,0.7-1.8,1-2.8,1c-1,0.1-2-0.3-2.8-0.9c-0.7-0.7-1.1-1.6-1-2.6h1.6c0,0.6,0.2,1.2,0.6,1.6
		c0.4,0.4,1,0.6,1.6,0.6c0.6,0,1.2-0.2,1.6-0.6c0.4-0.5,0.7-1.1,0.6-1.7L-5949.8-5140.1z M-5946.1-5132.6c0-0.8,0.2-1.6,0.5-2.4
		c0.3-0.7,0.8-1.2,1.4-1.6c0.6-0.4,1.4-0.6,2.1-0.6c1.1,0,2.2,0.4,3,1.3c0.8,0.9,1.2,2.1,1.1,3.4v0.1c0,0.8-0.2,1.6-0.5,2.4
		c-0.3,0.7-0.8,1.2-1.4,1.6c-0.6,0.4-1.4,0.6-2.1,0.6c-1.1,0-2.2-0.4-3-1.3c-0.8-0.9-1.2-2.1-1.1-3.4L-5946.1-5132.6z
		 M-5944.6-5132.4c0,0.9,0.2,1.7,0.7,2.4c0.4,0.6,1.1,0.9,1.9,0.9c0.7,0,1.4-0.3,1.9-0.9c0.5-0.8,0.7-1.7,0.7-2.6
		c0-0.9-0.2-1.7-0.7-2.4c-0.4-0.6-1.1-0.9-1.9-0.9c-0.7,0-1.4,0.3-1.8,0.9C-5944.4-5134.2-5944.6-5133.3-5944.6-5132.4
		L-5944.6-5132.4z M-5930.8-5130.4c0-0.4-0.2-0.7-0.5-1c-0.5-0.3-1.1-0.5-1.6-0.6c-0.6-0.1-1.3-0.3-1.9-0.6c-0.4-0.2-0.8-0.5-1-0.8
		c-0.2-0.3-0.3-0.7-0.3-1.1c0-0.7,0.3-1.4,0.9-1.9c0.7-0.5,1.5-0.8,2.4-0.8c0.9,0,1.8,0.2,2.5,0.8c0.6,0.5,1,1.2,0.9,2h-1.5
		c0-0.4-0.2-0.8-0.5-1.1c-0.4-0.3-0.9-0.5-1.3-0.5c-0.5,0-0.9,0.1-1.3,0.4c-0.3,0.2-0.5,0.6-0.5,1c0,0.3,0.2,0.7,0.4,0.8
		c0.5,0.3,1,0.4,1.6,0.5c0.6,0.1,1.3,0.3,1.9,0.6c0.4,0.2,0.8,0.5,1.1,0.9c0.2,0.4,0.4,0.8,0.3,1.2c0,0.8-0.3,1.5-1,1.9
		c-0.7,0.5-1.6,0.8-2.5,0.7c-0.7,0-1.3-0.1-1.9-0.4c-0.5-0.2-1-0.6-1.3-1.1c-0.3-0.4-0.5-1-0.5-1.5h1.5c0,0.5,0.2,0.9,0.6,1.2
		c0.4,0.3,1,0.5,1.5,0.5c0.5,0,1-0.1,1.4-0.4C-5931-5129.6-5930.8-5130-5930.8-5130.4z M-5923.5-5127.8c-1.1,0-2.2-0.4-3-1.2
		c-0.8-0.9-1.2-2-1.1-3.2v-0.3c0-0.8,0.2-1.6,0.5-2.4c0.3-0.7,0.8-1.2,1.4-1.6c0.6-0.4,1.3-0.6,2-0.6c1-0.1,2,0.4,2.7,1.2
		c0.7,1,1,2.1,1,3.3v0.6h-6.1c0,0.8,0.3,1.6,0.8,2.1c0.5,0.5,1.2,0.8,1.9,0.8c0.5,0,1-0.1,1.4-0.3c0.4-0.2,0.7-0.5,1-0.9l0.9,0.7
		C-5920.9-5128.4-5922.2-5127.8-5923.5-5127.8z M-5923.7-5135.9c-0.6,0-1.2,0.2-1.6,0.7c-0.5,0.5-0.7,1.2-0.8,1.9h4.5v-0.1
		c0-0.7-0.2-1.3-0.6-1.8C-5922.6-5135.7-5923.1-5135.9-5923.7-5135.9L-5923.7-5135.9z M-5909.4-5132.9h-2.8v4.9h-1.6v-12.1h4
		c1.1-0.1,2.2,0.3,3.1,0.9c0.8,0.7,1.2,1.7,1.1,2.7c0,0.7-0.2,1.4-0.6,2c-0.4,0.6-1,1-1.7,1.3l2.8,5.1v0.1h-1.7L-5909.4-5132.9z
		 M-5912.2-5134.2h2.4c0.7,0,1.4-0.2,1.9-0.6c0.5-0.4,0.7-1,0.7-1.6c0-0.6-0.2-1.3-0.7-1.7c-0.5-0.4-1.2-0.6-1.9-0.6h-2.4
		L-5912.2-5134.2z M-5898-5128c-0.1-0.3-0.2-0.6-0.2-0.9c-0.7,0.7-1.6,1.1-2.6,1.1c-0.8,0-1.6-0.2-2.2-0.8c-0.6-0.5-0.9-1.2-0.9-1.9
		c0-0.9,0.4-1.7,1.1-2.2c0.9-0.6,1.9-0.8,3-0.8h1.5v-0.7c0-0.5-0.2-0.9-0.5-1.3c-0.4-0.3-0.9-0.5-1.4-0.5c-0.5,0-1,0.1-1.4,0.4
		c-0.3,0.2-0.5,0.6-0.6,1h-1.5c0-0.5,0.2-0.9,0.5-1.3c0.3-0.4,0.8-0.8,1.3-1c0.6-0.2,1.2-0.4,1.8-0.4c0.9-0.1,1.7,0.2,2.4,0.8
		c0.6,0.5,0.9,1.3,0.9,2.1v4.1c0,0.7,0.1,1.3,0.3,2v0.1H-5898z M-5900.6-5129.2c0.5,0,1-0.1,1.4-0.4c0.4-0.2,0.7-0.6,0.9-1v-1.8
		h-1.2c-1.9,0-2.8,0.6-2.8,1.7c0,0.4,0.2,0.8,0.5,1.1C-5901.5-5129.3-5901-5129.2-5900.6-5129.2z M-5892.9-5137l0,1
		c0.7-0.8,1.6-1.2,2.7-1.2c1.1-0.1,2.1,0.5,2.6,1.4c0.3-0.4,0.7-0.8,1.2-1c0.5-0.3,1.1-0.4,1.7-0.4c2,0,3,1,3,3.1v6h-1.5v-5.9
		c0-0.5-0.1-1-0.4-1.4c-0.4-0.4-0.9-0.5-1.5-0.5c-0.5,0-1,0.2-1.4,0.5c-0.4,0.4-0.6,0.8-0.7,1.4v6h-1.5v-5.9c0.1-0.9-0.5-1.8-1.4-2
		c-0.2,0-0.3,0-0.5,0c-0.9-0.1-1.7,0.5-2.1,1.3v6.6h-1.5v-9H-5892.9z M-5879.8-5132.6c0-0.8,0.2-1.6,0.5-2.4
		c0.3-0.7,0.8-1.2,1.4-1.6c0.6-0.4,1.4-0.6,2.1-0.6c1.1,0,2.2,0.4,3,1.3c0.8,0.9,1.2,2.1,1.1,3.4v0.1c0,0.8-0.2,1.6-0.5,2.4
		c-0.3,0.7-0.8,1.2-1.4,1.6c-0.6,0.4-1.4,0.6-2.1,0.6c-1.1,0-2.2-0.4-3-1.3c-0.8-0.9-1.2-2.1-1.1-3.4L-5879.8-5132.6z
		 M-5878.3-5132.4c0,0.9,0.2,1.7,0.7,2.4c0.4,0.6,1.1,0.9,1.9,0.9c0.7,0,1.4-0.3,1.9-0.9c0.5-0.8,0.7-1.7,0.7-2.6
		c0-0.9-0.2-1.7-0.7-2.4c-0.4-0.6-1.1-0.9-1.9-0.9c-0.7,0-1.4,0.3-1.8,0.9C-5878.1-5134.2-5878.4-5133.3-5878.3-5132.4
		L-5878.3-5132.4z M-5875.1-5140.7h1.9l-2.2,2.4h-1.2L-5875.1-5140.7z M-5868.3-5137l0.1,1.1c0.6-0.8,1.6-1.3,2.7-1.3
		c1.9,0,2.9,1.1,2.9,3.2v5.9h-1.5v-5.9c0-0.5-0.1-1-0.4-1.4c-0.4-0.3-0.9-0.5-1.4-0.5c-0.5,0-0.9,0.1-1.3,0.4
		c-0.4,0.3-0.7,0.6-0.9,1v6.4h-1.5v-9L-5868.3-5137z M-5854.5-5133.1l4.7,1.7v2.3l-7.1-3v-2l7.1-3v2.3L-5854.5-5133.1z M-5847-5127
		h-1.8l4.4-13.1h1.8L-5847-5127z M-5836.2-5128c-0.1-0.3-0.2-0.5-0.2-0.8c-0.6,0.6-1.4,1-2.3,1c-0.8,0-1.6-0.2-2.2-0.8
		c-0.6-0.5-0.9-1.2-0.9-1.9c0-0.9,0.4-1.7,1.1-2.2c0.9-0.6,2-0.8,3.1-0.8h1.1v-0.5c0-0.4-0.1-0.7-0.3-1c-0.3-0.3-0.6-0.4-1-0.4
		c-0.3,0-0.7,0.1-1,0.3c-0.2,0.2-0.4,0.5-0.3,0.8h-2.4c0-0.5,0.2-1,0.5-1.4c0.4-0.5,0.8-0.8,1.4-1c0.6-0.3,1.3-0.4,2-0.4
		c1-0.1,1.9,0.2,2.6,0.8c0.7,0.6,1,1.5,1,2.3v3.9c0,0.7,0.1,1.3,0.4,1.9v0.1H-5836.2z M-5838.2-5129.7c0.3,0,0.7-0.1,1-0.2
		c0.3-0.1,0.5-0.4,0.7-0.6v-1.5h-0.9c-1.2,0-1.8,0.4-1.9,1.2l0,0.1c0,0.3,0.1,0.6,0.3,0.7
		C-5838.8-5129.8-5838.5-5129.6-5838.2-5129.7z M-5826.9-5128.9c-0.6,0.7-1.5,1.1-2.5,1.1c-0.8,0.1-1.6-0.2-2.2-0.8
		c-0.6-0.7-0.8-1.6-0.8-2.4v-5.9h2.4v5.8c0,0.9,0.4,1.4,1.3,1.4c0.7,0.1,1.3-0.3,1.7-0.8v-6.4h2.4v9h-2.3L-5826.9-5128.9z
		 M-5819.9-5139.2v2.2h1.5v1.8h-1.5v4.5c0,0.3,0,0.5,0.2,0.7c0.2,0.2,0.5,0.2,0.7,0.2c0.2,0,0.5,0,0.7-0.1v1.8
		c-0.5,0.1-1,0.2-1.5,0.2c-1.3,0.2-2.4-0.7-2.6-2c0-0.2,0-0.4,0-0.6v-4.8h-1.3v-1.8h1.3v-2.2L-5819.9-5139.2z M-5817.6-5132.6
		c0-0.8,0.2-1.6,0.5-2.4c0.3-0.7,0.8-1.2,1.5-1.6c0.7-0.4,1.5-0.6,2.2-0.6c1.1,0,2.2,0.4,3,1.1c0.8,0.8,1.3,1.9,1.3,3l0,0.6
		c0.1,1.2-0.4,2.4-1.2,3.3c-0.8,0.8-1.9,1.3-3.1,1.2c-1.2,0.1-2.3-0.4-3.1-1.2c-0.8-0.9-1.2-2.2-1.2-3.4L-5817.6-5132.6z
		 M-5815.2-5132.4c0,0.7,0.1,1.4,0.5,2c0.3,0.4,0.8,0.7,1.4,0.7c0.5,0,1-0.2,1.4-0.7c0.4-0.6,0.5-1.4,0.5-2.1c0-0.7-0.1-1.4-0.5-1.9
		c-0.3-0.5-0.8-0.7-1.4-0.7c-0.5,0-1.1,0.2-1.4,0.7C-5815.1-5133.9-5815.3-5133.1-5815.2-5132.4L-5815.2-5132.4z M-5802.6-5134.7
		c-0.3,0-0.6-0.1-0.9-0.1c-0.7-0.1-1.4,0.3-1.8,0.9v5.9h-2.4v-9h2.3l0.1,1.1c0.4-0.8,1.2-1.2,2-1.2c0.3,0,0.5,0,0.7,0.1
		L-5802.6-5134.7z M-5796.6-5133.2l-4.8-1.7v-2.3l7.2,3v2l-7.2,3v-2.3L-5796.6-5133.2z"/>
	<path id="Trazado_606454" class="st2" d="M-6222.3-5182h-1.6l-6.1-9.3v9.3h-1.6v-12.1h1.6l6.1,9.4v-9.4h1.6L-6222.3-5182z
		 M-6220.1-5186.6c0-0.8,0.2-1.6,0.5-2.4c0.3-0.7,0.8-1.2,1.4-1.6c0.6-0.4,1.4-0.6,2.1-0.6c1.1,0,2.2,0.4,3,1.3
		c0.8,0.9,1.2,2.1,1.1,3.4v0.1c0,0.8-0.2,1.6-0.5,2.4c-0.3,0.7-0.8,1.2-1.4,1.6c-0.6,0.4-1.4,0.6-2.1,0.6c-1.1,0-2.2-0.4-3-1.3
		c-0.8-0.9-1.2-2.1-1.1-3.4L-6220.1-5186.6z M-6218.6-5186.4c0,0.9,0.2,1.7,0.7,2.4c0.4,0.6,1.1,0.9,1.9,0.9c0.7,0,1.4-0.3,1.9-0.9
		c0.5-0.8,0.7-1.7,0.7-2.6c0-0.9-0.2-1.7-0.7-2.4c-0.4-0.6-1.1-0.9-1.9-0.9c-0.7,0-1.4,0.3-1.8,0.9
		C-6218.4-5188.2-6218.6-5187.3-6218.6-5186.4z M-6208.6-5191l0,1c0.7-0.8,1.6-1.2,2.7-1.2c1.1-0.1,2.1,0.5,2.6,1.4
		c0.3-0.4,0.7-0.8,1.2-1c0.5-0.3,1.1-0.4,1.7-0.4c2,0,3,1,3,3.1v6h-1.5v-5.9c0-0.5-0.1-1-0.4-1.4c-0.4-0.4-0.9-0.5-1.5-0.5
		c-0.5,0-1,0.2-1.4,0.5c-0.4,0.4-0.6,0.8-0.7,1.4v6h-1.5v-5.9c0.1-0.9-0.5-1.8-1.4-2c-0.2,0-0.3,0-0.5,0c-0.9-0.1-1.7,0.5-2.1,1.3
		v6.6h-1.5v-9H-6208.6z M-6187.5-5186.4c0.1,1.2-0.3,2.3-0.9,3.3c-0.6,0.8-1.5,1.3-2.5,1.2c-1,0.1-2-0.4-2.6-1.2l-0.1,1h-1.4v-12.8
		h1.5v4.8c0.6-0.8,1.6-1.2,2.6-1.2c1,0,2,0.4,2.6,1.2c0.7,1,1,2.2,0.9,3.4V-5186.4z M-6189.1-5186.6c0.1-0.9-0.2-1.7-0.6-2.4
		c-0.4-0.6-1.1-0.9-1.7-0.9c-1,0-1.8,0.5-2.2,1.4v3.9c0.4,0.9,1.2,1.4,2.2,1.4c0.7,0,1.3-0.3,1.7-0.9
		C-6189.2-5184.8-6189-5185.7-6189.1-5186.6z M-6181.2-5189.6c-0.2,0-0.5-0.1-0.8-0.1c-0.9-0.1-1.7,0.5-2,1.3v6.4h-1.5v-9h1.5l0,1
		c0.4-0.8,1.3-1.2,2.1-1.2c0.2,0,0.5,0,0.7,0.1L-6181.2-5189.6z M-6176.3-5181.8c-1.1,0-2.2-0.4-3-1.2c-0.8-0.9-1.2-2-1.1-3.2v-0.3
		c0-0.8,0.2-1.6,0.5-2.4c0.3-0.7,0.8-1.2,1.4-1.6c0.6-0.4,1.3-0.6,2-0.6c1-0.1,2,0.4,2.7,1.2c0.7,1,1,2.1,1,3.3v0.6h-6.1
		c0,0.8,0.3,1.6,0.8,2.1c0.5,0.5,1.2,0.8,1.9,0.8c0.5,0,1-0.1,1.4-0.3c0.4-0.2,0.7-0.5,1-0.9l0.9,0.7
		C-6173.6-5182.4-6174.9-5181.8-6176.3-5181.8L-6176.3-5181.8z M-6176.5-5189.9c-0.6,0-1.2,0.2-1.6,0.7c-0.5,0.5-0.7,1.2-0.8,1.9
		h4.5v-0.1c0-0.7-0.2-1.3-0.6-1.8C-6175.3-5189.7-6175.9-5189.9-6176.5-5189.9L-6176.5-5189.9z M-6167.2-5186.6
		c-0.1-1.2,0.3-2.4,1-3.3c0.6-0.8,1.6-1.3,2.6-1.3c1,0,1.9,0.4,2.5,1.1v-4.7h1.5v12.8h-1.4l-0.1-1c-0.6,0.8-1.6,1.2-2.6,1.1
		c-1,0-2-0.5-2.5-1.3c-0.7-1-1-2.1-1-3.3L-6167.2-5186.6z M-6165.6-5186.4c0,0.8,0.2,1.7,0.6,2.4c0.4,0.6,1.1,0.9,1.7,0.9
		c0.9,0,1.8-0.5,2.1-1.3v-4.1c-0.4-0.8-1.2-1.3-2.1-1.3c-0.7,0-1.4,0.3-1.8,0.9C-6165.5-5188.2-6165.7-5187.3-6165.6-5186.4
		L-6165.6-5186.4z M-6153.5-5181.8c-1.1,0-2.2-0.4-3-1.2c-0.8-0.9-1.2-2-1.1-3.2v-0.3c0-0.8,0.2-1.6,0.5-2.4
		c0.3-0.7,0.8-1.2,1.4-1.6c0.6-0.4,1.3-0.6,2-0.6c1-0.1,2,0.4,2.7,1.2c0.7,1,1,2.1,1,3.3v0.6h-6.1c0,0.8,0.3,1.6,0.8,2.1
		c0.5,0.5,1.2,0.8,1.9,0.8c0.5,0,1-0.1,1.4-0.3c0.4-0.2,0.7-0.5,1-0.9l0.9,0.7C-6150.8-5182.4-6152.1-5181.8-6153.5-5181.8z
		 M-6153.7-5189.9c-0.6,0-1.2,0.2-1.6,0.7c-0.5,0.5-0.7,1.2-0.8,1.9h4.5v-0.1c0-0.7-0.2-1.3-0.6-1.8
		C-6152.5-5189.7-6153.1-5189.9-6153.7-5189.9z M-6138.4-5182c-0.1-0.3-0.2-0.6-0.2-0.9c-0.7,0.7-1.6,1.1-2.6,1.1
		c-0.8,0-1.6-0.2-2.2-0.8c-0.6-0.5-0.9-1.2-0.9-1.9c0-0.9,0.4-1.7,1.1-2.2c0.9-0.6,1.9-0.8,3-0.8h1.5v-0.7c0-0.5-0.2-0.9-0.5-1.3
		c-0.4-0.3-0.9-0.5-1.4-0.5c-0.5,0-1,0.1-1.4,0.4c-0.3,0.2-0.5,0.6-0.6,1h-1.5c0-0.5,0.2-0.9,0.5-1.3c0.3-0.4,0.8-0.8,1.3-1
		c0.6-0.2,1.2-0.4,1.8-0.4c0.9-0.1,1.7,0.2,2.4,0.8c0.6,0.5,0.9,1.3,0.9,2.1v4.1c0,0.7,0.1,1.3,0.3,2v0.1H-6138.4z M-6141-5183.2
		c0.5,0,1-0.1,1.4-0.4c0.4-0.2,0.7-0.6,0.9-1v-1.8h-1.2c-1.9,0-2.8,0.6-2.8,1.7c0,0.4,0.2,0.8,0.5,1.1
		C-6141.9-5183.3-6141.4-5183.2-6141-5183.2z M-6132.6-5193.2v2.2h1.7v1.2h-1.7v5.6c0,0.3,0.1,0.6,0.2,0.8c0.2,0.2,0.5,0.3,0.8,0.3
		c0.2,0,0.5,0,0.7-0.1v1.2c-0.4,0.1-0.8,0.2-1.2,0.2c-0.6,0-1.2-0.2-1.6-0.6c-0.4-0.5-0.6-1.1-0.5-1.8v-5.6h-1.6v-1.2h1.6v-2.2
		H-6132.6z M-6124.8-5189.6c-0.2,0-0.5-0.1-0.8-0.1c-0.9-0.1-1.7,0.5-2.1,1.3v6.4h-1.5v-9h1.5l0,1c0.4-0.8,1.3-1.2,2.1-1.2
		c0.2,0,0.5,0,0.7,0.1L-6124.8-5189.6z M-6121.8-5182h-1.5v-9h1.5V-5182z M-6123.4-5193.4c0-0.2,0.1-0.5,0.2-0.6
		c0.2-0.2,0.4-0.3,0.7-0.3c0.3,0,0.5,0.1,0.7,0.3c0.2,0.2,0.2,0.4,0.2,0.6c0,0.2-0.1,0.5-0.2,0.6c-0.2,0.2-0.4,0.3-0.7,0.2
		c-0.3,0-0.5-0.1-0.7-0.2C-6123.3-5192.9-6123.4-5193.1-6123.4-5193.4z M-6111.7-5186.4c0.1,1.2-0.3,2.3-0.9,3.3
		c-0.6,0.8-1.5,1.3-2.5,1.2c-1,0.1-2-0.4-2.6-1.2l-0.1,1h-1.4v-12.8h1.5v4.8c0.6-0.8,1.6-1.2,2.6-1.2c1,0,2,0.4,2.6,1.2
		c0.7,1,1,2.2,0.9,3.4L-6111.7-5186.4z M-6113.2-5186.6c0.1-0.9-0.2-1.7-0.6-2.4c-0.4-0.6-1.1-0.9-1.7-0.9c-1,0-1.8,0.5-2.2,1.4v3.9
		c0.4,0.9,1.2,1.4,2.2,1.4c0.7,0,1.3-0.3,1.7-0.9C-6113.4-5184.8-6113.2-5185.7-6113.2-5186.6z M-6104.2-5182.9
		c-0.7,0.7-1.6,1.1-2.6,1.1c-0.8,0.1-1.6-0.2-2.2-0.8c-0.5-0.7-0.8-1.6-0.8-2.5v-5.8h1.5v5.8c0,1.4,0.6,2,1.7,2
		c1,0.1,1.9-0.4,2.3-1.3v-6.5h1.5v9h-1.5L-6104.2-5182.9z M-6098.3-5193.2v2.2h1.7v1.2h-1.7v5.6c0,0.3,0.1,0.6,0.2,0.8
		c0.2,0.2,0.5,0.3,0.8,0.3c0.2,0,0.5,0,0.7-0.1v1.2c-0.4,0.1-0.8,0.2-1.2,0.2c-0.6,0-1.2-0.2-1.6-0.6c-0.4-0.5-0.6-1.1-0.5-1.8v-5.6
		h-1.6v-1.2h1.6v-2.2H-6098.3z M-6095.4-5186.6c0-0.8,0.2-1.6,0.5-2.4c0.3-0.7,0.8-1.2,1.4-1.6c0.6-0.4,1.4-0.6,2.1-0.6
		c1.1,0,2.2,0.4,3,1.3c0.8,0.9,1.2,2.1,1.1,3.4v0.1c0,0.8-0.2,1.6-0.5,2.4c-0.3,0.7-0.8,1.2-1.4,1.6c-0.6,0.4-1.4,0.6-2.1,0.6
		c-1.1,0-2.2-0.4-3-1.3c-0.8-0.9-1.2-2.1-1.1-3.4L-6095.4-5186.6z M-6093.9-5186.4c0,0.9,0.2,1.7,0.7,2.4c0.4,0.6,1.1,0.9,1.9,0.9
		c0.7,0,1.4-0.3,1.9-0.9c0.5-0.8,0.7-1.7,0.7-2.6c0-0.9-0.2-1.7-0.7-2.4c-0.4-0.6-1.1-0.9-1.9-0.9c-0.7,0-1.4,0.3-1.8,0.9
		C-6093.7-5188.2-6093.9-5187.3-6093.9-5186.4L-6093.9-5186.4z"/>
	<path id="Trazado_606453" class="st2" d="M-5953.7-5185.8c-0.1,1.1-0.6,2.2-1.4,3c-0.9,0.7-2,1.1-3.2,1c-1.3,0-2.6-0.5-3.4-1.5
		c-0.9-1.2-1.4-2.6-1.3-4.1v-1.2c0-1,0.2-2,0.6-3c0.4-0.8,1-1.5,1.7-2c0.8-0.5,1.7-0.7,2.6-0.7c1.1-0.1,2.2,0.3,3.1,1.1
		c0.8,0.8,1.3,1.9,1.4,3h-1.6c-0.1-0.8-0.4-1.5-0.9-2.1c-0.5-0.5-1.2-0.7-1.9-0.6c-0.9,0-1.8,0.4-2.4,1.1c-0.6,0.9-0.9,2.1-0.9,3.2
		v1.2c-0.1,1.1,0.2,2.2,0.8,3.1c0.5,0.8,1.4,1.2,2.3,1.2c0.7,0,1.5-0.2,2-0.6c0.6-0.6,0.9-1.3,0.9-2.1L-5953.7-5185.8z
		 M-5952.2-5186.6c0-0.8,0.2-1.6,0.5-2.4c0.3-0.7,0.8-1.2,1.4-1.6c0.6-0.4,1.4-0.6,2.1-0.6c1.1,0,2.2,0.4,3,1.3
		c0.8,0.9,1.2,2.1,1.1,3.4v0.1c0,0.8-0.2,1.6-0.5,2.4c-0.3,0.7-0.8,1.2-1.4,1.6c-0.6,0.4-1.4,0.6-2.1,0.6c-1.1,0-2.2-0.4-3-1.3
		c-0.8-0.9-1.2-2.1-1.1-3.4V-5186.6z M-5950.6-5186.4c0,0.9,0.2,1.7,0.7,2.4c0.4,0.6,1.1,0.9,1.9,0.9c0.7,0,1.4-0.3,1.9-0.9
		c0.5-0.8,0.7-1.7,0.7-2.6c0-0.9-0.2-1.7-0.7-2.4c-0.4-0.6-1.1-0.9-1.9-0.9c-0.7,0-1.4,0.3-1.8,0.9
		C-5950.4-5188.2-5950.7-5187.3-5950.6-5186.4z M-5940.6-5191l0,1.1c0.6-0.8,1.6-1.3,2.7-1.3c1.9,0,2.9,1.1,2.9,3.2v5.9h-1.5v-5.9
		c0-0.5-0.1-1-0.4-1.4c-0.4-0.3-0.9-0.5-1.4-0.5c-0.5,0-0.9,0.1-1.3,0.4c-0.4,0.3-0.7,0.6-0.9,1v6.4h-1.5v-9H-5940.6z
		 M-5930.6-5193.2v2.2h1.7v1.2h-1.7v5.6c0,0.3,0.1,0.6,0.2,0.8c0.2,0.2,0.5,0.3,0.8,0.3c0.2,0,0.5,0,0.7-0.1v1.2
		c-0.4,0.1-0.8,0.2-1.2,0.2c-0.6,0-1.2-0.2-1.6-0.6c-0.4-0.5-0.6-1.1-0.5-1.8v-5.6h-1.6v-1.2h1.6v-2.2H-5930.6z M-5923.4-5181.8
		c-1.1,0-2.2-0.4-3-1.2c-0.8-0.9-1.2-2-1.1-3.2v-0.3c0-0.8,0.2-1.6,0.5-2.4c0.3-0.7,0.8-1.2,1.4-1.6c0.6-0.4,1.3-0.6,2-0.6
		c1-0.1,2,0.4,2.7,1.2c0.7,1,1,2.1,1,3.3v0.6h-6.1c0,0.8,0.3,1.6,0.8,2.1c0.5,0.5,1.2,0.8,1.9,0.8c0.5,0,1-0.1,1.4-0.3
		c0.4-0.2,0.7-0.5,1-0.9l0.9,0.7C-5920.8-5182.4-5922.1-5181.8-5923.4-5181.8z M-5923.6-5189.9c-0.6,0-1.2,0.2-1.6,0.7
		c-0.5,0.5-0.7,1.2-0.8,1.9h4.5v-0.1c0-0.7-0.2-1.3-0.6-1.8C-5922.5-5189.7-5923-5189.9-5923.6-5189.9z M-5916.7-5191l0.1,1.1
		c0.6-0.8,1.6-1.3,2.7-1.3c1.9,0,2.9,1.1,2.9,3.2v5.9h-1.5v-5.9c0-0.5-0.1-1-0.4-1.4c-0.4-0.3-0.9-0.5-1.4-0.5
		c-0.5,0-0.9,0.1-1.3,0.4c-0.4,0.3-0.7,0.6-0.9,1v6.4h-1.5v-9L-5916.7-5191z M-5907.1-5182h-1.5v-9h1.5V-5182z M-5908.8-5193.4
		c0-0.2,0.1-0.5,0.2-0.6c0.2-0.2,0.4-0.3,0.7-0.3c0.3,0,0.5,0.1,0.7,0.3c0.2,0.2,0.2,0.4,0.2,0.6c0,0.2-0.1,0.5-0.2,0.6
		c-0.2,0.2-0.4,0.3-0.7,0.2c-0.3,0-0.5-0.1-0.7-0.2C-5908.7-5192.9-5908.8-5193.1-5908.8-5193.4z M-5905-5186.6
		c-0.1-1.2,0.3-2.4,1-3.3c0.6-0.8,1.6-1.3,2.6-1.3c1,0,1.9,0.4,2.5,1.1v-4.7h1.5v12.8h-1.4l-0.1-1c-0.6,0.8-1.6,1.2-2.6,1.1
		c-1,0-2-0.5-2.5-1.3c-0.7-1-1-2.1-1-3.3L-5905-5186.6z M-5903.5-5186.4c0,0.8,0.2,1.7,0.6,2.4c0.4,0.6,1.1,0.9,1.7,0.9
		c0.9,0,1.8-0.5,2.1-1.3v-4.1c-0.4-0.8-1.2-1.3-2.1-1.3c-0.7,0-1.4,0.3-1.8,0.9C-5903.3-5188.2-5903.5-5187.3-5903.5-5186.4
		L-5903.5-5186.4z M-5895.5-5186.6c0-0.8,0.2-1.6,0.5-2.4c0.3-0.7,0.8-1.2,1.4-1.6c0.6-0.4,1.4-0.6,2.1-0.6c1.1,0,2.2,0.4,3,1.3
		c0.8,0.9,1.2,2.1,1.1,3.4v0.1c0,0.8-0.2,1.6-0.5,2.4c-0.3,0.7-0.8,1.2-1.4,1.6c-0.6,0.4-1.4,0.6-2.1,0.6c-1.1,0-2.2-0.4-3-1.3
		c-0.8-0.9-1.2-2.1-1.1-3.4L-5895.5-5186.6z M-5893.9-5186.4c0,0.9,0.2,1.7,0.7,2.4c0.4,0.6,1.1,0.9,1.9,0.9c0.7,0,1.4-0.3,1.9-0.9
		c0.5-0.8,0.7-1.7,0.7-2.6c0-0.9-0.2-1.7-0.7-2.4c-0.4-0.6-1.1-0.9-1.9-0.9c-0.7,0-1.4,0.3-1.8,0.9
		C-5893.7-5188.2-5894-5187.3-5893.9-5186.4L-5893.9-5186.4z M-5881.5-5186.6c-0.1-1.2,0.3-2.4,1-3.3c0.6-0.8,1.6-1.3,2.6-1.3
		c1,0,1.9,0.4,2.5,1.1v-4.7h1.5v12.8h-1.4l-0.1-1c-0.6,0.8-1.6,1.2-2.6,1.1c-1,0-2-0.5-2.5-1.3c-0.7-1-1-2.1-1-3.3L-5881.5-5186.6z
		 M-5880-5186.4c0,0.8,0.2,1.7,0.6,2.4c0.4,0.6,1.1,0.9,1.7,0.9c0.9,0,1.8-0.5,2.1-1.3v-4.1c-0.4-0.8-1.2-1.3-2.1-1.3
		c-0.7,0-1.4,0.3-1.8,0.9C-5879.8-5188.2-5880-5187.3-5880-5186.4L-5880-5186.4z M-5867.8-5181.8c-1.1,0-2.2-0.4-3-1.2
		c-0.8-0.9-1.2-2-1.1-3.2v-0.3c0-0.8,0.2-1.6,0.5-2.4c0.3-0.7,0.8-1.2,1.4-1.6c0.6-0.4,1.3-0.6,2-0.6c1-0.1,2,0.4,2.7,1.2
		c0.7,1,1,2.1,1,3.3v0.6h-6.1c0,0.8,0.3,1.6,0.8,2.1c0.5,0.5,1.2,0.8,1.9,0.8c0.5,0,1-0.1,1.4-0.3c0.4-0.2,0.7-0.5,1-0.9l0.9,0.7
		C-5865.2-5182.4-5866.5-5181.8-5867.8-5181.8z M-5868-5189.9c-0.6,0-1.2,0.2-1.6,0.7c-0.5,0.5-0.7,1.2-0.8,1.9h4.5v-0.1
		c0-0.7-0.2-1.3-0.6-1.8C-5866.9-5189.7-5867.4-5189.9-5868-5189.9z M-5860.9-5182h-1.5v-12.8h1.5V-5182z M-5850.5-5181.8
		c-1.1,0-2.2-0.4-3-1.2c-0.8-0.9-1.2-2-1.1-3.2v-0.3c0-0.8,0.2-1.6,0.5-2.4c0.3-0.7,0.8-1.2,1.4-1.6c0.6-0.4,1.3-0.6,2-0.6
		c1-0.1,2,0.4,2.7,1.2c0.7,1,1,2.1,1,3.3v0.6h-6.1c0,0.8,0.3,1.6,0.8,2.1c0.5,0.5,1.2,0.8,1.9,0.8c0.5,0,1-0.1,1.4-0.3
		c0.4-0.2,0.7-0.5,1-0.9l0.9,0.7C-5847.8-5182.4-5849.1-5181.8-5850.5-5181.8L-5850.5-5181.8z M-5850.7-5189.9
		c-0.6,0-1.2,0.2-1.6,0.7c-0.5,0.5-0.7,1.2-0.8,1.9h4.5v-0.1c0-0.7-0.2-1.3-0.6-1.8C-5849.5-5189.7-5850.1-5189.9-5850.7-5189.9
		L-5850.7-5189.9z M-5843.5-5182h-1.5v-12.8h1.5V-5182z M-5837.4-5181.8c-1.1,0-2.2-0.4-3-1.2c-0.8-0.9-1.2-2-1.1-3.2v-0.3
		c0-0.8,0.2-1.6,0.5-2.4c0.3-0.7,0.8-1.2,1.4-1.6c0.6-0.4,1.3-0.6,2-0.6c1-0.1,2,0.4,2.7,1.2c0.7,1,1,2.1,1,3.3v0.6h-6.1
		c0,0.8,0.3,1.6,0.8,2.1c0.5,0.5,1.2,0.8,1.9,0.8c0.5,0,1-0.1,1.4-0.3c0.4-0.2,0.7-0.5,1-0.9l0.9,0.7
		C-5834.7-5182.4-5836-5181.8-5837.4-5181.8z M-5837.5-5189.9c-0.6,0-1.2,0.2-1.6,0.7c-0.5,0.5-0.7,1.2-0.8,1.9h4.5v-0.1
		c0-0.7-0.2-1.3-0.6-1.8C-5836.4-5189.7-5837-5189.9-5837.5-5189.9z M-5830.6-5191l0,1c0.7-0.8,1.6-1.2,2.7-1.2
		c1.1-0.1,2.1,0.5,2.6,1.4c0.3-0.4,0.7-0.8,1.2-1c0.5-0.3,1.1-0.4,1.7-0.4c2,0,3,1,3,3.1v6h-1.5v-5.9c0-0.5-0.1-1-0.4-1.4
		c-0.4-0.4-0.9-0.5-1.5-0.5c-0.5,0-1,0.2-1.4,0.5c-0.4,0.4-0.6,0.8-0.7,1.4v6h-1.5v-5.9c0.1-0.9-0.5-1.8-1.4-2c-0.2,0-0.3,0-0.5,0
		c-0.9-0.1-1.7,0.5-2.1,1.3v6.6h-1.5v-9L-5830.6-5191z M-5813.4-5181.8c-1.1,0-2.2-0.4-3-1.2c-0.8-0.9-1.2-2-1.1-3.2v-0.3
		c0-0.8,0.2-1.6,0.5-2.4c0.3-0.7,0.8-1.2,1.4-1.6c0.6-0.4,1.3-0.6,2-0.6c1-0.1,2,0.4,2.7,1.2c0.7,1,1,2.1,1,3.3v0.6h-6.1
		c0,0.8,0.3,1.6,0.8,2.1c0.5,0.5,1.2,0.8,1.9,0.8c0.5,0,1-0.1,1.4-0.3c0.4-0.2,0.7-0.5,1-0.9l0.9,0.7
		C-5810.8-5182.4-5812.1-5181.8-5813.4-5181.8z M-5813.6-5189.9c-0.6,0-1.2,0.2-1.6,0.7c-0.5,0.5-0.7,1.2-0.8,1.9h4.5v-0.1
		c0-0.7-0.2-1.3-0.6-1.8C-5812.5-5189.7-5813.1-5189.9-5813.6-5189.9z M-5806.7-5191l0,1.1c0.6-0.8,1.6-1.3,2.7-1.3
		c1.9,0,2.9,1.1,2.9,3.2v5.9h-1.5v-5.9c0-0.5-0.1-1-0.4-1.4c-0.4-0.3-0.9-0.5-1.4-0.5c-0.5,0-0.9,0.1-1.3,0.4
		c-0.4,0.3-0.7,0.6-0.9,1v6.4h-1.5v-9L-5806.7-5191z M-5796.7-5193.2v2.2h1.7v1.2h-1.7v5.6c0,0.3,0.1,0.6,0.2,0.8
		c0.2,0.2,0.5,0.3,0.8,0.3c0.2,0,0.5,0,0.7-0.1v1.2c-0.4,0.1-0.8,0.2-1.2,0.2c-0.6,0-1.2-0.2-1.6-0.6c-0.4-0.5-0.6-1.1-0.5-1.8v-5.6
		h-1.6v-1.2h1.6v-2.2L-5796.7-5193.2z M-5793.8-5186.6c0-0.8,0.2-1.6,0.5-2.4c0.3-0.7,0.8-1.2,1.4-1.6c0.6-0.4,1.4-0.6,2.1-0.6
		c1.1,0,2.2,0.4,3,1.3c0.8,0.9,1.2,2.2,1.1,3.4v0.1c0,0.8-0.2,1.6-0.5,2.4c-0.3,0.7-0.8,1.2-1.4,1.6c-0.6,0.4-1.4,0.6-2.1,0.6
		c-1.1,0-2.2-0.4-3-1.3c-0.8-0.9-1.2-2.1-1.1-3.4L-5793.8-5186.6z M-5792.3-5186.4c0,0.9,0.2,1.7,0.7,2.4c0.4,0.6,1.1,0.9,1.9,0.9
		c0.7,0,1.4-0.3,1.9-0.9c0.5-0.8,0.7-1.7,0.7-2.6c0-0.9-0.2-1.7-0.7-2.4c-0.4-0.6-1.1-0.9-1.9-0.9c-0.7,0-1.4,0.3-1.8,0.9
		C-5792.1-5188.2-5792.3-5187.3-5792.3-5186.4L-5792.3-5186.4z"/>
	<path id="Trazado_606455" class="st2" d="M-6217.3-5068h-1.6l-6.1-9.3v9.3h-1.6v-12.1h1.6l6.1,9.4v-9.4h1.6L-6217.3-5068z
		 M-6215.1-5072.6c0-0.8,0.2-1.6,0.5-2.4c0.3-0.7,0.8-1.2,1.4-1.6c0.6-0.4,1.4-0.6,2.1-0.6c1.1,0,2.2,0.4,3,1.3
		c0.8,0.9,1.2,2.1,1.1,3.4v0.1c0,0.8-0.2,1.6-0.5,2.4c-0.3,0.7-0.8,1.2-1.4,1.6c-0.6,0.4-1.4,0.6-2.1,0.6c-1.1,0-2.2-0.4-3-1.3
		c-0.8-0.9-1.2-2.1-1.1-3.4L-6215.1-5072.6z M-6213.6-5072.4c0,0.9,0.2,1.7,0.7,2.4c0.4,0.6,1.1,0.9,1.9,0.9c0.7,0,1.4-0.3,1.9-0.9
		c0.5-0.8,0.7-1.7,0.7-2.6c0-0.9-0.2-1.7-0.7-2.4c-0.4-0.6-1.1-0.9-1.9-0.9c-0.7,0-1.4,0.3-1.8,0.9
		C-6213.4-5074.2-6213.6-5073.3-6213.6-5072.4z M-6203.6-5077l0,1c0.7-0.8,1.6-1.2,2.7-1.2c1.1-0.1,2.1,0.5,2.6,1.4
		c0.3-0.4,0.7-0.8,1.2-1c0.5-0.3,1.1-0.4,1.7-0.4c2,0,3,1,3,3.1v6h-1.5v-5.9c0-0.5-0.1-1-0.4-1.4c-0.4-0.4-0.9-0.5-1.5-0.5
		c-0.5,0-1,0.2-1.4,0.5c-0.4,0.4-0.6,0.8-0.7,1.4v6h-1.5v-5.9c0.1-0.9-0.5-1.8-1.4-2c-0.2,0-0.3,0-0.5,0c-0.9-0.1-1.7,0.5-2.1,1.3
		v6.6h-1.5v-9H-6203.6z M-6182.5-5072.4c0.1,1.2-0.3,2.3-0.9,3.3c-0.6,0.8-1.5,1.3-2.5,1.2c-1,0.1-2-0.4-2.6-1.2l-0.1,1h-1.4v-12.8
		h1.5v4.8c0.6-0.8,1.6-1.2,2.6-1.2c1,0,2,0.4,2.6,1.2c0.7,1,1,2.2,0.9,3.4V-5072.4z M-6184.1-5072.6c0.1-0.9-0.2-1.7-0.6-2.4
		c-0.4-0.6-1.1-0.9-1.7-0.9c-1,0-1.8,0.5-2.2,1.4v3.9c0.4,0.9,1.2,1.4,2.2,1.4c0.7,0,1.3-0.3,1.7-0.9
		C-6184.2-5070.8-6184-5071.7-6184.1-5072.6z M-6176.2-5075.6c-0.2,0-0.5-0.1-0.8-0.1c-0.9-0.1-1.7,0.5-2,1.3v6.4h-1.5v-9h1.5l0,1
		c0.4-0.8,1.3-1.2,2.1-1.2c0.2,0,0.5,0,0.7,0.1L-6176.2-5075.6z M-6171.3-5067.8c-1.1,0-2.2-0.4-3-1.2c-0.8-0.9-1.2-2-1.1-3.2v-0.3
		c0-0.8,0.2-1.6,0.5-2.4c0.3-0.7,0.8-1.2,1.4-1.6c0.6-0.4,1.3-0.6,2-0.6c1-0.1,2,0.4,2.7,1.2c0.7,1,1,2.1,1,3.3v0.6h-6.1
		c0,0.8,0.3,1.6,0.8,2.1c0.5,0.5,1.2,0.8,1.9,0.8c0.5,0,1-0.1,1.4-0.3c0.4-0.2,0.7-0.5,1-0.9l0.9,0.7
		C-6168.6-5068.4-6169.9-5067.8-6171.3-5067.8L-6171.3-5067.8z M-6171.5-5075.9c-0.6,0-1.2,0.2-1.6,0.7c-0.5,0.5-0.7,1.2-0.8,1.9
		h4.5v-0.1c0-0.7-0.2-1.3-0.6-1.8C-6170.3-5075.7-6170.9-5075.9-6171.5-5075.9L-6171.5-5075.9z M-6162.2-5072.6
		c-0.1-1.2,0.3-2.4,1-3.3c0.6-0.8,1.6-1.3,2.6-1.3c1,0,1.9,0.4,2.5,1.1v-4.7h1.5v12.8h-1.4l-0.1-1c-0.6,0.8-1.6,1.2-2.6,1.1
		c-1,0-2-0.5-2.5-1.3c-0.7-1-1-2.1-1-3.3L-6162.2-5072.6z M-6160.6-5072.4c0,0.8,0.2,1.7,0.6,2.4c0.4,0.6,1.1,0.9,1.7,0.9
		c0.9,0,1.8-0.5,2.1-1.3v-4.1c-0.4-0.8-1.2-1.3-2.1-1.3c-0.7,0-1.4,0.3-1.8,0.9C-6160.5-5074.2-6160.7-5073.3-6160.6-5072.4
		L-6160.6-5072.4z M-6148.5-5067.8c-1.1,0-2.2-0.4-3-1.2c-0.8-0.9-1.2-2-1.1-3.2v-0.3c0-0.8,0.2-1.6,0.5-2.4
		c0.3-0.7,0.8-1.2,1.4-1.6c0.6-0.4,1.3-0.6,2-0.6c1-0.1,2,0.4,2.7,1.2c0.7,1,1,2.1,1,3.3v0.6h-6.1c0,0.8,0.3,1.6,0.8,2.1
		c0.5,0.5,1.2,0.8,1.9,0.8c0.5,0,1-0.1,1.4-0.3c0.4-0.2,0.7-0.5,1-0.9l0.9,0.7C-6145.8-5068.4-6147.1-5067.8-6148.5-5067.8z
		 M-6148.7-5075.9c-0.6,0-1.2,0.2-1.6,0.7c-0.5,0.5-0.7,1.2-0.8,1.9h4.5v-0.1c0-0.7-0.2-1.3-0.6-1.8
		C-6147.5-5075.7-6148.1-5075.9-6148.7-5075.9z M-6141.5-5068h-1.5v-12.8h1.5V-5068z M-6131.1-5067.8c-1.1,0-2.2-0.4-3-1.2
		c-0.8-0.9-1.2-2-1.1-3.2v-0.3c0-0.8,0.2-1.6,0.5-2.4c0.3-0.7,0.8-1.2,1.4-1.6c0.6-0.4,1.3-0.6,2-0.6c1-0.1,2,0.4,2.7,1.2
		c0.7,1,1,2.1,1,3.3v0.6h-6.1c0,0.8,0.3,1.6,0.8,2.1c0.5,0.5,1.2,0.8,1.9,0.8c0.5,0,1-0.1,1.4-0.3c0.4-0.2,0.7-0.5,1-0.9l0.9,0.7
		C-6128.5-5068.4-6129.8-5067.8-6131.1-5067.8z M-6131.3-5075.9c-0.6,0-1.2,0.2-1.6,0.7c-0.5,0.5-0.7,1.2-0.8,1.9h4.5v-0.1
		c0-0.7-0.2-1.3-0.6-1.8C-6130.2-5075.7-6130.7-5075.9-6131.3-5075.9L-6131.3-5075.9z M-6124.2-5068h-1.5v-12.8h1.5V-5068z
		 M-6118-5067.8c-1.1,0-2.2-0.4-3-1.2c-0.8-0.9-1.2-2-1.1-3.2v-0.3c0-0.8,0.2-1.6,0.5-2.4c0.3-0.7,0.8-1.2,1.4-1.6
		c0.6-0.4,1.3-0.6,2-0.6c1-0.1,2,0.4,2.7,1.2c0.7,1,1,2.1,1,3.3v0.6h-6.1c0,0.8,0.3,1.6,0.8,2.1c0.5,0.5,1.2,0.8,1.9,0.8
		c0.5,0,1-0.1,1.4-0.3c0.4-0.2,0.7-0.5,1-0.9l0.9,0.7C-6115.3-5068.4-6116.6-5067.8-6118-5067.8z M-6118.2-5075.9
		c-0.6,0-1.2,0.2-1.6,0.7c-0.5,0.5-0.7,1.2-0.8,1.9h4.5v-0.1c0-0.7-0.2-1.3-0.6-1.8C-6117-5075.7-6117.6-5075.9-6118.2-5075.9z
		 M-6111.3-5077l0,1c0.7-0.8,1.6-1.2,2.7-1.2c1.1-0.1,2.1,0.5,2.6,1.4c0.3-0.4,0.7-0.8,1.2-1c0.5-0.3,1.1-0.4,1.7-0.4c2,0,3,1,3,3.1
		v6h-1.5v-5.9c0-0.5-0.1-1-0.4-1.4c-0.4-0.4-0.9-0.5-1.5-0.5c-0.5,0-1,0.2-1.4,0.5c-0.4,0.4-0.6,0.8-0.7,1.4v6h-1.5v-5.9
		c0.1-0.9-0.5-1.8-1.4-2c-0.2,0-0.3,0-0.5,0c-0.9-0.1-1.7,0.5-2.1,1.3v6.6h-1.5v-9L-6111.3-5077z M-6094.1-5067.8
		c-1.1,0-2.2-0.4-3-1.2c-0.8-0.9-1.2-2-1.1-3.2v-0.3c0-0.8,0.2-1.6,0.5-2.4c0.3-0.7,0.8-1.2,1.4-1.6c0.6-0.4,1.3-0.6,2-0.6
		c1-0.1,2,0.4,2.7,1.2c0.7,1,1,2.1,1,3.3v0.6h-6.1c0,0.8,0.3,1.6,0.8,2.1c0.5,0.5,1.2,0.8,1.9,0.8c0.5,0,1-0.1,1.4-0.3
		c0.4-0.2,0.7-0.5,1-0.9l0.9,0.7C-6091.4-5068.4-6092.7-5067.8-6094.1-5067.8z M-6094.3-5075.9c-0.6,0-1.2,0.2-1.6,0.7
		c-0.5,0.5-0.7,1.2-0.8,1.9h4.5v-0.1c0-0.7-0.2-1.3-0.6-1.8C-6093.1-5075.7-6093.7-5075.9-6094.3-5075.9L-6094.3-5075.9z
		 M-6087.4-5077l0.1,1.1c0.6-0.8,1.6-1.3,2.7-1.3c1.9,0,2.9,1.1,2.9,3.2v5.9h-1.5v-5.9c0-0.5-0.1-1-0.4-1.4
		c-0.4-0.3-0.9-0.5-1.4-0.5c-0.5,0-0.9,0.1-1.3,0.4c-0.4,0.3-0.7,0.6-0.9,1v6.4h-1.5v-9L-6087.4-5077z M-6077.3-5079.2v2.2h1.7v1.2
		h-1.7v5.6c0,0.3,0.1,0.6,0.2,0.8c0.2,0.2,0.5,0.3,0.8,0.3c0.2,0,0.5,0,0.7-0.1v1.2c-0.4,0.1-0.8,0.2-1.2,0.2
		c-0.6,0-1.2-0.2-1.6-0.6c-0.4-0.5-0.6-1.1-0.5-1.8v-5.6h-1.6v-1.2h1.6v-2.2L-6077.3-5079.2z M-6074.4-5072.6c0-0.8,0.2-1.6,0.5-2.4
		c0.3-0.7,0.8-1.2,1.4-1.6c0.6-0.4,1.4-0.6,2.1-0.6c1.1,0,2.2,0.4,3,1.3c0.8,0.9,1.2,2.2,1.1,3.4v0.1c0,0.8-0.2,1.6-0.5,2.4
		c-0.3,0.7-0.8,1.2-1.4,1.6c-0.6,0.4-1.4,0.6-2.1,0.6c-1.1,0-2.2-0.4-3-1.3c-0.8-0.9-1.2-2.1-1.1-3.4L-6074.4-5072.6z
		 M-6072.9-5072.4c0,0.9,0.2,1.7,0.7,2.4c0.4,0.6,1.1,0.9,1.9,0.9c0.7,0,1.4-0.3,1.9-0.9c0.5-0.8,0.7-1.7,0.7-2.6
		c0-0.9-0.2-1.7-0.7-2.4c-0.4-0.6-1.1-0.9-1.9-0.9c-0.7,0-1.4,0.3-1.8,0.9C-6072.7-5074.2-6073-5073.3-6072.9-5072.4L-6072.9-5072.4
		z"/>
	<path id="Trazado_606456" class="st2" d="M-6014.6-5070.1l3.5-10h1.7l-4.5,12.1h-1.4l-4.5-12.1h1.7L-6014.6-5070.1z M-6002.9-5068
		c-0.1-0.3-0.2-0.6-0.2-0.9c-0.7,0.7-1.6,1.1-2.6,1.1c-0.8,0-1.6-0.2-2.2-0.8c-0.6-0.5-0.9-1.2-0.9-1.9c0-0.9,0.4-1.7,1.1-2.2
		c0.9-0.6,1.9-0.8,3-0.8h1.5v-0.7c0-0.5-0.2-0.9-0.5-1.3c-0.4-0.3-0.9-0.5-1.4-0.5c-0.5,0-1,0.1-1.4,0.4c-0.3,0.2-0.5,0.6-0.6,1
		h-1.5c0-0.5,0.2-0.9,0.5-1.3c0.3-0.4,0.8-0.8,1.3-1c0.6-0.2,1.2-0.4,1.8-0.4c0.9-0.1,1.7,0.2,2.4,0.8c0.6,0.5,0.9,1.3,0.9,2.1v4.1
		c0,0.7,0.1,1.3,0.3,2v0.1H-6002.9z M-6005.4-5069.2c0.5,0,1-0.1,1.4-0.4c0.4-0.2,0.7-0.6,0.9-1v-1.8h-1.2c-1.9,0-2.8,0.6-2.8,1.7
		c0,0.4,0.2,0.8,0.5,1.1C-6006.3-5069.3-6005.9-5069.2-6005.4-5069.2z M-5997.5-5068h-1.5v-12.8h1.5V-5068z M-5995.4-5072.6
		c0-0.8,0.2-1.6,0.5-2.4c0.3-0.7,0.8-1.2,1.4-1.6c0.6-0.4,1.4-0.6,2.1-0.6c1.1,0,2.2,0.4,3,1.3c0.8,0.9,1.2,2.1,1.1,3.4v0.1
		c0,0.8-0.2,1.6-0.5,2.4c-0.3,0.7-0.8,1.2-1.4,1.6c-0.6,0.4-1.4,0.6-2.1,0.6c-1.1,0-2.2-0.4-3-1.3c-0.8-0.9-1.2-2.1-1.1-3.4
		L-5995.4-5072.6z M-5993.9-5072.4c0,0.9,0.2,1.7,0.7,2.4c0.4,0.6,1.1,0.9,1.9,0.9c0.7,0,1.4-0.3,1.9-0.9c0.5-0.8,0.7-1.7,0.7-2.6
		c0-0.9-0.2-1.7-0.7-2.4c-0.4-0.6-1.1-0.9-1.9-0.9c-0.7,0-1.4,0.3-1.8,0.9C-5993.7-5074.2-5994-5073.3-5993.9-5072.4z M-5981-5075.6
		c-0.2,0-0.5-0.1-0.8-0.1c-0.9-0.1-1.7,0.4-2,1.3v6.4h-1.5v-9h1.5l0,1c0.4-0.8,1.3-1.2,2.1-1.2c0.2,0,0.5,0,0.7,0.1L-5981-5075.6z
		 M-5969.8-5068c-0.1-0.3-0.2-0.6-0.2-0.9c-0.7,0.7-1.6,1.1-2.6,1.1c-0.8,0-1.6-0.2-2.2-0.8c-0.6-0.5-0.9-1.2-0.9-1.9
		c0-0.9,0.4-1.7,1.1-2.2c0.9-0.6,1.9-0.8,3-0.8h1.5v-0.7c0-0.5-0.2-0.9-0.5-1.3c-0.4-0.3-0.9-0.5-1.4-0.5c-0.5,0-1,0.1-1.4,0.4
		c-0.3,0.2-0.5,0.6-0.6,1h-1.5c0-0.5,0.2-0.9,0.5-1.3c0.3-0.4,0.8-0.8,1.3-1c0.6-0.2,1.2-0.4,1.8-0.4c0.9-0.1,1.7,0.2,2.4,0.8
		c0.6,0.5,0.9,1.3,0.9,2.1v4.1c0,0.7,0.1,1.3,0.3,2v0.1H-5969.8z M-5972.4-5069.2c0.5,0,1-0.1,1.4-0.4c0.4-0.2,0.7-0.6,0.9-1v-1.8
		h-1.2c-1.9,0-2.8,0.6-2.8,1.7c0,0.4,0.2,0.8,0.5,1.1C-5973.3-5069.3-5972.8-5069.2-5972.4-5069.2z M-5964-5079.2v2.2h1.7v1.2h-1.7
		v5.6c0,0.3,0.1,0.6,0.2,0.8c0.2,0.2,0.5,0.3,0.8,0.3c0.2,0,0.5,0,0.7-0.1v1.2c-0.4,0.1-0.8,0.2-1.2,0.2c-0.6,0-1.2-0.2-1.6-0.6
		c-0.4-0.5-0.6-1.1-0.5-1.8v-5.6h-1.6v-1.2h1.6v-2.2H-5964z M-5956.2-5075.6c-0.2,0-0.5-0.1-0.8-0.1c-0.9-0.1-1.7,0.5-2.1,1.3v6.4
		h-1.5v-9h1.5l0,1c0.4-0.8,1.3-1.2,2.1-1.2c0.2,0,0.5,0,0.7,0.1V-5075.6z M-5953.2-5068h-1.5v-9h1.5L-5953.2-5068z M-5954.8-5079.4
		c0-0.2,0.1-0.5,0.2-0.6c0.2-0.2,0.4-0.3,0.7-0.3c0.3,0,0.5,0.1,0.7,0.3c0.2,0.2,0.2,0.4,0.2,0.6c0,0.2-0.1,0.5-0.2,0.6
		c-0.2,0.2-0.4,0.3-0.7,0.2c-0.3,0-0.5-0.1-0.7-0.2C-5954.7-5078.9-5954.8-5079.1-5954.8-5079.4z M-5943.1-5072.4
		c0.1,1.2-0.3,2.3-0.9,3.3c-0.6,0.8-1.5,1.3-2.5,1.2c-1,0.1-2-0.4-2.6-1.2l-0.1,1h-1.4v-12.8h1.5v4.8c0.6-0.8,1.6-1.2,2.6-1.2
		c1,0,2,0.4,2.6,1.2c0.7,1,1,2.2,0.9,3.4L-5943.1-5072.4z M-5944.6-5072.6c0.1-0.9-0.2-1.7-0.6-2.4c-0.4-0.6-1.1-0.9-1.7-0.9
		c-1,0-1.8,0.5-2.2,1.4v3.9c0.4,0.9,1.2,1.4,2.2,1.4c0.7,0,1.3-0.3,1.7-0.9C-5944.8-5070.8-5944.6-5071.7-5944.6-5072.6z
		 M-5935.6-5068.9c-0.7,0.7-1.6,1.1-2.6,1.1c-0.8,0.1-1.6-0.2-2.2-0.8c-0.5-0.7-0.8-1.6-0.8-2.5v-5.8h1.5v5.8c0,1.4,0.6,2,1.7,2
		c1,0.1,1.9-0.4,2.3-1.3v-6.5h1.5v9h-1.5L-5935.6-5068.9z M-5929.7-5079.2v2.2h1.7v1.2h-1.7v5.6c0,0.3,0.1,0.6,0.2,0.8
		c0.2,0.2,0.5,0.3,0.8,0.3c0.2,0,0.5,0,0.7-0.1v1.2c-0.4,0.1-0.8,0.2-1.2,0.2c-0.6,0-1.2-0.2-1.6-0.6c-0.4-0.5-0.6-1.1-0.5-1.8v-5.6
		h-1.6v-1.2h1.6v-2.2H-5929.7z M-5926.8-5072.6c0-0.8,0.2-1.6,0.5-2.4c0.3-0.7,0.8-1.2,1.4-1.6c0.6-0.4,1.4-0.6,2.1-0.6
		c1.1,0,2.2,0.4,3,1.3c0.8,0.9,1.2,2.1,1.1,3.4v0.1c0,0.8-0.2,1.6-0.5,2.4c-0.3,0.7-0.8,1.2-1.4,1.6c-0.6,0.4-1.4,0.6-2.1,0.6
		c-1.1,0-2.2-0.4-3-1.3c-0.8-0.9-1.2-2.1-1.1-3.4L-5926.8-5072.6z M-5925.3-5072.4c0,0.9,0.2,1.7,0.7,2.4c0.4,0.6,1.1,0.9,1.9,0.9
		c0.7,0,1.4-0.3,1.9-0.9c0.5-0.8,0.7-1.7,0.7-2.6c0-0.9-0.2-1.7-0.7-2.4c-0.4-0.6-1.1-0.9-1.9-0.9c-0.7,0-1.4,0.3-1.8,0.9
		C-5925.1-5074.2-5925.3-5073.3-5925.3-5072.4L-5925.3-5072.4z"/>
	<path id="Trazado_606457" class="st3" d="M-5847.8-5073.6h-5.2v4.3h6.1v1.3h-7.7v-12.1h7.6v1.3h-6v3.9h5.2V-5073.6z
		 M-5843.1-5079.2v2.2h1.7v1.2h-1.7v5.6c0,0.3,0.1,0.6,0.2,0.8c0.2,0.2,0.5,0.3,0.8,0.3c0.2,0,0.5,0,0.7-0.1v1.2
		c-0.4,0.1-0.8,0.2-1.2,0.2c-0.6,0-1.2-0.2-1.5-0.6c-0.4-0.5-0.6-1.1-0.5-1.8v-5.6h-1.6v-1.2h1.6v-2.2H-5843.1z M-5838-5068h-1.5v-9
		h1.5V-5068z M-5839.6-5079.4c0-0.2,0.1-0.5,0.2-0.6c0.2-0.2,0.4-0.3,0.7-0.3c0.3,0,0.5,0.1,0.7,0.3c0.2,0.2,0.2,0.4,0.2,0.6
		c0,0.2-0.1,0.5-0.2,0.6c-0.2,0.2-0.4,0.3-0.7,0.2c-0.3,0-0.5-0.1-0.7-0.2C-5839.5-5078.9-5839.6-5079.1-5839.6-5079.4z
		 M-5835.9-5072.6c-0.1-1.2,0.3-2.4,1-3.4c0.6-0.8,1.6-1.3,2.6-1.2c1,0,1.9,0.3,2.5,1.1l0.1-0.9h1.4v12.4h-1.5v-4.3
		c-0.6,0.7-1.5,1-2.5,1c-1,0-2-0.4-2.6-1.3c-0.7-1-1-2.2-1-3.4L-5835.9-5072.6z M-5834.3-5072.4c0,0.9,0.2,1.7,0.7,2.4
		c0.4,0.6,1.1,0.9,1.8,0.9c0.9,0,1.7-0.4,2.1-1.2v-4.4c-0.4-0.8-1.2-1.2-2.1-1.2c-0.7,0-1.4,0.3-1.8,0.9
		C-5834.2-5074.2-5834.4-5073.3-5834.3-5072.4L-5834.3-5072.4z M-5820.3-5068.9c-0.7,0.7-1.6,1.1-2.6,1.1c-0.8,0.1-1.6-0.2-2.2-0.8
		c-0.5-0.7-0.8-1.6-0.8-2.5v-5.8h1.5v5.8c0,1.4,0.6,2,1.7,2c1,0.1,1.9-0.4,2.3-1.3v-6.5h1.5v9h-1.5L-5820.3-5068.9z M-5812.7-5067.8
		c-1.1,0-2.2-0.4-3-1.2c-0.8-0.9-1.2-2-1.1-3.2v-0.3c0-0.8,0.2-1.6,0.5-2.4c0.3-0.7,0.8-1.2,1.4-1.6c0.6-0.4,1.3-0.6,2-0.6
		c1-0.1,2,0.4,2.7,1.2c0.7,1,1,2.1,1,3.3v0.6h-6.1c0,0.8,0.3,1.6,0.8,2.1c0.5,0.5,1.2,0.8,1.9,0.8c0.5,0,1-0.1,1.4-0.3
		c0.4-0.2,0.7-0.5,1-0.9l0.9,0.7C-5810.1-5068.4-5811.4-5067.8-5812.7-5067.8z M-5812.9-5075.9c-0.6,0-1.2,0.2-1.6,0.7
		c-0.5,0.5-0.7,1.2-0.8,1.9h4.5v-0.1c0-0.7-0.2-1.3-0.6-1.8C-5811.8-5075.7-5812.3-5075.9-5812.9-5075.9z M-5805.4-5079.2v2.2h1.7
		v1.2h-1.7v5.6c0,0.3,0.1,0.6,0.2,0.8c0.2,0.2,0.5,0.3,0.8,0.3c0.2,0,0.5,0,0.7-0.1v1.2c-0.4,0.1-0.8,0.2-1.2,0.2
		c-0.6,0-1.2-0.2-1.6-0.6c-0.4-0.5-0.6-1.1-0.5-1.8v-5.6h-1.6v-1.2h1.6v-2.2L-5805.4-5079.2z M-5796.4-5068
		c-0.1-0.3-0.2-0.6-0.2-0.9c-0.7,0.7-1.6,1.1-2.6,1.1c-0.8,0-1.6-0.2-2.2-0.8c-0.6-0.5-0.9-1.2-0.9-1.9c0-0.9,0.4-1.7,1.1-2.2
		c0.9-0.6,1.9-0.8,3-0.8h1.5v-0.7c0-0.5-0.2-0.9-0.5-1.3c-0.4-0.3-0.9-0.5-1.4-0.5c-0.5,0-1,0.1-1.4,0.4c-0.3,0.2-0.5,0.6-0.6,1
		h-1.5c0-0.5,0.2-0.9,0.5-1.3c0.3-0.4,0.8-0.8,1.3-1c0.6-0.2,1.2-0.4,1.8-0.4c0.9-0.1,1.7,0.2,2.4,0.8c0.6,0.5,0.9,1.3,0.9,2.1v4.1
		c0,0.7,0.1,1.3,0.3,2v0.1H-5796.4z M-5798.9-5069.2c0.5,0,1-0.1,1.4-0.4c0.4-0.2,0.7-0.6,0.9-1v-1.8h-1.2c-1.9,0-2.8,0.6-2.8,1.7
		c0,0.4,0.2,0.8,0.5,1.1C-5799.8-5069.3-5799.4-5069.2-5798.9-5069.2z M-5788.8-5072.6c-0.1-1.2,0.3-2.4,1-3.3
		c0.6-0.8,1.6-1.3,2.6-1.3c1,0,1.9,0.4,2.5,1.1v-4.7h1.5v12.8h-1.4l-0.1-1c-0.6,0.8-1.6,1.2-2.6,1.1c-1,0-2-0.5-2.5-1.3
		c-0.7-1-1-2.1-1-3.3V-5072.6z M-5787.3-5072.4c0,0.8,0.2,1.7,0.6,2.4c0.4,0.6,1.1,0.9,1.7,0.9c0.9,0,1.8-0.5,2.1-1.3v-4.1
		c-0.4-0.8-1.2-1.3-2.1-1.3c-0.7,0-1.4,0.3-1.8,0.9C-5787.1-5074.2-5787.3-5073.3-5787.3-5072.4L-5787.3-5072.4z M-5775.1-5067.8
		c-1.1,0-2.2-0.4-3-1.2c-0.8-0.9-1.2-2-1.1-3.2v-0.3c0-0.8,0.2-1.6,0.5-2.4c0.3-0.7,0.8-1.2,1.4-1.6c0.6-0.4,1.3-0.6,2-0.6
		c1-0.1,2,0.4,2.7,1.2c0.7,1,1,2.1,1,3.3v0.6h-6.1c0,0.8,0.3,1.6,0.8,2.1c0.5,0.5,1.2,0.8,1.9,0.8c0.5,0,1-0.1,1.4-0.3
		c0.4-0.2,0.7-0.5,1-0.9l0.9,0.7C-5772.5-5068.4-5773.8-5067.8-5775.1-5067.8z M-5775.3-5075.9c-0.6,0-1.2,0.2-1.6,0.7
		c-0.5,0.5-0.7,1.2-0.8,1.9h4.5v-0.1c0-0.7-0.2-1.3-0.6-1.8C-5774.2-5075.7-5774.7-5075.9-5775.3-5075.9z M-5765.1-5068v-7.8h-1.4
		v-1.2h1.4v-0.8c-0.1-0.9,0.3-1.7,0.9-2.3c0.7-0.6,1.5-0.9,2.4-0.8c0.8,0,1.6,0.2,2.3,0.5l-0.3,1.3c-0.6-0.3-1.3-0.4-2-0.4
		c-0.5,0-1,0.1-1.4,0.4c-0.3,0.4-0.5,0.8-0.4,1.3v0.8h1.8v1.2h-1.8v7.8H-5765.1z M-5758.7-5068h-1.5v-9h1.5V-5068z M-5754.8-5077
		l0,1.1c0.6-0.8,1.6-1.3,2.7-1.3c1.9,0,2.9,1.1,2.9,3.2v5.9h-1.5v-5.9c0-0.5-0.1-1-0.4-1.4c-0.4-0.3-0.9-0.5-1.4-0.5
		c-0.5,0-0.9,0.1-1.3,0.4c-0.4,0.3-0.7,0.6-0.9,1v6.4h-1.5v-9H-5754.8z"/>
	<g id="Grupo_890408" transform="translate(-6771 -11780)">
		<path id="Trazado_606266" class="st4" d="M656,6605.8v24.6"/>
		<path id="Polígono_19" class="st5" d="M656,6633l-5-9h10L656,6633z"/>
	</g>
	<g id="Grupo_890409" transform="translate(-6120 -5115.197)">
		<path id="Trazado_606266-2" class="st4" d="M5,27.2V2.6"/>
		<path id="Polígono_19-2" class="st5" d="M5,0l5,9H0L5,0z"/>
	</g>
	<g id="Grupo_890410" transform="translate(-6000 -5115.197)">
		<path id="Trazado_606266-3" class="st4" d="M5,27.2V2.6"/>
		<path id="Polígono_19-3" class="st5" d="M5,0l5,9H0L5,0z"/>
	</g>
	<g id="Grupo_890411" transform="translate(-6565 -11780)">
		<path id="Trazado_606266-4" class="st4" d="M656,6605.8v24.6"/>
		<path id="Polígono_19-4" class="st5" d="M656,6633l-5-9h10L656,6633z"/>
	</g>
	<g id="Grupo_890412" transform="translate(-5829 -5115.197)">
		<path id="Trazado_606266-5" class="st4" d="M5,27.2V2.6"/>
		<path id="Polígono_19-5" class="st5" d="M5,0l5,9H0L5,0z"/>
	</g>
</g>
</svg>
