<svg xmlns="http://www.w3.org/2000/svg" width="96" height="96" viewBox="0 0 96 96">
  <g id="Grupo_889745" data-name="Grupo 889745" transform="translate(-752 -1136)">
    <circle id="Elipse_8021" data-name="Elipse 8021" cx="48" cy="48" r="48" transform="translate(752 1136)" fill="#fff"/>
    <g id="Grupo_889717" data-name="Grupo 889717" transform="translate(546.45 650.45)">
      <g id="Grupo_889697" data-name="Grupo 889697" transform="translate(225 501)">
        <path id="Trazado_604586" data-name="Trazado 604586" d="M265.6,517.658h-35.4A5.212,5.212,0,0,1,225,512.452v-6.247A5.212,5.212,0,0,1,230.206,501h35.4a5.212,5.212,0,0,1,5.206,5.206v6.247A5.212,5.212,0,0,1,265.6,517.658Zm-35.4-14.576a3.127,3.127,0,0,0-3.123,3.123v6.247a3.127,3.127,0,0,0,3.123,3.123h35.4a3.127,3.127,0,0,0,3.123-3.123v-6.247a3.127,3.127,0,0,0-3.123-3.123Z" transform="translate(-225 -501)" fill="#26aab7"/>
      </g>
      <g id="Grupo_889698" data-name="Grupo 889698" transform="translate(228.123 516.617)">
        <rect id="Rectángulo_301545" data-name="Rectángulo 301545" width="2" height="6" transform="translate(0.426 -0.067)" fill="#26aab7"/>
      </g>
      <g id="Grupo_889699" data-name="Grupo 889699" transform="translate(265.604 516.617)">
        <rect id="Rectángulo_301546" data-name="Rectángulo 301546" width="2" height="6" transform="translate(-0.054 -0.067)" fill="#26aab7"/>
      </g>
      <g id="Grupo_889700" data-name="Grupo 889700" transform="translate(225 521.823)">
        <path id="Trazado_604587" data-name="Trazado 604587" d="M255.193,537.658H230.206A5.212,5.212,0,0,1,225,532.452v-6.247A5.212,5.212,0,0,1,230.206,521h35.4a5.212,5.212,0,0,1,5.206,5.206v1.041h-2.082v-1.041a3.127,3.127,0,0,0-3.123-3.123h-35.4a3.127,3.127,0,0,0-3.123,3.123v6.247a3.127,3.127,0,0,0,3.123,3.123h24.987Z" transform="translate(-225 -521)" fill="#26aab7"/>
      </g>
      <g id="Grupo_889701" data-name="Grupo 889701" transform="translate(225 542.645)">
        <path id="Trazado_604588" data-name="Trazado 604588" d="M255.193,557.658H230.206A5.212,5.212,0,0,1,225,552.452v-6.247A5.212,5.212,0,0,1,230.206,541h21.864v2.082H230.206a3.127,3.127,0,0,0-3.123,3.123v6.247a3.127,3.127,0,0,0,3.123,3.123h24.987Z" transform="translate(-225 -541)" fill="#26aab7"/>
      </g>
      <g id="Grupo_889702" data-name="Grupo 889702" transform="translate(228.123 537.439)">
        <rect id="Rectángulo_301547" data-name="Rectángulo 301547" width="2" height="6" transform="translate(0.426 0.11)" fill="#26aab7"/>
      </g>
      <g id="Grupo_889703" data-name="Grupo 889703" transform="translate(229.165 548.892)">
        <path id="Trazado_604589" data-name="Trazado 604589" d="M232.123,553.247a3.123,3.123,0,1,1,3.123-3.123A3.127,3.127,0,0,1,232.123,553.247Zm0-4.164a1.041,1.041,0,1,0,1.041,1.041A1.042,1.042,0,0,0,232.123,549.082Z" transform="translate(-229 -547)" fill="#26aab7"/>
      </g>
      <g id="Grupo_889704" data-name="Grupo 889704" transform="translate(237.494 548.892)">
        <path id="Trazado_604590" data-name="Trazado 604590" d="M240.123,553.247a3.123,3.123,0,1,1,3.123-3.123A3.127,3.127,0,0,1,240.123,553.247Zm0-4.164a1.041,1.041,0,1,0,1.041,1.041A1.042,1.042,0,0,0,240.123,549.082Z" transform="translate(-237 -547)" fill="#26aab7"/>
      </g>
      <g id="Grupo_889705" data-name="Grupo 889705" transform="translate(245.823 550.974)">
        <rect id="Rectángulo_301548" data-name="Rectángulo 301548" width="7" height="3" transform="translate(-0.272 -0.425)" fill="#26aab7"/>
      </g>
      <g id="Grupo_889706" data-name="Grupo 889706" transform="translate(229.165 528.069)">
        <path id="Trazado_604591" data-name="Trazado 604591" d="M232.123,533.247a3.123,3.123,0,1,1,3.123-3.123A3.127,3.127,0,0,1,232.123,533.247Zm0-4.164a1.041,1.041,0,1,0,1.041,1.041A1.042,1.042,0,0,0,232.123,529.082Z" transform="translate(-229 -527)" fill="#26aab7"/>
      </g>
      <g id="Grupo_889707" data-name="Grupo 889707" transform="translate(237.494 528.069)">
        <path id="Trazado_604592" data-name="Trazado 604592" d="M240.123,533.247a3.123,3.123,0,1,1,3.123-3.123A3.127,3.127,0,0,1,240.123,533.247Zm0-4.164a1.041,1.041,0,1,0,1.041,1.041A1.042,1.042,0,0,0,240.123,529.082Z" transform="translate(-237 -527)" fill="#26aab7"/>
      </g>
      <g id="Grupo_889708" data-name="Grupo 889708" transform="translate(245.823 530.152)">
        <rect id="Rectángulo_301549" data-name="Rectángulo 301549" width="13" height="2" transform="translate(-0.272 0.398)" fill="#26aab7"/>
      </g>
      <g id="Grupo_889709" data-name="Grupo 889709" transform="translate(229.165 507.247)">
        <path id="Trazado_604593" data-name="Trazado 604593" d="M232.123,513.247a3.123,3.123,0,1,1,3.123-3.123A3.127,3.127,0,0,1,232.123,513.247Zm0-4.164a1.041,1.041,0,1,0,1.041,1.041A1.041,1.041,0,0,0,232.123,509.082Z" transform="translate(-229 -507)" fill="#26aab7"/>
      </g>
      <g id="Grupo_889710" data-name="Grupo 889710" transform="translate(237.494 507.247)">
        <path id="Trazado_604594" data-name="Trazado 604594" d="M240.123,513.247a3.123,3.123,0,1,1,3.123-3.123A3.127,3.127,0,0,1,240.123,513.247Zm0-4.164a1.041,1.041,0,1,0,1.041,1.041A1.041,1.041,0,0,0,240.123,509.082Z" transform="translate(-237 -507)" fill="#26aab7"/>
      </g>
      <g id="Grupo_889711" data-name="Grupo 889711" transform="translate(245.823 509.329)">
        <rect id="Rectángulo_301550" data-name="Rectángulo 301550" width="13" height="2" transform="translate(-0.272 0.221)" fill="#26aab7"/>
      </g>
      <g id="Grupo_889712" data-name="Grupo 889712" transform="translate(254.152 530.152)">
        <path id="Trazado_604595" data-name="Trazado 604595" d="M270.7,564.4a17.7,17.7,0,1,1,17.7-17.7A17.719,17.719,0,0,1,270.7,564.4Zm0-33.316A15.617,15.617,0,1,0,286.316,546.7,15.633,15.633,0,0,0,270.7,531.082Z" transform="translate(-253 -529)" fill="#26aab7"/>
      </g>
      <g id="Grupo_889713" data-name="Grupo 889713" transform="translate(260.398 536.398)">
        <path id="Trazado_604596" data-name="Trazado 604596" d="M261.082,546.452H259A11.466,11.466,0,0,1,270.452,535v2.082A9.38,9.38,0,0,0,261.082,546.452Z" transform="translate(-259 -535)" fill="#26aab7"/>
      </g>
      <g id="Grupo_889714" data-name="Grupo 889714" transform="translate(271.851 547.851)">
        <path id="Trazado_604597" data-name="Trazado 604597" d="M270,557.452V555.37a9.38,9.38,0,0,0,9.37-9.37h2.082A11.466,11.466,0,0,1,270,557.452Z" transform="translate(-270 -546)" fill="#26aab7"/>
      </g>
      <g id="Grupo_889715" data-name="Grupo 889715" transform="translate(257.738 545.943)">
        <path id="Trazado_604598" data-name="Trazado 604598" d="M260.146,548.368l-3.7-2.468,1.155-1.732,2.546,1.7,2.546-1.7,1.155,1.732Z" transform="translate(-256.445 -544.168)" fill="#26aab7"/>
      </g>
      <g id="Grupo_889716" data-name="Grupo 889716" transform="translate(278.561 545.558)">
        <path id="Trazado_604599" data-name="Trazado 604599" d="M282.692,548l-2.546-1.7L277.6,548l-1.155-1.732,3.7-2.468,3.7,2.468Z" transform="translate(-276.445 -543.798)" fill="#26aab7"/>
      </g>
    </g>
  </g>
</svg>
