<svg xmlns="http://www.w3.org/2000/svg" width="96" height="96" viewBox="0 0 96 96">
  <g id="Grupo_889744" data-name="Grupo 889744" transform="translate(-1120 -1136)">
    <circle id="Elipse_8022" data-name="Elipse 8022" cx="48" cy="48" r="48" transform="translate(1120 1136)" fill="#fff"/>
    <g id="Grupo_889743" data-name="Grupo 889743" transform="translate(911 1032.081)">
      <g id="Grupo_889718" data-name="Grupo 889718" transform="translate(246.03 176.433)">
        <rect id="Rectángulo_301551" data-name="Rectángulo 301551" width="2" height="4" transform="translate(-0.111 0.486)" fill="#26aab7"/>
      </g>
      <g id="Grupo_889719" data-name="Grupo 889719" transform="translate(233.229 176.433)">
        <rect id="Rectángulo_301552" data-name="Rectángulo 301552" width="2" height="4" transform="translate(-0.311 0.486)" fill="#26aab7"/>
      </g>
      <g id="Grupo_889720" data-name="Grupo 889720" transform="translate(229.572 180.09)">
        <rect id="Rectángulo_301553" data-name="Rectángulo 301553" width="23" height="2" transform="translate(0.347 -0.171)" fill="#26aab7"/>
      </g>
      <g id="Grupo_889721" data-name="Grupo 889721" transform="translate(225 171.448)">
        <path id="Trazado_604600" data-name="Trazado 604600" d="M253.271,175.282h-25.13A3.145,3.145,0,0,1,225,172.141V169h31.412v3.141A3.145,3.145,0,0,1,253.271,175.282Zm-26.177-4.188v1.047a1.047,1.047,0,0,0,1.047,1.047h25.13a1.047,1.047,0,0,0,1.047-1.047v-1.047Z" transform="translate(-225 -169)" fill="#26aab7"/>
      </g>
      <g id="Grupo_889722" data-name="Grupo 889722" transform="translate(225 152.601)">
        <path id="Trazado_604601" data-name="Trazado 604601" d="M256.412,167.753h-2.094V154.141a1.047,1.047,0,0,0-1.047-1.047h-25.13a1.047,1.047,0,0,0-1.047,1.047v13.612H225V154.141A3.145,3.145,0,0,1,228.141,151h25.13a3.145,3.145,0,0,1,3.141,3.141Z" transform="translate(-225 -151)" fill="#26aab7"/>
      </g>
      <g id="Grupo_889723" data-name="Grupo 889723" transform="translate(279.861 176.433)">
        <rect id="Rectángulo_301554" data-name="Rectángulo 301554" width="2" height="4" transform="translate(0.058 0.486)" fill="#26aab7"/>
      </g>
      <g id="Grupo_889724" data-name="Grupo 889724" transform="translate(267.06 176.433)">
        <rect id="Rectángulo_301555" data-name="Rectángulo 301555" width="2" height="4" transform="translate(-0.141 0.486)" fill="#26aab7"/>
      </g>
      <g id="Grupo_889725" data-name="Grupo 889725" transform="translate(262.489 180.09)">
        <rect id="Rectángulo_301556" data-name="Rectángulo 301556" width="22" height="2" transform="translate(0.43 -0.171)" fill="#26aab7"/>
      </g>
      <g id="Grupo_889726" data-name="Grupo 889726" transform="translate(258.507 171.448)">
        <path id="Trazado_604602" data-name="Trazado 604602" d="M285.271,175.282h-25.13A3.145,3.145,0,0,1,257,172.141V169h31.412v3.141A3.145,3.145,0,0,1,285.271,175.282Zm-26.177-4.188v1.047a1.047,1.047,0,0,0,1.047,1.047h25.13a1.047,1.047,0,0,0,1.047-1.047v-1.047Z" transform="translate(-257 -169)" fill="#26aab7"/>
      </g>
      <g id="Grupo_889727" data-name="Grupo 889727" transform="translate(258.507 152.601)">
        <path id="Trazado_604603" data-name="Trazado 604603" d="M288.412,167.753h-2.094V154.141a1.047,1.047,0,0,0-1.047-1.047h-25.13a1.047,1.047,0,0,0-1.047,1.047v13.612H257V154.141A3.145,3.145,0,0,1,260.141,151h25.13a3.145,3.145,0,0,1,3.141,3.141Z" transform="translate(-257 -151)" fill="#26aab7"/>
      </g>
      <g id="Grupo_889728" data-name="Grupo 889728" transform="translate(244.895 137.942)">
        <path id="Trazado_604604" data-name="Trazado 604604" d="M267.036,145.377H246.094A2.1,2.1,0,0,1,244,143.282v-4.188A2.1,2.1,0,0,1,246.094,137h20.942a2.1,2.1,0,0,1,2.094,2.094v4.188A2.1,2.1,0,0,1,267.036,145.377Zm-20.942-6.282h0l0,4.188h20.942v-4.188Z" transform="translate(-244 -137)" fill="#26aab7"/>
      </g>
      <g id="Grupo_889729" data-name="Grupo 889729" transform="translate(247.859 134.373)">
        <rect id="Rectángulo_301557" data-name="Rectángulo 301557" width="2" height="5" transform="translate(0.06 -0.454)" fill="#26aab7"/>
      </g>
      <g id="Grupo_889730" data-name="Grupo 889730" transform="translate(265.231 134.373)">
        <rect id="Rectángulo_301558" data-name="Rectángulo 301558" width="2" height="5" transform="translate(-0.312 -0.454)" fill="#26aab7"/>
      </g>
      <g id="Grupo_889731" data-name="Grupo 889731" transform="translate(244.895 127.471)">
        <path id="Trazado_604605" data-name="Trazado 604605" d="M267.036,135.377H246.094A2.1,2.1,0,0,1,244,133.282v-4.188A2.1,2.1,0,0,1,246.094,127h20.942a2.1,2.1,0,0,1,2.094,2.094v4.188A2.1,2.1,0,0,1,267.036,135.377Zm-20.942-6.282h0l0,4.188h20.942v-4.188Z" transform="translate(-244 -127)" fill="#26aab7"/>
      </g>
      <g id="Grupo_889732" data-name="Grupo 889732" transform="translate(244.895 117)">
        <path id="Trazado_604606" data-name="Trazado 604606" d="M267.036,125.377H246.094A2.1,2.1,0,0,1,244,123.282v-4.188A2.1,2.1,0,0,1,246.094,117h20.942a2.1,2.1,0,0,1,2.094,2.094v4.188A2.1,2.1,0,0,1,267.036,125.377Zm-20.942-6.282h0l0,4.188h20.942v-4.188Z" transform="translate(-244 -117)" fill="#26aab7"/>
      </g>
      <g id="Grupo_889733" data-name="Grupo 889733" transform="translate(247.859 124.314)">
        <rect id="Rectángulo_301559" data-name="Rectángulo 301559" width="2" height="5" transform="translate(0.06 -0.396)" fill="#26aab7"/>
      </g>
      <g id="Grupo_889734" data-name="Grupo 889734" transform="translate(265.231 124.314)">
        <rect id="Rectángulo_301560" data-name="Rectángulo 301560" width="2" height="5" transform="translate(-0.312 -0.396)" fill="#26aab7"/>
      </g>
      <g id="Grupo_889735" data-name="Grupo 889735" transform="translate(276.307 144.224)">
        <path id="Trazado_604607" data-name="Trazado 604607" d="M277.141,149.282a3.141,3.141,0,1,1,3.141-3.141A3.145,3.145,0,0,1,277.141,149.282Zm0-4.188a1.047,1.047,0,1,0,1.047,1.047A1.047,1.047,0,0,0,277.141,145.094Z" transform="translate(-274 -143)" fill="#26aab7"/>
      </g>
      <g id="Grupo_889736" data-name="Grupo 889736" transform="translate(283.636 140.036)">
        <path id="Trazado_604608" data-name="Trazado 604608" d="M284.141,145.282a3.141,3.141,0,1,1,3.141-3.141A3.145,3.145,0,0,1,284.141,145.282Zm0-4.188a1.047,1.047,0,1,0,1.047,1.047A1.047,1.047,0,0,0,284.141,141.094Z" transform="translate(-281 -139)" fill="#26aab7"/>
      </g>
      <g id="Grupo_889737" data-name="Grupo 889737" transform="translate(272.119 123.282)">
        <path id="Trazado_604609" data-name="Trazado 604609" d="M285.706,137.659h-2.094v-9.424a3.145,3.145,0,0,0-3.141-3.141H270V123h10.471a5.241,5.241,0,0,1,5.235,5.235Z" transform="translate(-270 -123)" fill="#26aab7"/>
      </g>
      <g id="Grupo_889738" data-name="Grupo 889738" transform="translate(272.119 127.471)">
        <path id="Trazado_604610" data-name="Trazado 604610" d="M278.377,141.659h-2.094V130.141a1.047,1.047,0,0,0-1.047-1.047H270V127h5.235a3.145,3.145,0,0,1,3.141,3.141Z" transform="translate(-270 -127)" fill="#26aab7"/>
      </g>
      <g id="Grupo_889739" data-name="Grupo 889739" transform="translate(232.33 144.224)">
        <path id="Trazado_604611" data-name="Trazado 604611" d="M235.141,149.282a3.141,3.141,0,1,1,3.141-3.141A3.145,3.145,0,0,1,235.141,149.282Zm0-4.188a1.047,1.047,0,1,0,1.047,1.047A1.047,1.047,0,0,0,235.141,145.094Z" transform="translate(-232 -143)" fill="#26aab7"/>
      </g>
      <g id="Grupo_889740" data-name="Grupo 889740" transform="translate(225 140.036)">
        <path id="Trazado_604612" data-name="Trazado 604612" d="M228.141,145.282a3.141,3.141,0,1,1,3.141-3.141A3.145,3.145,0,0,1,228.141,145.282Zm0-4.188a1.047,1.047,0,1,0,1.047,1.047A1.047,1.047,0,0,0,228.141,141.094Z" transform="translate(-225 -139)" fill="#26aab7"/>
      </g>
      <g id="Grupo_889741" data-name="Grupo 889741" transform="translate(227.094 123.282)">
        <path id="Trazado_604613" data-name="Trazado 604613" d="M229.094,137.659H227v-9.424A5.241,5.241,0,0,1,232.235,123h10.471v2.094H232.235a3.145,3.145,0,0,0-3.141,3.141Z" transform="translate(-227 -123)" fill="#26aab7"/>
      </g>
      <g id="Grupo_889742" data-name="Grupo 889742" transform="translate(234.424 127.471)">
        <path id="Trazado_604614" data-name="Trazado 604614" d="M236.094,141.659H234V130.141A3.145,3.145,0,0,1,237.141,127h5.235v2.094h-5.235a1.047,1.047,0,0,0-1.047,1.047Z" transform="translate(-234 -127)" fill="#26aab7"/>
      </g>
    </g>
  </g>
</svg>
