<svg xmlns="http://www.w3.org/2000/svg" width="199.619" height="162.82" viewBox="0 0 199.619 162.82">
  <g id="Grupo_889877" data-name="Grupo 889877" transform="translate(-111.094 -62.09)">
    <g id="Grupo_889869" data-name="Grupo 889869">
      <path id="Trazado_604756" data-name="Trazado 604756" d="M281.7,214.21c0,3.847-.459,6.968-4.3,6.968H223.746a6.969,6.969,0,0,1-6.971-6.968h0a6.969,6.969,0,0,1,6.971-6.969h53.647c3.846,0,4.3,3.121,4.3,6.969Z" fill="#120f11"/>
      <path id="Trazado_604757" data-name="Trazado 604757" d="M138.781,214.21c0,3.847.459,6.968,4.309,6.968h53.645a6.971,6.971,0,0,0,6.97-6.968h0a6.971,6.971,0,0,0-6.97-6.969H143.09c-3.85,0-4.309,3.121-4.309,6.969Z" fill="#120f11"/>
      <rect id="Rect치ngulo_301646" data-name="Rect치ngulo 301646" width="18.008" height="32.854" transform="translate(201.898 187.08)" fill="#120f11"/>
      <path id="Trazado_604758" data-name="Trazado 604758" d="M310.713,182.241a10.946,10.946,0,0,1-10.989,10.9H122.082a10.945,10.945,0,0,1-10.988-10.9V73A10.947,10.947,0,0,1,122.082,62.09H299.724A10.948,10.948,0,0,1,310.713,73Z" fill="#232023"/>
      <path id="Trazado_604759" data-name="Trazado 604759" d="M304.3,178.784a10.327,10.327,0,0,1-10.28,10.378H127.791a10.329,10.329,0,0,1-10.282-10.378V76.49a10.331,10.331,0,0,1,10.282-10.379H294.016A10.329,10.329,0,0,1,304.3,76.49Z" fill="#120f11"/>
      <path id="Trazado_604760" data-name="Trazado 604760" d="M301.719,175.909a9.927,9.927,0,0,1-10,9.854H130.086a9.924,9.924,0,0,1-10-9.854V79.362a9.924,9.924,0,0,1,10-9.851H291.718a9.927,9.927,0,0,1,10,9.851Z" fill="#27a8c5"/>
      <path id="Trazado_604761" data-name="Trazado 604761" d="M132.181,184.256a9.667,9.667,0,0,1-9.739-9.6V80.613a9.668,9.668,0,0,1,9.739-9.6H289.625a9.669,9.669,0,0,1,9.741,9.6Z" fill="#4fb3c8"/>
      <path id="Rect치ngulo_301647" data-name="Rect치ngulo 301647" d="M2.375,0h41.2a2.377,2.377,0,0,1,2.377,2.377V19.026A2.377,2.377,0,0,1,43.577,21.4H2.377A2.377,2.377,0,0,1,0,19.026V2.375A2.375,2.375,0,0,1,2.375,0Z" transform="translate(186.049 203.507)" fill="#232023"/>
    </g>
    <g id="Grupo_889876" data-name="Grupo 889876">
      <g id="Grupo_889870" data-name="Grupo 889870">
        <path id="Trazado_604762" data-name="Trazado 604762" d="M145.04,94.653a6.108,6.108,0,0,1,.853-3.5,2.69,2.69,0,0,1,2.332-1.232,2.637,2.637,0,0,1,2.351,1.279,6.309,6.309,0,0,1,.824,3.454,6.126,6.126,0,0,1-.849,3.49,2.68,2.68,0,0,1-2.326,1.236,2.637,2.637,0,0,1-2.364-1.286A6.318,6.318,0,0,1,145.04,94.653Zm1.345,0a6.1,6.1,0,0,0,.474,2.811,1.521,1.521,0,0,0,2.729,0,8.546,8.546,0,0,0-.006-5.636,1.5,1.5,0,0,0-1.357-.837,1.453,1.453,0,0,0-1.416.952A6.874,6.874,0,0,0,146.385,94.653Z" fill="#fff"/>
        <path id="Trazado_604763" data-name="Trazado 604763" d="M161.828,98.12V91.179h-1.252v-1.1h2.5V98.12h1.193v1.114h-3.7V98.12Z" fill="#fff"/>
        <path id="Trazado_604764" data-name="Trazado 604764" d="M173.172,94.653a6.116,6.116,0,0,1,.853-3.5,2.693,2.693,0,0,1,2.331-1.232,2.636,2.636,0,0,1,2.353,1.279,6.309,6.309,0,0,1,.824,3.454,6.118,6.118,0,0,1-.849,3.49,2.681,2.681,0,0,1-2.328,1.236,2.639,2.639,0,0,1-2.363-1.286A6.318,6.318,0,0,1,173.172,94.653Zm1.346,0a6.11,6.11,0,0,0,.474,2.811,1.521,1.521,0,0,0,2.729,0,8.562,8.562,0,0,0-.006-5.636,1.5,1.5,0,0,0-1.359-.837,1.455,1.455,0,0,0-1.415.952A6.913,6.913,0,0,0,174.518,94.653Z" fill="#fff"/>
        <path id="Trazado_604765" data-name="Trazado 604765" d="M189.96,98.12V91.179h-1.253v-1.1h2.506V98.12h1.193v1.114h-3.7V98.12Z" fill="#fff"/>
        <path id="Trazado_604766" data-name="Trazado 604766" d="M201.3,94.653a6.108,6.108,0,0,1,.854-3.5,2.691,2.691,0,0,1,2.329-1.232,2.638,2.638,0,0,1,2.354,1.279,6.318,6.318,0,0,1,.824,3.454,6.11,6.11,0,0,1-.85,3.49,2.681,2.681,0,0,1-2.328,1.236,2.643,2.643,0,0,1-2.363-1.286A6.327,6.327,0,0,1,201.3,94.653Zm1.345,0a6.123,6.123,0,0,0,.474,2.811,1.522,1.522,0,0,0,2.73,0,6.112,6.112,0,0,0,.474-2.808,6.039,6.039,0,0,0-.481-2.828,1.5,1.5,0,0,0-1.359-.837,1.453,1.453,0,0,0-1.413.952A6.853,6.853,0,0,0,202.65,94.653Z" fill="#fff"/>
        <path id="Trazado_604767" data-name="Trazado 604767" d="M218.094,98.12V91.179h-1.253v-1.1h2.5V98.12h1.193v1.114h-3.7V98.12Z" fill="#fff"/>
        <path id="Trazado_604768" data-name="Trazado 604768" d="M229.438,94.653a6.116,6.116,0,0,1,.853-3.5,2.69,2.69,0,0,1,2.33-1.232,2.641,2.641,0,0,1,2.355,1.279,6.336,6.336,0,0,1,.823,3.454,6.094,6.094,0,0,1-.852,3.49,2.675,2.675,0,0,1-2.326,1.236,2.639,2.639,0,0,1-2.363-1.286A6.327,6.327,0,0,1,229.438,94.653Zm1.344,0a6.092,6.092,0,0,0,.476,2.811,1.52,1.52,0,0,0,2.727,0,8.529,8.529,0,0,0-.006-5.636,1.5,1.5,0,0,0-1.358-.837,1.453,1.453,0,0,0-1.414.952A6.872,6.872,0,0,0,230.782,94.653Z" fill="#fff"/>
        <path id="Trazado_604769" data-name="Trazado 604769" d="M246.227,98.12V91.179h-1.252v-1.1h2.5V98.12h1.193v1.114h-3.7V98.12Z" fill="#fff"/>
        <path id="Trazado_604770" data-name="Trazado 604770" d="M257.57,94.653a6.1,6.1,0,0,1,.854-3.5,2.688,2.688,0,0,1,2.33-1.232,2.639,2.639,0,0,1,2.353,1.279,6.318,6.318,0,0,1,.824,3.454,6.118,6.118,0,0,1-.851,3.49,2.677,2.677,0,0,1-2.326,1.236,2.638,2.638,0,0,1-2.363-1.286A6.327,6.327,0,0,1,257.57,94.653Zm1.344,0a6.107,6.107,0,0,0,.475,2.811,1.521,1.521,0,0,0,2.728,0,8.512,8.512,0,0,0-.006-5.636,1.5,1.5,0,0,0-1.357-.837,1.452,1.452,0,0,0-1.414.952A6.869,6.869,0,0,0,258.914,94.653Z" fill="#fff"/>
        <path id="Trazado_604771" data-name="Trazado 604771" d="M274.359,98.12V91.179h-1.253v-1.1h2.505V98.12H276.8v1.114h-3.7V98.12Z" fill="#fff"/>
      </g>
      <g id="Grupo_889871" data-name="Grupo 889871">
        <path id="Trazado_604772" data-name="Trazado 604772" d="M150.691,108.961a6.1,6.1,0,0,1,.855-3.5,2.686,2.686,0,0,1,2.329-1.232,2.64,2.64,0,0,1,2.354,1.278,6.327,6.327,0,0,1,.824,3.454,6.108,6.108,0,0,1-.851,3.49,2.679,2.679,0,0,1-2.327,1.236,2.64,2.64,0,0,1-2.363-1.285A6.331,6.331,0,0,1,150.691,108.961Zm1.346,0a6.128,6.128,0,0,0,.473,2.812,1.523,1.523,0,0,0,2.73,0,8.537,8.537,0,0,0-.007-5.636,1.5,1.5,0,0,0-1.358-.837,1.452,1.452,0,0,0-1.413.953A6.851,6.851,0,0,0,152.037,108.961Z" fill="#fff"/>
        <path id="Trazado_604773" data-name="Trazado 604773" d="M167.48,112.428v-6.941h-1.253v-1.1h2.5v8.041h1.194v1.114h-3.7v-1.114Z" fill="#fff"/>
        <path id="Trazado_604774" data-name="Trazado 604774" d="M178.824,108.961a6.1,6.1,0,0,1,.854-3.5,2.687,2.687,0,0,1,2.33-1.232,2.638,2.638,0,0,1,2.353,1.278,6.318,6.318,0,0,1,.824,3.454,6.108,6.108,0,0,1-.851,3.49,2.675,2.675,0,0,1-2.326,1.236,2.639,2.639,0,0,1-2.364-1.285A6.34,6.34,0,0,1,178.824,108.961Zm1.345,0a6.11,6.11,0,0,0,.475,2.812,1.522,1.522,0,0,0,2.729,0,6.11,6.11,0,0,0,.475-2.808,6.009,6.009,0,0,0-.483-2.828,1.5,1.5,0,0,0-1.357-.837,1.454,1.454,0,0,0-1.414.953A6.851,6.851,0,0,0,180.169,108.961Z" fill="#fff"/>
        <path id="Trazado_604775" data-name="Trazado 604775" d="M195.613,112.428v-6.941h-1.252v-1.1h2.5v8.041h1.194v1.114h-3.7v-1.114Z" fill="#fff"/>
        <path id="Trazado_604776" data-name="Trazado 604776" d="M206.957,108.961a6.1,6.1,0,0,1,.853-3.5,2.689,2.689,0,0,1,2.332-1.232,2.639,2.639,0,0,1,2.352,1.278,6.318,6.318,0,0,1,.823,3.454,6.124,6.124,0,0,1-.849,3.49,2.68,2.68,0,0,1-2.326,1.236,2.637,2.637,0,0,1-2.364-1.285A6.322,6.322,0,0,1,206.957,108.961Zm1.346,0a6.085,6.085,0,0,0,.474,2.812,1.522,1.522,0,0,0,2.729,0,6.126,6.126,0,0,0,.474-2.808,6.052,6.052,0,0,0-.481-2.828,1.5,1.5,0,0,0-1.357-.837,1.453,1.453,0,0,0-1.415.953A6.854,6.854,0,0,0,208.3,108.961Z" fill="#fff"/>
        <path id="Trazado_604777" data-name="Trazado 604777" d="M223.746,112.428v-6.941h-1.253v-1.1H225v8.041h1.193v1.114h-3.7v-1.114Z" fill="#fff"/>
        <path id="Trazado_604778" data-name="Trazado 604778" d="M235.09,108.961a6.1,6.1,0,0,1,.853-3.5,2.689,2.689,0,0,1,2.33-1.232,2.639,2.639,0,0,1,2.354,1.278,6.318,6.318,0,0,1,.824,3.454,6.124,6.124,0,0,1-.849,3.49,2.683,2.683,0,0,1-2.329,1.236,2.64,2.64,0,0,1-2.363-1.285A6.331,6.331,0,0,1,235.09,108.961Zm1.345,0a6.112,6.112,0,0,0,.474,2.812,1.523,1.523,0,0,0,2.73,0,6.142,6.142,0,0,0,.473-2.808,6.067,6.067,0,0,0-.48-2.828,1.5,1.5,0,0,0-1.359-.837,1.453,1.453,0,0,0-1.414.953A6.89,6.89,0,0,0,236.435,108.961Z" fill="#fff"/>
        <path id="Trazado_604779" data-name="Trazado 604779" d="M251.877,112.428v-6.941h-1.252v-1.1h2.505v8.041h1.193v1.114h-3.7v-1.114Z" fill="#fff"/>
        <path id="Trazado_604780" data-name="Trazado 604780" d="M263.222,108.961a6.1,6.1,0,0,1,.854-3.5,2.687,2.687,0,0,1,2.33-1.232,2.639,2.639,0,0,1,2.353,1.278,6.31,6.31,0,0,1,.823,3.454,6.116,6.116,0,0,1-.849,3.49,2.679,2.679,0,0,1-2.327,1.236,2.638,2.638,0,0,1-2.363-1.285A6.313,6.313,0,0,1,263.222,108.961Zm1.345,0a6.112,6.112,0,0,0,.474,2.812,1.522,1.522,0,0,0,2.729,0,8.563,8.563,0,0,0-.006-5.636,1.5,1.5,0,0,0-1.358-.837,1.452,1.452,0,0,0-1.414.953A6.87,6.87,0,0,0,264.567,108.961Z" fill="#fff"/>
        <path id="Trazado_604781" data-name="Trazado 604781" d="M280.011,112.428v-6.941h-1.253v-1.1h2.506v8.041h1.193v1.114h-3.7v-1.114Z" fill="#fff"/>
      </g>
      <g id="Grupo_889872" data-name="Grupo 889872">
        <path id="Trazado_604782" data-name="Trazado 604782" d="M141.634,123.767a6.114,6.114,0,0,1,.852-3.5,2.692,2.692,0,0,1,2.332-1.232,2.637,2.637,0,0,1,2.352,1.279,6.307,6.307,0,0,1,.824,3.454,6.11,6.11,0,0,1-.85,3.489,2.676,2.676,0,0,1-2.326,1.237,2.637,2.637,0,0,1-2.363-1.285A6.313,6.313,0,0,1,141.634,123.767Zm1.345,0a6.1,6.1,0,0,0,.474,2.811,1.521,1.521,0,0,0,2.729,0,6.115,6.115,0,0,0,.474-2.808,6.054,6.054,0,0,0-.48-2.828,1.5,1.5,0,0,0-1.358-.837,1.454,1.454,0,0,0-1.416.952A6.9,6.9,0,0,0,142.979,123.767Z" fill="#fff"/>
        <path id="Trazado_604783" data-name="Trazado 604783" d="M158.422,127.234v-6.941H157.17v-1.1h2.5v8.042h1.193v1.114h-3.7v-1.114Z" fill="#fff"/>
        <path id="Trazado_604784" data-name="Trazado 604784" d="M169.766,123.767a6.114,6.114,0,0,1,.853-3.5,2.692,2.692,0,0,1,2.331-1.232,2.636,2.636,0,0,1,2.353,1.279,6.316,6.316,0,0,1,.824,3.454,6.1,6.1,0,0,1-.85,3.489,2.677,2.677,0,0,1-2.327,1.237,2.64,2.64,0,0,1-2.363-1.285A6.322,6.322,0,0,1,169.766,123.767Zm1.345,0a6.094,6.094,0,0,0,.475,2.811,1.521,1.521,0,0,0,2.728,0,8.554,8.554,0,0,0,0-5.636,1.5,1.5,0,0,0-1.359-.837,1.454,1.454,0,0,0-1.415.952A6.911,6.911,0,0,0,171.111,123.767Z" fill="#fff"/>
        <path id="Trazado_604785" data-name="Trazado 604785" d="M186.554,127.234v-6.941H185.3v-1.1h2.506v8.042H189v1.114h-3.7v-1.114Z" fill="#fff"/>
        <path id="Trazado_604786" data-name="Trazado 604786" d="M197.9,123.767a6.105,6.105,0,0,1,.855-3.5,2.689,2.689,0,0,1,2.329-1.232,2.635,2.635,0,0,1,2.353,1.279,6.316,6.316,0,0,1,.825,3.454,6.1,6.1,0,0,1-.85,3.489,2.681,2.681,0,0,1-2.328,1.237,2.644,2.644,0,0,1-2.363-1.285A6.331,6.331,0,0,1,197.9,123.767Zm1.346,0a6.11,6.11,0,0,0,.474,2.811,1.521,1.521,0,0,0,2.729,0,6.1,6.1,0,0,0,.475-2.808,6.024,6.024,0,0,0-.482-2.828,1.5,1.5,0,0,0-1.358-.837,1.453,1.453,0,0,0-1.413.952A6.853,6.853,0,0,0,199.244,123.767Z" fill="#fff"/>
        <path id="Trazado_604787" data-name="Trazado 604787" d="M214.688,127.234v-6.941h-1.253v-1.1h2.5v8.042h1.194v1.114h-3.7v-1.114Z" fill="#fff"/>
        <path id="Trazado_604788" data-name="Trazado 604788" d="M226.031,123.767a6.106,6.106,0,0,1,.854-3.5,2.689,2.689,0,0,1,2.33-1.232,2.64,2.64,0,0,1,2.354,1.279,6.325,6.325,0,0,1,.824,3.454,6.094,6.094,0,0,1-.852,3.489,2.674,2.674,0,0,1-2.326,1.237,2.638,2.638,0,0,1-2.363-1.285A6.33,6.33,0,0,1,226.031,123.767Zm1.345,0a6.092,6.092,0,0,0,.476,2.811,1.52,1.52,0,0,0,2.727,0,6.1,6.1,0,0,0,.476-2.808,6.022,6.022,0,0,0-.483-2.828,1.493,1.493,0,0,0-1.357-.837,1.453,1.453,0,0,0-1.414.952A6.872,6.872,0,0,0,227.376,123.767Z" fill="#fff"/>
        <path id="Trazado_604789" data-name="Trazado 604789" d="M242.82,127.234v-6.941h-1.252v-1.1h2.5v8.042h1.194v1.114h-3.7v-1.114Z" fill="#fff"/>
        <path id="Trazado_604790" data-name="Trazado 604790" d="M254.164,123.767a6.1,6.1,0,0,1,.854-3.5,2.688,2.688,0,0,1,2.33-1.232,2.64,2.64,0,0,1,2.353,1.279,6.316,6.316,0,0,1,.823,3.454,6.11,6.11,0,0,1-.85,3.489,2.676,2.676,0,0,1-2.326,1.237,2.64,2.64,0,0,1-2.364-1.285A6.34,6.34,0,0,1,254.164,123.767Zm1.344,0a6.123,6.123,0,0,0,.474,2.811,1.521,1.521,0,0,0,2.729,0,8.512,8.512,0,0,0-.006-5.636,1.493,1.493,0,0,0-1.357-.837,1.452,1.452,0,0,0-1.414.952A6.851,6.851,0,0,0,255.508,123.767Z" fill="#fff"/>
        <path id="Trazado_604791" data-name="Trazado 604791" d="M270.953,127.234v-6.941H269.7v-1.1h2.5v8.042H273.4v1.114h-3.7v-1.114Z" fill="#fff"/>
      </g>
      <g id="Grupo_889873" data-name="Grupo 889873">
        <path id="Trazado_604792" data-name="Trazado 604792" d="M147.285,138.073a6.1,6.1,0,0,1,.855-3.5,2.687,2.687,0,0,1,2.329-1.232,2.64,2.64,0,0,1,2.353,1.279,6.318,6.318,0,0,1,.824,3.454,6.108,6.108,0,0,1-.85,3.49,2.679,2.679,0,0,1-2.327,1.236,2.641,2.641,0,0,1-2.364-1.285A6.34,6.34,0,0,1,147.285,138.073Zm1.346,0a6.126,6.126,0,0,0,.473,2.811,1.522,1.522,0,0,0,2.73,0,6.11,6.11,0,0,0,.475-2.808,6.037,6.037,0,0,0-.482-2.828,1.5,1.5,0,0,0-1.358-.837,1.452,1.452,0,0,0-1.413.953A6.827,6.827,0,0,0,148.631,138.073Z" fill="#fff"/>
        <path id="Trazado_604793" data-name="Trazado 604793" d="M164.074,141.54V134.6h-1.253v-1.1h2.505v8.042h1.193v1.114h-3.7V141.54Z" fill="#fff"/>
        <path id="Trazado_604794" data-name="Trazado 604794" d="M175.418,138.073a6.116,6.116,0,0,1,.853-3.5,2.692,2.692,0,0,1,2.331-1.232,2.64,2.64,0,0,1,2.353,1.279,6.318,6.318,0,0,1,.824,3.454,6.108,6.108,0,0,1-.851,3.49A2.677,2.677,0,0,1,178.6,142.8a2.638,2.638,0,0,1-2.364-1.285A6.331,6.331,0,0,1,175.418,138.073Zm1.345,0a6.123,6.123,0,0,0,.474,2.811,1.521,1.521,0,0,0,2.729,0,6.1,6.1,0,0,0,.475-2.808,6.024,6.024,0,0,0-.482-2.828,1.494,1.494,0,0,0-1.357-.837,1.453,1.453,0,0,0-1.414.953A6.845,6.845,0,0,0,176.763,138.073Z" fill="#fff"/>
        <path id="Trazado_604795" data-name="Trazado 604795" d="M192.207,141.54V134.6h-1.252v-1.1h2.5v8.042h1.193v1.114h-3.7V141.54Z" fill="#fff"/>
        <path id="Trazado_604796" data-name="Trazado 604796" d="M203.551,138.073a6.108,6.108,0,0,1,.853-3.5,2.69,2.69,0,0,1,2.331-1.232,2.641,2.641,0,0,1,2.353,1.279,6.318,6.318,0,0,1,.823,3.454,6.116,6.116,0,0,1-.85,3.49,2.678,2.678,0,0,1-2.326,1.236,2.633,2.633,0,0,1-2.362-1.285A6.313,6.313,0,0,1,203.551,138.073Zm1.345,0a6.081,6.081,0,0,0,.475,2.811,1.521,1.521,0,0,0,2.729,0,6.126,6.126,0,0,0,.474-2.808,6.052,6.052,0,0,0-.481-2.828,1.5,1.5,0,0,0-1.358-.837,1.455,1.455,0,0,0-1.415.953A6.865,6.865,0,0,0,204.9,138.073Z" fill="#fff"/>
        <path id="Trazado_604797" data-name="Trazado 604797" d="M220.34,141.54V134.6h-1.253v-1.1h2.5v8.042h1.193v1.114h-3.7V141.54Z" fill="#fff"/>
        <path id="Trazado_604798" data-name="Trazado 604798" d="M231.684,138.073a6.108,6.108,0,0,1,.853-3.5,2.69,2.69,0,0,1,2.33-1.232,2.64,2.64,0,0,1,2.354,1.279,6.327,6.327,0,0,1,.824,3.454,6.116,6.116,0,0,1-.85,3.49,2.68,2.68,0,0,1-2.328,1.236,2.64,2.64,0,0,1-2.363-1.285A6.331,6.331,0,0,1,231.684,138.073Zm1.345,0a6.1,6.1,0,0,0,.474,2.811,1.521,1.521,0,0,0,2.729,0,8.563,8.563,0,0,0-.006-5.636,1.5,1.5,0,0,0-1.359-.837,1.452,1.452,0,0,0-1.414.953A6.884,6.884,0,0,0,233.029,138.073Z" fill="#fff"/>
        <path id="Trazado_604799" data-name="Trazado 604799" d="M248.471,141.54V134.6h-1.252v-1.1h2.505v8.042h1.193v1.114h-3.7V141.54Z" fill="#fff"/>
        <path id="Trazado_604800" data-name="Trazado 604800" d="M259.815,138.073a6.1,6.1,0,0,1,.855-3.5A2.689,2.689,0,0,1,263,133.34a2.641,2.641,0,0,1,2.353,1.279,6.318,6.318,0,0,1,.823,3.454,6.116,6.116,0,0,1-.849,3.49A2.681,2.681,0,0,1,263,142.8a2.638,2.638,0,0,1-2.363-1.285A6.313,6.313,0,0,1,259.815,138.073Zm1.346,0a6.1,6.1,0,0,0,.474,2.811,1.521,1.521,0,0,0,2.729,0,6.113,6.113,0,0,0,.474-2.808,6.039,6.039,0,0,0-.481-2.828,1.493,1.493,0,0,0-1.357-.837,1.452,1.452,0,0,0-1.414.953A6.863,6.863,0,0,0,261.161,138.073Z" fill="#fff"/>
        <path id="Trazado_604801" data-name="Trazado 604801" d="M276.6,141.54V134.6h-1.252v-1.1h2.505v8.042h1.194v1.114h-3.7V141.54Z" fill="#fff"/>
      </g>
      <g id="Grupo_889874" data-name="Grupo 889874">
        <path id="Trazado_604802" data-name="Trazado 604802" d="M138.226,152.877a6.113,6.113,0,0,1,.854-3.5,2.69,2.69,0,0,1,2.33-1.232,2.639,2.639,0,0,1,2.354,1.278,6.32,6.32,0,0,1,.824,3.455,6.1,6.1,0,0,1-.852,3.489,2.677,2.677,0,0,1-2.326,1.236,2.637,2.637,0,0,1-2.363-1.285A6.327,6.327,0,0,1,138.226,152.877Zm1.344,0a6.108,6.108,0,0,0,.475,2.811,1.521,1.521,0,0,0,2.728,0,8.54,8.54,0,0,0,0-5.637,1.5,1.5,0,0,0-1.358-.837,1.452,1.452,0,0,0-1.414.953A6.869,6.869,0,0,0,139.57,152.877Z" fill="#fff"/>
        <path id="Trazado_604803" data-name="Trazado 604803" d="M155.014,156.343V149.4h-1.252v-1.1h2.506v8.041h1.192v1.115h-3.7v-1.115Z" fill="#fff"/>
        <path id="Trazado_604804" data-name="Trazado 604804" d="M166.359,152.877a6.1,6.1,0,0,1,.854-3.5,2.689,2.689,0,0,1,2.33-1.232,2.641,2.641,0,0,1,2.353,1.278,6.328,6.328,0,0,1,.823,3.455,6.115,6.115,0,0,1-.85,3.489,2.678,2.678,0,0,1-2.326,1.236,2.637,2.637,0,0,1-2.363-1.285A6.327,6.327,0,0,1,166.359,152.877Zm1.344,0a6.094,6.094,0,0,0,.475,2.811,1.521,1.521,0,0,0,2.728,0,8.515,8.515,0,0,0-.006-5.637,1.5,1.5,0,0,0-1.357-.837,1.453,1.453,0,0,0-1.414.953A6.851,6.851,0,0,0,167.7,152.877Z" fill="#fff"/>
        <path id="Trazado_604805" data-name="Trazado 604805" d="M183.148,156.343V149.4h-1.254v-1.1H184.4v8.041h1.194v1.115h-3.7v-1.115Z" fill="#fff"/>
        <path id="Trazado_604806" data-name="Trazado 604806" d="M194.492,152.877a6.1,6.1,0,0,1,.853-3.5,2.688,2.688,0,0,1,2.331-1.232,2.64,2.64,0,0,1,2.353,1.278,6.32,6.32,0,0,1,.823,3.455,6.115,6.115,0,0,1-.85,3.489,2.678,2.678,0,0,1-2.326,1.236,2.634,2.634,0,0,1-2.363-1.285A6.318,6.318,0,0,1,194.492,152.877Zm1.344,0a6.094,6.094,0,0,0,.475,2.811,1.521,1.521,0,0,0,2.728,0,6.113,6.113,0,0,0,.476-2.808,6.041,6.041,0,0,0-.482-2.829,1.5,1.5,0,0,0-1.357-.837,1.454,1.454,0,0,0-1.415.953A6.89,6.89,0,0,0,195.836,152.877Z" fill="#fff"/>
        <path id="Trazado_604807" data-name="Trazado 604807" d="M211.279,156.343V149.4h-1.252v-1.1h2.505v8.041h1.194v1.115h-3.7v-1.115Z" fill="#fff"/>
        <path id="Trazado_604808" data-name="Trazado 604808" d="M222.624,152.877a6.09,6.09,0,0,1,.855-3.5,2.686,2.686,0,0,1,2.33-1.232,2.635,2.635,0,0,1,2.351,1.278,6.3,6.3,0,0,1,.824,3.455,6.115,6.115,0,0,1-.849,3.489,2.679,2.679,0,0,1-2.326,1.236,2.638,2.638,0,0,1-2.364-1.285A6.309,6.309,0,0,1,222.624,152.877Zm1.346,0a6.112,6.112,0,0,0,.473,2.811,1.523,1.523,0,0,0,2.73,0,6.134,6.134,0,0,0,.473-2.808,6.059,6.059,0,0,0-.48-2.829,1.5,1.5,0,0,0-1.357-.837,1.454,1.454,0,0,0-1.415.953A6.874,6.874,0,0,0,223.97,152.877Z" fill="#fff"/>
        <path id="Trazado_604809" data-name="Trazado 604809" d="M239.412,156.343V149.4H238.16v-1.1h2.5v8.041h1.193v1.115h-3.7v-1.115Z" fill="#fff"/>
        <path id="Trazado_604810" data-name="Trazado 604810" d="M250.756,152.877a6.114,6.114,0,0,1,.853-3.5,2.693,2.693,0,0,1,2.331-1.232,2.638,2.638,0,0,1,2.353,1.278,6.3,6.3,0,0,1,.824,3.455,6.115,6.115,0,0,1-.849,3.489,2.681,2.681,0,0,1-2.328,1.236,2.638,2.638,0,0,1-2.363-1.285A6.318,6.318,0,0,1,250.756,152.877Zm1.346,0a6.11,6.11,0,0,0,.474,2.811,1.522,1.522,0,0,0,2.729,0,8.565,8.565,0,0,0-.006-5.637,1.5,1.5,0,0,0-1.359-.837,1.455,1.455,0,0,0-1.415.953A6.913,6.913,0,0,0,252.1,152.877Z" fill="#fff"/>
        <path id="Trazado_604811" data-name="Trazado 604811" d="M267.545,156.343V149.4h-1.252v-1.1H268.8v8.041h1.193v1.115h-3.7v-1.115Z" fill="#fff"/>
      </g>
      <g id="Grupo_889875" data-name="Grupo 889875">
        <path id="Trazado_604812" data-name="Trazado 604812" d="M143.879,167.185a6.109,6.109,0,0,1,.851-3.5,2.693,2.693,0,0,1,2.333-1.233,2.638,2.638,0,0,1,2.352,1.279,6.307,6.307,0,0,1,.823,3.454,6.111,6.111,0,0,1-.849,3.489,2.679,2.679,0,0,1-2.326,1.237,2.639,2.639,0,0,1-2.364-1.285A6.322,6.322,0,0,1,143.879,167.185Zm1.344,0A6.11,6.11,0,0,0,145.7,170a1.521,1.521,0,0,0,2.729,0,8.566,8.566,0,0,0-.006-5.637,1.5,1.5,0,0,0-1.357-.836,1.456,1.456,0,0,0-1.417.953A6.9,6.9,0,0,0,145.223,167.185Z" fill="#fff"/>
        <path id="Trazado_604813" data-name="Trazado 604813" d="M160.666,170.652v-6.941h-1.252v-1.1h2.505v8.042h1.193v1.114h-3.7v-1.114Z" fill="#fff"/>
        <path id="Trazado_604814" data-name="Trazado 604814" d="M172.011,167.185a6.1,6.1,0,0,1,.853-3.5,2.69,2.69,0,0,1,2.331-1.233,2.635,2.635,0,0,1,2.352,1.279,6.3,6.3,0,0,1,.824,3.454,6.1,6.1,0,0,1-.85,3.489,2.677,2.677,0,0,1-2.326,1.237,2.639,2.639,0,0,1-2.363-1.285A6.313,6.313,0,0,1,172.011,167.185Zm1.345,0A6.11,6.11,0,0,0,173.83,170a1.522,1.522,0,0,0,2.73,0,6.128,6.128,0,0,0,.473-2.808,6.059,6.059,0,0,0-.48-2.829,1.5,1.5,0,0,0-1.358-.836,1.453,1.453,0,0,0-1.415.953A6.884,6.884,0,0,0,173.356,167.185Z" fill="#fff"/>
        <path id="Trazado_604815" data-name="Trazado 604815" d="M188.8,170.652v-6.941h-1.253v-1.1h2.5v8.042h1.193v1.114h-3.7v-1.114Z" fill="#fff"/>
        <path id="Trazado_604816" data-name="Trazado 604816" d="M200.143,167.185a6.1,6.1,0,0,1,.855-3.5,2.687,2.687,0,0,1,2.329-1.233,2.638,2.638,0,0,1,2.354,1.279,6.324,6.324,0,0,1,.824,3.454,6.1,6.1,0,0,1-.851,3.489,2.677,2.677,0,0,1-2.327,1.237,2.642,2.642,0,0,1-2.363-1.285A6.331,6.331,0,0,1,200.143,167.185Zm1.345,0a6.094,6.094,0,0,0,.475,2.811,1.521,1.521,0,0,0,2.728,0,8.549,8.549,0,0,0-.006-5.637,1.5,1.5,0,0,0-1.358-.836,1.451,1.451,0,0,0-1.413.953A6.86,6.86,0,0,0,201.488,167.185Z" fill="#fff"/>
        <path id="Trazado_604817" data-name="Trazado 604817" d="M216.932,170.652v-6.941H215.68v-1.1h2.505v8.042h1.192v1.114h-3.7v-1.114Z" fill="#fff"/>
        <path id="Trazado_604818" data-name="Trazado 604818" d="M228.276,167.185a6.092,6.092,0,0,1,.854-3.5,2.689,2.689,0,0,1,2.331-1.233,2.64,2.64,0,0,1,2.353,1.279,6.334,6.334,0,0,1,.823,3.454,6.1,6.1,0,0,1-.85,3.489,2.68,2.68,0,0,1-2.326,1.237,2.638,2.638,0,0,1-2.363-1.285A6.33,6.33,0,0,1,228.276,167.185Zm1.345,0A6.094,6.094,0,0,0,230.1,170a1.521,1.521,0,0,0,2.728,0,6.094,6.094,0,0,0,.476-2.808,6.026,6.026,0,0,0-.483-2.829,1.494,1.494,0,0,0-1.356-.836,1.453,1.453,0,0,0-1.415.953A6.844,6.844,0,0,0,229.621,167.185Z" fill="#fff"/>
        <path id="Trazado_604819" data-name="Trazado 604819" d="M245.064,170.652v-6.941h-1.251v-1.1h2.5v8.042h1.194v1.114h-3.7v-1.114Z" fill="#fff"/>
        <path id="Trazado_604820" data-name="Trazado 604820" d="M256.408,167.185a6.1,6.1,0,0,1,.854-3.5,2.687,2.687,0,0,1,2.33-1.233,2.64,2.64,0,0,1,2.354,1.279,6.325,6.325,0,0,1,.823,3.454,6.094,6.094,0,0,1-.851,3.489,2.676,2.676,0,0,1-2.326,1.237,2.639,2.639,0,0,1-2.363-1.285A6.331,6.331,0,0,1,256.408,167.185Zm1.345,0a6.092,6.092,0,0,0,.476,2.811,1.52,1.52,0,0,0,2.727,0,6.094,6.094,0,0,0,.476-2.808,6.026,6.026,0,0,0-.483-2.829,1.494,1.494,0,0,0-1.357-.836,1.453,1.453,0,0,0-1.414.953A6.845,6.845,0,0,0,257.753,167.185Z" fill="#fff"/>
        <path id="Trazado_604821" data-name="Trazado 604821" d="M273.2,170.652v-6.941h-1.252v-1.1h2.5v8.042h1.194v1.114h-3.7v-1.114Z" fill="#fff"/>
      </g>
    </g>
  </g>
</svg>
