<svg xmlns="http://www.w3.org/2000/svg" xmlns:xlink="http://www.w3.org/1999/xlink" width="418" height="281" viewBox="0 0 418 281">
  <defs>
    <filter id="Rectángulo_301669" x="0" y="0" width="418" height="281" filterUnits="userSpaceOnUse">
      <feOffset dy="3" input="SourceAlpha"/>
      <feGaussianBlur stdDeviation="3" result="blur"/>
      <feFlood flood-opacity="0.161"/>
      <feComposite operator="in" in2="blur"/>
      <feComposite in="SourceGraphic"/>
    </filter>
    <linearGradient id="linear-gradient" x1="-1.876" y1="1.6" x2="-1.875" y2="1.6" gradientUnits="objectBoundingBox">
      <stop offset="0" stop-color="#ffd95b"/>
      <stop offset="1" stop-color="#ffa742"/>
    </linearGradient>
    <linearGradient id="linear-gradient-2" x1="-4.641" y1="1.887" x2="-4.638" y2="1.887" gradientUnits="objectBoundingBox">
      <stop offset="0" stop-color="#be8714"/>
      <stop offset="1" stop-color="#ff961e"/>
    </linearGradient>
    <linearGradient id="linear-gradient-3" x1="-1.219" y1="1.755" x2="-1.218" y2="1.755" gradientUnits="objectBoundingBox">
      <stop offset="0" stop-color="#1a2494"/>
      <stop offset="1" stop-color="#151969"/>
    </linearGradient>
    <linearGradient id="linear-gradient-4" x1="-4.788" y1="8.471" x2="-4.785" y2="8.471" gradientUnits="objectBoundingBox">
      <stop offset="0" stop-color="#fb8c00"/>
      <stop offset="1" stop-color="#fb8c00"/>
    </linearGradient>
    <linearGradient id="linear-gradient-5" x1="-6.337" y1="9.557" x2="-6.335" y2="9.557" gradientUnits="objectBoundingBox">
      <stop offset="0" stop-color="#73b8f5"/>
      <stop offset="1" stop-color="#4d5eef"/>
    </linearGradient>
    <linearGradient id="linear-gradient-6" x1="-5.319" y1="1.87" x2="-5.317" y2="1.87" gradientUnits="objectBoundingBox">
      <stop offset="0" stop-color="#242c94"/>
      <stop offset="1" stop-color="#181568"/>
    </linearGradient>
    <linearGradient id="linear-gradient-7" x1="-5.921" y1="5.694" x2="-5.919" y2="5.694" gradientUnits="objectBoundingBox">
      <stop offset="0" stop-color="#26aab7"/>
      <stop offset="1" stop-color="#26aab7"/>
    </linearGradient>
  </defs>
  <g id="Grupo_889912" data-name="Grupo 889912" transform="translate(-276 -11139)">
    <g transform="matrix(1, 0, 0, 1, 276, 11139)" filter="url(#Rectángulo_301669)">
      <rect id="Rectángulo_301669-2" data-name="Rectángulo 301669" width="400" height="263" rx="15" transform="translate(9 6)" fill="#fff"/>
    </g>
    <rect id="Rectángulo_301671" data-name="Rectángulo 301671" width="371" height="241" rx="15" transform="translate(300 11156)" fill="#eaeff4"/>
    <g id="Front" transform="translate(-288.925 10709.022)">
      <g id="Grupo_889908" data-name="Grupo 889908" transform="translate(736.02 539.231)">
        <path id="Trazado_605708" data-name="Trazado 605708" d="M1759.739,2273.73l-7.749,31.124h20.431l1.616-29.268-14.3-1.856Z" transform="translate(-1751.99 -2155.108)" fill="#ffc4cd" fill-rule="evenodd"/>
        <path id="Trazado_605709" data-name="Trazado 605709" d="M2124.37,1692.881l.117,17.061c8.491,4.777,16.981,2.854,25.472,0v-24.2l-25.589,7.141Z" transform="translate(-2084.799 -1629.601)" fill="#ffc4cd" fill-rule="evenodd"/>
        <path id="Trazado_605710" data-name="Trazado 605710" d="M2149.963,1693.186v-7.45l-25.589,7.141.083,12.077c4.665-.384,19.083-2.322,25.506-11.768Z" transform="translate(-2084.803 -1629.597)" fill="#d8738a" fill-rule="evenodd"/>
        <path id="Trazado_605711" data-name="Trazado 605711" d="M1823.9,1843.382s3.177,7.786,7.127,7.951,18.462-9.091,18.462-9.091,23.8,2.39,29.424,10.477,11.816,32.777,10.24,40.761a96.28,96.28,0,0,1-25.627,0v25.738h-58.767v-24.4s-14.6-.225-16.425-4.605c-1.645-3.947,9.785-35.517,14.714-38.875,7.017-4.78,20.851-7.951,20.851-7.951Z" transform="translate(-1784.326 -1769.472)" fill-rule="evenodd" fill="url(#linear-gradient)"/>
        <path id="Trazado_605712" data-name="Trazado 605712" d="M2097.465,1823.42a28.916,28.916,0,0,0,4.11,7.516,7.36,7.36,0,0,0,4.359,2.81c1.854.258,4.74-.676,7.824-2.276a107.461,107.461,0,0,0,14.064-9.381,1.594,1.594,0,1,0-1.982-2.5,103.089,103.089,0,0,1-13.551,9.048c-2.357,1.223-4.5,2.145-5.917,1.948a3,3,0,0,1-1.491-.806,10.447,10.447,0,0,1-1.706-2.019,27.6,27.6,0,0,1-2.706-5.409,1.594,1.594,0,0,0-3,1.066Z" transform="translate(-2060.671 -1748.92)" fill="#fff" fill-rule="evenodd"/>
        <path id="Trazado_605713" data-name="Trazado 605713" d="M2109.831,2103.445c-.55-.064-1.02,25.532-1.02,25.532h-41.566l-4.622-18.876c13.928-8.763,42.8-6.849,42.8-6.849v-26.311l4.409,26.5Z" transform="translate(-2029.614 -1979.232)" fill-rule="evenodd" fill="url(#linear-gradient-2)"/>
        <path id="Trazado_605714" data-name="Trazado 605714" d="M2099.454,2324.54v1.429s-41.325-1.93-46.351,8.414c-1.532,3.154-1.58,6.688,2.277,8.07,2.75.985,7.868-.522,9.967-1.206,0,0-2.946,3.326,0,4.277,4.81,1.551,5.431.278,10.862,0,2.747-.141,36.24,2.663,41.556,0,8.664-4.34,6.662-20.775,6.662-20.775C2113.9,2325.475,2106.772,2325.547,2099.454,2324.54Z" transform="translate(-2020.237 -2200.519)" fill="#ffc4cd" fill-rule="evenodd"/>
        <path id="Trazado_605715" data-name="Trazado 605715" d="M2497.46,2325c3.841,1.4,15.916,5.466,25.163,4.722a38.311,38.311,0,0,0-.189-4.979c-10.531.727-17.656.8-24.974-.207V2325Z" transform="translate(-2418.243 -2200.518)" fill="#ee9caf" fill-rule="evenodd"/>
        <g id="Grupo_889907" data-name="Grupo 889907" transform="translate(12.741 0)">
          <path id="Trazado_605716" data-name="Trazado 605716" d="M1893.108,1419.35s-2.237,3.361.576,8.57c2.511,4.65.074,6.891,4.964,9.444l2.153-18.014Z" transform="translate(-1890.1 -1391.519)" fill="#592e13" fill-rule="evenodd"/>
          <path id="Trazado_605717" data-name="Trazado 605717" d="M2370.926,1632.5s-3.079,6.55-6.591,8.953v-7.51l6.591-1.443Z" transform="translate(-2312.005 -1582.018)" fill="#7b4217" fill-rule="evenodd"/>
          <path id="Trazado_605718" data-name="Trazado 605718" d="M2382.361,1611.911a3,3,0,0,1,.807-2.221,1.789,1.789,0,0,1,2.164-.454.266.266,0,1,0,.227-.481,2.294,2.294,0,0,0-2.777.57,3.556,3.556,0,0,0-.949,2.637.265.265,0,1,0,.528-.051Z" transform="translate(-2327.632 -1560.578)" fill-rule="evenodd"/>
          <path id="Trazado_605719" data-name="Trazado 605719" d="M1943.849,1419.35c-4.443,8.132-5.928,33.968,6.294,39.844,9.983,4.8,25.646-.185,30.061-4.1,6.641-5.886,6.019-10.915,6.019-10.915,3.289,2.894,9.319-2.026,7.172-7.463-1.809-4.579-9.27-3.718-9.372,3l-1.636-20.369Z" transform="translate(-1933.309 -1391.519)" fill="#ffc4cd" fill-rule="evenodd"/>
          <path id="Trazado_605720" data-name="Trazado 605720" d="M1946.82,1427.921c6.344,0,6.81-.561,10.383-1.488,4.911-1.275,6.311-1.948,9-.767s7.644,1.9,14.161.767c0,0-.094,4.958,1.417,7.414s1.847,4.618,1.511,8.159c-.721,7.6,4.693,6.733.427,14.518a13.01,13.01,0,0,0,2.03-1.427c6.641-5.886,6.019-10.915,6.019-10.915,3.29,2.894,9.319-2.026,7.172-7.463-1.808-4.579-9.27-3.718-9.372,3l-1.636-20.369H1949.4c-.758,1.388-2.045,6.338-2.577,8.57Z" transform="translate(-1938.857 -1391.52)" fill="#f397ad" fill-rule="evenodd"/>
          <path id="Trazado_605721" data-name="Trazado 605721" d="M2377.61,1598.15a2.1,2.1,0,0,1,3.11-1.861.425.425,0,1,0,.406-.747,2.945,2.945,0,0,0-4.366,2.608.425.425,0,1,0,.85,0Z" transform="translate(-2323.11 -1548.645)" fill="#d35472" fill-rule="evenodd"/>
          <path id="Trazado_605722" data-name="Trazado 605722" d="M1922.695,1205.577s-.25,5.712-2.55,4.308-2.571-8.011-2.892-10.447-2.776-2.2-2.491-8.635c0,0-8.532,1.179-11.175,0s-10.333-1.741-12.575-.562-12.333,1.964-15.48,0c-4.206-2.626-5.05-9.112-1.063-12.442a12,12,0,0,0,3.8-6.582,8.126,8.126,0,0,1,8.029-6.7c3.9-.229,11.41-3.02,12.937-4.5,3.511-3.407,9.642-4.242,14.464,2.628,2.549,3.632,10.587-3.566,13.058,7.321,0,0,5.843,1.82,7.445,6.928s-1.771,9.665,0,13.91c2.316,5.55-1.888,12.948-1.888,12.948-1.06-3.192-2.749-3.93-4.516-3.937C1925.879,1199.807,1922.914,1200.963,1922.695,1205.577Z" transform="translate(-1871.886 -1157.444)" fill="#7b4217" fill-rule="evenodd"/>
          <path id="Trazado_605723" data-name="Trazado 605723" d="M1872.109,1384.85c2.891,5.685,6.6,7.776,13.394,5.452,7.185-2.456,12.386-3.193,17.892-1.167s13.591,1.167,13.591,1.167c.239,1.817.852,5.441,4.244,7.374,2.382,1.357,3.252,3.662,5.387,3.476a11.857,11.857,0,0,0,8.247-4.286c.4,4.944-2.547,10.126-2.547,10.126-1.059-3.192-2.75-3.93-4.516-3.936-1.92-.007-4.885,1.149-5.1,5.762,0,0-.25,5.712-2.55,4.309s-2.571-8.011-2.892-10.448-2.776-2.2-2.491-8.635c0,0-8.532,1.179-11.175,0s-10.333-1.741-12.575-.562-12.333,1.965-15.48,0a8.068,8.068,0,0,1-3.425-8.631Z" transform="translate(-1871.889 -1360.685)" fill="#6b3714" fill-rule="evenodd"/>
          <path id="Trazado_605724" data-name="Trazado 605724" d="M2147.578,1528.24s-2.722-4.05-10.008-1.74a.744.744,0,1,0,.449,1.418c6.042-1.916,8.342,1.177,8.342,1.177a.744.744,0,1,0,1.217-.856Z" transform="translate(-2108.873 -1486.646)" fill="#c16707" fill-rule="evenodd"/>
          <path id="Trazado_605725" data-name="Trazado 605725" d="M1975.417,1529.1s2.3-3.093,8.342-1.177a.744.744,0,1,0,.449-1.418c-7.286-2.31-10.008,1.74-10.008,1.74a.744.744,0,1,0,1.217.856Z" transform="translate(-1963.207 -1486.652)" fill="#c16707" fill-rule="evenodd"/>
          <path id="Trazado_605726" data-name="Trazado 605726" d="M1993.63,1575.8a2.423,2.423,0,0,1,1.955-1.047,2.554,2.554,0,0,1,2.725,2.129.531.531,0,0,0,1.045-.2,3.586,3.586,0,0,0-3.823-2.994,3.487,3.487,0,0,0-2.8,1.539.531.531,0,0,0,.9.57Z" transform="translate(-1979.817 -1529.457)" fill="#212167" fill-rule="evenodd"/>
          <path id="Trazado_605727" data-name="Trazado 605727" d="M2156.274,1576.285a3.487,3.487,0,0,0-2.8-1.539,3.586,3.586,0,0,0-3.823,2.995.532.532,0,0,0,1.045.2,2.554,2.554,0,0,1,2.725-2.129,2.421,2.421,0,0,1,1.955,1.047.531.531,0,0,0,.9-.57Z" transform="translate(-2120.128 -1530.397)" fill="#212167" fill-rule="evenodd"/>
          <path id="Trazado_605728" data-name="Trazado 605728" d="M2082.16,1603.1s-1.232,3.784-1.833,6.423a12.191,12.191,0,0,0-.329,2,1.638,1.638,0,0,0,.067.6,2.016,2.016,0,0,0,1.382,1.207,4.355,4.355,0,0,0,1.607.132.425.425,0,1,0-.108-.843,3.387,3.387,0,0,1-1.251-.1,1.186,1.186,0,0,1-.833-.692,1.273,1.273,0,0,1,0-.458,13.588,13.588,0,0,1,.3-1.658c.6-2.608,1.813-6.349,1.813-6.349a.425.425,0,1,0-.808-.263Z" transform="translate(-2057.881 -1555.48)" fill="#e06985" fill-rule="evenodd"/>
          <path id="Trazado_605729" data-name="Trazado 605729" d="M2132.866,1736.128a1.819,1.819,0,0,0,1.211.546,2.687,2.687,0,0,0,2.882-2.1.425.425,0,0,0-.827-.2,1.841,1.841,0,0,1-1.652,1.454,1.174,1.174,0,0,1-.975-.259.425.425,0,0,0-.639.56Z" transform="translate(-2105.039 -1672.774)" fill="#ee2424" fill-rule="evenodd"/>
        </g>
      </g>
      <g id="Grupo_889909" data-name="Grupo 889909" transform="translate(674.92 627.932)">
        <rect id="Rectángulo_301670" data-name="Rectángulo 301670" width="54.634" height="3.926" transform="translate(96.388 57.12)" fill="#15195f"/>
        <path id="Trazado_605730" data-name="Trazado 605730" d="M1269.81,1995.209a3.8,3.8,0,0,0-3.59-3.052h-86.648a2.492,2.492,0,0,0-2.514,3.052l9.687,54.941a3.8,3.8,0,0,0,3.59,3.052h86.648a2.492,2.492,0,0,0,2.514-3.052l-9.687-54.941Z" transform="translate(-1177.011 -1992.157)" fill-rule="evenodd" fill="url(#linear-gradient-3)"/>
        <path id="Trazado_605731" data-name="Trazado 605731" d="M1563.467,2195.172a8.083,8.083,0,0,0-5.156-1.99,5.547,5.547,0,0,0-5.6,6.795,8.463,8.463,0,0,0,7.993,6.795,5.545,5.545,0,0,0,5.6-6.795h-6.795l3.957-4.8Z" transform="translate(-1512.695 -2171.82)" fill="#a6a9eb" fill-rule="evenodd"/>
      </g>
      <g id="Grupo_889910" data-name="Grupo 889910" transform="translate(628.507 505.245)">
        <path id="Trazado_605732" data-name="Trazado 605732" d="M844.219,840.746a3.131,3.131,0,0,0-3.13-3.13h-97.72a3.131,3.131,0,0,0-3.13,3.13v71.987a3.131,3.131,0,0,0,3.13,3.13h97.72a3.131,3.131,0,0,0,3.13-3.13Z" transform="translate(-740.239 -837.616)" fill="#1c1971" fill-rule="evenodd"/>
        <path id="Trazado_605733" data-name="Trazado 605733" d="M889.851,1056.826a1.851,1.851,0,0,0-1.851-1.85H843.53a1.851,1.851,0,0,0-1.851,1.85v5.551a1.851,1.851,0,0,0,1.851,1.851H888a1.851,1.851,0,0,0,1.851-1.851Z" transform="translate(-830.899 -1031.878)" fill="#f5d270" fill-rule="evenodd"/>
        <path id="Trazado_605734" data-name="Trazado 605734" d="M924.094,1206.673a.888.888,0,0,0-.888-.888H842.56a.888.888,0,0,0-.888.888v2.663a.888.888,0,0,0,.888.888h80.646a.888.888,0,0,0,.888-.888Z" transform="translate(-830.893 -1166.662)" fill="#4cabff" fill-rule="evenodd"/>
        <path id="Trazado_605735" data-name="Trazado 605735" d="M887.186,1291.3a.888.888,0,0,0-.888-.888H842.562a.888.888,0,0,0-.888.888v2.663a.888.888,0,0,0,.888.888H886.3a.888.888,0,0,0,.888-.888Z" transform="translate(-830.895 -1242.298)" fill="#83e5cd" fill-rule="evenodd"/>
        <path id="Trazado_605736" data-name="Trazado 605736" d="M1329.243,1291.3a.888.888,0,0,0-.888-.888h-32.474a.888.888,0,0,0-.888.888v2.663a.888.888,0,0,0,.888.888h32.474a.888.888,0,0,0,.888-.888Z" transform="translate(-1236.042 -1242.298)" fill="#f272be" fill-rule="evenodd"/>
        <path id="Trazado_605737" data-name="Trazado 605737" d="M875.923,1375.924a.888.888,0,0,0-.888-.888H842.561a.888.888,0,0,0-.888.888v2.664a.888.888,0,0,0,.888.888h32.474a.888.888,0,0,0,.888-.888Z" transform="translate(-830.894 -1317.927)" fill="#f5d270" fill-rule="evenodd"/>
        <path id="Trazado_605738" data-name="Trazado 605738" d="M740.237,850.641h103.98v-9.9a3.131,3.131,0,0,0-3.13-3.13h-97.72a3.131,3.131,0,0,0-3.13,3.13v9.9Z" transform="translate(-740.237 -837.616)" fill="#3834a1" fill-rule="evenodd"/>
        <path id="Trazado_605739" data-name="Trazado 605739" d="M823.622,877.886a2.233,2.233,0,1,1-2.233,2.233A2.234,2.234,0,0,1,823.622,877.886Zm10.8,0a2.233,2.233,0,1,1-2.233,2.233A2.234,2.234,0,0,1,834.418,877.886Zm-21.592,0a2.233,2.233,0,1,1-2.233,2.233A2.234,2.234,0,0,1,812.826,877.886Z" transform="translate(-803.117 -873.607)" fill="#fff" fill-rule="evenodd"/>
      </g>
      <g id="Grupo_889911" data-name="Grupo 889911" transform="translate(615.222 602.439)">
        <path id="Trazado_605740" data-name="Trazado 605740" d="M671.663,1754.8a2.54,2.54,0,0,0-2.539-2.539h-51.36a2.54,2.54,0,0,0-2.539,2.539v37.237a2.54,2.54,0,0,0,2.539,2.539h51.36a2.54,2.54,0,0,0,2.539-2.539V1754.8Z" transform="translate(-615.225 -1752.258)" fill="#f2bc44" fill-rule="evenodd"/>
        <path id="Trazado_605741" data-name="Trazado 605741" d="M615.222,1761.064H671.66V1754.8a2.54,2.54,0,0,0-2.539-2.539h-51.36a2.54,2.54,0,0,0-2.539,2.539v6.262Z" transform="translate(-615.222 -1752.262)" fill="#3834a1" fill-rule="evenodd"/>
        <path id="Trazado_605742" data-name="Trazado 605742" d="M663.754,1782.59a1.177,1.177,0,1,1-1.177,1.177A1.178,1.178,0,0,1,663.754,1782.59Zm5.691,0a1.177,1.177,0,1,1-1.177,1.177A1.178,1.178,0,0,1,669.445,1782.59Zm-11.382,0a1.177,1.177,0,1,1-1.177,1.177A1.178,1.178,0,0,1,658.062,1782.59Z" transform="translate(-652.458 -1779.367)" fill="#fff" fill-rule="evenodd"/>
        <path id="Trazado_605743" data-name="Trazado 605743" d="M756.45,1895.088h3.172l6.193-20.836h-3.171Zm-.4-15.68-9.252,4.025v3.406l9.252,4.026v-3.229l-5.986-2.5,5.986-2.5v-3.229Zm9.97,0v3.229l5.986,2.5-5.986,2.5v3.229l9.252-4.026v-3.406l-9.252-4.025Z" transform="translate(-732.82 -1861.288)" fill="#1c1971"/>
      </g>
      <path id="Trazado_605744" data-name="Trazado 605744" d="M1851.153,469.543a3.819,3.819,0,0,0-3.817-3.817H1814.8a3.818,3.818,0,0,0-3.817,3.817v24.172a3.818,3.818,0,0,0,3.817,3.817h32.538a3.818,3.818,0,0,0,3.817-3.817V469.543Z" transform="translate(-1068.693)" fill-rule="evenodd" fill="url(#linear-gradient-4)"/>
      <path id="Trazado_605745" data-name="Trazado 605745" d="M1916.526,568.161a2.229,2.229,0,0,0,.68.82,1.333,1.333,0,0,0,.75.262,1.679,1.679,0,0,0,.532-.079.8.8,0,0,0,.392-.288,1.552,1.552,0,0,0,.244-.558,3.762,3.762,0,0,0,.087-.889v-7.15h3v7.394a5.328,5.328,0,0,1-.235,1.6,3.834,3.834,0,0,1-.706,1.317,3.324,3.324,0,0,1-1.194.9,4.052,4.052,0,0,1-1.7.331,4.659,4.659,0,0,1-2.319-.523,4.188,4.188,0,0,1-1.552-1.622l2.023-1.517Zm9.138-.017a5.76,5.76,0,0,0,1.317.794,3.372,3.372,0,0,0,1.334.305,1.786,1.786,0,0,0,.985-.209.677.677,0,0,0,.305-.593.566.566,0,0,0-.1-.349,1.071,1.071,0,0,0-.305-.262,3.361,3.361,0,0,0-.479-.235q-.279-.113-.645-.253l-1.413-.593a4.2,4.2,0,0,1-.872-.462,3.4,3.4,0,0,1-.732-.68,3.129,3.129,0,0,1-.5-.9,3.255,3.255,0,0,1-.183-1.116,3.053,3.053,0,0,1,.314-1.369,3.507,3.507,0,0,1,.872-1.116,4.2,4.2,0,0,1,1.334-.759,4.991,4.991,0,0,1,1.7-.279,5.739,5.739,0,0,1,1.979.366,4.868,4.868,0,0,1,1.788,1.151l-1.5,1.883a5.449,5.449,0,0,0-1.107-.61,3.139,3.139,0,0,0-1.16-.209,1.672,1.672,0,0,0-.872.192.631.631,0,0,0-.314.575.676.676,0,0,0,.445.619q.445.218,1.23.515l1.378.541a3.723,3.723,0,0,1,1.639,1.168,3.09,3.09,0,0,1,.576,1.936,3.362,3.362,0,0,1-1.16,2.537,4.289,4.289,0,0,1-1.386.794,5.522,5.522,0,0,1-1.883.3,6.825,6.825,0,0,1-2.224-.393,5.921,5.921,0,0,1-2.067-1.229l1.709-2.058Z" transform="translate(-1161.213 -84.318)" fill="#fff"/>
      <path id="Trazado_605746" data-name="Trazado 605746" d="M2481.745,767.51a2.488,2.488,0,0,0-2.487-2.487h-35.937a2.488,2.488,0,0,0-2.487,2.487V787.4a2.488,2.488,0,0,0,2.487,2.487h35.937a2.488,2.488,0,0,0,2.487-2.487Z" transform="translate(-1631.614 -267.492)" fill-rule="evenodd" fill="url(#linear-gradient-5)"/>
      <path id="Trazado_605747" data-name="Trazado 605747" d="M2515.16,850.543h1.771v2.491h2v-2.491h1.77v6.69h-1.77v-2.655h-2v2.655h-1.771Zm20.812,0h1.771v5.208h2.532v1.482h-4.3v-6.69Zm-12.516,1.482h-1.77v-1.482H2527v1.482h-1.77v5.208h-1.771v-5.208Zm4.529-1.482h1.832l1.05,2.779.37,1.091h.041l.371-1.091,1.009-2.779h1.832v6.69h-1.647v-1.976q0-.257.026-.566t.057-.633q.031-.324.072-.633t.072-.556h-.041l-.556,1.565-.926,2.254h-.659l-.927-2.254-.535-1.565h-.041q.031.247.072.556t.072.633q.031.324.057.633t.026.566v1.976h-1.626v-6.69Z" transform="translate(-1698.042 -343.925)" fill="#f8fbff"/>
      <path id="Trazado_605748" data-name="Trazado 605748" d="M2882.253,1731.13a3.388,3.388,0,0,0-3.386-3.386H2829.2a3.388,3.388,0,0,0-3.386,3.386v65.592a3.388,3.388,0,0,0,3.386,3.386h49.665a3.388,3.388,0,0,0,3.386-3.386V1731.13Z" transform="translate(-1975.685 -1127.91)" fill-rule="evenodd" fill="url(#linear-gradient-6)"/>
      <path id="Trazado_605749" data-name="Trazado 605749" d="M2947.143,1865.747a.344.344,0,0,0-.345-.345h-38.234a.345.345,0,0,0-.345.345v1.608a.345.345,0,0,0,.345.345H2946.8a.345.345,0,0,0,.345-.345Zm0-7.359a.344.344,0,0,0-.345-.345h-38.234a.345.345,0,0,0-.345.345V1860a.345.345,0,0,0,.345.345H2946.8a.345.345,0,0,0,.345-.345Zm0-7.359a.345.345,0,0,0-.345-.345h-38.234a.345.345,0,0,0-.345.345v1.608a.345.345,0,0,0,.345.345H2946.8a.344.344,0,0,0,.345-.345Zm0-7.359a.344.344,0,0,0-.345-.345h-38.234a.345.345,0,0,0-.345.345v1.608a.345.345,0,0,0,.345.345H2946.8a.345.345,0,0,0,.345-.345Zm0-7.359a.345.345,0,0,0-.345-.345h-38.234a.345.345,0,0,0-.345.345v1.609a.345.345,0,0,0,.345.345H2946.8a.345.345,0,0,0,.345-.345Zm0-7.359a.345.345,0,0,0-.345-.345h-38.234a.345.345,0,0,0-.345.345v1.608a.345.345,0,0,0,.345.345H2946.8a.345.345,0,0,0,.345-.345Zm0-14a1.375,1.375,0,0,0-1.374-1.374h-36.175a1.375,1.375,0,0,0-1.374,1.374v6.413a1.375,1.375,0,0,0,1.374,1.374h36.175a1.375,1.375,0,0,0,1.374-1.374Z" transform="translate(-2049.332 -1204.623)" fill="#e0e7f7" fill-rule="evenodd"/>
      <path id="Trazado_605750" data-name="Trazado 605750" d="M2724.816,1209.14a3.351,3.351,0,0,0-3.349-3.349h-41.321a3.351,3.351,0,0,0-3.349,3.349v26.8a3.351,3.351,0,0,0,3.349,3.35h41.321a3.351,3.351,0,0,0,3.349-3.35Z" transform="translate(-1842.502 -661.422)" fill-rule="evenodd" fill="url(#linear-gradient-7)"/>
      <path id="Trazado_605751" data-name="Trazado 605751" d="M2779.27,1316.63a6.3,6.3,0,0,1,.429-2.4,5.246,5.246,0,0,1,1.157-1.768,5,5,0,0,1,1.677-1.1,5.313,5.313,0,0,1,1.991-.38,4.066,4.066,0,0,1,1.859.421,5.451,5.451,0,0,1,1.413,1l-1.553,1.752a3.739,3.739,0,0,0-.776-.537,2.014,2.014,0,0,0-.909-.19,2.057,2.057,0,0,0-.917.214,2.256,2.256,0,0,0-.76.612,3.033,3.033,0,0,0-.512.975,4.171,4.171,0,0,0-.19,1.305,3.7,3.7,0,0,0,.636,2.33,2.029,2.029,0,0,0,1.677.81,2.293,2.293,0,0,0,1.082-.24,2.941,2.941,0,0,0,.8-.62l1.553,1.719a4.518,4.518,0,0,1-3.47,1.586,5.864,5.864,0,0,1-2-.339,4.6,4.6,0,0,1-1.652-1.025,4.857,4.857,0,0,1-1.123-1.719,6.441,6.441,0,0,1-.413-2.4Zm19.6,2a5.431,5.431,0,0,0,1.247.752,3.2,3.2,0,0,0,1.264.289,1.69,1.69,0,0,0,.933-.2.641.641,0,0,0,.289-.562.538.538,0,0,0-.1-.331,1.021,1.021,0,0,0-.289-.248,3.177,3.177,0,0,0-.455-.223q-.264-.107-.611-.24l-1.338-.562a3.978,3.978,0,0,1-.826-.438,3.21,3.21,0,0,1-.694-.645,2.964,2.964,0,0,1-.471-.851,3.093,3.093,0,0,1-.174-1.058,2.892,2.892,0,0,1,.3-1.3,3.32,3.32,0,0,1,.826-1.058,3.98,3.98,0,0,1,1.264-.719,4.727,4.727,0,0,1,1.612-.264,5.443,5.443,0,0,1,1.875.347,4.613,4.613,0,0,1,1.694,1.091l-1.421,1.785a5.177,5.177,0,0,0-1.049-.578,2.975,2.975,0,0,0-1.1-.2,1.585,1.585,0,0,0-.827.182.6.6,0,0,0-.3.545.641.641,0,0,0,.421.587q.421.207,1.165.488l1.305.512a3.524,3.524,0,0,1,1.553,1.107,2.927,2.927,0,0,1,.545,1.834,3.186,3.186,0,0,1-1.1,2.4,4.068,4.068,0,0,1-1.313.752,5.237,5.237,0,0,1-1.785.281,6.466,6.466,0,0,1-2.107-.372,5.61,5.61,0,0,1-1.958-1.165l1.62-1.95Zm-8.99,0a5.441,5.441,0,0,0,1.248.752,3.193,3.193,0,0,0,1.264.289,1.691,1.691,0,0,0,.933-.2.641.641,0,0,0,.289-.562.536.536,0,0,0-.1-.331,1.013,1.013,0,0,0-.289-.248,3.221,3.221,0,0,0-.454-.223c-.177-.072-.38-.151-.612-.24l-1.338-.562a3.991,3.991,0,0,1-.826-.438,3.227,3.227,0,0,1-.694-.645,2.969,2.969,0,0,1-.471-.851,3.093,3.093,0,0,1-.173-1.058,2.9,2.9,0,0,1,.3-1.3,3.323,3.323,0,0,1,.826-1.058,3.986,3.986,0,0,1,1.264-.719,4.728,4.728,0,0,1,1.611-.264,5.444,5.444,0,0,1,1.875.347,4.615,4.615,0,0,1,1.694,1.091l-1.421,1.785a5.165,5.165,0,0,0-1.05-.578,2.973,2.973,0,0,0-1.1-.2,1.583,1.583,0,0,0-.826.182.6.6,0,0,0-.3.545.641.641,0,0,0,.421.587q.422.207,1.165.488l1.305.512a3.528,3.528,0,0,1,1.553,1.107,2.929,2.929,0,0,1,.545,1.834,3.188,3.188,0,0,1-1.1,2.4,4.08,4.08,0,0,1-1.314.752,5.237,5.237,0,0,1-1.785.281,6.465,6.465,0,0,1-2.107-.372,5.611,5.611,0,0,1-1.958-1.165l1.619-1.95Z" transform="translate(-1934.086 -755.432)" fill="#fff"/>
    </g>
  </g>
</svg>
