<?xml version="1.0" encoding="utf-8"?>
<!-- Generator: Adobe Illustrator 26.4.1, SVG Export Plug-In . SVG Version: 6.00 Build 0)  -->
<svg version="1.1" id="Layer_1" xmlns="http://www.w3.org/2000/svg" xmlns:xlink="http://www.w3.org/1999/xlink" x="0px" y="0px"
	 viewBox="0 0 1328 618.1" style="enable-background:new 0 0 1328 618.1;" xml:space="preserve">
<style type="text/css">
	.st0{fill:#E2F8FA;}
</style>
<path class="st0" d="M1328,166.1c-50.3,10.5-106.8,22.7-170.3,36.8c-291,64.4-578.7,10.9-839.6-82.4C192.1,75.4,83.4,55.5,0,47.5
	c-113.3-10.9-179.9,0.3-179.9,0.3v494.5c0,0,66.6,11.1,179.9,0.2c83.4-8,192.1-27.9,318.1-72.9c260.9-93.2,548.6-146.8,839.6-82.4
	c63.5,14.1,120,26.2,170.3,36.8c406.8,85.2,406.3,62.8,406.3,62.8V103.2C1734.3,103.2,1734.8,80.9,1328,166.1z"/>
</svg>
