<svg xmlns="http://www.w3.org/2000/svg" xmlns:xlink="http://www.w3.org/1999/xlink" width="52.348" height="52.156" viewBox="0 0 52.348 52.156">
  <defs>
    <clipPath id="clip-path">
      <rect id="Rectángulo_298172" data-name="Rectángulo 298172" width="52.348" height="52.156" transform="translate(0 0)" fill="none"/>
    </clipPath>
  </defs>
  <g id="Grupo_887474" data-name="Grupo 887474" transform="translate(0 -0.003)">
    <g id="Enmascarar_grupo_887473" data-name="Enmascarar grupo 887473" transform="translate(0 0.003)" clip-path="url(#clip-path)">
      <path id="Trazado_601400" data-name="Trazado 601400" d="M65.073,866.973H17.937a1.954,1.954,0,0,1-1.954-1.954v-8.88a1.954,1.954,0,0,1,1.954-1.954H65.073a1.954,1.954,0,0,1,1.954,1.954v8.88a1.954,1.954,0,0,1-1.954,1.954" transform="translate(-15.331 -819.344)" fill="#fff"/>
      <path id="Trazado_601401" data-name="Trazado 601401" d="M1039.94,938.986a2.933,2.933,0,1,1-2.957,2.933,2.945,2.945,0,0,1,2.957-2.933" transform="translate(-994.685 -900.686)" fill="#34cba0"/>
      <path id="Trazado_601402" data-name="Trazado 601402" d="M817.94,938.986a2.933,2.933,0,1,1-2.957,2.933,2.945,2.945,0,0,1,2.957-2.933" transform="translate(-781.74 -900.686)" fill="#fb8c00"/>
      <path id="Trazado_601403" data-name="Trazado 601403" d="M65.073,447.873H17.937a1.954,1.954,0,0,1-1.954-1.954v-8.88a1.954,1.954,0,0,1,1.954-1.954H65.073a1.954,1.954,0,0,1,1.954,1.954v8.88a1.951,1.951,0,0,1-1.954,1.954" transform="translate(-15.331 -417.339)" fill="#fff"/>
      <path id="Trazado_601404" data-name="Trazado 601404" d="M1039.94,519.886a2.933,2.933,0,1,1-2.957,2.933,2.945,2.945,0,0,1,2.957-2.933" transform="translate(-994.685 -498.68)" fill="#fb8c00"/>
      <path id="Trazado_601405" data-name="Trazado 601405" d="M817.94,519.886a2.933,2.933,0,1,1-2.957,2.933,2.945,2.945,0,0,1,2.957-2.933" transform="translate(-781.74 -498.68)" fill="#34cba0"/>
      <path id="Trazado_601406" data-name="Trazado 601406" d="M65.073,28.778H17.937a1.954,1.954,0,0,1-1.954-1.954V17.94a1.954,1.954,0,0,1,1.954-1.954H65.073a1.954,1.954,0,0,1,1.954,1.954v8.88a1.955,1.955,0,0,1-1.954,1.958" transform="translate(-15.331 -15.334)" fill="#fff"/>
      <path id="Trazado_601407" data-name="Trazado 601407" d="M1039.94,100.886a2.933,2.933,0,1,1-2.957,2.933,2.945,2.945,0,0,1,2.957-2.933" transform="translate(-994.685 -96.771)" fill="#34cba0"/>
      <path id="Trazado_601408" data-name="Trazado 601408" d="M817.94,100.886a2.933,2.933,0,1,1-2.957,2.933,2.945,2.945,0,0,1,2.957-2.933" transform="translate(-781.74 -96.771)" fill="#fb8c00"/>
      <rect id="Rectángulo_298168" data-name="Rectángulo 298168" width="42.764" height="4.299" transform="translate(4.792 13.443)" fill="#d7e8ff"/>
      <rect id="Rectángulo_298169" data-name="Rectángulo 298169" width="42.764" height="4.299" transform="translate(4.792 30.489)" fill="#d7e8ff"/>
      <rect id="Rectángulo_298170" data-name="Rectángulo 298170" width="6.808" height="3.875" transform="translate(4.388 47.629)" fill="#2aabf5"/>
      <rect id="Rectángulo_298171" data-name="Rectángulo 298171" width="6.808" height="3.875" transform="translate(41.152 47.629)" fill="#2aabf5"/>
      <path id="Trazado_601409" data-name="Trazado 601409" d="M49.742,852.294H2.606A2.609,2.609,0,0,1,0,849.689v-8.88A2.609,2.609,0,0,1,2.606,838.2H49.742a2.609,2.609,0,0,1,2.606,2.606v8.88a2.609,2.609,0,0,1-2.606,2.606M2.606,839.507a1.3,1.3,0,0,0-1.3,1.3v8.88a1.3,1.3,0,0,0,1.3,1.3H49.742a1.3,1.3,0,0,0,1.3-1.3v-8.88a1.3,1.3,0,0,0-1.3-1.3Z" transform="translate(0 -804.013)" fill="#1565c0"/>
      <path id="Trazado_601410" data-name="Trazado 601410" d="M1024.609,930.172a3.585,3.585,0,1,1,3.609-3.585,3.6,3.6,0,0,1-3.609,3.585m0-5.866a2.281,2.281,0,1,0,2.305,2.281,2.3,2.3,0,0,0-2.305-2.281" transform="translate(-979.354 -885.354)" fill="#1565c0"/>
      <path id="Trazado_601411" data-name="Trazado 601411" d="M802.609,930.172a3.585,3.585,0,1,1,3.609-3.585,3.6,3.6,0,0,1-3.609,3.585m0-5.866a2.281,2.281,0,1,0,2.305,2.281,2.3,2.3,0,0,0-2.305-2.281" transform="translate(-766.409 -885.354)" fill="#1565c0"/>
      <path id="Trazado_601412" data-name="Trazado 601412" d="M126.754,944.906h-.869a.652.652,0,1,1,0-1.3h.869a.652.652,0,1,1,0,1.3m-3.477,0h-.869a.652.652,0,0,1,0-1.3h.869a.652.652,0,0,1,0,1.3m-3.477,0h-.869a.652.652,0,0,1,0-1.3h.869a.652.652,0,0,1,0,1.3m-3.477,0h-.869a.652.652,0,0,1,0-1.3h.869a.652.652,0,0,1,0,1.3m-3.477,0h-.869a.652.652,0,0,1,0-1.3h.869a.652.652,0,0,1,0,1.3m-3.477,0H108.5a.652.652,0,0,1,0-1.3h.869a.652.652,0,0,1,0,1.3m-3.477,0h-.869a.652.652,0,0,1,0-1.3h.869a.652.652,0,0,1,0,1.3m-3.477,0h-.869a.652.652,0,0,1,0-1.3h.869a.652.652,0,0,1,0,1.3" transform="translate(-96.779 -905.113)" fill="#1565c0"/>
      <path id="Trazado_601413" data-name="Trazado 601413" d="M126.754,1047.406h-.869a.652.652,0,1,1,0-1.3h.869a.652.652,0,0,1,0,1.3m-3.477,0h-.869a.652.652,0,0,1,0-1.3h.869a.652.652,0,0,1,0,1.3m-3.477,0h-.869a.652.652,0,0,1,0-1.3h.869a.652.652,0,0,1,0,1.3m-3.477,0h-.869a.652.652,0,0,1,0-1.3h.869a.652.652,0,0,1,0,1.3m-3.477,0h-.869a.652.652,0,0,1,0-1.3h.869a.652.652,0,0,1,0,1.3m-3.477,0H108.5a.652.652,0,0,1,0-1.3h.869a.652.652,0,0,1,0,1.3m-3.477,0h-.869a.652.652,0,0,1,0-1.3h.869a.652.652,0,0,1,0,1.3m-3.477,0h-.869a.652.652,0,0,1,0-1.3h.869a.652.652,0,0,1,0,1.3" transform="translate(-96.779 -1003.432)" fill="#1565c0"/>
      <path id="Trazado_601414" data-name="Trazado 601414" d="M49.742,433.194H2.606A2.609,2.609,0,0,1,0,430.589v-8.88A2.609,2.609,0,0,1,2.606,419.1H49.742a2.609,2.609,0,0,1,2.606,2.606v8.88a2.609,2.609,0,0,1-2.606,2.606M2.606,420.407a1.3,1.3,0,0,0-1.3,1.3v8.88a1.3,1.3,0,0,0,1.3,1.3H49.742a1.3,1.3,0,0,0,1.3-1.3v-8.88a1.3,1.3,0,0,0-1.3-1.3Z" transform="translate(0 -402.008)" fill="#1565c0"/>
      <path id="Trazado_601415" data-name="Trazado 601415" d="M1024.609,511.072a3.585,3.585,0,1,1,3.609-3.585,3.6,3.6,0,0,1-3.609,3.585m0-5.866a2.281,2.281,0,1,0,2.305,2.281,2.3,2.3,0,0,0-2.305-2.281" transform="translate(-979.354 -483.349)" fill="#1565c0"/>
      <path id="Trazado_601416" data-name="Trazado 601416" d="M802.609,511.072a3.585,3.585,0,1,1,3.609-3.585,3.6,3.6,0,0,1-3.609,3.585m0-5.866a2.281,2.281,0,1,0,2.305,2.281,2.3,2.3,0,0,0-2.305-2.281" transform="translate(-766.409 -483.349)" fill="#1565c0"/>
      <path id="Trazado_601417" data-name="Trazado 601417" d="M126.754,525.907h-.869a.652.652,0,1,1,0-1.3h.869a.652.652,0,1,1,0,1.3m-3.477,0h-.869a.652.652,0,0,1,0-1.3h.869a.652.652,0,0,1,0,1.3m-3.477,0h-.869a.652.652,0,0,1,0-1.3h.869a.652.652,0,0,1,0,1.3m-3.477,0h-.869a.652.652,0,0,1,0-1.3h.869a.652.652,0,0,1,0,1.3m-3.477,0h-.869a.652.652,0,0,1,0-1.3h.869a.652.652,0,0,1,0,1.3m-3.477,0H108.5a.652.652,0,0,1,0-1.3h.869a.652.652,0,0,1,0,1.3m-3.477,0h-.869a.652.652,0,0,1,0-1.3h.869a.652.652,0,0,1,0,1.3m-3.477,0h-.869a.652.652,0,0,1,0-1.3h.869a.652.652,0,0,1,0,1.3" transform="translate(-96.779 -503.205)" fill="#1565c0"/>
      <path id="Trazado_601418" data-name="Trazado 601418" d="M126.754,628.407h-.869a.652.652,0,1,1,0-1.3h.869a.652.652,0,1,1,0,1.3m-3.477,0h-.869a.652.652,0,1,1,0-1.3h.869a.652.652,0,1,1,0,1.3m-3.477,0h-.869a.652.652,0,1,1,0-1.3h.869a.652.652,0,1,1,0,1.3m-3.477,0h-.869a.652.652,0,1,1,0-1.3h.869a.652.652,0,1,1,0,1.3m-3.477,0h-.869a.652.652,0,1,1,0-1.3h.869a.652.652,0,1,1,0,1.3m-3.477,0H108.5a.652.652,0,1,1,0-1.3h.869a.652.652,0,1,1,0,1.3m-3.477,0h-.869a.652.652,0,1,1,0-1.3h.869a.652.652,0,1,1,0,1.3m-3.477,0h-.869a.652.652,0,0,1,0-1.3h.869a.652.652,0,1,1,0,1.3" transform="translate(-96.779 -601.524)" fill="#1565c0"/>
      <path id="Trazado_601419" data-name="Trazado 601419" d="M49.742,14.1H2.606A2.609,2.609,0,0,1,0,11.493V2.609A2.609,2.609,0,0,1,2.606,0H49.742a2.609,2.609,0,0,1,2.606,2.606v8.88a2.611,2.611,0,0,1-2.606,2.61M2.606,1.307a1.3,1.3,0,0,0-1.3,1.3v8.884a1.3,1.3,0,0,0,1.3,1.3H49.742a1.305,1.305,0,0,0,1.3-1.306V2.609a1.3,1.3,0,0,0-1.3-1.3Z" transform="translate(0 -0.003)" fill="#1565c0"/>
      <path id="Trazado_601420" data-name="Trazado 601420" d="M1024.609,92.072a3.585,3.585,0,1,1,3.609-3.585,3.6,3.6,0,0,1-3.609,3.585m0-5.866a2.281,2.281,0,1,0,2.305,2.281,2.3,2.3,0,0,0-2.305-2.281" transform="translate(-979.354 -81.44)" fill="#1565c0"/>
      <path id="Trazado_601421" data-name="Trazado 601421" d="M802.609,92.072a3.585,3.585,0,1,1,3.609-3.585,3.6,3.6,0,0,1-3.609,3.585m0-5.866a2.281,2.281,0,1,0,2.305,2.281,2.3,2.3,0,0,0-2.305-2.281" transform="translate(-766.409 -81.44)" fill="#1565c0"/>
      <path id="Trazado_601422" data-name="Trazado 601422" d="M126.754,106.807h-.869a.652.652,0,1,1,0-1.3h.869a.652.652,0,1,1,0,1.3m-3.477,0h-.869a.652.652,0,0,1,0-1.3h.869a.652.652,0,1,1,0,1.3m-3.477,0h-.869a.652.652,0,0,1,0-1.3h.869a.652.652,0,0,1,0,1.3m-3.477,0h-.869a.652.652,0,0,1,0-1.3h.869a.652.652,0,0,1,0,1.3m-3.477,0h-.869a.652.652,0,1,1,0-1.3h.869a.652.652,0,0,1,0,1.3m-3.477,0H108.5a.652.652,0,0,1,0-1.3h.869a.652.652,0,1,1,0,1.3m-3.477,0h-.869a.652.652,0,1,1,0-1.3h.869a.652.652,0,1,1,0,1.3m-3.477,0h-.869a.652.652,0,0,1,0-1.3h.869a.652.652,0,1,1,0,1.3" transform="translate(-96.779 -101.2)" fill="#1565c0"/>
      <path id="Trazado_601423" data-name="Trazado 601423" d="M126.754,209.307h-.869a.652.652,0,1,1,0-1.3h.869a.652.652,0,1,1,0,1.3m-3.477,0h-.869a.652.652,0,0,1,0-1.3h.869a.652.652,0,1,1,0,1.3m-3.477,0h-.869a.652.652,0,0,1,0-1.3h.869a.652.652,0,0,1,0,1.3m-3.477,0h-.869a.652.652,0,0,1,0-1.3h.869a.652.652,0,0,1,0,1.3m-3.477,0h-.869a.652.652,0,1,1,0-1.3h.869a.652.652,0,0,1,0,1.3m-3.477,0H108.5a.652.652,0,0,1,0-1.3h.869a.652.652,0,1,1,0,1.3m-3.477,0h-.869a.652.652,0,1,1,0-1.3h.869a.652.652,0,1,1,0,1.3m-3.477,0h-.869a.652.652,0,0,1,0-1.3h.869a.652.652,0,1,1,0,1.3" transform="translate(-96.779 -199.519)" fill="#1565c0"/>
      <path id="Trazado_601424" data-name="Trazado 601424" d="M144.915,319.206H102.152a.652.652,0,0,1-.652-.652v-4.3a.652.652,0,0,1,.652-.652h42.764a.652.652,0,0,1,.652.652v4.3a.652.652,0,0,1-.652.652M102.8,317.9h41.46v-3H102.8Z" transform="translate(-97.36 -300.811)" fill="#1565c0"/>
      <path id="Trazado_601425" data-name="Trazado 601425" d="M144.915,737.106H102.152a.652.652,0,0,1-.652-.652v-4.3a.652.652,0,0,1,.652-.652h42.764a.652.652,0,0,1,.652.652v4.3a.652.652,0,0,1-.652.652M102.8,735.8h41.46v-3H102.8Z" transform="translate(-97.36 -701.666)" fill="#1565c0"/>
      <path id="Trazado_601426" data-name="Trazado 601426" d="M99.06,1156.882H92.252a.652.652,0,0,1-.652-.652v-3.875a.652.652,0,0,1,.652-.652H99.06a.652.652,0,0,1,.652.652v3.875a.652.652,0,0,1-.652.652m-6.156-1.3h5.5v-2.571H92.9Z" transform="translate(-87.864 -1104.726)" fill="#1565c0"/>
      <path id="Trazado_601427" data-name="Trazado 601427" d="M1000.36,1156.882h-6.808a.652.652,0,0,1-.652-.652v-3.875a.652.652,0,0,1,.652-.652h6.808a.652.652,0,0,1,.652.652v3.875a.652.652,0,0,1-.652.652m-6.156-1.3h5.5v-2.571h-5.5Z" transform="translate(-952.4 -1104.726)" fill="#1565c0"/>
    </g>
  </g>
</svg>
