<?xml version="1.0" encoding="utf-8"?>
<!-- Generator: Adobe Illustrator 26.4.1, SVG Export Plug-In . SVG Version: 6.00 Build 0)  -->
<svg version="1.1" id="Layer_1" xmlns="http://www.w3.org/2000/svg" xmlns:xlink="http://www.w3.org/1999/xlink" x="0px" y="0px"
	 viewBox="0 0 84.4 65.2" style="enable-background:new 0 0 84.4 65.2;" xml:space="preserve">
<style type="text/css">
	.st0{fill:#E4E4E4;}
	.st1{fill:#1565C0;}
</style>
<g id="Grupo_882898" transform="translate(0 87.955) rotate(-90)">
	
		<rect id="Rectángulo_45220" x="39" y="-0.2" transform="matrix(-2.535182e-06 -1 1 -2.535182e-06 39.0472 87.7781)" class="st0" width="48.7" height="49.1"/>
	<g id="Grupo_152581" transform="translate(-21.883 36.304)">
		<g id="Grupo_152556" transform="translate(0 26.044)">
			
				<rect id="Rectángulo_45221" x="89.3" y="17.9" transform="matrix(-2.535182e-06 -1 1 -2.535182e-06 71.4432 111.368)" class="st1" width="4.2" height="4.2"/>
			
				<rect id="Rectángulo_45222" x="80.4" y="17.9" transform="matrix(-2.535182e-06 -1 1 -2.535182e-06 62.5132 102.438)" class="st1" width="4.2" height="4.2"/>
			
				<rect id="Rectángulo_45223" x="71.4" y="17.9" transform="matrix(-2.535182e-06 -1 1 -2.535182e-06 53.5822 93.507)" class="st1" width="4.2" height="4.2"/>
			
				<rect id="Rectángulo_45224" x="62.5" y="17.9" transform="matrix(-2.535182e-06 -1 1 -2.535182e-06 44.6517 84.5766)" class="st1" width="4.2" height="4.2"/>
			
				<rect id="Rectángulo_45225" x="53.6" y="17.9" transform="matrix(-2.535182e-06 -1 1 -2.535182e-06 35.7211 75.646)" class="st1" width="4.2" height="4.2"/>
			
				<rect id="Rectángulo_45226" x="44.7" y="17.9" transform="matrix(-2.535182e-06 -1 1 -2.535182e-06 26.7906 66.7156)" class="st1" width="4.2" height="4.2"/>
			
				<rect id="Rectángulo_45232" x="89.3" y="8.9" transform="matrix(-2.535182e-06 -1 1 -2.535182e-06 80.3742 102.437)" class="st1" width="4.2" height="4.2"/>
			
				<rect id="Rectángulo_45233" x="80.4" y="8.9" transform="matrix(-2.535182e-06 -1 1 -2.535182e-06 71.4442 93.507)" class="st1" width="4.2" height="4.2"/>
			
				<rect id="Rectángulo_45234" x="71.4" y="8.9" transform="matrix(-2.535182e-06 -1 1 -2.535182e-06 62.5132 84.576)" class="st1" width="4.2" height="4.2"/>
			
				<rect id="Rectángulo_45235" x="62.5" y="8.9" transform="matrix(-2.535182e-06 -1 1 -2.535182e-06 53.5827 75.6455)" class="st1" width="4.2" height="4.2"/>
			
				<rect id="Rectángulo_45236" x="53.6" y="8.9" transform="matrix(-2.535182e-06 -1 1 -2.535182e-06 44.6521 66.715)" class="st1" width="4.2" height="4.2"/>
			
				<rect id="Rectángulo_45237" x="44.7" y="8.9" transform="matrix(-2.535182e-06 -1 1 -2.535182e-06 35.7216 57.7845)" class="st1" width="4.2" height="4.2"/>
			
				<rect id="Rectángulo_45243" x="89.3" y="0" transform="matrix(-2.535182e-06 -1 1 -2.535182e-06 89.3042 93.507)" class="st1" width="4.2" height="4.2"/>
			
				<rect id="Rectángulo_45244" x="80.4" y="0" transform="matrix(-2.535182e-06 -1 1 -2.535182e-06 80.3742 84.577)" class="st1" width="4.2" height="4.2"/>
			
				<rect id="Rectángulo_45245" x="71.4" y="0" transform="matrix(-2.535182e-06 -1 1 -2.535182e-06 71.4432 75.646)" class="st1" width="4.2" height="4.2"/>
			
				<rect id="Rectángulo_45246" x="62.5" y="0" transform="matrix(-2.535182e-06 -1 1 -2.535182e-06 62.5127 66.7155)" class="st1" width="4.2" height="4.2"/>
			
				<rect id="Rectángulo_45247" x="53.6" y="0" transform="matrix(-2.535182e-06 -1 1 -2.535182e-06 53.5821 57.785)" class="st1" width="4.2" height="4.2"/>
			
				<rect id="Rectángulo_45248" x="44.7" y="0" transform="matrix(-2.535182e-06 -1 1 -2.535182e-06 44.6516 48.8545)" class="st1" width="4.2" height="4.2"/>
		</g>
		<g id="Grupo_152580">
			
				<rect id="Rectángulo_45221-2" x="89.3" y="17.9" transform="matrix(-2.535182e-06 -1 1 -2.535182e-06 71.4432 111.368)" class="st1" width="4.2" height="4.2"/>
			
				<rect id="Rectángulo_45222-2" x="80.4" y="17.9" transform="matrix(-2.535182e-06 -1 1 -2.535182e-06 62.5132 102.438)" class="st1" width="4.2" height="4.2"/>
			
				<rect id="Rectángulo_45223-2" x="71.4" y="17.9" transform="matrix(-2.535182e-06 -1 1 -2.535182e-06 53.5822 93.507)" class="st1" width="4.2" height="4.2"/>
			
				<rect id="Rectángulo_45224-2" x="62.5" y="17.9" transform="matrix(-2.535182e-06 -1 1 -2.535182e-06 44.6517 84.5766)" class="st1" width="4.2" height="4.2"/>
			
				<rect id="Rectángulo_45225-2" x="53.6" y="17.9" transform="matrix(-2.535182e-06 -1 1 -2.535182e-06 35.7211 75.646)" class="st1" width="4.2" height="4.2"/>
			
				<rect id="Rectángulo_45226-2" x="44.7" y="17.9" transform="matrix(-2.535182e-06 -1 1 -2.535182e-06 26.7906 66.7156)" class="st1" width="4.2" height="4.2"/>
			
				<rect id="Rectángulo_45232-2" x="89.3" y="8.9" transform="matrix(-2.535182e-06 -1 1 -2.535182e-06 80.3742 102.437)" class="st1" width="4.2" height="4.2"/>
			
				<rect id="Rectángulo_45233-2" x="80.4" y="8.9" transform="matrix(-2.535182e-06 -1 1 -2.535182e-06 71.4442 93.507)" class="st1" width="4.2" height="4.2"/>
			
				<rect id="Rectángulo_45234-2" x="71.4" y="8.9" transform="matrix(-2.535182e-06 -1 1 -2.535182e-06 62.5132 84.576)" class="st1" width="4.2" height="4.2"/>
			
				<rect id="Rectángulo_45235-2" x="62.5" y="8.9" transform="matrix(-2.535182e-06 -1 1 -2.535182e-06 53.5827 75.6455)" class="st1" width="4.2" height="4.2"/>
			
				<rect id="Rectángulo_45236-2" x="53.6" y="8.9" transform="matrix(-2.535182e-06 -1 1 -2.535182e-06 44.6521 66.715)" class="st1" width="4.2" height="4.2"/>
			
				<rect id="Rectángulo_45237-2" x="44.7" y="8.9" transform="matrix(-2.535182e-06 -1 1 -2.535182e-06 35.7216 57.7845)" class="st1" width="4.2" height="4.2"/>
			
				<rect id="Rectángulo_45243-2" x="89.3" y="0" transform="matrix(-2.535182e-06 -1 1 -2.535182e-06 89.3042 93.507)" class="st1" width="4.2" height="4.2"/>
			
				<rect id="Rectángulo_45244-2" x="80.4" y="0" transform="matrix(-2.535182e-06 -1 1 -2.535182e-06 80.3742 84.577)" class="st1" width="4.2" height="4.2"/>
			
				<rect id="Rectángulo_45245-2" x="71.4" y="0" transform="matrix(-2.535182e-06 -1 1 -2.535182e-06 71.4432 75.646)" class="st1" width="4.2" height="4.2"/>
			
				<rect id="Rectángulo_45246-2" x="62.5" y="0" transform="matrix(-2.535182e-06 -1 1 -2.535182e-06 62.5127 66.7155)" class="st1" width="4.2" height="4.2"/>
			
				<rect id="Rectángulo_45247-2" x="53.6" y="0" transform="matrix(-2.535182e-06 -1 1 -2.535182e-06 53.5821 57.785)" class="st1" width="4.2" height="4.2"/>
			
				<rect id="Rectángulo_45248-2" x="44.7" y="0" transform="matrix(-2.535182e-06 -1 1 -2.535182e-06 44.6516 48.8545)" class="st1" width="4.2" height="4.2"/>
		</g>
	</g>
</g>
</svg>
