<svg xmlns="http://www.w3.org/2000/svg" width="96" height="96" viewBox="0 0 96 96">
  <g id="Grupo_889746" data-name="Grupo 889746" transform="translate(-385 -1136)">
    <circle id="Elipse_8020" data-name="Elipse 8020" cx="48" cy="48" r="48" transform="translate(385 1136)" fill="#fff"/>
    <g id="Grupo_889696" data-name="Grupo 889696" transform="translate(274.941 1037.441)">
      <g id="Grupo_889679" data-name="Grupo 889679" transform="translate(161.808 123.562)">
        <path id="Trazado_604577" data-name="Trazado 604577" d="M173.374,142.747a9.374,9.374,0,1,1,9.374-9.374A9.384,9.384,0,0,1,173.374,142.747Zm0-16.873a7.5,7.5,0,1,0,7.5,7.5A7.508,7.508,0,0,0,173.374,125.875Z" transform="translate(-164 -124)" fill="#26aab7"/>
      </g>
      <g id="Grupo_889680" data-name="Grupo 889680" transform="translate(167.432 129.186)">
        <path id="Trazado_604578" data-name="Trazado 604578" d="M173.749,137.5a3.749,3.749,0,1,1,3.75-3.75A3.753,3.753,0,0,1,173.749,137.5Zm0-5.624a1.875,1.875,0,1,0,1.875,1.875A1.877,1.877,0,0,0,173.749,131.875Z" transform="translate(-170 -130)" fill="#26aab7"/>
      </g>
      <g id="Grupo_889681" data-name="Grupo 889681" transform="translate(129 165.743)">
        <path id="Trazado_604579" data-name="Trazado 604579" d="M157.121,178.374H130.875A1.877,1.877,0,0,1,129,176.5v-5.624A1.877,1.877,0,0,1,130.875,169h26.246A1.878,1.878,0,0,1,159,170.875V176.5A1.878,1.878,0,0,1,157.121,178.374Zm-26.246-7.5V176.5h26.246v-5.624Z" transform="translate(-129 -169)" fill="#26aab7"/>
      </g>
      <g id="Grupo_889682" data-name="Grupo 889682" transform="translate(154.22 163.056)">
        <rect id="Rectángulo_301537" data-name="Rectángulo 301537" width="2" height="3" transform="translate(-0.221 0.062)" fill="#26aab7"/>
      </g>
      <g id="Grupo_889683" data-name="Grupo 889683" transform="translate(132.289 163.056)">
        <rect id="Rectángulo_301538" data-name="Rectángulo 301538" width="1" height="3" transform="translate(-0.289 0.062)" fill="#26aab7"/>
      </g>
      <g id="Grupo_889684" data-name="Grupo 889684" transform="translate(129 154.495)">
        <path id="Trazado_604580" data-name="Trazado 604580" d="M157.121,166.374H130.875A1.877,1.877,0,0,1,129,164.5v-5.624A1.877,1.877,0,0,1,130.875,157h26.246A1.878,1.878,0,0,1,159,158.875V164.5A1.878,1.878,0,0,1,157.121,166.374Zm-26.246-7.5V164.5h26.246v-5.624Z" transform="translate(-129 -157)" fill="#26aab7"/>
      </g>
      <g id="Grupo_889685" data-name="Grupo 889685" transform="translate(129 143.246)">
        <path id="Trazado_604581" data-name="Trazado 604581" d="M157.121,154.374H130.875A1.877,1.877,0,0,1,129,152.5v-5.624A1.877,1.877,0,0,1,130.875,145h26.246A1.878,1.878,0,0,1,159,146.875V152.5A1.878,1.878,0,0,1,157.121,154.374Zm-26.246-7.5V152.5h26.246v-5.624Z" transform="translate(-129 -145)" fill="#26aab7"/>
      </g>
      <g id="Grupo_889686" data-name="Grupo 889686" transform="translate(154.22 152.09)">
        <rect id="Rectángulo_301539" data-name="Rectángulo 301539" width="2" height="3" transform="translate(-0.221 0.027)" fill="#26aab7"/>
      </g>
      <g id="Grupo_889687" data-name="Grupo 889687" transform="translate(132.289 152.09)">
        <rect id="Rectángulo_301540" data-name="Rectángulo 301540" width="1" height="3" transform="translate(-0.289 0.027)" fill="#26aab7"/>
      </g>
      <g id="Grupo_889688" data-name="Grupo 889688" transform="translate(157.925 126.397)">
        <path id="Trazado_604582" data-name="Trazado 604582" d="M176.764,149.5h-7.3l-.385-3.459a13.28,13.28,0,0,1-1.934-.8l-2.717,2.172-4.571-4.57,1.325-1.325,3.385,3.384,2.391-1.912.553.319a11.162,11.162,0,0,0,2.674,1.1l.617.167.337,3.046h3.947l.338-3.046.617-.167a11.162,11.162,0,0,0,2.674-1.1l.553-.319,2.391,1.912,2.792-2.791-1.913-2.391.319-.553a11.163,11.163,0,0,0,1.1-2.674l.167-.617,3.046-.338V131.59l-3.046-.338-.167-.617a11.164,11.164,0,0,0-1.1-2.674l1.624-.935a13.073,13.073,0,0,1,1.108,2.5l3.459.385v7.3l-3.459.385a13.277,13.277,0,0,1-.8,1.934l2.173,2.716-5.163,5.162-2.716-2.172a13.283,13.283,0,0,1-1.934.8Z" transform="translate(-159.857 -127.025)" fill="#26aab7"/>
      </g>
      <g id="Grupo_889689" data-name="Grupo 889689" transform="translate(155.246 117)">
        <path id="Trazado_604583" data-name="Trazado 604583" d="M161.567,139.474a13.076,13.076,0,0,1-1.108-2.5L157,136.586v-7.3l3.459-.385a13.28,13.28,0,0,1,.8-1.934l-2.173-2.716,5.163-5.163,2.716,2.173a13.277,13.277,0,0,1,1.934-.8l.385-3.459h7.3l.386,3.459a13.278,13.278,0,0,1,1.934.8l2.717-2.173,4.571,4.571-1.326,1.325-3.384-3.385-2.391,1.913-.553-.319a11.163,11.163,0,0,0-2.674-1.1l-.617-.167-.338-3.046h-3.947l-.337,3.046-.617.167a11.164,11.164,0,0,0-2.674,1.1l-.553.319-2.391-1.913-2.791,2.792,1.913,2.391-.32.553a11.2,11.2,0,0,0-1.1,2.674l-.167.617-3.046.338v3.946l3.046.338.167.617a11.2,11.2,0,0,0,1.1,2.674Z" transform="translate(-157 -117)" fill="#26aab7"/>
      </g>
      <g id="Grupo_889690" data-name="Grupo 889690" transform="translate(166.283 167.441)">
        <rect id="Rectángulo_301541" data-name="Rectángulo 301541" width="2" height="8" transform="translate(-0.283 -0.323)" fill="#26aab7"/>
      </g>
      <g id="Grupo_889691" data-name="Grupo 889691" transform="translate(161.578 152.156)">
        <path id="Trazado_604584" data-name="Trazado 604584" d="M179.92,173.716h-1.875v-9.374h2.582l-6.332-7.035-6.332,7.035h2.582v3.749h-1.875v-1.875h-4.917L174.3,154.5l10.541,11.713H179.92Z" transform="translate(-163.755 -154.505)" fill="#26aab7"/>
      </g>
      <g id="Grupo_889692" data-name="Grupo 889692" transform="translate(176.151 174.02)">
        <rect id="Rectángulo_301542" data-name="Rectángulo 301542" width="1" height="1" transform="translate(-0.151 0.097)" fill="#26aab7"/>
      </g>
      <g id="Grupo_889693" data-name="Grupo 889693" transform="translate(147.641 117)">
        <rect id="Rectángulo_301543" data-name="Rectángulo 301543" width="2" height="1" transform="translate(0.359 0.117)" fill="#26aab7"/>
      </g>
      <g id="Grupo_889694" data-name="Grupo 889694" transform="translate(133.457 120.749)">
        <path id="Trazado_604585" data-name="Trazado 604585" d="M144.3,140.212,133.755,128.5h4.917v-5.624h1.875v7.5h-2.582l6.332,7.035,6.332-7.035h-2.582V121h1.875v7.5h4.917Z" transform="translate(-133.755 -121)" fill="#26aab7"/>
      </g>
      <g id="Grupo_889695" data-name="Grupo 889695" transform="translate(138.869 117)">
        <rect id="Rectángulo_301544" data-name="Rectángulo 301544" width="1" height="4" transform="translate(0.131 0.117)" fill="#26aab7"/>
      </g>
    </g>
  </g>
</svg>
