<svg xmlns="http://www.w3.org/2000/svg" width="436.304" height="182.344" viewBox="0 0 436.304 182.344">
  <g id="Grupo_893181" data-name="Grupo 893181" transform="translate(-959.284 -408.656)">
    <g id="Grupo_889663" data-name="Grupo 889663" transform="translate(729.637 -440.946)">
      <g id="Grupo_889658" data-name="Grupo 889658" transform="translate(249.184 849.602)">
        <path id="Trazado_604554" data-name="Trazado 604554" d="M684.485,1522.571s3.646,10.347-5.73,36.683H739.7s-10.938-10.347-8.334-36.683Z" transform="translate(-591.553 -1385.959)" fill="#26aab7"/>
        <path id="Trazado_604555" data-name="Trazado 604555" d="M753.507,1532.882a77.228,77.228,0,0,1,.351-10.311H706.98s1.1,3.132.534,10.311Z" transform="translate(-614.048 -1385.959)" fill="#b2ebf2"/>
        <rect id="Rectángulo_301471" data-name="Rectángulo 301471" width="231.179" height="140.631" rx="7" transform="translate(0 0)" fill="#26aab7"/>
        <path id="Trazado_604556" data-name="Trazado 604556" d="M251.2,986.749V856.19a4.854,4.854,0,0,1,5-4.7H477.38a5.191,5.191,0,0,1,2.364.582,5.027,5.027,0,0,0-4.378-2.475H254.183a4.854,4.854,0,0,0-5,4.7V984.857A5.316,5.316,0,0,0,252,989.481,5.1,5.1,0,0,1,251.2,986.749Z" transform="translate(-249.185 -849.602)" fill="#12263f"/>
        <path id="Rectángulo_301472" data-name="Rectángulo 301472" d="M1.276,0h208.84a1.275,1.275,0,0,1,1.275,1.275V113.105a1.276,1.276,0,0,1-1.276,1.276H1.276A1.276,1.276,0,0,1,0,113.105V1.276A1.276,1.276,0,0,1,1.276,0Z" transform="translate(9.894 8.211)" fill="#29478c"/>
        <path id="Trazado_604557" data-name="Trazado 604557" d="M506.659,1691.945l-4.948,11.35H627.76l-4.948-11.35Z" transform="translate(-450.448 -1520.951)" fill="#26aab7"/>
        <ellipse id="Elipse_8019" data-name="Elipse 8019" cx="4.412" cy="4.471" rx="4.412" ry="4.471" transform="translate(113.261 126.84)" fill="#b2ebf2"/>
      </g>
      <g id="Grupo_889661" data-name="Grupo 889661" transform="translate(270.609 866.828)">
        <rect id="Rectángulo_301473" data-name="Rectángulo 301473" width="32.007" height="97.116" rx="4" transform="translate(0 0)" fill="#fff" opacity="0.08"/>
        <g id="Grupo_889660" data-name="Grupo 889660" transform="translate(4.044 6.485)">
          <g id="Grupo_889659" data-name="Grupo 889659">
            <path id="Rectángulo_301474" data-name="Rectángulo 301474" d="M1.045,0H12.684a1.045,1.045,0,0,1,1.045,1.045v0A1.045,1.045,0,0,1,12.684,2.09H1.045A1.045,1.045,0,0,1,0,1.045v0A1.045,1.045,0,0,1,1.045,0Z" fill="#fff"/>
            <path id="Rectángulo_301475" data-name="Rectángulo 301475" d="M1.045,0H19.506a1.045,1.045,0,0,1,1.045,1.045v0A1.045,1.045,0,0,1,19.506,2.09H1.045A1.045,1.045,0,0,1,0,1.045v0A1.045,1.045,0,0,1,1.045,0Z" transform="translate(0 4.743)" fill="#fff"/>
            <path id="Rectángulo_301476" data-name="Rectángulo 301476" d="M1.045,0h14.92a1.045,1.045,0,0,1,1.045,1.045v0A1.045,1.045,0,0,1,15.965,2.09H1.045A1.045,1.045,0,0,1,0,1.045v0A1.045,1.045,0,0,1,1.045,0Z" transform="translate(0 9.486)" fill="#fff"/>
            <rect id="Rectángulo_301477" data-name="Rectángulo 301477" width="8.505" height="2.09" rx="1.045" transform="translate(0 14.23)" fill="#fff"/>
            <path id="Rectángulo_301478" data-name="Rectángulo 301478" d="M1.045,0h9.222a1.045,1.045,0,0,1,1.045,1.045v0A1.045,1.045,0,0,1,10.266,2.09H1.045A1.045,1.045,0,0,1,0,1.045v0A1.045,1.045,0,0,1,1.045,0Z" transform="translate(0 18.973)" fill="#fff"/>
            <rect id="Rectángulo_301479" data-name="Rectángulo 301479" width="15.974" height="2.09" rx="1.045" transform="translate(0 23.716)" fill="#fff"/>
            <path id="Rectángulo_301480" data-name="Rectángulo 301480" d="M1.045,0h9.221a1.045,1.045,0,0,1,1.045,1.045v0A1.045,1.045,0,0,1,10.266,2.09H1.045A1.045,1.045,0,0,1,0,1.045v0A1.045,1.045,0,0,1,1.045,0Z" transform="translate(0 28.459)" fill="#fff"/>
            <path id="Rectángulo_301481" data-name="Rectángulo 301481" d="M1.045,0H20.11a1.045,1.045,0,0,1,1.045,1.045v0A1.045,1.045,0,0,1,20.11,2.09H1.045A1.045,1.045,0,0,1,0,1.045v0A1.045,1.045,0,0,1,1.045,0Z" transform="translate(0 33.203)" fill="#fff"/>
            <path id="Rectángulo_301482" data-name="Rectángulo 301482" d="M1.045,0H12.771a1.045,1.045,0,0,1,1.045,1.045v0A1.045,1.045,0,0,1,12.77,2.09H1.045A1.045,1.045,0,0,1,0,1.045v0A1.045,1.045,0,0,1,1.045,0Z" transform="translate(0 37.946)" fill="#fff"/>
            <rect id="Rectángulo_301483" data-name="Rectángulo 301483" width="21.673" height="2.09" rx="1.045" transform="translate(0 42.689)" fill="#fff"/>
            <rect id="Rectángulo_301484" data-name="Rectángulo 301484" width="15.111" height="2.09" rx="1.045" transform="translate(0 47.432)" fill="#fff"/>
            <rect id="Rectángulo_301485" data-name="Rectángulo 301485" width="8.98" height="2.09" rx="1.045" transform="translate(0 52.176)" fill="#fff"/>
          </g>
        </g>
      </g>
      <g id="Grupo_889662" data-name="Grupo 889662" transform="translate(311.755 873.412)">
        <rect id="Rectángulo_301486" data-name="Rectángulo 301486" width="31.915" height="2.122" rx="1.061" transform="translate(0.596)" fill="#fff"/>
        <rect id="Rectángulo_301487" data-name="Rectángulo 301487" width="20.721" height="2.122" rx="1.061" transform="translate(0 4.163)" fill="#fff"/>
        <path id="Rectángulo_301488" data-name="Rectángulo 301488" d="M1.061,0h18.6a1.061,1.061,0,0,1,1.061,1.061v0A1.061,1.061,0,0,1,19.66,2.122H1.061A1.061,1.061,0,0,1,0,1.061v0A1.061,1.061,0,0,1,1.061,0Z" transform="translate(9.408 8.815)" fill="#fff"/>
        <rect id="Rectángulo_301489" data-name="Rectángulo 301489" width="27.033" height="2.122" rx="1.061" transform="translate(18.935 13.059)" fill="#fff"/>
        <rect id="Rectángulo_301490" data-name="Rectángulo 301490" width="21.674" height="2.122" rx="1.061" transform="translate(18.578 17.304)" fill="#fff"/>
        <rect id="Rectángulo_301491" data-name="Rectángulo 301491" width="23.52" height="2.122" rx="1.061" transform="translate(8.932 30.282)" fill="#fff"/>
        <rect id="Rectángulo_301492" data-name="Rectángulo 301492" width="19.709" height="2.122" rx="1.061" transform="translate(28.462 39.097)" fill="#fff"/>
        <rect id="Rectángulo_301493" data-name="Rectángulo 301493" width="21.833" height="2.122" rx="1.061" transform="translate(37.433 43.505)" fill="#9d79b5"/>
        <rect id="Rectángulo_301494" data-name="Rectángulo 301494" width="21.833" height="2.122" rx="1.061" transform="translate(28.144 52.32)" fill="#fff"/>
        <rect id="Rectángulo_301495" data-name="Rectángulo 301495" width="25.564" height="2.122" rx="1.061" transform="translate(19.213 61.135)" fill="#fff"/>
        <rect id="Rectángulo_301496" data-name="Rectángulo 301496" width="25.564" height="2.122" rx="1.061" transform="translate(48.508 61.135)" fill="#f48e8e"/>
        <rect id="Rectángulo_301497" data-name="Rectángulo 301497" width="31.876" height="2.122" rx="1.061" transform="translate(77.804 61.135)" fill="#9d79b5"/>
        <rect id="Rectángulo_301498" data-name="Rectángulo 301498" width="28.065" height="2.122" rx="1.061" transform="translate(37.255 47.912)" fill="#fff"/>
        <rect id="Rectángulo_301499" data-name="Rectángulo 301499" width="58.849" height="2.122" rx="1.061" transform="translate(80.841 47.912)" fill="#fff"/>
        <rect id="Rectángulo_301500" data-name="Rectángulo 301500" width="21.833" height="2.122" rx="1.061" transform="translate(95.548 43.505)" fill="#9d79b5"/>
        <rect id="Rectángulo_301501" data-name="Rectángulo 301501" width="31.212" height="2.122" rx="1.061" transform="translate(62.669 43.505)" fill="#f48e8e"/>
        <path id="Rectángulo_301502" data-name="Rectángulo 301502" d="M1.061,0H18.648a1.061,1.061,0,0,1,1.061,1.061v0a1.061,1.061,0,0,1-1.061,1.061H1.061A1.061,1.061,0,0,1,0,1.061v0A1.061,1.061,0,0,1,1.061,0Z" transform="translate(79.908 39.097)" fill="#fff"/>
        <rect id="Rectángulo_301503" data-name="Rectángulo 301503" width="22.389" height="2.122" rx="1.061" transform="translate(52.399 39.097)" fill="#f48e8e"/>
        <path id="Rectángulo_301504" data-name="Rectángulo 301504" d="M1.061,0H35.5A1.061,1.061,0,0,1,36.56,1.061v0A1.061,1.061,0,0,1,35.5,2.122H1.061A1.061,1.061,0,0,1,0,1.061v0A1.061,1.061,0,0,1,1.061,0Z" transform="translate(18.697 34.689)" fill="#fff"/>
        <path id="Rectángulo_301505" data-name="Rectángulo 301505" d="M1.061,0H9.3A1.061,1.061,0,0,1,10.36,1.061v0A1.061,1.061,0,0,1,9.3,2.122H1.061A1.061,1.061,0,0,1,0,1.061v0A1.061,1.061,0,0,1,1.061,0Z" transform="translate(59.782 34.689)" fill="#1d9bc2"/>
        <path id="Rectángulo_301506" data-name="Rectángulo 301506" d="M1.061,0H13.23A1.061,1.061,0,0,1,14.29,1.061v0a1.061,1.061,0,0,1-1.061,1.061H1.061A1.061,1.061,0,0,1,0,1.061v0A1.061,1.061,0,0,1,1.061,0Z" transform="translate(19.292 56.727)" fill="#fff"/>
        <path id="Rectángulo_301507" data-name="Rectángulo 301507" d="M1.061,0h14.51a1.061,1.061,0,0,1,1.061,1.061v0a1.061,1.061,0,0,1-1.061,1.061H1.061A1.061,1.061,0,0,1,0,1.061v0A1.061,1.061,0,0,1,1.061,0Z" transform="translate(28.144 64.971)" fill="#fff"/>
        <rect id="Rectángulo_301508" data-name="Rectángulo 301508" width="15.799" height="2.122" rx="1.061" transform="translate(19.213 69.379)" fill="#fff"/>
        <rect id="Rectángulo_301509" data-name="Rectángulo 301509" width="15.799" height="2.122" rx="1.061" transform="translate(18.538 73.787)" fill="#fff"/>
        <rect id="Rectángulo_301510" data-name="Rectángulo 301510" width="22.587" height="2.122" rx="1.061" transform="translate(28.144 78.113)" fill="#fff"/>
        <rect id="Rectángulo_301511" data-name="Rectángulo 301511" width="58.552" height="2.122" rx="1.061" transform="translate(28.144 82.439)" fill="#fff"/>
        <rect id="Rectángulo_301512" data-name="Rectángulo 301512" width="29.296" height="2.122" rx="1.061" transform="translate(84.672 80.235) rotate(180)" fill="#f48e8e"/>
        <rect id="Rectángulo_301513" data-name="Rectángulo 301513" width="40.956" height="2.122" rx="1.061" transform="translate(139.69 84.561) rotate(180)" fill="#fff"/>
        <rect id="Rectángulo_301514" data-name="Rectángulo 301514" width="16.791" height="2.122" rx="1.061" transform="translate(105.155 80.235) rotate(180)" fill="#fbf393"/>
        <rect id="Rectángulo_301515" data-name="Rectángulo 301515" width="26.318" height="2.122" rx="1.061" transform="translate(39.061 73.787)" fill="#f48e8e"/>
        <rect id="Rectángulo_301516" data-name="Rectángulo 301516" width="19.769" height="2.122" rx="1.061" transform="translate(68.595 73.787)" fill="#2bb99b"/>
        <rect id="Rectángulo_301517" data-name="Rectángulo 301517" width="9.269" height="2.122" rx="1.061" transform="translate(94.099 73.787)" fill="#1d9bc2"/>
        <path id="Trazado_604558" data-name="Trazado 604558" d="M886.01,1289.075H797.924c-.855,0-1.548-.475-1.548-1.061h0c0-.586.693-1.061,1.548-1.061H886.01c.855,0,1.548.475,1.548,1.061h0C887.558,1288.6,886.865,1289.075,886.01,1289.075Z" transform="translate(-747.868 -1221.982)" fill="#fff"/>
        <rect id="Rectángulo_301518" data-name="Rectángulo 301518" width="9.289" height="2.122" rx="1.061" transform="translate(103.13 39.097)" fill="#1d9bc2"/>
        <rect id="Rectángulo_301519" data-name="Rectángulo 301519" width="9.289" height="2.122" rx="1.061" transform="translate(68.476 47.912)" fill="#fff"/>
        <rect id="Rectángulo_301520" data-name="Rectángulo 301520" width="8.773" height="2.122" rx="1.061" transform="translate(121.549 43.505)" fill="#1d9bc2"/>
        <rect id="Rectángulo_301521" data-name="Rectángulo 301521" width="53.709" height="2.122" rx="1.061" transform="translate(38.465 30.282)" fill="#fff"/>
        <path id="Rectángulo_301522" data-name="Rectángulo 301522" d="M1.061,0H14.54A1.061,1.061,0,0,1,15.6,1.061v0A1.061,1.061,0,0,1,14.54,2.122H1.061A1.061,1.061,0,0,1,0,1.061v0A1.061,1.061,0,0,1,1.061,0Z" transform="translate(8.932 26.201)" fill="#fff"/>
        <path id="Rectángulo_301523" data-name="Rectángulo 301523" d="M1.061,0h8a1.061,1.061,0,0,1,1.061,1.061v0A1.061,1.061,0,0,1,9.061,2.122h-8A1.061,1.061,0,0,1,0,1.061v0A1.061,1.061,0,0,1,1.061,0Z" transform="translate(103.249 17.304)" fill="#f7f081"/>
        <path id="Rectángulo_301524" data-name="Rectángulo 301524" d="M1.061,0h8a1.061,1.061,0,0,1,1.061,1.061v0A1.061,1.061,0,0,1,9.061,2.122h-8A1.061,1.061,0,0,1,0,1.061v0A1.061,1.061,0,0,1,1.061,0Z" transform="translate(129.33 4.163)" fill="#2bb99b"/>
        <rect id="Rectángulo_301525" data-name="Rectángulo 301525" width="24.77" height="2.122" rx="1.061" transform="translate(115.396 17.304)" fill="#f48e8e"/>
        <rect id="Rectángulo_301526" data-name="Rectángulo 301526" width="53.113" height="2.122" rx="1.061" transform="translate(45.968 17.304)" fill="#f48e8e"/>
        <rect id="Rectángulo_301527" data-name="Rectángulo 301527" width="56.09" height="2.122" rx="1.061" transform="translate(18.697 21.548)" fill="#fff"/>
        <rect id="Rectángulo_301528" data-name="Rectángulo 301528" width="19.411" height="2.122" rx="1.061" transform="translate(50.255 13.059)" fill="#f48e8e"/>
        <rect id="Rectángulo_301529" data-name="Rectángulo 301529" width="61.926" height="2.122" rx="1.061" transform="translate(28.462 4.163)" fill="#f48e8e"/>
        <rect id="Rectángulo_301530" data-name="Rectángulo 301530" width="20.245" height="2.122" rx="1.061" transform="translate(96.223 4.163)" fill="#fff"/>
      </g>
    </g>
    <g id="Grupo_889674" data-name="Grupo 889674" transform="translate(775.791 -224.303)">
      <g id="Grupo_889665" data-name="Grupo 889665" transform="translate(454.209 751.325)">
        <path id="Trazado_604559" data-name="Trazado 604559" d="M568.261,641.325H512.489a4.12,4.12,0,0,0-4.12,4.12V670.8a4.12,4.12,0,0,0,4.12,4.12h16.795v10.141l13.367-10.141h25.61a4.12,4.12,0,0,0,4.12-4.12V645.445A4.12,4.12,0,0,0,568.261,641.325Z" transform="translate(-508.369 -641.325)" fill="#1565c0"/>
        <g id="Grupo_889664" data-name="Grupo 889664" transform="translate(17.447 8.995)">
          <path id="Trazado_604560" data-name="Trazado 604560" d="M584.3,687.948a8,8,0,0,1-3.269.564c-4.021,0-6.464-2.518-6.464-6.37,0-4.171,2.894-6.689,6.764-6.689a7.275,7.275,0,0,1,3.081.564l-.507,1.841a6.156,6.156,0,0,0-2.481-.489c-2.574,0-4.434,1.616-4.434,4.66,0,2.781,1.635,4.566,4.415,4.566a6.475,6.475,0,0,0,2.518-.47Z" transform="translate(-574.569 -675.453)" fill="#fff"/>
          <path id="Trazado_604561" data-name="Trazado 604561" d="M617.338,685.806a6.4,6.4,0,0,0,3.063.808c1.484,0,2.311-.7,2.311-1.729,0-.958-.639-1.522-2.255-2.1-2.085-.751-3.42-1.86-3.42-3.683,0-2.067,1.729-3.645,4.472-3.645a6.684,6.684,0,0,1,3.043.639l-.563,1.86a5.365,5.365,0,0,0-2.518-.6c-1.466,0-2.1.789-2.1,1.522,0,.977.733,1.428,2.424,2.086,2.2.827,3.269,1.935,3.269,3.758,0,2.029-1.54,3.8-4.81,3.8a7.525,7.525,0,0,1-3.419-.789Z" transform="translate(-605.693 -675.453)" fill="#fff"/>
          <path id="Trazado_604562" data-name="Trazado 604562" d="M654.33,685.806a6.4,6.4,0,0,0,3.063.808c1.484,0,2.311-.7,2.311-1.729,0-.958-.639-1.522-2.255-2.1-2.085-.751-3.419-1.86-3.419-3.683,0-2.067,1.728-3.645,4.472-3.645a6.684,6.684,0,0,1,3.043.639l-.563,1.86a5.366,5.366,0,0,0-2.518-.6c-1.465,0-2.1.789-2.1,1.522,0,.977.733,1.428,2.424,2.086,2.2.827,3.269,1.935,3.269,3.758,0,2.029-1.54,3.8-4.81,3.8a7.525,7.525,0,0,1-3.419-.789Z" transform="translate(-632.935 -675.453)" fill="#fff"/>
        </g>
      </g>
      <g id="Grupo_889667" data-name="Grupo 889667" transform="translate(539.209 729.385)">
        <path id="Trazado_604563" data-name="Trazado 604563" d="M1544.839,888.181h-70.215a5.186,5.186,0,0,0-5.186,5.187v31.916a5.186,5.186,0,0,0,5.186,5.186h21.144v12.766L1512.6,930.47h32.242a5.187,5.187,0,0,0,5.187-5.186V893.368A5.187,5.187,0,0,0,1544.839,888.181Z" transform="translate(-1469.438 -888.181)" fill="#fb8c00"/>
        <g id="Grupo_889666" data-name="Grupo 889666" transform="translate(21.386 14.719)">
          <path id="Trazado_604564" data-name="Trazado 604564" d="M1550.583,944.336a23.837,23.837,0,0,1,3.95-.307,6.549,6.549,0,0,1,4.471,1.325,4.284,4.284,0,0,1,1.395,3.335,4.691,4.691,0,0,1-1.23,3.406,6.6,6.6,0,0,1-4.873,1.751,7.074,7.074,0,0,1-1.655-.142v6.387h-2.058Zm2.058,7.688a6.913,6.913,0,0,0,1.7.166c2.484,0,4-1.206,4-3.406,0-2.105-1.49-3.122-3.761-3.122a8.612,8.612,0,0,0-1.939.166Z" transform="translate(-1550.583 -944.028)" fill="#fff"/>
          <path id="Trazado_604565" data-name="Trazado 604565" d="M1600.375,944.477v6.671h7.711v-6.671h2.082V960.42h-2.082v-7.475h-7.711v7.475h-2.058V944.477Z" transform="translate(-1585.736 -944.359)" fill="#fff"/>
          <path id="Trazado_604566" data-name="Trazado 604566" d="M1656.818,944.336a23.834,23.834,0,0,1,3.95-.307,6.548,6.548,0,0,1,4.471,1.325,4.284,4.284,0,0,1,1.395,3.335,4.69,4.69,0,0,1-1.23,3.406,6.6,6.6,0,0,1-4.873,1.751,7.077,7.077,0,0,1-1.655-.142v6.387h-2.058Zm2.058,7.688a6.916,6.916,0,0,0,1.7.166c2.485,0,4-1.206,4-3.406,0-2.105-1.49-3.122-3.762-3.122a8.615,8.615,0,0,0-1.939.166Z" transform="translate(-1628.819 -944.028)" fill="#fff"/>
        </g>
      </g>
      <g id="Grupo_889669" data-name="Grupo 889669" transform="translate(450.87 651.865)">
        <path id="Trazado_604567" data-name="Trazado 604567" d="M1081.693,681.318h-37.309a2.756,2.756,0,0,0-2.756,2.756v16.959a2.756,2.756,0,0,0,2.756,2.756h11.235v6.784l8.942-6.784h17.132a2.756,2.756,0,0,0,2.756-2.756V684.074A2.756,2.756,0,0,0,1081.693,681.318Z" transform="translate(-1041.628 -681.318)" fill="#fb8c00"/>
        <g id="Grupo_889668" data-name="Grupo 889668" transform="translate(6.784 6.156)">
          <path id="Trazado_604568" data-name="Trazado 604568" d="M1068.461,704.674v3.545h4.1v-3.545h1.106v8.471h-1.106v-3.972h-4.1v3.972h-1.093v-8.471Z" transform="translate(-1067.368 -704.674)" fill="#fff"/>
          <path id="Trazado_604569" data-name="Trazado 604569" d="M1097.358,705.6h-2.577v-.93h6.272v.93h-2.589v7.541h-1.106Z" transform="translate(-1087.556 -704.674)" fill="#fff"/>
          <path id="Trazado_604570" data-name="Trazado 604570" d="M1128.654,709.425c-.063-1.182-.138-2.6-.125-3.658h-.038c-.289.993-.641,2.049-1.068,3.217l-1.5,4.11h-.829l-1.37-4.034c-.4-1.194-.742-2.288-.98-3.293h-.026c-.025,1.056-.088,2.476-.163,3.746l-.226,3.632h-1.043l.59-8.471h1.4l1.445,4.1c.352,1.043.641,1.973.854,2.853h.038c.214-.855.516-1.785.893-2.853l1.508-4.1h1.4l.528,8.471h-1.068Z" transform="translate(-1107.078 -704.674)" fill="#fff"/>
          <path id="Trazado_604571" data-name="Trazado 604571" d="M1160.479,704.674h1.094v7.554h3.619v.917h-4.713Z" transform="translate(-1135.939 -704.674)" fill="#fff"/>
        </g>
      </g>
      <g id="Grupo_889671" data-name="Grupo 889671" transform="translate(496.852 685.53)">
        <rect id="Rectángulo_301532" data-name="Rectángulo 301532" width="42.357" height="31.1" rx="6" transform="translate(0 0)" fill="#26aab7"/>
        <g id="Grupo_889670" data-name="Grupo 889670" transform="translate(12.51 6.325)">
          <path id="Trazado_604572" data-name="Trazado 604572" d="M1295.632,841.51c1.619-.023,1.8-.9,1.8-1.642a16.968,16.968,0,0,0-.139-1.85,13.4,13.4,0,0,1-.162-1.873c0-2.173,1.388-3.1,3.446-3.1h.67v1.665h-.417c-1.2,0-1.618.67-1.618,1.8a8.3,8.3,0,0,0,.162,1.456c.046.509.139,1.063.139,1.665a2.238,2.238,0,0,1-1.85,2.59v.046a2.262,2.262,0,0,1,1.85,2.613c0,.624-.092,1.179-.139,1.688a8.293,8.293,0,0,0-.162,1.456c0,1.156.462,1.827,1.618,1.827h.417V851.5h-.67c-2.012,0-3.446-.833-3.446-3.168a13.089,13.089,0,0,1,.162-1.85,16.546,16.546,0,0,0,.139-1.826c0-.67-.185-1.618-1.8-1.642Z" transform="translate(-1295.632 -833.047)" fill="#fff"/>
          <path id="Trazado_604573" data-name="Trazado 604573" d="M1345.78,843.012c-1.6.023-1.8.971-1.8,1.642a16.664,16.664,0,0,0,.161,1.826,17.582,17.582,0,0,1,.162,1.85c0,2.335-1.433,3.168-3.445,3.168h-.671v-1.641h.416c1.156-.023,1.6-.671,1.6-1.827a11,11,0,0,0-.139-1.456,12.208,12.208,0,0,1-.139-1.688c-.023-1.619.67-2.336,1.827-2.613v-.046a2.24,2.24,0,0,1-1.827-2.59,12.148,12.148,0,0,1,.139-1.665,11.006,11.006,0,0,0,.139-1.456c0-1.133-.417-1.78-1.6-1.8h-.416v-1.665h.671c2.058,0,3.445.925,3.445,3.1a18,18,0,0,1-.162,1.873,17.088,17.088,0,0,0-.161,1.85c0,.74.208,1.618,1.8,1.642Z" transform="translate(-1328.442 -833.047)" fill="#fff"/>
        </g>
      </g>
      <g id="Grupo_889673" data-name="Grupo 889673" transform="translate(183.493 718.821)">
        <rect id="Rectángulo_301533" data-name="Rectángulo 301533" width="40.717" height="30.182" transform="translate(0 0)" fill="#b0dfe2"/>
        <rect id="Rectángulo_301534" data-name="Rectángulo 301534" width="39.779" height="28.89" transform="translate(0 0)" fill="#fff"/>
        <g id="Grupo_889672" data-name="Grupo 889672" transform="translate(6.439 7.513)">
          <path id="Trazado_604574" data-name="Trazado 604574" d="M263.885,836.349l9.064-4.4v1.721l-7.19,3.346v.039l7.19,3.366v1.7l-9.064-4.4Z" transform="translate(-263.885 -829.025)" fill="#2d4c9d"/>
          <path id="Trazado_604575" data-name="Trazado 604575" d="M303.271,834.714l4.666-13.864h1.645l-4.666,13.864Z" transform="translate(-292.891 -820.85)" fill="#2d4c9d"/>
          <path id="Trazado_604576" data-name="Trazado 604576" d="M340.624,837.765l-9.064,4.359v-1.7l7.305-3.366v-.039l-7.305-3.366v-1.7l9.064,4.36Z" transform="translate(-313.724 -829.025)" fill="#2d4c9d"/>
        </g>
      </g>
    </g>
  </g>
</svg>
