<svg id="Grupo_889890" data-name="Grupo 889890" xmlns="http://www.w3.org/2000/svg" xmlns:xlink="http://www.w3.org/1999/xlink" width="400" height="253.097" viewBox="0 0 400 253.097">
  <defs>
    <clipPath id="clip-path">
      <rect id="Rect치ngulo_298356" data-name="Rect치ngulo 298356" width="400" height="253.096" fill="none"/>
    </clipPath>
  </defs>
  <g id="Grupo_887839" data-name="Grupo 887839" clip-path="url(#clip-path)">
    <path id="Trazado_602014" data-name="Trazado 602014" d="M390.942,253.1H9.058A9.058,9.058,0,0,1,0,244.038V9.058A9.058,9.058,0,0,1,9.058,0H390.941A9.059,9.059,0,0,1,400,9.059V244.038a9.058,9.058,0,0,1-9.058,9.058" transform="translate(0 0)" fill="#213267"/>
    <rect id="Rect치ngulo_298355" data-name="Rect치ngulo 298355" width="385.6" height="232.915" transform="translate(7.2 6.648)" fill="#224192"/>
    <path id="Trazado_602015" data-name="Trazado 602015" d="M112.614,249.669H49.158a3.243,3.243,0,0,1-3.243-3.243V37.45a3.243,3.243,0,0,1,3.243-3.243h63.455a3.243,3.243,0,0,1,3.243,3.243V246.426a3.243,3.243,0,0,1-3.243,3.243" transform="translate(-27.321 -20.354)" fill="#2d4c9d"/>
    <path id="Trazado_602016" data-name="Trazado 602016" d="M96.6,74.374H68.874a1.136,1.136,0,0,1-1.136-1.136V70.873a1.136,1.136,0,0,1,1.136-1.136H96.6a1.137,1.137,0,0,1,1.137,1.136v2.365A1.136,1.136,0,0,1,96.6,74.374" transform="translate(-40.307 -41.496)" fill="#fff"/>
    <path id="Trazado_602017" data-name="Trazado 602017" d="M111.509,100.36H68.874a1.137,1.137,0,0,1-1.137-1.136V96.859a1.137,1.137,0,0,1,1.137-1.136h42.635a1.136,1.136,0,0,1,1.136,1.136v2.365a1.136,1.136,0,0,1-1.136,1.136" transform="translate(-40.306 -56.959)" fill="#fff"/>
    <path id="Trazado_602018" data-name="Trazado 602018" d="M103.772,126.346h-34.9a1.136,1.136,0,0,1-1.136-1.136v-2.365a1.137,1.137,0,0,1,1.137-1.137h34.9a1.136,1.136,0,0,1,1.136,1.136v2.365a1.137,1.137,0,0,1-1.137,1.137" transform="translate(-40.306 -72.421)" fill="#fff"/>
    <path id="Trazado_602019" data-name="Trazado 602019" d="M85.3,152.332H68.767a1.029,1.029,0,0,1-1.029-1.029v-2.58a1.029,1.029,0,0,1,1.029-1.029H85.3a1.029,1.029,0,0,1,1.029,1.029v2.58a1.029,1.029,0,0,1-1.029,1.029" transform="translate(-40.307 -87.883)" fill="#fff"/>
    <path id="Trazado_602020" data-name="Trazado 602020" d="M91.319,178.318H68.874a1.136,1.136,0,0,1-1.137-1.136v-2.365a1.137,1.137,0,0,1,1.137-1.136H91.319a1.136,1.136,0,0,1,1.136,1.136v2.365a1.136,1.136,0,0,1-1.136,1.136" transform="translate(-40.306 -103.347)" fill="#fff"/>
    <path id="Trazado_602021" data-name="Trazado 602021" d="M101.509,204.3H68.874a1.137,1.137,0,0,1-1.136-1.137V200.8a1.136,1.136,0,0,1,1.136-1.136h32.635a1.136,1.136,0,0,1,1.137,1.136v2.365a1.137,1.137,0,0,1-1.137,1.137" transform="translate(-40.307 -118.809)" fill="#fff"/>
    <path id="Trazado_602022" data-name="Trazado 602022" d="M91.319,230.29H68.874a1.136,1.136,0,0,1-1.136-1.136v-2.365a1.136,1.136,0,0,1,1.136-1.136H91.319a1.136,1.136,0,0,1,1.136,1.136v2.365a1.136,1.136,0,0,1-1.136,1.136" transform="translate(-40.307 -134.272)" fill="#fff"/>
    <path id="Trazado_602023" data-name="Trazado 602023" d="M112.831,256.276H68.874a1.136,1.136,0,0,1-1.136-1.136v-2.365a1.136,1.136,0,0,1,1.136-1.136H112.83a1.137,1.137,0,0,1,1.137,1.136v2.365a1.136,1.136,0,0,1-1.136,1.136" transform="translate(-40.307 -149.735)" fill="#fff"/>
    <path id="Trazado_602024" data-name="Trazado 602024" d="M96.791,282.263H68.873a1.136,1.136,0,0,1-1.136-1.136v-2.365a1.137,1.137,0,0,1,1.137-1.137H96.791a1.136,1.136,0,0,1,1.136,1.136v2.365a1.137,1.137,0,0,1-1.137,1.137" transform="translate(-40.306 -165.197)" fill="#fff"/>
    <path id="Trazado_602025" data-name="Trazado 602025" d="M113.962,308.249H68.873a1.136,1.136,0,0,1-1.136-1.136v-2.365a1.137,1.137,0,0,1,1.136-1.136h45.089a1.137,1.137,0,0,1,1.136,1.137v2.365a1.136,1.136,0,0,1-1.136,1.136" transform="translate(-40.306 -180.66)" fill="#fff"/>
    <path id="Trazado_602026" data-name="Trazado 602026" d="M99.621,334.235H68.874a1.137,1.137,0,0,1-1.137-1.136v-2.365a1.137,1.137,0,0,1,1.137-1.136H99.621a1.136,1.136,0,0,1,1.136,1.136V333.1a1.136,1.136,0,0,1-1.136,1.136" transform="translate(-40.306 -196.123)" fill="#fff"/>
    <path id="Trazado_602027" data-name="Trazado 602027" d="M86.3,360.22H68.795a1.057,1.057,0,0,1-1.057-1.057V356.64a1.057,1.057,0,0,1,1.057-1.057H86.3a1.057,1.057,0,0,1,1.057,1.057v2.523A1.057,1.057,0,0,1,86.3,360.22" transform="translate(-40.307 -211.585)" fill="#fff"/>
    <path id="Trazado_602028" data-name="Trazado 602028" d="M310.382,74.374h-48.3a1.136,1.136,0,0,1-1.136-1.136V70.873a1.136,1.136,0,0,1,1.136-1.136h48.3a1.136,1.136,0,0,1,1.136,1.136v2.365a1.136,1.136,0,0,1-1.136,1.136" transform="translate(-155.275 -41.496)" fill="#fff"/>
    <path id="Trazado_602029" data-name="Trazado 602029" d="M290.315,96.836H259.756a1.137,1.137,0,0,1-1.137-1.137V93.335a1.136,1.136,0,0,1,1.136-1.136h30.56a1.136,1.136,0,0,1,1.136,1.136V95.7a1.136,1.136,0,0,1-1.136,1.136" transform="translate(-153.888 -54.862)" fill="#fff"/>
    <path id="Trazado_602030" data-name="Trazado 602030" d="M327.125,121.942H296.566a1.137,1.137,0,0,1-1.137-1.136v-2.364a1.136,1.136,0,0,1,1.137-1.136h30.559a1.136,1.136,0,0,1,1.136,1.136v2.365a1.136,1.136,0,0,1-1.136,1.136" transform="translate(-175.791 -69.801)" fill="#fff"/>
    <path id="Trazado_602031" data-name="Trazado 602031" d="M374.4,144.845H333.842a1.137,1.137,0,0,1-1.137-1.136v-2.365a1.137,1.137,0,0,1,1.137-1.137H374.4a1.137,1.137,0,0,1,1.137,1.137v2.365a1.137,1.137,0,0,1-1.137,1.136" transform="translate(-197.972 -83.428)" fill="#fff"/>
    <path id="Trazado_602032" data-name="Trazado 602032" d="M364.512,167.748H332.443a1.137,1.137,0,0,1-1.136-1.137v-2.364a1.136,1.136,0,0,1,1.136-1.136h32.069a1.136,1.136,0,0,1,1.136,1.136v2.365a1.136,1.136,0,0,1-1.136,1.136" transform="translate(-197.14 -97.057)" fill="#fff"/>
    <path id="Trazado_602033" data-name="Trazado 602033" d="M329.695,237.778H294.7a1.136,1.136,0,0,1-1.136-1.136v-2.365a1.137,1.137,0,0,1,1.137-1.136h34.993a1.136,1.136,0,0,1,1.136,1.136v2.365a1.136,1.136,0,0,1-1.136,1.136" transform="translate(-174.682 -138.728)" fill="#fff"/>
    <path id="Trazado_602034" data-name="Trazado 602034" d="M400.072,285.345H371.116a1.137,1.137,0,0,1-1.136-1.136v-2.365a1.137,1.137,0,0,1,1.137-1.136h28.955a1.136,1.136,0,0,1,1.136,1.136v2.365a1.136,1.136,0,0,1-1.136,1.136" transform="translate(-220.152 -167.032)" fill="#fff"/>
    <path id="Trazado_602035" data-name="Trazado 602035" d="M438.538,309.13h-32.32a1.137,1.137,0,0,1-1.137-1.136v-2.365a1.137,1.137,0,0,1,1.137-1.137h32.32a1.137,1.137,0,0,1,1.136,1.137v2.365a1.136,1.136,0,0,1-1.136,1.136" transform="translate(-241.038 -181.184)" fill="#9d79b5"/>
    <path id="Trazado_602036" data-name="Trazado 602036" d="M402.195,356.7H369.874a1.136,1.136,0,0,1-1.136-1.136V353.2a1.136,1.136,0,0,1,1.136-1.137h32.321a1.136,1.136,0,0,1,1.136,1.137v2.365a1.136,1.136,0,0,1-1.136,1.136" transform="translate(-219.413 -209.488)" fill="#fff"/>
    <path id="Trazado_602037" data-name="Trazado 602037" d="M373.161,404.265H334.929a1.136,1.136,0,0,1-1.137-1.136v-2.365a1.136,1.136,0,0,1,1.137-1.136h38.233a1.136,1.136,0,0,1,1.136,1.136v2.365a1.136,1.136,0,0,1-1.136,1.136" transform="translate(-198.619 -237.794)" fill="#fff"/>
    <path id="Trazado_602038" data-name="Trazado 602038" d="M487.784,404.265H449.551a1.136,1.136,0,0,1-1.136-1.136v-2.365a1.136,1.136,0,0,1,1.136-1.136h38.232a1.136,1.136,0,0,1,1.136,1.136v2.365a1.136,1.136,0,0,1-1.136,1.136" transform="translate(-266.824 -237.794)" fill="#f48e8e"/>
    <path id="Trazado_602039" data-name="Trazado 602039" d="M612.407,404.265H564.174a1.136,1.136,0,0,1-1.136-1.136v-2.365a1.136,1.136,0,0,1,1.136-1.136h48.233a1.136,1.136,0,0,1,1.136,1.136v2.365a1.136,1.136,0,0,1-1.136,1.136" transform="translate(-335.029 -237.794)" fill="#9d79b5"/>
    <path id="Trazado_602040" data-name="Trazado 602040" d="M447.714,332.914h-42.2a1.136,1.136,0,0,1-1.136-1.137v-2.365a1.136,1.136,0,0,1,1.136-1.136h42.2a1.137,1.137,0,0,1,1.136,1.136v2.365a1.137,1.137,0,0,1-1.137,1.137" transform="translate(-240.623 -195.337)" fill="#fff"/>
    <path id="Trazado_602041" data-name="Trazado 602041" d="M667.027,332.914H576.056a1.137,1.137,0,0,1-1.137-1.137v-2.365a1.137,1.137,0,0,1,1.137-1.136h90.971a1.136,1.136,0,0,1,1.137,1.136v2.365a1.137,1.137,0,0,1-1.137,1.137" transform="translate(-342.098 -195.337)" fill="#fff"/>
    <path id="Trazado_602042" data-name="Trazado 602042" d="M665.92,309.13H633.6a1.136,1.136,0,0,1-1.136-1.136v-2.365a1.137,1.137,0,0,1,1.136-1.137H665.92a1.137,1.137,0,0,1,1.136,1.137v2.365a1.136,1.136,0,0,1-1.136,1.136" transform="translate(-376.339 -181.184)" fill="#9d79b5"/>
    <path id="Trazado_602043" data-name="Trazado 602043" d="M552.135,309.13H504.953a1.137,1.137,0,0,1-1.136-1.136v-2.365a1.137,1.137,0,0,1,1.137-1.137h47.182a1.137,1.137,0,0,1,1.137,1.137v2.365a1.137,1.137,0,0,1-1.137,1.136" transform="translate(-299.79 -181.184)" fill="#f48e8e"/>
    <path id="Trazado_602044" data-name="Trazado 602044" d="M601.36,285.345H572.4a1.136,1.136,0,0,1-1.137-1.136v-2.365a1.136,1.136,0,0,1,1.137-1.136H601.36a1.136,1.136,0,0,1,1.136,1.136v2.365a1.136,1.136,0,0,1-1.136,1.136" transform="translate(-339.926 -167.032)" fill="#fff"/>
    <path id="Trazado_602045" data-name="Trazado 602045" d="M497.973,285.345h-33.2a1.136,1.136,0,0,1-1.136-1.136v-2.365a1.136,1.136,0,0,1,1.136-1.136h33.2a1.136,1.136,0,0,1,1.136,1.136v2.365a1.136,1.136,0,0,1-1.136,1.136" transform="translate(-275.881 -167.032)" fill="#f48e8e"/>
    <path id="Trazado_602046" data-name="Trazado 602046" d="M388.565,261.562H332.909a1.136,1.136,0,0,1-1.136-1.136v-2.365a1.136,1.136,0,0,1,1.136-1.136h55.655a1.136,1.136,0,0,1,1.136,1.136v2.365a1.136,1.136,0,0,1-1.136,1.136" transform="translate(-197.417 -152.88)" fill="#fff"/>
    <path id="Trazado_602047" data-name="Trazado 602047" d="M507.974,261.562H493.492a.967.967,0,0,1-.967-.967v-2.7a.967.967,0,0,1,.967-.967h14.482a.967.967,0,0,1,.967.967v2.7a.967.967,0,0,1-.967.967" transform="translate(-293.071 -152.88)" fill="#1d9bc2"/>
    <path id="Trazado_602048" data-name="Trazado 602048" d="M355.61,380.482H335.238a1.136,1.136,0,0,1-1.135-1.135V376.98a1.135,1.135,0,0,1,1.136-1.136H355.61a1.135,1.135,0,0,1,1.136,1.136v2.367a1.136,1.136,0,0,1-1.136,1.136" transform="translate(-198.804 -223.641)" fill="#fff"/>
    <path id="Trazado_602049" data-name="Trazado 602049" d="M393.955,424.966H369.875a1.137,1.137,0,0,1-1.137-1.136v-2.365a1.136,1.136,0,0,1,1.136-1.136h24.081a1.136,1.136,0,0,1,1.136,1.136v2.365a1.136,1.136,0,0,1-1.136,1.136" transform="translate(-219.413 -250.112)" fill="#fff"/>
    <path id="Trazado_602050" data-name="Trazado 602050" d="M357.688,448.75h-22.76a1.136,1.136,0,0,1-1.136-1.136v-2.365a1.136,1.136,0,0,1,1.136-1.136h22.76a1.136,1.136,0,0,1,1.136,1.136v2.365a1.136,1.136,0,0,1-1.136,1.136" transform="translate(-198.619 -264.263)" fill="#fff"/>
    <path id="Trazado_602051" data-name="Trazado 602051" d="M355.048,472.534h-22.76a1.136,1.136,0,0,1-1.136-1.136v-2.365a1.136,1.136,0,0,1,1.136-1.136h22.76a1.136,1.136,0,0,1,1.136,1.136V471.4a1.136,1.136,0,0,1-1.136,1.136" transform="translate(-197.048 -278.416)" fill="#fff"/>
    <path id="Trazado_602052" data-name="Trazado 602052" d="M403.39,495.877H369.874a1.136,1.136,0,0,1-1.136-1.136v-2.365a1.136,1.136,0,0,1,1.136-1.136H403.39a1.136,1.136,0,0,1,1.136,1.136v2.365a1.136,1.136,0,0,1-1.136,1.136" transform="translate(-219.413 -292.306)" fill="#fff"/>
    <path id="Trazado_602053" data-name="Trazado 602053" d="M460.375,519.221h-90.5a1.136,1.136,0,0,1-1.136-1.136v-2.365a1.136,1.136,0,0,1,1.136-1.136h90.5a1.136,1.136,0,0,1,1.136,1.136v2.365a1.136,1.136,0,0,1-1.136,1.136" transform="translate(-219.413 -306.196)" fill="#fff"/>
    <path id="Trazado_602054" data-name="Trazado 602054" d="M476.421,495.877h44.145a1.136,1.136,0,0,0,1.136-1.136v-2.365a1.136,1.136,0,0,0-1.136-1.136H476.421a1.136,1.136,0,0,0-1.136,1.136v2.365a1.136,1.136,0,0,0,1.136,1.136" transform="translate(-282.812 -292.306)" fill="#f48e8e"/>
    <path id="Trazado_602055" data-name="Trazado 602055" d="M646.063,519.221h62.621a1.136,1.136,0,0,0,1.136-1.136v-2.365a1.136,1.136,0,0,0-1.136-1.136H646.063a1.136,1.136,0,0,0-1.136,1.136v2.365a1.136,1.136,0,0,0,1.136,1.136" transform="translate(-383.756 -306.196)" fill="#fff"/>
    <path id="Trazado_602056" data-name="Trazado 602056" d="M605.487,495.877H629.82a1.136,1.136,0,0,0,1.136-1.136v-2.365a1.136,1.136,0,0,0-1.136-1.136H605.488a1.137,1.137,0,0,0-1.137,1.136v2.365a1.136,1.136,0,0,0,1.136,1.136" transform="translate(-359.612 -292.306)" fill="#fbf393"/>
    <path id="Trazado_602057" data-name="Trazado 602057" d="M452.014,472.534H412.586a1.136,1.136,0,0,1-1.136-1.136v-2.365a1.136,1.136,0,0,1,1.136-1.136h39.427a1.137,1.137,0,0,1,1.137,1.136V471.4a1.136,1.136,0,0,1-1.136,1.136" transform="translate(-244.828 -278.416)" fill="#f48e8e"/>
    <path id="Trazado_602058" data-name="Trazado 602058" d="M557.19,472.534h-29.05A1.137,1.137,0,0,1,527,471.4v-2.364a1.136,1.136,0,0,1,1.136-1.136h29.05a1.136,1.136,0,0,1,1.136,1.136V471.4a1.136,1.136,0,0,1-1.136,1.136" transform="translate(-313.587 -278.416)" fill="#2bb99b"/>
    <path id="Trazado_602059" data-name="Trazado 602059" d="M640.566,472.534H627.708a.914.914,0,0,1-.914-.914v-2.808a.915.915,0,0,1,.914-.915h12.858a.915.915,0,0,1,.914.915v2.808a.914.914,0,0,1-.914.914" transform="translate(-372.966 -278.416)" fill="#1d9bc2"/>
    <path id="Trazado_602060" data-name="Trazado 602060" d="M590.436,424.966H450.868a2.322,2.322,0,1,1,0-4.637H590.436a2.322,2.322,0,1,1,0,4.637" transform="translate(-266.824 -250.112)" fill="#fff"/>
    <path id="Trazado_602061" data-name="Trazado 602061" d="M675.71,285.345H663.264a1.136,1.136,0,0,1-1.136-1.136v-2.365a1.136,1.136,0,0,1,1.137-1.136H675.71a1.136,1.136,0,0,1,1.136,1.136v2.365a1.136,1.136,0,0,1-1.136,1.136" transform="translate(-393.991 -167.032)" fill="#1d9bc2"/>
    <path id="Trazado_602062" data-name="Trazado 602062" d="M540.119,332.914H527.675a1.137,1.137,0,0,1-1.137-1.137v-2.365a1.137,1.137,0,0,1,1.137-1.136h12.445a1.137,1.137,0,0,1,1.137,1.136v2.365a1.137,1.137,0,0,1-1.137,1.137" transform="translate(-313.31 -195.337)" fill="#fff"/>
    <path id="Trazado_602063" data-name="Trazado 602063" d="M746.959,309.13H735.331a1.136,1.136,0,0,1-1.136-1.136v-2.365a1.137,1.137,0,0,1,1.136-1.137h11.627a1.137,1.137,0,0,1,1.136,1.137v2.365a1.136,1.136,0,0,1-1.136,1.136" transform="translate(-436.873 -181.184)" fill="#1d9bc2"/>
    <path id="Trazado_602064" data-name="Trazado 602064" d="M493.083,237.778H410.256a1.136,1.136,0,0,1-1.136-1.136v-2.365a1.136,1.136,0,0,1,1.136-1.136h82.827a1.136,1.136,0,0,1,1.136,1.136v2.365a1.136,1.136,0,0,1-1.136,1.136" transform="translate(-243.442 -138.728)" fill="#fff"/>
    <path id="Trazado_602065" data-name="Trazado 602065" d="M317.147,215.756H294.7a1.136,1.136,0,0,1-1.136-1.136v-2.365a1.136,1.136,0,0,1,1.136-1.136h22.446a1.136,1.136,0,0,1,1.136,1.136v2.365a1.136,1.136,0,0,1-1.136,1.136" transform="translate(-174.682 -125.624)" fill="#fff"/>
    <path id="Trazado_602066" data-name="Trazado 602066" d="M677.677,167.748H663.55a.955.955,0,0,1-.956-.955v-2.726a.956.956,0,0,1,.956-.956h14.127a.955.955,0,0,1,.956.956v2.726a.956.956,0,0,1-.956.956" transform="translate(-394.268 -97.057)" fill="#f7f081"/>
    <path id="Trazado_602067" data-name="Trazado 602067" d="M779.719,96.836H765.591a.955.955,0,0,1-.955-.955V93.155a.956.956,0,0,1,.956-.956h14.127a.956.956,0,0,1,.956.956V95.88a.956.956,0,0,1-.956.956" transform="translate(-454.987 -54.862)" fill="#2bb99b"/>
    <path id="Trazado_602068" data-name="Trazado 602068" d="M748.232,167.748H711.257a1.137,1.137,0,0,1-1.137-1.137v-2.364a1.136,1.136,0,0,1,1.136-1.136h36.975a1.136,1.136,0,0,1,1.136,1.136v2.365a1.136,1.136,0,0,1-1.136,1.136" transform="translate(-422.548 -97.057)" fill="#f48e8e"/>
    <path id="Trazado_602069" data-name="Trazado 602069" d="M521.493,167.748H439.61a1.136,1.136,0,0,1-1.136-1.136v-2.365a1.136,1.136,0,0,1,1.136-1.136h81.883a1.136,1.136,0,0,1,1.136,1.136v2.365a1.136,1.136,0,0,1-1.136,1.136" transform="translate(-260.909 -97.057)" fill="#f48e8e"/>
    <path id="Trazado_602070" data-name="Trazado 602070" d="M419.51,190.651h-86.6a1.137,1.137,0,0,1-1.137-1.137v-2.365a1.136,1.136,0,0,1,1.137-1.136h86.6a1.137,1.137,0,0,1,1.137,1.136v2.365a1.137,1.137,0,0,1-1.137,1.137" transform="translate(-197.417 -110.685)" fill="#fff"/>
    <path id="Trazado_602071" data-name="Trazado 602071" d="M484.869,144.845H456.385a1.137,1.137,0,0,1-1.136-1.137v-2.365a1.136,1.136,0,0,1,1.136-1.136h28.484a1.136,1.136,0,0,1,1.136,1.136v2.365a1.137,1.137,0,0,1-1.137,1.137" transform="translate(-270.89 -83.428)" fill="#f48e8e"/>
    <path id="Trazado_602072" data-name="Trazado 602072" d="M466.963,96.836H371.117a1.136,1.136,0,0,1-1.136-1.136V93.335a1.136,1.136,0,0,1,1.136-1.136h95.846a1.136,1.136,0,0,1,1.136,1.136V95.7a1.136,1.136,0,0,1-1.136,1.136" transform="translate(-220.153 -54.862)" fill="#f48e8e"/>
    <path id="Trazado_602073" data-name="Trazado 602073" d="M666.044,96.836h-29.8A1.137,1.137,0,0,1,635.1,95.7V93.335A1.136,1.136,0,0,1,636.24,92.2h29.8a1.136,1.136,0,0,1,1.136,1.136V95.7a1.136,1.136,0,0,1-1.136,1.136" transform="translate(-377.91 -54.862)" fill="#fff"/>
    <path id="Trazado_602074" data-name="Trazado 602074" d="M37.552,605.381a1.937,1.937,0,1,1-1.934-1.828,1.883,1.883,0,0,1,1.934,1.828" transform="translate(-20.043 -359.137)" fill="#fff"/>
    <path id="Trazado_602075" data-name="Trazado 602075" d="M53.586,605.381a1.937,1.937,0,1,1-1.934-1.828,1.883,1.883,0,0,1,1.934,1.828" transform="translate(-29.584 -359.137)" fill="#fff"/>
    <path id="Trazado_602076" data-name="Trazado 602076" d="M69.619,605.381a1.937,1.937,0,1,1-1.934-1.828,1.883,1.883,0,0,1,1.934,1.828" transform="translate(-39.124 -359.137)" fill="#fff"/>
  </g>
</svg>
