<svg id="logo-javascript" xmlns="http://www.w3.org/2000/svg" width="50.801" height="50.801" viewBox="0 0 50.801 50.801">
  <path id="Trazado_605752" data-name="Trazado 605752" d="M0,0H50.8V50.8H0Z" fill="#f0db4f"/>
  <path id="Trazado_605753" data-name="Trazado 605753" d="M309.791,492.876c-.372-2.318-1.883-4.264-6.36-6.08-1.555-.715-3.289-1.227-3.805-2.4a2.623,2.623,0,0,1-.092-1.487c.333-1.347,1.941-1.767,3.216-1.381a3.539,3.539,0,0,1,2.067,1.917c2.192-1.42,2.188-1.41,3.718-2.386a9.475,9.475,0,0,0-1.227-1.642c-1.318-1.473-3.115-2.231-5.988-2.173-.5.063-1,.13-1.5.193a6.79,6.79,0,0,0-3.6,2.125,6.651,6.651,0,0,0,1.207,9.47c2.883,2.163,7.118,2.656,7.659,4.679.526,2.477-1.82,3.279-4.153,2.994a5.443,5.443,0,0,1-3.709-2.82c-1.9,1.1-1.9,1.1-3.858,2.226a8.585,8.585,0,0,0,1.729,2.352c3.68,3.733,12.888,3.549,14.54-2.1A6.976,6.976,0,0,0,309.791,492.876Zm-19.026-15.337h-4.752c0,4.1-.019,8.18-.019,12.285,0,2.612.135,5.008-.29,5.742-.7,1.444-2.5,1.265-3.318.985a4.078,4.078,0,0,1-1.753-1.82,2.448,2.448,0,0,0-.271-.435q-1.934,1.181-3.863,2.366a7.635,7.635,0,0,0,2.8,3.206,9.224,9.224,0,0,0,6.79.835,6,6,0,0,0,3.834-3c1.082-1.994.85-4.409.84-7.079C290.789,486.265,290.765,481.91,290.765,477.539Z" transform="translate(-263.148 -454.191)" fill="#323330"/>
</svg>
