<svg xmlns="http://www.w3.org/2000/svg" width="422" height="418.183" viewBox="0 0 422 418.183">
  <g id="Grupo_893192" data-name="Grupo 893192" transform="translate(3419.5 7929.183)">
    <g id="Grupo_890404" data-name="Grupo 890404" transform="translate(-3418.5 -7928.183)">
      <g id="Grupo_890403" data-name="Grupo 890403" transform="translate(0 0)">
        <rect id="Rectángulo_301915" data-name="Rectángulo 301915" width="420" height="416.182" rx="18" transform="translate(0)" fill="#fff" stroke="#26aab7" stroke-miterlimit="10" stroke-width="2"/>
        <g id="Grupo_890243" data-name="Grupo 890243" transform="translate(270.544 136.02)">
          <rect id="Rectángulo_301916" data-name="Rectángulo 301916" width="35.67" height="35.67" transform="matrix(0.999, 0.039, -0.039, 0.999, 1.38, 0.906)" fill="#a5a3a2"/>
          <g id="Grupo_890242" data-name="Grupo 890242" transform="translate(1.442 0)">
            <rect id="Rectángulo_301917" data-name="Rectángulo 301917" width="35.67" height="35.67" fill="#e4eef8"/>
            <g id="Grupo_890240" data-name="Grupo 890240" transform="translate(4.317 16.97)">
              <path id="Trazado_606152" data-name="Trazado 606152" d="M1934.388,1163.407H1909.24a.866.866,0,0,1-.865-.865h0a.866.866,0,0,1,.865-.866h25.148a.865.865,0,0,1,.865.866h0A.865.865,0,0,1,1934.388,1163.407Z" transform="translate(-1908.375 -1161.676)" fill="#828282"/>
            </g>
            <g id="Grupo_890241" data-name="Grupo 890241" transform="translate(4.317 25.081)">
              <path id="Trazado_606153" data-name="Trazado 606153" d="M1934.388,1210.27H1909.24a.865.865,0,0,1-.865-.865h0a.866.866,0,0,1,.865-.866h25.148a.865.865,0,0,1,.865.866h0A.865.865,0,0,1,1934.388,1210.27Z" transform="translate(-1908.375 -1208.539)" fill="#828282"/>
            </g>
            <path id="Trazado_606154" data-name="Trazado 606154" d="M1936.486,1108.939h-24.9a.865.865,0,0,1-.865-.865h0a.865.865,0,0,1,.865-.865h24.9a.866.866,0,0,1,.866.865h0A.866.866,0,0,1,1936.486,1108.939Z" transform="translate(-1905.995 -1099.666)" fill="#828282"/>
          </g>
        </g>
        <g id="Grupo_890254" data-name="Grupo 890254" transform="translate(80.332 198.623)">
          <path id="Trazado_606160" data-name="Trazado 606160" d="M812.651,1432.789l-34.95-.8-1.525,35.645,35.661.813Z" transform="translate(-776.176 -1430.837)" fill="#a5a3a2"/>
          <g id="Grupo_890253" data-name="Grupo 890253" transform="translate(1.167 0)">
            <rect id="Rectángulo_301924" data-name="Rectángulo 301924" width="35.67" height="35.67" fill="#1565c0"/>
            <g id="Grupo_890251" data-name="Grupo 890251" transform="translate(4.317 16.97)">
              <path id="Trazado_606161" data-name="Trazado 606161" d="M833.875,1525.09H808.727a.865.865,0,0,1-.865-.865h0a.865.865,0,0,1,.865-.865h25.148a.865.865,0,0,1,.865.865h0A.865.865,0,0,1,833.875,1525.09Z" transform="translate(-807.862 -1523.359)" fill="#fff"/>
            </g>
            <g id="Grupo_890252" data-name="Grupo 890252" transform="translate(4.317 25.081)">
              <path id="Trazado_606162" data-name="Trazado 606162" d="M833.875,1571.953H808.727a.865.865,0,0,1-.865-.865h0a.865.865,0,0,1,.865-.866h25.148a.865.865,0,0,1,.865.866h0A.865.865,0,0,1,833.875,1571.953Z" transform="translate(-807.862 -1570.222)" fill="#fff"/>
            </g>
            <path id="Trazado_606163" data-name="Trazado 606163" d="M835.974,1470.622h-24.9a.865.865,0,0,1-.865-.865h0a.865.865,0,0,1,.865-.865h24.9a.865.865,0,0,1,.865.865h0A.865.865,0,0,1,835.974,1470.622Z" transform="translate(-805.482 -1461.349)" fill="#fff"/>
          </g>
        </g>
        <g id="Grupo_890263" data-name="Grupo 890263" transform="translate(270.126 85.892)">
          <g id="Grupo_890259" data-name="Grupo 890259" transform="translate(0 1.609)">
            <rect id="Rectángulo_301926" data-name="Rectángulo 301926" width="35.323" height="34.99" transform="translate(2.049 0) rotate(3.357)" fill="#a5a3a2"/>
          </g>
          <g id="Grupo_890262" data-name="Grupo 890262" transform="translate(1.86)">
            <rect id="Rectángulo_301927" data-name="Rectángulo 301927" width="35.67" height="35.67" fill="#26aab7"/>
            <g id="Grupo_890260" data-name="Grupo 890260" transform="translate(4.723 8.868)">
              <path id="Trazado_606168" data-name="Trazado 606168" d="M1929.529,826.988h-17.946a.865.865,0,0,1-.865-.865h0a.866.866,0,0,1,.865-.865h17.946a.866.866,0,0,1,.866.865h0A.865.865,0,0,1,1929.529,826.988Z" transform="translate(-1910.718 -825.257)" fill="#fff"/>
            </g>
            <g id="Grupo_890261" data-name="Grupo 890261" transform="translate(4.723 18.706)">
              <path id="Trazado_606169" data-name="Trazado 606169" d="M1938.594,883.83h-27.011a.865.865,0,0,1-.865-.865h0a.866.866,0,0,1,.865-.865h27.011a.865.865,0,0,1,.865.865h0A.865.865,0,0,1,1938.594,883.83Z" transform="translate(-1910.718 -882.099)" fill="#fff"/>
            </g>
          </g>
        </g>
        <g id="Grupo_890278" data-name="Grupo 890278" transform="translate(325.525 245.009)">
          <g id="Grupo_890274" data-name="Grupo 890274" transform="translate(0 1.04)">
            <rect id="Rectángulo_301933" data-name="Rectángulo 301933" width="35.67" height="35.67" transform="matrix(0.999, 0.04, -0.04, 0.999, 1.422, 0)" fill="#a5a3a2"/>
          </g>
          <g id="Grupo_890277" data-name="Grupo 890277" transform="translate(1.462)">
            <rect id="Rectángulo_301934" data-name="Rectángulo 301934" width="35.67" height="35.67" fill="#cbdef4"/>
            <g id="Grupo_890275" data-name="Grupo 890275" transform="translate(4.723 8.868)">
              <path id="Trazado_606173" data-name="Trazado 606173" d="M2247.292,1746.268h-17.947a.866.866,0,0,1-.865-.866h0a.866.866,0,0,1,.865-.865h17.947a.865.865,0,0,1,.865.865h0A.865.865,0,0,1,2247.292,1746.268Z" transform="translate(-2228.479 -1744.537)" fill="#828282"/>
            </g>
            <g id="Grupo_890276" data-name="Grupo 890276" transform="translate(4.723 18.706)">
              <path id="Trazado_606174" data-name="Trazado 606174" d="M2256.356,1803.11h-27.011a.866.866,0,0,1-.865-.865h0a.866.866,0,0,1,.865-.866h27.011a.865.865,0,0,1,.865.866h0A.865.865,0,0,1,2256.356,1803.11Z" transform="translate(-2228.479 -1801.379)" fill="#828282"/>
            </g>
          </g>
        </g>
        <g id="Grupo_890283" data-name="Grupo 890283" transform="translate(202.293 135.584)">
          <g id="Grupo_890279" data-name="Grupo 890279" transform="translate(0 1.272)">
            <rect id="Rectángulo_301935" data-name="Rectángulo 301935" width="35.67" height="35.67" transform="translate(0.942 0) rotate(1.514)" fill="#a5a3a2"/>
          </g>
          <g id="Grupo_890282" data-name="Grupo 890282" transform="translate(0.93 0)">
            <rect id="Rectángulo_301936" data-name="Rectángulo 301936" width="35.67" height="35.67" fill="#b2ebf2"/>
            <g id="Grupo_890280" data-name="Grupo 890280" transform="translate(4.723 8.868)">
              <path id="Trazado_606175" data-name="Trazado 606175" d="M1532.261,1114.081h-17.947a.865.865,0,0,1-.865-.865h0a.865.865,0,0,1,.865-.866h17.947a.866.866,0,0,1,.866.866h0A.865.865,0,0,1,1532.261,1114.081Z" transform="translate(-1513.449 -1112.35)" fill="#fff"/>
            </g>
            <g id="Grupo_890281" data-name="Grupo 890281" transform="translate(4.723 18.706)">
              <path id="Trazado_606176" data-name="Trazado 606176" d="M1541.325,1170.923h-27.011a.865.865,0,0,1-.865-.866h0a.865.865,0,0,1,.865-.865h27.011a.866.866,0,0,1,.866.865h0A.865.865,0,0,1,1541.325,1170.923Z" transform="translate(-1513.449 -1169.192)" fill="#fff"/>
            </g>
          </g>
        </g>
        <g id="Grupo_890289" data-name="Grupo 890289" transform="translate(325.642 85.892)">
          <rect id="Rectángulo_301937" data-name="Rectángulo 301937" width="35.67" height="35.67" transform="matrix(0.999, 0.039, -0.039, 0.999, 1.38, 0.889)" fill="#a5a3a2"/>
          <g id="Grupo_890288" data-name="Grupo 890288" transform="translate(1.432)">
            <rect id="Rectángulo_301938" data-name="Rectángulo 301938" width="35.67" height="35.67" fill="#11c3fa"/>
            <g id="Grupo_890284" data-name="Grupo 890284" transform="translate(4.042 11.622)">
              <path id="Trazado_606177" data-name="Trazado 606177" d="M2251.058,842.9h-25.148a.866.866,0,0,1-.865-.865h0a.866.866,0,0,1,.865-.865h25.148a.866.866,0,0,1,.866.865h0A.866.866,0,0,1,2251.058,842.9Z" transform="translate(-2225.045 -841.173)" fill="#828282"/>
            </g>
            <g id="Grupo_890285" data-name="Grupo 890285" transform="translate(4.042 4.145)">
              <path id="Trazado_606178" data-name="Trazado 606178" d="M2251.058,799.7h-25.148a.866.866,0,0,1-.865-.865h0a.866.866,0,0,1,.865-.865h25.148a.866.866,0,0,1,.866.865h0A.866.866,0,0,1,2251.058,799.7Z" transform="translate(-2225.045 -797.973)" fill="#828282"/>
            </g>
            <g id="Grupo_890286" data-name="Grupo 890286" transform="translate(4.015 19.401)">
              <path id="Trazado_606179" data-name="Trazado 606179" d="M2224.893,887.127h0a.866.866,0,0,1,.861-.87l24.97-.141a.865.865,0,0,1,.871.861h0a.865.865,0,0,1-.861.87l-24.97.142A.866.866,0,0,1,2224.893,887.127Z" transform="translate(-2224.893 -886.115)" fill="#828282"/>
            </g>
            <g id="Grupo_890287" data-name="Grupo 890287" transform="translate(4.041 27.146)">
              <path id="Trazado_606180" data-name="Trazado 606180" d="M2225.043,932.07h0a.865.865,0,0,1,.854-.877l25.148-.334a.865.865,0,0,1,.877.854h0a.866.866,0,0,1-.854.877l-25.148.334A.865.865,0,0,1,2225.043,932.07Z" transform="translate(-2225.043 -930.86)" fill="#828282"/>
            </g>
          </g>
        </g>
        <g id="Grupo_890295" data-name="Grupo 890295" transform="translate(33.598 198.185)">
          <rect id="Rectángulo_301939" data-name="Rectángulo 301939" width="35.67" height="35.67" transform="translate(0.813 0.902) rotate(1.307)" fill="#a5a3a2"/>
          <g id="Grupo_890294" data-name="Grupo 890294" transform="translate(0.871)">
            <rect id="Rectángulo_301940" data-name="Rectángulo 301940" width="35.67" height="35.67" fill="#26aab7"/>
            <g id="Grupo_890290" data-name="Grupo 890290" transform="translate(4.041 11.622)">
              <path id="Trazado_606181" data-name="Trazado 606181" d="M560.57,1491.663H535.422a.865.865,0,0,1-.865-.865h0a.866.866,0,0,1,.865-.866H560.57a.865.865,0,0,1,.865.866h0A.865.865,0,0,1,560.57,1491.663Z" transform="translate(-534.557 -1489.932)" fill="#fff"/>
            </g>
            <g id="Grupo_890291" data-name="Grupo 890291" transform="translate(4.041 4.145)">
              <path id="Trazado_606182" data-name="Trazado 606182" d="M560.57,1448.463H535.422a.865.865,0,0,1-.865-.865h0a.865.865,0,0,1,.865-.865H560.57a.865.865,0,0,1,.865.865h0A.865.865,0,0,1,560.57,1448.463Z" transform="translate(-534.557 -1446.732)" fill="#fff"/>
            </g>
            <g id="Grupo_890292" data-name="Grupo 890292" transform="translate(4.015 19.401)">
              <path id="Trazado_606183" data-name="Trazado 606183" d="M534.4,1535.886h0a.865.865,0,0,1,.861-.87l24.971-.141a.865.865,0,0,1,.87.86h0a.866.866,0,0,1-.861.871l-24.971.141A.866.866,0,0,1,534.4,1535.886Z" transform="translate(-534.405 -1534.875)" fill="#fff"/>
            </g>
            <g id="Grupo_890293" data-name="Grupo 890293" transform="translate(4.041 27.146)">
              <path id="Trazado_606184" data-name="Trazado 606184" d="M534.556,1580.83h0a.865.865,0,0,1,.854-.877l25.148-.333a.865.865,0,0,1,.877.854h0a.865.865,0,0,1-.854.877l-25.148.334A.866.866,0,0,1,534.556,1580.83Z" transform="translate(-534.556 -1579.619)" fill="#fff"/>
            </g>
          </g>
        </g>
        <g id="Grupo_890324" data-name="Grupo 890324" transform="translate(284.326 181.118)">
          <rect id="Rectángulo_301947" data-name="Rectángulo 301947" width="35.67" height="35.67" transform="matrix(0.999, 0.039, -0.039, 0.999, 1.38, 5.396)" fill="#a5a3a2"/>
          <g id="Grupo_890318" data-name="Grupo 890318" transform="translate(1.432 4.506)">
            <rect id="Rectángulo_301948" data-name="Rectángulo 301948" width="35.67" height="35.67" fill="#b2ebf2"/>
            <g id="Grupo_890314" data-name="Grupo 890314" transform="translate(4.042 11.622)">
              <path id="Trazado_606197" data-name="Trazado 606197" d="M2012.363,1419.1h-25.147a.865.865,0,0,1-.865-.865h0a.865.865,0,0,1,.865-.865h25.147a.866.866,0,0,1,.866.865h0A.866.866,0,0,1,2012.363,1419.1Z" transform="translate(-1986.351 -1417.366)" fill="#828282"/>
            </g>
            <g id="Grupo_890315" data-name="Grupo 890315" transform="translate(4.042 4.145)">
              <path id="Trazado_606198" data-name="Trazado 606198" d="M2012.363,1375.9h-25.147a.865.865,0,0,1-.865-.866h0a.865.865,0,0,1,.865-.865h25.147a.866.866,0,0,1,.866.865h0A.866.866,0,0,1,2012.363,1375.9Z" transform="translate(-1986.351 -1374.166)" fill="#828282"/>
            </g>
            <g id="Grupo_890316" data-name="Grupo 890316" transform="translate(4.015 19.401)">
              <path id="Trazado_606199" data-name="Trazado 606199" d="M1986.2,1463.319h0a.865.865,0,0,1,.86-.87l24.971-.142a.865.865,0,0,1,.87.861h0a.865.865,0,0,1-.86.87l-24.971.141A.865.865,0,0,1,1986.2,1463.319Z" transform="translate(-1986.198 -1462.307)" fill="#828282"/>
            </g>
            <g id="Grupo_890317" data-name="Grupo 890317" transform="translate(4.041 27.146)">
              <path id="Trazado_606200" data-name="Trazado 606200" d="M1986.348,1508.263h0a.865.865,0,0,1,.854-.877l25.148-.334a.866.866,0,0,1,.877.854h0a.866.866,0,0,1-.854.877l-25.148.334A.866.866,0,0,1,1986.348,1508.263Z" transform="translate(-1986.348 -1507.052)" fill="#828282"/>
            </g>
          </g>
          <path id="Trazado_606201" data-name="Trazado 606201" d="M2121.634,1341.456l-34.177,7.059,7.216,34.933,34.933-7.215Z" transform="translate(-2064.483 -1338.467)" fill="#a5a3a2"/>
          <g id="Grupo_890323" data-name="Grupo 890323" transform="translate(22.225 0)">
            <rect id="Rectángulo_301949" data-name="Rectángulo 301949" width="35.67" height="35.67" transform="matrix(0.966, -0.257, 0.257, 0.966, 0, 9.178)" fill="#fb8c00"/>
            <g id="Grupo_890319" data-name="Grupo 890319" transform="translate(7.089 12.647)">
              <path id="Trazado_606202" data-name="Trazado 606202" d="M2149.473,1398.949l-24.3,6.47a.866.866,0,0,1-1.059-.614h0a.866.866,0,0,1,.614-1.059l24.3-6.47a.865.865,0,0,1,1.059.614h0A.866.866,0,0,1,2149.473,1398.949Z" transform="translate(-2124.083 -1397.248)" fill="#fff"/>
            </g>
            <g id="Grupo_890320" data-name="Grupo 890320" transform="translate(5.165 5.421)">
              <path id="Trazado_606203" data-name="Trazado 606203" d="M2138.358,1357.2l-24.3,6.47a.866.866,0,0,1-1.059-.614h0a.866.866,0,0,1,.614-1.059l24.3-6.47a.865.865,0,0,1,1.059.614h0A.865.865,0,0,1,2138.358,1357.2Z" transform="translate(-2112.969 -1355.502)" fill="#fff"/>
            </g>
            <g id="Grupo_890321" data-name="Grupo 890321" transform="translate(9.101 20.216)">
              <path id="Trazado_606204" data-name="Trazado 606204" d="M2135.741,1448.633h0a.865.865,0,0,1,.607-1.062l24.094-6.561a.865.865,0,0,1,1.062.608h0a.865.865,0,0,1-.607,1.062l-24.094,6.562A.865.865,0,0,1,2135.741,1448.633Z" transform="translate(-2135.71 -1440.979)" fill="#fff"/>
            </g>
            <g id="Grupo_890322" data-name="Grupo 890322" transform="translate(11.169 27.648)">
              <path id="Trazado_606205" data-name="Trazado 606205" d="M2147.686,1491.807h0a.866.866,0,0,1,.6-1.067l24.216-6.793a.865.865,0,0,1,1.066.6h0a.864.864,0,0,1-.6,1.067l-24.215,6.793A.866.866,0,0,1,2147.686,1491.807Z" transform="translate(-2147.654 -1483.914)" fill="#fff"/>
            </g>
          </g>
        </g>
        <g id="Grupo_890330" data-name="Grupo 890330" transform="translate(150.963 137.167)">
          <rect id="Rectángulo_301950" data-name="Rectángulo 301950" width="35.67" height="35.67" transform="translate(1.772 0.702) rotate(2.847)" fill="#a5a3a2"/>
          <g id="Grupo_890329" data-name="Grupo 890329" transform="translate(1.728 0)">
            <rect id="Rectángulo_301951" data-name="Rectángulo 301951" width="35.67" height="35.67" fill="#fb942b"/>
            <g id="Grupo_890325" data-name="Grupo 890325" transform="translate(4.042 11.622)">
              <path id="Trazado_606206" data-name="Trazado 606206" d="M1243.585,1139.14h-25.148a.866.866,0,0,1-.866-.866h0a.866.866,0,0,1,.866-.865h25.148a.865.865,0,0,1,.865.865h0A.865.865,0,0,1,1243.585,1139.14Z" transform="translate(-1217.572 -1137.409)" fill="#828282"/>
            </g>
            <g id="Grupo_890326" data-name="Grupo 890326" transform="translate(4.041 4.145)">
              <rect id="Rectángulo_301952" data-name="Rectángulo 301952" width="26.878" height="1.731" rx="0.865" fill="#828282"/>
            </g>
            <g id="Grupo_890327" data-name="Grupo 890327" transform="translate(4.015 19.401)">
              <path id="Trazado_606207" data-name="Trazado 606207" d="M1217.42,1183.363h0a.866.866,0,0,1,.86-.87l24.971-.142a.866.866,0,0,1,.87.861h0a.866.866,0,0,1-.861.871l-24.971.141A.865.865,0,0,1,1217.42,1183.363Z" transform="translate(-1217.42 -1182.351)" fill="#828282"/>
            </g>
            <g id="Grupo_890328" data-name="Grupo 890328" transform="translate(4.041 27.146)">
              <path id="Trazado_606208" data-name="Trazado 606208" d="M1217.57,1228.307h0a.866.866,0,0,1,.854-.877l25.148-.334a.866.866,0,0,1,.877.854h0a.865.865,0,0,1-.854.877l-25.148.334A.866.866,0,0,1,1217.57,1228.307Z" transform="translate(-1217.57 -1227.096)" fill="#828282"/>
            </g>
          </g>
        </g>
        <g id="Grupo_890347" data-name="Grupo 890347" transform="translate(293.372 301.629)">
          <rect id="Rectángulo_301956" data-name="Rectángulo 301956" width="35.67" height="35.67" transform="matrix(0.999, 0.04, -0.04, 0.999, 1.422, 1.806)" fill="#a5a3a2"/>
          <g id="Grupo_890346" data-name="Grupo 890346" transform="translate(1.517 0)">
            <rect id="Rectángulo_301957" data-name="Rectángulo 301957" width="35.67" height="35.67" fill="#fb942b"/>
            <g id="Grupo_890342" data-name="Grupo 890342" transform="translate(4.041 11.622)">
              <path id="Trazado_606217" data-name="Trazado 606217" d="M2065.114,2089.3h-25.148a.865.865,0,0,1-.865-.865h0a.866.866,0,0,1,.865-.865h25.148a.865.865,0,0,1,.865.865h0A.865.865,0,0,1,2065.114,2089.3Z" transform="translate(-2039.101 -2087.571)" fill="#828282"/>
            </g>
            <g id="Grupo_890343" data-name="Grupo 890343" transform="translate(4.041 4.145)">
              <path id="Trazado_606218" data-name="Trazado 606218" d="M2065.114,2046.1h-25.148a.865.865,0,0,1-.865-.865h0a.866.866,0,0,1,.865-.865h25.148a.865.865,0,0,1,.865.865h0A.865.865,0,0,1,2065.114,2046.1Z" transform="translate(-2039.101 -2044.371)" fill="#828282"/>
            </g>
            <g id="Grupo_890344" data-name="Grupo 890344" transform="translate(4.015 19.401)">
              <path id="Trazado_606219" data-name="Trazado 606219" d="M2038.95,2133.525h0a.865.865,0,0,1,.86-.87l24.971-.141a.866.866,0,0,1,.87.861h0a.865.865,0,0,1-.86.87l-24.971.142A.865.865,0,0,1,2038.95,2133.525Z" transform="translate(-2038.95 -2132.513)" fill="#828282"/>
            </g>
            <g id="Grupo_890345" data-name="Grupo 890345" transform="translate(4.041 27.146)">
              <path id="Trazado_606220" data-name="Trazado 606220" d="M2039.1,2178.468h0a.866.866,0,0,1,.854-.877l25.148-.334a.866.866,0,0,1,.877.854h0a.865.865,0,0,1-.854.877l-25.148.334A.866.866,0,0,1,2039.1,2178.468Z" transform="translate(-2039.099 -2177.257)" fill="#828282"/>
            </g>
          </g>
        </g>
        <g id="Grupo_890352" data-name="Grupo 890352" transform="translate(35.106 82.867)">
          <rect id="Rectángulo_301958" data-name="Rectángulo 301958" width="75.236" height="35.67" transform="translate(0.813 0.925) rotate(1.307)" fill="#a5a3a2"/>
          <rect id="Rectángulo_301959" data-name="Rectángulo 301959" width="75.98" height="35.67" transform="translate(0.845 0)" fill="#26aab7"/>
          <g id="Grupo_890348" data-name="Grupo 890348" transform="translate(9.453 11.225)">
            <path id="Trazado_606221" data-name="Trazado 606221" d="M625.5,823.927H570.768a1.263,1.263,0,0,1-1.263-1.263h0a1.263,1.263,0,0,1,1.263-1.263H625.5a1.263,1.263,0,0,1,1.263,1.263h0A1.263,1.263,0,0,1,625.5,823.927Z" transform="translate(-569.505 -821.401)" fill="#fff"/>
          </g>
          <g id="Grupo_890349" data-name="Grupo 890349" transform="translate(9.453 3.747)">
            <path id="Trazado_606222" data-name="Trazado 606222" d="M625.5,780.726H570.768a1.263,1.263,0,0,1-1.263-1.263h0a1.263,1.263,0,0,1,1.263-1.263H625.5a1.263,1.263,0,0,1,1.263,1.263h0A1.263,1.263,0,0,1,625.5,780.726Z" transform="translate(-569.505 -778.2)" fill="#fff"/>
          </g>
          <g id="Grupo_890350" data-name="Grupo 890350" transform="translate(9.945 18.772)">
            <path id="Trazado_606223" data-name="Trazado 606223" d="M572.348,866.646h0a1.263,1.263,0,0,1,1.254-1.272L627.838,865a1.263,1.263,0,0,1,1.272,1.254h0a1.263,1.263,0,0,1-1.254,1.272l-54.235.373A1.263,1.263,0,0,1,572.348,866.646Z" transform="translate(-572.348 -865.002)" fill="#fff"/>
          </g>
          <g id="Grupo_890351" data-name="Grupo 890351" transform="translate(9.453 26.727)">
            <path id="Trazado_606224" data-name="Trazado 606224" d="M569.5,912.613h0a1.263,1.263,0,0,1,1.254-1.272l54.728-.376a1.263,1.263,0,0,1,1.272,1.254h0a1.263,1.263,0,0,1-1.255,1.272l-54.727.376A1.263,1.263,0,0,1,569.5,912.613Z" transform="translate(-569.505 -910.965)" fill="#fff"/>
          </g>
        </g>
        <g id="Grupo_890357" data-name="Grupo 890357" transform="translate(324.591 136.02)">
          <rect id="Rectángulo_301960" data-name="Rectángulo 301960" width="35.67" height="35.67" transform="translate(1.38 0.906) rotate(2.218)" fill="#a5a3a2"/>
          <g id="Grupo_890356" data-name="Grupo 890356" transform="translate(1.402 0)">
            <rect id="Rectángulo_301961" data-name="Rectángulo 301961" width="35.67" height="35.67" fill="#d983ed"/>
            <g id="Grupo_890353" data-name="Grupo 890353" transform="translate(4.723 15.607)">
              <path id="Trazado_606225" data-name="Trazado 606225" d="M2246.034,1155.536H2223.6a.866.866,0,0,1-.865-.865h0a.865.865,0,0,1,.865-.866h22.431a.865.865,0,0,1,.866.866h0A.866.866,0,0,1,2246.034,1155.536Z" transform="translate(-2222.738 -1153.805)" fill="#828282"/>
            </g>
            <g id="Grupo_890354" data-name="Grupo 890354" transform="translate(4.723 22.759)">
              <path id="Trazado_606226" data-name="Trazado 606226" d="M2246.034,1196.855H2223.6a.866.866,0,0,1-.865-.865h0a.866.866,0,0,1,.865-.866h22.431a.866.866,0,0,1,.866.866h0A.866.866,0,0,1,2246.034,1196.855Z" transform="translate(-2222.738 -1195.124)" fill="#828282"/>
            </g>
            <g id="Grupo_890355" data-name="Grupo 890355" transform="translate(4.723 7.542)">
              <path id="Trazado_606227" data-name="Trazado 606227" d="M2239.42,1108.939H2223.6a.866.866,0,0,1-.865-.865h0a.865.865,0,0,1,.865-.865h15.816a.865.865,0,0,1,.866.865h0A.865.865,0,0,1,2239.42,1108.939Z" transform="translate(-2222.738 -1107.208)" fill="#828282"/>
            </g>
          </g>
        </g>
        <g id="Grupo_890362" data-name="Grupo 890362" transform="translate(272.155 245.447)">
          <rect id="Rectángulo_301962" data-name="Rectángulo 301962" width="35.67" height="35.67" transform="translate(1.38 1.487) rotate(2.218)" fill="#a5a3a2"/>
          <g id="Grupo_890361" data-name="Grupo 890361" transform="translate(1.452 0)">
            <rect id="Rectángulo_301963" data-name="Rectángulo 301963" width="35.67" height="35.67" fill="#b2ebf2"/>
            <g id="Grupo_890358" data-name="Grupo 890358" transform="translate(4.723 15.607)">
              <path id="Trazado_606228" data-name="Trazado 606228" d="M1943.378,1787.739h-22.43a.866.866,0,0,1-.866-.865h0a.866.866,0,0,1,.866-.865h22.43a.866.866,0,0,1,.866.865h0A.866.866,0,0,1,1943.378,1787.739Z" transform="translate(-1920.082 -1786.008)" fill="#828282"/>
            </g>
            <g id="Grupo_890359" data-name="Grupo 890359" transform="translate(4.723 22.759)">
              <path id="Trazado_606229" data-name="Trazado 606229" d="M1943.378,1829.058h-22.43a.866.866,0,0,1-.866-.865h0a.866.866,0,0,1,.866-.865h22.43a.866.866,0,0,1,.866.865h0A.866.866,0,0,1,1943.378,1829.058Z" transform="translate(-1920.082 -1827.327)" fill="#828282"/>
            </g>
            <g id="Grupo_890360" data-name="Grupo 890360" transform="translate(4.723 7.542)">
              <path id="Trazado_606230" data-name="Trazado 606230" d="M1936.764,1741.142h-15.816a.865.865,0,0,1-.866-.865h0a.865.865,0,0,1,.866-.865h15.816a.865.865,0,0,1,.866.865h0A.865.865,0,0,1,1936.764,1741.142Z" transform="translate(-1920.082 -1739.411)" fill="#828282"/>
            </g>
          </g>
        </g>
        <g id="Grupo_890379" data-name="Grupo 890379" transform="translate(144.165 76.966)">
          <rect id="Rectángulo_301969" data-name="Rectángulo 301969" width="35.67" height="35.67" transform="translate(1.772 8.062) rotate(2.847)" fill="#a5a3a2"/>
          <g id="Grupo_890375" data-name="Grupo 890375" transform="translate(1.65 7.646)">
            <rect id="Rectángulo_301970" data-name="Rectángulo 301970" width="35.67" height="35.67" fill="#b2ebf2"/>
            <g id="Grupo_890373" data-name="Grupo 890373" transform="translate(4.317 16.97)">
              <path id="Trazado_606236" data-name="Trazado 606236" d="M1205.452,866.4H1180.3a.865.865,0,0,1-.865-.866h0a.865.865,0,0,1,.865-.865h25.148a.865.865,0,0,1,.865.865h0A.865.865,0,0,1,1205.452,866.4Z" transform="translate(-1179.439 -864.669)" fill="#26aab7"/>
            </g>
            <g id="Grupo_890374" data-name="Grupo 890374" transform="translate(4.317 25.081)">
              <rect id="Rectángulo_301971" data-name="Rectángulo 301971" width="26.879" height="1.731" rx="0.865" fill="#26aab7"/>
            </g>
            <path id="Trazado_606237" data-name="Trazado 606237" d="M1207.551,811.932h-24.9a.866.866,0,0,1-.866-.866h0a.866.866,0,0,1,.866-.865h24.9a.865.865,0,0,1,.865.865h0A.865.865,0,0,1,1207.551,811.932Z" transform="translate(-1177.059 -802.659)" fill="#26aab7"/>
          </g>
          <path id="Trazado_606238" data-name="Trazado 606238" d="M1348.307,733.971l-33.923,8.8,8.357,34.683,34.527-8.96Z" transform="translate(-1285.06 -731.978)" fill="#a5a3a2"/>
          <g id="Grupo_890378" data-name="Grupo 890378" transform="translate(28.558 0)">
            <rect id="Rectángulo_301972" data-name="Rectángulo 301972" width="35.67" height="35.67" transform="translate(0 10.455) rotate(-17.044)" fill="#1565c0"/>
            <g id="Grupo_890376" data-name="Grupo 890376" transform="translate(9.317 17.751)">
              <path id="Trazado_606239" data-name="Trazado 606239" d="M1388.945,826.706l-24.043,7.371a.865.865,0,0,1-1.081-.574h0a.865.865,0,0,1,.574-1.081l24.043-7.371a.865.865,0,0,1,1.081.574h0A.865.865,0,0,1,1388.945,826.706Z" transform="translate(-1363.783 -825.013)" fill="#e4eef8"/>
            </g>
            <g id="Grupo_890377" data-name="Grupo 890377" transform="translate(11.694 25.507)">
              <path id="Trazado_606240" data-name="Trazado 606240" d="M1402.681,871.512l-24.043,7.371a.865.865,0,0,1-1.081-.574h0a.866.866,0,0,1,.574-1.081l24.043-7.371a.866.866,0,0,1,1.081.574h0A.866.866,0,0,1,1402.681,871.512Z" transform="translate(-1377.519 -869.818)" fill="#e4eef8"/>
            </g>
            <path id="Trazado_606241" data-name="Trazado 606241" d="M1374.988,774.357l-23.81,7.3a.866.866,0,0,1-1.081-.574h0a.866.866,0,0,1,.574-1.081l23.81-7.3a.865.865,0,0,1,1.081.574h0A.866.866,0,0,1,1374.988,774.357Z" transform="translate(-1343.117 -763.974)" fill="#e4eef8"/>
          </g>
        </g>
        <g id="Grupo_890385" data-name="Grupo 890385" transform="translate(35.045 136.02)">
          <rect id="Rectángulo_301973" data-name="Rectángulo 301973" width="75.98" height="35.67" transform="translate(0.813 1.157) rotate(1.307)" fill="#a5a3a2"/>
          <g id="Grupo_890384" data-name="Grupo 890384" transform="translate(0.906 0)">
            <g id="Grupo_890382" data-name="Grupo 890382">
              <rect id="Rectángulo_301974" data-name="Rectángulo 301974" width="75.98" height="35.67" fill="#fb8c00"/>
              <g id="Grupo_890380" data-name="Grupo 890380" transform="translate(9.196 16.572)">
                <path id="Trazado_606242" data-name="Trazado 606242" d="M628.889,1161.9H574.161a1.263,1.263,0,0,1-1.263-1.263h0a1.263,1.263,0,0,1,1.263-1.263h54.727a1.263,1.263,0,0,1,1.263,1.263h0A1.263,1.263,0,0,1,628.889,1161.9Z" transform="translate(-572.898 -1159.378)" fill="#fff"/>
              </g>
              <g id="Grupo_890381" data-name="Grupo 890381" transform="translate(9.196 24.684)">
                <rect id="Rectángulo_301975" data-name="Rectángulo 301975" width="57.253" height="2.526" rx="1.263" fill="#fff"/>
              </g>
            </g>
            <g id="Grupo_890383" data-name="Grupo 890383" transform="translate(9.623 7.144)">
              <path id="Trazado_606243" data-name="Trazado 606243" d="M630.839,1107.436H576.631a1.263,1.263,0,0,1-1.263-1.263h0a1.263,1.263,0,0,1,1.263-1.263h54.207a1.263,1.263,0,0,1,1.263,1.263h0A1.263,1.263,0,0,1,630.839,1107.436Z" transform="translate(-575.368 -1104.91)" fill="#fff"/>
            </g>
          </g>
        </g>
        <g id="Grupo_890402" data-name="Grupo 890402" transform="translate(171.356 184.011)">
          <rect id="Rectángulo_301979" data-name="Rectángulo 301979" width="35.67" height="35.67" transform="translate(0.942 14.986) rotate(1.514)" fill="#a5a3a2"/>
          <g id="Grupo_890397" data-name="Grupo 890397" transform="translate(0.93 13.851)">
            <rect id="Rectángulo_301980" data-name="Rectángulo 301980" width="35.67" height="35.67" fill="#e4eef8"/>
            <g id="Grupo_890394" data-name="Grupo 890394" transform="translate(4.723 15.607)">
              <path id="Trazado_606251" data-name="Trazado 606251" d="M1358.01,1512.82h-22.43a.866.866,0,0,1-.866-.865h0a.866.866,0,0,1,.866-.865h22.43a.865.865,0,0,1,.865.865h0A.865.865,0,0,1,1358.01,1512.82Z" transform="translate(-1334.714 -1511.089)" fill="#828282"/>
            </g>
            <g id="Grupo_890395" data-name="Grupo 890395" transform="translate(4.723 22.759)">
              <rect id="Rectángulo_301981" data-name="Rectángulo 301981" width="24.161" height="1.731" rx="0.865" fill="#828282"/>
            </g>
            <g id="Grupo_890396" data-name="Grupo 890396" transform="translate(4.723 7.542)">
              <path id="Trazado_606252" data-name="Trazado 606252" d="M1351.4,1466.224H1335.58a.866.866,0,0,1-.866-.865h0a.866.866,0,0,1,.866-.865H1351.4a.866.866,0,0,1,.866.865h0A.866.866,0,0,1,1351.4,1466.224Z" transform="translate(-1334.714 -1464.493)" fill="#828282"/>
            </g>
          </g>
          <path id="Trazado_606253" data-name="Trazado 606253" d="M1493.814,1354.879l-30.755,16.048,15.118,31.913,31.8-16.162Z" transform="translate(-1435.192 -1352.459)" fill="#a5a3a2"/>
          <g id="Grupo_890401" data-name="Grupo 890401" transform="translate(26.398 0)">
            <rect id="Rectángulo_301982" data-name="Rectángulo 301982" width="35.67" height="35.67" transform="translate(0 18.041) rotate(-30.383)" fill="#cbdef4"/>
            <g id="Grupo_890398" data-name="Grupo 890398" transform="translate(12.287 17.215)">
              <path id="Trazado_606254" data-name="Trazado 606254" d="M1546.2,1441.967l-19.35,11.345a.865.865,0,0,1-1.184-.309h0a.865.865,0,0,1,.309-1.184l19.35-11.345a.865.865,0,0,1,1.185.309h0A.866.866,0,0,1,1546.2,1441.967Z" transform="translate(-1525.552 -1440.354)" fill="#828282"/>
            </g>
            <g id="Grupo_890399" data-name="Grupo 890399" transform="translate(15.904 23.385)">
              <path id="Trazado_606255" data-name="Trazado 606255" d="M1567.1,1477.611l-19.349,11.345a.866.866,0,0,1-1.185-.309h0a.866.866,0,0,1,.309-1.184l19.35-11.345a.865.865,0,0,1,1.184.309h0A.865.865,0,0,1,1567.1,1477.611Z" transform="translate(-1546.45 -1475.999)" fill="#828282"/>
            </g>
            <g id="Grupo_890400" data-name="Grupo 890400" transform="translate(8.207 13.603)">
              <path id="Trazado_606256" data-name="Trazado 606256" d="M1516.931,1421.1l-13.644,8a.865.865,0,0,1-1.184-.309h0a.865.865,0,0,1,.309-1.184l13.644-8a.866.866,0,0,1,1.185.309h0A.866.866,0,0,1,1516.931,1421.1Z" transform="translate(-1501.984 -1419.484)" fill="#828282"/>
            </g>
          </g>
        </g>
      </g>
      <path id="Trazado_606257" data-name="Trazado 606257" d="M10.828-5.1a7.2,7.2,0,0,1-.541,2.908,4.992,4.992,0,0,1-1.5,1.981l1.985,1.559L9.2,2.733,6.661.69a5.383,5.383,0,0,1-.9.074A4.969,4.969,0,0,1,3.109.05,4.741,4.741,0,0,1,1.3-1.988,7,7,0,0,1,.656-5.036v-.591a7.172,7.172,0,0,1,.636-3.1,4.733,4.733,0,0,1,1.8-2.059,4.942,4.942,0,0,1,2.654-.718A4.942,4.942,0,0,1,8.4-10.79a4.733,4.733,0,0,1,1.8,2.059,7.152,7.152,0,0,1,.636,3.1ZM8.334-5.643A5.026,5.026,0,0,0,7.662-8.5a2.192,2.192,0,0,0-1.92-.976,2.193,2.193,0,0,0-1.911.964A4.969,4.969,0,0,0,3.15-5.684V-5.1a5.089,5.089,0,0,0,.673,2.838A2.186,2.186,0,0,0,5.759-1.254a2.167,2.167,0,0,0,1.9-.972A5.059,5.059,0,0,0,8.334-5.06ZM17.793-.3A2.973,2.973,0,0,1,15.364.764a2.8,2.8,0,0,1-2.178-.82,3.5,3.5,0,0,1-.767-2.4V-8.276H14.79v5.734q0,1.386,1.263,1.386a1.712,1.712,0,0,0,1.657-.837V-8.276h2.379V.6H17.858ZM25.963.764a4.357,4.357,0,0,1-3.179-1.2,4.257,4.257,0,0,1-1.226-3.191v-.23a5.362,5.362,0,0,1,.517-2.391A3.793,3.793,0,0,1,23.539-7.87,4.11,4.11,0,0,1,25.7-8.44a3.684,3.684,0,0,1,2.867,1.148,4.667,4.667,0,0,1,1.046,3.257v.968H23.961a2.2,2.2,0,0,0,.693,1.395,2.1,2.1,0,0,0,1.464.525A2.559,2.559,0,0,0,28.26-2.14l1.165,1.3A3.559,3.559,0,0,1,27.981.342,4.737,4.737,0,0,1,25.963.764ZM25.692-6.52a1.485,1.485,0,0,0-1.144.476,2.458,2.458,0,0,0-.562,1.362h3.3v-.189a1.752,1.752,0,0,0-.427-1.218A1.532,1.532,0,0,0,25.692-6.52ZM25.905-12h2.584L26.217-9.457H24.289Zm11.55,4.692A2.959,2.959,0,0,1,39.826-8.44q2.887,0,2.929,3.355V.6H40.384V-5.019a1.649,1.649,0,0,0-.328-1.128,1.407,1.407,0,0,0-1.091-.365,1.614,1.614,0,0,0-1.509.8V.6H35.085V-12h2.371ZM49.686.6a2.633,2.633,0,0,1-.238-.8,2.868,2.868,0,0,1-2.239.96A3.151,3.151,0,0,1,45.047.009a2.427,2.427,0,0,1-.857-1.9,2.508,2.508,0,0,1,1.046-2.166,5.161,5.161,0,0,1,3.023-.763H49.35v-.509a1.463,1.463,0,0,0-.316-.984,1.242,1.242,0,0,0-1-.369A1.412,1.412,0,0,0,47.1-6.4a.975.975,0,0,0-.34.788H44.387a2.381,2.381,0,0,1,.476-1.427,3.145,3.145,0,0,1,1.345-1.029,4.9,4.9,0,0,1,1.952-.373,3.874,3.874,0,0,1,2.6.824A2.884,2.884,0,0,1,51.729-5.3v3.847A4.243,4.243,0,0,0,52.082.461V.6ZM47.726-1.049a2.042,2.042,0,0,0,.968-.234,1.536,1.536,0,0,0,.656-.628V-3.436h-.886q-1.78,0-1.895,1.23l-.008.139a.949.949,0,0,0,.312.73A1.211,1.211,0,0,0,47.726-1.049Zm9.516-.1a1.555,1.555,0,0,0,1.066-.361,1.265,1.265,0,0,0,.427-.96h2.223a3.041,3.041,0,0,1-.492,1.653A3.248,3.248,0,0,1,59.14.35a4.146,4.146,0,0,1-1.858.414,3.853,3.853,0,0,1-3-1.21,4.788,4.788,0,0,1-1.1-3.343v-.156a4.733,4.733,0,0,1,1.091-3.273A3.808,3.808,0,0,1,57.266-8.44a3.733,3.733,0,0,1,2.67.947A3.355,3.355,0,0,1,60.957-4.97H58.734a1.616,1.616,0,0,0-.427-1.12,1.426,1.426,0,0,0-1.083-.431,1.429,1.429,0,0,0-1.251.6,3.49,3.49,0,0,0-.422,1.956v.246a3.534,3.534,0,0,0,.418,1.969A1.447,1.447,0,0,0,57.241-1.147ZM66.4.764a4.357,4.357,0,0,1-3.179-1.2,4.257,4.257,0,0,1-1.226-3.191v-.23a5.362,5.362,0,0,1,.517-2.391A3.793,3.793,0,0,1,63.972-7.87a4.11,4.11,0,0,1,2.162-.57A3.684,3.684,0,0,1,69-7.291a4.667,4.667,0,0,1,1.046,3.257v.968H64.395a2.2,2.2,0,0,0,.693,1.395,2.1,2.1,0,0,0,1.464.525,2.559,2.559,0,0,0,2.141-.993l1.165,1.3A3.559,3.559,0,0,1,68.414.342,4.737,4.737,0,0,1,66.4.764ZM66.125-6.52a1.485,1.485,0,0,0-1.144.476,2.458,2.458,0,0,0-.562,1.362h3.3v-.189A1.752,1.752,0,0,0,67.29-6.09,1.532,1.532,0,0,0,66.125-6.52Zm10.254.468a6.441,6.441,0,0,0-.853-.066,1.736,1.736,0,0,0-1.764.911V.6H71.392V-8.276h2.239L73.7-7.218A2.2,2.2,0,0,1,75.674-8.44a2.484,2.484,0,0,1,.738.107Z" transform="translate(31.533 49.111)" fill="#26aab7"/>
      <path id="Trazado_606258" data-name="Trazado 606258" d="M10.736.6H8.275V-4.519h-4.8V.6H1.016V-11.344H3.477V-6.5h4.8v-4.84h2.461Zm7.137,0a2.633,2.633,0,0,1-.238-.8A2.868,2.868,0,0,1,15.4.764,3.151,3.151,0,0,1,13.234.009a2.427,2.427,0,0,1-.857-1.9,2.508,2.508,0,0,1,1.046-2.166,5.161,5.161,0,0,1,3.023-.763h1.091v-.509a1.463,1.463,0,0,0-.316-.984,1.242,1.242,0,0,0-1-.369,1.412,1.412,0,0,0-.939.287.975.975,0,0,0-.34.788H12.574a2.381,2.381,0,0,1,.476-1.427,3.145,3.145,0,0,1,1.345-1.029,4.9,4.9,0,0,1,1.952-.373,3.874,3.874,0,0,1,2.6.824A2.884,2.884,0,0,1,19.916-5.3v3.847A4.243,4.243,0,0,0,20.268.461V.6ZM15.913-1.049a2.042,2.042,0,0,0,.968-.234,1.536,1.536,0,0,0,.656-.628V-3.436h-.886q-1.78,0-1.895,1.23l-.008.139a.949.949,0,0,0,.312.73A1.211,1.211,0,0,0,15.913-1.049Zm9.516-.1a1.555,1.555,0,0,0,1.066-.361,1.265,1.265,0,0,0,.427-.96h2.223a3.041,3.041,0,0,1-.492,1.653A3.248,3.248,0,0,1,27.327.35a4.146,4.146,0,0,1-1.858.414,3.853,3.853,0,0,1-3-1.21,4.788,4.788,0,0,1-1.1-3.343v-.156a4.733,4.733,0,0,1,1.091-3.273A3.808,3.808,0,0,1,25.453-8.44a3.733,3.733,0,0,1,2.67.947A3.355,3.355,0,0,1,29.144-4.97H26.921a1.616,1.616,0,0,0-.427-1.12,1.426,1.426,0,0,0-1.083-.431,1.429,1.429,0,0,0-1.251.6,3.49,3.49,0,0,0-.422,1.956v.246a3.534,3.534,0,0,0,.418,1.969A1.447,1.447,0,0,0,25.428-1.147ZM33,.6H30.621V-8.276H33ZM30.481-10.573a1.167,1.167,0,0,1,.357-.878,1.341,1.341,0,0,1,.972-.345,1.344,1.344,0,0,1,.968.345,1.161,1.161,0,0,1,.361.878,1.164,1.164,0,0,1-.365.886,1.347,1.347,0,0,1-.964.345,1.347,1.347,0,0,1-.964-.345A1.164,1.164,0,0,1,30.481-10.573ZM39.037.764a4.357,4.357,0,0,1-3.179-1.2,4.257,4.257,0,0,1-1.226-3.191v-.23a5.362,5.362,0,0,1,.517-2.391A3.793,3.793,0,0,1,36.613-7.87a4.11,4.11,0,0,1,2.162-.57,3.684,3.684,0,0,1,2.867,1.148,4.667,4.667,0,0,1,1.046,3.257v.968H37.036a2.2,2.2,0,0,0,.693,1.395,2.1,2.1,0,0,0,1.464.525,2.559,2.559,0,0,0,2.141-.993L42.5-.836A3.559,3.559,0,0,1,41.055.342,4.737,4.737,0,0,1,39.037.764ZM38.766-6.52a1.485,1.485,0,0,0-1.144.476,2.458,2.458,0,0,0-.562,1.362h3.3v-.189a1.753,1.753,0,0,0-.427-1.218A1.532,1.532,0,0,0,38.766-6.52Zm7.448-1.755.074,1.025A3.1,3.1,0,0,1,48.84-8.44a2.575,2.575,0,0,1,2.1.829,3.866,3.866,0,0,1,.705,2.477V.6H49.275V-5.077a1.538,1.538,0,0,0-.328-1.1,1.469,1.469,0,0,0-1.091-.34,1.631,1.631,0,0,0-1.5.853V.6H43.984V-8.276ZM53.073-3.9A5.349,5.349,0,0,1,54-7.209a3.021,3.021,0,0,1,2.547-1.23,2.718,2.718,0,0,1,2.141.968V-12h2.379V.6H58.93l-.115-.943A2.79,2.79,0,0,1,56.534.764,3.013,3.013,0,0,1,54.02-.471,5.521,5.521,0,0,1,53.073-3.9Zm2.371.172a3.494,3.494,0,0,0,.435,1.911,1.417,1.417,0,0,0,1.263.664,1.587,1.587,0,0,0,1.55-.927v-3.5a1.564,1.564,0,0,0-1.534-.927Q55.443-6.512,55.443-3.731Zm7.1-.189a5.264,5.264,0,0,1,.509-2.354,3.723,3.723,0,0,1,1.464-1.6,4.272,4.272,0,0,1,2.219-.566,4.042,4.042,0,0,1,2.933,1.1,4.412,4.412,0,0,1,1.267,2.986l.016.607a4.639,4.639,0,0,1-1.14,3.277A3.963,3.963,0,0,1,66.747.764a3.983,3.983,0,0,1-3.064-1.23,4.721,4.721,0,0,1-1.144-3.347Zm2.371.172a3.309,3.309,0,0,0,.476,1.932,1.57,1.57,0,0,0,1.362.669,1.574,1.574,0,0,0,1.345-.66,3.62,3.62,0,0,0,.484-2.112,3.276,3.276,0,0,0-.484-1.92,1.574,1.574,0,0,0-1.362-.681,1.548,1.548,0,0,0-1.345.677A3.681,3.681,0,0,0,64.91-3.748Z" transform="translate(154.401 49.111)" fill="#26aab7"/>
      <path id="Trazado_606259" data-name="Trazado 606259" d="M10.736.6H8.275V-4.519h-4.8V.6H1.016V-11.344H3.477V-6.5h4.8v-4.84h2.461Zm6.079.164a4.357,4.357,0,0,1-3.179-1.2A4.257,4.257,0,0,1,12.41-3.625v-.23a5.362,5.362,0,0,1,.517-2.391A3.793,3.793,0,0,1,14.391-7.87a4.11,4.11,0,0,1,2.162-.57,3.684,3.684,0,0,1,2.867,1.148,4.667,4.667,0,0,1,1.046,3.257v.968H14.813a2.2,2.2,0,0,0,.693,1.395,2.1,2.1,0,0,0,1.464.525,2.559,2.559,0,0,0,2.141-.993l1.165,1.3A3.559,3.559,0,0,1,18.833.342,4.737,4.737,0,0,1,16.815.764ZM16.544-6.52a1.485,1.485,0,0,0-1.144.476,2.458,2.458,0,0,0-.562,1.362h3.3v-.189a1.752,1.752,0,0,0-.427-1.218A1.532,1.532,0,0,0,16.544-6.52ZM25.5-1.147a1.555,1.555,0,0,0,1.066-.361,1.265,1.265,0,0,0,.427-.96h2.223a3.041,3.041,0,0,1-.492,1.653A3.248,3.248,0,0,1,27.4.35a4.146,4.146,0,0,1-1.858.414,3.853,3.853,0,0,1-3-1.21,4.788,4.788,0,0,1-1.1-3.343v-.156a4.733,4.733,0,0,1,1.091-3.273A3.808,3.808,0,0,1,25.527-8.44a3.733,3.733,0,0,1,2.67.947A3.355,3.355,0,0,1,29.218-4.97H26.995a1.616,1.616,0,0,0-.427-1.12,1.426,1.426,0,0,0-1.083-.431,1.429,1.429,0,0,0-1.251.6,3.49,3.49,0,0,0-.422,1.956v.246a3.534,3.534,0,0,0,.418,1.969A1.447,1.447,0,0,0,25.5-1.147Zm7.383-6.161A2.959,2.959,0,0,1,35.255-8.44q2.887,0,2.929,3.355V.6H35.813V-5.019a1.649,1.649,0,0,0-.328-1.128,1.407,1.407,0,0,0-1.091-.365,1.614,1.614,0,0,0-1.509.8V.6H30.514V-12h2.371ZM39.6-3.92a5.264,5.264,0,0,1,.509-2.354,3.723,3.723,0,0,1,1.464-1.6,4.272,4.272,0,0,1,2.219-.566,4.042,4.042,0,0,1,2.933,1.1,4.412,4.412,0,0,1,1.267,2.986l.016.607a4.639,4.639,0,0,1-1.14,3.277A3.963,3.963,0,0,1,43.811.764a3.983,3.983,0,0,1-3.064-1.23A4.721,4.721,0,0,1,39.6-3.813Zm2.371.172a3.309,3.309,0,0,0,.476,1.932,1.57,1.57,0,0,0,1.362.669,1.574,1.574,0,0,0,1.345-.66,3.62,3.62,0,0,0,.484-2.112,3.276,3.276,0,0,0-.484-1.92,1.574,1.574,0,0,0-1.362-.681,1.548,1.548,0,0,0-1.345.677A3.681,3.681,0,0,0,41.974-3.748Z" transform="translate(287.751 49.111)" fill="#26aab7"/>
    </g>
    <path id="Trazado_606260" data-name="Trazado 606260" d="M-4119.034-7571.918v338.255" transform="translate(834.316 -327.672)" fill="none" stroke="#26aab7" stroke-width="1"/>
    <path id="Trazado_606261" data-name="Trazado 606261" d="M-4119.034-7571.918v338.255" transform="translate(955.333 -327.672)" fill="none" stroke="#26aab7" stroke-width="1"/>
    <path id="Trazado_606262" data-name="Trazado 606262" d="M-4189.378-7547.221H-3848.1" transform="translate(801.663 -317.208)" fill="none" stroke="#26aab7" stroke-width="1"/>
  </g>
</svg>
