<svg xmlns="http://www.w3.org/2000/svg" width="820" height="257" viewBox="0 0 820 257">
  <g id="Grupo_893203" data-name="Grupo 893203" transform="translate(6323 5716)">
    <path id="Trazado_607167" data-name="Trazado 607167" d="M0,0H820V257H0Z" transform="translate(-6323 -5716)" fill="#ffeed8"/>
    <g id="Grupo_893201" data-name="Grupo 893201" transform="translate(-6713 -11922)">
      <path id="Trazado_606464" data-name="Trazado 606464" d="M3.359-4.008V0H1.016V-11.375H5.453a5.134,5.134,0,0,1,2.254.469A3.454,3.454,0,0,1,9.2-9.574a3.714,3.714,0,0,1,.523,1.965A3.266,3.266,0,0,1,8.582-4.973a4.767,4.767,0,0,1-3.168.965Zm0-1.9H5.453a2.059,2.059,0,0,0,1.418-.437,1.591,1.591,0,0,0,.488-1.25,1.876,1.876,0,0,0-.492-1.352,1.839,1.839,0,0,0-1.359-.531H3.359Zm12.578-.43a6.134,6.134,0,0,0-.812-.062,1.654,1.654,0,0,0-1.68.867V0H11.188V-8.453H13.32l.063,1.008a2.092,2.092,0,0,1,1.883-1.164,2.366,2.366,0,0,1,.7.1ZM16.391-4.3a5.013,5.013,0,0,1,.484-2.242A3.546,3.546,0,0,1,18.27-8.07a4.069,4.069,0,0,1,2.113-.539,3.849,3.849,0,0,1,2.793,1.047,4.2,4.2,0,0,1,1.207,2.844l.016.578A4.418,4.418,0,0,1,23.313-1.02,3.775,3.775,0,0,1,20.4.156,3.793,3.793,0,0,1,17.48-1.016,4.5,4.5,0,0,1,16.391-4.2Zm2.258.164A3.151,3.151,0,0,0,19.1-2.3a1.5,1.5,0,0,0,1.3.637,1.5,1.5,0,0,0,1.281-.629A3.448,3.448,0,0,0,22.141-4.3a3.12,3.12,0,0,0-.461-1.828,1.5,1.5,0,0,0-1.3-.648,1.475,1.475,0,0,0-1.281.645A3.506,3.506,0,0,0,18.648-4.141ZM28.172,0H25.906V-12h2.266ZM29.68-4.3a5.013,5.013,0,0,1,.484-2.242A3.546,3.546,0,0,1,31.559-8.07a4.069,4.069,0,0,1,2.113-.539,3.849,3.849,0,0,1,2.793,1.047,4.2,4.2,0,0,1,1.207,2.844l.016.578A4.418,4.418,0,0,1,36.6-1.02,3.775,3.775,0,0,1,33.688.156,3.793,3.793,0,0,1,30.77-1.016,4.5,4.5,0,0,1,29.68-4.2Zm2.258.164a3.151,3.151,0,0,0,.453,1.84,1.5,1.5,0,0,0,1.3.637,1.5,1.5,0,0,0,1.281-.629A3.448,3.448,0,0,0,35.43-4.3a3.12,3.12,0,0,0-.461-1.828,1.5,1.5,0,0,0-1.3-.648,1.475,1.475,0,0,0-1.281.645A3.506,3.506,0,0,0,31.938-4.141Zm6.813-.148a4.954,4.954,0,0,1,.926-3.133,3,3,0,0,1,2.5-1.187,2.631,2.631,0,0,1,2.164.953l.094-.8h2.047V-.281a3.613,3.613,0,0,1-.5,1.93A3.236,3.236,0,0,1,44.555,2.9a4.985,4.985,0,0,1-2.141.43A4.635,4.635,0,0,1,40.6,2.957,3.217,3.217,0,0,1,39.266,2l1-1.375a2.645,2.645,0,0,0,2.047.945,1.936,1.936,0,0,0,1.4-.48,1.8,1.8,0,0,0,.5-1.363V-.727a2.612,2.612,0,0,1-2.055.883,2.992,2.992,0,0,1-2.465-1.191A4.953,4.953,0,0,1,38.75-4.2Zm2.258.164a3.076,3.076,0,0,0,.461,1.8,1.467,1.467,0,0,0,1.266.652,1.568,1.568,0,0,0,1.477-.773V-6a1.565,1.565,0,0,0-1.461-.773,1.476,1.476,0,0,0-1.277.664A3.467,3.467,0,0,0,41.008-4.125Zm6.852-.18a5.013,5.013,0,0,1,.484-2.242A3.546,3.546,0,0,1,49.738-8.07a4.069,4.069,0,0,1,2.113-.539,3.849,3.849,0,0,1,2.793,1.047,4.2,4.2,0,0,1,1.207,2.844l.016.578A4.418,4.418,0,0,1,54.781-1.02,3.775,3.775,0,0,1,51.867.156a3.793,3.793,0,0,1-2.918-1.172A4.5,4.5,0,0,1,47.859-4.2Zm2.258.164A3.151,3.151,0,0,0,50.57-2.3a1.5,1.5,0,0,0,1.3.637,1.5,1.5,0,0,0,1.281-.629A3.448,3.448,0,0,0,53.609-4.3a3.12,3.12,0,0,0-.461-1.828,1.5,1.5,0,0,0-1.3-.648,1.475,1.475,0,0,0-1.281.645A3.506,3.506,0,0,0,50.117-4.141Z" transform="translate(475 6275)" fill="#12263f"/>
      <path id="Trazado_606465" data-name="Trazado 606465" d="M9.945-3.789A4.025,4.025,0,0,1,8.59-.9,4.76,4.76,0,0,1,5.367.156,4.28,4.28,0,0,1,1.926-1.316,6.038,6.038,0,0,1,.672-5.359v-.7A6.819,6.819,0,0,1,1.25-8.945,4.332,4.332,0,0,1,2.9-10.863a4.629,4.629,0,0,1,2.5-.668A4.637,4.637,0,0,1,8.57-10.477,4.326,4.326,0,0,1,9.961-7.516H7.617A2.376,2.376,0,0,0,7-9.113a2.271,2.271,0,0,0-1.605-.5,1.991,1.991,0,0,0-1.754.84,4.707,4.707,0,0,0-.6,2.605V-5.3a5.038,5.038,0,0,0,.559,2.7,1.954,1.954,0,0,0,1.762.852,2.314,2.314,0,0,0,1.621-.5A2.241,2.241,0,0,0,7.6-3.789ZM16.4-.859A2.831,2.831,0,0,1,14.086.156a2.67,2.67,0,0,1-2.074-.781,3.335,3.335,0,0,1-.73-2.289V-8.453h2.258v5.461q0,1.32,1.2,1.32a1.631,1.631,0,0,0,1.578-.8V-8.453h2.266V0H16.461ZM24.18.156A4.15,4.15,0,0,1,21.152-.984a4.054,4.054,0,0,1-1.168-3.039v-.219a5.106,5.106,0,0,1,.492-2.277,3.612,3.612,0,0,1,1.395-1.547,3.914,3.914,0,0,1,2.059-.543,3.508,3.508,0,0,1,2.73,1.094,4.444,4.444,0,0,1,1,3.1v.922H22.273a2.1,2.1,0,0,0,.66,1.328,2,2,0,0,0,1.395.5,2.437,2.437,0,0,0,2.039-.945l1.109,1.242A3.389,3.389,0,0,1,26.1-.246,4.511,4.511,0,0,1,24.18.156Zm-.258-6.937a1.414,1.414,0,0,0-1.09.453,2.341,2.341,0,0,0-.535,1.3h3.141v-.18a1.669,1.669,0,0,0-.406-1.16A1.459,1.459,0,0,0,23.922-6.781Zm9.766.445a6.134,6.134,0,0,0-.812-.062,1.654,1.654,0,0,0-1.68.867V0H28.938V-8.453H31.07l.063,1.008a2.092,2.092,0,0,1,1.883-1.164,2.366,2.366,0,0,1,.7.1Zm8.7,2.188A5.07,5.07,0,0,1,41.5-1.02,2.843,2.843,0,0,1,39.1.156a2.633,2.633,0,0,1-2.07-.891V3.25H34.773v-11.7h2.094l.078.828a2.654,2.654,0,0,1,2.141-.984,2.862,2.862,0,0,1,2.43,1.156,5.207,5.207,0,0,1,.867,3.188Zm-2.258-.164a3.327,3.327,0,0,0-.418-1.82,1.361,1.361,0,0,0-1.215-.641,1.478,1.478,0,0,0-1.461.813V-2.5a1.5,1.5,0,0,0,1.477.836Q40.125-1.664,40.125-4.312Zm3.3.008a5.013,5.013,0,0,1,.484-2.242A3.546,3.546,0,0,1,45.309-8.07a4.069,4.069,0,0,1,2.113-.539,3.849,3.849,0,0,1,2.793,1.047,4.2,4.2,0,0,1,1.207,2.844l.016.578A4.418,4.418,0,0,1,50.352-1.02,3.775,3.775,0,0,1,47.438.156,3.793,3.793,0,0,1,44.52-1.016,4.5,4.5,0,0,1,43.43-4.2Zm2.258.164a3.151,3.151,0,0,0,.453,1.84,1.5,1.5,0,0,0,1.3.637,1.5,1.5,0,0,0,1.281-.629A3.448,3.448,0,0,0,49.18-4.3a3.12,3.12,0,0,0-.461-1.828,1.5,1.5,0,0,0-1.3-.648,1.475,1.475,0,0,0-1.281.645A3.506,3.506,0,0,0,45.688-4.141Z" transform="translate(475 6376)" fill="#12263f"/>
      <path id="Trazado_606264" data-name="Trazado 606264" d="M509.369,580.828c0,6.65,1.913,10.75,9.019,11.569l-.182.183c-10.294-.183-13.118-3.28-13.118-13.209V565.615c0-6.1-.638-9.019-7.288-10.659v-.182c6.559-1.64,7.288-4.555,7.288-10.568V529.539c0-9.565,3.552-12.3,13.118-12.571l.182.182c-7.288,1.093-9.019,4.737-9.019,11.661v14.667c0,6.195-.82,9.748-7.652,11.3v.182c6.923,1.64,7.652,5.466,7.652,11.66Z" transform="translate(41.612 5716.726)" fill="#12263f"/>
      <path id="Trazado_606458" data-name="Trazado 606458" d="M2.191-5.346l5.2,2.1v1.627L.6-4.765V-5.977l6.79-3.138v1.627ZM15.813-3.4a4.969,4.969,0,0,1,.224-1.561,4,4,0,0,1,.847-1.27l1.087-1.121a2.516,2.516,0,0,0,.7-1.693,1.935,1.935,0,0,0-.457-1.365,1.719,1.719,0,0,0-1.328-.494,2,2,0,0,0-1.361.448,1.516,1.516,0,0,0-.515,1.2H13.472a2.8,2.8,0,0,1,.959-2.171,3.585,3.585,0,0,1,2.453-.826,3.381,3.381,0,0,1,2.445.843A3.057,3.057,0,0,1,20.2-9.1a4.181,4.181,0,0,1-1.345,2.864l-.9.9A2.794,2.794,0,0,0,17.349-3.4ZM15.747-.772a.9.9,0,0,1,.228-.627.865.865,0,0,1,.677-.253.878.878,0,0,1,.681.253.892.892,0,0,1,.232.627.862.862,0,0,1-.232.618.9.9,0,0,1-.681.245.881.881,0,0,1-.677-.245A.871.871,0,0,1,15.747-.772ZM25.052-5.7l1.992-3.279h1.793L25.9-4.541,28.928,0H27.152L25.077-3.362,23,0H21.217l3.03-4.541L21.308-8.981h1.776Zm6.856-3.279.042,1a3.317,3.317,0,0,1,2.665-1.162A2.568,2.568,0,0,1,37.179-7.7a3.4,3.4,0,0,1,1.166-1.046,3.445,3.445,0,0,1,1.7-.4q2.955,0,3,3.129V0H41.512V-5.927a2.062,2.062,0,0,0-.44-1.44,1.937,1.937,0,0,0-1.478-.477,2.036,2.036,0,0,0-1.419.51A2.071,2.071,0,0,0,37.52-5.96V0H35.976V-5.885a1.713,1.713,0,0,0-1.917-1.959,2.055,2.055,0,0,0-2.067,1.287V0H30.456V-8.981ZM47.032,0H45.5V-12.75h1.536Zm9.629-2.083,2.225-6.9h1.569L57.234,0h-1.17L52.81-8.981h1.569Zm8.89,2.25a3.924,3.924,0,0,1-2.972-1.2,4.452,4.452,0,0,1-1.146-3.208v-.282a5.39,5.39,0,0,1,.51-2.386,3.982,3.982,0,0,1,1.428-1.644,3.59,3.59,0,0,1,1.988-.594,3.364,3.364,0,0,1,2.723,1.154,5,5,0,0,1,.971,3.3v.639H62.97a3.193,3.193,0,0,0,.776,2.146,2.44,2.44,0,0,0,1.888.818,2.675,2.675,0,0,0,1.378-.332A3.462,3.462,0,0,0,68-2.3l.938.73A3.772,3.772,0,0,1,65.551.166ZM65.36-7.886a2.048,2.048,0,0,0-1.561.677,3.288,3.288,0,0,0-.78,1.9h4.5v-.116a2.925,2.925,0,0,0-.631-1.814A1.928,1.928,0,0,0,65.36-7.886Zm9.812.282a4.6,4.6,0,0,0-.755-.058,2.024,2.024,0,0,0-2.05,1.287V0H70.831V-8.981h1.494l.025,1.038a2.391,2.391,0,0,1,2.142-1.2,1.569,1.569,0,0,1,.681.116Zm6.641,5.221a1.131,1.131,0,0,0-.469-.967,4.514,4.514,0,0,0-1.635-.594,7.731,7.731,0,0,1-1.851-.6,2.633,2.633,0,0,1-1.013-.83,1.986,1.986,0,0,1-.328-1.146,2.33,2.33,0,0,1,.934-1.868,3.647,3.647,0,0,1,2.386-.764,3.753,3.753,0,0,1,2.478.789,2.5,2.5,0,0,1,.95,2.017H81.721a1.386,1.386,0,0,0-.535-1.087,2.006,2.006,0,0,0-1.349-.457,2.1,2.1,0,0,0-1.312.365,1.15,1.15,0,0,0-.473.955.932.932,0,0,0,.44.838,5.413,5.413,0,0,0,1.59.54,8.283,8.283,0,0,1,1.864.614A2.718,2.718,0,0,1,83-3.715a2.112,2.112,0,0,1,.344,1.224,2.3,2.3,0,0,1-.963,1.93,4.039,4.039,0,0,1-2.5.726,4.523,4.523,0,0,1-1.909-.382,3.105,3.105,0,0,1-1.3-1.067,2.571,2.571,0,0,1-.469-1.482h1.536a1.59,1.59,0,0,0,.618,1.224,2.4,2.4,0,0,0,1.523.452,2.476,2.476,0,0,0,1.4-.353A1.084,1.084,0,0,0,81.813-2.382ZM87.017,0H85.481V-8.981h1.536Zm-1.66-11.364a.917.917,0,0,1,.228-.631.857.857,0,0,1,.677-.257.87.87,0,0,1,.681.257.907.907,0,0,1,.232.631.877.877,0,0,1-.232.623.886.886,0,0,1-.681.249.872.872,0,0,1-.677-.249A.886.886,0,0,1,85.357-11.364Zm3.71,6.79a5.3,5.3,0,0,1,.519-2.374,3.87,3.87,0,0,1,1.444-1.627,3.932,3.932,0,0,1,2.113-.573,3.788,3.788,0,0,1,2.968,1.27A4.886,4.886,0,0,1,97.244-4.5v.108a5.351,5.351,0,0,1-.5,2.353A3.813,3.813,0,0,1,95.305-.415,3.977,3.977,0,0,1,93.16.166,3.778,3.778,0,0,1,90.2-1.1a4.861,4.861,0,0,1-1.133-3.362Zm1.544.183a3.842,3.842,0,0,0,.693,2.4,2.218,2.218,0,0,0,1.855.9A2.2,2.2,0,0,0,95.019-2a4.2,4.2,0,0,0,.689-2.569,3.836,3.836,0,0,0-.7-2.395,2.23,2.23,0,0,0-1.864-.917,2.205,2.205,0,0,0-1.834.9A4.17,4.17,0,0,0,90.611-4.391Zm10.011-4.59.05,1.129a3.273,3.273,0,0,1,2.689-1.295q2.847,0,2.872,3.212V0H104.7V-5.943a2.068,2.068,0,0,0-.444-1.436,1.78,1.78,0,0,0-1.357-.465,2.216,2.216,0,0,0-1.312.4,2.706,2.706,0,0,0-.88,1.046V0H99.169V-8.981Zm14.95,2.225h-6.923V-8.093h6.923Zm0,3.445h-6.923V-4.64h6.923Zm7.662-9.6.88.6a3.915,3.915,0,0,0-.8,2.274v1.129h-1.527V-9.87a3.808,3.808,0,0,1,.4-1.677A4.02,4.02,0,0,1,123.233-12.908Zm2.615,0,.88.6a3.915,3.915,0,0,0-.8,2.274v1.129H124.4V-9.87a3.808,3.808,0,0,1,.4-1.677A4.02,4.02,0,0,1,125.848-12.908ZM132.987,0h-1.544V-10.235l-3.1,1.137v-1.395l4.4-1.652h.241Zm4.69-.805a.962.962,0,0,1,.237-.664.9.9,0,0,1,.71-.266.928.928,0,0,1,.718.266.942.942,0,0,1,.245.664.891.891,0,0,1-.245.639.945.945,0,0,1-.718.257.917.917,0,0,1-.71-.257A.909.909,0,0,1,137.677-.805Zm11.862-4.35a7.023,7.023,0,0,1-.921,4.009,3.277,3.277,0,0,1-2.88,1.312,3.3,3.3,0,0,1-2.864-1.282,6.666,6.666,0,0,1-.963-3.831V-7a6.867,6.867,0,0,1,.921-3.959,3.3,3.3,0,0,1,2.889-1.295A3.332,3.332,0,0,1,148.592-11a6.627,6.627,0,0,1,.946,3.856ZM148-7.255a5.627,5.627,0,0,0-.548-2.843,1.886,1.886,0,0,0-1.735-.892A1.861,1.861,0,0,0,144-10.1a5.494,5.494,0,0,0-.556,2.731v2.457a5.717,5.717,0,0,0,.569,2.893,1.882,1.882,0,0,0,1.722.934,1.856,1.856,0,0,0,1.689-.88A5.51,5.51,0,0,0,148-4.74Zm3.868-1.428L151-9.28a4,4,0,0,0,.8-2.274v-1.2h1.519v1.079a3.839,3.839,0,0,1-.411,1.656A3.821,3.821,0,0,1,151.871-8.683Zm2.548,0-.872-.6a4,4,0,0,0,.8-2.274v-1.2h1.519v1.079a3.839,3.839,0,0,1-.411,1.656A3.821,3.821,0,0,1,154.419-8.683ZM165.667.166a3.924,3.924,0,0,1-2.972-1.2,4.452,4.452,0,0,1-1.146-3.208v-.282a5.39,5.39,0,0,1,.51-2.386,3.982,3.982,0,0,1,1.428-1.644,3.59,3.59,0,0,1,1.988-.594A3.364,3.364,0,0,1,168.2-7.994a5,5,0,0,1,.971,3.3v.639h-6.084a3.193,3.193,0,0,0,.776,2.146,2.44,2.44,0,0,0,1.888.818,2.675,2.675,0,0,0,1.378-.332,3.462,3.462,0,0,0,.988-.88l.938.73A3.772,3.772,0,0,1,165.667.166Zm-.191-8.052a2.048,2.048,0,0,0-1.561.677,3.288,3.288,0,0,0-.78,1.9h4.5v-.116A2.925,2.925,0,0,0,167-7.242,1.928,1.928,0,0,0,165.476-7.886Zm6.923-1.1.05,1.129a3.273,3.273,0,0,1,2.689-1.295q2.847,0,2.872,3.212V0h-1.536V-5.943a2.068,2.068,0,0,0-.444-1.436,1.78,1.78,0,0,0-1.357-.465,2.216,2.216,0,0,0-1.312.4,2.706,2.706,0,0,0-.88,1.046V0h-1.536V-8.981Zm11.53,7.894a2.212,2.212,0,0,0,1.436-.5,1.752,1.752,0,0,0,.681-1.245H187.5a2.785,2.785,0,0,1-.531,1.469,3.5,3.5,0,0,1-1.307,1.112,3.772,3.772,0,0,1-1.731.415,3.7,3.7,0,0,1-2.918-1.224,4.877,4.877,0,0,1-1.083-3.349v-.257A5.407,5.407,0,0,1,180.409-7a3.667,3.667,0,0,1,1.382-1.585,3.926,3.926,0,0,1,2.129-.564,3.6,3.6,0,0,1,2.511.9A3.234,3.234,0,0,1,187.5-5.894h-1.453a2.116,2.116,0,0,0-.66-1.432,2.053,2.053,0,0,0-1.465-.56,2.149,2.149,0,0,0-1.814.843,3.957,3.957,0,0,0-.643,2.436v.291a3.878,3.878,0,0,0,.639,2.391A2.16,2.16,0,0,0,183.929-1.087Zm4.889-3.486a5.3,5.3,0,0,1,.519-2.374,3.87,3.87,0,0,1,1.444-1.627,3.932,3.932,0,0,1,2.113-.573,3.788,3.788,0,0,1,2.968,1.27A4.886,4.886,0,0,1,196.994-4.5v.108a5.351,5.351,0,0,1-.5,2.353,3.813,3.813,0,0,1-1.436,1.623,3.977,3.977,0,0,1-2.146.581,3.778,3.778,0,0,1-2.959-1.27,4.861,4.861,0,0,1-1.133-3.362Zm1.544.183a3.842,3.842,0,0,0,.693,2.4,2.218,2.218,0,0,0,1.855.9A2.2,2.2,0,0,0,194.77-2a4.2,4.2,0,0,0,.689-2.569,3.836,3.836,0,0,0-.7-2.395,2.23,2.23,0,0,0-1.864-.917,2.205,2.205,0,0,0-1.834.9A4.17,4.17,0,0,0,190.362-4.391Zm8.185-.174a5.261,5.261,0,0,1,.979-3.324,3.1,3.1,0,0,1,2.565-1.258,3.115,3.115,0,0,1,2.5,1.079V-12.75h1.536V0h-1.411l-.075-.963A3.127,3.127,0,0,1,202.074.166a3.068,3.068,0,0,1-2.544-1.278,5.321,5.321,0,0,1-.984-3.337Zm1.536.174A3.984,3.984,0,0,0,200.713-2a2.039,2.039,0,0,0,1.743.863,2.24,2.24,0,0,0,2.133-1.312V-6.574a2.257,2.257,0,0,0-2.117-1.27,2.049,2.049,0,0,0-1.76.872A4.386,4.386,0,0,0,200.082-4.391ZM210.176,0H208.64V-8.981h1.536Zm-1.66-11.364a.917.917,0,0,1,.228-.631.857.857,0,0,1,.677-.257.87.87,0,0,1,.681.257.907.907,0,0,1,.232.631.877.877,0,0,1-.232.623.886.886,0,0,1-.681.249.872.872,0,0,1-.677-.249A.886.886,0,0,1,208.516-11.364Zm5.57,2.382.05,1.129a3.273,3.273,0,0,1,2.689-1.295q2.847,0,2.872,3.212V0h-1.536V-5.943a2.068,2.068,0,0,0-.444-1.436,1.78,1.78,0,0,0-1.357-.465,2.216,2.216,0,0,0-1.312.4,2.706,2.706,0,0,0-.88,1.046V0h-1.536V-8.981Zm7.562,4.416a5.279,5.279,0,0,1,.971-3.341,3.106,3.106,0,0,1,2.573-1.241,3.09,3.09,0,0,1,2.565,1.162l.075-1h1.4V-.216A3.654,3.654,0,0,1,228.2,2.532a3.814,3.814,0,0,1-2.777,1,4.619,4.619,0,0,1-1.9-.415A3.272,3.272,0,0,1,222.1,1.984l.8-.921a3,3,0,0,0,2.416,1.22,2.353,2.353,0,0,0,1.747-.631,2.411,2.411,0,0,0,.627-1.776V-.9A3.156,3.156,0,0,1,225.175.166a3.068,3.068,0,0,1-2.552-1.27A5.55,5.55,0,0,1,221.647-4.565Zm1.544.174A4.027,4.027,0,0,0,223.814-2a2.023,2.023,0,0,0,1.743.867,2.249,2.249,0,0,0,2.133-1.32v-4.1a2.276,2.276,0,0,0-2.117-1.287,2.041,2.041,0,0,0-1.751.872A4.386,4.386,0,0,0,223.191-4.391Zm19.59-2.366h-6.923V-8.093h6.923Zm0,3.445h-6.923V-4.64h6.923Zm7.662-9.6.88.6a3.915,3.915,0,0,0-.8,2.274v1.129H249V-9.87a3.808,3.808,0,0,1,.4-1.677A4.02,4.02,0,0,1,250.443-12.908Zm2.615,0,.88.6a3.915,3.915,0,0,0-.8,2.274v1.129h-1.527V-9.87a3.808,3.808,0,0,1,.4-1.677A4.02,4.02,0,0,1,253.058-12.908ZM261.466,0h-1.594V-12.086h1.594Zm6.475-5.387a7.494,7.494,0,0,1-2.984-1.448,2.768,2.768,0,0,1-.934-2.121,2.923,2.923,0,0,1,1.141-2.362,4.536,4.536,0,0,1,2.968-.934,4.951,4.951,0,0,1,2.22.481,3.651,3.651,0,0,1,1.511,1.328,3.4,3.4,0,0,1,.535,1.851h-1.6a2.2,2.2,0,0,0-.7-1.722,2.842,2.842,0,0,0-1.967-.627,2.907,2.907,0,0,0-1.839.519,1.729,1.729,0,0,0-.66,1.44,1.556,1.556,0,0,0,.627,1.249,6.152,6.152,0,0,0,2.133.934,9.879,9.879,0,0,1,2.357.934,3.577,3.577,0,0,1,1.262,1.191,3.04,3.04,0,0,1,.411,1.6,2.824,2.824,0,0,1-1.146,2.353,4.884,4.884,0,0,1-3.063.884,5.681,5.681,0,0,1-2.324-.477,3.911,3.911,0,0,1-1.664-1.307,3.191,3.191,0,0,1-.585-1.884h1.6a2.082,2.082,0,0,0,.809,1.731,3.408,3.408,0,0,0,2.162.635,3.133,3.133,0,0,0,1.934-.515,1.672,1.672,0,0,0,.672-1.4,1.641,1.641,0,0,0-.623-1.374A7.177,7.177,0,0,0,267.941-5.387Zm15.821-.266a7.476,7.476,0,0,1-.6,3.1,4.527,4.527,0,0,1-1.693,2.021,4.659,4.659,0,0,1-2.557.7,4.619,4.619,0,0,1-2.532-.7,4.635,4.635,0,0,1-1.714-2,7.174,7.174,0,0,1-.627-3.009v-.872a7.388,7.388,0,0,1,.606-3.08,4.619,4.619,0,0,1,1.714-2.046,4.6,4.6,0,0,1,2.536-.71,4.685,4.685,0,0,1,2.561.7,4.519,4.519,0,0,1,1.706,2.034,7.513,7.513,0,0,1,.6,3.1Zm-1.585-.78a5.419,5.419,0,0,0-.863-3.3,2.847,2.847,0,0,0-2.416-1.15,2.817,2.817,0,0,0-2.378,1.15,5.308,5.308,0,0,0-.892,3.192v.888a5.427,5.427,0,0,0,.876,3.275,2.829,2.829,0,0,0,2.411,1.191,2.817,2.817,0,0,0,2.391-1.125,5.4,5.4,0,0,0,.872-3.225Zm6.931,1.926h-4.051V-5.761h4.051Zm8.666-4.424a2.806,2.806,0,0,1-.477,1.61,3.248,3.248,0,0,1-1.291,1.1,3.464,3.464,0,0,1,1.5,1.187,2.987,2.987,0,0,1,.552,1.768A3.158,3.158,0,0,1,297-.764a4.066,4.066,0,0,1-2.785.93,4.048,4.048,0,0,1-2.793-.934,3.173,3.173,0,0,1-1.05-2.494,3.076,3.076,0,0,1,.535-1.768,3.332,3.332,0,0,1,1.482-1.2,3.168,3.168,0,0,1-1.27-1.1,2.846,2.846,0,0,1-.465-1.6,3.124,3.124,0,0,1,.979-2.424,3.674,3.674,0,0,1,2.582-.9,3.678,3.678,0,0,1,2.577.9A3.117,3.117,0,0,1,297.774-8.932ZM296.521-3.3a2.228,2.228,0,0,0-.643-1.652,2.281,2.281,0,0,0-1.681-.639,2.241,2.241,0,0,0-1.664.631,2.253,2.253,0,0,0-.627,1.66,2.145,2.145,0,0,0,.61,1.619,2.342,2.342,0,0,0,1.7.589,2.335,2.335,0,0,0,1.693-.594A2.14,2.14,0,0,0,296.521-3.3Zm-2.308-7.695a1.981,1.981,0,0,0-1.465.56,2.058,2.058,0,0,0-.56,1.523,2.048,2.048,0,0,0,.552,1.49,1.959,1.959,0,0,0,1.473.569,1.959,1.959,0,0,0,1.473-.569,2.048,2.048,0,0,0,.552-1.49,2.049,2.049,0,0,0-.573-1.5A1.954,1.954,0,0,0,294.213-10.99ZM307.32-8.932a2.806,2.806,0,0,1-.477,1.61,3.248,3.248,0,0,1-1.291,1.1,3.464,3.464,0,0,1,1.5,1.187,2.987,2.987,0,0,1,.552,1.768,3.158,3.158,0,0,1-1.058,2.5,4.066,4.066,0,0,1-2.785.93,4.048,4.048,0,0,1-2.793-.934,3.173,3.173,0,0,1-1.05-2.494,3.076,3.076,0,0,1,.535-1.768,3.332,3.332,0,0,1,1.482-1.2,3.168,3.168,0,0,1-1.27-1.1,2.846,2.846,0,0,1-.465-1.6,3.124,3.124,0,0,1,.979-2.424,3.674,3.674,0,0,1,2.582-.9,3.678,3.678,0,0,1,2.577.9A3.117,3.117,0,0,1,307.32-8.932ZM306.066-3.3a2.228,2.228,0,0,0-.643-1.652,2.281,2.281,0,0,0-1.681-.639,2.241,2.241,0,0,0-1.664.631,2.253,2.253,0,0,0-.627,1.66,2.145,2.145,0,0,0,.61,1.619,2.342,2.342,0,0,0,1.7.589,2.335,2.335,0,0,0,1.693-.594A2.14,2.14,0,0,0,306.066-3.3Zm-2.308-7.695a1.981,1.981,0,0,0-1.465.56,2.058,2.058,0,0,0-.56,1.523,2.048,2.048,0,0,0,.552,1.49,1.959,1.959,0,0,0,1.473.569,1.959,1.959,0,0,0,1.473-.569,2.048,2.048,0,0,0,.552-1.49,2.049,2.049,0,0,0-.573-1.5A1.954,1.954,0,0,0,303.759-10.99Zm6.483,4.931.614-6.026h6.192v1.419h-4.889l-.365,3.3a3.9,3.9,0,0,1,2.017-.523A3.334,3.334,0,0,1,316.434-6.8a4.278,4.278,0,0,1,.971,2.951A4.129,4.129,0,0,1,316.4-.909,3.676,3.676,0,0,1,313.579.166a3.82,3.82,0,0,1-2.615-.888,3.545,3.545,0,0,1-1.154-2.457h1.453A2.439,2.439,0,0,0,312-1.615a2.3,2.3,0,0,0,1.577.527,2.072,2.072,0,0,0,1.681-.73,3.054,3.054,0,0,0,.61-2.017,2.8,2.8,0,0,0-.66-1.947,2.245,2.245,0,0,0-1.756-.735,2.532,2.532,0,0,0-1.577.44l-.407.332Zm14.726.747a3.757,3.757,0,0,1-1.15.921,3.119,3.119,0,0,1-1.465.349,3.22,3.22,0,0,1-1.822-.515,3.346,3.346,0,0,1-1.2-1.448,4.938,4.938,0,0,1-.423-2.063,5.031,5.031,0,0,1,.461-2.183,3.384,3.384,0,0,1,1.307-1.486,3.728,3.728,0,0,1,1.976-.515,3.375,3.375,0,0,1,2.826,1.341,5.847,5.847,0,0,1,1.033,3.656v.448q0,3.528-1.395,5.151A5.358,5.358,0,0,1,320.908.008h-.3V-1.287h.324a4.223,4.223,0,0,0,2.922-.992A4.261,4.261,0,0,0,324.967-5.312Zm-2.366,0a2.371,2.371,0,0,0,1.424-.473,2.789,2.789,0,0,0,.95-1.17V-7.57a4.226,4.226,0,0,0-.656-2.457,1.957,1.957,0,0,0-1.66-.946,1.972,1.972,0,0,0-1.627.776,3.2,3.2,0,0,0-.614,2.046,3.332,3.332,0,0,0,.594,2.038A1.879,1.879,0,0,0,322.6-5.312Zm9.38.805h-4.051V-5.761h4.051ZM338.365,0h-1.544V-10.235l-3.1,1.137v-1.395l4.4-1.652h.241Zm4.864-8.683-.872-.6a4,4,0,0,0,.8-2.274v-1.2h1.519v1.079a3.839,3.839,0,0,1-.411,1.656A3.821,3.821,0,0,1,343.229-8.683Zm2.548,0-.872-.6a4,4,0,0,0,.8-2.274v-1.2h1.519v1.079a3.839,3.839,0,0,1-.411,1.656A3.821,3.821,0,0,1,345.777-8.683Zm12.75,6.3a1.131,1.131,0,0,0-.469-.967,4.514,4.514,0,0,0-1.635-.594,7.732,7.732,0,0,1-1.851-.6,2.634,2.634,0,0,1-1.013-.83,1.985,1.985,0,0,1-.328-1.146,2.33,2.33,0,0,1,.934-1.868,3.647,3.647,0,0,1,2.386-.764,3.753,3.753,0,0,1,2.478.789,2.5,2.5,0,0,1,.95,2.017h-1.544a1.386,1.386,0,0,0-.535-1.087,2.006,2.006,0,0,0-1.349-.457,2.1,2.1,0,0,0-1.312.365,1.15,1.15,0,0,0-.473.955.931.931,0,0,0,.44.838,5.413,5.413,0,0,0,1.59.54,8.283,8.283,0,0,1,1.864.614,2.718,2.718,0,0,1,1.058.859,2.112,2.112,0,0,1,.344,1.224A2.3,2.3,0,0,1,359.1-.56a4.039,4.039,0,0,1-2.5.726,4.523,4.523,0,0,1-1.909-.382,3.105,3.105,0,0,1-1.3-1.067,2.571,2.571,0,0,1-.469-1.482h1.536a1.59,1.59,0,0,0,.618,1.224,2.4,2.4,0,0,0,1.523.452A2.476,2.476,0,0,0,358-1.44,1.084,1.084,0,0,0,358.527-2.382Zm5.62-8.774v2.175h1.677v1.187h-1.677v5.57a1.244,1.244,0,0,0,.224.809.944.944,0,0,0,.764.27,3.718,3.718,0,0,0,.73-.1V0a4.452,4.452,0,0,1-1.179.166,1.912,1.912,0,0,1-1.552-.623,2.675,2.675,0,0,1-.523-1.768v-5.57h-1.635V-8.981h1.635v-2.175ZM373.162,0a3.226,3.226,0,0,1-.216-.946A3.426,3.426,0,0,1,370.389.166a3.17,3.17,0,0,1-2.179-.751,2.43,2.43,0,0,1-.851-1.905,2.539,2.539,0,0,1,1.067-2.179,5.029,5.029,0,0,1,3-.776h1.494v-.706a1.725,1.725,0,0,0-.481-1.282,1.935,1.935,0,0,0-1.419-.477,2.239,2.239,0,0,0-1.378.415,1.223,1.223,0,0,0-.556,1h-1.544a2.119,2.119,0,0,1,.477-1.3,3.258,3.258,0,0,1,1.295-.992,4.356,4.356,0,0,1,1.8-.365,3.551,3.551,0,0,1,2.432.776,2.8,2.8,0,0,1,.913,2.137V-2.1a5.054,5.054,0,0,0,.315,1.967V0Zm-2.548-1.17a2.7,2.7,0,0,0,1.37-.374,2.26,2.26,0,0,0,.938-.971V-4.358h-1.2q-2.822,0-2.822,1.652a1.4,1.4,0,0,0,.481,1.129A1.85,1.85,0,0,0,370.613-1.17Zm7.7-7.811.05,1.129a3.273,3.273,0,0,1,2.689-1.295q2.847,0,2.872,3.212V0h-1.536V-5.943a2.068,2.068,0,0,0-.444-1.436,1.78,1.78,0,0,0-1.357-.465,2.216,2.216,0,0,0-1.312.4A2.706,2.706,0,0,0,378.4-6.4V0h-1.536V-8.981Zm7.554,4.416a5.261,5.261,0,0,1,.979-3.324,3.1,3.1,0,0,1,2.565-1.258,3.115,3.115,0,0,1,2.5,1.079V-12.75h1.536V0h-1.411l-.075-.963A3.127,3.127,0,0,1,389.4.166a3.068,3.068,0,0,1-2.544-1.278,5.321,5.321,0,0,1-.984-3.337Zm1.536.174A3.984,3.984,0,0,0,388.037-2a2.039,2.039,0,0,0,1.743.863,2.24,2.24,0,0,0,2.133-1.312V-6.574a2.257,2.257,0,0,0-2.117-1.27,2.049,2.049,0,0,0-1.76.872A4.386,4.386,0,0,0,387.406-4.391ZM401.376,0a3.226,3.226,0,0,1-.216-.946A3.426,3.426,0,0,1,398.6.166a3.17,3.17,0,0,1-2.179-.751,2.43,2.43,0,0,1-.851-1.905,2.539,2.539,0,0,1,1.067-2.179,5.029,5.029,0,0,1,3-.776h1.494v-.706a1.725,1.725,0,0,0-.481-1.282,1.935,1.935,0,0,0-1.419-.477,2.239,2.239,0,0,0-1.378.415,1.223,1.223,0,0,0-.556,1h-1.544a2.119,2.119,0,0,1,.477-1.3,3.258,3.258,0,0,1,1.295-.992,4.356,4.356,0,0,1,1.8-.365,3.551,3.551,0,0,1,2.432.776,2.8,2.8,0,0,1,.913,2.137V-2.1a5.054,5.054,0,0,0,.315,1.967V0Zm-2.548-1.17a2.7,2.7,0,0,0,1.37-.374,2.26,2.26,0,0,0,.938-.971V-4.358h-1.2q-2.822,0-2.822,1.652a1.4,1.4,0,0,0,.481,1.129A1.85,1.85,0,0,0,398.828-1.17ZM406.747,0h-1.536V-12.75h1.536Zm2.05-4.574a5.305,5.305,0,0,1,.519-2.374,3.87,3.87,0,0,1,1.444-1.627,3.932,3.932,0,0,1,2.113-.573,3.788,3.788,0,0,1,2.968,1.27A4.886,4.886,0,0,1,416.973-4.5v.108a5.351,5.351,0,0,1-.5,2.353,3.813,3.813,0,0,1-1.436,1.623,3.977,3.977,0,0,1-2.146.581A3.778,3.778,0,0,1,409.93-1.1,4.861,4.861,0,0,1,408.8-4.466Zm1.544.183a3.842,3.842,0,0,0,.693,2.4,2.218,2.218,0,0,0,1.855.9A2.2,2.2,0,0,0,414.749-2a4.2,4.2,0,0,0,.689-2.569,3.836,3.836,0,0,0-.7-2.395,2.23,2.23,0,0,0-1.864-.917,2.205,2.205,0,0,0-1.834.9A4.17,4.17,0,0,0,410.341-4.391Zm10.011-4.59.05,1.129a3.273,3.273,0,0,1,2.689-1.295q2.847,0,2.872,3.212V0h-1.536V-5.943a2.068,2.068,0,0,0-.444-1.436,1.78,1.78,0,0,0-1.357-.465,2.216,2.216,0,0,0-1.312.4,2.706,2.706,0,0,0-.88,1.046V0H418.9V-8.981ZM432.006.166a3.924,3.924,0,0,1-2.972-1.2,4.452,4.452,0,0,1-1.146-3.208v-.282a5.39,5.39,0,0,1,.51-2.386,3.982,3.982,0,0,1,1.428-1.644,3.59,3.59,0,0,1,1.988-.594,3.364,3.364,0,0,1,2.723,1.154,5,5,0,0,1,.971,3.3v.639h-6.084a3.193,3.193,0,0,0,.776,2.146,2.44,2.44,0,0,0,1.888.818,2.675,2.675,0,0,0,1.378-.332,3.462,3.462,0,0,0,.988-.88l.938.73A3.772,3.772,0,0,1,432.006.166Zm-.191-8.052a2.048,2.048,0,0,0-1.561.677,3.288,3.288,0,0,0-.78,1.9h4.5v-.116a2.925,2.925,0,0,0-.631-1.814A1.928,1.928,0,0,0,431.815-7.886Zm16.7,1.129h-6.923V-8.093h6.923Zm0,3.445h-6.923V-4.64h6.923Zm7.662-9.6.88.6a3.915,3.915,0,0,0-.8,2.274v1.129h-1.527V-9.87a3.808,3.808,0,0,1,.4-1.677A4.02,4.02,0,0,1,456.178-12.908Zm2.615,0,.88.6a3.915,3.915,0,0,0-.8,2.274v1.129h-1.527V-9.87a3.808,3.808,0,0,1,.4-1.677A4.02,4.02,0,0,1,458.792-12.908Zm3.536,3.926.05,1.129a3.273,3.273,0,0,1,2.689-1.295q2.847,0,2.872,3.212V0H466.4V-5.943a2.068,2.068,0,0,0-.444-1.436,1.78,1.78,0,0,0-1.357-.465,2.216,2.216,0,0,0-1.312.4,2.706,2.706,0,0,0-.88,1.046V0h-1.536V-8.981Zm7.521,4.408a5.305,5.305,0,0,1,.519-2.374,3.87,3.87,0,0,1,1.444-1.627,3.932,3.932,0,0,1,2.113-.573,3.788,3.788,0,0,1,2.968,1.27A4.886,4.886,0,0,1,478.025-4.5v.108a5.351,5.351,0,0,1-.5,2.353,3.813,3.813,0,0,1-1.436,1.623,3.977,3.977,0,0,1-2.146.581,3.778,3.778,0,0,1-2.959-1.27,4.861,4.861,0,0,1-1.133-3.362Zm1.544.183a3.842,3.842,0,0,0,.693,2.4,2.218,2.218,0,0,0,1.855.9A2.2,2.2,0,0,0,475.8-2a4.2,4.2,0,0,0,.689-2.569,3.836,3.836,0,0,0-.7-2.395,2.23,2.23,0,0,0-1.864-.917,2.205,2.205,0,0,0-1.834.9A4.17,4.17,0,0,0,471.393-4.391Zm7.637-4.292-.872-.6a4,4,0,0,0,.8-2.274v-1.2h1.519v1.079a3.839,3.839,0,0,1-.411,1.656A3.821,3.821,0,0,1,479.03-8.683Zm2.548,0-.872-.6a4,4,0,0,0,.8-2.274v-1.2h1.519v1.079a3.839,3.839,0,0,1-.411,1.656A3.821,3.821,0,0,1,481.578-8.683ZM486.691-3.4a4.97,4.97,0,0,1,.224-1.561,4,4,0,0,1,.847-1.27l1.087-1.121a2.516,2.516,0,0,0,.7-1.693,1.935,1.935,0,0,0-.457-1.365,1.719,1.719,0,0,0-1.328-.494,2,2,0,0,0-1.361.448,1.515,1.515,0,0,0-.515,1.2h-1.536a2.8,2.8,0,0,1,.959-2.171,3.585,3.585,0,0,1,2.453-.826,3.381,3.381,0,0,1,2.445.843,3.057,3.057,0,0,1,.876,2.312,4.181,4.181,0,0,1-1.345,2.864l-.9.9a2.794,2.794,0,0,0-.606,1.934Zm-.066,2.631a.9.9,0,0,1,.228-.627.865.865,0,0,1,.677-.253.878.878,0,0,1,.681.253.892.892,0,0,1,.232.627.863.863,0,0,1-.232.618.9.9,0,0,1-.681.245.881.881,0,0,1-.677-.245A.871.871,0,0,1,486.625-.772ZM498.354-5.4l-5.487-2.15V-9.123l7.089,3.138v1.212l-7.089,3.146V-3.221ZM2.191,18.654l5.2,2.1v1.627L.6,19.235V18.023l6.79-3.138v1.627ZM15.73,20.588H14.344l-.108-8.674h1.61Zm-1.552,2.64a.9.9,0,0,1,.228-.627.865.865,0,0,1,.677-.253.878.878,0,0,1,.681.253.892.892,0,0,1,.232.627.862.862,0,0,1-.232.618.9.9,0,0,1-.681.245.881.881,0,0,1-.677-.245A.871.871,0,0,1,14.178,23.228ZM22.835,24V11.914h3.412a5.492,5.492,0,0,1,2.789.7A4.716,4.716,0,0,1,30.908,14.6a6.457,6.457,0,0,1,.668,2.955v.772a6.48,6.48,0,0,1-.66,3,4.642,4.642,0,0,1-1.884,1.976A5.842,5.842,0,0,1,26.181,24Zm1.594-10.774V22.7h1.677a3.65,3.65,0,0,0,2.868-1.146A4.73,4.73,0,0,0,30,18.289v-.706a4.8,4.8,0,0,0-.967-3.2,3.443,3.443,0,0,0-2.743-1.158ZM43.28,18.347a7.476,7.476,0,0,1-.6,3.1,4.527,4.527,0,0,1-1.693,2.021,4.673,4.673,0,0,1-6.8-2,7.174,7.174,0,0,1-.627-3.009v-.872a7.388,7.388,0,0,1,.606-3.08,4.482,4.482,0,0,1,4.25-2.756,4.685,4.685,0,0,1,2.561.7,4.519,4.519,0,0,1,1.706,2.034,7.513,7.513,0,0,1,.6,3.1Zm-1.585-.78a5.419,5.419,0,0,0-.863-3.3,2.847,2.847,0,0,0-2.416-1.15,2.817,2.817,0,0,0-2.378,1.15,5.308,5.308,0,0,0-.892,3.192v.888a5.427,5.427,0,0,0,.876,3.275,3.069,3.069,0,0,0,4.8.066,5.4,5.4,0,0,0,.872-3.225Zm12.866,2.6a4.447,4.447,0,0,1-1.415,2.959,4.638,4.638,0,0,1-3.167,1.042,4.259,4.259,0,0,1-3.432-1.536,6.178,6.178,0,0,1-1.291-4.109V17.359a6.886,6.886,0,0,1,.6-2.963,4.5,4.5,0,0,1,1.706-1.963,4.75,4.75,0,0,1,2.557-.685,4.367,4.367,0,0,1,3.088,1.075A4.5,4.5,0,0,1,54.561,15.8h-1.6a3.457,3.457,0,0,0-.9-2.092,2.73,2.73,0,0,0-1.938-.647,2.852,2.852,0,0,0-2.395,1.129,5.179,5.179,0,0,0-.867,3.212v1.17A5.324,5.324,0,0,0,47.68,21.7a2.656,2.656,0,0,0,2.3,1.162,3.067,3.067,0,0,0,2.038-.6,3.34,3.34,0,0,0,.942-2.1Zm10.285-6.939H60.961V24H59.375V13.226H55.5V11.914h9.347Zm5.611,4.756,3.154-6.068h1.81l-4.167,7.579V24H69.66V19.493l-4.167-7.579h1.826Zm8.118,1.287V24H76.981V11.914h4.458a4.478,4.478,0,0,1,3.109,1.013,3.433,3.433,0,0,1,1.125,2.681,3.388,3.388,0,0,1-1.1,2.71,4.678,4.678,0,0,1-3.15.95Zm0-1.3h2.864a2.867,2.867,0,0,0,1.959-.6,2.2,2.2,0,0,0,.681-1.739A2.271,2.271,0,0,0,83.4,13.9a2.685,2.685,0,0,0-1.868-.672H78.575Zm15.962.448H89.3V22.7h6.084V24H87.706V11.914h7.6v1.312h-6V17.11h5.238Zm14.385,1.2a5.378,5.378,0,0,1-.938,3.3,3.006,3.006,0,0,1-2.54,1.253,3.294,3.294,0,0,1-2.573-1.038v4.325h-1.536V15.019h1.4l.075,1a3.163,3.163,0,0,1,2.606-1.162,3.063,3.063,0,0,1,2.561,1.22,5.437,5.437,0,0,1,.942,3.4Zm-1.536-.174a3.968,3.968,0,0,0-.647-2.4,2.086,2.086,0,0,0-1.776-.88,2.257,2.257,0,0,0-2.092,1.237v4.292a2.262,2.262,0,0,0,2.108,1.229,2.076,2.076,0,0,0,1.756-.876A4.332,4.332,0,0,0,107.387,19.435Zm7.213,4.731a3.924,3.924,0,0,1-2.972-1.2,4.452,4.452,0,0,1-1.146-3.208v-.282a5.39,5.39,0,0,1,.51-2.386,3.982,3.982,0,0,1,1.428-1.644,3.59,3.59,0,0,1,1.988-.594,3.364,3.364,0,0,1,2.723,1.154,5,5,0,0,1,.971,3.3v.639h-6.084a3.193,3.193,0,0,0,.776,2.146,2.44,2.44,0,0,0,1.888.818,2.675,2.675,0,0,0,1.378-.332,3.462,3.462,0,0,0,.988-.88l.938.73A3.772,3.772,0,0,1,114.6,24.166Zm-.191-8.052a2.048,2.048,0,0,0-1.561.677,3.288,3.288,0,0,0-.78,1.9h4.5v-.116a2.925,2.925,0,0,0-.631-1.814A1.928,1.928,0,0,0,114.41,16.114Zm9.812.282a4.6,4.6,0,0,0-.755-.058,2.024,2.024,0,0,0-2.05,1.287V24H119.88V15.019h1.494l.025,1.038a2.391,2.391,0,0,1,2.142-1.2,1.569,1.569,0,0,1,.681.116Zm6.641,5.221a1.13,1.13,0,0,0-.469-.967,4.514,4.514,0,0,0-1.635-.594,7.731,7.731,0,0,1-1.851-.6,2.633,2.633,0,0,1-1.013-.83,1.986,1.986,0,0,1-.328-1.146,2.33,2.33,0,0,1,.934-1.868,3.647,3.647,0,0,1,2.386-.764,3.753,3.753,0,0,1,2.478.789,2.5,2.5,0,0,1,.95,2.017h-1.544a1.386,1.386,0,0,0-.535-1.087,2.006,2.006,0,0,0-1.349-.457,2.1,2.1,0,0,0-1.312.365,1.15,1.15,0,0,0-.473.955.932.932,0,0,0,.44.838,5.413,5.413,0,0,0,1.59.54,8.283,8.283,0,0,1,1.864.614,2.718,2.718,0,0,1,1.058.859,2.112,2.112,0,0,1,.344,1.224,2.3,2.3,0,0,1-.963,1.93,4.039,4.039,0,0,1-2.5.726,4.523,4.523,0,0,1-1.909-.382,3.105,3.105,0,0,1-1.3-1.067,2.571,2.571,0,0,1-.469-1.482h1.536a1.59,1.59,0,0,0,.618,1.224,2.4,2.4,0,0,0,1.523.452,2.476,2.476,0,0,0,1.4-.353A1.084,1.084,0,0,0,130.862,21.618Zm3.129-2.191a5.3,5.3,0,0,1,.519-2.374,3.87,3.87,0,0,1,1.444-1.627,3.932,3.932,0,0,1,2.113-.573,3.788,3.788,0,0,1,2.968,1.27,4.886,4.886,0,0,1,1.133,3.378v.108a5.351,5.351,0,0,1-.5,2.353,3.813,3.813,0,0,1-1.436,1.623,3.977,3.977,0,0,1-2.146.581,3.778,3.778,0,0,1-2.959-1.27,4.861,4.861,0,0,1-1.133-3.362Zm1.544.183a3.842,3.842,0,0,0,.693,2.4A2.349,2.349,0,0,0,139.943,22a4.2,4.2,0,0,0,.689-2.569,3.836,3.836,0,0,0-.7-2.395,2.23,2.23,0,0,0-1.864-.917,2.205,2.205,0,0,0-1.834.9A4.17,4.17,0,0,0,135.535,19.609Zm10.011-4.59.05,1.129a3.273,3.273,0,0,1,2.689-1.295q2.847,0,2.872,3.212V24h-1.536V18.057a2.068,2.068,0,0,0-.444-1.436,1.78,1.78,0,0,0-1.357-.465,2.216,2.216,0,0,0-1.312.4,2.706,2.706,0,0,0-.88,1.046V24h-1.536V15.019ZM159.018,24a3.226,3.226,0,0,1-.216-.946,3.426,3.426,0,0,1-2.557,1.112,3.17,3.17,0,0,1-2.179-.751,2.43,2.43,0,0,1-.851-1.905,2.539,2.539,0,0,1,1.067-2.179,5.029,5.029,0,0,1,3-.776h1.494v-.706a1.725,1.725,0,0,0-.481-1.282,1.935,1.935,0,0,0-1.419-.477,2.239,2.239,0,0,0-1.378.415,1.223,1.223,0,0,0-.556,1H153.4a2.119,2.119,0,0,1,.477-1.3,3.258,3.258,0,0,1,1.295-.992,4.356,4.356,0,0,1,1.8-.365,3.551,3.551,0,0,1,2.432.776,2.8,2.8,0,0,1,.913,2.137V21.9a5.054,5.054,0,0,0,.315,1.967V24Zm-2.548-1.17a2.7,2.7,0,0,0,1.37-.374,2.259,2.259,0,0,0,.938-.971V19.642h-1.2q-2.822,0-2.822,1.652a1.4,1.4,0,0,0,.481,1.129A1.85,1.85,0,0,0,156.47,22.83Zm14.261-4.217a7.494,7.494,0,0,1-2.984-1.448,2.768,2.768,0,0,1-.934-2.121,2.923,2.923,0,0,1,1.141-2.362,4.536,4.536,0,0,1,2.968-.934,4.951,4.951,0,0,1,2.22.481,3.651,3.651,0,0,1,1.511,1.328,3.4,3.4,0,0,1,.535,1.851h-1.6a2.2,2.2,0,0,0-.7-1.722,2.842,2.842,0,0,0-1.967-.627,2.907,2.907,0,0,0-1.839.519,1.729,1.729,0,0,0-.66,1.44,1.556,1.556,0,0,0,.627,1.249,6.152,6.152,0,0,0,2.133.934,9.879,9.879,0,0,1,2.357.934,3.577,3.577,0,0,1,1.262,1.191,3.04,3.04,0,0,1,.411,1.6,2.824,2.824,0,0,1-1.146,2.353,4.884,4.884,0,0,1-3.063.884,5.681,5.681,0,0,1-2.324-.477,3.911,3.911,0,0,1-1.664-1.307,3.191,3.191,0,0,1-.585-1.884h1.6a2.082,2.082,0,0,0,.809,1.731,3.408,3.408,0,0,0,2.162.635,3.133,3.133,0,0,0,1.934-.515,1.672,1.672,0,0,0,.672-1.4,1.641,1.641,0,0,0-.623-1.374A7.178,7.178,0,0,0,170.73,18.613Zm10.21-.631,3.154-6.068h1.81l-4.167,7.579V24h-1.594V19.493l-4.167-7.579H177.8Zm9.953.631a7.494,7.494,0,0,1-2.984-1.448,2.768,2.768,0,0,1-.934-2.121,2.923,2.923,0,0,1,1.141-2.362,4.536,4.536,0,0,1,2.968-.934,4.951,4.951,0,0,1,2.22.481,3.651,3.651,0,0,1,1.511,1.328,3.4,3.4,0,0,1,.535,1.851h-1.6a2.2,2.2,0,0,0-.7-1.722,2.842,2.842,0,0,0-1.967-.627,2.907,2.907,0,0,0-1.839.519,1.729,1.729,0,0,0-.66,1.44,1.556,1.556,0,0,0,.627,1.249,6.152,6.152,0,0,0,2.133.934,9.879,9.879,0,0,1,2.357.934,3.577,3.577,0,0,1,1.262,1.191,3.04,3.04,0,0,1,.411,1.6,2.824,2.824,0,0,1-1.146,2.353,4.884,4.884,0,0,1-3.063.884,5.681,5.681,0,0,1-2.324-.477,3.911,3.911,0,0,1-1.664-1.307,3.191,3.191,0,0,1-.585-1.884h1.6A2.082,2.082,0,0,0,189,22.228a3.408,3.408,0,0,0,2.162.635,3.133,3.133,0,0,0,1.934-.515,1.672,1.672,0,0,0,.672-1.4,1.641,1.641,0,0,0-.623-1.374A7.178,7.178,0,0,0,190.893,18.613Zm14.875-5.387h-3.885V24H200.3V13.226h-3.876V11.914h9.347Zm8.625,5.188h-5.238V22.7h6.084V24h-7.678V11.914h7.6v1.312h-6V17.11h5.238Zm4.889-6.5,3.951,9.861,3.951-9.861h2.067V24h-1.594V19.293l.149-5.08L223.839,24h-1.22l-3.959-9.762.158,5.055V24h-1.594V11.914Zm17.9-.822.88.6a3.915,3.915,0,0,0-.8,2.274v1.129h-1.527V14.13a3.808,3.808,0,0,1,.4-1.677A4.02,4.02,0,0,1,237.178,11.092Zm2.615,0,.88.6a3.915,3.915,0,0,0-.8,2.274v1.129h-1.527V14.13a3.808,3.808,0,0,1,.4-1.677A4.02,4.02,0,0,1,239.793,11.092Zm14.045,8.517a5.378,5.378,0,0,1-.938,3.3,3.006,3.006,0,0,1-2.54,1.253,3.294,3.294,0,0,1-2.573-1.038v4.325h-1.536V15.019h1.4l.075,1a3.163,3.163,0,0,1,2.606-1.162,3.063,3.063,0,0,1,2.561,1.22,5.437,5.437,0,0,1,.942,3.4Zm-1.536-.174a3.968,3.968,0,0,0-.647-2.4,2.086,2.086,0,0,0-1.776-.88,2.257,2.257,0,0,0-2.092,1.237v4.292a2.262,2.262,0,0,0,2.108,1.229,2.076,2.076,0,0,0,1.756-.876A4.332,4.332,0,0,0,252.3,19.435Zm7.213,4.731a3.924,3.924,0,0,1-2.972-1.2,4.452,4.452,0,0,1-1.146-3.208v-.282a5.39,5.39,0,0,1,.51-2.386,3.982,3.982,0,0,1,1.428-1.644,3.59,3.59,0,0,1,1.988-.594,3.364,3.364,0,0,1,2.723,1.154,5,5,0,0,1,.971,3.3v.639h-6.084a3.193,3.193,0,0,0,.776,2.146,2.44,2.44,0,0,0,1.888.818,2.675,2.675,0,0,0,1.378-.332,3.462,3.462,0,0,0,.988-.88l.938.73A3.772,3.772,0,0,1,259.516,24.166Zm-.191-8.052a2.048,2.048,0,0,0-1.561.677,3.288,3.288,0,0,0-.78,1.9h4.5v-.116a2.925,2.925,0,0,0-.631-1.814A1.928,1.928,0,0,0,259.325,16.114Zm9.812.282a4.6,4.6,0,0,0-.755-.058,2.024,2.024,0,0,0-2.05,1.287V24h-1.536V15.019h1.494l.025,1.038a2.391,2.391,0,0,1,2.142-1.2,1.569,1.569,0,0,1,.681.116Zm6.641,5.221a1.131,1.131,0,0,0-.469-.967,4.514,4.514,0,0,0-1.635-.594,7.732,7.732,0,0,1-1.851-.6,2.634,2.634,0,0,1-1.013-.83,1.985,1.985,0,0,1-.328-1.146,2.33,2.33,0,0,1,.934-1.868,3.647,3.647,0,0,1,2.386-.764,3.753,3.753,0,0,1,2.478.789,2.5,2.5,0,0,1,.95,2.017h-1.544a1.386,1.386,0,0,0-.535-1.087,2.006,2.006,0,0,0-1.349-.457,2.1,2.1,0,0,0-1.312.365,1.15,1.15,0,0,0-.473.955.931.931,0,0,0,.44.838,5.413,5.413,0,0,0,1.59.54,8.283,8.283,0,0,1,1.864.614,2.718,2.718,0,0,1,1.058.859,2.112,2.112,0,0,1,.344,1.224,2.3,2.3,0,0,1-.963,1.93,4.039,4.039,0,0,1-2.5.726,4.523,4.523,0,0,1-1.909-.382,3.105,3.105,0,0,1-1.3-1.067,2.571,2.571,0,0,1-.469-1.482h1.536a1.59,1.59,0,0,0,.618,1.224,2.4,2.4,0,0,0,1.523.452,2.476,2.476,0,0,0,1.4-.353A1.084,1.084,0,0,0,275.777,21.618Zm3.129-2.191a5.305,5.305,0,0,1,.519-2.374,3.87,3.87,0,0,1,1.444-1.627,3.932,3.932,0,0,1,2.113-.573,3.788,3.788,0,0,1,2.968,1.27,4.886,4.886,0,0,1,1.133,3.378v.108a5.351,5.351,0,0,1-.5,2.353,3.813,3.813,0,0,1-1.436,1.623,3.977,3.977,0,0,1-2.146.581,3.778,3.778,0,0,1-2.959-1.27,4.861,4.861,0,0,1-1.133-3.362Zm1.544.183a3.842,3.842,0,0,0,.693,2.4A2.349,2.349,0,0,0,284.858,22a4.2,4.2,0,0,0,.689-2.569,3.836,3.836,0,0,0-.7-2.395,2.23,2.23,0,0,0-1.864-.917,2.205,2.205,0,0,0-1.834.9A4.17,4.17,0,0,0,280.45,19.609Zm10.011-4.59.05,1.129a3.273,3.273,0,0,1,2.689-1.295q2.847,0,2.872,3.212V24h-1.536V18.057a2.068,2.068,0,0,0-.444-1.436,1.78,1.78,0,0,0-1.357-.465,2.216,2.216,0,0,0-1.312.4,2.706,2.706,0,0,0-.88,1.046V24h-1.536V15.019ZM303.933,24a3.226,3.226,0,0,1-.216-.946,3.426,3.426,0,0,1-2.557,1.112,3.17,3.17,0,0,1-2.179-.751,2.43,2.43,0,0,1-.851-1.905,2.539,2.539,0,0,1,1.067-2.179,5.029,5.029,0,0,1,3-.776h1.494v-.706a1.725,1.725,0,0,0-.481-1.282,1.935,1.935,0,0,0-1.419-.477,2.239,2.239,0,0,0-1.378.415,1.223,1.223,0,0,0-.556,1h-1.544a2.119,2.119,0,0,1,.477-1.3,3.258,3.258,0,0,1,1.295-.992,4.356,4.356,0,0,1,1.8-.365,3.551,3.551,0,0,1,2.432.776,2.8,2.8,0,0,1,.913,2.137V21.9a5.054,5.054,0,0,0,.315,1.967V24Zm-2.548-1.17a2.7,2.7,0,0,0,1.37-.374,2.26,2.26,0,0,0,.938-.971V19.642h-1.2q-2.822,0-2.822,1.652a1.4,1.4,0,0,0,.481,1.129A1.85,1.85,0,0,0,301.385,22.83Zm6.284.365a.962.962,0,0,1,.237-.664.9.9,0,0,1,.71-.266.928.928,0,0,1,.718.266.942.942,0,0,1,.245.664.891.891,0,0,1-.245.639.945.945,0,0,1-.718.257.854.854,0,0,1-.946-.9Zm4.067-3.76a5.261,5.261,0,0,1,.979-3.324,3.333,3.333,0,0,1,5.063-.178V11.25h1.536V24H317.9l-.075-.963a3.127,3.127,0,0,1-2.565,1.129,3.068,3.068,0,0,1-2.544-1.278,5.321,5.321,0,0,1-.984-3.337Zm1.536.174A3.984,3.984,0,0,0,313.9,22a2.039,2.039,0,0,0,1.743.863,2.24,2.24,0,0,0,2.133-1.312V17.426a2.257,2.257,0,0,0-2.117-1.27,2.049,2.049,0,0,0-1.76.872A4.386,4.386,0,0,0,313.271,19.609Zm10.509-6.765v2.175h1.677v1.187H323.78v5.57a1.244,1.244,0,0,0,.224.809.944.944,0,0,0,.764.27,3.718,3.718,0,0,0,.73-.1V24a4.452,4.452,0,0,1-1.179.166,1.912,1.912,0,0,1-1.552-.623,2.675,2.675,0,0,1-.523-1.768v-5.57h-1.635V15.019h1.635V12.844Zm3.1,6.591a5.261,5.261,0,0,1,.979-3.324,3.333,3.333,0,0,1,5.063-.178V11.25h1.536V24h-1.411l-.075-.963a3.127,3.127,0,0,1-2.565,1.129,3.068,3.068,0,0,1-2.544-1.278,5.321,5.321,0,0,1-.984-3.337Zm1.536.174A3.984,3.984,0,0,0,329.043,22a2.039,2.039,0,0,0,1.743.863,2.24,2.24,0,0,0,2.133-1.312V17.426a2.257,2.257,0,0,0-2.117-1.27,2.049,2.049,0,0,0-1.76.872A4.386,4.386,0,0,0,328.412,19.609Zm8.633-4.292-.872-.6a4,4,0,0,0,.8-2.274v-1.2h1.519v1.079a4.1,4.1,0,0,1-1.444,2.988Zm2.548,0-.872-.6a4,4,0,0,0,.8-2.274v-1.2h1.519v1.079a4.1,4.1,0,0,1-1.444,2.988Z" transform="translate(573 6266)" fill="#12263f"/>
      <path id="Trazado_606265" data-name="Trazado 606265" d="M509.369,616.783c0,10.395,1.913,16.8,9.019,18.083l-.182.285c-10.294-.285-13.118-5.126-13.118-20.647V593c0-9.54-.638-14.1-7.288-16.66v-.285c6.559-2.563,7.288-7.12,7.288-16.517V536.617c0-14.95,3.552-19.222,13.118-19.649l.182.285c-7.288,1.709-9.019,7.4-9.019,18.226V558.4c0,9.683-.82,15.236-7.652,17.657v.285c6.923,2.563,7.652,8.544,7.652,18.225Z" transform="translate(41.612 5798.726)" fill="#12263f"/>
      <path id="Trazado_606463" data-name="Trazado 606463" d="M2.191-5.346l5.2,2.1v1.627L.6-4.765V-5.977l6.79-3.138v1.627ZM21.6-4.391a5.378,5.378,0,0,1-.938,3.3A3.006,3.006,0,0,1,18.121.166,3.294,3.294,0,0,1,15.547-.872V3.453H14.012V-8.981h1.4l.075,1A3.163,3.163,0,0,1,18.1-9.147a3.063,3.063,0,0,1,2.561,1.22,5.437,5.437,0,0,1,.942,3.4Zm-1.536-.174a3.968,3.968,0,0,0-.647-2.4,2.086,2.086,0,0,0-1.776-.88,2.257,2.257,0,0,0-2.092,1.237v4.292a2.262,2.262,0,0,0,2.108,1.229,2.076,2.076,0,0,0,1.756-.876A4.332,4.332,0,0,0,20.063-4.565ZM27.276.166a3.924,3.924,0,0,1-2.972-1.2,4.452,4.452,0,0,1-1.146-3.208v-.282a5.39,5.39,0,0,1,.51-2.386A3.982,3.982,0,0,1,25.1-8.554a3.59,3.59,0,0,1,1.988-.594,3.364,3.364,0,0,1,2.723,1.154,5,5,0,0,1,.971,3.3v.639H24.695a3.193,3.193,0,0,0,.776,2.146,2.44,2.44,0,0,0,1.888.818,2.675,2.675,0,0,0,1.378-.332,3.462,3.462,0,0,0,.988-.88l.938.73A3.772,3.772,0,0,1,27.276.166Zm-.191-8.052a2.048,2.048,0,0,0-1.561.677,3.288,3.288,0,0,0-.78,1.9h4.5v-.116a2.925,2.925,0,0,0-.631-1.814A1.928,1.928,0,0,0,27.085-7.886ZM36.9-7.6a4.6,4.6,0,0,0-.755-.058,2.024,2.024,0,0,0-2.05,1.287V0H32.556V-8.981H34.05l.025,1.038a2.391,2.391,0,0,1,2.142-1.2,1.569,1.569,0,0,1,.681.116Zm6.641,5.221a1.13,1.13,0,0,0-.469-.967,4.514,4.514,0,0,0-1.635-.594,7.731,7.731,0,0,1-1.851-.6,2.633,2.633,0,0,1-1.013-.83,1.986,1.986,0,0,1-.328-1.146,2.33,2.33,0,0,1,.934-1.868,3.647,3.647,0,0,1,2.386-.764,3.753,3.753,0,0,1,2.478.789,2.5,2.5,0,0,1,.95,2.017H43.446a1.386,1.386,0,0,0-.535-1.087,2.006,2.006,0,0,0-1.349-.457,2.1,2.1,0,0,0-1.312.365,1.15,1.15,0,0,0-.473.955.932.932,0,0,0,.44.838,5.413,5.413,0,0,0,1.59.54,8.283,8.283,0,0,1,1.864.614,2.718,2.718,0,0,1,1.058.859,2.112,2.112,0,0,1,.344,1.224A2.3,2.3,0,0,1,44.11-.56a4.039,4.039,0,0,1-2.5.726A4.523,4.523,0,0,1,39.7-.216a3.105,3.105,0,0,1-1.3-1.067,2.571,2.571,0,0,1-.469-1.482H39.47a1.59,1.59,0,0,0,.618,1.224,2.4,2.4,0,0,0,1.523.452,2.476,2.476,0,0,0,1.4-.353A1.084,1.084,0,0,0,43.538-2.382Zm3.129-2.191a5.3,5.3,0,0,1,.519-2.374A3.87,3.87,0,0,1,48.63-8.575a3.932,3.932,0,0,1,2.113-.573,3.788,3.788,0,0,1,2.968,1.27A4.886,4.886,0,0,1,54.843-4.5v.108a5.351,5.351,0,0,1-.5,2.353A3.813,3.813,0,0,1,52.905-.415a3.977,3.977,0,0,1-2.146.581A3.778,3.778,0,0,1,47.8-1.1a4.861,4.861,0,0,1-1.133-3.362Zm1.544.183a3.842,3.842,0,0,0,.693,2.4,2.218,2.218,0,0,0,1.855.9A2.2,2.2,0,0,0,52.619-2a4.2,4.2,0,0,0,.689-2.569,3.836,3.836,0,0,0-.7-2.395,2.23,2.23,0,0,0-1.864-.917,2.205,2.205,0,0,0-1.834.9A4.17,4.17,0,0,0,48.211-4.391Zm10.011-4.59.05,1.129a3.273,3.273,0,0,1,2.689-1.295q2.847,0,2.872,3.212V0H62.3V-5.943a2.068,2.068,0,0,0-.444-1.436A1.78,1.78,0,0,0,60.5-7.844a2.216,2.216,0,0,0-1.312.4A2.706,2.706,0,0,0,58.3-6.4V0H56.769V-8.981ZM71.694,0a3.226,3.226,0,0,1-.216-.946A3.426,3.426,0,0,1,68.921.166a3.17,3.17,0,0,1-2.179-.751,2.43,2.43,0,0,1-.851-1.905,2.539,2.539,0,0,1,1.067-2.179,5.029,5.029,0,0,1,3-.776h1.494v-.706a1.725,1.725,0,0,0-.481-1.282,1.935,1.935,0,0,0-1.419-.477,2.239,2.239,0,0,0-1.378.415,1.223,1.223,0,0,0-.556,1H66.074a2.119,2.119,0,0,1,.477-1.3,3.258,3.258,0,0,1,1.295-.992,4.356,4.356,0,0,1,1.8-.365,3.551,3.551,0,0,1,2.432.776,2.8,2.8,0,0,1,.913,2.137V-2.1A5.054,5.054,0,0,0,73.3-.133V0ZM69.146-1.17a2.7,2.7,0,0,0,1.37-.374,2.259,2.259,0,0,0,.938-.971V-4.358h-1.2q-2.822,0-2.822,1.652a1.4,1.4,0,0,0,.481,1.129A1.85,1.85,0,0,0,69.146-1.17ZM80.833-5.4l-5.487-2.15V-9.123l7.089,3.138v1.212L75.346-1.627V-3.221Z" transform="translate(573 6338)" fill="#12263f"/>
      <path id="Trazado_606459" data-name="Trazado 606459" d="M2.191-5.346l5.2,2.1v1.627L.6-4.765V-5.977l6.79-3.138v1.627ZM15.464-8.981l.05,1.129A3.273,3.273,0,0,1,18.2-9.147q2.847,0,2.872,3.212V0H19.54V-5.943A2.068,2.068,0,0,0,19.1-7.379a1.78,1.78,0,0,0-1.357-.465,2.216,2.216,0,0,0-1.312.4,2.706,2.706,0,0,0-.88,1.046V0H14.012V-8.981Zm7.521,4.408A5.3,5.3,0,0,1,23.5-6.948a3.87,3.87,0,0,1,1.444-1.627,3.932,3.932,0,0,1,2.113-.573,3.788,3.788,0,0,1,2.968,1.27A4.886,4.886,0,0,1,31.161-4.5v.108a5.351,5.351,0,0,1-.5,2.353A3.813,3.813,0,0,1,29.223-.415a3.977,3.977,0,0,1-2.146.581A3.778,3.778,0,0,1,24.118-1.1a4.861,4.861,0,0,1-1.133-3.362Zm1.544.183a3.842,3.842,0,0,0,.693,2.4,2.218,2.218,0,0,0,1.855.9A2.2,2.2,0,0,0,28.937-2a4.2,4.2,0,0,0,.689-2.569,3.836,3.836,0,0,0-.7-2.395,2.23,2.23,0,0,0-1.864-.917,2.205,2.205,0,0,0-1.834.9A4.17,4.17,0,0,0,24.529-4.391Zm10-4.59.042,1a3.317,3.317,0,0,1,2.665-1.162A2.568,2.568,0,0,1,39.8-7.7a3.4,3.4,0,0,1,1.166-1.046,3.445,3.445,0,0,1,1.7-.4q2.955,0,3,3.129V0H44.135V-5.927a2.062,2.062,0,0,0-.44-1.44,1.937,1.937,0,0,0-1.478-.477,2.036,2.036,0,0,0-1.419.51,2.071,2.071,0,0,0-.656,1.374V0H38.6V-5.885a1.713,1.713,0,0,0-1.917-1.959,2.055,2.055,0,0,0-2.067,1.287V0H33.079V-8.981ZM55.59-4.391a5.34,5.34,0,0,1-.946,3.308A3.024,3.024,0,0,1,52.1.166a3.131,3.131,0,0,1-2.631-1.2L49.4,0H47.987V-12.75h1.536v4.756a3.113,3.113,0,0,1,2.565-1.154,3.042,3.042,0,0,1,2.569,1.237,5.5,5.5,0,0,1,.934,3.387Zm-1.536-.174a4.15,4.15,0,0,0-.606-2.424,2.006,2.006,0,0,0-1.743-.855,2.255,2.255,0,0,0-2.183,1.411v3.885a2.318,2.318,0,0,0,2.2,1.411,2,2,0,0,0,1.718-.855A4.413,4.413,0,0,0,54.055-4.565ZM61.866-7.6a4.6,4.6,0,0,0-.755-.058,2.024,2.024,0,0,0-2.05,1.287V0H57.524V-8.981h1.494l.025,1.038a2.391,2.391,0,0,1,2.142-1.2,1.569,1.569,0,0,1,.681.116Zm4.98,7.77a3.924,3.924,0,0,1-2.972-1.2,4.452,4.452,0,0,1-1.146-3.208v-.282a5.39,5.39,0,0,1,.51-2.386,3.982,3.982,0,0,1,1.428-1.644,3.59,3.59,0,0,1,1.988-.594,3.364,3.364,0,0,1,2.723,1.154,5,5,0,0,1,.971,3.3v.639H64.265a3.193,3.193,0,0,0,.776,2.146,2.44,2.44,0,0,0,1.888.818,2.675,2.675,0,0,0,1.378-.332,3.462,3.462,0,0,0,.988-.88l.938.73A3.772,3.772,0,0,1,66.846.166Zm-.191-8.052a2.048,2.048,0,0,0-1.561.677,3.288,3.288,0,0,0-.78,1.9h4.5v-.116a2.925,2.925,0,0,0-.631-1.814A1.928,1.928,0,0,0,66.655-7.886ZM77.563-5.4l-5.487-2.15V-9.123l7.089,3.138v1.212L72.076-1.627V-3.221ZM82.676,0H81.14V-12.75h1.536Zm8-.888A3.262,3.262,0,0,1,88.046.166a2.792,2.792,0,0,1-2.187-.834,3.611,3.611,0,0,1-.76-2.469V-8.981h1.536v5.8q0,2.042,1.66,2.042a2.3,2.3,0,0,0,2.341-1.312V-8.981h1.536V0H90.711Zm5.5.888H94.637V-8.981h1.536Zm-1.66-11.364a.917.917,0,0,1,.228-.631.857.857,0,0,1,.677-.257.87.87,0,0,1,.681.257.907.907,0,0,1,.232.631.877.877,0,0,1-.232.623.886.886,0,0,1-.681.249.872.872,0,0,1-.677-.249A.886.886,0,0,1,94.513-11.364Zm9.347,8.981a1.131,1.131,0,0,0-.469-.967,4.514,4.514,0,0,0-1.635-.594,7.731,7.731,0,0,1-1.851-.6,2.633,2.633,0,0,1-1.013-.83,1.986,1.986,0,0,1-.328-1.146A2.33,2.33,0,0,1,99.5-8.384a3.647,3.647,0,0,1,2.386-.764,3.753,3.753,0,0,1,2.478.789,2.5,2.5,0,0,1,.95,2.017h-1.544a1.386,1.386,0,0,0-.535-1.087,2.006,2.006,0,0,0-1.349-.457,2.1,2.1,0,0,0-1.312.365,1.15,1.15,0,0,0-.473.955.932.932,0,0,0,.44.838,5.413,5.413,0,0,0,1.59.54,8.283,8.283,0,0,1,1.864.614,2.718,2.718,0,0,1,1.058.859A2.112,2.112,0,0,1,105.4-2.49a2.3,2.3,0,0,1-.963,1.93,4.039,4.039,0,0,1-2.5.726,4.523,4.523,0,0,1-1.909-.382,3.105,3.105,0,0,1-1.3-1.067,2.571,2.571,0,0,1-.469-1.482h1.536a1.59,1.59,0,0,0,.618,1.224,2.4,2.4,0,0,0,1.523.452,2.476,2.476,0,0,0,1.4-.353A1.084,1.084,0,0,0,103.859-2.382Zm8.774-2.963,5.2,2.1v1.627l-6.79-3.146V-5.977l6.79-3.138v1.627Zm7.919,6.383h-1.32l5.047-13.124h1.312ZM128.7-8.981l.05,1.129a3.273,3.273,0,0,1,2.689-1.295q2.847,0,2.872,3.212V0h-1.536V-5.943a2.068,2.068,0,0,0-.444-1.436,1.78,1.78,0,0,0-1.357-.465,2.216,2.216,0,0,0-1.312.4,2.706,2.706,0,0,0-.88,1.046V0h-1.536V-8.981Zm7.521,4.408a5.3,5.3,0,0,1,.519-2.374,3.87,3.87,0,0,1,1.444-1.627,3.932,3.932,0,0,1,2.113-.573,3.788,3.788,0,0,1,2.968,1.27A4.886,4.886,0,0,1,144.4-4.5v.108a5.351,5.351,0,0,1-.5,2.353,3.813,3.813,0,0,1-1.436,1.623,3.977,3.977,0,0,1-2.146.581,3.778,3.778,0,0,1-2.959-1.27,4.861,4.861,0,0,1-1.133-3.362Zm1.544.183a3.842,3.842,0,0,0,.693,2.4,2.218,2.218,0,0,0,1.855.9A2.2,2.2,0,0,0,142.176-2a4.2,4.2,0,0,0,.689-2.569,3.836,3.836,0,0,0-.7-2.395,2.23,2.23,0,0,0-1.864-.917,2.205,2.205,0,0,0-1.834.9A4.17,4.17,0,0,0,137.768-4.391Zm10-4.59.042,1a3.317,3.317,0,0,1,2.665-1.162A2.568,2.568,0,0,1,153.042-7.7a3.4,3.4,0,0,1,1.166-1.046,3.445,3.445,0,0,1,1.7-.4q2.955,0,3,3.129V0h-1.536V-5.927a2.062,2.062,0,0,0-.44-1.44,1.937,1.937,0,0,0-1.478-.477,2.036,2.036,0,0,0-1.419.51,2.071,2.071,0,0,0-.656,1.374V0h-1.544V-5.885a1.713,1.713,0,0,0-1.917-1.959,2.055,2.055,0,0,0-2.067,1.287V0h-1.536V-8.981Zm21.059,4.59a5.34,5.34,0,0,1-.946,3.308,3.024,3.024,0,0,1-2.54,1.249,3.131,3.131,0,0,1-2.631-1.2L162.637,0h-1.411V-12.75h1.536v4.756a3.113,3.113,0,0,1,2.565-1.154A3.042,3.042,0,0,1,167.9-7.911a5.5,5.5,0,0,1,.934,3.387Zm-1.536-.174a4.15,4.15,0,0,0-.606-2.424,2.006,2.006,0,0,0-1.743-.855,2.255,2.255,0,0,0-2.183,1.411v3.885a2.318,2.318,0,0,0,2.2,1.411,2,2,0,0,0,1.718-.855A4.413,4.413,0,0,0,167.294-4.565ZM175.1-7.6a4.6,4.6,0,0,0-.755-.058,2.024,2.024,0,0,0-2.05,1.287V0h-1.536V-8.981h1.494l.025,1.038a2.391,2.391,0,0,1,2.142-1.2,1.569,1.569,0,0,1,.681.116Zm4.98,7.77a3.924,3.924,0,0,1-2.972-1.2,4.452,4.452,0,0,1-1.146-3.208v-.282a5.39,5.39,0,0,1,.51-2.386,3.982,3.982,0,0,1,1.428-1.644,3.59,3.59,0,0,1,1.988-.594,3.364,3.364,0,0,1,2.723,1.154,5,5,0,0,1,.971,3.3v.639H177.5a3.193,3.193,0,0,0,.776,2.146,2.44,2.44,0,0,0,1.888.818,2.675,2.675,0,0,0,1.378-.332,3.462,3.462,0,0,0,.988-.88l.938.73A3.772,3.772,0,0,1,180.085.166Zm-.191-8.052a2.048,2.048,0,0,0-1.561.677,3.288,3.288,0,0,0-.78,1.9h4.5v-.116a2.925,2.925,0,0,0-.631-1.814A1.928,1.928,0,0,0,179.895-7.886ZM190.8-5.4l-5.487-2.15V-9.123L192.4-5.985v1.212l-7.089,3.146V-3.221Z" transform="translate(602 6364)" fill="#12263f"/>
      <path id="Trazado_606460" data-name="Trazado 606460" d="M2.191-5.346l5.2,2.1v1.627L.6-4.765V-5.977l6.79-3.138v1.627ZM19.557,0a3.226,3.226,0,0,1-.216-.946A3.426,3.426,0,0,1,16.784.166a3.17,3.17,0,0,1-2.179-.751,2.43,2.43,0,0,1-.851-1.905,2.539,2.539,0,0,1,1.067-2.179,5.029,5.029,0,0,1,3-.776h1.494v-.706a1.725,1.725,0,0,0-.481-1.282,1.935,1.935,0,0,0-1.419-.477,2.239,2.239,0,0,0-1.378.415,1.223,1.223,0,0,0-.556,1H13.937a2.119,2.119,0,0,1,.477-1.3,3.258,3.258,0,0,1,1.295-.992,4.356,4.356,0,0,1,1.8-.365,3.551,3.551,0,0,1,2.432.776,2.8,2.8,0,0,1,.913,2.137V-2.1a5.054,5.054,0,0,0,.315,1.967V0ZM17.008-1.17a2.7,2.7,0,0,0,1.37-.374,2.259,2.259,0,0,0,.938-.971V-4.358h-1.2q-2.822,0-2.822,1.652a1.4,1.4,0,0,0,.481,1.129A1.85,1.85,0,0,0,17.008-1.17ZM30.846-4.391a5.378,5.378,0,0,1-.938,3.3A3.006,3.006,0,0,1,27.368.166,3.294,3.294,0,0,1,24.794-.872V3.453H23.259V-8.981h1.4l.075,1a3.163,3.163,0,0,1,2.606-1.162A3.063,3.063,0,0,1,29.9-7.927a5.437,5.437,0,0,1,.942,3.4ZM29.31-4.565a3.968,3.968,0,0,0-.647-2.4,2.086,2.086,0,0,0-1.776-.88,2.257,2.257,0,0,0-2.092,1.237v4.292A2.262,2.262,0,0,0,26.9-1.087a2.076,2.076,0,0,0,1.756-.876A4.332,4.332,0,0,0,29.31-4.565ZM36.523.166a3.924,3.924,0,0,1-2.972-1.2,4.452,4.452,0,0,1-1.146-3.208v-.282a5.39,5.39,0,0,1,.51-2.386,3.982,3.982,0,0,1,1.428-1.644,3.59,3.59,0,0,1,1.988-.594,3.364,3.364,0,0,1,2.723,1.154,5,5,0,0,1,.971,3.3v.639H33.942a3.193,3.193,0,0,0,.776,2.146,2.44,2.44,0,0,0,1.888.818,2.675,2.675,0,0,0,1.378-.332,3.462,3.462,0,0,0,.988-.88l.938.73A3.772,3.772,0,0,1,36.523.166Zm-.191-8.052a2.048,2.048,0,0,0-1.561.677,3.288,3.288,0,0,0-.78,1.9h4.5v-.116a2.925,2.925,0,0,0-.631-1.814A1.928,1.928,0,0,0,36.333-7.886ZM43.471,0H41.936V-12.75h1.536ZM47.6,0H46.061V-12.75H47.6Zm4.125,0H50.187V-8.981h1.536Zm-1.66-11.364a.917.917,0,0,1,.228-.631.857.857,0,0,1,.677-.257.87.87,0,0,1,.681.257.907.907,0,0,1,.232.631.877.877,0,0,1-.232.623.886.886,0,0,1-.681.249.872.872,0,0,1-.677-.249A.886.886,0,0,1,50.062-11.364Zm3.744,6.8a5.261,5.261,0,0,1,.979-3.324A3.1,3.1,0,0,1,57.35-9.147a3.115,3.115,0,0,1,2.5,1.079V-12.75h1.536V0H59.973L59.9-.963A3.127,3.127,0,0,1,57.333.166a3.068,3.068,0,0,1-2.544-1.278,5.321,5.321,0,0,1-.984-3.337Zm1.536.174A3.984,3.984,0,0,0,55.972-2a2.039,2.039,0,0,0,1.743.863,2.24,2.24,0,0,0,2.133-1.312V-6.574a2.257,2.257,0,0,0-2.117-1.27,2.049,2.049,0,0,0-1.76.872A4.386,4.386,0,0,0,55.341-4.391Zm8.019-.183a5.3,5.3,0,0,1,.519-2.374,3.87,3.87,0,0,1,1.444-1.627,3.932,3.932,0,0,1,2.113-.573A3.788,3.788,0,0,1,70.4-7.877,4.886,4.886,0,0,1,71.536-4.5v.108a5.351,5.351,0,0,1-.5,2.353A3.813,3.813,0,0,1,69.6-.415a3.977,3.977,0,0,1-2.146.581A3.778,3.778,0,0,1,64.493-1.1,4.861,4.861,0,0,1,63.36-4.466Zm1.544.183a3.842,3.842,0,0,0,.693,2.4,2.218,2.218,0,0,0,1.855.9A2.2,2.2,0,0,0,69.312-2,4.2,4.2,0,0,0,70-4.574a3.836,3.836,0,0,0-.7-2.395,2.23,2.23,0,0,0-1.864-.917,2.205,2.205,0,0,0-1.834.9A4.17,4.17,0,0,0,64.9-4.391ZM78.691-2.382a1.131,1.131,0,0,0-.469-.967,4.514,4.514,0,0,0-1.635-.594,7.731,7.731,0,0,1-1.851-.6,2.633,2.633,0,0,1-1.013-.83A1.986,1.986,0,0,1,73.4-6.516a2.33,2.33,0,0,1,.934-1.868,3.647,3.647,0,0,1,2.386-.764,3.753,3.753,0,0,1,2.478.789,2.5,2.5,0,0,1,.95,2.017H78.6a1.386,1.386,0,0,0-.535-1.087,2.006,2.006,0,0,0-1.349-.457,2.1,2.1,0,0,0-1.312.365,1.15,1.15,0,0,0-.473.955.932.932,0,0,0,.44.838,5.413,5.413,0,0,0,1.59.54,8.283,8.283,0,0,1,1.864.614,2.718,2.718,0,0,1,1.058.859,2.112,2.112,0,0,1,.344,1.224,2.3,2.3,0,0,1-.963,1.93,4.039,4.039,0,0,1-2.5.726,4.523,4.523,0,0,1-1.909-.382,3.105,3.105,0,0,1-1.3-1.067,2.571,2.571,0,0,1-.469-1.482h1.536a1.59,1.59,0,0,0,.618,1.224,2.4,2.4,0,0,0,1.523.452,2.476,2.476,0,0,0,1.4-.353A1.084,1.084,0,0,0,78.691-2.382ZM87.665-5.4l-5.487-2.15V-9.123l7.089,3.138v1.212L82.178-1.627V-3.221Zm5.279.664V0H91.35V-12.086h4.458a4.478,4.478,0,0,1,3.109,1.013,3.433,3.433,0,0,1,1.125,2.681,3.388,3.388,0,0,1-1.1,2.71,4.678,4.678,0,0,1-3.15.95Zm0-1.3h2.864a2.867,2.867,0,0,0,1.959-.6,2.2,2.2,0,0,0,.681-1.739,2.271,2.271,0,0,0-.681-1.727,2.685,2.685,0,0,0-1.868-.672H92.944Zm12.509,6.2a3.924,3.924,0,0,1-2.972-1.2,4.452,4.452,0,0,1-1.146-3.208v-.282a5.39,5.39,0,0,1,.51-2.386,3.982,3.982,0,0,1,1.428-1.644,3.59,3.59,0,0,1,1.988-.594,3.364,3.364,0,0,1,2.723,1.154,5,5,0,0,1,.971,3.3v.639h-6.084a3.193,3.193,0,0,0,.776,2.146,2.44,2.44,0,0,0,1.888.818,2.675,2.675,0,0,0,1.378-.332,3.462,3.462,0,0,0,.988-.88l.938.73A3.772,3.772,0,0,1,105.453.166Zm-.191-8.052a2.048,2.048,0,0,0-1.561.677,3.288,3.288,0,0,0-.78,1.9h4.5v-.116a2.925,2.925,0,0,0-.631-1.814A1.928,1.928,0,0,0,105.262-7.886Zm.747-4.864h1.859l-2.225,2.44h-1.237ZM115.074-7.6a4.6,4.6,0,0,0-.755-.058,2.024,2.024,0,0,0-2.05,1.287V0h-1.536V-8.981h1.494l.025,1.038a2.391,2.391,0,0,1,2.142-1.2,1.569,1.569,0,0,1,.681.116Zm4.98,7.77a3.924,3.924,0,0,1-2.972-1.2,4.452,4.452,0,0,1-1.146-3.208v-.282a5.39,5.39,0,0,1,.51-2.386,3.982,3.982,0,0,1,1.428-1.644,3.59,3.59,0,0,1,1.988-.594,3.364,3.364,0,0,1,2.723,1.154,5,5,0,0,1,.971,3.3v.639h-6.084a3.193,3.193,0,0,0,.776,2.146,2.44,2.44,0,0,0,1.888.818,2.675,2.675,0,0,0,1.378-.332,3.462,3.462,0,0,0,.988-.88l.938.73A3.772,3.772,0,0,1,120.054.166Zm-.191-8.052a2.048,2.048,0,0,0-1.561.677,3.288,3.288,0,0,0-.78,1.9h4.5v-.116a2.925,2.925,0,0,0-.631-1.814A1.928,1.928,0,0,0,119.863-7.886Zm6.915,6.632h5.254V0H124.9V-1.129l4.956-6.583h-4.881v-1.27h6.807v1.087ZM139-5.346l5.2,2.1v1.627L137.4-4.765V-5.977l6.79-3.138v1.627Zm7.919,6.383H145.6l5.047-13.124h1.312ZM159.159,0a3.226,3.226,0,0,1-.216-.946A3.426,3.426,0,0,1,156.387.166a3.17,3.17,0,0,1-2.179-.751,2.43,2.43,0,0,1-.851-1.905,2.539,2.539,0,0,1,1.067-2.179,5.029,5.029,0,0,1,3-.776h1.494v-.706a1.725,1.725,0,0,0-.481-1.282,1.935,1.935,0,0,0-1.419-.477,2.239,2.239,0,0,0-1.378.415,1.223,1.223,0,0,0-.556,1H153.54a2.119,2.119,0,0,1,.477-1.3,3.258,3.258,0,0,1,1.295-.992,4.356,4.356,0,0,1,1.8-.365,3.551,3.551,0,0,1,2.432.776,2.8,2.8,0,0,1,.913,2.137V-2.1a5.054,5.054,0,0,0,.315,1.967V0Zm-2.548-1.17a2.7,2.7,0,0,0,1.37-.374,2.259,2.259,0,0,0,.938-.971V-4.358h-1.2q-2.822,0-2.822,1.652a1.4,1.4,0,0,0,.481,1.129A1.85,1.85,0,0,0,156.611-1.17Zm13.837-3.221a5.378,5.378,0,0,1-.938,3.3A3.006,3.006,0,0,1,166.97.166,3.294,3.294,0,0,1,164.4-.872V3.453h-1.536V-8.981h1.4l.075,1a3.163,3.163,0,0,1,2.606-1.162,3.063,3.063,0,0,1,2.561,1.22,5.437,5.437,0,0,1,.942,3.4Zm-1.536-.174a3.968,3.968,0,0,0-.647-2.4,2.086,2.086,0,0,0-1.776-.88A2.257,2.257,0,0,0,164.4-6.607v4.292a2.262,2.262,0,0,0,2.108,1.229,2.076,2.076,0,0,0,1.756-.876A4.332,4.332,0,0,0,168.913-4.565ZM176.126.166a3.924,3.924,0,0,1-2.972-1.2,4.452,4.452,0,0,1-1.146-3.208v-.282a5.39,5.39,0,0,1,.51-2.386,3.982,3.982,0,0,1,1.428-1.644,3.59,3.59,0,0,1,1.988-.594,3.364,3.364,0,0,1,2.723,1.154,5,5,0,0,1,.971,3.3v.639h-6.084a3.193,3.193,0,0,0,.776,2.146,2.44,2.44,0,0,0,1.888.818,2.675,2.675,0,0,0,1.378-.332,3.462,3.462,0,0,0,.988-.88l.938.73A3.772,3.772,0,0,1,176.126.166Zm-.191-8.052a2.048,2.048,0,0,0-1.561.677,3.288,3.288,0,0,0-.78,1.9h4.5v-.116a2.925,2.925,0,0,0-.631-1.814A1.928,1.928,0,0,0,175.935-7.886ZM183.074,0h-1.536V-12.75h1.536ZM187.2,0h-1.536V-12.75H187.2Zm4.125,0h-1.536V-8.981h1.536Zm-1.66-11.364a.917.917,0,0,1,.228-.631.857.857,0,0,1,.677-.257.87.87,0,0,1,.681.257.907.907,0,0,1,.232.631.877.877,0,0,1-.232.623.886.886,0,0,1-.681.249.872.872,0,0,1-.677-.249A.886.886,0,0,1,189.665-11.364Zm3.744,6.8a5.261,5.261,0,0,1,.979-3.324,3.1,3.1,0,0,1,2.565-1.258,3.115,3.115,0,0,1,2.5,1.079V-12.75h1.536V0h-1.411L199.5-.963A3.127,3.127,0,0,1,196.936.166a3.068,3.068,0,0,1-2.544-1.278,5.321,5.321,0,0,1-.984-3.337Zm1.536.174A3.984,3.984,0,0,0,195.575-2a2.039,2.039,0,0,0,1.743.863,2.24,2.24,0,0,0,2.133-1.312V-6.574a2.257,2.257,0,0,0-2.117-1.27,2.049,2.049,0,0,0-1.76.872A4.386,4.386,0,0,0,194.944-4.391Zm8.019-.183a5.3,5.3,0,0,1,.519-2.374,3.87,3.87,0,0,1,1.444-1.627,3.932,3.932,0,0,1,2.113-.573,3.788,3.788,0,0,1,2.968,1.27A4.886,4.886,0,0,1,211.139-4.5v.108a5.351,5.351,0,0,1-.5,2.353A3.813,3.813,0,0,1,209.2-.415a3.977,3.977,0,0,1-2.146.581A3.778,3.778,0,0,1,204.1-1.1a4.861,4.861,0,0,1-1.133-3.362Zm1.544.183a3.842,3.842,0,0,0,.693,2.4,2.218,2.218,0,0,0,1.855.9A2.2,2.2,0,0,0,208.914-2a4.2,4.2,0,0,0,.689-2.569,3.836,3.836,0,0,0-.7-2.395,2.23,2.23,0,0,0-1.864-.917,2.205,2.205,0,0,0-1.834.9A4.17,4.17,0,0,0,204.506-4.391Zm13.788,2.009a1.13,1.13,0,0,0-.469-.967,4.514,4.514,0,0,0-1.635-.594,7.731,7.731,0,0,1-1.851-.6,2.633,2.633,0,0,1-1.013-.83A1.986,1.986,0,0,1,213-6.516a2.33,2.33,0,0,1,.934-1.868,3.647,3.647,0,0,1,2.386-.764,3.753,3.753,0,0,1,2.478.789,2.5,2.5,0,0,1,.95,2.017H218.2a1.386,1.386,0,0,0-.535-1.087,2.006,2.006,0,0,0-1.349-.457,2.1,2.1,0,0,0-1.312.365,1.15,1.15,0,0,0-.473.955.932.932,0,0,0,.44.838,5.413,5.413,0,0,0,1.59.54,8.283,8.283,0,0,1,1.864.614,2.718,2.718,0,0,1,1.058.859,2.112,2.112,0,0,1,.344,1.224,2.3,2.3,0,0,1-.963,1.93,4.039,4.039,0,0,1-2.5.726,4.523,4.523,0,0,1-1.909-.382,3.105,3.105,0,0,1-1.3-1.067,2.571,2.571,0,0,1-.469-1.482h1.536a1.59,1.59,0,0,0,.618,1.224,2.4,2.4,0,0,0,1.523.452,2.476,2.476,0,0,0,1.4-.353A1.084,1.084,0,0,0,218.294-2.382ZM227.267-5.4l-5.487-2.15V-9.123l7.089,3.138v1.212L221.78-1.627V-3.221Z" transform="translate(602 6390)" fill="#12263f"/>
      <path id="Trazado_606462" data-name="Trazado 606462" d="M2.191-5.346l5.2,2.1v1.627L.6-4.765V-5.977l6.79-3.138v1.627ZM14.319,1.038H13l5.047-13.124h1.312ZM28.6-4.391a5.378,5.378,0,0,1-.938,3.3A3.006,3.006,0,0,1,25.126.166,3.294,3.294,0,0,1,22.553-.872V3.453H21.018V-8.981h1.4l.075,1A3.163,3.163,0,0,1,25.1-9.147a3.063,3.063,0,0,1,2.561,1.22,5.437,5.437,0,0,1,.942,3.4Zm-1.536-.174a3.968,3.968,0,0,0-.647-2.4,2.086,2.086,0,0,0-1.776-.88,2.257,2.257,0,0,0-2.092,1.237v4.292a2.262,2.262,0,0,0,2.108,1.229,2.076,2.076,0,0,0,1.756-.876A4.332,4.332,0,0,0,27.069-4.565ZM34.282.166a3.924,3.924,0,0,1-2.972-1.2,4.452,4.452,0,0,1-1.146-3.208v-.282a5.39,5.39,0,0,1,.51-2.386A3.982,3.982,0,0,1,32.1-8.554a3.59,3.59,0,0,1,1.988-.594,3.364,3.364,0,0,1,2.723,1.154,5,5,0,0,1,.971,3.3v.639H31.7a3.193,3.193,0,0,0,.776,2.146,2.44,2.44,0,0,0,1.888.818,2.675,2.675,0,0,0,1.378-.332,3.462,3.462,0,0,0,.988-.88l.938.73A3.772,3.772,0,0,1,34.282.166Zm-.191-8.052a2.048,2.048,0,0,0-1.561.677,3.288,3.288,0,0,0-.78,1.9h4.5v-.116a2.925,2.925,0,0,0-.631-1.814A1.928,1.928,0,0,0,34.091-7.886ZM43.9-7.6a4.6,4.6,0,0,0-.755-.058A2.024,2.024,0,0,0,41.1-6.375V0H39.562V-8.981h1.494l.025,1.038a2.391,2.391,0,0,1,2.142-1.2,1.569,1.569,0,0,1,.681.116Zm6.641,5.221a1.13,1.13,0,0,0-.469-.967,4.514,4.514,0,0,0-1.635-.594,7.731,7.731,0,0,1-1.851-.6,2.633,2.633,0,0,1-1.013-.83,1.986,1.986,0,0,1-.328-1.146,2.33,2.33,0,0,1,.934-1.868,3.647,3.647,0,0,1,2.386-.764,3.753,3.753,0,0,1,2.478.789A2.5,2.5,0,0,1,52-6.342H50.452a1.386,1.386,0,0,0-.535-1.087,2.006,2.006,0,0,0-1.349-.457,2.1,2.1,0,0,0-1.312.365,1.15,1.15,0,0,0-.473.955.932.932,0,0,0,.44.838,5.413,5.413,0,0,0,1.59.54,8.283,8.283,0,0,1,1.864.614,2.718,2.718,0,0,1,1.058.859,2.112,2.112,0,0,1,.344,1.224,2.3,2.3,0,0,1-.963,1.93,4.039,4.039,0,0,1-2.5.726,4.523,4.523,0,0,1-1.909-.382,3.105,3.105,0,0,1-1.3-1.067,2.571,2.571,0,0,1-.469-1.482h1.536a1.59,1.59,0,0,0,.618,1.224,2.4,2.4,0,0,0,1.523.452,2.476,2.476,0,0,0,1.4-.353A1.084,1.084,0,0,0,50.543-2.382Zm3.129-2.191a5.3,5.3,0,0,1,.519-2.374,3.87,3.87,0,0,1,1.444-1.627,3.932,3.932,0,0,1,2.113-.573,3.788,3.788,0,0,1,2.968,1.27A4.886,4.886,0,0,1,61.849-4.5v.108a5.351,5.351,0,0,1-.5,2.353A3.813,3.813,0,0,1,59.911-.415a3.977,3.977,0,0,1-2.146.581A3.778,3.778,0,0,1,54.806-1.1a4.861,4.861,0,0,1-1.133-3.362Zm1.544.183a3.842,3.842,0,0,0,.693,2.4,2.218,2.218,0,0,0,1.855.9A2.2,2.2,0,0,0,59.625-2a4.2,4.2,0,0,0,.689-2.569,3.836,3.836,0,0,0-.7-2.395,2.23,2.23,0,0,0-1.864-.917,2.205,2.205,0,0,0-1.834.9A4.17,4.17,0,0,0,55.217-4.391Zm10.011-4.59.05,1.129a3.273,3.273,0,0,1,2.689-1.295q2.847,0,2.872,3.212V0H69.3V-5.943a2.068,2.068,0,0,0-.444-1.436A1.78,1.78,0,0,0,67.5-7.844a2.216,2.216,0,0,0-1.312.4,2.706,2.706,0,0,0-.88,1.046V0H63.775V-8.981ZM78.7,0a3.226,3.226,0,0,1-.216-.946A3.426,3.426,0,0,1,75.927.166a3.17,3.17,0,0,1-2.179-.751A2.43,2.43,0,0,1,72.9-2.49a2.539,2.539,0,0,1,1.067-2.179,5.029,5.029,0,0,1,3-.776h1.494v-.706a1.725,1.725,0,0,0-.481-1.282,1.935,1.935,0,0,0-1.419-.477A2.239,2.239,0,0,0,75.18-7.5a1.223,1.223,0,0,0-.556,1H73.08a2.119,2.119,0,0,1,.477-1.3,3.258,3.258,0,0,1,1.295-.992,4.356,4.356,0,0,1,1.8-.365,3.551,3.551,0,0,1,2.432.776,2.8,2.8,0,0,1,.913,2.137V-2.1A5.054,5.054,0,0,0,80.31-.133V0ZM76.151-1.17a2.7,2.7,0,0,0,1.37-.374,2.259,2.259,0,0,0,.938-.971V-4.358h-1.2q-2.822,0-2.822,1.652a1.4,1.4,0,0,0,.481,1.129A1.85,1.85,0,0,0,76.151-1.17ZM87.839-5.4l-5.487-2.15V-9.123l7.089,3.138v1.212L82.352-1.627V-3.221Z" transform="translate(573 6416)" fill="#12263f"/>
      <path id="Trazado_606461" data-name="Trazado 606461" d="M2.191-5.346l5.2,2.1v1.627L.6-4.765V-5.977l6.79-3.138v1.627ZM15.464-8.981l.05,1.129A3.273,3.273,0,0,1,18.2-9.147q2.847,0,2.872,3.212V0H19.54V-5.943A2.068,2.068,0,0,0,19.1-7.379a1.78,1.78,0,0,0-1.357-.465,2.216,2.216,0,0,0-1.312.4,2.706,2.706,0,0,0-.88,1.046V0H14.012V-8.981Zm7.521,4.408A5.3,5.3,0,0,1,23.5-6.948a3.87,3.87,0,0,1,1.444-1.627,3.932,3.932,0,0,1,2.113-.573,3.788,3.788,0,0,1,2.968,1.27A4.886,4.886,0,0,1,31.161-4.5v.108a5.351,5.351,0,0,1-.5,2.353A3.813,3.813,0,0,1,29.223-.415a3.977,3.977,0,0,1-2.146.581A3.778,3.778,0,0,1,24.118-1.1a4.861,4.861,0,0,1-1.133-3.362Zm1.544.183a3.842,3.842,0,0,0,.693,2.4,2.218,2.218,0,0,0,1.855.9A2.2,2.2,0,0,0,28.937-2a4.2,4.2,0,0,0,.689-2.569,3.836,3.836,0,0,0-.7-2.395,2.23,2.23,0,0,0-1.864-.917,2.205,2.205,0,0,0-1.834.9A4.17,4.17,0,0,0,24.529-4.391Zm10-4.59.042,1a3.317,3.317,0,0,1,2.665-1.162A2.568,2.568,0,0,1,39.8-7.7a3.4,3.4,0,0,1,1.166-1.046,3.445,3.445,0,0,1,1.7-.4q2.955,0,3,3.129V0H44.135V-5.927a2.062,2.062,0,0,0-.44-1.44,1.937,1.937,0,0,0-1.478-.477,2.036,2.036,0,0,0-1.419.51,2.071,2.071,0,0,0-.656,1.374V0H38.6V-5.885a1.713,1.713,0,0,0-1.917-1.959,2.055,2.055,0,0,0-2.067,1.287V0H33.079V-8.981ZM55.59-4.391a5.34,5.34,0,0,1-.946,3.308A3.024,3.024,0,0,1,52.1.166a3.131,3.131,0,0,1-2.631-1.2L49.4,0H47.987V-12.75h1.536v4.756a3.113,3.113,0,0,1,2.565-1.154,3.042,3.042,0,0,1,2.569,1.237,5.5,5.5,0,0,1,.934,3.387Zm-1.536-.174a4.15,4.15,0,0,0-.606-2.424,2.006,2.006,0,0,0-1.743-.855,2.255,2.255,0,0,0-2.183,1.411v3.885a2.318,2.318,0,0,0,2.2,1.411,2,2,0,0,0,1.718-.855A4.413,4.413,0,0,0,54.055-4.565ZM61.866-7.6a4.6,4.6,0,0,0-.755-.058,2.024,2.024,0,0,0-2.05,1.287V0H57.524V-8.981h1.494l.025,1.038a2.391,2.391,0,0,1,2.142-1.2,1.569,1.569,0,0,1,.681.116Zm4.98,7.77a3.924,3.924,0,0,1-2.972-1.2,4.452,4.452,0,0,1-1.146-3.208v-.282a5.39,5.39,0,0,1,.51-2.386,3.982,3.982,0,0,1,1.428-1.644,3.59,3.59,0,0,1,1.988-.594,3.364,3.364,0,0,1,2.723,1.154,5,5,0,0,1,.971,3.3v.639H64.265a3.193,3.193,0,0,0,.776,2.146,2.44,2.44,0,0,0,1.888.818,2.675,2.675,0,0,0,1.378-.332,3.462,3.462,0,0,0,.988-.88l.938.73A3.772,3.772,0,0,1,66.846.166Zm-.191-8.052a2.048,2.048,0,0,0-1.561.677,3.288,3.288,0,0,0-.78,1.9h4.5v-.116a2.925,2.925,0,0,0-.631-1.814A1.928,1.928,0,0,0,66.655-7.886ZM77.563-5.4l-5.487-2.15V-9.123l7.089,3.138v1.212L72.076-1.627V-3.221ZM82.676,0H81.14V-12.75h1.536Zm8-.888A3.262,3.262,0,0,1,88.046.166a2.792,2.792,0,0,1-2.187-.834,3.611,3.611,0,0,1-.76-2.469V-8.981h1.536v5.8q0,2.042,1.66,2.042a2.3,2.3,0,0,0,2.341-1.312V-8.981h1.536V0H90.711Zm5.5.888H94.637V-8.981h1.536Zm-1.66-11.364a.917.917,0,0,1,.228-.631.857.857,0,0,1,.677-.257.87.87,0,0,1,.681.257.907.907,0,0,1,.232.631.877.877,0,0,1-.232.623.886.886,0,0,1-.681.249.872.872,0,0,1-.677-.249A.886.886,0,0,1,94.513-11.364Zm9.347,8.981a1.131,1.131,0,0,0-.469-.967,4.514,4.514,0,0,0-1.635-.594,7.731,7.731,0,0,1-1.851-.6,2.633,2.633,0,0,1-1.013-.83,1.986,1.986,0,0,1-.328-1.146A2.33,2.33,0,0,1,99.5-8.384a3.647,3.647,0,0,1,2.386-.764,3.753,3.753,0,0,1,2.478.789,2.5,2.5,0,0,1,.95,2.017h-1.544a1.386,1.386,0,0,0-.535-1.087,2.006,2.006,0,0,0-1.349-.457,2.1,2.1,0,0,0-1.312.365,1.15,1.15,0,0,0-.473.955.932.932,0,0,0,.44.838,5.413,5.413,0,0,0,1.59.54,8.283,8.283,0,0,1,1.864.614,2.718,2.718,0,0,1,1.058.859A2.112,2.112,0,0,1,105.4-2.49a2.3,2.3,0,0,1-.963,1.93,4.039,4.039,0,0,1-2.5.726,4.523,4.523,0,0,1-1.909-.382,3.105,3.105,0,0,1-1.3-1.067,2.571,2.571,0,0,1-.469-1.482h1.536a1.59,1.59,0,0,0,.618,1.224,2.4,2.4,0,0,0,1.523.452,2.476,2.476,0,0,0,1.4-.353A1.084,1.084,0,0,0,103.859-2.382Zm8.774-2.963,5.2,2.1v1.627l-6.79-3.146V-5.977l6.79-3.138v1.627Zm7.919,6.383h-1.32l5.047-13.124h1.312ZM128.7-8.981l.05,1.129a3.273,3.273,0,0,1,2.689-1.295q2.847,0,2.872,3.212V0h-1.536V-5.943a2.068,2.068,0,0,0-.444-1.436,1.78,1.78,0,0,0-1.357-.465,2.216,2.216,0,0,0-1.312.4,2.706,2.706,0,0,0-.88,1.046V0h-1.536V-8.981Zm7.521,4.408a5.3,5.3,0,0,1,.519-2.374,3.87,3.87,0,0,1,1.444-1.627,3.932,3.932,0,0,1,2.113-.573,3.788,3.788,0,0,1,2.968,1.27A4.886,4.886,0,0,1,144.4-4.5v.108a5.351,5.351,0,0,1-.5,2.353,3.813,3.813,0,0,1-1.436,1.623,3.977,3.977,0,0,1-2.146.581,3.778,3.778,0,0,1-2.959-1.27,4.861,4.861,0,0,1-1.133-3.362Zm1.544.183a3.842,3.842,0,0,0,.693,2.4,2.218,2.218,0,0,0,1.855.9A2.2,2.2,0,0,0,142.176-2a4.2,4.2,0,0,0,.689-2.569,3.836,3.836,0,0,0-.7-2.395,2.23,2.23,0,0,0-1.864-.917,2.205,2.205,0,0,0-1.834.9A4.17,4.17,0,0,0,137.768-4.391Zm10-4.59.042,1a3.317,3.317,0,0,1,2.665-1.162A2.568,2.568,0,0,1,153.042-7.7a3.4,3.4,0,0,1,1.166-1.046,3.445,3.445,0,0,1,1.7-.4q2.955,0,3,3.129V0h-1.536V-5.927a2.062,2.062,0,0,0-.44-1.44,1.937,1.937,0,0,0-1.478-.477,2.036,2.036,0,0,0-1.419.51,2.071,2.071,0,0,0-.656,1.374V0h-1.544V-5.885a1.713,1.713,0,0,0-1.917-1.959,2.055,2.055,0,0,0-2.067,1.287V0h-1.536V-8.981Zm21.059,4.59a5.34,5.34,0,0,1-.946,3.308,3.024,3.024,0,0,1-2.54,1.249,3.131,3.131,0,0,1-2.631-1.2L162.637,0h-1.411V-12.75h1.536v4.756a3.113,3.113,0,0,1,2.565-1.154A3.042,3.042,0,0,1,167.9-7.911a5.5,5.5,0,0,1,.934,3.387Zm-1.536-.174a4.15,4.15,0,0,0-.606-2.424,2.006,2.006,0,0,0-1.743-.855,2.255,2.255,0,0,0-2.183,1.411v3.885a2.318,2.318,0,0,0,2.2,1.411,2,2,0,0,0,1.718-.855A4.413,4.413,0,0,0,167.294-4.565ZM175.1-7.6a4.6,4.6,0,0,0-.755-.058,2.024,2.024,0,0,0-2.05,1.287V0h-1.536V-8.981h1.494l.025,1.038a2.391,2.391,0,0,1,2.142-1.2,1.569,1.569,0,0,1,.681.116Zm4.98,7.77a3.924,3.924,0,0,1-2.972-1.2,4.452,4.452,0,0,1-1.146-3.208v-.282a5.39,5.39,0,0,1,.51-2.386,3.982,3.982,0,0,1,1.428-1.644,3.59,3.59,0,0,1,1.988-.594,3.364,3.364,0,0,1,2.723,1.154,5,5,0,0,1,.971,3.3v.639H177.5a3.193,3.193,0,0,0,.776,2.146,2.44,2.44,0,0,0,1.888.818,2.675,2.675,0,0,0,1.378-.332,3.462,3.462,0,0,0,.988-.88l.938.73A3.772,3.772,0,0,1,180.085.166Zm-.191-8.052a2.048,2.048,0,0,0-1.561.677,3.288,3.288,0,0,0-.78,1.9h4.5v-.116a2.925,2.925,0,0,0-.631-1.814A1.928,1.928,0,0,0,179.895-7.886ZM190.8-5.4l-5.487-2.15V-9.123L192.4-5.985v1.212l-7.089,3.146V-3.221Z" transform="translate(602 6364)" fill="#12263f"/>
    </g>
  </g>
</svg>
