<svg xmlns="http://www.w3.org/2000/svg" xmlns:xlink="http://www.w3.org/1999/xlink" width="541.086" height="209.26" viewBox="0 0 541.086 209.26">
  <defs>
    <linearGradient id="linear-gradient" x1="-1.504" y1="3.495" x2="-1.483" y2="3.495" gradientUnits="objectBoundingBox">
      <stop offset="0" stop-color="#9d6262"/>
      <stop offset="1" stop-color="#1a1a1a"/>
    </linearGradient>
    <clipPath id="clip-path">
      <path id="Trazado_601329" data-name="Trazado 601329" d="M202.008,55.544V52.1a3.074,3.074,0,1,1,6.147,0v3.448a3.074,3.074,0,1,1-6.147,0M197.659,1.8H212.5V38.836H197.659Zm-.9-1.8a.9.9,0,0,0-.9.9V39.736a.9.9,0,0,0,.9.9h7.422v6.674a4.878,4.878,0,0,0-3.973,4.786v3.448a4.873,4.873,0,1,0,9.746,0V52.1a4.879,4.879,0,0,0-3.974-4.787V40.635H213.4a.9.9,0,0,0,.9-.9V.9a.9.9,0,0,0-.9-.9Z" transform="translate(-195.86 0)" fill="#1565c0"/>
    </clipPath>
    <clipPath id="clip-path-2">
      <path id="Trazado_601330" data-name="Trazado 601330" d="M18.984,18.987H51.973V38.93H18.984Zm-.9-1.8a.9.9,0,0,0-.9.9V39.829a.9.9,0,0,0,.9.9H52.872a.9.9,0,0,0,.9-.9V18.088a.9.9,0,0,0-.9-.9Z" transform="translate(-17.185 -17.188)" fill="#1565c0"/>
    </clipPath>
    <clipPath id="clip-path-3">
      <path id="Trazado_601331" data-name="Trazado 601331" d="M1.8,40.336H43.484V58.928H1.8Zm15.294-7.647h11.1v5.772h-11.1ZM1.8,1.8H43.484v29.09H1.8ZM.9,0A.9.9,0,0,0,0,.9V31.789a.9.9,0,0,0,.9.9H15.295v5.848H.9a.9.9,0,0,0-.9.9V59.828a.9.9,0,0,0,.9.9H44.384a.9.9,0,0,0,.9-.9V39.436a.9.9,0,0,0-.9-.9H29.989V32.689H44.384a.9.9,0,0,0,.9-.9V.9a.9.9,0,0,0-.9-.9Z" fill="#1565c0"/>
    </clipPath>
    <clipPath id="clip-path-4">
      <path id="Trazado_601332" data-name="Trazado 601332" d="M61.347,208.6a.9.9,0,0,0,0,1.8H74.242a.9.9,0,1,0,0-1.8Z" transform="translate(-60.448 -208.604)" fill="#fb8c00"/>
    </clipPath>
    <clipPath id="clip-path-5">
      <path id="Trazado_601333" data-name="Trazado 601333" d="M214.847,18.987h6.147v2.7h-6.147Zm-.9-1.8a.9.9,0,0,0-.9.9v4.5a.9.9,0,0,0,.9.9h7.947a.9.9,0,0,0,.9-.9v-4.5a.9.9,0,0,0-.9-.9Z" transform="translate(-213.048 -17.188)" fill="#1565c0"/>
    </clipPath>
    <clipPath id="clip-path-6">
      <path id="Trazado_601335" data-name="Trazado 601335" d="M216.031,109.172a2.774,2.774,0,1,1,2.774,2.774,2.777,2.777,0,0,1-2.774-2.774m-1.8,0a4.574,4.574,0,1,0,4.573-4.573,4.578,4.578,0,0,0-4.573,4.573" transform="translate(-214.232 -104.599)" fill="#1565c0"/>
    </clipPath>
    <clipPath id="clip-path-8">
      <path id="Trazado_601327" data-name="Trazado 601327" d="M87.426,25.478c-13.786.984-13.358,15.534-13.352,15.68a1.1,1.1,0,0,0,1.1,1.059h.043a1.1,1.1,0,0,0,1.059-1.145c-.019-.513-.335-12.56,11.305-13.392a1.105,1.105,0,0,0-.051-2.207,1.046,1.046,0,0,0-.107.006" transform="translate(-74.072 -25.472)" fill="#1565c0"/>
    </clipPath>
    <clipPath id="clip-path-9">
      <path id="Trazado_601328" data-name="Trazado 601328" d="M33.671,0A19.34,19.34,0,0,0,14.351,19.319v2.062A15.478,15.478,0,0,0,0,36.8v1.841A15.474,15.474,0,0,0,15.457,54.1H30.544A11.055,11.055,0,0,0,41.585,43.057V39.828l3.968,4.341a1.1,1.1,0,1,0,1.63-1.49L41.3,36.238a1.121,1.121,0,0,0-.826-.357,1.093,1.093,0,0,0-.817.373l-5.7,6.44a1.1,1.1,0,0,0,.093,1.558,1.116,1.116,0,0,0,.733.277,1.1,1.1,0,0,0,.826-.373l3.776-4.26v3.161a8.845,8.845,0,0,1-8.834,8.834H15.457A13.263,13.263,0,0,1,2.208,38.642V36.8A13.263,13.263,0,0,1,15.457,23.551a1.1,1.1,0,0,0,1.1-1.105V19.319A17.13,17.13,0,0,1,33.671,2.208h8.281A10.869,10.869,0,0,1,52.81,13.063a1.1,1.1,0,0,0,1.105,1.105h2.94a9.577,9.577,0,0,1,9.57,9.567,1.1,1.1,0,0,0,1.105,1.105h.919A13.633,13.633,0,0,1,82.068,38.455,13.45,13.45,0,0,1,68.633,51.891H51.155A11.78,11.78,0,0,0,39.418,62.873l-3.9-3.524a1.1,1.1,0,1,0-1.478,1.639l5.7,5.151a1.1,1.1,0,0,0,1.466.012L47.1,61a1.1,1.1,0,0,0-1.453-1.661l-4.018,3.512A9.579,9.579,0,0,1,51.155,54.1H68.633A15.661,15.661,0,0,0,84.276,38.455,15.842,15.842,0,0,0,68.583,22.632,11.794,11.794,0,0,0,56.856,11.96H54.971A13.08,13.08,0,0,0,41.952,0Z" fill="url(#linear-gradient)"/>
    </clipPath>
    <clipPath id="clip-path-10">
      <rect id="Rectángulo_298110" data-name="Rectángulo 298110" width="3.68" height="3.68" fill="#fb8c00"/>
    </clipPath>
    <clipPath id="clip-path-13">
      <rect id="Rectángulo_298116" data-name="Rectángulo 298116" width="3.679" height="3.679" fill="#fb8c00"/>
    </clipPath>
    <clipPath id="clip-path-15">
      <rect id="Rectángulo_298120" data-name="Rectángulo 298120" width="3.683" height="3.679" fill="#fb8c00"/>
    </clipPath>
  </defs>
  <g id="Grupo_893205" data-name="Grupo 893205" transform="translate(3339.713 4366.923)">
    <g id="Grupo_890416" data-name="Grupo 890416" transform="translate(-3901.161 -4128.345)">
      <path id="Trazado_606272" data-name="Trazado 606272" d="M1073.766-238.578h25.3v46.26h-35.263v-36.3h9.961v-9.961Z" transform="translate(0 0)" fill="#fff" fill-rule="evenodd"/>
      <path id="Trazado_606273" data-name="Trazado 606273" d="M1111.919,70.595h28.416v1.814h-28.416V70.595Zm0-3.351h28.416v1.814h-28.416V67.244Zm0-3.351h28.416v1.814h-28.416V63.892Zm0-3.351h28.416v1.814h-28.416V60.541Zm0-3.351h28.416V59h-28.416V57.19Zm0-3.351h28.416v1.814h-28.416V53.839Zm0-3.351h28.416V52.3h-28.416V50.488Z" transform="translate(-44.69 -268.496)" fill="#26aab7" fill-rule="evenodd"/>
      <path id="Trazado_606274" data-name="Trazado 606274" d="M1263.607-183.305h24.511v10.838h-24.511v-10.838Z" transform="translate(-185.584 -51.339)" fill="#006baf" fill-rule="evenodd"/>
      <path id="Trazado_606275" data-name="Trazado 606275" d="M1559.361-28.351,1562.827-31h-3.466v2.651Z" transform="translate(-460.293 -192.805)" fill="#005183" fill-rule="evenodd"/>
      <path id="Trazado_606276" data-name="Trazado 606276" d="M1073.766-238.578l-9.961,9.914v.047h9.961v-9.961Z" transform="translate(0 0)" fill="#26aab7" fill-rule="evenodd"/>
      <path id="Trazado_606277" data-name="Trazado 606277" d="M1063.805-228.617h9.961v-9.961h.413v9.961h0v.413h-10.373v-.413Z" transform="translate(0 0)" fill="#9c9a9a" fill-rule="evenodd"/>
    </g>
    <g id="Grupo_890417" data-name="Grupo 890417" transform="translate(-3901.161 -4073.345)">
      <path id="Trazado_606272-2" data-name="Trazado 606272" d="M1073.766-238.578h25.3v46.26h-35.263v-36.3h9.961v-9.961Z" transform="translate(0 0)" fill="#fff" fill-rule="evenodd"/>
      <path id="Trazado_606273-2" data-name="Trazado 606273" d="M1111.919,70.595h28.416v1.814h-28.416V70.595Zm0-3.351h28.416v1.814h-28.416V67.244Zm0-3.351h28.416v1.814h-28.416V63.892Zm0-3.351h28.416v1.814h-28.416V60.541Zm0-3.351h28.416V59h-28.416V57.19Zm0-3.351h28.416v1.814h-28.416V53.839Zm0-3.351h28.416V52.3h-28.416V50.488Z" transform="translate(-44.69 -268.496)" fill="#26aab7" fill-rule="evenodd"/>
      <path id="Trazado_606274-2" data-name="Trazado 606274" d="M1263.607-183.305h24.511v10.838h-24.511v-10.838Z" transform="translate(-185.584 -51.339)" fill="#006baf" fill-rule="evenodd"/>
      <path id="Trazado_606275-2" data-name="Trazado 606275" d="M1559.361-28.351,1562.827-31h-3.466v2.651Z" transform="translate(-460.293 -192.805)" fill="#005183" fill-rule="evenodd"/>
      <path id="Trazado_606276-2" data-name="Trazado 606276" d="M1073.766-238.578l-9.961,9.914v.047h9.961v-9.961Z" transform="translate(0 0)" fill="#26aab7" fill-rule="evenodd"/>
      <path id="Trazado_606277-2" data-name="Trazado 606277" d="M1063.805-228.617h9.961v-9.961h.413v9.961h0v.413h-10.373v-.413Z" transform="translate(0 0)" fill="#9c9a9a" fill-rule="evenodd"/>
    </g>
    <g id="Grupo_890418" data-name="Grupo 890418" transform="translate(-3901.161 -4019.345)">
      <path id="Trazado_606272-3" data-name="Trazado 606272" d="M1073.766-238.578h25.3v46.26h-35.263v-36.3h9.961v-9.961Z" transform="translate(0 0)" fill="#fff" fill-rule="evenodd"/>
      <path id="Trazado_606273-3" data-name="Trazado 606273" d="M1111.919,70.595h28.416v1.814h-28.416V70.595Zm0-3.351h28.416v1.814h-28.416V67.244Zm0-3.351h28.416v1.814h-28.416V63.892Zm0-3.351h28.416v1.814h-28.416V60.541Zm0-3.351h28.416V59h-28.416V57.19Zm0-3.351h28.416v1.814h-28.416V53.839Zm0-3.351h28.416V52.3h-28.416V50.488Z" transform="translate(-44.69 -268.496)" fill="#26aab7" fill-rule="evenodd"/>
      <path id="Trazado_606274-3" data-name="Trazado 606274" d="M1263.607-183.305h24.511v10.838h-24.511v-10.838Z" transform="translate(-185.584 -51.339)" fill="#006baf" fill-rule="evenodd"/>
      <path id="Trazado_606275-3" data-name="Trazado 606275" d="M1559.361-28.351,1562.827-31h-3.466v2.651Z" transform="translate(-460.293 -192.805)" fill="#005183" fill-rule="evenodd"/>
      <path id="Trazado_606276-3" data-name="Trazado 606276" d="M1073.766-238.578l-9.961,9.914v.047h9.961v-9.961Z" transform="translate(0 0)" fill="#26aab7" fill-rule="evenodd"/>
      <path id="Trazado_606277-3" data-name="Trazado 606277" d="M1063.805-228.617h9.961v-9.961h.413v9.961h0v.413h-10.373v-.413Z" transform="translate(0 0)" fill="#9c9a9a" fill-rule="evenodd"/>
    </g>
    <g id="Grupo_890419" data-name="Grupo 890419" transform="translate(-3901.161 -3965.346)">
      <path id="Trazado_606272-4" data-name="Trazado 606272" d="M1073.766-238.578h25.3v46.26h-35.263v-36.3h9.961v-9.961Z" transform="translate(0 0)" fill="#fff" fill-rule="evenodd"/>
      <path id="Trazado_606273-4" data-name="Trazado 606273" d="M1111.919,70.595h28.416v1.814h-28.416V70.595Zm0-3.351h28.416v1.814h-28.416V67.244Zm0-3.351h28.416v1.814h-28.416V63.892Zm0-3.351h28.416v1.814h-28.416V60.541Zm0-3.351h28.416V59h-28.416V57.19Zm0-3.351h28.416v1.814h-28.416V53.839Zm0-3.351h28.416V52.3h-28.416V50.488Z" transform="translate(-44.69 -268.496)" fill="#26aab7" fill-rule="evenodd"/>
      <path id="Trazado_606274-4" data-name="Trazado 606274" d="M1263.607-183.305h24.511v10.838h-24.511v-10.838Z" transform="translate(-185.584 -51.339)" fill="#006baf" fill-rule="evenodd"/>
      <path id="Trazado_606275-4" data-name="Trazado 606275" d="M1559.361-28.351,1562.827-31h-3.466v2.651Z" transform="translate(-460.293 -192.805)" fill="#005183" fill-rule="evenodd"/>
      <path id="Trazado_606276-4" data-name="Trazado 606276" d="M1073.766-238.578l-9.961,9.914v.047h9.961v-9.961Z" transform="translate(0 0)" fill="#26aab7" fill-rule="evenodd"/>
      <path id="Trazado_606277-4" data-name="Trazado 606277" d="M1063.805-228.617h9.961v-9.961h.413v9.961h0v.413h-10.373v-.413Z" transform="translate(0 0)" fill="#9c9a9a" fill-rule="evenodd"/>
    </g>
    <g id="Grupo_889380" data-name="Grupo 889380" transform="translate(-3323.643 -4294.49)">
      <g id="Grupo_887377" data-name="Grupo 887377" transform="translate(49.557)">
        <g id="Grupo_887376" data-name="Grupo 887376" clip-path="url(#clip-path)">
          <rect id="Rectángulo_298121" data-name="Rectángulo 298121" width="19.805" height="60.819" transform="translate(-1.366 0.031) rotate(-1.296)" fill="#1565c0"/>
        </g>
      </g>
      <g id="Grupo_887379" data-name="Grupo 887379" transform="translate(4.348 4.349)" style="isolation: isolate">
        <g id="Grupo_887378" data-name="Grupo 887378" clip-path="url(#clip-path-2)">
          <rect id="Rectángulo_298122" data-name="Rectángulo 298122" width="37.11" height="24.362" transform="translate(-0.532 0.012) rotate(-1.296)" fill="#1565c0"/>
        </g>
      </g>
      <g id="Grupo_887381" data-name="Grupo 887381">
        <g id="Grupo_887380" data-name="Grupo 887380" clip-path="url(#clip-path-3)">
          <rect id="Rectángulo_298123" data-name="Rectángulo 298123" width="46.645" height="61.737" transform="translate(-1.373 0.031) rotate(-1.296)" fill="#1565c0"/>
        </g>
      </g>
      <g id="Grupo_887383" data-name="Grupo 887383" transform="translate(15.295 52.781)" style="isolation: isolate">
        <g id="Grupo_887382" data-name="Grupo 887382" clip-path="url(#clip-path-4)">
          <rect id="Rectángulo_298124" data-name="Rectángulo 298124" width="14.731" height="2.131" transform="matrix(1, -0.023, 0.023, 1, -0.041, 0.001)" fill="#fb8c00"/>
        </g>
      </g>
      <g id="Grupo_887385" data-name="Grupo 887385" transform="translate(53.906 4.349)">
        <g id="Grupo_887384" data-name="Grupo 887384" clip-path="url(#clip-path-5)">
          <rect id="Rectángulo_298125" data-name="Rectángulo 298125" width="9.886" height="6.517" transform="translate(-0.142 0.003) rotate(-1.296)" fill="#1565c0"/>
        </g>
      </g>
      <g id="Grupo_887389" data-name="Grupo 887389" transform="translate(54.205 26.466)">
        <g id="Grupo_887388" data-name="Grupo 887388" clip-path="url(#clip-path-6)">
          <rect id="Rectángulo_298127" data-name="Rectángulo 298127" width="9.352" height="9.351" transform="translate(-0.207 0.005) rotate(-1.296)" fill="#1565c0"/>
        </g>
      </g>
      <g id="Grupo_887391" data-name="Grupo 887391" transform="translate(53.906 12.349)">
        <g id="Grupo_887384-2" data-name="Grupo 887384" clip-path="url(#clip-path-5)">
          <rect id="Rectángulo_298125-2" data-name="Rectángulo 298125" width="9.886" height="6.517" transform="translate(-0.142 0.003) rotate(-1.296)" fill="#1565c0"/>
        </g>
      </g>
    </g>
    <g id="Grupo_890415" data-name="Grupo 890415" transform="translate(-3015.643 -4299.554)" style="isolation: isolate">
      <g id="Grupo_887360" data-name="Grupo 887360" transform="translate(22.999 7.909)">
        <g id="Grupo_887359" data-name="Grupo 887359" clip-path="url(#clip-path-8)">
          <rect id="Rectángulo_298107" data-name="Rectángulo 298107" width="15.01" height="16.745" transform="translate(-0.432 0)" fill="#1565c0"/>
        </g>
      </g>
      <g id="Grupo_887362" data-name="Grupo 887362">
        <g id="Grupo_887361" data-name="Grupo 887361" clip-path="url(#clip-path-9)">
          <rect id="Rectángulo_298108" data-name="Rectángulo 298108" width="84.276" height="66.425" fill="#1565c0"/>
        </g>
      </g>
      <g id="Grupo_887364" data-name="Grupo 887364" transform="translate(51.521 43.425)">
        <g id="Grupo_887363" data-name="Grupo 887363" clip-path="url(#clip-path-10)">
          <rect id="Rectángulo_298109" data-name="Rectángulo 298109" width="3.68" height="3.68" transform="translate(0 0)" fill="#fb8c00"/>
        </g>
      </g>
      <g id="Grupo_887366" data-name="Grupo 887366" transform="translate(57.778 43.425)">
        <g id="Grupo_887365" data-name="Grupo 887365" clip-path="url(#clip-path-10)">
          <rect id="Rectángulo_298111" data-name="Rectángulo 298111" width="3.68" height="3.68" transform="translate(0 0)" fill="#fb8c00"/>
        </g>
      </g>
      <g id="Grupo_887368" data-name="Grupo 887368" transform="translate(64.034 43.425)">
        <g id="Grupo_887367" data-name="Grupo 887367" clip-path="url(#clip-path-10)">
          <rect id="Rectángulo_298113" data-name="Rectángulo 298113" width="3.68" height="3.68" transform="translate(0 0)" fill="#fb8c00"/>
        </g>
      </g>
      <g id="Grupo_887370" data-name="Grupo 887370" transform="translate(14.075 43.423)">
        <g id="Grupo_887369" data-name="Grupo 887369" clip-path="url(#clip-path-13)">
          <rect id="Rectángulo_298115" data-name="Rectángulo 298115" width="3.679" height="3.679" fill="#fb8c00"/>
        </g>
      </g>
      <g id="Grupo_887372" data-name="Grupo 887372" transform="translate(20.332 43.423)">
        <g id="Grupo_887371" data-name="Grupo 887371" clip-path="url(#clip-path-13)">
          <rect id="Rectángulo_298117" data-name="Rectángulo 298117" width="3.679" height="3.679" transform="translate(0)" fill="#fb8c00"/>
        </g>
      </g>
      <g id="Grupo_887374" data-name="Grupo 887374" transform="translate(26.585 43.423)">
        <g id="Grupo_887373" data-name="Grupo 887373" clip-path="url(#clip-path-15)">
          <rect id="Rectángulo_298119" data-name="Rectángulo 298119" width="3.683" height="3.679" fill="#fb8c00"/>
        </g>
      </g>
    </g>
    <path id="Trazado_606466" data-name="Trazado 606466" d="M3.484-3.508,3.453-2.133l.531-1.344,3.4-7.9H8.625l.9,8,.078,1.3.492-1.57L13-11.375h1.508L10.055,0H8.719L7.734-8.352,7.7-9.133l-.328.906L3.75,0H2.414L1.523-11.375h1.43ZM17.5.156a3.048,3.048,0,0,1-2.469-1.164,4.006,4.006,0,0,1-.75-2.9l.039-.336a5.624,5.624,0,0,1,.746-2.3,4.339,4.339,0,0,1,1.5-1.566,3.491,3.491,0,0,1,1.906-.5,2.688,2.688,0,0,1,2.047.867,3.566,3.566,0,0,1,.813,2.266A6.621,6.621,0,0,1,21.3-4.461l-.086.648H15.688a2.856,2.856,0,0,0,.379,1.953,1.8,1.8,0,0,0,1.551.836A3.007,3.007,0,0,0,19.93-2.148l.813.688a3.718,3.718,0,0,1-1.371,1.2A3.886,3.886,0,0,1,17.5.156Zm.9-7.586a2.066,2.066,0,0,0-1.527.594A4.22,4.22,0,0,0,15.836-5l4.109.008.031-.125a2.313,2.313,0,0,0-.316-1.637A1.488,1.488,0,0,0,18.4-7.43ZM29.813-4.187A6.586,6.586,0,0,1,29.1-1.852,3.982,3.982,0,0,1,27.758-.312a3.058,3.058,0,0,1-1.75.477A2.61,2.61,0,0,1,23.734-.984L23.445,0h-1.3l2.086-12h1.414l-.852,4.484a3.107,3.107,0,0,1,2.469-1.094,2.358,2.358,0,0,1,1.9.9,3.954,3.954,0,0,1,.719,2.391,7.362,7.362,0,0,1-.047.969Zm-1.344-.82a3.015,3.015,0,0,0-.383-1.746,1.464,1.464,0,0,0-1.242-.637,2.573,2.573,0,0,0-2.234,1.328l-.633,3.68a1.8,1.8,0,0,0,1.758,1.32,2.053,2.053,0,0,0,1.449-.492,3.216,3.216,0,0,0,.941-1.465A6.594,6.594,0,0,0,28.469-5.008Zm9.07,2.078q.172-1.25-1.3-1.828L34.891-5.25l-.453-.2Q32.156-6.484,32.3-8.367a3.056,3.056,0,0,1,.648-1.672,3.69,3.69,0,0,1,1.512-1.121,4.849,4.849,0,0,1,2-.371,4,4,0,0,1,1.84.461,2.962,2.962,0,0,1,1.23,1.223,3.333,3.333,0,0,1,.375,1.77l-1.477-.008a2.025,2.025,0,0,0-.469-1.621,2.1,2.1,0,0,0-1.562-.59,2.914,2.914,0,0,0-1.789.5,1.951,1.951,0,0,0-.828,1.406q-.156,1.164,1.43,1.766l1.164.414.586.25a2.941,2.941,0,0,1,2.039,3.016,3.012,3.012,0,0,1-.648,1.66A3.626,3.626,0,0,1,36.832-.2a5.266,5.266,0,0,1-2.074.359A4.339,4.339,0,0,1,32.8-.3a3.193,3.193,0,0,1-1.348-1.23A3.078,3.078,0,0,1,31.047-3.3l1.469.008a1.935,1.935,0,0,0,.551,1.613,2.479,2.479,0,0,0,1.754.613,3.131,3.131,0,0,0,1.867-.492A1.916,1.916,0,0,0,37.539-2.93ZM43.875.156a3.048,3.048,0,0,1-2.469-1.164,4.006,4.006,0,0,1-.75-2.9l.039-.336a5.624,5.624,0,0,1,.746-2.3,4.339,4.339,0,0,1,1.5-1.566,3.491,3.491,0,0,1,1.906-.5,2.688,2.688,0,0,1,2.047.867A3.566,3.566,0,0,1,47.7-5.477a6.621,6.621,0,0,1-.031,1.016l-.086.648H42.063a2.856,2.856,0,0,0,.379,1.953,1.8,1.8,0,0,0,1.551.836A3.007,3.007,0,0,0,46.3-2.148l.813.688a3.718,3.718,0,0,1-1.371,1.2A3.886,3.886,0,0,1,43.875.156Zm.9-7.586a2.066,2.066,0,0,0-1.527.594A4.22,4.22,0,0,0,42.211-5l4.109.008.031-.125a2.313,2.313,0,0,0-.316-1.637A1.488,1.488,0,0,0,44.773-7.43Zm9,.266-.664-.07a2.42,2.42,0,0,0-2.141,1.227L49.93,0H48.516l1.469-8.453,1.367-.008-.211.984a2.527,2.527,0,0,1,2.117-1.148,2.594,2.594,0,0,1,.672.117Zm3.281,5.188L60.1-8.453h1.492L57.336,0H56.258L54.6-8.453h1.391ZM63.109,0H61.7l1.469-8.453h1.406Zm1.164-11.539a.774.774,0,0,1,.6.215.8.8,0,0,1,.238.605.849.849,0,0,1-.238.6.855.855,0,0,1-.6.25.779.779,0,0,1-.6-.211.764.764,0,0,1-.227-.594.886.886,0,0,1,.234-.609A.826.826,0,0,1,64.273-11.539ZM68.992-1.016a2.145,2.145,0,0,0,1.367-.441,2.1,2.1,0,0,0,.8-1.2l1.336-.008a3.014,3.014,0,0,1-.637,1.453A3.553,3.553,0,0,1,70.547-.187,3.551,3.551,0,0,1,68.93.156a3.017,3.017,0,0,1-1.785-.551A3.084,3.084,0,0,1,66.07-1.887a4.972,4.972,0,0,1-.234-2.152l.039-.391a5.605,5.605,0,0,1,.711-2.18,4.11,4.11,0,0,1,1.469-1.5,3.648,3.648,0,0,1,2-.5,2.857,2.857,0,0,1,2.125.891,3.08,3.08,0,0,1,.8,2.18l-1.32-.008a2.029,2.029,0,0,0-.461-1.34,1.607,1.607,0,0,0-1.2-.543,2.254,2.254,0,0,0-1.832.82,4.3,4.3,0,0,0-.91,2.359l-.023.2a6.776,6.776,0,0,0-.016,1.031,2.355,2.355,0,0,0,.516,1.445A1.656,1.656,0,0,0,68.992-1.016ZM77.281.156a3.048,3.048,0,0,1-2.469-1.164,4.006,4.006,0,0,1-.75-2.9l.039-.336a5.624,5.624,0,0,1,.746-2.3,4.339,4.339,0,0,1,1.5-1.566,3.491,3.491,0,0,1,1.906-.5,2.688,2.688,0,0,1,2.047.867,3.566,3.566,0,0,1,.813,2.266,6.62,6.62,0,0,1-.031,1.016l-.086.648H75.469a2.856,2.856,0,0,0,.379,1.953,1.8,1.8,0,0,0,1.551.836,3.007,3.007,0,0,0,2.313-1.125l.813.688a3.718,3.718,0,0,1-1.371,1.2A3.886,3.886,0,0,1,77.281.156Zm.9-7.586a2.066,2.066,0,0,0-1.527.594A4.22,4.22,0,0,0,75.617-5l4.109.008.031-.125a2.313,2.313,0,0,0-.316-1.637A1.488,1.488,0,0,0,78.18-7.43Z" transform="translate(-3015.641 -4207.93)" fill="#12263f"/>
    <path id="Trazado_606470" data-name="Trazado 606470" d="M9.688-3.609A4.185,4.185,0,0,1,8.355-.824a4.365,4.365,0,0,1-2.98.98,4.008,4.008,0,0,1-3.23-1.445A5.815,5.815,0,0,1,.93-5.156V-6.25A6.481,6.481,0,0,1,1.5-9.039,4.231,4.231,0,0,1,3.1-10.887a4.47,4.47,0,0,1,2.406-.645A4.11,4.11,0,0,1,8.414-10.52a4.235,4.235,0,0,1,1.273,2.8H8.18a3.254,3.254,0,0,0-.848-1.969A2.569,2.569,0,0,0,5.508-10.3,2.685,2.685,0,0,0,3.254-9.234a4.875,4.875,0,0,0-.816,3.023v1.1a5.011,5.011,0,0,0,.773,2.945A2.5,2.5,0,0,0,5.375-1.07a2.887,2.887,0,0,0,1.918-.566A3.143,3.143,0,0,0,8.18-3.609ZM13.078,0H11.633V-12h1.445Zm3.883,0H15.516V-8.453h1.445ZM15.4-10.7a.863.863,0,0,1,.215-.594.807.807,0,0,1,.637-.242.819.819,0,0,1,.641.242.854.854,0,0,1,.219.594.826.826,0,0,1-.219.586.834.834,0,0,1-.641.234.821.821,0,0,1-.637-.234A.834.834,0,0,1,15.4-10.7ZM22.781.156a3.693,3.693,0,0,1-2.8-1.129,4.19,4.19,0,0,1-1.078-3.02v-.266a5.073,5.073,0,0,1,.48-2.246A3.748,3.748,0,0,1,20.73-8.051,3.378,3.378,0,0,1,22.6-8.609a3.166,3.166,0,0,1,2.563,1.086,4.7,4.7,0,0,1,.914,3.109v.6H20.352a3,3,0,0,0,.73,2.02,2.3,2.3,0,0,0,1.777.77,2.517,2.517,0,0,0,1.3-.312,3.259,3.259,0,0,0,.93-.828l.883.688A3.55,3.55,0,0,1,22.781.156ZM22.6-7.422a1.928,1.928,0,0,0-1.469.637A3.1,3.1,0,0,0,20.4-5h4.234v-.109a2.753,2.753,0,0,0-.594-1.707A1.815,1.815,0,0,0,22.6-7.422Zm6.516-1.031.047,1.063A3.08,3.08,0,0,1,31.7-8.609q2.68,0,2.7,3.023V0H32.953V-5.594a1.946,1.946,0,0,0-.418-1.352,1.675,1.675,0,0,0-1.277-.437,2.086,2.086,0,0,0-1.234.375,2.546,2.546,0,0,0-.828.984V0H27.75V-8.453ZM38.539-10.5v2.047h1.578v1.117H38.539v5.242a1.171,1.171,0,0,0,.211.762.888.888,0,0,0,.719.254,3.5,3.5,0,0,0,.688-.094V0a4.19,4.19,0,0,1-1.109.156A1.8,1.8,0,0,1,37.586-.43a2.517,2.517,0,0,1-.492-1.664V-7.336H35.555V-8.453h1.539V-10.5ZM45.313.156a3.693,3.693,0,0,1-2.8-1.129,4.19,4.19,0,0,1-1.078-3.02v-.266a5.073,5.073,0,0,1,.48-2.246,3.748,3.748,0,0,1,1.344-1.547,3.378,3.378,0,0,1,1.871-.559A3.166,3.166,0,0,1,47.7-7.523a4.7,4.7,0,0,1,.914,3.109v.6H42.883a3,3,0,0,0,.73,2.02,2.3,2.3,0,0,0,1.777.77,2.517,2.517,0,0,0,1.3-.312,3.259,3.259,0,0,0,.93-.828l.883.688A3.55,3.55,0,0,1,45.313.156Zm-.18-7.578a1.928,1.928,0,0,0-1.469.637A3.1,3.1,0,0,0,42.93-5h4.234v-.109a2.753,2.753,0,0,0-.594-1.707A1.815,1.815,0,0,0,45.133-7.422Zm16.594,5.43,1.625-6.461H64.8L62.336,0H61.164L59.109-6.406,57.109,0H55.938L53.484-8.453h1.438l1.664,6.328,1.969-6.328h1.164Zm12.023,0,1.625-6.461H76.82L74.359,0H73.188L71.133-6.406,69.133,0H67.961L65.508-8.453h1.438l1.664,6.328,1.969-6.328h1.164Zm12.023,0L87.4-8.453h1.445L86.383,0H85.211L83.156-6.406,81.156,0H79.984L77.531-8.453h1.438l1.664,6.328L82.6-8.453h1.164Z" transform="translate(-3340.643 -4207.93)" fill="#12263f"/>
    <path id="Trazado_606468" data-name="Trazado 606468" d="M2.82-4.453V0H1.32V-11.375h4.2a4.215,4.215,0,0,1,2.926.953A3.231,3.231,0,0,1,9.5-7.9,3.189,3.189,0,0,1,8.465-5.348,4.4,4.4,0,0,1,5.5-4.453Zm0-1.227h2.7a2.7,2.7,0,0,0,1.844-.566A2.069,2.069,0,0,0,8-7.883a2.138,2.138,0,0,0-.641-1.625A2.528,2.528,0,0,0,5.6-10.141H2.82ZM15.273-7.156a4.331,4.331,0,0,0-.711-.055A1.9,1.9,0,0,0,12.633-6V0H11.188V-8.453h1.406l.023.977a2.251,2.251,0,0,1,2.016-1.133,1.477,1.477,0,0,1,.641.109ZM16.063-4.3a4.993,4.993,0,0,1,.488-2.234A3.643,3.643,0,0,1,17.91-8.07,3.7,3.7,0,0,1,19.9-8.609a3.565,3.565,0,0,1,2.793,1.2,4.6,4.6,0,0,1,1.066,3.18v.1a5.036,5.036,0,0,1-.473,2.215A3.589,3.589,0,0,1,21.934-.391a3.743,3.743,0,0,1-2.02.547,3.556,3.556,0,0,1-2.785-1.2A4.575,4.575,0,0,1,16.063-4.2Zm1.453.172a3.616,3.616,0,0,0,.652,2.258,2.088,2.088,0,0,0,1.746.852,2.075,2.075,0,0,0,1.75-.863A3.955,3.955,0,0,0,22.313-4.3a3.61,3.61,0,0,0-.66-2.254A2.1,2.1,0,0,0,19.9-7.422a2.075,2.075,0,0,0-1.727.852A3.925,3.925,0,0,0,17.516-4.133ZM27.531-10.5v2.047h1.578v1.117H27.531v5.242a1.171,1.171,0,0,0,.211.762.888.888,0,0,0,.719.254,3.5,3.5,0,0,0,.688-.094V0a4.19,4.19,0,0,1-1.109.156A1.8,1.8,0,0,1,26.578-.43a2.517,2.517,0,0,1-.492-1.664V-7.336H24.547V-8.453h1.539V-10.5Zm2.727,6.2a4.993,4.993,0,0,1,.488-2.234A3.643,3.643,0,0,1,32.105-8.07a3.7,3.7,0,0,1,1.988-.539,3.565,3.565,0,0,1,2.793,1.2,4.6,4.6,0,0,1,1.066,3.18v.1a5.036,5.036,0,0,1-.473,2.215A3.589,3.589,0,0,1,36.129-.391a3.743,3.743,0,0,1-2.02.547,3.556,3.556,0,0,1-2.785-1.2A4.575,4.575,0,0,1,30.258-4.2Zm1.453.172a3.616,3.616,0,0,0,.652,2.258,2.088,2.088,0,0,0,1.746.852,2.075,2.075,0,0,0,1.75-.863A3.955,3.955,0,0,0,36.508-4.3a3.61,3.61,0,0,0-.66-2.254,2.1,2.1,0,0,0-1.754-.863,2.075,2.075,0,0,0-1.727.852A3.925,3.925,0,0,0,31.711-4.133ZM43.156-1.023a2.082,2.082,0,0,0,1.352-.469,1.649,1.649,0,0,0,.641-1.172h1.367a2.621,2.621,0,0,1-.5,1.383,3.293,3.293,0,0,1-1.23,1.047,3.55,3.55,0,0,1-1.629.391A3.482,3.482,0,0,1,40.41-1a4.59,4.59,0,0,1-1.02-3.152v-.242a5.089,5.089,0,0,1,.453-2.2,3.451,3.451,0,0,1,1.3-1.492,3.7,3.7,0,0,1,2-.531,3.39,3.39,0,0,1,2.363.852,3.043,3.043,0,0,1,1,2.211H45.148a1.992,1.992,0,0,0-.621-1.348,1.932,1.932,0,0,0-1.379-.527,2.023,2.023,0,0,0-1.707.793,3.724,3.724,0,0,0-.605,2.293v.273a3.65,3.65,0,0,0,.6,2.25A2.033,2.033,0,0,0,43.156-1.023Zm4.6-3.281a4.993,4.993,0,0,1,.488-2.234A3.643,3.643,0,0,1,49.605-8.07a3.7,3.7,0,0,1,1.988-.539,3.565,3.565,0,0,1,2.793,1.2,4.6,4.6,0,0,1,1.066,3.18v.1a5.036,5.036,0,0,1-.473,2.215A3.589,3.589,0,0,1,53.629-.391a3.743,3.743,0,0,1-2.02.547,3.556,3.556,0,0,1-2.785-1.2A4.575,4.575,0,0,1,47.758-4.2Zm1.453.172a3.616,3.616,0,0,0,.652,2.258,2.088,2.088,0,0,0,1.746.852,2.075,2.075,0,0,0,1.75-.863A3.955,3.955,0,0,0,54.008-4.3a3.61,3.61,0,0,0-.66-2.254,2.1,2.1,0,0,0-1.754-.863,2.075,2.075,0,0,0-1.727.852A3.925,3.925,0,0,0,49.211-4.133ZM58.836,0H57.391V-12h1.445Zm1.93-4.3a4.993,4.993,0,0,1,.488-2.234A3.643,3.643,0,0,1,62.613-8.07,3.7,3.7,0,0,1,64.6-8.609a3.565,3.565,0,0,1,2.793,1.2,4.6,4.6,0,0,1,1.066,3.18v.1a5.036,5.036,0,0,1-.473,2.215A3.589,3.589,0,0,1,66.637-.391a3.743,3.743,0,0,1-2.02.547,3.556,3.556,0,0,1-2.785-1.2A4.575,4.575,0,0,1,60.766-4.2Zm1.453.172a3.616,3.616,0,0,0,.652,2.258,2.088,2.088,0,0,0,1.746.852,2.075,2.075,0,0,0,1.75-.863A3.955,3.955,0,0,0,67.016-4.3a3.61,3.61,0,0,0-.66-2.254A2.1,2.1,0,0,0,64.6-7.422a2.075,2.075,0,0,0-1.727.852A3.925,3.925,0,0,0,62.219-4.133ZM83.2,0H81.7V-5.258H75.961V0h-1.5V-11.375h1.5v4.891H81.7v-4.891H83.2ZM93.5-10.141H89.844V0H88.352V-10.141H84.7v-1.234h8.8Zm9.672,0H99.516V0H98.023V-10.141H94.375v-1.234h8.8Zm3.188,5.688V0h-1.5V-11.375h4.2a4.215,4.215,0,0,1,2.926.953A3.231,3.231,0,0,1,113.039-7.9,3.189,3.189,0,0,1,112-5.348a4.4,4.4,0,0,1-2.965.895Zm0-1.227h2.7a2.7,2.7,0,0,0,1.844-.566,2.069,2.069,0,0,0,.641-1.637,2.138,2.138,0,0,0-.641-1.625,2.528,2.528,0,0,0-1.758-.633h-2.781Z" transform="translate(-3184.643 -4249.126)" fill="#12263f"/>
    <path id="Trazado_606267" data-name="Trazado 606267" d="M-4021-3800.508h-190" transform="translate(985.357 -476)" fill="none" stroke="#707070" stroke-width="1"/>
    <path id="Trazado_606467" data-name="Trazado 606467" d="M7.5,0,15,13H0Z" transform="translate(-3028.643 -4284) rotate(90)" fill="#12263f"/>
    <path id="Trazado_606268" data-name="Trazado 606268" d="M-4021-3800.508h-190" transform="translate(985.357 -433)" fill="none" stroke="#707070" stroke-width="1"/>
    <path id="Trazado_606469" data-name="Trazado 606469" d="M7.5,0,15,13H0Z" transform="translate(-3225.643 -4226) rotate(-90)" fill="#12263f"/>
    <path id="Trazado_606269" data-name="Trazado 606269" d="M-3840.357-3876.194l-75.643,66.7,75.643-19.214" transform="translate(993.357 -454.636)" fill="none" stroke="#000" stroke-width="1.1" opacity="0.999"/>
    <path id="Trazado_606270" data-name="Trazado 606270" d="M-3840.357-3809.49l-75.643-66.7,75.643,19.214" transform="translate(993.357 -387.932)" fill="none" stroke="#000" stroke-width="1.1" opacity="0.999"/>
  </g>
</svg>
